<?xml version="1.0" encoding="UTF-8" standalone="no"?>
<!DOCTYPE svg PUBLIC "-//W3C//DTD SVG 1.1//EN"
 "http://www.w3.org/Graphics/SVG/1.1/DTD/svg11.dtd">
<!-- Generated by graphviz version 2.50.0 (20211204.2007)
 -->
<!-- Title: src/Actuator.h Pages: 1 -->
<!--zoomable 140 -->
<svg id="main" version="1.1" xmlns="http://www.w3.org/2000/svg" xmlns:xlink="http://www.w3.org/1999/xlink" xml:space="preserve" onload="init(evt)">
<style type="text/css"><![CDATA[
.edge:hover path { stroke: red; }
.edge:hover polygon { stroke: red; fill: red; }
]]></style>
<script type="text/javascript"><![CDATA[
var edges = document.getElementsByTagName('g');
if (edges && edges.length) {
  for (var i=0;i<edges.length;i++) {
    if (edges[i].id.substr(0,4)=='edge') {
      edges[i].setAttribute('class','edge');
    }
  }
}
]]></script>
        <defs>
                <circle id="rim" cx="0" cy="0" r="7"/>
                <circle id="rim2" cx="0" cy="0" r="3.5"/>
                <g id="zoomPlus">
                        <use xlink:href="#rim" fill="#404040">
                                <set attributeName="fill" to="#808080" begin="zoomplus.mouseover" end="zoomplus.mouseout"/>
                        </use>
                        <path d="M-4,0h8M0,-4v8" fill="none" stroke="white" stroke-width="1.5" pointer-events="none"/>
                </g>
                <g id="zoomMin">
                        <use xlink:href="#rim" fill="#404040">
                                <set attributeName="fill" to="#808080" begin="zoomminus.mouseover" end="zoomminus.mouseout"/>
                        </use>
                        <path d="M-4,0h8" fill="none" stroke="white" stroke-width="1.5" pointer-events="none"/>
                </g>
                <g id="dirArrow">
                        <path fill="none" stroke="white" stroke-width="1.5" d="M0,-3.0v7 M-2.5,-0.5L0,-3.0L2.5,-0.5"/>
                </g>
               <g id="resetDef">
                       <use xlink:href="#rim2" fill="#404040">
                               <set attributeName="fill" to="#808080" begin="reset.mouseover" end="reset.mouseout"/>
                       </use>
               </g>
        </defs>

<script type="text/javascript">
var viewWidth = 925;
var viewHeight = 140;
var sectionId = 'dynsection-1';
</script>
<script xlink:href="svgpan.js"/>
<svg id="graph" class="graph">
<g id="viewport">
<title>src/Actuator.h</title>
<!-- Node1 -->
<g id="node1" class="node">
<title>Node1</title>
<g id="a_node1"><a xlink:title=" ">
<polygon fill="#bfbfbf" stroke="black" points="419,-112.5 419,-131.5 496,-131.5 496,-112.5 419,-112.5"/>
<text text-anchor="middle" x="457.5" y="-119.5" font-family="Helvetica,sans-Serif" font-size="10.00">src/Actuator.h</text>
</a>
</g>
</g>
<!-- Node2 -->
<g id="node2" class="node">
<title>Node2</title>
<g id="a_node2"><a xlink:href="_air_flow_actuator_8h.html" target="_top" xlink:title=" ">
<polygon fill="none" stroke="black" points="38.5,-56.5 38.5,-75.5 148.5,-75.5 148.5,-56.5 38.5,-56.5"/>
<text text-anchor="middle" x="93.5" y="-63.5" font-family="Helvetica,sans-Serif" font-size="10.00">src/AirFlowActuator.h</text>
</a>
</g>
</g>
<!-- Node1&#45;&gt;Node2 -->
<g id="edge1" class="edge">
<title>Node1&#45;&gt;Node2</title>
<path fill="none" stroke="midnightblue" d="M408.93,-113.79C341.37,-103.77 219.36,-85.67 148.52,-75.16"/>
<polygon fill="midnightblue" stroke="midnightblue" points="408.48,-117.27 418.89,-115.27 409.51,-110.34 408.48,-117.27"/>
</g>
<!-- Node5 -->
<g id="node5" class="node">
<title>Node5</title>
<g id="a_node5"><a xlink:href="_dehumid_actuator_8h.html" target="_top" xlink:title=" ">
<polygon fill="none" stroke="black" points="166.5,-56.5 166.5,-75.5 282.5,-75.5 282.5,-56.5 166.5,-56.5"/>
<text text-anchor="middle" x="224.5" y="-63.5" font-family="Helvetica,sans-Serif" font-size="10.00">src/DehumidActuator.h</text>
</a>
</g>
</g>
<!-- Node1&#45;&gt;Node5 -->
<g id="edge4" class="edge">
<title>Node1&#45;&gt;Node5</title>
<path fill="none" stroke="midnightblue" d="M410.7,-110.15C366.67,-99.95 301.65,-84.88 261.25,-75.52"/>
<polygon fill="midnightblue" stroke="midnightblue" points="410.05,-113.6 420.58,-112.44 411.63,-106.78 410.05,-113.6"/>
</g>
<!-- Node7 -->
<g id="node7" class="node">
<title>Node7</title>
<g id="a_node7"><a xlink:href="_heat_actuator_8h.html" target="_top" xlink:title=" ">
<polygon fill="none" stroke="black" points="300.5,-56.5 300.5,-75.5 398.5,-75.5 398.5,-56.5 300.5,-56.5"/>
<text text-anchor="middle" x="349.5" y="-63.5" font-family="Helvetica,sans-Serif" font-size="10.00">src/HeatActuator.h</text>
</a>
</g>
</g>
<!-- Node1&#45;&gt;Node7 -->
<g id="edge7" class="edge">
<title>Node1&#45;&gt;Node7</title>
<path fill="none" stroke="midnightblue" d="M430.95,-107.73C410.95,-97.73 384.11,-84.31 366.81,-75.65"/>
<polygon fill="midnightblue" stroke="midnightblue" points="429.64,-110.98 440.15,-112.32 432.77,-104.72 429.64,-110.98"/>
</g>
<!-- Node9 -->
<g id="node9" class="node">
<title>Node9</title>
<g id="a_node9"><a xlink:href="_heat_flow_actuator_8h.html" target="_top" xlink:title=" ">
<polygon fill="none" stroke="black" points="516,-56.5 516,-75.5 635,-75.5 635,-56.5 516,-56.5"/>
<text text-anchor="middle" x="575.5" y="-63.5" font-family="Helvetica,sans-Serif" font-size="10.00">src/HeatFlowActuator.h</text>
</a>
</g>
</g>
<!-- Node1&#45;&gt;Node9 -->
<g id="edge10" class="edge">
<title>Node1&#45;&gt;Node9</title>
<path fill="none" stroke="midnightblue" d="M485.4,-108.23C507.47,-98.13 537.68,-84.31 556.89,-75.52"/>
<polygon fill="midnightblue" stroke="midnightblue" points="483.83,-105.1 476.2,-112.44 486.75,-111.46 483.83,-105.1"/>
</g>
<!-- Node11 -->
<g id="node11" class="node">
<title>Node11</title>
<g id="a_node11"><a xlink:href="_humid_actuator_8h.html" target="_top" xlink:title=" ">
<polygon fill="none" stroke="black" points="653.5,-56.5 653.5,-75.5 759.5,-75.5 759.5,-56.5 653.5,-56.5"/>
<text text-anchor="middle" x="706.5" y="-63.5" font-family="Helvetica,sans-Serif" font-size="10.00">src/HumidActuator.h</text>
</a>
</g>
</g>
<!-- Node1&#45;&gt;Node11 -->
<g id="edge13" class="edge">
<title>Node1&#45;&gt;Node11</title>
<path fill="none" stroke="midnightblue" d="M506.07,-110.47C553.03,-100.28 623.31,-85.04 666.95,-75.58"/>
<polygon fill="midnightblue" stroke="midnightblue" points="505.16,-107.08 496.13,-112.62 506.65,-113.92 505.16,-107.08"/>
</g>
<!-- Node13 -->
<g id="node13" class="node">
<title>Node13</title>
<g id="a_node13"><a xlink:href="_incubator_8h.html" target="_top" xlink:title=" ">
<polygon fill="none" stroke="black" points="417,-56.5 417,-75.5 498,-75.5 498,-56.5 417,-56.5"/>
<text text-anchor="middle" x="457.5" y="-63.5" font-family="Helvetica,sans-Serif" font-size="10.00">src/Incubator.h</text>
</a>
</g>
</g>
<!-- Node1&#45;&gt;Node13 -->
<g id="edge16" class="edge">
<title>Node1&#45;&gt;Node13</title>
<path fill="none" stroke="midnightblue" d="M457.5,-101.8C457.5,-92.91 457.5,-82.78 457.5,-75.75"/>
<polygon fill="midnightblue" stroke="midnightblue" points="454,-102.08 457.5,-112.08 461,-102.08 454,-102.08"/>
</g>
<!-- Node14 -->
<g id="node14" class="node">
<title>Node14</title>
<g id="a_node14"><a xlink:href="_roller_actuator_8h.html" target="_top" xlink:title=" ">
<polygon fill="none" stroke="black" points="778,-56.5 778,-75.5 881,-75.5 881,-56.5 778,-56.5"/>
<text text-anchor="middle" x="829.5" y="-63.5" font-family="Helvetica,sans-Serif" font-size="10.00">src/RollerActuator.h</text>
</a>
</g>
</g>
<!-- Node1&#45;&gt;Node14 -->
<g id="edge18" class="edge">
<title>Node1&#45;&gt;Node14</title>
<path fill="none" stroke="midnightblue" d="M506.44,-113.96C567.71,-105.14 675.88,-89.53 768.5,-76 771.57,-75.55 774.73,-75.09 777.92,-74.62"/>
<polygon fill="midnightblue" stroke="midnightblue" points="505.69,-110.53 496.29,-115.42 506.69,-117.46 505.69,-110.53"/>
</g>
<!-- Node3 -->
<g id="node3" class="node">
<title>Node3</title>
<g id="a_node3"><a xlink:href="_air_flow_actuator_8cpp.html" target="_top" xlink:title=" ">
<polygon fill="none" stroke="black" points="0,-0.5 0,-19.5 121,-19.5 121,-0.5 0,-0.5"/>
<text text-anchor="middle" x="60.5" y="-7.5" font-family="Helvetica,sans-Serif" font-size="10.00">src/AirFlowActuator.cpp</text>
</a>
</g>
</g>
<!-- Node2&#45;&gt;Node3 -->
<g id="edge2" class="edge">
<title>Node2&#45;&gt;Node3</title>
<path fill="none" stroke="midnightblue" d="M82.67,-47.27C77.03,-38.05 70.38,-27.17 65.85,-19.75"/>
<polygon fill="midnightblue" stroke="midnightblue" points="79.85,-49.38 88.05,-56.08 85.82,-45.73 79.85,-49.38"/>
</g>
<!-- Node4 -->
<g id="node4" class="node">
<title>Node4</title>
<g id="a_node4"><a xlink:href="_incubator_8cpp.html" target="_top" xlink:title=" ">
<polygon fill="none" stroke="black" points="411.5,-0.5 411.5,-19.5 503.5,-19.5 503.5,-0.5 411.5,-0.5"/>
<text text-anchor="middle" x="457.5" y="-7.5" font-family="Helvetica,sans-Serif" font-size="10.00">src/Incubator.cpp</text>
</a>
</g>
</g>
<!-- Node2&#45;&gt;Node4 -->
<g id="edge3" class="edge">
<title>Node2&#45;&gt;Node4</title>
<path fill="none" stroke="midnightblue" d="M158.71,-55.75C221.08,-46.83 317.76,-32.85 401.5,-20 404.71,-19.51 408.03,-18.99 411.36,-18.47"/>
<polygon fill="midnightblue" stroke="midnightblue" points="158.02,-52.31 148.62,-57.19 159.01,-59.24 158.02,-52.31"/>
</g>
<!-- Node5&#45;&gt;Node4 -->
<g id="edge6" class="edge">
<title>Node5&#45;&gt;Node4</title>
<path fill="none" stroke="midnightblue" d="M271.3,-54.15C315.33,-43.95 380.35,-28.88 420.75,-19.52"/>
<polygon fill="midnightblue" stroke="midnightblue" points="270.37,-50.78 261.42,-56.44 271.95,-57.6 270.37,-50.78"/>
</g>
<!-- Node6 -->
<g id="node6" class="node">
<title>Node6</title>
<g id="a_node6"><a xlink:href="_dehumid_actuator_8cpp.html" target="_top" xlink:title=" ">
<polygon fill="none" stroke="black" points="139,-0.5 139,-19.5 266,-19.5 266,-0.5 139,-0.5"/>
<text text-anchor="middle" x="202.5" y="-7.5" font-family="Helvetica,sans-Serif" font-size="10.00">src/DehumidActuator.cpp</text>
</a>
</g>
</g>
<!-- Node5&#45;&gt;Node6 -->
<g id="edge5" class="edge">
<title>Node5&#45;&gt;Node6</title>
<path fill="none" stroke="midnightblue" d="M217.04,-46.69C213.33,-37.59 209.02,-27.01 206.07,-19.75"/>
<polygon fill="midnightblue" stroke="midnightblue" points="213.85,-48.14 220.87,-56.08 220.34,-45.5 213.85,-48.14"/>
</g>
<!-- Node7&#45;&gt;Node4 -->
<g id="edge9" class="edge">
<title>Node7&#45;&gt;Node4</title>
<path fill="none" stroke="midnightblue" d="M376.05,-51.73C396.05,-41.73 422.89,-28.31 440.19,-19.65"/>
<polygon fill="midnightblue" stroke="midnightblue" points="374.23,-48.72 366.85,-56.32 377.36,-54.98 374.23,-48.72"/>
</g>
<!-- Node8 -->
<g id="node8" class="node">
<title>Node8</title>
<g id="a_node8"><a xlink:href="_heat_actuator_8cpp.html" target="_top" xlink:title=" ">
<polygon fill="none" stroke="black" points="284,-0.5 284,-19.5 393,-19.5 393,-0.5 284,-0.5"/>
<text text-anchor="middle" x="338.5" y="-7.5" font-family="Helvetica,sans-Serif" font-size="10.00">src/HeatActuator.cpp</text>
</a>
</g>
</g>
<!-- Node7&#45;&gt;Node8 -->
<g id="edge8" class="edge">
<title>Node7&#45;&gt;Node8</title>
<path fill="none" stroke="midnightblue" d="M345.65,-46.1C343.82,-37.14 341.73,-26.86 340.28,-19.75"/>
<polygon fill="midnightblue" stroke="midnightblue" points="342.26,-46.98 347.68,-56.08 349.12,-45.59 342.26,-46.98"/>
</g>
<!-- Node9&#45;&gt;Node4 -->
<g id="edge12" class="edge">
<title>Node9&#45;&gt;Node4</title>
<path fill="none" stroke="midnightblue" d="M547.6,-52.23C525.53,-42.13 495.32,-28.31 476.11,-19.52"/>
<polygon fill="midnightblue" stroke="midnightblue" points="546.25,-55.46 556.8,-56.44 549.17,-49.1 546.25,-55.46"/>
</g>
<!-- Node10 -->
<g id="node10" class="node">
<title>Node10</title>
<g id="a_node10"><a xlink:href="_heat_flow_actuator_8cpp.html" target="_top" xlink:title=" ">
<polygon fill="none" stroke="black" points="521.5,-0.5 521.5,-19.5 651.5,-19.5 651.5,-0.5 521.5,-0.5"/>
<text text-anchor="middle" x="586.5" y="-7.5" font-family="Helvetica,sans-Serif" font-size="10.00">src/HeatFlowActuator.cpp</text>
</a>
</g>
</g>
<!-- Node9&#45;&gt;Node10 -->
<g id="edge11" class="edge">
<title>Node9&#45;&gt;Node10</title>
<path fill="none" stroke="midnightblue" d="M579.35,-46.1C581.18,-37.14 583.27,-26.86 584.72,-19.75"/>
<polygon fill="midnightblue" stroke="midnightblue" points="575.88,-45.59 577.32,-56.08 582.74,-46.98 575.88,-45.59"/>
</g>
<!-- Node11&#45;&gt;Node4 -->
<g id="edge15" class="edge">
<title>Node11&#45;&gt;Node4</title>
<path fill="none" stroke="midnightblue" d="M657.08,-54.28C610.02,-44.08 540.13,-28.92 496.77,-19.52"/>
<polygon fill="midnightblue" stroke="midnightblue" points="656.53,-57.74 667.05,-56.44 658.01,-50.9 656.53,-57.74"/>
</g>
<!-- Node12 -->
<g id="node12" class="node">
<title>Node12</title>
<g id="a_node12"><a xlink:href="_humid_actuator_8cpp.html" target="_top" xlink:title=" ">
<polygon fill="none" stroke="black" points="669.5,-0.5 669.5,-19.5 785.5,-19.5 785.5,-0.5 669.5,-0.5"/>
<text text-anchor="middle" x="727.5" y="-7.5" font-family="Helvetica,sans-Serif" font-size="10.00">src/HumidActuator.cpp</text>
</a>
</g>
</g>
<!-- Node11&#45;&gt;Node12 -->
<g id="edge14" class="edge">
<title>Node11&#45;&gt;Node12</title>
<path fill="none" stroke="midnightblue" d="M713.62,-46.69C717.16,-37.59 721.27,-27.01 724.1,-19.75"/>
<polygon fill="midnightblue" stroke="midnightblue" points="710.33,-45.49 709.97,-56.08 716.85,-48.03 710.33,-45.49"/>
</g>
<!-- Node13&#45;&gt;Node4 -->
<g id="edge17" class="edge">
<title>Node13&#45;&gt;Node4</title>
<path fill="none" stroke="midnightblue" d="M457.5,-45.8C457.5,-36.91 457.5,-26.78 457.5,-19.75"/>
<polygon fill="midnightblue" stroke="midnightblue" points="454,-46.08 457.5,-56.08 461,-46.08 454,-46.08"/>
</g>
<!-- Node14&#45;&gt;Node4 -->
<g id="edge19" class="edge">
<title>Node14&#45;&gt;Node4</title>
<path fill="none" stroke="midnightblue" d="M767.68,-55.89C653.08,-39.47 622.87,-36.79 512.5,-20 509.63,-19.56 506.68,-19.11 503.7,-18.64"/>
<polygon fill="midnightblue" stroke="midnightblue" points="767.52,-59.41 777.92,-57.36 768.52,-52.48 767.52,-59.41"/>
</g>
<!-- Node15 -->
<g id="node15" class="node">
<title>Node15</title>
<g id="a_node15"><a xlink:href="_roller_actuator_8cpp.html" target="_top" xlink:title=" ">
<polygon fill="none" stroke="black" points="804,-0.5 804,-19.5 917,-19.5 917,-0.5 804,-0.5"/>
<text text-anchor="middle" x="860.5" y="-7.5" font-family="Helvetica,sans-Serif" font-size="10.00">src/RollerActuator.cpp</text>
</a>
</g>
</g>
<!-- Node14&#45;&gt;Node15 -->
<g id="edge20" class="edge">
<title>Node14&#45;&gt;Node15</title>
<path fill="none" stroke="midnightblue" d="M839.68,-47.27C844.97,-38.05 851.22,-27.17 855.48,-19.75"/>
<polygon fill="midnightblue" stroke="midnightblue" points="836.56,-45.67 834.62,-56.08 842.63,-49.15 836.56,-45.67"/>
</g>
</g>
</svg>
        <g id="navigator" transform="translate(0 0)" fill="#404254">
                <rect fill="#f2f5e9" fill-opacity="0.5" stroke="#606060" stroke-width=".5" x="0" y="0" width="60" height="60"/>
                <use id="zoomplus" xlink:href="#zoomPlus" x="17" y="9" onmousedown="handleZoom(evt,'in')"/>
                <use id="zoomminus" xlink:href="#zoomMin" x="42" y="9" onmousedown="handleZoom(evt,'out')"/>
                <use id="reset" xlink:href="#resetDef" x="30" y="36" onmousedown="handleReset()"/>
                <g id="arrowUp" xlink:href="#dirArrow" transform="translate(30 24)" onmousedown="handlePan(0,-1)">
                  <use xlink:href="#rim" fill="#404040">
                        <set attributeName="fill" to="#808080" begin="arrowUp.mouseover" end="arrowUp.mouseout"/>
                  </use>
                  <path fill="none" stroke="white" stroke-width="1.5" d="M0,-3.0v7 M-2.5,-0.5L0,-3.0L2.5,-0.5"/>
                </g>
                <g id="arrowRight" xlink:href="#dirArrow" transform="rotate(90) translate(36 -43)" onmousedown="handlePan(1,0)">
                  <use xlink:href="#rim" fill="#404040">
                        <set attributeName="fill" to="#808080" begin="arrowRight.mouseover" end="arrowRight.mouseout"/>
                  </use>
                  <path fill="none" stroke="white" stroke-width="1.5" d="M0,-3.0v7 M-2.5,-0.5L0,-3.0L2.5,-0.5"/>
                </g>
                <g id="arrowDown" xlink:href="#dirArrow" transform="rotate(180) translate(-30 -48)" onmousedown="handlePan(0,1)">
                  <use xlink:href="#rim" fill="#404040">
                        <set attributeName="fill" to="#808080" begin="arrowDown.mouseover" end="arrowDown.mouseout"/>
                  </use>
                  <path fill="none" stroke="white" stroke-width="1.5" d="M0,-3.0v7 M-2.5,-0.5L0,-3.0L2.5,-0.5"/>
                </g>
                <g id="arrowLeft" xlink:href="#dirArrow" transform="rotate(270) translate(-36 17)" onmousedown="handlePan(-1,0)">
                  <use xlink:href="#rim" fill="#404040">
                        <set attributeName="fill" to="#808080" begin="arrowLeft.mouseover" end="arrowLeft.mouseout"/>
                  </use>
                  <path fill="none" stroke="white" stroke-width="1.5" d="M0,-3.0v7 M-2.5,-0.5L0,-3.0L2.5,-0.5"/>
                </g>
        </g>
        <svg viewBox="0 0 15 15" width="100%" height="30px" preserveAspectRatio="xMaxYMin meet">
         <g id="arrow_out" transform="scale(0.3 0.3)">
          <a xlink:href="_actuator_8h__dep__incl_org.svg" target="_base">
           <rect id="button" ry="5" rx="5" y="6" x="6" height="38" width="38"
                fill="#f2f5e9" fill-opacity="0.5" stroke="#606060" stroke-width="1.0"/>
           <path id="arrow"
             d="M 11.500037,31.436501 C 11.940474,20.09759 22.043105,11.32322 32.158766,21.979434 L 37.068811,17.246167 C 37.068811,17.246167 37.088388,32 37.088388,32 L 22.160133,31.978069 C 22.160133,31.978069 26.997745,27.140456 26.997745,27.140456 C 18.528582,18.264221 13.291696,25.230495 11.500037,31.436501 z"
             style="fill:#404040;"/>
          </a>
         </g>
        </svg>
</svg>
