<?xml version="1.0" encoding="UTF-8" standalone="no"?>
<!DOCTYPE svg PUBLIC "-//W3C//DTD SVG 1.1//EN"
 "http://www.w3.org/Graphics/SVG/1.1/DTD/svg11.dtd">
<!-- Generated by graphviz version 2.48.0 (20210717.1556)
 -->
<!-- Title: src/Actuator.h Pages: 1 -->
<svg width="647pt" height="140pt"
 viewBox="0.00 0.00 647.00 140.00" xmlns="http://www.w3.org/2000/svg" xmlns:xlink="http://www.w3.org/1999/xlink">
<g id="graph0" class="graph" transform="scale(1 1) rotate(0) translate(4 136)">
<title>src/Actuator.h</title>
<!-- Node1 -->
<g id="node1" class="node">
<title>Node1</title>
<g id="a_node1"><a xlink:title=" ">
<polygon fill="#bfbfbf" stroke="black" points="294,-112.5 294,-131.5 372,-131.5 372,-112.5 294,-112.5"/>
<text text-anchor="middle" x="333" y="-119.5" font-family="Helvetica,sans-Serif" font-size="10.00">src/Actuator.h</text>
</a>
</g>
</g>
<!-- Node2 -->
<g id="node2" class="node">
<title>Node2</title>
<g id="a_node2"><a xlink:href="_air_flow_actuator_8h.html" target="_top" xlink:title=" ">
<polygon fill="none" stroke="black" points="26.5,-56.5 26.5,-75.5 137.5,-75.5 137.5,-56.5 26.5,-56.5"/>
<text text-anchor="middle" x="82" y="-63.5" font-family="Helvetica,sans-Serif" font-size="10.00">src/AirFlowActuator.h</text>
</a>
</g>
</g>
<!-- Node1&#45;&gt;Node2 -->
<g id="edge1" class="edge">
<title>Node1&#45;&gt;Node2</title>
<path fill="none" stroke="midnightblue" d="M283.75,-110.4C236.38,-100.21 165.67,-85 121.77,-75.56"/>
<polygon fill="midnightblue" stroke="midnightblue" points="283.27,-113.88 293.78,-112.56 284.74,-107.04 283.27,-113.88"/>
</g>
<!-- Node5 -->
<g id="node5" class="node">
<title>Node5</title>
<g id="a_node5"><a xlink:href="_dehumid_actuator_8h.html" target="_top" xlink:title=" ">
<polygon fill="none" stroke="black" points="156,-56.5 156,-75.5 274,-75.5 274,-56.5 156,-56.5"/>
<text text-anchor="middle" x="215" y="-63.5" font-family="Helvetica,sans-Serif" font-size="10.00">src/DehumidActuator.h</text>
</a>
</g>
</g>
<!-- Node1&#45;&gt;Node5 -->
<g id="edge4" class="edge">
<title>Node1&#45;&gt;Node5</title>
<path fill="none" stroke="midnightblue" d="M305.1,-108.23C283.03,-98.13 252.82,-84.31 233.61,-75.52"/>
<polygon fill="midnightblue" stroke="midnightblue" points="303.75,-111.46 314.3,-112.44 306.67,-105.1 303.75,-111.46"/>
</g>
<!-- Node7 -->
<g id="node7" class="node">
<title>Node7</title>
<g id="a_node7"><a xlink:href="_heat_actuator_8h.html" target="_top" xlink:title=" ">
<polygon fill="none" stroke="black" points="392.5,-56.5 392.5,-75.5 491.5,-75.5 491.5,-56.5 392.5,-56.5"/>
<text text-anchor="middle" x="442" y="-63.5" font-family="Helvetica,sans-Serif" font-size="10.00">src/HeatActuator.h</text>
</a>
</g>
</g>
<!-- Node1&#45;&gt;Node7 -->
<g id="edge7" class="edge">
<title>Node1&#45;&gt;Node7</title>
<path fill="none" stroke="midnightblue" d="M359.52,-107.86C379.73,-97.85 406.99,-84.35 424.53,-75.65"/>
<polygon fill="midnightblue" stroke="midnightblue" points="357.92,-104.75 350.51,-112.32 361.03,-111.02 357.92,-104.75"/>
</g>
<!-- Node9 -->
<g id="node9" class="node">
<title>Node9</title>
<g id="a_node9"><a xlink:href="_incubator_8h.html" target="_top" xlink:title=" ">
<polygon fill="none" stroke="black" points="292,-56.5 292,-75.5 374,-75.5 374,-56.5 292,-56.5"/>
<text text-anchor="middle" x="333" y="-63.5" font-family="Helvetica,sans-Serif" font-size="10.00">src/Incubator.h</text>
</a>
</g>
</g>
<!-- Node1&#45;&gt;Node9 -->
<g id="edge10" class="edge">
<title>Node1&#45;&gt;Node9</title>
<path fill="none" stroke="midnightblue" d="M333,-101.8C333,-92.91 333,-82.78 333,-75.75"/>
<polygon fill="midnightblue" stroke="midnightblue" points="329.5,-102.08 333,-112.08 336.5,-102.08 329.5,-102.08"/>
</g>
<!-- Node10 -->
<g id="node10" class="node">
<title>Node10</title>
<g id="a_node10"><a xlink:href="_roller_actuator_8h.html" target="_top" xlink:title=" ">
<polygon fill="none" stroke="black" points="510,-56.5 510,-75.5 614,-75.5 614,-56.5 510,-56.5"/>
<text text-anchor="middle" x="562" y="-63.5" font-family="Helvetica,sans-Serif" font-size="10.00">src/RollerActuator.h</text>
</a>
</g>
</g>
<!-- Node1&#45;&gt;Node10 -->
<g id="edge12" class="edge">
<title>Node1&#45;&gt;Node10</title>
<path fill="none" stroke="midnightblue" d="M379.27,-110.09C422.54,-99.89 486.26,-84.86 525.88,-75.52"/>
<polygon fill="midnightblue" stroke="midnightblue" points="378.22,-106.74 369.29,-112.44 379.82,-113.55 378.22,-106.74"/>
</g>
<!-- Node3 -->
<g id="node3" class="node">
<title>Node3</title>
<g id="a_node3"><a xlink:href="_air_flow_actuator_8cpp.html" target="_top" xlink:title=" ">
<polygon fill="none" stroke="black" points="0,-0.5 0,-19.5 122,-19.5 122,-0.5 0,-0.5"/>
<text text-anchor="middle" x="61" y="-7.5" font-family="Helvetica,sans-Serif" font-size="10.00">src/AirFlowActuator.cpp</text>
</a>
</g>
</g>
<!-- Node2&#45;&gt;Node3 -->
<g id="edge2" class="edge">
<title>Node2&#45;&gt;Node3</title>
<path fill="none" stroke="midnightblue" d="M74.88,-46.69C71.34,-37.59 67.23,-27.01 64.4,-19.75"/>
<polygon fill="midnightblue" stroke="midnightblue" points="71.65,-48.03 78.53,-56.08 78.17,-45.49 71.65,-48.03"/>
</g>
<!-- Node4 -->
<g id="node4" class="node">
<title>Node4</title>
<g id="a_node4"><a xlink:href="_incubator_8cpp.html" target="_top" xlink:title=" ">
<polygon fill="none" stroke="black" points="286.5,-0.5 286.5,-19.5 379.5,-19.5 379.5,-0.5 286.5,-0.5"/>
<text text-anchor="middle" x="333" y="-7.5" font-family="Helvetica,sans-Serif" font-size="10.00">src/Incubator.cpp</text>
</a>
</g>
</g>
<!-- Node2&#45;&gt;Node4 -->
<g id="edge3" class="edge">
<title>Node2&#45;&gt;Node4</title>
<path fill="none" stroke="midnightblue" d="M131.82,-54.28C179.25,-44.08 249.7,-28.92 293.41,-19.52"/>
<polygon fill="midnightblue" stroke="midnightblue" points="130.81,-50.92 121.77,-56.44 132.28,-57.76 130.81,-50.92"/>
</g>
<!-- Node5&#45;&gt;Node4 -->
<g id="edge6" class="edge">
<title>Node5&#45;&gt;Node4</title>
<path fill="none" stroke="midnightblue" d="M242.9,-52.23C264.97,-42.13 295.18,-28.31 314.39,-19.52"/>
<polygon fill="midnightblue" stroke="midnightblue" points="241.33,-49.1 233.7,-56.44 244.25,-55.46 241.33,-49.1"/>
</g>
<!-- Node6 -->
<g id="node6" class="node">
<title>Node6</title>
<g id="a_node6"><a xlink:href="_dehumid_actuator_8cpp.html" target="_top" xlink:title=" ">
<polygon fill="none" stroke="black" points="140,-0.5 140,-19.5 268,-19.5 268,-0.5 140,-0.5"/>
<text text-anchor="middle" x="204" y="-7.5" font-family="Helvetica,sans-Serif" font-size="10.00">src/DehumidActuator.cpp</text>
</a>
</g>
</g>
<!-- Node5&#45;&gt;Node6 -->
<g id="edge5" class="edge">
<title>Node5&#45;&gt;Node6</title>
<path fill="none" stroke="midnightblue" d="M211.15,-46.1C209.32,-37.14 207.23,-26.86 205.78,-19.75"/>
<polygon fill="midnightblue" stroke="midnightblue" points="207.76,-46.98 213.18,-56.08 214.62,-45.59 207.76,-46.98"/>
</g>
<!-- Node7&#45;&gt;Node4 -->
<g id="edge9" class="edge">
<title>Node7&#45;&gt;Node4</title>
<path fill="none" stroke="midnightblue" d="M415.48,-51.86C395.27,-41.85 368.01,-28.35 350.47,-19.65"/>
<polygon fill="midnightblue" stroke="midnightblue" points="413.97,-55.02 424.49,-56.32 417.08,-48.75 413.97,-55.02"/>
</g>
<!-- Node8 -->
<g id="node8" class="node">
<title>Node8</title>
<g id="a_node8"><a xlink:href="_heat_actuator_8cpp.html" target="_top" xlink:title=" ">
<polygon fill="none" stroke="black" points="397.5,-0.5 397.5,-19.5 506.5,-19.5 506.5,-0.5 397.5,-0.5"/>
<text text-anchor="middle" x="452" y="-7.5" font-family="Helvetica,sans-Serif" font-size="10.00">src/HeatActuator.cpp</text>
</a>
</g>
</g>
<!-- Node7&#45;&gt;Node8 -->
<g id="edge8" class="edge">
<title>Node7&#45;&gt;Node8</title>
<path fill="none" stroke="midnightblue" d="M445.5,-46.1C447.16,-37.14 449.06,-26.86 450.38,-19.75"/>
<polygon fill="midnightblue" stroke="midnightblue" points="442.03,-45.61 443.65,-56.08 448.91,-46.89 442.03,-45.61"/>
</g>
<!-- Node9&#45;&gt;Node4 -->
<g id="edge11" class="edge">
<title>Node9&#45;&gt;Node4</title>
<path fill="none" stroke="midnightblue" d="M333,-45.8C333,-36.91 333,-26.78 333,-19.75"/>
<polygon fill="midnightblue" stroke="midnightblue" points="329.5,-46.08 333,-56.08 336.5,-46.08 329.5,-46.08"/>
</g>
<!-- Node10&#45;&gt;Node4 -->
<g id="edge13" class="edge">
<title>Node10&#45;&gt;Node4</title>
<path fill="none" stroke="midnightblue" d="M515.73,-54.09C472.46,-43.89 408.74,-28.86 369.12,-19.52"/>
<polygon fill="midnightblue" stroke="midnightblue" points="515.18,-57.55 525.71,-56.44 516.78,-50.74 515.18,-57.55"/>
</g>
<!-- Node11 -->
<g id="node11" class="node">
<title>Node11</title>
<g id="a_node11"><a xlink:href="_roller_actuator_8cpp.html" target="_top" xlink:title=" ">
<polygon fill="none" stroke="black" points="525,-0.5 525,-19.5 639,-19.5 639,-0.5 525,-0.5"/>
<text text-anchor="middle" x="582" y="-7.5" font-family="Helvetica,sans-Serif" font-size="10.00">src/RollerActuator.cpp</text>
</a>
</g>
</g>
<!-- Node10&#45;&gt;Node11 -->
<g id="edge14" class="edge">
<title>Node10&#45;&gt;Node11</title>
<path fill="none" stroke="midnightblue" d="M568.78,-46.69C572.15,-37.59 576.07,-27.01 578.76,-19.75"/>
<polygon fill="midnightblue" stroke="midnightblue" points="565.49,-45.49 565.3,-56.08 572.06,-47.92 565.49,-45.49"/>
</g>
</g>
</svg>
