<?xml version="1.0" encoding="UTF-8" standalone="no"?>
<!DOCTYPE svg PUBLIC "-//W3C//DTD SVG 1.1//EN"
 "http://www.w3.org/Graphics/SVG/1.1/DTD/svg11.dtd">
<!-- Generated by graphviz version 2.48.0 (20210717.1556)
 -->
<!-- Title: src/DehumidActuator.cpp Pages: 1 -->
<svg width="346pt" height="196pt"
 viewBox="0.00 0.00 346.37 196.00" xmlns="http://www.w3.org/2000/svg" xmlns:xlink="http://www.w3.org/1999/xlink">
<g id="graph0" class="graph" transform="scale(1 1) rotate(0) translate(4 192)">
<title>src/DehumidActuator.cpp</title>
<!-- Node1 -->
<g id="node1" class="node">
<title>Node1</title>
<g id="a_node1"><a xlink:title=" ">
<polygon fill="#bfbfbf" stroke="black" points="58.37,-168.5 58.37,-187.5 186.37,-187.5 186.37,-168.5 58.37,-168.5"/>
<text text-anchor="middle" x="122.37" y="-175.5" font-family="Helvetica,sans-Serif" font-size="10.00">src/DehumidActuator.cpp</text>
</a>
</g>
</g>
<!-- Node2 -->
<g id="node2" class="node">
<title>Node2</title>
<g id="a_node2"><a xlink:title=" ">
<polygon fill="none" stroke="#bfbfbf" points="103.87,-0.5 103.87,-19.5 158.87,-19.5 158.87,-0.5 103.87,-0.5"/>
<text text-anchor="middle" x="131.37" y="-7.5" font-family="Helvetica,sans-Serif" font-size="10.00">iostream</text>
</a>
</g>
</g>
<!-- Node1&#45;&gt;Node2 -->
<g id="edge1" class="edge">
<title>Node1&#45;&gt;Node2</title>
<path fill="none" stroke="midnightblue" d="M67.03,-168.44C29.19,-159.72 -11.63,-142.93 3.37,-112 23.84,-69.76 71.51,-39.86 102.54,-24.04"/>
<polygon fill="midnightblue" stroke="midnightblue" points="104.16,-27.14 111.59,-19.58 101.07,-20.86 104.16,-27.14"/>
</g>
<!-- Node3 -->
<g id="node3" class="node">
<title>Node3</title>
<g id="a_node3"><a xlink:title=" ">
<polygon fill="none" stroke="#bfbfbf" points="12.37,-112.5 12.37,-131.5 72.37,-131.5 72.37,-112.5 12.37,-112.5"/>
<text text-anchor="middle" x="42.37" y="-119.5" font-family="Helvetica,sans-Serif" font-size="10.00">wiringPi.h</text>
</a>
</g>
</g>
<!-- Node1&#45;&gt;Node3 -->
<g id="edge2" class="edge">
<title>Node1&#45;&gt;Node3</title>
<path fill="none" stroke="midnightblue" d="M109.51,-168.32C97.15,-159.98 78.24,-147.21 63.63,-137.35"/>
<polygon fill="midnightblue" stroke="midnightblue" points="65.43,-134.35 55.19,-131.65 61.52,-140.15 65.43,-134.35"/>
</g>
<!-- Node4 -->
<g id="node4" class="node">
<title>Node4</title>
<g id="a_node4"><a xlink:title=" ">
<polygon fill="none" stroke="#bfbfbf" points="90.87,-112.5 90.87,-131.5 153.87,-131.5 153.87,-112.5 90.87,-112.5"/>
<text text-anchor="middle" x="122.37" y="-119.5" font-family="Helvetica,sans-Serif" font-size="10.00">softPwm.h</text>
</a>
</g>
</g>
<!-- Node1&#45;&gt;Node4 -->
<g id="edge3" class="edge">
<title>Node1&#45;&gt;Node4</title>
<path fill="none" stroke="midnightblue" d="M122.37,-168.08C122.37,-161.01 122.37,-150.86 122.37,-141.99"/>
<polygon fill="midnightblue" stroke="midnightblue" points="125.87,-141.75 122.37,-131.75 118.87,-141.75 125.87,-141.75"/>
</g>
<!-- Node5 -->
<g id="node5" class="node">
<title>Node5</title>
<g id="a_node5"><a xlink:href="_gpio_8h.html" target="_top" xlink:title=" ">
<polygon fill="none" stroke="black" points="172.37,-112.5 172.37,-131.5 218.37,-131.5 218.37,-112.5 172.37,-112.5"/>
<text text-anchor="middle" x="195.37" y="-119.5" font-family="Helvetica,sans-Serif" font-size="10.00">Gpio.h</text>
</a>
</g>
</g>
<!-- Node1&#45;&gt;Node5 -->
<g id="edge4" class="edge">
<title>Node1&#45;&gt;Node5</title>
<path fill="none" stroke="midnightblue" d="M134.09,-168.32C145.2,-160.11 162.11,-147.6 175.35,-137.81"/>
<polygon fill="midnightblue" stroke="midnightblue" points="177.47,-140.59 183.42,-131.83 173.3,-134.97 177.47,-140.59"/>
</g>
<!-- Node7 -->
<g id="node7" class="node">
<title>Node7</title>
<g id="a_node7"><a xlink:href="_dehumid_actuator_8h.html" target="_top" xlink:title=" ">
<polygon fill="none" stroke="black" points="236.37,-112.5 236.37,-131.5 338.37,-131.5 338.37,-112.5 236.37,-112.5"/>
<text text-anchor="middle" x="287.37" y="-119.5" font-family="Helvetica,sans-Serif" font-size="10.00">DehumidActuator.h</text>
</a>
</g>
</g>
<!-- Node1&#45;&gt;Node7 -->
<g id="edge6" class="edge">
<title>Node1&#45;&gt;Node7</title>
<path fill="none" stroke="midnightblue" d="M148.51,-168.44C176.39,-159.32 220.71,-144.81 251.77,-134.65"/>
<polygon fill="midnightblue" stroke="midnightblue" points="252.93,-137.95 261.34,-131.52 250.75,-131.3 252.93,-137.95"/>
</g>
<!-- Node6 -->
<g id="node6" class="node">
<title>Node6</title>
<g id="a_node6"><a xlink:href="_singleton_8h.html" target="_top" xlink:title=" ">
<polygon fill="none" stroke="black" points="161.87,-56.5 161.87,-75.5 228.87,-75.5 228.87,-56.5 161.87,-56.5"/>
<text text-anchor="middle" x="195.37" y="-63.5" font-family="Helvetica,sans-Serif" font-size="10.00">Singleton.h</text>
</a>
</g>
</g>
<!-- Node5&#45;&gt;Node6 -->
<g id="edge5" class="edge">
<title>Node5&#45;&gt;Node6</title>
<path fill="none" stroke="midnightblue" d="M195.37,-112.08C195.37,-105.01 195.37,-94.86 195.37,-85.99"/>
<polygon fill="midnightblue" stroke="midnightblue" points="198.87,-85.75 195.37,-75.75 191.87,-85.75 198.87,-85.75"/>
</g>
<!-- Node8 -->
<g id="node8" class="node">
<title>Node8</title>
<g id="a_node8"><a xlink:href="_actuator_8h.html" target="_top" xlink:title=" ">
<polygon fill="none" stroke="black" points="251.37,-56.5 251.37,-75.5 313.37,-75.5 313.37,-56.5 251.37,-56.5"/>
<text text-anchor="middle" x="282.37" y="-63.5" font-family="Helvetica,sans-Serif" font-size="10.00">Actuator.h</text>
</a>
</g>
</g>
<!-- Node7&#45;&gt;Node8 -->
<g id="edge7" class="edge">
<title>Node7&#45;&gt;Node8</title>
<path fill="none" stroke="midnightblue" d="M286.54,-112.08C285.88,-105.01 284.95,-94.86 284.12,-85.99"/>
<polygon fill="midnightblue" stroke="midnightblue" points="287.58,-85.39 283.18,-75.75 280.61,-86.03 287.58,-85.39"/>
</g>
<!-- Node8&#45;&gt;Node2 -->
<g id="edge8" class="edge">
<title>Node8&#45;&gt;Node2</title>
<path fill="none" stroke="midnightblue" d="M258.44,-56.44C233.15,-47.4 193.06,-33.06 164.69,-22.92"/>
<polygon fill="midnightblue" stroke="midnightblue" points="165.77,-19.59 155.18,-19.52 163.42,-26.18 165.77,-19.59"/>
</g>
</g>
</svg>
