<?xml version="1.0" encoding="UTF-8" standalone="no"?>
<!DOCTYPE svg PUBLIC "-//W3C//DTD SVG 1.1//EN"
 "http://www.w3.org/Graphics/SVG/1.1/DTD/svg11.dtd">
<!-- Generated by graphviz version 2.48.0 (20210717.1556)
 -->
<!-- Title: main Pages: 1 -->
<svg width="259pt" height="28pt"
 viewBox="0.00 0.00 259.00 28.00" xmlns="http://www.w3.org/2000/svg" xmlns:xlink="http://www.w3.org/1999/xlink">
<g id="graph0" class="graph" transform="scale(1 1) rotate(0) translate(4 24)">
<title>main</title>
<!-- Node1 -->
<g id="node1" class="node">
<title>Node1</title>
<g id="a_node1"><a xlink:title=" ">
<polygon fill="#bfbfbf" stroke="black" points="0,-0.5 0,-19.5 38,-19.5 38,-0.5 0,-0.5"/>
<text text-anchor="middle" x="19" y="-7.5" font-family="Helvetica,sans-Serif" font-size="10.00">main</text>
</a>
</g>
</g>
<!-- Node2 -->
<g id="node2" class="node">
<title>Node2</title>
<g id="a_node2"><a xlink:href="class_display_server.html#a51dae66f15f858f9ed8407e425fe03f1" target="_top" xlink:title=" ">
<polygon fill="none" stroke="black" points="74,-0.5 74,-19.5 173,-19.5 173,-0.5 74,-0.5"/>
<text text-anchor="middle" x="123.5" y="-7.5" font-family="Helvetica,sans-Serif" font-size="10.00">DisplayServer::run</text>
</a>
</g>
</g>
<!-- Node1&#45;&gt;Node2 -->
<g id="edge1" class="edge">
<title>Node1&#45;&gt;Node2</title>
<path fill="none" stroke="midnightblue" d="M38.32,-10C45.68,-10 54.61,-10 63.87,-10"/>
<polygon fill="midnightblue" stroke="midnightblue" points="63.98,-13.5 73.98,-10 63.98,-6.5 63.98,-13.5"/>
</g>
<!-- Node3 -->
<g id="node3" class="node">
<title>Node3</title>
<g id="a_node3"><a xlink:href="_display_server_8cpp.html#ae6c284f76536f5a2cdc683e68988d02a" target="_top" xlink:title=" ">
<polygon fill="none" stroke="black" points="209,-0.5 209,-19.5 251,-19.5 251,-0.5 209,-0.5"/>
<text text-anchor="middle" x="230" y="-7.5" font-family="Helvetica,sans-Serif" font-size="10.00">guard</text>
</a>
</g>
</g>
<!-- Node2&#45;&gt;Node3 -->
<g id="edge2" class="edge">
<title>Node2&#45;&gt;Node3</title>
<path fill="none" stroke="midnightblue" d="M173.08,-10C181.9,-10 190.86,-10 198.95,-10"/>
<polygon fill="midnightblue" stroke="midnightblue" points="198.99,-13.5 208.99,-10 198.99,-6.5 198.99,-13.5"/>
</g>
</g>
</svg>
