<?xml version="1.0" encoding="UTF-8" standalone="no"?>
<!DOCTYPE svg PUBLIC "-//W3C//DTD SVG 1.1//EN"
 "http://www.w3.org/Graphics/SVG/1.1/DTD/svg11.dtd">
<!-- Generated by graphviz version 2.48.0 (20210717.1556)
 -->
<!-- Title: src/display_server/DisplayServer.cpp Pages: 1 -->
<svg width="1005pt" height="207pt"
 viewBox="0.00 0.00 1004.53 207.00" xmlns="http://www.w3.org/2000/svg" xmlns:xlink="http://www.w3.org/1999/xlink">
<g id="graph0" class="graph" transform="scale(1 1) rotate(0) translate(4 203)">
<title>src/display_server/DisplayServer.cpp</title>
<!-- Node1 -->
<g id="node1" class="node">
<title>Node1</title>
<g id="a_node1"><a xlink:title=" ">
<polygon fill="#bfbfbf" stroke="black" points="273.5,-168.5 273.5,-198.5 373.5,-198.5 373.5,-168.5 273.5,-168.5"/>
<text text-anchor="start" x="281.5" y="-186.5" font-family="Helvetica,sans-Serif" font-size="10.00">src/display_server</text>
<text text-anchor="middle" x="323.5" y="-175.5" font-family="Helvetica,sans-Serif" font-size="10.00">/DisplayServer.cpp</text>
</a>
</g>
</g>
<!-- Node2 -->
<g id="node2" class="node">
<title>Node2</title>
<g id="a_node2"><a xlink:title=" ">
<polygon fill="none" stroke="#bfbfbf" points="0,-112.5 0,-131.5 115,-131.5 115,-112.5 0,-112.5"/>
<text text-anchor="middle" x="57.5" y="-119.5" font-family="Helvetica,sans-Serif" font-size="10.00">systemd/sd&#45;daemon.h</text>
</a>
</g>
</g>
<!-- Node1&#45;&gt;Node2 -->
<g id="edge1" class="edge">
<title>Node1&#45;&gt;Node2</title>
<path fill="none" stroke="midnightblue" d="M273.47,-171.31C225.38,-160.55 153.19,-144.4 105.72,-133.79"/>
<polygon fill="midnightblue" stroke="midnightblue" points="106.21,-130.31 95.68,-131.54 104.68,-137.14 106.21,-130.31"/>
</g>
<!-- Node3 -->
<g id="node3" class="node">
<title>Node3</title>
<g id="a_node3"><a xlink:title=" ">
<polygon fill="none" stroke="#bfbfbf" points="150,-0.5 150,-19.5 199,-19.5 199,-0.5 150,-0.5"/>
<text text-anchor="middle" x="174.5" y="-7.5" font-family="Helvetica,sans-Serif" font-size="10.00">stdint.h</text>
</a>
</g>
</g>
<!-- Node1&#45;&gt;Node3 -->
<g id="edge2" class="edge">
<title>Node1&#45;&gt;Node3</title>
<path fill="none" stroke="midnightblue" d="M279.93,-168.44C240.42,-152.95 185.15,-123.71 163.5,-76 156.78,-61.2 160.91,-42.81 165.91,-29.38"/>
<polygon fill="midnightblue" stroke="midnightblue" points="169.27,-30.4 169.92,-19.82 162.82,-27.69 169.27,-30.4"/>
</g>
<!-- Node4 -->
<g id="node4" class="node">
<title>Node4</title>
<g id="a_node4"><a xlink:title=" ">
<polygon fill="none" stroke="#bfbfbf" points="257.5,-56.5 257.5,-75.5 305.5,-75.5 305.5,-56.5 257.5,-56.5"/>
<text text-anchor="middle" x="281.5" y="-63.5" font-family="Helvetica,sans-Serif" font-size="10.00">stdlib.h</text>
</a>
</g>
</g>
<!-- Node1&#45;&gt;Node4 -->
<g id="edge3" class="edge">
<title>Node1&#45;&gt;Node4</title>
<path fill="none" stroke="midnightblue" d="M293.38,-168.44C279.12,-160.05 263.49,-147.9 255.5,-132 247.44,-115.97 257.32,-96.81 267.14,-83.46"/>
<polygon fill="midnightblue" stroke="midnightblue" points="269.89,-85.62 273.39,-75.62 264.42,-81.26 269.89,-85.62"/>
</g>
<!-- Node5 -->
<g id="node5" class="node">
<title>Node5</title>
<g id="a_node5"><a xlink:title=" ">
<polygon fill="none" stroke="#bfbfbf" points="603,-0.5 603,-19.5 644,-19.5 644,-0.5 603,-0.5"/>
<text text-anchor="middle" x="623.5" y="-7.5" font-family="Helvetica,sans-Serif" font-size="10.00">string</text>
</a>
</g>
</g>
<!-- Node1&#45;&gt;Node5 -->
<g id="edge4" class="edge">
<title>Node1&#45;&gt;Node5</title>
<path fill="none" stroke="midnightblue" d="M373.71,-182.5C515.13,-181.32 911.66,-169.58 991.5,-76 1036.46,-23.31 750.41,-13.3 654.25,-11.42"/>
<polygon fill="midnightblue" stroke="midnightblue" points="654.07,-7.92 644.01,-11.24 653.94,-14.92 654.07,-7.92"/>
</g>
<!-- Node6 -->
<g id="node6" class="node">
<title>Node6</title>
<g id="a_node6"><a xlink:title=" ">
<polygon fill="none" stroke="#bfbfbf" points="264.5,-112.5 264.5,-131.5 316.5,-131.5 316.5,-112.5 264.5,-112.5"/>
<text text-anchor="middle" x="290.5" y="-119.5" font-family="Helvetica,sans-Serif" font-size="10.00">sstream</text>
</a>
</g>
</g>
<!-- Node1&#45;&gt;Node6 -->
<g id="edge5" class="edge">
<title>Node1&#45;&gt;Node6</title>
<path fill="none" stroke="midnightblue" d="M315.68,-168.4C311.03,-160.02 305.1,-149.33 300.16,-140.42"/>
<polygon fill="midnightblue" stroke="midnightblue" points="303.21,-138.71 295.3,-131.66 297.09,-142.1 303.21,-138.71"/>
</g>
<!-- Node7 -->
<g id="node7" class="node">
<title>Node7</title>
<g id="a_node7"><a xlink:title=" ">
<polygon fill="none" stroke="#bfbfbf" points="334.5,-112.5 334.5,-131.5 378.5,-131.5 378.5,-112.5 334.5,-112.5"/>
<text text-anchor="middle" x="356.5" y="-119.5" font-family="Helvetica,sans-Serif" font-size="10.00">vector</text>
</a>
</g>
</g>
<!-- Node1&#45;&gt;Node7 -->
<g id="edge6" class="edge">
<title>Node1&#45;&gt;Node7</title>
<path fill="none" stroke="midnightblue" d="M331.32,-168.4C335.97,-160.02 341.9,-149.33 346.84,-140.42"/>
<polygon fill="midnightblue" stroke="midnightblue" points="349.91,-142.1 351.7,-131.66 343.79,-138.71 349.91,-142.1"/>
</g>
<!-- Node8 -->
<g id="node8" class="node">
<title>Node8</title>
<g id="a_node8"><a xlink:title=" ">
<polygon fill="none" stroke="#bfbfbf" points="396.5,-112.5 396.5,-131.5 444.5,-131.5 444.5,-112.5 396.5,-112.5"/>
<text text-anchor="middle" x="420.5" y="-119.5" font-family="Helvetica,sans-Serif" font-size="10.00">iterator</text>
</a>
</g>
</g>
<!-- Node1&#45;&gt;Node8 -->
<g id="edge7" class="edge">
<title>Node1&#45;&gt;Node8</title>
<path fill="none" stroke="midnightblue" d="M346.49,-168.4C361.89,-158.95 382.09,-146.56 397.5,-137.11"/>
<polygon fill="midnightblue" stroke="midnightblue" points="399.69,-139.87 406.39,-131.66 396.03,-133.9 399.69,-139.87"/>
</g>
<!-- Node9 -->
<g id="node9" class="node">
<title>Node9</title>
<g id="a_node9"><a xlink:title=" ">
<polygon fill="none" stroke="#bfbfbf" points="463,-112.5 463,-131.5 518,-131.5 518,-112.5 463,-112.5"/>
<text text-anchor="middle" x="490.5" y="-119.5" font-family="Helvetica,sans-Serif" font-size="10.00">iostream</text>
</a>
</g>
</g>
<!-- Node1&#45;&gt;Node9 -->
<g id="edge8" class="edge">
<title>Node1&#45;&gt;Node9</title>
<path fill="none" stroke="midnightblue" d="M363.08,-168.4C391.6,-158.24 429.67,-144.67 456.76,-135.02"/>
<polygon fill="midnightblue" stroke="midnightblue" points="457.95,-138.31 466.2,-131.66 455.61,-131.72 457.95,-138.31"/>
</g>
<!-- Node10 -->
<g id="node10" class="node">
<title>Node10</title>
<g id="a_node10"><a xlink:href="_display_server_8h.html" target="_top" xlink:title=" ">
<polygon fill="none" stroke="black" points="536,-112.5 536,-131.5 623,-131.5 623,-112.5 536,-112.5"/>
<text text-anchor="middle" x="579.5" y="-119.5" font-family="Helvetica,sans-Serif" font-size="10.00">DisplayServer.h</text>
</a>
</g>
</g>
<!-- Node1&#45;&gt;Node10 -->
<g id="edge9" class="edge">
<title>Node1&#45;&gt;Node10</title>
<path fill="none" stroke="midnightblue" d="M373.77,-170.82C419.93,-160.09 487.81,-144.31 532.8,-133.85"/>
<polygon fill="midnightblue" stroke="midnightblue" points="533.65,-137.25 542.6,-131.58 532.07,-130.43 533.65,-137.25"/>
</g>
<!-- Node20 -->
<g id="node20" class="node">
<title>Node20</title>
<g id="a_node20"><a xlink:href="_info_panel_8h.html" target="_top" xlink:title=" ">
<polygon fill="none" stroke="black" points="172,-56.5 172,-75.5 239,-75.5 239,-56.5 172,-56.5"/>
<text text-anchor="middle" x="205.5" y="-63.5" font-family="Helvetica,sans-Serif" font-size="10.00">InfoPanel.h</text>
</a>
</g>
</g>
<!-- Node1&#45;&gt;Node20 -->
<g id="edge23" class="edge">
<title>Node1&#45;&gt;Node20</title>
<path fill="none" stroke="midnightblue" d="M297.32,-168.37C281.99,-159.28 262.87,-146.49 248.5,-132 234.55,-117.93 222.48,-98.69 214.72,-84.79"/>
<polygon fill="midnightblue" stroke="midnightblue" points="217.68,-82.91 209.85,-75.77 211.52,-86.23 217.68,-82.91"/>
</g>
<!-- Node10&#45;&gt;Node4 -->
<g id="edge12" class="edge">
<title>Node10&#45;&gt;Node4</title>
<path fill="none" stroke="midnightblue" d="M535.81,-113.43C533,-112.94 530.21,-112.46 527.5,-112 436.01,-96.35 409.97,-96.62 315.56,-76.06"/>
<polygon fill="midnightblue" stroke="midnightblue" points="316.1,-72.59 305.58,-73.86 314.6,-79.43 316.1,-72.59"/>
</g>
<!-- Node11 -->
<g id="node11" class="node">
<title>Node11</title>
<g id="a_node11"><a xlink:title=" ">
<polygon fill="none" stroke="#bfbfbf" points="799,-56.5 799,-75.5 848,-75.5 848,-56.5 799,-56.5"/>
<text text-anchor="middle" x="823.5" y="-63.5" font-family="Helvetica,sans-Serif" font-size="10.00">string.h</text>
</a>
</g>
</g>
<!-- Node10&#45;&gt;Node11 -->
<g id="edge10" class="edge">
<title>Node10&#45;&gt;Node11</title>
<path fill="none" stroke="midnightblue" d="M622.27,-112.46C662.72,-104.24 725.35,-91.16 788.87,-76.06"/>
<polygon fill="midnightblue" stroke="midnightblue" points="789.74,-79.45 798.65,-73.72 788.11,-72.65 789.74,-79.45"/>
</g>
<!-- Node12 -->
<g id="node12" class="node">
<title>Node12</title>
<g id="a_node12"><a xlink:title=" ">
<polygon fill="none" stroke="#bfbfbf" points="866.5,-56.5 866.5,-75.5 912.5,-75.5 912.5,-56.5 866.5,-56.5"/>
<text text-anchor="middle" x="889.5" y="-63.5" font-family="Helvetica,sans-Serif" font-size="10.00">stdio.h</text>
</a>
</g>
</g>
<!-- Node10&#45;&gt;Node12 -->
<g id="edge11" class="edge">
<title>Node10&#45;&gt;Node12</title>
<path fill="none" stroke="midnightblue" d="M623.13,-115.5C676.13,-108.48 768.41,-95.14 856.3,-76.07"/>
<polygon fill="midnightblue" stroke="midnightblue" points="857.14,-79.46 866.16,-73.9 855.64,-72.63 857.14,-79.46"/>
</g>
<!-- Node13 -->
<g id="node13" class="node">
<title>Node13</title>
<g id="a_node13"><a xlink:title=" ">
<polygon fill="none" stroke="#bfbfbf" points="930.5,-56.5 930.5,-75.5 982.5,-75.5 982.5,-56.5 930.5,-56.5"/>
<text text-anchor="middle" x="956.5" y="-63.5" font-family="Helvetica,sans-Serif" font-size="10.00">unistd.h</text>
</a>
</g>
</g>
<!-- Node10&#45;&gt;Node13 -->
<g id="edge13" class="edge">
<title>Node10&#45;&gt;Node13</title>
<path fill="none" stroke="midnightblue" d="M623.23,-116.96C686.62,-110.72 807.86,-97.39 920.07,-76.08"/>
<polygon fill="midnightblue" stroke="midnightblue" points="921.05,-79.45 930.2,-74.13 919.72,-72.58 921.05,-79.45"/>
</g>
<!-- Node14 -->
<g id="node14" class="node">
<title>Node14</title>
<g id="a_node14"><a xlink:title=" ">
<polygon fill="none" stroke="#bfbfbf" points="323.5,-56.5 323.5,-75.5 371.5,-75.5 371.5,-56.5 323.5,-56.5"/>
<text text-anchor="middle" x="347.5" y="-63.5" font-family="Helvetica,sans-Serif" font-size="10.00">errno.h</text>
</a>
</g>
</g>
<!-- Node10&#45;&gt;Node14 -->
<g id="edge14" class="edge">
<title>Node10&#45;&gt;Node14</title>
<path fill="none" stroke="midnightblue" d="M539.96,-112.44C499.92,-103.68 436.27,-89.47 381.5,-76 381.4,-75.98 381.3,-75.95 381.2,-75.93"/>
<polygon fill="midnightblue" stroke="midnightblue" points="382.17,-72.56 371.62,-73.5 380.45,-79.35 382.17,-72.56"/>
</g>
<!-- Node15 -->
<g id="node15" class="node">
<title>Node15</title>
<g id="a_node15"><a xlink:title=" ">
<polygon fill="none" stroke="#bfbfbf" points="390,-56.5 390,-75.5 433,-75.5 433,-56.5 390,-56.5"/>
<text text-anchor="middle" x="411.5" y="-63.5" font-family="Helvetica,sans-Serif" font-size="10.00">fcntl.h</text>
</a>
</g>
</g>
<!-- Node10&#45;&gt;Node15 -->
<g id="edge15" class="edge">
<title>Node10&#45;&gt;Node15</title>
<path fill="none" stroke="midnightblue" d="M552.88,-112.44C522.99,-102.84 474.54,-87.26 442.84,-77.07"/>
<polygon fill="midnightblue" stroke="midnightblue" points="443.78,-73.7 433.19,-73.97 441.64,-80.36 443.78,-73.7"/>
</g>
<!-- Node16 -->
<g id="node16" class="node">
<title>Node16</title>
<g id="a_node16"><a xlink:title=" ">
<polygon fill="none" stroke="#bfbfbf" points="451,-56.5 451,-75.5 518,-75.5 518,-56.5 451,-56.5"/>
<text text-anchor="middle" x="484.5" y="-63.5" font-family="Helvetica,sans-Serif" font-size="10.00">sys/types.h</text>
</a>
</g>
</g>
<!-- Node10&#45;&gt;Node16 -->
<g id="edge16" class="edge">
<title>Node10&#45;&gt;Node16</title>
<path fill="none" stroke="midnightblue" d="M564.24,-112.32C549.28,-103.82 526.25,-90.73 508.77,-80.8"/>
<polygon fill="midnightblue" stroke="midnightblue" points="510.15,-77.55 499.73,-75.65 506.69,-83.64 510.15,-77.55"/>
</g>
<!-- Node17 -->
<g id="node17" class="node">
<title>Node17</title>
<g id="a_node17"><a xlink:title=" ">
<polygon fill="none" stroke="#bfbfbf" points="536.5,-56.5 536.5,-75.5 608.5,-75.5 608.5,-56.5 536.5,-56.5"/>
<text text-anchor="middle" x="572.5" y="-63.5" font-family="Helvetica,sans-Serif" font-size="10.00">sys/socket.h</text>
</a>
</g>
</g>
<!-- Node10&#45;&gt;Node17 -->
<g id="edge17" class="edge">
<title>Node10&#45;&gt;Node17</title>
<path fill="none" stroke="midnightblue" d="M578.34,-112.08C577.42,-104.93 576.08,-94.64 574.92,-85.69"/>
<polygon fill="midnightblue" stroke="midnightblue" points="578.39,-85.22 573.63,-75.75 571.45,-86.12 578.39,-85.22"/>
</g>
<!-- Node18 -->
<g id="node18" class="node">
<title>Node18</title>
<g id="a_node18"><a xlink:title=" ">
<polygon fill="none" stroke="#bfbfbf" points="627,-56.5 627,-75.5 698,-75.5 698,-56.5 627,-56.5"/>
<text text-anchor="middle" x="662.5" y="-63.5" font-family="Helvetica,sans-Serif" font-size="10.00">netinet/tcp.h</text>
</a>
</g>
</g>
<!-- Node10&#45;&gt;Node18 -->
<g id="edge18" class="edge">
<title>Node10&#45;&gt;Node18</title>
<path fill="none" stroke="midnightblue" d="M592.84,-112.32C605.66,-103.98 625.28,-91.21 640.44,-81.35"/>
<polygon fill="midnightblue" stroke="midnightblue" points="642.72,-84.04 649.2,-75.65 638.91,-78.17 642.72,-84.04"/>
</g>
<!-- Node19 -->
<g id="node19" class="node">
<title>Node19</title>
<g id="a_node19"><a xlink:title=" ">
<polygon fill="none" stroke="#bfbfbf" points="716.5,-56.5 716.5,-75.5 780.5,-75.5 780.5,-56.5 716.5,-56.5"/>
<text text-anchor="middle" x="748.5" y="-63.5" font-family="Helvetica,sans-Serif" font-size="10.00">arpa/inet.h</text>
</a>
</g>
</g>
<!-- Node10&#45;&gt;Node19 -->
<g id="edge19" class="edge">
<title>Node10&#45;&gt;Node19</title>
<path fill="none" stroke="midnightblue" d="M606.28,-112.44C634.83,-103.32 680.23,-88.81 712.04,-78.65"/>
<polygon fill="midnightblue" stroke="midnightblue" points="713.39,-81.89 721.85,-75.52 711.26,-75.23 713.39,-81.89"/>
</g>
<!-- Node10&#45;&gt;Node20 -->
<g id="edge20" class="edge">
<title>Node10&#45;&gt;Node20</title>
<path fill="none" stroke="midnightblue" d="M535.83,-113.3C533.01,-112.85 530.22,-112.41 527.5,-112 407.01,-93.81 373.47,-96.66 249.16,-75.99"/>
<polygon fill="midnightblue" stroke="midnightblue" points="249.7,-72.53 239.25,-74.32 248.54,-79.43 249.7,-72.53"/>
</g>
<!-- Node20&#45;&gt;Node3 -->
<g id="edge22" class="edge">
<title>Node20&#45;&gt;Node3</title>
<path fill="none" stroke="midnightblue" d="M200.38,-56.08C196.09,-48.61 189.84,-37.72 184.56,-28.52"/>
<polygon fill="midnightblue" stroke="midnightblue" points="187.54,-26.68 179.52,-19.75 181.47,-30.17 187.54,-26.68"/>
</g>
<!-- Node20&#45;&gt;Node5 -->
<g id="edge21" class="edge">
<title>Node20&#45;&gt;Node5</title>
<path fill="none" stroke="midnightblue" d="M239.25,-57.65C242.37,-57.05 245.49,-56.49 248.5,-56 375.42,-35.14 528,-19.83 592.41,-13.81"/>
<polygon fill="midnightblue" stroke="midnightblue" points="593.04,-17.26 602.68,-12.86 592.4,-10.29 593.04,-17.26"/>
</g>
</g>
</svg>
