<?xml version="1.0" encoding="UTF-8" standalone="no"?>
<!DOCTYPE svg PUBLIC "-//W3C//DTD SVG 1.1//EN"
 "http://www.w3.org/Graphics/SVG/1.1/DTD/svg11.dtd">
<!-- Generated by graphviz version 2.48.0 (20210717.1556)
 -->
<!-- Title: src/display_server/DisplayServer.h Pages: 1 -->
<svg width="840pt" height="151pt"
 viewBox="0.00 0.00 840.00 151.00" xmlns="http://www.w3.org/2000/svg" xmlns:xlink="http://www.w3.org/1999/xlink">
<g id="graph0" class="graph" transform="scale(1 1) rotate(0) translate(4 147)">
<title>src/display_server/DisplayServer.h</title>
<!-- Node1 -->
<g id="node1" class="node">
<title>Node1</title>
<g id="a_node1"><a xlink:title=" ">
<polygon fill="#bfbfbf" stroke="black" points="307,-112.5 307,-142.5 404,-142.5 404,-112.5 307,-112.5"/>
<text text-anchor="start" x="315" y="-130.5" font-family="Helvetica,sans-Serif" font-size="10.00">src/display_server</text>
<text text-anchor="middle" x="355.5" y="-119.5" font-family="Helvetica,sans-Serif" font-size="10.00">/DisplayServer.h</text>
</a>
</g>
</g>
<!-- Node2 -->
<g id="node2" class="node">
<title>Node2</title>
<g id="a_node2"><a xlink:title=" ">
<polygon fill="none" stroke="#bfbfbf" points="0,-56.5 0,-75.5 49,-75.5 49,-56.5 0,-56.5"/>
<text text-anchor="middle" x="24.5" y="-63.5" font-family="Helvetica,sans-Serif" font-size="10.00">string.h</text>
</a>
</g>
</g>
<!-- Node1&#45;&gt;Node2 -->
<g id="edge1" class="edge">
<title>Node1&#45;&gt;Node2</title>
<path fill="none" stroke="midnightblue" d="M306.89,-119.61C249.87,-111.23 152.35,-95.94 59.19,-75.98"/>
<polygon fill="midnightblue" stroke="midnightblue" points="59.83,-72.54 49.32,-73.85 58.35,-79.38 59.83,-72.54"/>
</g>
<!-- Node3 -->
<g id="node3" class="node">
<title>Node3</title>
<g id="a_node3"><a xlink:title=" ">
<polygon fill="none" stroke="#bfbfbf" points="67.5,-56.5 67.5,-75.5 113.5,-75.5 113.5,-56.5 67.5,-56.5"/>
<text text-anchor="middle" x="90.5" y="-63.5" font-family="Helvetica,sans-Serif" font-size="10.00">stdio.h</text>
</a>
</g>
</g>
<!-- Node1&#45;&gt;Node3 -->
<g id="edge2" class="edge">
<title>Node1&#45;&gt;Node3</title>
<path fill="none" stroke="midnightblue" d="M306.66,-116.81C261.5,-107.66 192.32,-93.12 123.27,-76.08"/>
<polygon fill="midnightblue" stroke="midnightblue" points="124.08,-72.67 113.53,-73.66 122.39,-79.47 124.08,-72.67"/>
</g>
<!-- Node4 -->
<g id="node4" class="node">
<title>Node4</title>
<g id="a_node4"><a xlink:title=" ">
<polygon fill="none" stroke="#bfbfbf" points="131.5,-56.5 131.5,-75.5 179.5,-75.5 179.5,-56.5 131.5,-56.5"/>
<text text-anchor="middle" x="155.5" y="-63.5" font-family="Helvetica,sans-Serif" font-size="10.00">stdlib.h</text>
</a>
</g>
</g>
<!-- Node1&#45;&gt;Node4 -->
<g id="edge3" class="edge">
<title>Node1&#45;&gt;Node4</title>
<path fill="none" stroke="midnightblue" d="M308.36,-112.47C271.88,-101.62 222.25,-86.86 189.56,-77.13"/>
<polygon fill="midnightblue" stroke="midnightblue" points="190.17,-73.66 179.59,-74.17 188.17,-80.37 190.17,-73.66"/>
</g>
<!-- Node5 -->
<g id="node5" class="node">
<title>Node5</title>
<g id="a_node5"><a xlink:title=" ">
<polygon fill="none" stroke="#bfbfbf" points="197.5,-56.5 197.5,-75.5 249.5,-75.5 249.5,-56.5 197.5,-56.5"/>
<text text-anchor="middle" x="223.5" y="-63.5" font-family="Helvetica,sans-Serif" font-size="10.00">unistd.h</text>
</a>
</g>
</g>
<!-- Node1&#45;&gt;Node5 -->
<g id="edge4" class="edge">
<title>Node1&#45;&gt;Node5</title>
<path fill="none" stroke="midnightblue" d="M324.22,-112.4C302.27,-102.51 273.16,-89.38 251.88,-79.79"/>
<polygon fill="midnightblue" stroke="midnightblue" points="253.26,-76.58 242.71,-75.66 250.39,-82.96 253.26,-76.58"/>
</g>
<!-- Node6 -->
<g id="node6" class="node">
<title>Node6</title>
<g id="a_node6"><a xlink:title=" ">
<polygon fill="none" stroke="#bfbfbf" points="267.5,-56.5 267.5,-75.5 315.5,-75.5 315.5,-56.5 267.5,-56.5"/>
<text text-anchor="middle" x="291.5" y="-63.5" font-family="Helvetica,sans-Serif" font-size="10.00">errno.h</text>
</a>
</g>
</g>
<!-- Node1&#45;&gt;Node6 -->
<g id="edge5" class="edge">
<title>Node1&#45;&gt;Node6</title>
<path fill="none" stroke="midnightblue" d="M340.33,-112.4C330.75,-103.49 318.34,-91.95 308.43,-82.74"/>
<polygon fill="midnightblue" stroke="midnightblue" points="310.52,-79.9 300.81,-75.66 305.75,-85.03 310.52,-79.9"/>
</g>
<!-- Node7 -->
<g id="node7" class="node">
<title>Node7</title>
<g id="a_node7"><a xlink:title=" ">
<polygon fill="none" stroke="#bfbfbf" points="334,-56.5 334,-75.5 377,-75.5 377,-56.5 334,-56.5"/>
<text text-anchor="middle" x="355.5" y="-63.5" font-family="Helvetica,sans-Serif" font-size="10.00">fcntl.h</text>
</a>
</g>
</g>
<!-- Node1&#45;&gt;Node7 -->
<g id="edge6" class="edge">
<title>Node1&#45;&gt;Node7</title>
<path fill="none" stroke="midnightblue" d="M355.5,-112.4C355.5,-104.47 355.5,-94.46 355.5,-85.86"/>
<polygon fill="midnightblue" stroke="midnightblue" points="359,-85.66 355.5,-75.66 352,-85.66 359,-85.66"/>
</g>
<!-- Node8 -->
<g id="node8" class="node">
<title>Node8</title>
<g id="a_node8"><a xlink:title=" ">
<polygon fill="none" stroke="#bfbfbf" points="395,-56.5 395,-75.5 462,-75.5 462,-56.5 395,-56.5"/>
<text text-anchor="middle" x="428.5" y="-63.5" font-family="Helvetica,sans-Serif" font-size="10.00">sys/types.h</text>
</a>
</g>
</g>
<!-- Node1&#45;&gt;Node8 -->
<g id="edge7" class="edge">
<title>Node1&#45;&gt;Node8</title>
<path fill="none" stroke="midnightblue" d="M372.8,-112.4C383.95,-103.31 398.45,-91.49 409.86,-82.19"/>
<polygon fill="midnightblue" stroke="midnightblue" points="412.34,-84.69 417.88,-75.66 407.92,-79.26 412.34,-84.69"/>
</g>
<!-- Node9 -->
<g id="node9" class="node">
<title>Node9</title>
<g id="a_node9"><a xlink:title=" ">
<polygon fill="none" stroke="#bfbfbf" points="480.5,-56.5 480.5,-75.5 552.5,-75.5 552.5,-56.5 480.5,-56.5"/>
<text text-anchor="middle" x="516.5" y="-63.5" font-family="Helvetica,sans-Serif" font-size="10.00">sys/socket.h</text>
</a>
</g>
</g>
<!-- Node1&#45;&gt;Node9 -->
<g id="edge8" class="edge">
<title>Node1&#45;&gt;Node9</title>
<path fill="none" stroke="midnightblue" d="M393.65,-112.4C421.03,-102.28 457.54,-88.79 483.63,-79.15"/>
<polygon fill="midnightblue" stroke="midnightblue" points="484.91,-82.41 493.07,-75.66 482.48,-75.84 484.91,-82.41"/>
</g>
<!-- Node10 -->
<g id="node10" class="node">
<title>Node10</title>
<g id="a_node10"><a xlink:title=" ">
<polygon fill="none" stroke="#bfbfbf" points="571,-56.5 571,-75.5 642,-75.5 642,-56.5 571,-56.5"/>
<text text-anchor="middle" x="606.5" y="-63.5" font-family="Helvetica,sans-Serif" font-size="10.00">netinet/tcp.h</text>
</a>
</g>
</g>
<!-- Node1&#45;&gt;Node10 -->
<g id="edge9" class="edge">
<title>Node1&#45;&gt;Node10</title>
<path fill="none" stroke="midnightblue" d="M404.19,-114.96C449.56,-104.2 516.68,-88.29 560.99,-77.79"/>
<polygon fill="midnightblue" stroke="midnightblue" points="561.99,-81.15 570.91,-75.44 560.37,-74.34 561.99,-81.15"/>
</g>
<!-- Node11 -->
<g id="node11" class="node">
<title>Node11</title>
<g id="a_node11"><a xlink:title=" ">
<polygon fill="none" stroke="#bfbfbf" points="660.5,-56.5 660.5,-75.5 724.5,-75.5 724.5,-56.5 660.5,-56.5"/>
<text text-anchor="middle" x="692.5" y="-63.5" font-family="Helvetica,sans-Serif" font-size="10.00">arpa/inet.h</text>
</a>
</g>
</g>
<!-- Node1&#45;&gt;Node11 -->
<g id="edge10" class="edge">
<title>Node1&#45;&gt;Node11</title>
<path fill="none" stroke="midnightblue" d="M404.16,-118.81C462.73,-109.4 564.02,-92.66 650.5,-76 650.6,-75.98 650.7,-75.96 650.8,-75.94"/>
<polygon fill="midnightblue" stroke="midnightblue" points="651.31,-79.41 660.42,-74.02 649.93,-72.55 651.31,-79.41"/>
</g>
<!-- Node12 -->
<g id="node12" class="node">
<title>Node12</title>
<g id="a_node12"><a xlink:href="_info_panel_8h.html" target="_top" xlink:title=" ">
<polygon fill="none" stroke="black" points="743,-56.5 743,-75.5 810,-75.5 810,-56.5 743,-56.5"/>
<text text-anchor="middle" x="776.5" y="-63.5" font-family="Helvetica,sans-Serif" font-size="10.00">InfoPanel.h</text>
</a>
</g>
</g>
<!-- Node1&#45;&gt;Node12 -->
<g id="edge11" class="edge">
<title>Node1&#45;&gt;Node12</title>
<path fill="none" stroke="midnightblue" d="M404.01,-121.18C474.2,-113.22 608.39,-97.05 732.67,-76.03"/>
<polygon fill="midnightblue" stroke="midnightblue" points="733.47,-79.44 742.74,-74.31 732.3,-72.54 733.47,-79.44"/>
</g>
<!-- Node13 -->
<g id="node13" class="node">
<title>Node13</title>
<g id="a_node13"><a xlink:title=" ">
<polygon fill="none" stroke="#bfbfbf" points="724,-0.5 724,-19.5 765,-19.5 765,-0.5 724,-0.5"/>
<text text-anchor="middle" x="744.5" y="-7.5" font-family="Helvetica,sans-Serif" font-size="10.00">string</text>
</a>
</g>
</g>
<!-- Node12&#45;&gt;Node13 -->
<g id="edge12" class="edge">
<title>Node12&#45;&gt;Node13</title>
<path fill="none" stroke="midnightblue" d="M771.22,-56.08C766.79,-48.61 760.34,-37.72 754.88,-28.52"/>
<polygon fill="midnightblue" stroke="midnightblue" points="757.79,-26.57 749.69,-19.75 751.77,-30.14 757.79,-26.57"/>
</g>
<!-- Node14 -->
<g id="node14" class="node">
<title>Node14</title>
<g id="a_node14"><a xlink:title=" ">
<polygon fill="none" stroke="#bfbfbf" points="783,-0.5 783,-19.5 832,-19.5 832,-0.5 783,-0.5"/>
<text text-anchor="middle" x="807.5" y="-7.5" font-family="Helvetica,sans-Serif" font-size="10.00">stdint.h</text>
</a>
</g>
</g>
<!-- Node12&#45;&gt;Node14 -->
<g id="edge13" class="edge">
<title>Node12&#45;&gt;Node14</title>
<path fill="none" stroke="midnightblue" d="M781.62,-56.08C785.91,-48.61 792.16,-37.72 797.44,-28.52"/>
<polygon fill="midnightblue" stroke="midnightblue" points="800.53,-30.17 802.48,-19.75 794.46,-26.68 800.53,-30.17"/>
</g>
</g>
</svg>
