<?xml version="1.0" encoding="UTF-8" standalone="no"?>
<!DOCTYPE svg PUBLIC "-//W3C//DTD SVG 1.1//EN"
 "http://www.w3.org/Graphics/SVG/1.1/DTD/svg11.dtd">
<!-- Generated by graphviz version 2.50.0 (20211204.2007)
 -->
<!-- Title: split Pages: 1 -->
<svg width="439pt" height="66pt"
 viewBox="0.00 0.00 439.00 66.00" xmlns="http://www.w3.org/2000/svg" xmlns:xlink="http://www.w3.org/1999/xlink">
<g id="graph0" class="graph" transform="scale(1 1) rotate(0) translate(4 62)">
<title>split</title>
<!-- Node1 -->
<g id="node1" class="node">
<title>Node1</title>
<g id="a_node1"><a xlink:title=" ">
<polygon fill="#bfbfbf" stroke="black" points="396,-19.5 396,-38.5 431,-38.5 431,-19.5 396,-19.5"/>
<text text-anchor="middle" x="413.5" y="-26.5" font-family="Helvetica,sans-Serif" font-size="10.00">split</text>
</a>
</g>
</g>
<!-- Node2 -->
<g id="node2" class="node">
<title>Node2</title>
<g id="a_node2"><a xlink:href="class_display_server.html#aec4ced2b9f9163d6ca174b82f8d0249e" target="_top" xlink:title=" ">
<polygon fill="none" stroke="black" points="208,-38.5 208,-57.5 360,-57.5 360,-38.5 208,-38.5"/>
<text text-anchor="middle" x="284" y="-45.5" font-family="Helvetica,sans-Serif" font-size="10.00">DisplayServer::_updateDisplay</text>
</a>
</g>
</g>
<!-- Node1&#45;&gt;Node2 -->
<g id="edge1" class="edge">
<title>Node1&#45;&gt;Node2</title>
<path fill="none" stroke="midnightblue" d="M385.77,-32.98C374.9,-34.6 361.83,-36.55 348.75,-38.5"/>
<polygon fill="midnightblue" stroke="midnightblue" points="386.46,-36.42 395.83,-31.48 385.42,-29.5 386.46,-36.42"/>
</g>
<!-- Node5 -->
<g id="node5" class="node">
<title>Node5</title>
<g id="a_node5"><a xlink:href="_display_server_8cpp.html#a0711bc625a1e6944ca62107b5847365f" target="_top" xlink:title=" ">
<polygon fill="none" stroke="black" points="266.5,-0.5 266.5,-19.5 301.5,-19.5 301.5,-0.5 266.5,-0.5"/>
<text text-anchor="middle" x="284" y="-7.5" font-family="Helvetica,sans-Serif" font-size="10.00">split</text>
</a>
</g>
</g>
<!-- Node1&#45;&gt;Node5 -->
<g id="edge4" class="edge">
<title>Node1&#45;&gt;Node5</title>
<path fill="none" stroke="midnightblue" d="M385.77,-25.02C360.4,-21.24 323.06,-15.67 301.67,-12.48"/>
<polygon fill="midnightblue" stroke="midnightblue" points="385.42,-28.5 395.83,-26.52 386.46,-21.58 385.42,-28.5"/>
</g>
<!-- Node3 -->
<g id="node3" class="node">
<title>Node3</title>
<g id="a_node3"><a xlink:href="class_display_server.html#a51dae66f15f858f9ed8407e425fe03f1" target="_top" xlink:title=" ">
<polygon fill="none" stroke="black" points="74,-38.5 74,-57.5 172,-57.5 172,-38.5 74,-38.5"/>
<text text-anchor="middle" x="123" y="-45.5" font-family="Helvetica,sans-Serif" font-size="10.00">DisplayServer::run</text>
</a>
</g>
</g>
<!-- Node2&#45;&gt;Node3 -->
<g id="edge2" class="edge">
<title>Node2&#45;&gt;Node3</title>
<path fill="none" stroke="midnightblue" d="M197.53,-48C188.88,-48 180.34,-48 172.29,-48"/>
<polygon fill="midnightblue" stroke="midnightblue" points="197.69,-51.5 207.69,-48 197.69,-44.5 197.69,-51.5"/>
</g>
<!-- Node4 -->
<g id="node4" class="node">
<title>Node4</title>
<g id="a_node4"><a xlink:href="_display_server_8cpp.html#ae66f6b31b5ad750f1fe042a706a4e3d4" target="_top" xlink:title=" ">
<polygon fill="none" stroke="black" points="0,-38.5 0,-57.5 38,-57.5 38,-38.5 0,-38.5"/>
<text text-anchor="middle" x="19" y="-45.5" font-family="Helvetica,sans-Serif" font-size="10.00">main</text>
</a>
</g>
</g>
<!-- Node3&#45;&gt;Node4 -->
<g id="edge3" class="edge">
<title>Node3&#45;&gt;Node4</title>
<path fill="none" stroke="midnightblue" d="M63.78,-48C54.44,-48 45.43,-48 38.04,-48"/>
<polygon fill="midnightblue" stroke="midnightblue" points="63.99,-51.5 73.99,-48 63.99,-44.5 63.99,-51.5"/>
</g>
</g>
</svg>
