<?xml version="1.0" encoding="UTF-8" standalone="no"?>
<!DOCTYPE svg PUBLIC "-//W3C//DTD SVG 1.1//EN"
 "http://www.w3.org/Graphics/SVG/1.1/DTD/svg11.dtd">
<!-- Generated by graphviz version 2.50.0 (20211204.2007)
 -->
<!-- Title: main Pages: 1 -->
<!--zoomable 180 -->
<svg id="main" version="1.1" xmlns="http://www.w3.org/2000/svg" xmlns:xlink="http://www.w3.org/1999/xlink" xml:space="preserve" onload="init(evt)">
<style type="text/css"><![CDATA[
.edge:hover path { stroke: red; }
.edge:hover polygon { stroke: red; fill: red; }
]]></style>
<script type="text/javascript"><![CDATA[
var edges = document.getElementsByTagName('g');
if (edges && edges.length) {
  for (var i=0;i<edges.length;i++) {
    if (edges[i].id.substr(0,4)=='edge') {
      edges[i].setAttribute('class','edge');
    }
  }
}
]]></script>
        <defs>
                <circle id="rim" cx="0" cy="0" r="7"/>
                <circle id="rim2" cx="0" cy="0" r="3.5"/>
                <g id="zoomPlus">
                        <use xlink:href="#rim" fill="#404040">
                                <set attributeName="fill" to="#808080" begin="zoomplus.mouseover" end="zoomplus.mouseout"/>
                        </use>
                        <path d="M-4,0h8M0,-4v8" fill="none" stroke="white" stroke-width="1.5" pointer-events="none"/>
                </g>
                <g id="zoomMin">
                        <use xlink:href="#rim" fill="#404040">
                                <set attributeName="fill" to="#808080" begin="zoomminus.mouseover" end="zoomminus.mouseout"/>
                        </use>
                        <path d="M-4,0h8" fill="none" stroke="white" stroke-width="1.5" pointer-events="none"/>
                </g>
                <g id="dirArrow">
                        <path fill="none" stroke="white" stroke-width="1.5" d="M0,-3.0v7 M-2.5,-0.5L0,-3.0L2.5,-0.5"/>
                </g>
               <g id="resetDef">
                       <use xlink:href="#rim2" fill="#404040">
                               <set attributeName="fill" to="#808080" begin="reset.mouseover" end="reset.mouseout"/>
                       </use>
               </g>
        </defs>

<script type="text/javascript">
var viewWidth = 744;
var viewHeight = 180;
var sectionId = 'dynsection-2';
</script>
<script xlink:href="svgpan.js"/>
<svg id="graph" class="graph">
<g id="viewport">
<title>main</title>
<!-- Node1 -->
<g id="node1" class="node">
<title>Node1</title>
<g id="a_node1"><a xlink:title=" ">
<polygon fill="#bfbfbf" stroke="black" points="0,-57.5 0,-76.5 38,-76.5 38,-57.5 0,-57.5"/>
<text text-anchor="middle" x="19" y="-64.5" font-family="Helvetica,sans-Serif" font-size="10.00">main</text>
</a>
</g>
</g>
<!-- Node2 -->
<g id="node2" class="node">
<title>Node2</title>
<g id="a_node2"><a xlink:href="class_display_server.html#a51dae66f15f858f9ed8407e425fe03f1" target="_top" xlink:title=" ">
<polygon fill="none" stroke="black" points="74,-57.5 74,-76.5 172,-76.5 172,-57.5 74,-57.5"/>
<text text-anchor="middle" x="123" y="-64.5" font-family="Helvetica,sans-Serif" font-size="10.00">DisplayServer::run</text>
</a>
</g>
</g>
<!-- Node1&#45;&gt;Node2 -->
<g id="edge1" class="edge">
<title>Node1&#45;&gt;Node2</title>
<path fill="none" stroke="midnightblue" d="M38.24,-67C45.56,-67 54.44,-67 63.65,-67"/>
<polygon fill="midnightblue" stroke="midnightblue" points="63.72,-70.5 73.72,-67 63.72,-63.5 63.72,-70.5"/>
</g>
<!-- Node3 -->
<g id="node3" class="node">
<title>Node3</title>
<g id="a_node3"><a xlink:href="class_display_server.html#aec4ced2b9f9163d6ca174b82f8d0249e" target="_top" xlink:title=" ">
<polygon fill="none" stroke="black" points="214,-114.5 214,-133.5 366,-133.5 366,-114.5 214,-114.5"/>
<text text-anchor="middle" x="290" y="-121.5" font-family="Helvetica,sans-Serif" font-size="10.00">DisplayServer::_updateDisplay</text>
</a>
</g>
</g>
<!-- Node2&#45;&gt;Node3 -->
<g id="edge2" class="edge">
<title>Node2&#45;&gt;Node3</title>
<path fill="none" stroke="midnightblue" d="M146.98,-76.65C163.75,-83.53 187.11,-92.82 208,-100 219.81,-104.06 232.73,-108.08 244.71,-111.63"/>
<polygon fill="midnightblue" stroke="midnightblue" points="243.92,-115.04 254.5,-114.49 245.89,-108.33 243.92,-115.04"/>
</g>
<!-- Node10 -->
<g id="node10" class="node">
<title>Node10</title>
<g id="a_node10"><a xlink:href="class_info_panel.html#ab38d1389f70d810e41c571166b90cbe3" target="_top" xlink:title=" ">
<polygon fill="none" stroke="black" points="408,-76.5 408,-95.5 565,-95.5 565,-76.5 408,-76.5"/>
<text text-anchor="middle" x="486.5" y="-83.5" font-family="Helvetica,sans-Serif" font-size="10.00">InfoPanel::drawInfoNewSession</text>
</a>
</g>
</g>
<!-- Node2&#45;&gt;Node10 -->
<g id="edge9" class="edge">
<title>Node2&#45;&gt;Node10</title>
<path fill="none" stroke="midnightblue" d="M172,-69.52C229.39,-72.54 326.57,-77.65 397.55,-81.38"/>
<polygon fill="midnightblue" stroke="midnightblue" points="397.66,-84.89 407.83,-81.92 398.02,-77.9 397.66,-84.89"/>
</g>
<!-- Node11 -->
<g id="node11" class="node">
<title>Node11</title>
<g id="a_node11"><a xlink:href="_display_server_8cpp.html#ae6c284f76536f5a2cdc683e68988d02a" target="_top" xlink:title=" ">
<polygon fill="none" stroke="black" points="269.5,-38.5 269.5,-57.5 310.5,-57.5 310.5,-38.5 269.5,-38.5"/>
<text text-anchor="middle" x="290" y="-45.5" font-family="Helvetica,sans-Serif" font-size="10.00">guard</text>
</a>
</g>
</g>
<!-- Node2&#45;&gt;Node11 -->
<g id="edge13" class="edge">
<title>Node2&#45;&gt;Node11</title>
<path fill="none" stroke="midnightblue" d="M172.17,-61.45C200.34,-58.21 235.01,-54.22 259.24,-51.43"/>
<polygon fill="midnightblue" stroke="midnightblue" points="259.72,-54.89 269.25,-50.27 258.92,-47.94 259.72,-54.89"/>
</g>
<!-- Node12 -->
<g id="node12" class="node">
<title>Node12</title>
<g id="a_node12"><a xlink:href="class_info_panel.html#afe133feade84a75e1b4cfe1688357474" target="_top" xlink:title=" ">
<polygon fill="none" stroke="black" points="208,-0.5 208,-19.5 372,-19.5 372,-0.5 208,-0.5"/>
<text text-anchor="middle" x="290" y="-7.5" font-family="Helvetica,sans-Serif" font-size="10.00">InfoPanel::isRequestNewSession</text>
</a>
</g>
</g>
<!-- Node2&#45;&gt;Node12 -->
<g id="edge14" class="edge">
<title>Node2&#45;&gt;Node12</title>
<path fill="none" stroke="midnightblue" d="M142.26,-57.49C159,-49.07 184.66,-36.93 208,-29 215.58,-26.42 223.68,-24.07 231.72,-21.97"/>
<polygon fill="midnightblue" stroke="midnightblue" points="232.6,-25.35 241.45,-19.53 230.9,-18.56 232.6,-25.35"/>
</g>
<!-- Node4 -->
<g id="node4" class="node">
<title>Node4</title>
<g id="a_node4"><a xlink:href="class_info_panel.html#a06ea1542da8007f88d6db68cbb0cadd1" target="_top" xlink:title=" ">
<polygon fill="none" stroke="black" points="423.5,-114.5 423.5,-133.5 549.5,-133.5 549.5,-114.5 423.5,-114.5"/>
<text text-anchor="middle" x="486.5" y="-121.5" font-family="Helvetica,sans-Serif" font-size="10.00">InfoPanel::drawInfoPanel</text>
</a>
</g>
</g>
<!-- Node3&#45;&gt;Node4 -->
<g id="edge3" class="edge">
<title>Node3&#45;&gt;Node4</title>
<path fill="none" stroke="midnightblue" d="M366.2,-124C381.57,-124 397.72,-124 413,-124"/>
<polygon fill="midnightblue" stroke="midnightblue" points="413.41,-127.5 423.41,-124 413.41,-120.5 413.41,-127.5"/>
</g>
<!-- Node9 -->
<g id="node9" class="node">
<title>Node9</title>
<g id="a_node9"><a xlink:href="_display_server_8cpp.html#a03529396588a5d4dac36c432989fdfaa" target="_top" xlink:title=" ">
<polygon fill="none" stroke="black" points="469,-152.5 469,-171.5 504,-171.5 504,-152.5 469,-152.5"/>
<text text-anchor="middle" x="486.5" y="-159.5" font-family="Helvetica,sans-Serif" font-size="10.00">split</text>
</a>
</g>
</g>
<!-- Node3&#45;&gt;Node9 -->
<g id="edge8" class="edge">
<title>Node3&#45;&gt;Node9</title>
<path fill="none" stroke="midnightblue" d="M339.83,-133.54C377.48,-140.9 428.12,-150.79 458.7,-156.76"/>
<polygon fill="midnightblue" stroke="midnightblue" points="458.14,-160.22 468.63,-158.7 459.49,-153.35 458.14,-160.22"/>
</g>
<!-- Node5 -->
<g id="node5" class="node">
<title>Node5</title>
<g id="a_node5"><a xlink:href="class_info_panel.html#a0dc46c497fcc00d1ed813e32c26320bd" target="_top" xlink:title=" ">
<polygon fill="none" stroke="black" points="601,-114.5 601,-133.5 736,-133.5 736,-114.5 601,-114.5"/>
<text text-anchor="middle" x="668.5" y="-121.5" font-family="Helvetica,sans-Serif" font-size="10.00">InfoPanel::_destroyCanvas</text>
</a>
</g>
</g>
<!-- Node4&#45;&gt;Node5 -->
<g id="edge4" class="edge">
<title>Node4&#45;&gt;Node5</title>
<path fill="none" stroke="midnightblue" d="M549.7,-124C562.82,-124 576.81,-124 590.4,-124"/>
<polygon fill="midnightblue" stroke="midnightblue" points="590.69,-127.5 600.69,-124 590.69,-120.5 590.69,-127.5"/>
</g>
<!-- Node6 -->
<g id="node6" class="node">
<title>Node6</title>
<g id="a_node6"><a xlink:href="class_info_panel.html#a7974b73d016dec3017ae6d7aa7fc046e" target="_top" xlink:title=" ">
<polygon fill="none" stroke="black" points="603.5,-152.5 603.5,-171.5 733.5,-171.5 733.5,-152.5 603.5,-152.5"/>
<text text-anchor="middle" x="668.5" y="-159.5" font-family="Helvetica,sans-Serif" font-size="10.00">InfoPanel::_drawSolidLine</text>
</a>
</g>
</g>
<!-- Node4&#45;&gt;Node6 -->
<g id="edge5" class="edge">
<title>Node4&#45;&gt;Node6</title>
<path fill="none" stroke="midnightblue" d="M532.92,-133.59C557.1,-138.69 587.03,-145.01 612.51,-150.39"/>
<polygon fill="midnightblue" stroke="midnightblue" points="611.9,-153.84 622.41,-152.48 613.34,-146.99 611.9,-153.84"/>
</g>
<!-- Node7 -->
<g id="node7" class="node">
<title>Node7</title>
<g id="a_node7"><a xlink:href="class_info_panel.html#ad998de9843ed1dd96325903697c9bab0" target="_top" xlink:title=" ">
<polygon fill="none" stroke="black" points="601,-76.5 601,-95.5 736,-95.5 736,-76.5 601,-76.5"/>
<text text-anchor="middle" x="668.5" y="-83.5" font-family="Helvetica,sans-Serif" font-size="10.00">InfoPanel::_prepareCanvas</text>
</a>
</g>
</g>
<!-- Node4&#45;&gt;Node7 -->
<g id="edge6" class="edge">
<title>Node4&#45;&gt;Node7</title>
<path fill="none" stroke="midnightblue" d="M532.92,-114.41C557.1,-109.31 587.03,-102.99 612.51,-97.61"/>
<polygon fill="midnightblue" stroke="midnightblue" points="613.34,-101.01 622.41,-95.52 611.9,-94.16 613.34,-101.01"/>
</g>
<!-- Node8 -->
<g id="node8" class="node">
<title>Node8</title>
<g id="a_node8"><a xlink:href="class_info_panel.html#a3d2ccd85850cab49479882271dd15915" target="_top" xlink:title=" ">
<polygon fill="none" stroke="black" points="602,-38.5 602,-57.5 735,-57.5 735,-38.5 602,-38.5"/>
<text text-anchor="middle" x="668.5" y="-45.5" font-family="Helvetica,sans-Serif" font-size="10.00">InfoPanel::_refreshCanvas</text>
</a>
</g>
</g>
<!-- Node4&#45;&gt;Node8 -->
<g id="edge7" class="edge">
<title>Node4&#45;&gt;Node8</title>
<path fill="none" stroke="midnightblue" d="M543.22,-114.47C550.81,-112 558.29,-108.9 565,-105 585.11,-93.31 581.11,-79.07 601,-67 604.58,-64.83 608.42,-62.89 612.38,-61.18"/>
<polygon fill="midnightblue" stroke="midnightblue" points="613.71,-64.41 621.78,-57.54 611.19,-57.88 613.71,-64.41"/>
</g>
<!-- Node10&#45;&gt;Node5 -->
<g id="edge10" class="edge">
<title>Node10&#45;&gt;Node5</title>
<path fill="none" stroke="midnightblue" d="M532.92,-95.59C557.1,-100.69 587.03,-107.01 612.51,-112.39"/>
<polygon fill="midnightblue" stroke="midnightblue" points="611.9,-115.84 622.41,-114.48 613.34,-108.99 611.9,-115.84"/>
</g>
<!-- Node10&#45;&gt;Node7 -->
<g id="edge11" class="edge">
<title>Node10&#45;&gt;Node7</title>
<path fill="none" stroke="midnightblue" d="M565.14,-86C573.6,-86 582.2,-86 590.65,-86"/>
<polygon fill="midnightblue" stroke="midnightblue" points="590.85,-89.5 600.85,-86 590.85,-82.5 590.85,-89.5"/>
</g>
<!-- Node10&#45;&gt;Node8 -->
<g id="edge12" class="edge">
<title>Node10&#45;&gt;Node8</title>
<path fill="none" stroke="midnightblue" d="M532.92,-76.41C557.1,-71.31 587.03,-64.99 612.51,-59.61"/>
<polygon fill="midnightblue" stroke="midnightblue" points="613.34,-63.01 622.41,-57.52 611.9,-56.16 613.34,-63.01"/>
</g>
</g>
</svg>
        <g id="navigator" transform="translate(0 0)" fill="#404254">
                <rect fill="#f2f5e9" fill-opacity="0.5" stroke="#606060" stroke-width=".5" x="0" y="0" width="60" height="60"/>
                <use id="zoomplus" xlink:href="#zoomPlus" x="17" y="9" onmousedown="handleZoom(evt,'in')"/>
                <use id="zoomminus" xlink:href="#zoomMin" x="42" y="9" onmousedown="handleZoom(evt,'out')"/>
                <use id="reset" xlink:href="#resetDef" x="30" y="36" onmousedown="handleReset()"/>
                <g id="arrowUp" xlink:href="#dirArrow" transform="translate(30 24)" onmousedown="handlePan(0,-1)">
                  <use xlink:href="#rim" fill="#404040">
                        <set attributeName="fill" to="#808080" begin="arrowUp.mouseover" end="arrowUp.mouseout"/>
                  </use>
                  <path fill="none" stroke="white" stroke-width="1.5" d="M0,-3.0v7 M-2.5,-0.5L0,-3.0L2.5,-0.5"/>
                </g>
                <g id="arrowRight" xlink:href="#dirArrow" transform="rotate(90) translate(36 -43)" onmousedown="handlePan(1,0)">
                  <use xlink:href="#rim" fill="#404040">
                        <set attributeName="fill" to="#808080" begin="arrowRight.mouseover" end="arrowRight.mouseout"/>
                  </use>
                  <path fill="none" stroke="white" stroke-width="1.5" d="M0,-3.0v7 M-2.5,-0.5L0,-3.0L2.5,-0.5"/>
                </g>
                <g id="arrowDown" xlink:href="#dirArrow" transform="rotate(180) translate(-30 -48)" onmousedown="handlePan(0,1)">
                  <use xlink:href="#rim" fill="#404040">
                        <set attributeName="fill" to="#808080" begin="arrowDown.mouseover" end="arrowDown.mouseout"/>
                  </use>
                  <path fill="none" stroke="white" stroke-width="1.5" d="M0,-3.0v7 M-2.5,-0.5L0,-3.0L2.5,-0.5"/>
                </g>
                <g id="arrowLeft" xlink:href="#dirArrow" transform="rotate(270) translate(-36 17)" onmousedown="handlePan(-1,0)">
                  <use xlink:href="#rim" fill="#404040">
                        <set attributeName="fill" to="#808080" begin="arrowLeft.mouseover" end="arrowLeft.mouseout"/>
                  </use>
                  <path fill="none" stroke="white" stroke-width="1.5" d="M0,-3.0v7 M-2.5,-0.5L0,-3.0L2.5,-0.5"/>
                </g>
        </g>
        <svg viewBox="0 0 15 15" width="100%" height="30px" preserveAspectRatio="xMaxYMin meet">
         <g id="arrow_out" transform="scale(0.3 0.3)">
          <a xlink:href="_display_server_8cpp_ae66f6b31b5ad750f1fe042a706a4e3d4_cgraph_org.svg" target="_base">
           <rect id="button" ry="5" rx="5" y="6" x="6" height="38" width="38"
                fill="#f2f5e9" fill-opacity="0.5" stroke="#606060" stroke-width="1.0"/>
           <path id="arrow"
             d="M 11.500037,31.436501 C 11.940474,20.09759 22.043105,11.32322 32.158766,21.979434 L 37.068811,17.246167 C 37.068811,17.246167 37.088388,32 37.088388,32 L 22.160133,31.978069 C 22.160133,31.978069 26.997745,27.140456 26.997745,27.140456 C 18.528582,18.264221 13.291696,25.230495 11.500037,31.436501 z"
             style="fill:#404040;"/>
          </a>
         </g>
        </svg>
</svg>
