<?xml version="1.0" encoding="UTF-8" standalone="no"?>
<!DOCTYPE svg PUBLIC "-//W3C//DTD SVG 1.1//EN"
 "http://www.w3.org/Graphics/SVG/1.1/DTD/svg11.dtd">
<!-- Generated by graphviz version 2.48.0 (20210717.1556)
 -->
<!-- Title: src/DisplayClient.cpp Pages: 1 -->
<svg width="944pt" height="140pt"
 viewBox="0.00 0.00 944.00 140.00" xmlns="http://www.w3.org/2000/svg" xmlns:xlink="http://www.w3.org/1999/xlink">
<g id="graph0" class="graph" transform="scale(1 1) rotate(0) translate(4 136)">
<title>src/DisplayClient.cpp</title>
<!-- Node1 -->
<g id="node1" class="node">
<title>Node1</title>
<g id="a_node1"><a xlink:title=" ">
<polygon fill="#bfbfbf" stroke="black" points="330.5,-112.5 330.5,-131.5 440.5,-131.5 440.5,-112.5 330.5,-112.5"/>
<text text-anchor="middle" x="385.5" y="-119.5" font-family="Helvetica,sans-Serif" font-size="10.00">src/DisplayClient.cpp</text>
</a>
</g>
</g>
<!-- Node2 -->
<g id="node2" class="node">
<title>Node2</title>
<g id="a_node2"><a xlink:title=" ">
<polygon fill="none" stroke="#bfbfbf" points="315,-56.5 315,-75.5 370,-75.5 370,-56.5 315,-56.5"/>
<text text-anchor="middle" x="342.5" y="-63.5" font-family="Helvetica,sans-Serif" font-size="10.00">iostream</text>
</a>
</g>
</g>
<!-- Node1&#45;&gt;Node2 -->
<g id="edge1" class="edge">
<title>Node1&#45;&gt;Node2</title>
<path fill="none" stroke="midnightblue" d="M378.4,-112.08C372.26,-104.38 363.23,-93.03 355.76,-83.65"/>
<polygon fill="midnightblue" stroke="midnightblue" points="358.44,-81.39 349.47,-75.75 352.96,-85.75 358.44,-81.39"/>
</g>
<!-- Node3 -->
<g id="node3" class="node">
<title>Node3</title>
<g id="a_node3"><a xlink:href="_display_client_8h.html" target="_top" xlink:title=" ">
<polygon fill="none" stroke="black" points="388,-56.5 388,-75.5 471,-75.5 471,-56.5 388,-56.5"/>
<text text-anchor="middle" x="429.5" y="-63.5" font-family="Helvetica,sans-Serif" font-size="10.00">DisplayClient.h</text>
</a>
</g>
</g>
<!-- Node1&#45;&gt;Node3 -->
<g id="edge2" class="edge">
<title>Node1&#45;&gt;Node3</title>
<path fill="none" stroke="midnightblue" d="M392.77,-112.08C399.04,-104.38 408.29,-93.03 415.93,-83.65"/>
<polygon fill="midnightblue" stroke="midnightblue" points="418.77,-85.71 422.37,-75.75 413.34,-81.29 418.77,-85.71"/>
</g>
<!-- Node4 -->
<g id="node4" class="node">
<title>Node4</title>
<g id="a_node4"><a xlink:title=" ">
<polygon fill="none" stroke="#bfbfbf" points="0,-0.5 0,-19.5 49,-19.5 49,-0.5 0,-0.5"/>
<text text-anchor="middle" x="24.5" y="-7.5" font-family="Helvetica,sans-Serif" font-size="10.00">string.h</text>
</a>
</g>
</g>
<!-- Node3&#45;&gt;Node4 -->
<g id="edge3" class="edge">
<title>Node3&#45;&gt;Node4</title>
<path fill="none" stroke="midnightblue" d="M387.79,-57.42C384.65,-56.92 381.53,-56.44 378.5,-56 240.03,-36.01 200.91,-45.91 59.22,-19.86"/>
<polygon fill="midnightblue" stroke="midnightblue" points="59.76,-16.4 49.29,-18.01 58.47,-23.29 59.76,-16.4"/>
</g>
<!-- Node5 -->
<g id="node5" class="node">
<title>Node5</title>
<g id="a_node5"><a xlink:title=" ">
<polygon fill="none" stroke="#bfbfbf" points="67.5,-0.5 67.5,-19.5 113.5,-19.5 113.5,-0.5 67.5,-0.5"/>
<text text-anchor="middle" x="90.5" y="-7.5" font-family="Helvetica,sans-Serif" font-size="10.00">stdio.h</text>
</a>
</g>
</g>
<!-- Node3&#45;&gt;Node5 -->
<g id="edge4" class="edge">
<title>Node3&#45;&gt;Node5</title>
<path fill="none" stroke="midnightblue" d="M387.77,-57.51C384.64,-56.99 381.52,-56.48 378.5,-56 268.23,-38.52 236.72,-43.31 123.9,-20.06"/>
<polygon fill="midnightblue" stroke="midnightblue" points="124.33,-16.57 113.83,-17.95 122.9,-23.42 124.33,-16.57"/>
</g>
<!-- Node6 -->
<g id="node6" class="node">
<title>Node6</title>
<g id="a_node6"><a xlink:title=" ">
<polygon fill="none" stroke="#bfbfbf" points="131.5,-0.5 131.5,-19.5 179.5,-19.5 179.5,-0.5 131.5,-0.5"/>
<text text-anchor="middle" x="155.5" y="-7.5" font-family="Helvetica,sans-Serif" font-size="10.00">stdlib.h</text>
</a>
</g>
</g>
<!-- Node3&#45;&gt;Node6 -->
<g id="edge5" class="edge">
<title>Node3&#45;&gt;Node6</title>
<path fill="none" stroke="midnightblue" d="M387.77,-57.63C333.13,-47.92 239.28,-30.98 189.51,-20.05"/>
<polygon fill="midnightblue" stroke="midnightblue" points="190.12,-16.6 179.59,-17.81 188.58,-23.43 190.12,-16.6"/>
</g>
<!-- Node7 -->
<g id="node7" class="node">
<title>Node7</title>
<g id="a_node7"><a xlink:title=" ">
<polygon fill="none" stroke="#bfbfbf" points="197.5,-0.5 197.5,-19.5 249.5,-19.5 249.5,-0.5 197.5,-0.5"/>
<text text-anchor="middle" x="223.5" y="-7.5" font-family="Helvetica,sans-Serif" font-size="10.00">unistd.h</text>
</a>
</g>
</g>
<!-- Node3&#45;&gt;Node7 -->
<g id="edge6" class="edge">
<title>Node3&#45;&gt;Node7</title>
<path fill="none" stroke="midnightblue" d="M396.86,-56.44C359.47,-46.64 298.39,-30.63 259.61,-20.47"/>
<polygon fill="midnightblue" stroke="midnightblue" points="260.34,-17.04 249.78,-17.89 258.56,-23.81 260.34,-17.04"/>
</g>
<!-- Node8 -->
<g id="node8" class="node">
<title>Node8</title>
<g id="a_node8"><a xlink:title=" ">
<polygon fill="none" stroke="#bfbfbf" points="268,-0.5 268,-19.5 311,-19.5 311,-0.5 268,-0.5"/>
<text text-anchor="middle" x="289.5" y="-7.5" font-family="Helvetica,sans-Serif" font-size="10.00">fcntl.h</text>
</a>
</g>
</g>
<!-- Node3&#45;&gt;Node8 -->
<g id="edge7" class="edge">
<title>Node3&#45;&gt;Node8</title>
<path fill="none" stroke="midnightblue" d="M407.32,-56.44C383.93,-47.42 346.92,-33.15 320.62,-23"/>
<polygon fill="midnightblue" stroke="midnightblue" points="321.71,-19.67 311.12,-19.34 319.19,-26.2 321.71,-19.67"/>
</g>
<!-- Node9 -->
<g id="node9" class="node">
<title>Node9</title>
<g id="a_node9"><a xlink:title=" ">
<polygon fill="none" stroke="#bfbfbf" points="329.5,-0.5 329.5,-19.5 377.5,-19.5 377.5,-0.5 329.5,-0.5"/>
<text text-anchor="middle" x="353.5" y="-7.5" font-family="Helvetica,sans-Serif" font-size="10.00">errno.h</text>
</a>
</g>
</g>
<!-- Node3&#45;&gt;Node9 -->
<g id="edge8" class="edge">
<title>Node3&#45;&gt;Node9</title>
<path fill="none" stroke="midnightblue" d="M417.29,-56.32C405.72,-48.11 388.12,-35.6 374.34,-25.81"/>
<polygon fill="midnightblue" stroke="midnightblue" points="376.11,-22.77 365.93,-19.83 372.06,-28.48 376.11,-22.77"/>
</g>
<!-- Node10 -->
<g id="node10" class="node">
<title>Node10</title>
<g id="a_node10"><a xlink:title=" ">
<polygon fill="none" stroke="#bfbfbf" points="396,-0.5 396,-19.5 463,-19.5 463,-0.5 396,-0.5"/>
<text text-anchor="middle" x="429.5" y="-7.5" font-family="Helvetica,sans-Serif" font-size="10.00">sys/types.h</text>
</a>
</g>
</g>
<!-- Node3&#45;&gt;Node10 -->
<g id="edge9" class="edge">
<title>Node3&#45;&gt;Node10</title>
<path fill="none" stroke="midnightblue" d="M429.5,-56.08C429.5,-49.01 429.5,-38.86 429.5,-29.99"/>
<polygon fill="midnightblue" stroke="midnightblue" points="433,-29.75 429.5,-19.75 426,-29.75 433,-29.75"/>
</g>
<!-- Node11 -->
<g id="node11" class="node">
<title>Node11</title>
<g id="a_node11"><a xlink:title=" ">
<polygon fill="none" stroke="#bfbfbf" points="481.5,-0.5 481.5,-19.5 553.5,-19.5 553.5,-0.5 481.5,-0.5"/>
<text text-anchor="middle" x="517.5" y="-7.5" font-family="Helvetica,sans-Serif" font-size="10.00">sys/socket.h</text>
</a>
</g>
</g>
<!-- Node3&#45;&gt;Node11 -->
<g id="edge10" class="edge">
<title>Node3&#45;&gt;Node11</title>
<path fill="none" stroke="midnightblue" d="M443.64,-56.32C457.37,-47.9 478.44,-34.97 494.56,-25.07"/>
<polygon fill="midnightblue" stroke="midnightblue" points="496.7,-27.87 503.4,-19.65 493.04,-21.9 496.7,-27.87"/>
</g>
<!-- Node12 -->
<g id="node12" class="node">
<title>Node12</title>
<g id="a_node12"><a xlink:title=" ">
<polygon fill="none" stroke="#bfbfbf" points="571.5,-0.5 571.5,-19.5 635.5,-19.5 635.5,-0.5 571.5,-0.5"/>
<text text-anchor="middle" x="603.5" y="-7.5" font-family="Helvetica,sans-Serif" font-size="10.00">arpa/inet.h</text>
</a>
</g>
</g>
<!-- Node3&#45;&gt;Node12 -->
<g id="edge11" class="edge">
<title>Node3&#45;&gt;Node12</title>
<path fill="none" stroke="midnightblue" d="M457.07,-56.44C486.6,-47.28 533.62,-32.69 566.38,-22.52"/>
<polygon fill="midnightblue" stroke="midnightblue" points="567.54,-25.82 576.06,-19.52 565.47,-19.14 567.54,-25.82"/>
</g>
<!-- Node13 -->
<g id="node13" class="node">
<title>Node13</title>
<g id="a_node13"><a xlink:title=" ">
<polygon fill="none" stroke="#bfbfbf" points="654,-0.5 654,-19.5 719,-19.5 719,-0.5 654,-0.5"/>
<text text-anchor="middle" x="686.5" y="-7.5" font-family="Helvetica,sans-Serif" font-size="10.00">netinet/in.h</text>
</a>
</g>
</g>
<!-- Node3&#45;&gt;Node13 -->
<g id="edge12" class="edge">
<title>Node3&#45;&gt;Node13</title>
<path fill="none" stroke="midnightblue" d="M470.73,-56.43C511.99,-47.84 577.55,-34.16 644.12,-20.07"/>
<polygon fill="midnightblue" stroke="midnightblue" points="644.89,-23.49 653.94,-17.99 643.44,-16.64 644.89,-23.49"/>
</g>
<!-- Node14 -->
<g id="node14" class="node">
<title>Node14</title>
<g id="a_node14"><a xlink:title=" ">
<polygon fill="none" stroke="#bfbfbf" points="737,-0.5 737,-19.5 808,-19.5 808,-0.5 737,-0.5"/>
<text text-anchor="middle" x="772.5" y="-7.5" font-family="Helvetica,sans-Serif" font-size="10.00">netinet/tcp.h</text>
</a>
</g>
</g>
<!-- Node3&#45;&gt;Node14 -->
<g id="edge13" class="edge">
<title>Node3&#45;&gt;Node14</title>
<path fill="none" stroke="midnightblue" d="M471.21,-59.43C527.18,-51.79 629.9,-37.24 727.01,-20.19"/>
<polygon fill="midnightblue" stroke="midnightblue" points="727.75,-23.62 736.99,-18.43 726.53,-16.72 727.75,-23.62"/>
</g>
<!-- Node15 -->
<g id="node15" class="node">
<title>Node15</title>
<g id="a_node15"><a xlink:title=" ">
<polygon fill="none" stroke="#bfbfbf" points="826.5,-0.5 826.5,-19.5 876.5,-19.5 876.5,-0.5 826.5,-0.5"/>
<text text-anchor="middle" x="851.5" y="-7.5" font-family="Helvetica,sans-Serif" font-size="10.00">netdb.h</text>
</a>
</g>
</g>
<!-- Node3&#45;&gt;Node15 -->
<g id="edge14" class="edge">
<title>Node3&#45;&gt;Node15</title>
<path fill="none" stroke="midnightblue" d="M471.14,-62.14C540.69,-56.93 685,-44.32 816.12,-20.01"/>
<polygon fill="midnightblue" stroke="midnightblue" points="817.16,-23.38 826.34,-18.09 815.87,-16.5 817.16,-23.38"/>
</g>
<!-- Node16 -->
<g id="node16" class="node">
<title>Node16</title>
<g id="a_node16"><a xlink:title=" ">
<polygon fill="none" stroke="#bfbfbf" points="895,-0.5 895,-19.5 936,-19.5 936,-0.5 895,-0.5"/>
<text text-anchor="middle" x="915.5" y="-7.5" font-family="Helvetica,sans-Serif" font-size="10.00">string</text>
</a>
</g>
</g>
<!-- Node3&#45;&gt;Node16 -->
<g id="edge15" class="edge">
<title>Node3&#45;&gt;Node16</title>
<path fill="none" stroke="midnightblue" d="M471.08,-63.58C550.06,-60.31 727.22,-50.2 885.09,-19.67"/>
<polygon fill="midnightblue" stroke="midnightblue" points="885.84,-23.09 894.97,-17.73 884.49,-16.22 885.84,-23.09"/>
</g>
</g>
</svg>
