<?xml version="1.0" encoding="UTF-8" standalone="no"?>
<!DOCTYPE svg PUBLIC "-//W3C//DTD SVG 1.1//EN"
 "http://www.w3.org/Graphics/SVG/1.1/DTD/svg11.dtd">
<!-- Generated by graphviz version 2.48.0 (20210717.1556)
 -->
<!-- Title: src/Gpio.h Pages: 1 -->
<svg width="627pt" height="84pt"
 viewBox="0.00 0.00 627.00 84.00" xmlns="http://www.w3.org/2000/svg" xmlns:xlink="http://www.w3.org/1999/xlink">
<g id="graph0" class="graph" transform="scale(1 1) rotate(0) translate(4 80)">
<title>src/Gpio.h</title>
<!-- Node1 -->
<g id="node1" class="node">
<title>Node1</title>
<g id="a_node1"><a xlink:title=" ">
<polygon fill="#bfbfbf" stroke="black" points="292,-56.5 292,-75.5 354,-75.5 354,-56.5 292,-56.5"/>
<text text-anchor="middle" x="323" y="-63.5" font-family="Helvetica,sans-Serif" font-size="10.00">src/Gpio.h</text>
</a>
</g>
</g>
<!-- Node2 -->
<g id="node2" class="node">
<title>Node2</title>
<g id="a_node2"><a xlink:href="_air_flow_actuator_8cpp.html" target="_top" xlink:title=" ">
<polygon fill="none" stroke="black" points="0,-0.5 0,-19.5 122,-19.5 122,-0.5 0,-0.5"/>
<text text-anchor="middle" x="61" y="-7.5" font-family="Helvetica,sans-Serif" font-size="10.00">src/AirFlowActuator.cpp</text>
</a>
</g>
</g>
<!-- Node1&#45;&gt;Node2 -->
<g id="edge1" class="edge">
<title>Node1&#45;&gt;Node2</title>
<path fill="none" stroke="midnightblue" d="M281.98,-56.55C232.99,-46.45 151.52,-29.66 102.38,-19.53"/>
<polygon fill="midnightblue" stroke="midnightblue" points="281.42,-60 291.92,-58.59 282.83,-53.15 281.42,-60"/>
</g>
<!-- Node3 -->
<g id="node3" class="node">
<title>Node3</title>
<g id="a_node3"><a xlink:href="_dehumid_actuator_8cpp.html" target="_top" xlink:title=" ">
<polygon fill="none" stroke="black" points="140,-0.5 140,-19.5 268,-19.5 268,-0.5 140,-0.5"/>
<text text-anchor="middle" x="204" y="-7.5" font-family="Helvetica,sans-Serif" font-size="10.00">src/DehumidActuator.cpp</text>
</a>
</g>
</g>
<!-- Node1&#45;&gt;Node3 -->
<g id="edge2" class="edge">
<title>Node1&#45;&gt;Node3</title>
<path fill="none" stroke="midnightblue" d="M294.86,-52.23C272.6,-42.13 242.14,-28.31 222.77,-19.52"/>
<polygon fill="midnightblue" stroke="midnightblue" points="293.59,-55.5 304.14,-56.44 296.48,-49.12 293.59,-55.5"/>
</g>
<!-- Node4 -->
<g id="node4" class="node">
<title>Node4</title>
<g id="a_node4"><a xlink:href="_gpio_8cpp.html" target="_top" xlink:title=" ">
<polygon fill="none" stroke="black" points="286.5,-0.5 286.5,-19.5 359.5,-19.5 359.5,-0.5 286.5,-0.5"/>
<text text-anchor="middle" x="323" y="-7.5" font-family="Helvetica,sans-Serif" font-size="10.00">src/Gpio.cpp</text>
</a>
</g>
</g>
<!-- Node1&#45;&gt;Node4 -->
<g id="edge3" class="edge">
<title>Node1&#45;&gt;Node4</title>
<path fill="none" stroke="midnightblue" d="M323,-45.8C323,-36.91 323,-26.78 323,-19.75"/>
<polygon fill="midnightblue" stroke="midnightblue" points="319.5,-46.08 323,-56.08 326.5,-46.08 319.5,-46.08"/>
</g>
<!-- Node5 -->
<g id="node5" class="node">
<title>Node5</title>
<g id="a_node5"><a xlink:href="_heat_actuator_8cpp.html" target="_top" xlink:title=" ">
<polygon fill="none" stroke="black" points="377.5,-0.5 377.5,-19.5 486.5,-19.5 486.5,-0.5 377.5,-0.5"/>
<text text-anchor="middle" x="432" y="-7.5" font-family="Helvetica,sans-Serif" font-size="10.00">src/HeatActuator.cpp</text>
</a>
</g>
</g>
<!-- Node1&#45;&gt;Node5 -->
<g id="edge4" class="edge">
<title>Node1&#45;&gt;Node5</title>
<path fill="none" stroke="midnightblue" d="M349.52,-51.86C369.73,-41.85 396.99,-28.35 414.53,-19.65"/>
<polygon fill="midnightblue" stroke="midnightblue" points="347.92,-48.75 340.51,-56.32 351.03,-55.02 347.92,-48.75"/>
</g>
<!-- Node6 -->
<g id="node6" class="node">
<title>Node6</title>
<g id="a_node6"><a xlink:href="_roller_actuator_8cpp.html" target="_top" xlink:title=" ">
<polygon fill="none" stroke="black" points="505,-0.5 505,-19.5 619,-19.5 619,-0.5 505,-0.5"/>
<text text-anchor="middle" x="562" y="-7.5" font-family="Helvetica,sans-Serif" font-size="10.00">src/RollerActuator.cpp</text>
</a>
</g>
</g>
<!-- Node1&#45;&gt;Node6 -->
<g id="edge5" class="edge">
<title>Node1&#45;&gt;Node6</title>
<path fill="none" stroke="midnightblue" d="M364.24,-55.68C409.17,-45.53 480.45,-29.43 524.04,-19.58"/>
<polygon fill="midnightblue" stroke="midnightblue" points="363.23,-52.32 354.25,-57.94 364.77,-59.15 363.23,-52.32"/>
</g>
</g>
</svg>
