<?xml version="1.0" encoding="UTF-8" standalone="no"?>
<!DOCTYPE svg PUBLIC "-//W3C//DTD SVG 1.1//EN"
 "http://www.w3.org/Graphics/SVG/1.1/DTD/svg11.dtd">
<!-- Generated by graphviz version 2.48.0 (20210717.1556)
 -->
<!-- Title: src/Gpio.cpp Pages: 1 -->
<svg width="216pt" height="140pt"
 viewBox="0.00 0.00 216.00 140.00" xmlns="http://www.w3.org/2000/svg" xmlns:xlink="http://www.w3.org/1999/xlink">
<g id="graph0" class="graph" transform="scale(1 1) rotate(0) translate(4 136)">
<title>src/Gpio.cpp</title>
<!-- Node1 -->
<g id="node1" class="node">
<title>Node1</title>
<g id="a_node1"><a xlink:title=" ">
<polygon fill="#bfbfbf" stroke="black" points="67,-112.5 67,-131.5 140,-131.5 140,-112.5 67,-112.5"/>
<text text-anchor="middle" x="103.5" y="-119.5" font-family="Helvetica,sans-Serif" font-size="10.00">src/Gpio.cpp</text>
</a>
</g>
</g>
<!-- Node2 -->
<g id="node2" class="node">
<title>Node2</title>
<g id="a_node2"><a xlink:title=" ">
<polygon fill="none" stroke="#bfbfbf" points="0,-56.5 0,-75.5 55,-75.5 55,-56.5 0,-56.5"/>
<text text-anchor="middle" x="27.5" y="-63.5" font-family="Helvetica,sans-Serif" font-size="10.00">iostream</text>
</a>
</g>
</g>
<!-- Node1&#45;&gt;Node2 -->
<g id="edge1" class="edge">
<title>Node1&#45;&gt;Node2</title>
<path fill="none" stroke="midnightblue" d="M91.29,-112.32C79.72,-104.11 62.12,-91.6 48.34,-81.81"/>
<polygon fill="midnightblue" stroke="midnightblue" points="50.11,-78.77 39.93,-75.83 46.06,-84.48 50.11,-78.77"/>
</g>
<!-- Node3 -->
<g id="node3" class="node">
<title>Node3</title>
<g id="a_node3"><a xlink:title=" ">
<polygon fill="none" stroke="#bfbfbf" points="73.5,-56.5 73.5,-75.5 133.5,-75.5 133.5,-56.5 73.5,-56.5"/>
<text text-anchor="middle" x="103.5" y="-63.5" font-family="Helvetica,sans-Serif" font-size="10.00">wiringPi.h</text>
</a>
</g>
</g>
<!-- Node1&#45;&gt;Node3 -->
<g id="edge2" class="edge">
<title>Node1&#45;&gt;Node3</title>
<path fill="none" stroke="midnightblue" d="M103.5,-112.08C103.5,-105.01 103.5,-94.86 103.5,-85.99"/>
<polygon fill="midnightblue" stroke="midnightblue" points="107,-85.75 103.5,-75.75 100,-85.75 107,-85.75"/>
</g>
<!-- Node4 -->
<g id="node4" class="node">
<title>Node4</title>
<g id="a_node4"><a xlink:href="_gpio_8h.html" target="_top" xlink:title=" ">
<polygon fill="none" stroke="black" points="151.5,-56.5 151.5,-75.5 197.5,-75.5 197.5,-56.5 151.5,-56.5"/>
<text text-anchor="middle" x="174.5" y="-63.5" font-family="Helvetica,sans-Serif" font-size="10.00">Gpio.h</text>
</a>
</g>
</g>
<!-- Node1&#45;&gt;Node4 -->
<g id="edge3" class="edge">
<title>Node1&#45;&gt;Node4</title>
<path fill="none" stroke="midnightblue" d="M114.91,-112.32C125.61,-104.18 141.84,-91.84 154.66,-82.09"/>
<polygon fill="midnightblue" stroke="midnightblue" points="157.04,-84.67 162.89,-75.83 152.81,-79.1 157.04,-84.67"/>
</g>
<!-- Node5 -->
<g id="node5" class="node">
<title>Node5</title>
<g id="a_node5"><a xlink:href="_singleton_8h.html" target="_top" xlink:title=" ">
<polygon fill="none" stroke="black" points="141,-0.5 141,-19.5 208,-19.5 208,-0.5 141,-0.5"/>
<text text-anchor="middle" x="174.5" y="-7.5" font-family="Helvetica,sans-Serif" font-size="10.00">Singleton.h</text>
</a>
</g>
</g>
<!-- Node4&#45;&gt;Node5 -->
<g id="edge4" class="edge">
<title>Node4&#45;&gt;Node5</title>
<path fill="none" stroke="midnightblue" d="M174.5,-56.08C174.5,-49.01 174.5,-38.86 174.5,-29.99"/>
<polygon fill="midnightblue" stroke="midnightblue" points="178,-29.75 174.5,-19.75 171,-29.75 178,-29.75"/>
</g>
</g>
</svg>
