<?xml version="1.0" encoding="UTF-8" standalone="no"?>
<!DOCTYPE svg PUBLIC "-//W3C//DTD SVG 1.1//EN"
 "http://www.w3.org/Graphics/SVG/1.1/DTD/svg11.dtd">
<!-- Generated by graphviz version 2.50.0 (20211204.2007)
 -->
<!-- Title: src/Incubator.h Pages: 1 -->
<!--zoomable 140 -->
<svg id="main" version="1.1" xmlns="http://www.w3.org/2000/svg" xmlns:xlink="http://www.w3.org/1999/xlink" xml:space="preserve" onload="init(evt)">
<style type="text/css"><![CDATA[
.edge:hover path { stroke: red; }
.edge:hover polygon { stroke: red; fill: red; }
]]></style>
<script type="text/javascript"><![CDATA[
var edges = document.getElementsByTagName('g');
if (edges && edges.length) {
  for (var i=0;i<edges.length;i++) {
    if (edges[i].id.substr(0,4)=='edge') {
      edges[i].setAttribute('class','edge');
    }
  }
}
]]></script>
        <defs>
                <circle id="rim" cx="0" cy="0" r="7"/>
                <circle id="rim2" cx="0" cy="0" r="3.5"/>
                <g id="zoomPlus">
                        <use xlink:href="#rim" fill="#404040">
                                <set attributeName="fill" to="#808080" begin="zoomplus.mouseover" end="zoomplus.mouseout"/>
                        </use>
                        <path d="M-4,0h8M0,-4v8" fill="none" stroke="white" stroke-width="1.5" pointer-events="none"/>
                </g>
                <g id="zoomMin">
                        <use xlink:href="#rim" fill="#404040">
                                <set attributeName="fill" to="#808080" begin="zoomminus.mouseover" end="zoomminus.mouseout"/>
                        </use>
                        <path d="M-4,0h8" fill="none" stroke="white" stroke-width="1.5" pointer-events="none"/>
                </g>
                <g id="dirArrow">
                        <path fill="none" stroke="white" stroke-width="1.5" d="M0,-3.0v7 M-2.5,-0.5L0,-3.0L2.5,-0.5"/>
                </g>
               <g id="resetDef">
                       <use xlink:href="#rim2" fill="#404040">
                               <set attributeName="fill" to="#808080" begin="reset.mouseover" end="reset.mouseout"/>
                       </use>
               </g>
        </defs>

<script type="text/javascript">
var viewWidth = 1599;
var viewHeight = 140;
var sectionId = 'dynsection-0';
</script>
<script xlink:href="svgpan.js"/>
<svg id="graph" class="graph">
<g id="viewport">
<title>src/Incubator.h</title>
<!-- Node1 -->
<g id="node1" class="node">
<title>Node1</title>
<g id="a_node1"><a xlink:title=" ">
<polygon fill="#bfbfbf" stroke="black" points="542.5,-112.5 542.5,-131.5 623.5,-131.5 623.5,-112.5 542.5,-112.5"/>
<text text-anchor="middle" x="583" y="-119.5" font-family="Helvetica,sans-Serif" font-size="10.00">src/Incubator.h</text>
</a>
</g>
</g>
<!-- Node2 -->
<g id="node2" class="node">
<title>Node2</title>
<g id="a_node2"><a xlink:title=" ">
<polygon fill="none" stroke="#bfbfbf" points="258,-0.5 258,-19.5 302,-19.5 302,-0.5 258,-0.5"/>
<text text-anchor="middle" x="280" y="-7.5" font-family="Helvetica,sans-Serif" font-size="10.00">vector</text>
</a>
</g>
</g>
<!-- Node1&#45;&gt;Node2 -->
<g id="edge1" class="edge">
<title>Node1&#45;&gt;Node2</title>
<path fill="none" stroke="midnightblue" d="M554.17,-112.47C525.53,-103.84 480.45,-89.83 442,-76 395.1,-59.13 341.59,-37.11 309.32,-23.51"/>
<polygon fill="midnightblue" stroke="midnightblue" points="310.6,-20.25 300.02,-19.58 307.87,-26.7 310.6,-20.25"/>
</g>
<!-- Node3 -->
<g id="node3" class="node">
<title>Node3</title>
<g id="a_node3"><a xlink:href="_signal_8h.html" target="_top" xlink:title=" ">
<polygon fill="none" stroke="black" points="191,-56.5 191,-75.5 243,-75.5 243,-56.5 191,-56.5"/>
<text text-anchor="middle" x="217" y="-63.5" font-family="Helvetica,sans-Serif" font-size="10.00">Signal.h</text>
</a>
</g>
</g>
<!-- Node1&#45;&gt;Node3 -->
<g id="edge2" class="edge">
<title>Node1&#45;&gt;Node3</title>
<path fill="none" stroke="midnightblue" d="M542.43,-115.01C470.56,-104.41 321.97,-82.49 253.28,-72.35"/>
<polygon fill="midnightblue" stroke="midnightblue" points="253.76,-68.89 243.35,-70.89 252.74,-75.81 253.76,-68.89"/>
</g>
<!-- Node10 -->
<g id="node10" class="node">
<title>Node10</title>
<g id="a_node10"><a xlink:href="_env_8h.html" target="_top" xlink:title=" ">
<polygon fill="none" stroke="black" points="451.5,-56.5 451.5,-75.5 492.5,-75.5 492.5,-56.5 451.5,-56.5"/>
<text text-anchor="middle" x="472" y="-63.5" font-family="Helvetica,sans-Serif" font-size="10.00">Env.h</text>
</a>
</g>
</g>
<!-- Node1&#45;&gt;Node10 -->
<g id="edge10" class="edge">
<title>Node1&#45;&gt;Node10</title>
<path fill="none" stroke="midnightblue" d="M565.17,-112.32C547.28,-103.62 519.52,-90.12 498.95,-80.11"/>
<polygon fill="midnightblue" stroke="midnightblue" points="500.31,-76.88 489.79,-75.65 497.25,-83.18 500.31,-76.88"/>
</g>
<!-- Node13 -->
<g id="node13" class="node">
<title>Node13</title>
<g id="a_node13"><a xlink:href="_session_time_8h.html" target="_top" xlink:title=" ">
<polygon fill="none" stroke="black" points="542,-56.5 542,-75.5 624,-75.5 624,-56.5 542,-56.5"/>
<text text-anchor="middle" x="583" y="-63.5" font-family="Helvetica,sans-Serif" font-size="10.00">SessionTime.h</text>
</a>
</g>
</g>
<!-- Node1&#45;&gt;Node13 -->
<g id="edge15" class="edge">
<title>Node1&#45;&gt;Node13</title>
<path fill="none" stroke="midnightblue" d="M583,-112.08C583,-105.01 583,-94.86 583,-85.99"/>
<polygon fill="midnightblue" stroke="midnightblue" points="586.5,-85.75 583,-75.75 579.5,-85.75 586.5,-85.75"/>
</g>
<!-- Node15 -->
<g id="node15" class="node">
<title>Node15</title>
<g id="a_node15"><a xlink:href="_sensor_8h.html" target="_top" xlink:title=" ">
<polygon fill="none" stroke="black" points="992.5,-56.5 992.5,-75.5 1047.5,-75.5 1047.5,-56.5 992.5,-56.5"/>
<text text-anchor="middle" x="1020" y="-63.5" font-family="Helvetica,sans-Serif" font-size="10.00">Sensor.h</text>
</a>
</g>
</g>
<!-- Node1&#45;&gt;Node15 -->
<g id="edge20" class="edge">
<title>Node1&#45;&gt;Node15</title>
<path fill="none" stroke="midnightblue" d="M623.55,-118.14C694.31,-112.79 845.01,-99.76 981.95,-75.97"/>
<polygon fill="midnightblue" stroke="midnightblue" points="982.96,-79.34 992.2,-74.16 981.74,-72.45 982.96,-79.34"/>
</g>
<!-- Node16 -->
<g id="node16" class="node">
<title>Node16</title>
<g id="a_node16"><a xlink:href="_actuator_8h.html" target="_top" xlink:title=" ">
<polygon fill="none" stroke="black" points="1299.5,-56.5 1299.5,-75.5 1360.5,-75.5 1360.5,-56.5 1299.5,-56.5"/>
<text text-anchor="middle" x="1330" y="-63.5" font-family="Helvetica,sans-Serif" font-size="10.00">Actuator.h</text>
</a>
</g>
</g>
<!-- Node1&#45;&gt;Node16 -->
<g id="edge21" class="edge">
<title>Node1&#45;&gt;Node16</title>
<path fill="none" stroke="midnightblue" d="M623.69,-118.06C753.69,-108.66 1158.11,-79.43 1288.81,-69.98"/>
<polygon fill="midnightblue" stroke="midnightblue" points="1289.45,-73.44 1299.17,-69.23 1288.94,-66.46 1289.45,-73.44"/>
</g>
<!-- Node18 -->
<g id="node18" class="node">
<title>Node18</title>
<g id="a_node18"><a xlink:href="_display_client_8h.html" target="_top" xlink:title=" ">
<polygon fill="none" stroke="black" points="891.5,-56.5 891.5,-75.5 974.5,-75.5 974.5,-56.5 891.5,-56.5"/>
<text text-anchor="middle" x="933" y="-63.5" font-family="Helvetica,sans-Serif" font-size="10.00">DisplayClient.h</text>
</a>
</g>
</g>
<!-- Node1&#45;&gt;Node18 -->
<g id="edge23" class="edge">
<title>Node1&#45;&gt;Node18</title>
<path fill="none" stroke="midnightblue" d="M623.83,-114.7C687.77,-104.84 811.42,-85.76 881.42,-74.96"/>
<polygon fill="midnightblue" stroke="midnightblue" points="881.99,-78.41 891.34,-73.43 880.92,-71.49 881.99,-78.41"/>
</g>
<!-- Node3&#45;&gt;Node3 -->
<g id="edge7" class="edge">
<title>Node3&#45;&gt;Node3</title>
<path fill="none" stroke="midnightblue" d="M236,-75.57C248.67,-78.27 261,-75.08 261,-66 261,-59.4 254.49,-55.92 246.07,-55.54"/>
<polygon fill="midnightblue" stroke="midnightblue" points="245.65,-52.06 236,-56.43 246.26,-59.03 245.65,-52.06"/>
</g>
<!-- Node4 -->
<g id="node4" class="node">
<title>Node4</title>
<g id="a_node4"><a xlink:title=" ">
<polygon fill="none" stroke="#bfbfbf" points="194,-0.5 194,-19.5 240,-19.5 240,-0.5 194,-0.5"/>
<text text-anchor="middle" x="217" y="-7.5" font-family="Helvetica,sans-Serif" font-size="10.00">atomic</text>
</a>
</g>
</g>
<!-- Node3&#45;&gt;Node4 -->
<g id="edge3" class="edge">
<title>Node3&#45;&gt;Node4</title>
<path fill="none" stroke="midnightblue" d="M217,-56.08C217,-49.01 217,-38.86 217,-29.99"/>
<polygon fill="midnightblue" stroke="midnightblue" points="220.5,-29.75 217,-19.75 213.5,-29.75 220.5,-29.75"/>
</g>
<!-- Node5 -->
<g id="node5" class="node">
<title>Node5</title>
<g id="a_node5"><a xlink:title=" ">
<polygon fill="none" stroke="#bfbfbf" points="0,-0.5 0,-19.5 46,-19.5 46,-0.5 0,-0.5"/>
<text text-anchor="middle" x="23" y="-7.5" font-family="Helvetica,sans-Serif" font-size="10.00">chrono</text>
</a>
</g>
</g>
<!-- Node3&#45;&gt;Node5 -->
<g id="edge4" class="edge">
<title>Node3&#45;&gt;Node5</title>
<path fill="none" stroke="midnightblue" d="M190.9,-57.78C160.69,-49.41 109.19,-35.13 55.72,-20.19"/>
<polygon fill="midnightblue" stroke="midnightblue" points="56.64,-16.82 46.07,-17.5 54.76,-23.56 56.64,-16.82"/>
</g>
<!-- Node6 -->
<g id="node6" class="node">
<title>Node6</title>
<g id="a_node6"><a xlink:title=" ">
<polygon fill="none" stroke="#bfbfbf" points="64,-0.5 64,-19.5 108,-19.5 108,-0.5 64,-0.5"/>
<text text-anchor="middle" x="86" y="-7.5" font-family="Helvetica,sans-Serif" font-size="10.00">thread</text>
</a>
</g>
</g>
<!-- Node3&#45;&gt;Node6 -->
<g id="edge5" class="edge">
<title>Node3&#45;&gt;Node6</title>
<path fill="none" stroke="midnightblue" d="M196.24,-56.44C174.68,-47.56 140.74,-33.56 116.21,-23.45"/>
<polygon fill="midnightblue" stroke="midnightblue" points="117.24,-20.09 106.66,-19.52 114.57,-26.56 117.24,-20.09"/>
</g>
<!-- Node7 -->
<g id="node7" class="node">
<title>Node7</title>
<g id="a_node7"><a xlink:title=" ">
<polygon fill="none" stroke="#bfbfbf" points="126.5,-0.5 126.5,-19.5 175.5,-19.5 175.5,-0.5 126.5,-0.5"/>
<text text-anchor="middle" x="151" y="-7.5" font-family="Helvetica,sans-Serif" font-size="10.00">cassert</text>
</a>
</g>
</g>
<!-- Node3&#45;&gt;Node7 -->
<g id="edge6" class="edge">
<title>Node3&#45;&gt;Node7</title>
<path fill="none" stroke="midnightblue" d="M206.4,-56.32C196.54,-48.26 181.65,-36.08 169.78,-26.37"/>
<polygon fill="midnightblue" stroke="midnightblue" points="171.75,-23.46 161.8,-19.83 167.32,-28.88 171.75,-23.46"/>
</g>
<!-- Node8 -->
<g id="node8" class="node">
<title>Node8</title>
<g id="a_node8"><a xlink:title=" ">
<polygon fill="none" stroke="#bfbfbf" points="522.5,-0.5 522.5,-19.5 573.5,-19.5 573.5,-0.5 522.5,-0.5"/>
<text text-anchor="middle" x="548" y="-7.5" font-family="Helvetica,sans-Serif" font-size="10.00">unistd.h</text>
</a>
</g>
</g>
<!-- Node3&#45;&gt;Node8 -->
<g id="edge8" class="edge">
<title>Node3&#45;&gt;Node8</title>
<path fill="none" stroke="midnightblue" d="M243.29,-61.91C293.58,-55.8 407.05,-41.09 512.6,-19.89"/>
<polygon fill="midnightblue" stroke="midnightblue" points="513.35,-23.31 522.45,-17.89 511.96,-16.45 513.35,-23.31"/>
</g>
<!-- Node9 -->
<g id="node9" class="node">
<title>Node9</title>
<g id="a_node9"><a xlink:href="_singleton_8h.html" target="_top" xlink:title=" ">
<polygon fill="none" stroke="black" points="439.5,-0.5 439.5,-19.5 504.5,-19.5 504.5,-0.5 439.5,-0.5"/>
<text text-anchor="middle" x="472" y="-7.5" font-family="Helvetica,sans-Serif" font-size="10.00">Singleton.h</text>
</a>
</g>
</g>
<!-- Node3&#45;&gt;Node9 -->
<g id="edge9" class="edge">
<title>Node3&#45;&gt;Node9</title>
<path fill="none" stroke="midnightblue" d="M243.24,-59.48C281.72,-51.38 355.98,-35.74 429.54,-20.09"/>
<polygon fill="midnightblue" stroke="midnightblue" points="430.39,-23.49 439.44,-17.99 428.93,-16.64 430.39,-23.49"/>
</g>
<!-- Node10&#45;&gt;Node2 -->
<g id="edge13" class="edge">
<title>Node10&#45;&gt;Node2</title>
<path fill="none" stroke="midnightblue" d="M451.4,-59.31C422.43,-51.3 367.79,-36.13 311.74,-20.19"/>
<polygon fill="midnightblue" stroke="midnightblue" points="312.58,-16.79 302.01,-17.42 310.67,-23.52 312.58,-16.79"/>
</g>
<!-- Node10&#45;&gt;Node9 -->
<g id="edge14" class="edge">
<title>Node10&#45;&gt;Node9</title>
<path fill="none" stroke="midnightblue" d="M472,-56.08C472,-49.01 472,-38.86 472,-29.99"/>
<polygon fill="midnightblue" stroke="midnightblue" points="475.5,-29.75 472,-19.75 468.5,-29.75 475.5,-29.75"/>
</g>
<!-- Node11 -->
<g id="node11" class="node">
<title>Node11</title>
<g id="a_node11"><a xlink:title=" ">
<polygon fill="none" stroke="#bfbfbf" points="320.5,-0.5 320.5,-19.5 421.5,-19.5 421.5,-0.5 320.5,-0.5"/>
<text text-anchor="middle" x="371" y="-7.5" font-family="Helvetica,sans-Serif" font-size="10.00">jsoncpp/json/json.h</text>
</a>
</g>
</g>
<!-- Node10&#45;&gt;Node11 -->
<g id="edge11" class="edge">
<title>Node10&#45;&gt;Node11</title>
<path fill="none" stroke="midnightblue" d="M455.77,-56.32C439.65,-47.7 414.7,-34.36 396.04,-24.39"/>
<polygon fill="midnightblue" stroke="midnightblue" points="397.66,-21.28 387.19,-19.65 394.36,-27.46 397.66,-21.28"/>
</g>
<!-- Node12 -->
<g id="node12" class="node">
<title>Node12</title>
<g id="a_node12"><a xlink:title=" ">
<polygon fill="none" stroke="#bfbfbf" points="654.5,-0.5 654.5,-19.5 695.5,-19.5 695.5,-0.5 654.5,-0.5"/>
<text text-anchor="middle" x="675" y="-7.5" font-family="Helvetica,sans-Serif" font-size="10.00">string</text>
</a>
</g>
</g>
<!-- Node10&#45;&gt;Node12 -->
<g id="edge12" class="edge">
<title>Node10&#45;&gt;Node12</title>
<path fill="none" stroke="midnightblue" d="M492.57,-59.91C523.4,-52.23 583.63,-37 644.59,-20.03"/>
<polygon fill="midnightblue" stroke="midnightblue" points="645.69,-23.36 654.37,-17.3 643.8,-16.62 645.69,-23.36"/>
</g>
<!-- Node13&#45;&gt;Node8 -->
<g id="edge16" class="edge">
<title>Node13&#45;&gt;Node8</title>
<path fill="none" stroke="midnightblue" d="M577.22,-56.08C572.33,-48.53 565.17,-37.49 559.17,-28.23"/>
<polygon fill="midnightblue" stroke="midnightblue" points="562.05,-26.24 553.67,-19.75 556.17,-30.05 562.05,-26.24"/>
</g>
<!-- Node13&#45;&gt;Node9 -->
<g id="edge19" class="edge">
<title>Node13&#45;&gt;Node9</title>
<path fill="none" stroke="midnightblue" d="M565.17,-56.32C547.28,-47.62 519.52,-34.12 498.95,-24.11"/>
<polygon fill="midnightblue" stroke="midnightblue" points="500.31,-20.88 489.79,-19.65 497.25,-27.18 500.31,-20.88"/>
</g>
<!-- Node13&#45;&gt;Node12 -->
<g id="edge18" class="edge">
<title>Node13&#45;&gt;Node12</title>
<path fill="none" stroke="midnightblue" d="M597.78,-56.32C612.27,-47.82 634.57,-34.73 651.49,-24.8"/>
<polygon fill="midnightblue" stroke="midnightblue" points="653.4,-27.74 660.26,-19.65 649.86,-21.7 653.4,-27.74"/>
</g>
<!-- Node14 -->
<g id="node14" class="node">
<title>Node14</title>
<g id="a_node14"><a xlink:title=" ">
<polygon fill="none" stroke="#bfbfbf" points="592,-0.5 592,-19.5 636,-19.5 636,-0.5 592,-0.5"/>
<text text-anchor="middle" x="614" y="-7.5" font-family="Helvetica,sans-Serif" font-size="10.00">time.h</text>
</a>
</g>
</g>
<!-- Node13&#45;&gt;Node14 -->
<g id="edge17" class="edge">
<title>Node13&#45;&gt;Node14</title>
<path fill="none" stroke="midnightblue" d="M588.12,-56.08C592.41,-48.61 598.66,-37.72 603.94,-28.52"/>
<polygon fill="midnightblue" stroke="midnightblue" points="607.03,-30.17 608.98,-19.75 600.96,-26.68 607.03,-30.17"/>
</g>
<!-- Node17 -->
<g id="node17" class="node">
<title>Node17</title>
<g id="a_node17"><a xlink:title=" ">
<polygon fill="none" stroke="#bfbfbf" points="1537,-0.5 1537,-19.5 1591,-19.5 1591,-0.5 1537,-0.5"/>
<text text-anchor="middle" x="1564" y="-7.5" font-family="Helvetica,sans-Serif" font-size="10.00">iostream</text>
</a>
</g>
</g>
<!-- Node16&#45;&gt;Node17 -->
<g id="edge22" class="edge">
<title>Node16&#45;&gt;Node17</title>
<path fill="none" stroke="midnightblue" d="M1360.57,-58.27C1397.61,-50.06 1462.15,-35.61 1526.92,-20.22"/>
<polygon fill="midnightblue" stroke="midnightblue" points="1527.97,-23.57 1536.89,-17.84 1526.35,-16.76 1527.97,-23.57"/>
</g>
<!-- Node18&#45;&gt;Node8 -->
<g id="edge27" class="edge">
<title>Node18&#45;&gt;Node8</title>
<path fill="none" stroke="midnightblue" d="M891.25,-61.32C827.16,-55.3 700.57,-41.96 583.39,-19.84"/>
<polygon fill="midnightblue" stroke="midnightblue" points="584.01,-16.4 573.53,-17.95 582.7,-23.27 584.01,-16.4"/>
</g>
<!-- Node18&#45;&gt;Node12 -->
<g id="edge36" class="edge">
<title>Node18&#45;&gt;Node12</title>
<path fill="none" stroke="midnightblue" d="M891.33,-58.19C847.28,-50.69 775.62,-37.62 705.41,-20.16"/>
<polygon fill="midnightblue" stroke="midnightblue" points="706.07,-16.71 695.52,-17.67 704.36,-23.5 706.07,-16.71"/>
</g>
<!-- Node19 -->
<g id="node19" class="node">
<title>Node19</title>
<g id="a_node19"><a xlink:title=" ">
<polygon fill="none" stroke="#bfbfbf" points="713.5,-0.5 713.5,-19.5 762.5,-19.5 762.5,-0.5 713.5,-0.5"/>
<text text-anchor="middle" x="738" y="-7.5" font-family="Helvetica,sans-Serif" font-size="10.00">string.h</text>
</a>
</g>
</g>
<!-- Node18&#45;&gt;Node19 -->
<g id="edge24" class="edge">
<title>Node18&#45;&gt;Node19</title>
<path fill="none" stroke="midnightblue" d="M902.1,-56.44C866.76,-46.66 809.06,-30.68 772.34,-20.51"/>
<polygon fill="midnightblue" stroke="midnightblue" points="773.15,-17.1 762.58,-17.81 771.28,-23.85 773.15,-17.1"/>
</g>
<!-- Node20 -->
<g id="node20" class="node">
<title>Node20</title>
<g id="a_node20"><a xlink:title=" ">
<polygon fill="none" stroke="#bfbfbf" points="781,-0.5 781,-19.5 827,-19.5 827,-0.5 781,-0.5"/>
<text text-anchor="middle" x="804" y="-7.5" font-family="Helvetica,sans-Serif" font-size="10.00">stdio.h</text>
</a>
</g>
</g>
<!-- Node18&#45;&gt;Node20 -->
<g id="edge25" class="edge">
<title>Node18&#45;&gt;Node20</title>
<path fill="none" stroke="midnightblue" d="M912.56,-56.44C891.33,-47.56 857.9,-33.56 833.75,-23.45"/>
<polygon fill="midnightblue" stroke="midnightblue" points="834.92,-20.15 824.34,-19.52 832.22,-26.61 834.92,-20.15"/>
</g>
<!-- Node21 -->
<g id="node21" class="node">
<title>Node21</title>
<g id="a_node21"><a xlink:title=" ">
<polygon fill="none" stroke="#bfbfbf" points="845,-0.5 845,-19.5 893,-19.5 893,-0.5 845,-0.5"/>
<text text-anchor="middle" x="869" y="-7.5" font-family="Helvetica,sans-Serif" font-size="10.00">stdlib.h</text>
</a>
</g>
</g>
<!-- Node18&#45;&gt;Node21 -->
<g id="edge26" class="edge">
<title>Node18&#45;&gt;Node21</title>
<path fill="none" stroke="midnightblue" d="M922.72,-56.32C913.16,-48.26 898.72,-36.08 887.22,-26.37"/>
<polygon fill="midnightblue" stroke="midnightblue" points="889.37,-23.61 879.47,-19.83 884.86,-28.96 889.37,-23.61"/>
</g>
<!-- Node22 -->
<g id="node22" class="node">
<title>Node22</title>
<g id="a_node22"><a xlink:title=" ">
<polygon fill="none" stroke="#bfbfbf" points="911,-0.5 911,-19.5 955,-19.5 955,-0.5 911,-0.5"/>
<text text-anchor="middle" x="933" y="-7.5" font-family="Helvetica,sans-Serif" font-size="10.00">fcntl.h</text>
</a>
</g>
</g>
<!-- Node18&#45;&gt;Node22 -->
<g id="edge28" class="edge">
<title>Node18&#45;&gt;Node22</title>
<path fill="none" stroke="midnightblue" d="M933,-56.08C933,-49.01 933,-38.86 933,-29.99"/>
<polygon fill="midnightblue" stroke="midnightblue" points="936.5,-29.75 933,-19.75 929.5,-29.75 936.5,-29.75"/>
</g>
<!-- Node23 -->
<g id="node23" class="node">
<title>Node23</title>
<g id="a_node23"><a xlink:title=" ">
<polygon fill="none" stroke="#bfbfbf" points="973.5,-0.5 973.5,-19.5 1020.5,-19.5 1020.5,-0.5 973.5,-0.5"/>
<text text-anchor="middle" x="997" y="-7.5" font-family="Helvetica,sans-Serif" font-size="10.00">errno.h</text>
</a>
</g>
</g>
<!-- Node18&#45;&gt;Node23 -->
<g id="edge29" class="edge">
<title>Node18&#45;&gt;Node23</title>
<path fill="none" stroke="midnightblue" d="M943.28,-56.32C952.84,-48.26 967.28,-36.08 978.78,-26.37"/>
<polygon fill="midnightblue" stroke="midnightblue" points="981.14,-28.96 986.53,-19.83 976.63,-23.61 981.14,-28.96"/>
</g>
<!-- Node24 -->
<g id="node24" class="node">
<title>Node24</title>
<g id="a_node24"><a xlink:title=" ">
<polygon fill="none" stroke="#bfbfbf" points="1039,-0.5 1039,-19.5 1107,-19.5 1107,-0.5 1039,-0.5"/>
<text text-anchor="middle" x="1073" y="-7.5" font-family="Helvetica,sans-Serif" font-size="10.00">sys/types.h</text>
</a>
</g>
</g>
<!-- Node18&#45;&gt;Node24 -->
<g id="edge30" class="edge">
<title>Node18&#45;&gt;Node24</title>
<path fill="none" stroke="midnightblue" d="M955.18,-56.44C978.43,-47.48 1015.15,-33.31 1041.42,-23.18"/>
<polygon fill="midnightblue" stroke="midnightblue" points="1042.85,-26.38 1050.92,-19.52 1040.33,-19.85 1042.85,-26.38"/>
</g>
<!-- Node25 -->
<g id="node25" class="node">
<title>Node25</title>
<g id="a_node25"><a xlink:title=" ">
<polygon fill="none" stroke="#bfbfbf" points="1125.5,-0.5 1125.5,-19.5 1198.5,-19.5 1198.5,-0.5 1125.5,-0.5"/>
<text text-anchor="middle" x="1162" y="-7.5" font-family="Helvetica,sans-Serif" font-size="10.00">sys/socket.h</text>
</a>
</g>
</g>
<!-- Node18&#45;&gt;Node25 -->
<g id="edge31" class="edge">
<title>Node18&#45;&gt;Node25</title>
<path fill="none" stroke="midnightblue" d="M969.29,-56.44C1008.98,-47.08 1072.71,-32.06 1115.91,-21.87"/>
<polygon fill="midnightblue" stroke="midnightblue" points="1116.95,-25.22 1125.88,-19.52 1115.35,-18.41 1116.95,-25.22"/>
</g>
<!-- Node26 -->
<g id="node26" class="node">
<title>Node26</title>
<g id="a_node26"><a xlink:title=" ">
<polygon fill="none" stroke="#bfbfbf" points="1217,-0.5 1217,-19.5 1279,-19.5 1279,-0.5 1217,-0.5"/>
<text text-anchor="middle" x="1248" y="-7.5" font-family="Helvetica,sans-Serif" font-size="10.00">arpa/inet.h</text>
</a>
</g>
</g>
<!-- Node18&#45;&gt;Node26 -->
<g id="edge32" class="edge">
<title>Node18&#45;&gt;Node26</title>
<path fill="none" stroke="midnightblue" d="M974.73,-57.43C977.53,-56.94 980.3,-56.46 983,-56 1079.72,-39.56 1106.87,-39.14 1206.7,-20.16"/>
<polygon fill="midnightblue" stroke="midnightblue" points="1207.43,-23.58 1216.6,-18.26 1206.12,-16.71 1207.43,-23.58"/>
</g>
<!-- Node27 -->
<g id="node27" class="node">
<title>Node27</title>
<g id="a_node27"><a xlink:title=" ">
<polygon fill="none" stroke="#bfbfbf" points="1297.5,-0.5 1297.5,-19.5 1362.5,-19.5 1362.5,-0.5 1297.5,-0.5"/>
<text text-anchor="middle" x="1330" y="-7.5" font-family="Helvetica,sans-Serif" font-size="10.00">netinet/in.h</text>
</a>
</g>
</g>
<!-- Node18&#45;&gt;Node27 -->
<g id="edge33" class="edge">
<title>Node18&#45;&gt;Node27</title>
<path fill="none" stroke="midnightblue" d="M974.71,-57.3C977.51,-56.84 980.3,-56.4 983,-56 1114.84,-36.37 1151.63,-42.04 1287.54,-19.92"/>
<polygon fill="midnightblue" stroke="midnightblue" points="1288.2,-23.36 1297.5,-18.28 1287.06,-16.45 1288.2,-23.36"/>
</g>
<!-- Node28 -->
<g id="node28" class="node">
<title>Node28</title>
<g id="a_node28"><a xlink:title=" ">
<polygon fill="none" stroke="#bfbfbf" points="1380.5,-0.5 1380.5,-19.5 1451.5,-19.5 1451.5,-0.5 1380.5,-0.5"/>
<text text-anchor="middle" x="1416" y="-7.5" font-family="Helvetica,sans-Serif" font-size="10.00">netinet/tcp.h</text>
</a>
</g>
</g>
<!-- Node18&#45;&gt;Node28 -->
<g id="edge34" class="edge">
<title>Node18&#45;&gt;Node28</title>
<path fill="none" stroke="midnightblue" d="M974.7,-57.22C977.5,-56.78 980.29,-56.37 983,-56 1151.77,-33.04 1198.48,-44.96 1369.91,-20.18"/>
<polygon fill="midnightblue" stroke="midnightblue" points="1370.65,-23.6 1380.04,-18.69 1369.64,-16.68 1370.65,-23.6"/>
</g>
<!-- Node29 -->
<g id="node29" class="node">
<title>Node29</title>
<g id="a_node29"><a xlink:title=" ">
<polygon fill="none" stroke="#bfbfbf" points="1469.5,-0.5 1469.5,-19.5 1518.5,-19.5 1518.5,-0.5 1469.5,-0.5"/>
<text text-anchor="middle" x="1494" y="-7.5" font-family="Helvetica,sans-Serif" font-size="10.00">netdb.h</text>
</a>
</g>
</g>
<!-- Node18&#45;&gt;Node29 -->
<g id="edge35" class="edge">
<title>Node18&#45;&gt;Node29</title>
<path fill="none" stroke="midnightblue" d="M974.69,-57.16C977.5,-56.74 980.29,-56.35 983,-56 1191.04,-29.51 1249.24,-55.36 1459.14,-20.03"/>
<polygon fill="midnightblue" stroke="midnightblue" points="1459.98,-23.43 1469.25,-18.3 1458.8,-16.53 1459.98,-23.43"/>
</g>
</g>
</svg>
        <g id="navigator" transform="translate(0 0)" fill="#404254">
                <rect fill="#f2f5e9" fill-opacity="0.5" stroke="#606060" stroke-width=".5" x="0" y="0" width="60" height="60"/>
                <use id="zoomplus" xlink:href="#zoomPlus" x="17" y="9" onmousedown="handleZoom(evt,'in')"/>
                <use id="zoomminus" xlink:href="#zoomMin" x="42" y="9" onmousedown="handleZoom(evt,'out')"/>
                <use id="reset" xlink:href="#resetDef" x="30" y="36" onmousedown="handleReset()"/>
                <g id="arrowUp" xlink:href="#dirArrow" transform="translate(30 24)" onmousedown="handlePan(0,-1)">
                  <use xlink:href="#rim" fill="#404040">
                        <set attributeName="fill" to="#808080" begin="arrowUp.mouseover" end="arrowUp.mouseout"/>
                  </use>
                  <path fill="none" stroke="white" stroke-width="1.5" d="M0,-3.0v7 M-2.5,-0.5L0,-3.0L2.5,-0.5"/>
                </g>
                <g id="arrowRight" xlink:href="#dirArrow" transform="rotate(90) translate(36 -43)" onmousedown="handlePan(1,0)">
                  <use xlink:href="#rim" fill="#404040">
                        <set attributeName="fill" to="#808080" begin="arrowRight.mouseover" end="arrowRight.mouseout"/>
                  </use>
                  <path fill="none" stroke="white" stroke-width="1.5" d="M0,-3.0v7 M-2.5,-0.5L0,-3.0L2.5,-0.5"/>
                </g>
                <g id="arrowDown" xlink:href="#dirArrow" transform="rotate(180) translate(-30 -48)" onmousedown="handlePan(0,1)">
                  <use xlink:href="#rim" fill="#404040">
                        <set attributeName="fill" to="#808080" begin="arrowDown.mouseover" end="arrowDown.mouseout"/>
                  </use>
                  <path fill="none" stroke="white" stroke-width="1.5" d="M0,-3.0v7 M-2.5,-0.5L0,-3.0L2.5,-0.5"/>
                </g>
                <g id="arrowLeft" xlink:href="#dirArrow" transform="rotate(270) translate(-36 17)" onmousedown="handlePan(-1,0)">
                  <use xlink:href="#rim" fill="#404040">
                        <set attributeName="fill" to="#808080" begin="arrowLeft.mouseover" end="arrowLeft.mouseout"/>
                  </use>
                  <path fill="none" stroke="white" stroke-width="1.5" d="M0,-3.0v7 M-2.5,-0.5L0,-3.0L2.5,-0.5"/>
                </g>
        </g>
        <svg viewBox="0 0 15 15" width="100%" height="30px" preserveAspectRatio="xMaxYMin meet">
         <g id="arrow_out" transform="scale(0.3 0.3)">
          <a xlink:href="_incubator_8h__incl_org.svg" target="_base">
           <rect id="button" ry="5" rx="5" y="6" x="6" height="38" width="38"
                fill="#f2f5e9" fill-opacity="0.5" stroke="#606060" stroke-width="1.0"/>
           <path id="arrow"
             d="M 11.500037,31.436501 C 11.940474,20.09759 22.043105,11.32322 32.158766,21.979434 L 37.068811,17.246167 C 37.068811,17.246167 37.088388,32 37.088388,32 L 22.160133,31.978069 C 22.160133,31.978069 26.997745,27.140456 26.997745,27.140456 C 18.528582,18.264221 13.291696,25.230495 11.500037,31.436501 z"
             style="fill:#404040;"/>
          </a>
         </g>
        </svg>
</svg>
