<?xml version="1.0" encoding="UTF-8" standalone="no"?>
<!DOCTYPE svg PUBLIC "-//W3C//DTD SVG 1.1//EN"
 "http://www.w3.org/Graphics/SVG/1.1/DTD/svg11.dtd">
<!-- Generated by graphviz version 2.48.0 (20210717.1556)
 -->
<!-- Title: src/Incubator.h Pages: 1 -->
<svg width="1608pt" height="140pt"
 viewBox="0.00 0.00 1608.00 140.00" xmlns="http://www.w3.org/2000/svg" xmlns:xlink="http://www.w3.org/1999/xlink">
<g id="graph0" class="graph" transform="scale(1 1) rotate(0) translate(4 136)">
<title>src/Incubator.h</title>
<!-- Node1 -->
<g id="node1" class="node">
<title>Node1</title>
<g id="a_node1"><a xlink:title=" ">
<polygon fill="#bfbfbf" stroke="black" points="708.5,-112.5 708.5,-131.5 790.5,-131.5 790.5,-112.5 708.5,-112.5"/>
<text text-anchor="middle" x="749.5" y="-119.5" font-family="Helvetica,sans-Serif" font-size="10.00">src/Incubator.h</text>
</a>
</g>
</g>
<!-- Node2 -->
<g id="node2" class="node">
<title>Node2</title>
<g id="a_node2"><a xlink:href="_signal_8h.html" target="_top" xlink:title=" ">
<polygon fill="none" stroke="black" points="192,-56.5 192,-75.5 245,-75.5 245,-56.5 192,-56.5"/>
<text text-anchor="middle" x="218.5" y="-63.5" font-family="Helvetica,sans-Serif" font-size="10.00">Signal.h</text>
</a>
</g>
</g>
<!-- Node1&#45;&gt;Node2 -->
<g id="edge1" class="edge">
<title>Node1&#45;&gt;Node2</title>
<path fill="none" stroke="midnightblue" d="M708.28,-116.81C607.75,-106.58 351.25,-80.5 255.39,-70.75"/>
<polygon fill="midnightblue" stroke="midnightblue" points="255.6,-67.26 245.3,-69.73 254.9,-74.22 255.6,-67.26"/>
</g>
<!-- Node9 -->
<g id="node9" class="node">
<title>Node9</title>
<g id="a_node9"><a xlink:href="_env_8h.html" target="_top" xlink:title=" ">
<polygon fill="none" stroke="black" points="539,-56.5 539,-75.5 580,-75.5 580,-56.5 539,-56.5"/>
<text text-anchor="middle" x="559.5" y="-63.5" font-family="Helvetica,sans-Serif" font-size="10.00">Env.h</text>
</a>
</g>
</g>
<!-- Node1&#45;&gt;Node9 -->
<g id="edge9" class="edge">
<title>Node1&#45;&gt;Node9</title>
<path fill="none" stroke="midnightblue" d="M719.39,-112.44C683.97,-102.37 625.47,-85.75 589.91,-75.64"/>
<polygon fill="midnightblue" stroke="midnightblue" points="590.67,-72.22 580.1,-72.85 588.76,-78.95 590.67,-72.22"/>
</g>
<!-- Node13 -->
<g id="node13" class="node">
<title>Node13</title>
<g id="a_node13"><a xlink:href="_session_time_8h.html" target="_top" xlink:title=" ">
<polygon fill="none" stroke="black" points="392.5,-56.5 392.5,-75.5 474.5,-75.5 474.5,-56.5 392.5,-56.5"/>
<text text-anchor="middle" x="433.5" y="-63.5" font-family="Helvetica,sans-Serif" font-size="10.00">SessionTime.h</text>
</a>
</g>
</g>
<!-- Node1&#45;&gt;Node13 -->
<g id="edge14" class="edge">
<title>Node1&#45;&gt;Node13</title>
<path fill="none" stroke="midnightblue" d="M708.19,-113.94C650.74,-104.12 546.8,-86.36 484.56,-75.73"/>
<polygon fill="midnightblue" stroke="midnightblue" points="485.02,-72.25 474.57,-74.02 483.84,-79.15 485.02,-72.25"/>
</g>
<!-- Node15 -->
<g id="node15" class="node">
<title>Node15</title>
<g id="a_node15"><a xlink:href="_sensor_8h.html" target="_top" xlink:title=" ">
<polygon fill="none" stroke="black" points="999.5,-56.5 999.5,-75.5 1055.5,-75.5 1055.5,-56.5 999.5,-56.5"/>
<text text-anchor="middle" x="1027.5" y="-63.5" font-family="Helvetica,sans-Serif" font-size="10.00">Sensor.h</text>
</a>
</g>
</g>
<!-- Node1&#45;&gt;Node15 -->
<g id="edge19" class="edge">
<title>Node1&#45;&gt;Node15</title>
<path fill="none" stroke="midnightblue" d="M790.81,-113.87C838.73,-105.45 920.04,-90.73 989.5,-76 989.6,-75.98 989.7,-75.96 989.8,-75.94"/>
<polygon fill="midnightblue" stroke="midnightblue" points="990.3,-79.41 999.31,-73.83 988.79,-72.57 990.3,-79.41"/>
</g>
<!-- Node16 -->
<g id="node16" class="node">
<title>Node16</title>
<g id="a_node16"><a xlink:href="_actuator_8h.html" target="_top" xlink:title=" ">
<polygon fill="none" stroke="black" points="1307.5,-56.5 1307.5,-75.5 1369.5,-75.5 1369.5,-56.5 1307.5,-56.5"/>
<text text-anchor="middle" x="1338.5" y="-63.5" font-family="Helvetica,sans-Serif" font-size="10.00">Actuator.h</text>
</a>
</g>
</g>
<!-- Node1&#45;&gt;Node16 -->
<g id="edge20" class="edge">
<title>Node1&#45;&gt;Node16</title>
<path fill="none" stroke="midnightblue" d="M790.92,-117.2C899.13,-107.28 1189.37,-80.67 1297.32,-70.78"/>
<polygon fill="midnightblue" stroke="midnightblue" points="1297.84,-74.24 1307.48,-69.84 1297.2,-67.27 1297.84,-74.24"/>
</g>
<!-- Node18 -->
<g id="node18" class="node">
<title>Node18</title>
<g id="a_node18"><a xlink:href="_display_client_8h.html" target="_top" xlink:title=" ">
<polygon fill="none" stroke="black" points="898,-56.5 898,-75.5 981,-75.5 981,-56.5 898,-56.5"/>
<text text-anchor="middle" x="939.5" y="-63.5" font-family="Helvetica,sans-Serif" font-size="10.00">DisplayClient.h</text>
</a>
</g>
</g>
<!-- Node1&#45;&gt;Node18 -->
<g id="edge22" class="edge">
<title>Node1&#45;&gt;Node18</title>
<path fill="none" stroke="midnightblue" d="M779.61,-112.44C812.13,-103.2 864.08,-88.44 899.89,-78.26"/>
<polygon fill="midnightblue" stroke="midnightblue" points="900.87,-81.62 909.53,-75.52 898.96,-74.88 900.87,-81.62"/>
</g>
<!-- Node2&#45;&gt;Node2 -->
<g id="edge6" class="edge">
<title>Node2&#45;&gt;Node2</title>
<path fill="none" stroke="midnightblue" d="M237.71,-75.57C250.53,-78.27 263,-75.08 263,-66 263,-59.4 256.42,-55.92 247.9,-55.54"/>
<polygon fill="midnightblue" stroke="midnightblue" points="247.37,-52.07 237.71,-56.43 247.98,-59.04 247.37,-52.07"/>
</g>
<!-- Node3 -->
<g id="node3" class="node">
<title>Node3</title>
<g id="a_node3"><a xlink:title=" ">
<polygon fill="none" stroke="#bfbfbf" points="130.5,-0.5 130.5,-19.5 176.5,-19.5 176.5,-0.5 130.5,-0.5"/>
<text text-anchor="middle" x="153.5" y="-7.5" font-family="Helvetica,sans-Serif" font-size="10.00">atomic</text>
</a>
</g>
</g>
<!-- Node2&#45;&gt;Node3 -->
<g id="edge2" class="edge">
<title>Node2&#45;&gt;Node3</title>
<path fill="none" stroke="midnightblue" d="M208.06,-56.32C198.35,-48.26 183.68,-36.08 172,-26.37"/>
<polygon fill="midnightblue" stroke="midnightblue" points="174.06,-23.53 164.13,-19.83 169.59,-28.92 174.06,-23.53"/>
</g>
<!-- Node4 -->
<g id="node4" class="node">
<title>Node4</title>
<g id="a_node4"><a xlink:title=" ">
<polygon fill="none" stroke="#bfbfbf" points="195,-0.5 195,-19.5 242,-19.5 242,-0.5 195,-0.5"/>
<text text-anchor="middle" x="218.5" y="-7.5" font-family="Helvetica,sans-Serif" font-size="10.00">chrono</text>
</a>
</g>
</g>
<!-- Node2&#45;&gt;Node4 -->
<g id="edge3" class="edge">
<title>Node2&#45;&gt;Node4</title>
<path fill="none" stroke="midnightblue" d="M218.5,-56.08C218.5,-49.01 218.5,-38.86 218.5,-29.99"/>
<polygon fill="midnightblue" stroke="midnightblue" points="222,-29.75 218.5,-19.75 215,-29.75 222,-29.75"/>
</g>
<!-- Node5 -->
<g id="node5" class="node">
<title>Node5</title>
<g id="a_node5"><a xlink:title=" ">
<polygon fill="none" stroke="#bfbfbf" points="0,-0.5 0,-19.5 45,-19.5 45,-0.5 0,-0.5"/>
<text text-anchor="middle" x="22.5" y="-7.5" font-family="Helvetica,sans-Serif" font-size="10.00">thread</text>
</a>
</g>
</g>
<!-- Node2&#45;&gt;Node5 -->
<g id="edge4" class="edge">
<title>Node2&#45;&gt;Node5</title>
<path fill="none" stroke="midnightblue" d="M191.89,-57.88C161.09,-49.62 108.61,-35.44 54.86,-20.36"/>
<polygon fill="midnightblue" stroke="midnightblue" points="55.75,-16.97 45.17,-17.63 53.85,-23.71 55.75,-16.97"/>
</g>
<!-- Node6 -->
<g id="node6" class="node">
<title>Node6</title>
<g id="a_node6"><a xlink:title=" ">
<polygon fill="none" stroke="#bfbfbf" points="63,-0.5 63,-19.5 112,-19.5 112,-0.5 63,-0.5"/>
<text text-anchor="middle" x="87.5" y="-7.5" font-family="Helvetica,sans-Serif" font-size="10.00">cassert</text>
</a>
</g>
</g>
<!-- Node2&#45;&gt;Node6 -->
<g id="edge5" class="edge">
<title>Node2&#45;&gt;Node6</title>
<path fill="none" stroke="midnightblue" d="M197.74,-56.44C176.18,-47.56 142.24,-33.56 117.71,-23.45"/>
<polygon fill="midnightblue" stroke="midnightblue" points="118.74,-20.09 108.16,-19.52 116.07,-26.56 118.74,-20.09"/>
</g>
<!-- Node7 -->
<g id="node7" class="node">
<title>Node7</title>
<g id="a_node7"><a xlink:title=" ">
<polygon fill="none" stroke="#bfbfbf" points="407.5,-0.5 407.5,-19.5 459.5,-19.5 459.5,-0.5 407.5,-0.5"/>
<text text-anchor="middle" x="433.5" y="-7.5" font-family="Helvetica,sans-Serif" font-size="10.00">unistd.h</text>
</a>
</g>
</g>
<!-- Node2&#45;&gt;Node7 -->
<g id="edge7" class="edge">
<title>Node2&#45;&gt;Node7</title>
<path fill="none" stroke="midnightblue" d="M245.05,-58.42C278.32,-50.16 337.36,-35.47 397.14,-20.33"/>
<polygon fill="midnightblue" stroke="midnightblue" points="398.3,-23.65 407.13,-17.8 396.58,-16.87 398.3,-23.65"/>
</g>
<!-- Node8 -->
<g id="node8" class="node">
<title>Node8</title>
<g id="a_node8"><a xlink:href="_singleton_8h.html" target="_top" xlink:title=" ">
<polygon fill="none" stroke="black" points="260,-0.5 260,-19.5 327,-19.5 327,-0.5 260,-0.5"/>
<text text-anchor="middle" x="293.5" y="-7.5" font-family="Helvetica,sans-Serif" font-size="10.00">Singleton.h</text>
</a>
</g>
</g>
<!-- Node2&#45;&gt;Node8 -->
<g id="edge8" class="edge">
<title>Node2&#45;&gt;Node8</title>
<path fill="none" stroke="midnightblue" d="M230.55,-56.32C241.96,-48.11 259.33,-35.6 272.93,-25.81"/>
<polygon fill="midnightblue" stroke="midnightblue" points="275.16,-28.52 281.23,-19.83 271.07,-22.84 275.16,-28.52"/>
</g>
<!-- Node9&#45;&gt;Node8 -->
<g id="edge13" class="edge">
<title>Node9&#45;&gt;Node8</title>
<path fill="none" stroke="midnightblue" d="M538.89,-60.89C501.07,-53.35 417.82,-36.68 337.12,-20.12"/>
<polygon fill="midnightblue" stroke="midnightblue" points="337.8,-16.68 327.3,-18.1 336.39,-23.54 337.8,-16.68"/>
</g>
<!-- Node10 -->
<g id="node10" class="node">
<title>Node10</title>
<g id="a_node10"><a xlink:title=" ">
<polygon fill="none" stroke="#bfbfbf" points="599.5,-0.5 599.5,-19.5 701.5,-19.5 701.5,-0.5 599.5,-0.5"/>
<text text-anchor="middle" x="650.5" y="-7.5" font-family="Helvetica,sans-Serif" font-size="10.00">jsoncpp/json/json.h</text>
</a>
</g>
</g>
<!-- Node9&#45;&gt;Node10 -->
<g id="edge10" class="edge">
<title>Node9&#45;&gt;Node10</title>
<path fill="none" stroke="midnightblue" d="M574.12,-56.32C588.45,-47.82 610.51,-34.73 627.25,-24.8"/>
<polygon fill="midnightblue" stroke="midnightblue" points="629.1,-27.77 635.92,-19.65 625.53,-21.75 629.1,-27.77"/>
</g>
<!-- Node11 -->
<g id="node11" class="node">
<title>Node11</title>
<g id="a_node11"><a xlink:title=" ">
<polygon fill="none" stroke="#bfbfbf" points="478,-0.5 478,-19.5 519,-19.5 519,-0.5 478,-0.5"/>
<text text-anchor="middle" x="498.5" y="-7.5" font-family="Helvetica,sans-Serif" font-size="10.00">string</text>
</a>
</g>
</g>
<!-- Node9&#45;&gt;Node11 -->
<g id="edge11" class="edge">
<title>Node9&#45;&gt;Node11</title>
<path fill="none" stroke="midnightblue" d="M549.7,-56.32C540.68,-48.34 527.09,-36.31 516.18,-26.65"/>
<polygon fill="midnightblue" stroke="midnightblue" points="518.29,-23.84 508.48,-19.83 513.65,-29.08 518.29,-23.84"/>
</g>
<!-- Node12 -->
<g id="node12" class="node">
<title>Node12</title>
<g id="a_node12"><a xlink:title=" ">
<polygon fill="none" stroke="#bfbfbf" points="537.5,-0.5 537.5,-19.5 581.5,-19.5 581.5,-0.5 537.5,-0.5"/>
<text text-anchor="middle" x="559.5" y="-7.5" font-family="Helvetica,sans-Serif" font-size="10.00">vector</text>
</a>
</g>
</g>
<!-- Node9&#45;&gt;Node12 -->
<g id="edge12" class="edge">
<title>Node9&#45;&gt;Node12</title>
<path fill="none" stroke="midnightblue" d="M559.5,-56.08C559.5,-49.01 559.5,-38.86 559.5,-29.99"/>
<polygon fill="midnightblue" stroke="midnightblue" points="563,-29.75 559.5,-19.75 556,-29.75 563,-29.75"/>
</g>
<!-- Node13&#45;&gt;Node7 -->
<g id="edge15" class="edge">
<title>Node13&#45;&gt;Node7</title>
<path fill="none" stroke="midnightblue" d="M433.5,-56.08C433.5,-49.01 433.5,-38.86 433.5,-29.99"/>
<polygon fill="midnightblue" stroke="midnightblue" points="437,-29.75 433.5,-19.75 430,-29.75 437,-29.75"/>
</g>
<!-- Node13&#45;&gt;Node8 -->
<g id="edge18" class="edge">
<title>Node13&#45;&gt;Node8</title>
<path fill="none" stroke="midnightblue" d="M411.32,-56.44C388.07,-47.48 351.35,-33.31 325.08,-23.18"/>
<polygon fill="midnightblue" stroke="midnightblue" points="326.17,-19.85 315.58,-19.52 323.65,-26.38 326.17,-19.85"/>
</g>
<!-- Node13&#45;&gt;Node11 -->
<g id="edge17" class="edge">
<title>Node13&#45;&gt;Node11</title>
<path fill="none" stroke="midnightblue" d="M443.94,-56.32C453.65,-48.26 468.32,-36.08 480,-26.37"/>
<polygon fill="midnightblue" stroke="midnightblue" points="482.41,-28.92 487.87,-19.83 477.94,-23.53 482.41,-28.92"/>
</g>
<!-- Node14 -->
<g id="node14" class="node">
<title>Node14</title>
<g id="a_node14"><a xlink:title=" ">
<polygon fill="none" stroke="#bfbfbf" points="345.5,-0.5 345.5,-19.5 389.5,-19.5 389.5,-0.5 345.5,-0.5"/>
<text text-anchor="middle" x="367.5" y="-7.5" font-family="Helvetica,sans-Serif" font-size="10.00">time.h</text>
</a>
</g>
</g>
<!-- Node13&#45;&gt;Node14 -->
<g id="edge16" class="edge">
<title>Node13&#45;&gt;Node14</title>
<path fill="none" stroke="midnightblue" d="M422.9,-56.32C413.04,-48.26 398.15,-36.08 386.28,-26.37"/>
<polygon fill="midnightblue" stroke="midnightblue" points="388.25,-23.46 378.3,-19.83 383.82,-28.88 388.25,-23.46"/>
</g>
<!-- Node17 -->
<g id="node17" class="node">
<title>Node17</title>
<g id="a_node17"><a xlink:title=" ">
<polygon fill="none" stroke="#bfbfbf" points="1545,-0.5 1545,-19.5 1600,-19.5 1600,-0.5 1545,-0.5"/>
<text text-anchor="middle" x="1572.5" y="-7.5" font-family="Helvetica,sans-Serif" font-size="10.00">iostream</text>
</a>
</g>
</g>
<!-- Node16&#45;&gt;Node17 -->
<g id="edge21" class="edge">
<title>Node16&#45;&gt;Node17</title>
<path fill="none" stroke="midnightblue" d="M1369.58,-58.04C1406.53,-49.74 1470.32,-35.31 1534.71,-20.16"/>
<polygon fill="midnightblue" stroke="midnightblue" points="1535.7,-23.52 1544.63,-17.82 1534.09,-16.71 1535.7,-23.52"/>
</g>
<!-- Node18&#45;&gt;Node7 -->
<g id="edge26" class="edge">
<title>Node18&#45;&gt;Node7</title>
<path fill="none" stroke="midnightblue" d="M897.94,-63.22C817.2,-59.28 633.41,-48.02 470.01,-20.01"/>
<polygon fill="midnightblue" stroke="midnightblue" points="470.23,-16.49 459.78,-18.23 469.03,-23.39 470.23,-16.49"/>
</g>
<!-- Node18&#45;&gt;Node11 -->
<g id="edge35" class="edge">
<title>Node18&#45;&gt;Node11</title>
<path fill="none" stroke="midnightblue" d="M897.99,-62.96C825.14,-58.84 669.5,-47.64 529.11,-19.74"/>
<polygon fill="midnightblue" stroke="midnightblue" points="529.53,-16.25 519.03,-17.7 528.14,-23.11 529.53,-16.25"/>
</g>
<!-- Node19 -->
<g id="node19" class="node">
<title>Node19</title>
<g id="a_node19"><a xlink:title=" ">
<polygon fill="none" stroke="#bfbfbf" points="720,-0.5 720,-19.5 769,-19.5 769,-0.5 720,-0.5"/>
<text text-anchor="middle" x="744.5" y="-7.5" font-family="Helvetica,sans-Serif" font-size="10.00">string.h</text>
</a>
</g>
</g>
<!-- Node18&#45;&gt;Node19 -->
<g id="edge23" class="edge">
<title>Node18&#45;&gt;Node19</title>
<path fill="none" stroke="midnightblue" d="M908.6,-56.44C873.26,-46.66 815.56,-30.68 778.84,-20.51"/>
<polygon fill="midnightblue" stroke="midnightblue" points="779.65,-17.1 769.08,-17.81 777.78,-23.85 779.65,-17.1"/>
</g>
<!-- Node20 -->
<g id="node20" class="node">
<title>Node20</title>
<g id="a_node20"><a xlink:title=" ">
<polygon fill="none" stroke="#bfbfbf" points="787.5,-0.5 787.5,-19.5 833.5,-19.5 833.5,-0.5 787.5,-0.5"/>
<text text-anchor="middle" x="810.5" y="-7.5" font-family="Helvetica,sans-Serif" font-size="10.00">stdio.h</text>
</a>
</g>
</g>
<!-- Node18&#45;&gt;Node20 -->
<g id="edge24" class="edge">
<title>Node18&#45;&gt;Node20</title>
<path fill="none" stroke="midnightblue" d="M919.06,-56.44C897.83,-47.56 864.4,-33.56 840.25,-23.45"/>
<polygon fill="midnightblue" stroke="midnightblue" points="841.42,-20.15 830.84,-19.52 838.72,-26.61 841.42,-20.15"/>
</g>
<!-- Node21 -->
<g id="node21" class="node">
<title>Node21</title>
<g id="a_node21"><a xlink:title=" ">
<polygon fill="none" stroke="#bfbfbf" points="851.5,-0.5 851.5,-19.5 899.5,-19.5 899.5,-0.5 851.5,-0.5"/>
<text text-anchor="middle" x="875.5" y="-7.5" font-family="Helvetica,sans-Serif" font-size="10.00">stdlib.h</text>
</a>
</g>
</g>
<!-- Node18&#45;&gt;Node21 -->
<g id="edge25" class="edge">
<title>Node18&#45;&gt;Node21</title>
<path fill="none" stroke="midnightblue" d="M929.22,-56.32C919.66,-48.26 905.22,-36.08 893.72,-26.37"/>
<polygon fill="midnightblue" stroke="midnightblue" points="895.87,-23.61 885.97,-19.83 891.36,-28.96 895.87,-23.61"/>
</g>
<!-- Node22 -->
<g id="node22" class="node">
<title>Node22</title>
<g id="a_node22"><a xlink:title=" ">
<polygon fill="none" stroke="#bfbfbf" points="918,-0.5 918,-19.5 961,-19.5 961,-0.5 918,-0.5"/>
<text text-anchor="middle" x="939.5" y="-7.5" font-family="Helvetica,sans-Serif" font-size="10.00">fcntl.h</text>
</a>
</g>
</g>
<!-- Node18&#45;&gt;Node22 -->
<g id="edge27" class="edge">
<title>Node18&#45;&gt;Node22</title>
<path fill="none" stroke="midnightblue" d="M939.5,-56.08C939.5,-49.01 939.5,-38.86 939.5,-29.99"/>
<polygon fill="midnightblue" stroke="midnightblue" points="943,-29.75 939.5,-19.75 936,-29.75 943,-29.75"/>
</g>
<!-- Node23 -->
<g id="node23" class="node">
<title>Node23</title>
<g id="a_node23"><a xlink:title=" ">
<polygon fill="none" stroke="#bfbfbf" points="979.5,-0.5 979.5,-19.5 1027.5,-19.5 1027.5,-0.5 979.5,-0.5"/>
<text text-anchor="middle" x="1003.5" y="-7.5" font-family="Helvetica,sans-Serif" font-size="10.00">errno.h</text>
</a>
</g>
</g>
<!-- Node18&#45;&gt;Node23 -->
<g id="edge28" class="edge">
<title>Node18&#45;&gt;Node23</title>
<path fill="none" stroke="midnightblue" d="M949.78,-56.32C959.34,-48.26 973.78,-36.08 985.28,-26.37"/>
<polygon fill="midnightblue" stroke="midnightblue" points="987.64,-28.96 993.03,-19.83 983.13,-23.61 987.64,-28.96"/>
</g>
<!-- Node24 -->
<g id="node24" class="node">
<title>Node24</title>
<g id="a_node24"><a xlink:title=" ">
<polygon fill="none" stroke="#bfbfbf" points="1046,-0.5 1046,-19.5 1113,-19.5 1113,-0.5 1046,-0.5"/>
<text text-anchor="middle" x="1079.5" y="-7.5" font-family="Helvetica,sans-Serif" font-size="10.00">sys/types.h</text>
</a>
</g>
</g>
<!-- Node18&#45;&gt;Node24 -->
<g id="edge29" class="edge">
<title>Node18&#45;&gt;Node24</title>
<path fill="none" stroke="midnightblue" d="M961.68,-56.44C984.93,-47.48 1021.65,-33.31 1047.92,-23.18"/>
<polygon fill="midnightblue" stroke="midnightblue" points="1049.35,-26.38 1057.42,-19.52 1046.83,-19.85 1049.35,-26.38"/>
</g>
<!-- Node25 -->
<g id="node25" class="node">
<title>Node25</title>
<g id="a_node25"><a xlink:title=" ">
<polygon fill="none" stroke="#bfbfbf" points="1131.5,-0.5 1131.5,-19.5 1203.5,-19.5 1203.5,-0.5 1131.5,-0.5"/>
<text text-anchor="middle" x="1167.5" y="-7.5" font-family="Helvetica,sans-Serif" font-size="10.00">sys/socket.h</text>
</a>
</g>
</g>
<!-- Node18&#45;&gt;Node25 -->
<g id="edge30" class="edge">
<title>Node18&#45;&gt;Node25</title>
<path fill="none" stroke="midnightblue" d="M975.63,-56.44C1015.15,-47.08 1078.6,-32.06 1121.61,-21.87"/>
<polygon fill="midnightblue" stroke="midnightblue" points="1122.62,-25.23 1131.54,-19.52 1121,-18.42 1122.62,-25.23"/>
</g>
<!-- Node26 -->
<g id="node26" class="node">
<title>Node26</title>
<g id="a_node26"><a xlink:title=" ">
<polygon fill="none" stroke="#bfbfbf" points="1221.5,-0.5 1221.5,-19.5 1285.5,-19.5 1285.5,-0.5 1221.5,-0.5"/>
<text text-anchor="middle" x="1253.5" y="-7.5" font-family="Helvetica,sans-Serif" font-size="10.00">arpa/inet.h</text>
</a>
</g>
</g>
<!-- Node18&#45;&gt;Node26 -->
<g id="edge31" class="edge">
<title>Node18&#45;&gt;Node26</title>
<path fill="none" stroke="midnightblue" d="M981.24,-57.59C984.37,-57.04 987.49,-56.51 990.5,-56 1085.88,-39.85 1112.61,-38.78 1211.21,-20.16"/>
<polygon fill="midnightblue" stroke="midnightblue" points="1212.14,-23.55 1221.31,-18.24 1210.83,-16.67 1212.14,-23.55"/>
</g>
<!-- Node27 -->
<g id="node27" class="node">
<title>Node27</title>
<g id="a_node27"><a xlink:title=" ">
<polygon fill="none" stroke="#bfbfbf" points="1304,-0.5 1304,-19.5 1369,-19.5 1369,-0.5 1304,-0.5"/>
<text text-anchor="middle" x="1336.5" y="-7.5" font-family="Helvetica,sans-Serif" font-size="10.00">netinet/in.h</text>
</a>
</g>
</g>
<!-- Node18&#45;&gt;Node27 -->
<g id="edge32" class="edge">
<title>Node18&#45;&gt;Node27</title>
<path fill="none" stroke="midnightblue" d="M981.22,-57.44C984.36,-56.93 987.48,-56.45 990.5,-56 1121.95,-36.63 1158.58,-42.01 1294.07,-19.92"/>
<polygon fill="midnightblue" stroke="midnightblue" points="1294.7,-23.36 1304,-18.28 1293.56,-16.45 1294.7,-23.36"/>
</g>
<!-- Node28 -->
<g id="node28" class="node">
<title>Node28</title>
<g id="a_node28"><a xlink:title=" ">
<polygon fill="none" stroke="#bfbfbf" points="1387,-0.5 1387,-19.5 1458,-19.5 1458,-0.5 1387,-0.5"/>
<text text-anchor="middle" x="1422.5" y="-7.5" font-family="Helvetica,sans-Serif" font-size="10.00">netinet/tcp.h</text>
</a>
</g>
</g>
<!-- Node18&#45;&gt;Node28 -->
<g id="edge33" class="edge">
<title>Node18&#45;&gt;Node28</title>
<path fill="none" stroke="midnightblue" d="M981.21,-57.35C984.35,-56.86 987.47,-56.41 990.5,-56 1158.87,-33.37 1205.42,-44.93 1376.44,-20.17"/>
<polygon fill="midnightblue" stroke="midnightblue" points="1377.15,-23.6 1386.54,-18.69 1376.14,-16.68 1377.15,-23.6"/>
</g>
<!-- Node29 -->
<g id="node29" class="node">
<title>Node29</title>
<g id="a_node29"><a xlink:title=" ">
<polygon fill="none" stroke="#bfbfbf" points="1476.5,-0.5 1476.5,-19.5 1526.5,-19.5 1526.5,-0.5 1476.5,-0.5"/>
<text text-anchor="middle" x="1501.5" y="-7.5" font-family="Helvetica,sans-Serif" font-size="10.00">netdb.h</text>
</a>
</g>
</g>
<!-- Node18&#45;&gt;Node29 -->
<g id="edge34" class="edge">
<title>Node18&#45;&gt;Node29</title>
<path fill="none" stroke="midnightblue" d="M981.2,-57.29C984.34,-56.82 987.47,-56.38 990.5,-56 1198.15,-29.91 1256.06,-54.56 1466.24,-19.9"/>
<polygon fill="midnightblue" stroke="midnightblue" points="1467.08,-23.31 1476.36,-18.2 1465.92,-16.4 1467.08,-23.31"/>
</g>
</g>
</svg>
