<?xml version="1.0" encoding="UTF-8" standalone="no"?>
<!DOCTYPE svg PUBLIC "-//W3C//DTD SVG 1.1//EN"
 "http://www.w3.org/Graphics/SVG/1.1/DTD/svg11.dtd">
<!-- Generated by graphviz version 2.48.0 (20210717.1556)
 -->
<!-- Title: src/Incubator.cpp Pages: 1 -->
<svg width="1765pt" height="196pt"
 viewBox="0.00 0.00 1765.00 196.00" xmlns="http://www.w3.org/2000/svg" xmlns:xlink="http://www.w3.org/1999/xlink">
<g id="graph0" class="graph" transform="scale(1 1) rotate(0) translate(4 192)">
<title>src/Incubator.cpp</title>
<!-- Node1 -->
<g id="node1" class="node">
<title>Node1</title>
<g id="a_node1"><a xlink:title=" ">
<polygon fill="#bfbfbf" stroke="black" points="1098.5,-168.5 1098.5,-187.5 1191.5,-187.5 1191.5,-168.5 1098.5,-168.5"/>
<text text-anchor="middle" x="1145" y="-175.5" font-family="Helvetica,sans-Serif" font-size="10.00">src/Incubator.cpp</text>
</a>
</g>
</g>
<!-- Node2 -->
<g id="node2" class="node">
<title>Node2</title>
<g id="a_node2"><a xlink:title=" ">
<polygon fill="none" stroke="#bfbfbf" points="290.5,-112.5 290.5,-131.5 405.5,-131.5 405.5,-112.5 290.5,-112.5"/>
<text text-anchor="middle" x="348" y="-119.5" font-family="Helvetica,sans-Serif" font-size="10.00">systemd/sd&#45;daemon.h</text>
</a>
</g>
</g>
<!-- Node1&#45;&gt;Node2 -->
<g id="edge1" class="edge">
<title>Node1&#45;&gt;Node2</title>
<path fill="none" stroke="midnightblue" d="M1098.3,-175.33C983.77,-170.96 679.66,-157.82 415.72,-132.1"/>
<polygon fill="midnightblue" stroke="midnightblue" points="415.86,-128.6 405.56,-131.11 415.17,-135.57 415.86,-128.6"/>
</g>
<!-- Node3 -->
<g id="node3" class="node">
<title>Node3</title>
<g id="a_node3"><a xlink:title=" ">
<polygon fill="none" stroke="#bfbfbf" points="423.5,-112.5 423.5,-131.5 472.5,-131.5 472.5,-112.5 423.5,-112.5"/>
<text text-anchor="middle" x="448" y="-119.5" font-family="Helvetica,sans-Serif" font-size="10.00">stdint.h</text>
</a>
</g>
</g>
<!-- Node1&#45;&gt;Node3 -->
<g id="edge2" class="edge">
<title>Node1&#45;&gt;Node3</title>
<path fill="none" stroke="midnightblue" d="M1098.46,-176.35C990.46,-174.28 714.65,-165.83 487,-132 485.54,-131.78 484.05,-131.54 482.55,-131.28"/>
<polygon fill="midnightblue" stroke="midnightblue" points="483.14,-127.82 472.64,-129.31 481.77,-134.69 483.14,-127.82"/>
</g>
<!-- Node4 -->
<g id="node4" class="node">
<title>Node4</title>
<g id="a_node4"><a xlink:title=" ">
<polygon fill="none" stroke="#bfbfbf" points="260,-0.5 260,-19.5 312,-19.5 312,-0.5 260,-0.5"/>
<text text-anchor="middle" x="286" y="-7.5" font-family="Helvetica,sans-Serif" font-size="10.00">unistd.h</text>
</a>
</g>
</g>
<!-- Node1&#45;&gt;Node4 -->
<g id="edge3" class="edge">
<title>Node1&#45;&gt;Node4</title>
<path fill="none" stroke="midnightblue" d="M1098.36,-175.05C1017.16,-171.04 844.85,-159.79 702,-132 557.04,-103.8 389.73,-47.68 319.63,-23.06"/>
<polygon fill="midnightblue" stroke="midnightblue" points="320.6,-19.69 310,-19.66 318.27,-26.29 320.6,-19.69"/>
</g>
<!-- Node5 -->
<g id="node5" class="node">
<title>Node5</title>
<g id="a_node5"><a xlink:title=" ">
<polygon fill="none" stroke="#bfbfbf" points="1550.5,-0.5 1550.5,-19.5 1599.5,-19.5 1599.5,-0.5 1550.5,-0.5"/>
<text text-anchor="middle" x="1575" y="-7.5" font-family="Helvetica,sans-Serif" font-size="10.00">string.h</text>
</a>
</g>
</g>
<!-- Node1&#45;&gt;Node5 -->
<g id="edge4" class="edge">
<title>Node1&#45;&gt;Node5</title>
<path fill="none" stroke="midnightblue" d="M1191.72,-177.45C1282.53,-177.41 1478.46,-172.46 1530,-132 1561.78,-107.05 1571.11,-57.25 1573.86,-29.96"/>
<polygon fill="midnightblue" stroke="midnightblue" points="1577.36,-30.03 1574.68,-19.78 1570.39,-29.47 1577.36,-30.03"/>
</g>
<!-- Node6 -->
<g id="node6" class="node">
<title>Node6</title>
<g id="a_node6"><a xlink:title=" ">
<polygon fill="none" stroke="#bfbfbf" points="1477.5,-0.5 1477.5,-19.5 1532.5,-19.5 1532.5,-0.5 1477.5,-0.5"/>
<text text-anchor="middle" x="1505" y="-7.5" font-family="Helvetica,sans-Serif" font-size="10.00">iostream</text>
</a>
</g>
</g>
<!-- Node1&#45;&gt;Node6 -->
<g id="edge5" class="edge">
<title>Node1&#45;&gt;Node6</title>
<path fill="none" stroke="midnightblue" d="M1127.52,-168.33C1105.44,-156.21 1072.11,-133.29 1088,-112 1190.04,24.65 1294.2,-53.6 1467.27,-19.97"/>
<polygon fill="midnightblue" stroke="midnightblue" points="1468.06,-23.38 1477.16,-17.94 1466.66,-16.52 1468.06,-23.38"/>
</g>
<!-- Node7 -->
<g id="node7" class="node">
<title>Node7</title>
<g id="a_node7"><a xlink:title=" ">
<polygon fill="none" stroke="#bfbfbf" points="1577,-112.5 1577,-131.5 1629,-131.5 1629,-112.5 1577,-112.5"/>
<text text-anchor="middle" x="1603" y="-119.5" font-family="Helvetica,sans-Serif" font-size="10.00">sstream</text>
</a>
</g>
</g>
<!-- Node1&#45;&gt;Node7 -->
<g id="edge6" class="edge">
<title>Node1&#45;&gt;Node7</title>
<path fill="none" stroke="midnightblue" d="M1191.63,-173.73C1269.1,-167.9 1429.07,-154.2 1563,-132 1564.26,-131.79 1565.55,-131.57 1566.84,-131.33"/>
<polygon fill="midnightblue" stroke="midnightblue" points="1567.71,-134.73 1576.83,-129.34 1566.34,-127.86 1567.71,-134.73"/>
</g>
<!-- Node8 -->
<g id="node8" class="node">
<title>Node8</title>
<g id="a_node8"><a xlink:title=" ">
<polygon fill="none" stroke="#bfbfbf" points="1647,-112.5 1647,-131.5 1699,-131.5 1699,-112.5 1647,-112.5"/>
<text text-anchor="middle" x="1673" y="-119.5" font-family="Helvetica,sans-Serif" font-size="10.00">iomanip</text>
</a>
</g>
</g>
<!-- Node1&#45;&gt;Node8 -->
<g id="edge7" class="edge">
<title>Node1&#45;&gt;Node8</title>
<path fill="none" stroke="midnightblue" d="M1191.54,-175.24C1277.67,-171.46 1467.78,-160.58 1636.66,-131.97"/>
<polygon fill="midnightblue" stroke="midnightblue" points="1637.46,-135.38 1646.72,-130.24 1636.28,-128.48 1637.46,-135.38"/>
</g>
<!-- Node9 -->
<g id="node9" class="node">
<title>Node9</title>
<g id="a_node9"><a xlink:title=" ">
<polygon fill="none" stroke="#bfbfbf" points="1717,-112.5 1717,-131.5 1757,-131.5 1757,-112.5 1717,-112.5"/>
<text text-anchor="middle" x="1737" y="-119.5" font-family="Helvetica,sans-Serif" font-size="10.00">ctime</text>
</a>
</g>
</g>
<!-- Node1&#45;&gt;Node9 -->
<g id="edge8" class="edge">
<title>Node1&#45;&gt;Node9</title>
<path fill="none" stroke="midnightblue" d="M1191.81,-176.74C1287.32,-175.46 1511.44,-168.64 1706.99,-131.77"/>
<polygon fill="midnightblue" stroke="midnightblue" points="1707.7,-135.19 1716.86,-129.87 1706.38,-128.32 1707.7,-135.19"/>
</g>
<!-- Node10 -->
<g id="node10" class="node">
<title>Node10</title>
<g id="a_node10"><a xlink:href="_incubator_8h.html" target="_top" xlink:title=" ">
<polygon fill="none" stroke="black" points="711,-112.5 711,-131.5 777,-131.5 777,-112.5 711,-112.5"/>
<text text-anchor="middle" x="744" y="-119.5" font-family="Helvetica,sans-Serif" font-size="10.00">Incubator.h</text>
</a>
</g>
</g>
<!-- Node1&#45;&gt;Node10 -->
<g id="edge9" class="edge">
<title>Node1&#45;&gt;Node10</title>
<path fill="none" stroke="midnightblue" d="M1098.34,-172.45C1031.55,-165.66 904.66,-151.69 787.29,-132.1"/>
<polygon fill="midnightblue" stroke="midnightblue" points="787.86,-128.65 777.42,-130.43 786.7,-135.55 787.86,-128.65"/>
</g>
<!-- Node36 -->
<g id="node36" class="node">
<title>Node36</title>
<g id="a_node36"><a xlink:href="_tmp117_temp_sensor_8h.html" target="_top" xlink:title=" ">
<polygon fill="none" stroke="black" points="795,-112.5 795,-131.5 911,-131.5 911,-112.5 795,-112.5"/>
<text text-anchor="middle" x="853" y="-119.5" font-family="Helvetica,sans-Serif" font-size="10.00">Tmp117TempSensor.h</text>
</a>
</g>
</g>
<!-- Node1&#45;&gt;Node36 -->
<g id="edge45" class="edge">
<title>Node1&#45;&gt;Node36</title>
<path fill="none" stroke="midnightblue" d="M1098.73,-168.44C1047.26,-158.92 964.11,-143.55 909,-133.36"/>
<polygon fill="midnightblue" stroke="midnightblue" points="909.52,-129.89 899.05,-131.52 908.25,-136.78 909.52,-129.89"/>
</g>
<!-- Node37 -->
<g id="node37" class="node">
<title>Node37</title>
<g id="a_node37"><a xlink:href="_dht22_humid_sensor_8h.html" target="_top" xlink:title=" ">
<polygon fill="none" stroke="black" points="929,-112.5 929,-131.5 1041,-131.5 1041,-112.5 929,-112.5"/>
<text text-anchor="middle" x="985" y="-119.5" font-family="Helvetica,sans-Serif" font-size="10.00">Dht22HumidSensor.h</text>
</a>
</g>
</g>
<!-- Node1&#45;&gt;Node37 -->
<g id="edge47" class="edge">
<title>Node1&#45;&gt;Node37</title>
<path fill="none" stroke="midnightblue" d="M1119.65,-168.44C1092.73,-159.36 1050,-144.94 1019.91,-134.78"/>
<polygon fill="midnightblue" stroke="midnightblue" points="1020.83,-131.4 1010.23,-131.52 1018.59,-138.03 1020.83,-131.4"/>
</g>
<!-- Node38 -->
<g id="node38" class="node">
<title>Node38</title>
<g id="a_node38"><a xlink:href="_air_flow_actuator_8h.html" target="_top" xlink:title=" ">
<polygon fill="none" stroke="black" points="1097.5,-112.5 1097.5,-131.5 1192.5,-131.5 1192.5,-112.5 1097.5,-112.5"/>
<text text-anchor="middle" x="1145" y="-119.5" font-family="Helvetica,sans-Serif" font-size="10.00">AirFlowActuator.h</text>
</a>
</g>
</g>
<!-- Node1&#45;&gt;Node38 -->
<g id="edge49" class="edge">
<title>Node1&#45;&gt;Node38</title>
<path fill="none" stroke="midnightblue" d="M1145,-168.08C1145,-161.01 1145,-150.86 1145,-141.99"/>
<polygon fill="midnightblue" stroke="midnightblue" points="1148.5,-141.75 1145,-131.75 1141.5,-141.75 1148.5,-141.75"/>
</g>
<!-- Node39 -->
<g id="node39" class="node">
<title>Node39</title>
<g id="a_node39"><a xlink:href="_dehumid_actuator_8h.html" target="_top" xlink:title=" ">
<polygon fill="none" stroke="black" points="1211,-112.5 1211,-131.5 1313,-131.5 1313,-112.5 1211,-112.5"/>
<text text-anchor="middle" x="1262" y="-119.5" font-family="Helvetica,sans-Serif" font-size="10.00">DehumidActuator.h</text>
</a>
</g>
</g>
<!-- Node1&#45;&gt;Node39 -->
<g id="edge51" class="edge">
<title>Node1&#45;&gt;Node39</title>
<path fill="none" stroke="midnightblue" d="M1163.54,-168.44C1182.62,-159.64 1212.57,-145.81 1234.44,-135.72"/>
<polygon fill="midnightblue" stroke="midnightblue" points="1235.93,-138.88 1243.55,-131.52 1233,-132.53 1235.93,-138.88"/>
</g>
<!-- Node40 -->
<g id="node40" class="node">
<title>Node40</title>
<g id="a_node40"><a xlink:href="_heat_actuator_8h.html" target="_top" xlink:title=" ">
<polygon fill="none" stroke="black" points="1331.5,-112.5 1331.5,-131.5 1414.5,-131.5 1414.5,-112.5 1331.5,-112.5"/>
<text text-anchor="middle" x="1373" y="-119.5" font-family="Helvetica,sans-Serif" font-size="10.00">HeatActuator.h</text>
</a>
</g>
</g>
<!-- Node1&#45;&gt;Node40 -->
<g id="edge53" class="edge">
<title>Node1&#45;&gt;Node40</title>
<path fill="none" stroke="midnightblue" d="M1181.13,-168.44C1220.65,-159.08 1284.1,-144.06 1327.11,-133.87"/>
<polygon fill="midnightblue" stroke="midnightblue" points="1328.12,-137.23 1337.04,-131.52 1326.5,-130.42 1328.12,-137.23"/>
</g>
<!-- Node41 -->
<g id="node41" class="node">
<title>Node41</title>
<g id="a_node41"><a xlink:href="_roller_actuator_8h.html" target="_top" xlink:title=" ">
<polygon fill="none" stroke="black" points="1433,-112.5 1433,-131.5 1521,-131.5 1521,-112.5 1433,-112.5"/>
<text text-anchor="middle" x="1477" y="-119.5" font-family="Helvetica,sans-Serif" font-size="10.00">RollerActuator.h</text>
</a>
</g>
</g>
<!-- Node1&#45;&gt;Node41 -->
<g id="edge55" class="edge">
<title>Node1&#45;&gt;Node41</title>
<path fill="none" stroke="midnightblue" d="M1191.74,-169.5C1244.99,-160.94 1334.91,-146.45 1422.91,-132.01"/>
<polygon fill="midnightblue" stroke="midnightblue" points="1423.5,-135.46 1432.8,-130.38 1422.36,-128.55 1423.5,-135.46"/>
</g>
<!-- Node11 -->
<g id="node11" class="node">
<title>Node11</title>
<g id="a_node11"><a xlink:href="_signal_8h.html" target="_top" xlink:title=" ">
<polygon fill="none" stroke="black" points="190.5,-56.5 190.5,-75.5 243.5,-75.5 243.5,-56.5 190.5,-56.5"/>
<text text-anchor="middle" x="217" y="-63.5" font-family="Helvetica,sans-Serif" font-size="10.00">Signal.h</text>
</a>
</g>
</g>
<!-- Node10&#45;&gt;Node11 -->
<g id="edge10" class="edge">
<title>Node10&#45;&gt;Node11</title>
<path fill="none" stroke="midnightblue" d="M710.63,-117.58C616.87,-107.97 351.51,-80.78 253.75,-70.77"/>
<polygon fill="midnightblue" stroke="midnightblue" points="254.05,-67.28 243.75,-69.74 253.34,-74.24 254.05,-67.28"/>
</g>
<!-- Node17 -->
<g id="node17" class="node">
<title>Node17</title>
<g id="a_node17"><a xlink:href="_env_8h.html" target="_top" xlink:title=" ">
<polygon fill="none" stroke="black" points="629.5,-56.5 629.5,-75.5 670.5,-75.5 670.5,-56.5 629.5,-56.5"/>
<text text-anchor="middle" x="650" y="-63.5" font-family="Helvetica,sans-Serif" font-size="10.00">Env.h</text>
</a>
</g>
</g>
<!-- Node10&#45;&gt;Node17 -->
<g id="edge18" class="edge">
<title>Node10&#45;&gt;Node17</title>
<path fill="none" stroke="midnightblue" d="M728.9,-112.32C714.1,-103.82 691.31,-90.73 674.02,-80.8"/>
<polygon fill="midnightblue" stroke="midnightblue" points="675.48,-77.6 665.07,-75.65 671.99,-83.67 675.48,-77.6"/>
</g>
<!-- Node21 -->
<g id="node21" class="node">
<title>Node21</title>
<g id="a_node21"><a xlink:href="_session_time_8h.html" target="_top" xlink:title=" ">
<polygon fill="none" stroke="black" points="529,-56.5 529,-75.5 611,-75.5 611,-56.5 529,-56.5"/>
<text text-anchor="middle" x="570" y="-63.5" font-family="Helvetica,sans-Serif" font-size="10.00">SessionTime.h</text>
</a>
</g>
</g>
<!-- Node10&#45;&gt;Node21 -->
<g id="edge23" class="edge">
<title>Node10&#45;&gt;Node21</title>
<path fill="none" stroke="midnightblue" d="M716.43,-112.44C686.9,-103.28 639.88,-88.69 607.12,-78.52"/>
<polygon fill="midnightblue" stroke="midnightblue" points="608.03,-75.14 597.44,-75.52 605.96,-81.82 608.03,-75.14"/>
</g>
<!-- Node23 -->
<g id="node23" class="node">
<title>Node23</title>
<g id="a_node23"><a xlink:href="_sensor_8h.html" target="_top" xlink:title=" ">
<polygon fill="none" stroke="black" points="957,-56.5 957,-75.5 1013,-75.5 1013,-56.5 957,-56.5"/>
<text text-anchor="middle" x="985" y="-63.5" font-family="Helvetica,sans-Serif" font-size="10.00">Sensor.h</text>
</a>
</g>
</g>
<!-- Node10&#45;&gt;Node23 -->
<g id="edge28" class="edge">
<title>Node10&#45;&gt;Node23</title>
<path fill="none" stroke="midnightblue" d="M777.08,-113.82C817.29,-105.06 887.18,-89.71 947,-76 947.1,-75.98 947.2,-75.95 947.3,-75.93"/>
<polygon fill="midnightblue" stroke="midnightblue" points="947.84,-79.4 956.79,-73.73 946.26,-72.58 947.84,-79.4"/>
</g>
<!-- Node24 -->
<g id="node24" class="node">
<title>Node24</title>
<g id="a_node24"><a xlink:href="_actuator_8h.html" target="_top" xlink:title=" ">
<polygon fill="none" stroke="black" points="1286,-56.5 1286,-75.5 1348,-75.5 1348,-56.5 1286,-56.5"/>
<text text-anchor="middle" x="1317" y="-63.5" font-family="Helvetica,sans-Serif" font-size="10.00">Actuator.h</text>
</a>
</g>
</g>
<!-- Node10&#45;&gt;Node24 -->
<g id="edge29" class="edge">
<title>Node10&#45;&gt;Node24</title>
<path fill="none" stroke="midnightblue" d="M777.4,-113.44C780.3,-112.91 783.2,-112.42 786,-112 967.33,-85 1186.09,-72.84 1275.69,-68.72"/>
<polygon fill="midnightblue" stroke="midnightblue" points="1275.89,-72.21 1285.72,-68.27 1275.57,-65.22 1275.89,-72.21"/>
</g>
<!-- Node25 -->
<g id="node25" class="node">
<title>Node25</title>
<g id="a_node25"><a xlink:href="_display_client_8h.html" target="_top" xlink:title=" ">
<polygon fill="none" stroke="black" points="855.5,-56.5 855.5,-75.5 938.5,-75.5 938.5,-56.5 855.5,-56.5"/>
<text text-anchor="middle" x="897" y="-63.5" font-family="Helvetica,sans-Serif" font-size="10.00">DisplayClient.h</text>
</a>
</g>
</g>
<!-- Node10&#45;&gt;Node25 -->
<g id="edge31" class="edge">
<title>Node10&#45;&gt;Node25</title>
<path fill="none" stroke="midnightblue" d="M768.24,-112.44C793.87,-103.4 834.49,-89.06 863.24,-78.92"/>
<polygon fill="midnightblue" stroke="midnightblue" points="864.61,-82.15 872.87,-75.52 862.28,-75.54 864.61,-82.15"/>
</g>
<!-- Node11&#45;&gt;Node4 -->
<g id="edge16" class="edge">
<title>Node11&#45;&gt;Node4</title>
<path fill="none" stroke="midnightblue" d="M228.09,-56.32C238.49,-48.18 254.26,-35.84 266.72,-26.09"/>
<polygon fill="midnightblue" stroke="midnightblue" points="268.99,-28.75 274.71,-19.83 264.68,-23.24 268.99,-28.75"/>
</g>
<!-- Node11&#45;&gt;Node11 -->
<g id="edge15" class="edge">
<title>Node11&#45;&gt;Node11</title>
<path fill="none" stroke="midnightblue" d="M236.21,-75.57C249.03,-78.27 261.5,-75.08 261.5,-66 261.5,-59.4 254.92,-55.92 246.4,-55.54"/>
<polygon fill="midnightblue" stroke="midnightblue" points="245.87,-52.07 236.21,-56.43 246.48,-59.04 245.87,-52.07"/>
</g>
<!-- Node12 -->
<g id="node12" class="node">
<title>Node12</title>
<g id="a_node12"><a xlink:title=" ">
<polygon fill="none" stroke="#bfbfbf" points="0,-0.5 0,-19.5 46,-19.5 46,-0.5 0,-0.5"/>
<text text-anchor="middle" x="23" y="-7.5" font-family="Helvetica,sans-Serif" font-size="10.00">atomic</text>
</a>
</g>
</g>
<!-- Node11&#45;&gt;Node12 -->
<g id="edge11" class="edge">
<title>Node11&#45;&gt;Node12</title>
<path fill="none" stroke="midnightblue" d="M190.33,-57.62C160.1,-49.25 109.08,-35.1 56,-20.27"/>
<polygon fill="midnightblue" stroke="midnightblue" points="56.64,-16.82 46.07,-17.5 54.76,-23.56 56.64,-16.82"/>
</g>
<!-- Node13 -->
<g id="node13" class="node">
<title>Node13</title>
<g id="a_node13"><a xlink:title=" ">
<polygon fill="none" stroke="#bfbfbf" points="64.5,-0.5 64.5,-19.5 111.5,-19.5 111.5,-0.5 64.5,-0.5"/>
<text text-anchor="middle" x="88" y="-7.5" font-family="Helvetica,sans-Serif" font-size="10.00">chrono</text>
</a>
</g>
</g>
<!-- Node11&#45;&gt;Node13 -->
<g id="edge12" class="edge">
<title>Node11&#45;&gt;Node13</title>
<path fill="none" stroke="midnightblue" d="M196.56,-56.44C175.33,-47.56 141.9,-33.56 117.75,-23.45"/>
<polygon fill="midnightblue" stroke="midnightblue" points="118.92,-20.15 108.34,-19.52 116.22,-26.61 118.92,-20.15"/>
</g>
<!-- Node14 -->
<g id="node14" class="node">
<title>Node14</title>
<g id="a_node14"><a xlink:title=" ">
<polygon fill="none" stroke="#bfbfbf" points="129.5,-0.5 129.5,-19.5 174.5,-19.5 174.5,-0.5 129.5,-0.5"/>
<text text-anchor="middle" x="152" y="-7.5" font-family="Helvetica,sans-Serif" font-size="10.00">thread</text>
</a>
</g>
</g>
<!-- Node11&#45;&gt;Node14 -->
<g id="edge13" class="edge">
<title>Node11&#45;&gt;Node14</title>
<path fill="none" stroke="midnightblue" d="M206.56,-56.32C196.85,-48.26 182.18,-36.08 170.5,-26.37"/>
<polygon fill="midnightblue" stroke="midnightblue" points="172.56,-23.53 162.63,-19.83 168.09,-28.92 172.56,-23.53"/>
</g>
<!-- Node15 -->
<g id="node15" class="node">
<title>Node15</title>
<g id="a_node15"><a xlink:title=" ">
<polygon fill="none" stroke="#bfbfbf" points="192.5,-0.5 192.5,-19.5 241.5,-19.5 241.5,-0.5 192.5,-0.5"/>
<text text-anchor="middle" x="217" y="-7.5" font-family="Helvetica,sans-Serif" font-size="10.00">cassert</text>
</a>
</g>
</g>
<!-- Node11&#45;&gt;Node15 -->
<g id="edge14" class="edge">
<title>Node11&#45;&gt;Node15</title>
<path fill="none" stroke="midnightblue" d="M217,-56.08C217,-49.01 217,-38.86 217,-29.99"/>
<polygon fill="midnightblue" stroke="midnightblue" points="220.5,-29.75 217,-19.75 213.5,-29.75 220.5,-29.75"/>
</g>
<!-- Node16 -->
<g id="node16" class="node">
<title>Node16</title>
<g id="a_node16"><a xlink:href="_singleton_8h.html" target="_top" xlink:title=" ">
<polygon fill="none" stroke="black" points="330.5,-0.5 330.5,-19.5 397.5,-19.5 397.5,-0.5 330.5,-0.5"/>
<text text-anchor="middle" x="364" y="-7.5" font-family="Helvetica,sans-Serif" font-size="10.00">Singleton.h</text>
</a>
</g>
</g>
<!-- Node11&#45;&gt;Node16 -->
<g id="edge17" class="edge">
<title>Node11&#45;&gt;Node16</title>
<path fill="none" stroke="midnightblue" d="M240.29,-56.44C264.81,-47.44 303.6,-33.19 331.2,-23.05"/>
<polygon fill="midnightblue" stroke="midnightblue" points="332.64,-26.25 340.82,-19.52 330.22,-19.68 332.64,-26.25"/>
</g>
<!-- Node17&#45;&gt;Node16 -->
<g id="edge22" class="edge">
<title>Node17&#45;&gt;Node16</title>
<path fill="none" stroke="midnightblue" d="M629.43,-58.46C626.29,-57.57 623.07,-56.72 620,-56 529.61,-34.89 503.08,-37.62 407.84,-20.08"/>
<polygon fill="midnightblue" stroke="midnightblue" points="408.25,-16.6 397.78,-18.2 406.96,-23.48 408.25,-16.6"/>
</g>
<!-- Node18 -->
<g id="node18" class="node">
<title>Node18</title>
<g id="a_node18"><a xlink:title=" ">
<polygon fill="none" stroke="#bfbfbf" points="478,-0.5 478,-19.5 580,-19.5 580,-0.5 478,-0.5"/>
<text text-anchor="middle" x="529" y="-7.5" font-family="Helvetica,sans-Serif" font-size="10.00">jsoncpp/json/json.h</text>
</a>
</g>
</g>
<!-- Node17&#45;&gt;Node18 -->
<g id="edge19" class="edge">
<title>Node17&#45;&gt;Node18</title>
<path fill="none" stroke="midnightblue" d="M630.83,-56.44C611.09,-47.64 580.11,-33.81 557.51,-23.72"/>
<polygon fill="midnightblue" stroke="midnightblue" points="558.64,-20.4 548.08,-19.52 555.79,-26.79 558.64,-20.4"/>
</g>
<!-- Node19 -->
<g id="node19" class="node">
<title>Node19</title>
<g id="a_node19"><a xlink:title=" ">
<polygon fill="none" stroke="#bfbfbf" points="598.5,-0.5 598.5,-19.5 639.5,-19.5 639.5,-0.5 598.5,-0.5"/>
<text text-anchor="middle" x="619" y="-7.5" font-family="Helvetica,sans-Serif" font-size="10.00">string</text>
</a>
</g>
</g>
<!-- Node17&#45;&gt;Node19 -->
<g id="edge20" class="edge">
<title>Node17&#45;&gt;Node19</title>
<path fill="none" stroke="midnightblue" d="M644.88,-56.08C640.59,-48.61 634.34,-37.72 629.06,-28.52"/>
<polygon fill="midnightblue" stroke="midnightblue" points="632.04,-26.68 624.02,-19.75 625.97,-30.17 632.04,-26.68"/>
</g>
<!-- Node20 -->
<g id="node20" class="node">
<title>Node20</title>
<g id="a_node20"><a xlink:title=" ">
<polygon fill="none" stroke="#bfbfbf" points="658,-0.5 658,-19.5 702,-19.5 702,-0.5 658,-0.5"/>
<text text-anchor="middle" x="680" y="-7.5" font-family="Helvetica,sans-Serif" font-size="10.00">vector</text>
</a>
</g>
</g>
<!-- Node17&#45;&gt;Node20 -->
<g id="edge21" class="edge">
<title>Node17&#45;&gt;Node20</title>
<path fill="none" stroke="midnightblue" d="M654.95,-56.08C659.1,-48.61 665.15,-37.72 670.27,-28.52"/>
<polygon fill="midnightblue" stroke="midnightblue" points="673.34,-30.19 675.14,-19.75 667.22,-26.79 673.34,-30.19"/>
</g>
<!-- Node21&#45;&gt;Node4 -->
<g id="edge24" class="edge">
<title>Node21&#45;&gt;Node4</title>
<path fill="none" stroke="midnightblue" d="M528.91,-57.95C472.7,-48.24 373.78,-30.94 322.27,-20.13"/>
<polygon fill="midnightblue" stroke="midnightblue" points="322.84,-16.67 312.32,-17.99 321.37,-23.51 322.84,-16.67"/>
</g>
<!-- Node21&#45;&gt;Node16 -->
<g id="edge27" class="edge">
<title>Node21&#45;&gt;Node16</title>
<path fill="none" stroke="midnightblue" d="M537.36,-56.44C501.95,-47.16 445.29,-32.31 406.45,-22.13"/>
<polygon fill="midnightblue" stroke="midnightblue" points="407.05,-18.67 396.49,-19.52 405.27,-25.44 407.05,-18.67"/>
</g>
<!-- Node21&#45;&gt;Node19 -->
<g id="edge26" class="edge">
<title>Node21&#45;&gt;Node19</title>
<path fill="none" stroke="midnightblue" d="M578.09,-56.08C585.16,-48.3 595.59,-36.8 604.15,-27.37"/>
<polygon fill="midnightblue" stroke="midnightblue" points="606.93,-29.51 611.06,-19.75 601.75,-24.8 606.93,-29.51"/>
</g>
<!-- Node22 -->
<g id="node22" class="node">
<title>Node22</title>
<g id="a_node22"><a xlink:title=" ">
<polygon fill="none" stroke="#bfbfbf" points="416,-0.5 416,-19.5 460,-19.5 460,-0.5 416,-0.5"/>
<text text-anchor="middle" x="438" y="-7.5" font-family="Helvetica,sans-Serif" font-size="10.00">time.h</text>
</a>
</g>
</g>
<!-- Node21&#45;&gt;Node22 -->
<g id="edge25" class="edge">
<title>Node21&#45;&gt;Node22</title>
<path fill="none" stroke="midnightblue" d="M549.08,-56.44C527.26,-47.52 492.85,-33.44 468.11,-23.32"/>
<polygon fill="midnightblue" stroke="midnightblue" points="469.4,-20.06 458.82,-19.52 466.75,-26.54 469.4,-20.06"/>
</g>
<!-- Node24&#45;&gt;Node6 -->
<g id="edge30" class="edge">
<title>Node24&#45;&gt;Node6</title>
<path fill="none" stroke="midnightblue" d="M1346.79,-56.44C1379.49,-47.05 1432.05,-31.95 1467.52,-21.77"/>
<polygon fill="midnightblue" stroke="midnightblue" points="1468.85,-25.03 1477.49,-18.9 1466.91,-18.3 1468.85,-25.03"/>
</g>
<!-- Node25&#45;&gt;Node4 -->
<g id="edge35" class="edge">
<title>Node25&#45;&gt;Node4</title>
<path fill="none" stroke="midnightblue" d="M855.11,-62.68C743.84,-56.36 441.8,-38.21 322.25,-19.88"/>
<polygon fill="midnightblue" stroke="midnightblue" points="322.7,-16.41 312.27,-18.28 321.59,-23.32 322.7,-16.41"/>
</g>
<!-- Node25&#45;&gt;Node5 -->
<g id="edge32" class="edge">
<title>Node25&#45;&gt;Node5</title>
<path fill="none" stroke="midnightblue" d="M938.69,-57.24C941.84,-56.78 944.96,-56.36 948,-56 1206.89,-25.4 1278.51,-61.06 1540.06,-19.79"/>
<polygon fill="midnightblue" stroke="midnightblue" points="1540.92,-23.2 1550.24,-18.16 1539.81,-16.29 1540.92,-23.2"/>
</g>
<!-- Node25&#45;&gt;Node19 -->
<g id="edge44" class="edge">
<title>Node25&#45;&gt;Node19</title>
<path fill="none" stroke="midnightblue" d="M855.46,-58.92C807.99,-51.65 727.83,-38.4 649.6,-19.9"/>
<polygon fill="midnightblue" stroke="midnightblue" points="650.11,-16.43 639.57,-17.5 648.48,-23.24 650.11,-16.43"/>
</g>
<!-- Node26 -->
<g id="node26" class="node">
<title>Node26</title>
<g id="a_node26"><a xlink:title=" ">
<polygon fill="none" stroke="#bfbfbf" points="720,-0.5 720,-19.5 766,-19.5 766,-0.5 720,-0.5"/>
<text text-anchor="middle" x="743" y="-7.5" font-family="Helvetica,sans-Serif" font-size="10.00">stdio.h</text>
</a>
</g>
</g>
<!-- Node25&#45;&gt;Node26 -->
<g id="edge33" class="edge">
<title>Node25&#45;&gt;Node26</title>
<path fill="none" stroke="midnightblue" d="M872.6,-56.44C846.5,-47.29 804.96,-32.73 775.97,-22.56"/>
<polygon fill="midnightblue" stroke="midnightblue" points="776.87,-19.17 766.28,-19.16 774.56,-25.77 776.87,-19.17"/>
</g>
<!-- Node27 -->
<g id="node27" class="node">
<title>Node27</title>
<g id="a_node27"><a xlink:title=" ">
<polygon fill="none" stroke="#bfbfbf" points="784,-0.5 784,-19.5 832,-19.5 832,-0.5 784,-0.5"/>
<text text-anchor="middle" x="808" y="-7.5" font-family="Helvetica,sans-Serif" font-size="10.00">stdlib.h</text>
</a>
</g>
</g>
<!-- Node25&#45;&gt;Node27 -->
<g id="edge34" class="edge">
<title>Node25&#45;&gt;Node27</title>
<path fill="none" stroke="midnightblue" d="M882.7,-56.32C868.82,-47.9 847.51,-34.97 831.2,-25.07"/>
<polygon fill="midnightblue" stroke="midnightblue" points="832.63,-21.85 822.26,-19.65 829,-27.83 832.63,-21.85"/>
</g>
<!-- Node28 -->
<g id="node28" class="node">
<title>Node28</title>
<g id="a_node28"><a xlink:title=" ">
<polygon fill="none" stroke="#bfbfbf" points="850.5,-0.5 850.5,-19.5 893.5,-19.5 893.5,-0.5 850.5,-0.5"/>
<text text-anchor="middle" x="872" y="-7.5" font-family="Helvetica,sans-Serif" font-size="10.00">fcntl.h</text>
</a>
</g>
</g>
<!-- Node25&#45;&gt;Node28 -->
<g id="edge36" class="edge">
<title>Node25&#45;&gt;Node28</title>
<path fill="none" stroke="midnightblue" d="M892.87,-56.08C889.49,-48.77 884.58,-38.18 880.38,-29.1"/>
<polygon fill="midnightblue" stroke="midnightblue" points="883.43,-27.36 876.05,-19.75 877.08,-30.3 883.43,-27.36"/>
</g>
<!-- Node29 -->
<g id="node29" class="node">
<title>Node29</title>
<g id="a_node29"><a xlink:title=" ">
<polygon fill="none" stroke="#bfbfbf" points="912,-0.5 912,-19.5 960,-19.5 960,-0.5 912,-0.5"/>
<text text-anchor="middle" x="936" y="-7.5" font-family="Helvetica,sans-Serif" font-size="10.00">errno.h</text>
</a>
</g>
</g>
<!-- Node25&#45;&gt;Node29 -->
<g id="edge37" class="edge">
<title>Node25&#45;&gt;Node29</title>
<path fill="none" stroke="midnightblue" d="M903.44,-56.08C908.95,-48.46 917.03,-37.26 923.76,-27.94"/>
<polygon fill="midnightblue" stroke="midnightblue" points="926.66,-29.91 929.68,-19.75 920.99,-25.81 926.66,-29.91"/>
</g>
<!-- Node30 -->
<g id="node30" class="node">
<title>Node30</title>
<g id="a_node30"><a xlink:title=" ">
<polygon fill="none" stroke="#bfbfbf" points="978.5,-0.5 978.5,-19.5 1045.5,-19.5 1045.5,-0.5 978.5,-0.5"/>
<text text-anchor="middle" x="1012" y="-7.5" font-family="Helvetica,sans-Serif" font-size="10.00">sys/types.h</text>
</a>
</g>
</g>
<!-- Node25&#45;&gt;Node30 -->
<g id="edge38" class="edge">
<title>Node25&#45;&gt;Node30</title>
<path fill="none" stroke="midnightblue" d="M915.22,-56.44C933.9,-47.68 963.16,-33.94 984.62,-23.86"/>
<polygon fill="midnightblue" stroke="midnightblue" points="986.3,-26.93 993.86,-19.52 983.32,-20.6 986.3,-26.93"/>
</g>
<!-- Node31 -->
<g id="node31" class="node">
<title>Node31</title>
<g id="a_node31"><a xlink:title=" ">
<polygon fill="none" stroke="#bfbfbf" points="1064,-0.5 1064,-19.5 1136,-19.5 1136,-0.5 1064,-0.5"/>
<text text-anchor="middle" x="1100" y="-7.5" font-family="Helvetica,sans-Serif" font-size="10.00">sys/socket.h</text>
</a>
</g>
</g>
<!-- Node25&#45;&gt;Node31 -->
<g id="edge39" class="edge">
<title>Node25&#45;&gt;Node31</title>
<path fill="none" stroke="midnightblue" d="M929.17,-56.44C964.06,-47.16 1019.89,-32.31 1058.17,-22.13"/>
<polygon fill="midnightblue" stroke="midnightblue" points="1059.22,-25.47 1067.98,-19.52 1057.42,-18.7 1059.22,-25.47"/>
</g>
<!-- Node32 -->
<g id="node32" class="node">
<title>Node32</title>
<g id="a_node32"><a xlink:title=" ">
<polygon fill="none" stroke="#bfbfbf" points="1154,-0.5 1154,-19.5 1218,-19.5 1218,-0.5 1154,-0.5"/>
<text text-anchor="middle" x="1186" y="-7.5" font-family="Helvetica,sans-Serif" font-size="10.00">arpa/inet.h</text>
</a>
</g>
</g>
<!-- Node25&#45;&gt;Node32 -->
<g id="edge40" class="edge">
<title>Node25&#45;&gt;Node32</title>
<path fill="none" stroke="midnightblue" d="M938.88,-57.59C995,-47.63 1092.63,-30.2 1143.89,-20.15"/>
<polygon fill="midnightblue" stroke="midnightblue" points="1144.67,-23.57 1153.79,-18.19 1143.3,-16.7 1144.67,-23.57"/>
</g>
<!-- Node33 -->
<g id="node33" class="node">
<title>Node33</title>
<g id="a_node33"><a xlink:title=" ">
<polygon fill="none" stroke="#bfbfbf" points="1236.5,-0.5 1236.5,-19.5 1301.5,-19.5 1301.5,-0.5 1236.5,-0.5"/>
<text text-anchor="middle" x="1269" y="-7.5" font-family="Helvetica,sans-Serif" font-size="10.00">netinet/in.h</text>
</a>
</g>
</g>
<!-- Node25&#45;&gt;Node33 -->
<g id="edge41" class="edge">
<title>Node25&#45;&gt;Node33</title>
<path fill="none" stroke="midnightblue" d="M938.72,-57.47C941.86,-56.96 944.98,-56.46 948,-56 1068.46,-37.61 1102.08,-40.93 1226.57,-19.93"/>
<polygon fill="midnightblue" stroke="midnightblue" points="1227.22,-23.37 1236.49,-18.24 1226.05,-16.47 1227.22,-23.37"/>
</g>
<!-- Node34 -->
<g id="node34" class="node">
<title>Node34</title>
<g id="a_node34"><a xlink:title=" ">
<polygon fill="none" stroke="#bfbfbf" points="1319.5,-0.5 1319.5,-19.5 1390.5,-19.5 1390.5,-0.5 1319.5,-0.5"/>
<text text-anchor="middle" x="1355" y="-7.5" font-family="Helvetica,sans-Serif" font-size="10.00">netinet/tcp.h</text>
</a>
</g>
</g>
<!-- Node25&#45;&gt;Node34 -->
<g id="edge42" class="edge">
<title>Node25&#45;&gt;Node34</title>
<path fill="none" stroke="midnightblue" d="M938.71,-57.38C941.85,-56.88 944.97,-56.42 948,-56 1104.89,-34.39 1148.32,-43.49 1308.95,-20.01"/>
<polygon fill="midnightblue" stroke="midnightblue" points="1309.82,-23.42 1319.19,-18.49 1308.79,-16.49 1309.82,-23.42"/>
</g>
<!-- Node35 -->
<g id="node35" class="node">
<title>Node35</title>
<g id="a_node35"><a xlink:title=" ">
<polygon fill="none" stroke="#bfbfbf" points="1409,-0.5 1409,-19.5 1459,-19.5 1459,-0.5 1409,-0.5"/>
<text text-anchor="middle" x="1434" y="-7.5" font-family="Helvetica,sans-Serif" font-size="10.00">netdb.h</text>
</a>
</g>
</g>
<!-- Node25&#45;&gt;Node35 -->
<g id="edge43" class="edge">
<title>Node25&#45;&gt;Node35</title>
<path fill="none" stroke="midnightblue" d="M938.7,-57.31C941.84,-56.83 944.97,-56.39 948,-56 1147.46,-30.5 1200.67,-53.16 1399,-20 1399.1,-19.98 1399.2,-19.97 1399.3,-19.95"/>
<polygon fill="midnightblue" stroke="midnightblue" points="1399.77,-23.43 1408.88,-18.01 1398.38,-16.56 1399.77,-23.43"/>
</g>
<!-- Node36&#45;&gt;Node23 -->
<g id="edge46" class="edge">
<title>Node36&#45;&gt;Node23</title>
<path fill="none" stroke="midnightblue" d="M873.92,-112.44C895.74,-103.52 930.15,-89.44 954.89,-79.32"/>
<polygon fill="midnightblue" stroke="midnightblue" points="956.25,-82.54 964.18,-75.52 953.6,-76.06 956.25,-82.54"/>
</g>
<!-- Node37&#45;&gt;Node23 -->
<g id="edge48" class="edge">
<title>Node37&#45;&gt;Node23</title>
<path fill="none" stroke="midnightblue" d="M985,-112.08C985,-105.01 985,-94.86 985,-85.99"/>
<polygon fill="midnightblue" stroke="midnightblue" points="988.5,-85.75 985,-75.75 981.5,-85.75 988.5,-85.75"/>
</g>
<!-- Node38&#45;&gt;Node24 -->
<g id="edge50" class="edge">
<title>Node38&#45;&gt;Node24</title>
<path fill="none" stroke="midnightblue" d="M1172.25,-112.44C1201.44,-103.28 1247.92,-88.69 1280.31,-78.52"/>
<polygon fill="midnightblue" stroke="midnightblue" points="1281.38,-81.85 1289.87,-75.52 1279.28,-75.17 1281.38,-81.85"/>
</g>
<!-- Node39&#45;&gt;Node24 -->
<g id="edge52" class="edge">
<title>Node39&#45;&gt;Node24</title>
<path fill="none" stroke="midnightblue" d="M1271.08,-112.08C1279.17,-104.14 1291.2,-92.34 1300.91,-82.8"/>
<polygon fill="midnightblue" stroke="midnightblue" points="1303.4,-85.25 1308.09,-75.75 1298.5,-80.26 1303.4,-85.25"/>
</g>
<!-- Node40&#45;&gt;Node24 -->
<g id="edge54" class="edge">
<title>Node40&#45;&gt;Node24</title>
<path fill="none" stroke="midnightblue" d="M1364,-112.32C1355.81,-104.42 1343.49,-92.55 1333.53,-82.94"/>
<polygon fill="midnightblue" stroke="midnightblue" points="1335.79,-80.26 1326.16,-75.83 1330.93,-85.29 1335.79,-80.26"/>
</g>
<!-- Node41&#45;&gt;Node24 -->
<g id="edge56" class="edge">
<title>Node41&#45;&gt;Node24</title>
<path fill="none" stroke="midnightblue" d="M1451.65,-112.44C1424.73,-103.36 1382,-88.94 1351.91,-78.78"/>
<polygon fill="midnightblue" stroke="midnightblue" points="1352.83,-75.4 1342.23,-75.52 1350.59,-82.03 1352.83,-75.4"/>
</g>
</g>
</svg>
