<?xml version="1.0" encoding="UTF-8" standalone="no"?>
<!DOCTYPE svg PUBLIC "-//W3C//DTD SVG 1.1//EN"
 "http://www.w3.org/Graphics/SVG/1.1/DTD/svg11.dtd">
<!-- Generated by graphviz version 2.48.0 (20210717.1556)
 -->
<!-- Title: cfgFileName Pages: 1 -->
<svg width="311pt" height="104pt"
 viewBox="0.00 0.00 311.00 104.00" xmlns="http://www.w3.org/2000/svg" xmlns:xlink="http://www.w3.org/1999/xlink">
<g id="graph0" class="graph" transform="scale(1 1) rotate(0) translate(4 100)">
<title>cfgFileName</title>
<!-- Node1 -->
<g id="node1" class="node">
<title>Node1</title>
<g id="a_node1"><a xlink:title=" ">
<polygon fill="#bfbfbf" stroke="black" points="230,-38.5 230,-57.5 303,-57.5 303,-38.5 230,-38.5"/>
<text text-anchor="middle" x="266.5" y="-45.5" font-family="Helvetica,sans-Serif" font-size="10.00">cfgFileName</text>
</a>
</g>
</g>
<!-- Node2 -->
<g id="node2" class="node">
<title>Node2</title>
<g id="a_node2"><a xlink:href="class_env.html#a25e1717e8826032795d713a474e548b9" target="_top" xlink:title=" ">
<polygon fill="none" stroke="black" points="74,-76.5 74,-95.5 194,-95.5 194,-76.5 74,-76.5"/>
<text text-anchor="middle" x="134" y="-83.5" font-family="Helvetica,sans-Serif" font-size="10.00">Env::_readFromCfgFile</text>
</a>
</g>
</g>
<!-- Node1&#45;&gt;Node2 -->
<g id="edge1" class="edge">
<title>Node1&#45;&gt;Node2</title>
<path fill="none" stroke="midnightblue" d="M222.95,-60.39C205.08,-65.59 184.61,-71.55 167.92,-76.41"/>
<polygon fill="midnightblue" stroke="midnightblue" points="223.95,-63.75 232.57,-57.59 221.99,-57.02 223.95,-63.75"/>
</g>
<!-- Node3 -->
<g id="node3" class="node">
<title>Node3</title>
<g id="a_node3"><a xlink:href="class_incubator.html#ae7355111b46b8cd6d2c88c5ba76fb084" target="_top" xlink:title=" ">
<polygon fill="none" stroke="black" points="95.5,-38.5 95.5,-57.5 172.5,-57.5 172.5,-38.5 95.5,-38.5"/>
<text text-anchor="middle" x="134" y="-45.5" font-family="Helvetica,sans-Serif" font-size="10.00">Incubator::init</text>
</a>
</g>
</g>
<!-- Node1&#45;&gt;Node3 -->
<g id="edge2" class="edge">
<title>Node1&#45;&gt;Node3</title>
<path fill="none" stroke="midnightblue" d="M219.57,-48C204.3,-48 187.49,-48 172.9,-48"/>
<polygon fill="midnightblue" stroke="midnightblue" points="219.84,-51.5 229.84,-48 219.84,-44.5 219.84,-51.5"/>
</g>
<!-- Node5 -->
<g id="node5" class="node">
<title>Node5</title>
<g id="a_node5"><a xlink:href="class_env.html#a4b566e9606cee1c40837311d04c3c521" target="_top" xlink:title=" ">
<polygon fill="none" stroke="black" points="101.5,-0.5 101.5,-19.5 166.5,-19.5 166.5,-0.5 101.5,-0.5"/>
<text text-anchor="middle" x="134" y="-7.5" font-family="Helvetica,sans-Serif" font-size="10.00">Env::setUp</text>
</a>
</g>
</g>
<!-- Node1&#45;&gt;Node5 -->
<g id="edge4" class="edge">
<title>Node1&#45;&gt;Node5</title>
<path fill="none" stroke="midnightblue" d="M222.72,-35.54C204.42,-30.21 183.43,-24.1 166.57,-19.19"/>
<polygon fill="midnightblue" stroke="midnightblue" points="221.99,-38.98 232.57,-38.41 223.95,-32.25 221.99,-38.98"/>
</g>
<!-- Node4 -->
<g id="node4" class="node">
<title>Node4</title>
<g id="a_node4"><a xlink:href="_incubator_8cpp.html#a0ddf1224851353fc92bfbff6f499fa97" target="_top" xlink:title=" ">
<polygon fill="none" stroke="black" points="0,-38.5 0,-57.5 38,-57.5 38,-38.5 0,-38.5"/>
<text text-anchor="middle" x="19" y="-45.5" font-family="Helvetica,sans-Serif" font-size="10.00">main</text>
</a>
</g>
</g>
<!-- Node3&#45;&gt;Node4 -->
<g id="edge3" class="edge">
<title>Node3&#45;&gt;Node4</title>
<path fill="none" stroke="midnightblue" d="M85.2,-48C68.57,-48 50.9,-48 38.16,-48"/>
<polygon fill="midnightblue" stroke="midnightblue" points="85.37,-51.5 95.37,-48 85.37,-44.5 85.37,-51.5"/>
</g>
</g>
</svg>
