<?xml version="1.0" encoding="UTF-8" standalone="no"?>
<!DOCTYPE svg PUBLIC "-//W3C//DTD SVG 1.1//EN"
 "http://www.w3.org/Graphics/SVG/1.1/DTD/svg11.dtd">
<!-- Generated by graphviz version 2.50.0 (20211204.2007)
 -->
<!-- Title: src/Incubator.cpp Pages: 1 -->
<svg width="2088pt" height="196pt"
 viewBox="0.00 0.00 2087.50 196.00" xmlns="http://www.w3.org/2000/svg" xmlns:xlink="http://www.w3.org/1999/xlink">
<g id="graph0" class="graph" transform="scale(1 1) rotate(0) translate(4 192)">
<title>src/Incubator.cpp</title>
<!-- Node1 -->
<g id="node1" class="node">
<title>Node1</title>
<g id="a_node1"><a xlink:title=" ">
<polygon fill="#bfbfbf" stroke="black" points="1029.5,-168.5 1029.5,-187.5 1121.5,-187.5 1121.5,-168.5 1029.5,-168.5"/>
<text text-anchor="middle" x="1075.5" y="-175.5" font-family="Helvetica,sans-Serif" font-size="10.00">src/Incubator.cpp</text>
</a>
</g>
</g>
<!-- Node2 -->
<g id="node2" class="node">
<title>Node2</title>
<g id="a_node2"><a xlink:title=" ">
<polygon fill="none" stroke="#bfbfbf" points="310,-112.5 310,-131.5 423,-131.5 423,-112.5 310,-112.5"/>
<text text-anchor="middle" x="366.5" y="-119.5" font-family="Helvetica,sans-Serif" font-size="10.00">systemd/sd&#45;daemon.h</text>
</a>
</g>
</g>
<!-- Node1&#45;&gt;Node2 -->
<g id="edge1" class="edge">
<title>Node1&#45;&gt;Node2</title>
<path fill="none" stroke="midnightblue" d="M1029.33,-174.85C925,-169.76 662.84,-155.68 433.4,-132.14"/>
<polygon fill="midnightblue" stroke="midnightblue" points="433.5,-128.63 423.19,-131.08 432.78,-135.59 433.5,-128.63"/>
</g>
<!-- Node3 -->
<g id="node3" class="node">
<title>Node3</title>
<g id="a_node3"><a xlink:title=" ">
<polygon fill="none" stroke="#bfbfbf" points="441,-112.5 441,-131.5 490,-131.5 490,-112.5 441,-112.5"/>
<text text-anchor="middle" x="465.5" y="-119.5" font-family="Helvetica,sans-Serif" font-size="10.00">stdint.h</text>
</a>
</g>
</g>
<!-- Node1&#45;&gt;Node3 -->
<g id="edge2" class="edge">
<title>Node1&#45;&gt;Node3</title>
<path fill="none" stroke="midnightblue" d="M1029.34,-175.68C931.88,-172.38 698.12,-161.8 504.5,-132 503.04,-131.78 501.55,-131.53 500.06,-131.26"/>
<polygon fill="midnightblue" stroke="midnightblue" points="500.64,-127.81 490.15,-129.27 499.27,-134.67 500.64,-127.81"/>
</g>
<!-- Node4 -->
<g id="node4" class="node">
<title>Node4</title>
<g id="a_node4"><a xlink:title=" ">
<polygon fill="none" stroke="#bfbfbf" points="1001,-0.5 1001,-19.5 1052,-19.5 1052,-0.5 1001,-0.5"/>
<text text-anchor="middle" x="1026.5" y="-7.5" font-family="Helvetica,sans-Serif" font-size="10.00">unistd.h</text>
</a>
</g>
</g>
<!-- Node1&#45;&gt;Node4 -->
<g id="edge3" class="edge">
<title>Node1&#45;&gt;Node4</title>
<path fill="none" stroke="midnightblue" d="M1029.27,-175.17C929.41,-170.75 700.61,-157.86 677.5,-132 671.58,-125.37 672.16,-119.11 677.5,-112 682.36,-105.54 903.51,-44.58 991.21,-20.61"/>
<polygon fill="midnightblue" stroke="midnightblue" points="992.25,-23.96 1000.98,-17.95 990.41,-17.2 992.25,-23.96"/>
</g>
<!-- Node5 -->
<g id="node5" class="node">
<title>Node5</title>
<g id="a_node5"><a xlink:title=" ">
<polygon fill="none" stroke="#bfbfbf" points="0,-0.5 0,-19.5 49,-19.5 49,-0.5 0,-0.5"/>
<text text-anchor="middle" x="24.5" y="-7.5" font-family="Helvetica,sans-Serif" font-size="10.00">string.h</text>
</a>
</g>
</g>
<!-- Node1&#45;&gt;Node5 -->
<g id="edge4" class="edge">
<title>Node1&#45;&gt;Node5</title>
<path fill="none" stroke="midnightblue" d="M1029.39,-172.96C953.94,-166.12 799.48,-151.09 669.5,-132 399.69,-92.37 329.63,-80.55 59.44,-20.07"/>
<polygon fill="midnightblue" stroke="midnightblue" points="59.85,-16.58 49.33,-17.81 58.32,-23.41 59.85,-16.58"/>
</g>
<!-- Node6 -->
<g id="node6" class="node">
<title>Node6</title>
<g id="a_node6"><a xlink:title=" ">
<polygon fill="none" stroke="#bfbfbf" points="1837.5,-0.5 1837.5,-19.5 1891.5,-19.5 1891.5,-0.5 1837.5,-0.5"/>
<text text-anchor="middle" x="1864.5" y="-7.5" font-family="Helvetica,sans-Serif" font-size="10.00">iostream</text>
</a>
</g>
</g>
<!-- Node1&#45;&gt;Node6 -->
<g id="edge5" class="edge">
<title>Node1&#45;&gt;Node6</title>
<path fill="none" stroke="midnightblue" d="M1121.54,-176.16C1288.85,-172.89 1856.21,-159.8 1882.5,-132 1909.03,-103.95 1888.81,-54.73 1874.85,-28.54"/>
<polygon fill="midnightblue" stroke="midnightblue" points="1877.86,-26.75 1869.92,-19.73 1871.75,-30.16 1877.86,-26.75"/>
</g>
<!-- Node7 -->
<g id="node7" class="node">
<title>Node7</title>
<g id="a_node7"><a xlink:title=" ">
<polygon fill="none" stroke="#bfbfbf" points="770.5,-112.5 770.5,-131.5 822.5,-131.5 822.5,-112.5 770.5,-112.5"/>
<text text-anchor="middle" x="796.5" y="-119.5" font-family="Helvetica,sans-Serif" font-size="10.00">sstream</text>
</a>
</g>
</g>
<!-- Node1&#45;&gt;Node7 -->
<g id="edge6" class="edge">
<title>Node1&#45;&gt;Node7</title>
<path fill="none" stroke="midnightblue" d="M1029.44,-169.48C982.35,-161.58 906.9,-148.32 832.8,-132.17"/>
<polygon fill="midnightblue" stroke="midnightblue" points="833.34,-128.71 822.83,-129.98 831.84,-135.54 833.34,-128.71"/>
</g>
<!-- Node8 -->
<g id="node8" class="node">
<title>Node8</title>
<g id="a_node8"><a xlink:title=" ">
<polygon fill="none" stroke="#bfbfbf" points="840.5,-112.5 840.5,-131.5 890.5,-131.5 890.5,-112.5 840.5,-112.5"/>
<text text-anchor="middle" x="865.5" y="-119.5" font-family="Helvetica,sans-Serif" font-size="10.00">iomanip</text>
</a>
</g>
</g>
<!-- Node1&#45;&gt;Node8 -->
<g id="edge7" class="edge">
<title>Node1&#45;&gt;Node8</title>
<path fill="none" stroke="midnightblue" d="M1041.74,-168.46C1008.3,-159.98 955.37,-146.5 900.62,-132.28"/>
<polygon fill="midnightblue" stroke="midnightblue" points="901.3,-128.84 890.74,-129.71 899.54,-135.61 901.3,-128.84"/>
</g>
<!-- Node9 -->
<g id="node9" class="node">
<title>Node9</title>
<g id="a_node9"><a xlink:title=" ">
<polygon fill="none" stroke="#bfbfbf" points="909,-112.5 909,-131.5 950,-131.5 950,-112.5 909,-112.5"/>
<text text-anchor="middle" x="929.5" y="-119.5" font-family="Helvetica,sans-Serif" font-size="10.00">ctime</text>
</a>
</g>
</g>
<!-- Node1&#45;&gt;Node9 -->
<g id="edge8" class="edge">
<title>Node1&#45;&gt;Node9</title>
<path fill="none" stroke="midnightblue" d="M1052.37,-168.44C1027.3,-159.17 987.21,-144.35 959.69,-134.17"/>
<polygon fill="midnightblue" stroke="midnightblue" points="960.76,-130.83 950.17,-130.64 958.33,-137.4 960.76,-130.83"/>
</g>
<!-- Node10 -->
<g id="node10" class="node">
<title>Node10</title>
<g id="a_node10"><a xlink:href="_incubator_8h.html" target="_top" xlink:title=" ">
<polygon fill="none" stroke="black" points="687,-112.5 687,-131.5 752,-131.5 752,-112.5 687,-112.5"/>
<text text-anchor="middle" x="719.5" y="-119.5" font-family="Helvetica,sans-Serif" font-size="10.00">Incubator.h</text>
</a>
</g>
</g>
<!-- Node1&#45;&gt;Node10 -->
<g id="edge9" class="edge">
<title>Node1&#45;&gt;Node10</title>
<path fill="none" stroke="midnightblue" d="M1029.32,-171.39C969.93,-163.96 863.39,-149.86 762.11,-132"/>
<polygon fill="midnightblue" stroke="midnightblue" points="762.47,-128.51 752.02,-130.2 761.25,-135.4 762.47,-128.51"/>
</g>
<!-- Node36 -->
<g id="node36" class="node">
<title>Node36</title>
<g id="a_node36"><a xlink:href="_tmp117_temp_sensor_8h.html" target="_top" xlink:title=" ">
<polygon fill="none" stroke="black" points="1759.5,-112.5 1759.5,-131.5 1873.5,-131.5 1873.5,-112.5 1759.5,-112.5"/>
<text text-anchor="middle" x="1816.5" y="-119.5" font-family="Helvetica,sans-Serif" font-size="10.00">Tmp117TempSensor.h</text>
</a>
</g>
</g>
<!-- Node1&#45;&gt;Node36 -->
<g id="edge46" class="edge">
<title>Node1&#45;&gt;Node36</title>
<path fill="none" stroke="midnightblue" d="M1121.83,-175.01C1229.86,-170.15 1507.04,-156.29 1749.24,-132.06"/>
<polygon fill="midnightblue" stroke="midnightblue" points="1749.69,-135.53 1759.29,-131.05 1748.99,-128.57 1749.69,-135.53"/>
</g>
<!-- Node37 -->
<g id="node37" class="node">
<title>Node37</title>
<g id="a_node37"><a xlink:href="_dht22_humid_sensor_8h.html" target="_top" xlink:title=" ">
<polygon fill="none" stroke="black" points="1631.5,-112.5 1631.5,-131.5 1741.5,-131.5 1741.5,-112.5 1631.5,-112.5"/>
<text text-anchor="middle" x="1686.5" y="-119.5" font-family="Helvetica,sans-Serif" font-size="10.00">Dht22HumidSensor.h</text>
</a>
</g>
</g>
<!-- Node1&#45;&gt;Node37 -->
<g id="edge48" class="edge">
<title>Node1&#45;&gt;Node37</title>
<path fill="none" stroke="midnightblue" d="M1121.69,-174.1C1214.37,-168.09 1429.83,-153.14 1621.4,-132.06"/>
<polygon fill="midnightblue" stroke="midnightblue" points="1621.81,-135.54 1631.37,-130.96 1621.04,-128.58 1621.81,-135.54"/>
</g>
<!-- Node38 -->
<g id="node38" class="node">
<title>Node38</title>
<g id="a_node38"><a xlink:href="_air_flow_actuator_8h.html" target="_top" xlink:title=" ">
<polygon fill="none" stroke="black" points="1301.5,-112.5 1301.5,-131.5 1395.5,-131.5 1395.5,-112.5 1301.5,-112.5"/>
<text text-anchor="middle" x="1348.5" y="-119.5" font-family="Helvetica,sans-Serif" font-size="10.00">AirFlowActuator.h</text>
</a>
</g>
</g>
<!-- Node1&#45;&gt;Node38 -->
<g id="edge50" class="edge">
<title>Node1&#45;&gt;Node38</title>
<path fill="none" stroke="midnightblue" d="M1118.76,-168.44C1166.68,-158.96 1243.98,-143.67 1295.5,-133.48"/>
<polygon fill="midnightblue" stroke="midnightblue" points="1296.31,-136.89 1305.44,-131.52 1294.96,-130.02 1296.31,-136.89"/>
</g>
<!-- Node39 -->
<g id="node39" class="node">
<title>Node39</title>
<g id="a_node39"><a xlink:href="_dehumid_actuator_8h.html" target="_top" xlink:title=" ">
<polygon fill="none" stroke="black" points="1413.5,-112.5 1413.5,-131.5 1513.5,-131.5 1513.5,-112.5 1413.5,-112.5"/>
<text text-anchor="middle" x="1463.5" y="-119.5" font-family="Helvetica,sans-Serif" font-size="10.00">DehumidActuator.h</text>
</a>
</g>
</g>
<!-- Node1&#45;&gt;Node39 -->
<g id="edge52" class="edge">
<title>Node1&#45;&gt;Node39</title>
<path fill="none" stroke="midnightblue" d="M1121.57,-170.93C1183.3,-162.74 1296.53,-147.54 1403.32,-132.15"/>
<polygon fill="midnightblue" stroke="midnightblue" points="1403.9,-135.61 1413.3,-130.71 1402.9,-128.68 1403.9,-135.61"/>
</g>
<!-- Node40 -->
<g id="node40" class="node">
<title>Node40</title>
<g id="a_node40"><a xlink:href="_heat_actuator_8h.html" target="_top" xlink:title=" ">
<polygon fill="none" stroke="black" points="1531.5,-112.5 1531.5,-131.5 1613.5,-131.5 1613.5,-112.5 1531.5,-112.5"/>
<text text-anchor="middle" x="1572.5" y="-119.5" font-family="Helvetica,sans-Serif" font-size="10.00">HeatActuator.h</text>
</a>
</g>
</g>
<!-- Node1&#45;&gt;Node40 -->
<g id="edge54" class="edge">
<title>Node1&#45;&gt;Node40</title>
<path fill="none" stroke="midnightblue" d="M1121.65,-173.54C1201.16,-167.33 1369.28,-153.06 1521.35,-132.06"/>
<polygon fill="midnightblue" stroke="midnightblue" points="1521.92,-135.52 1531.34,-130.67 1520.95,-128.58 1521.92,-135.52"/>
</g>
<!-- Node41 -->
<g id="node41" class="node">
<title>Node41</title>
<g id="a_node41"><a xlink:href="_heat_flow_actuator_8h.html" target="_top" xlink:title=" ">
<polygon fill="none" stroke="black" points="968,-112.5 968,-131.5 1071,-131.5 1071,-112.5 968,-112.5"/>
<text text-anchor="middle" x="1019.5" y="-119.5" font-family="Helvetica,sans-Serif" font-size="10.00">HeatFlowActuator.h</text>
</a>
</g>
</g>
<!-- Node1&#45;&gt;Node41 -->
<g id="edge56" class="edge">
<title>Node1&#45;&gt;Node41</title>
<path fill="none" stroke="midnightblue" d="M1066.5,-168.32C1058.31,-160.42 1045.99,-148.55 1036.03,-138.94"/>
<polygon fill="midnightblue" stroke="midnightblue" points="1038.29,-136.26 1028.66,-131.83 1033.43,-141.29 1038.29,-136.26"/>
</g>
<!-- Node42 -->
<g id="node42" class="node">
<title>Node42</title>
<g id="a_node42"><a xlink:href="_roller_actuator_8h.html" target="_top" xlink:title=" ">
<polygon fill="none" stroke="black" points="1089.5,-112.5 1089.5,-131.5 1175.5,-131.5 1175.5,-112.5 1089.5,-112.5"/>
<text text-anchor="middle" x="1132.5" y="-119.5" font-family="Helvetica,sans-Serif" font-size="10.00">RollerActuator.h</text>
</a>
</g>
</g>
<!-- Node1&#45;&gt;Node42 -->
<g id="edge58" class="edge">
<title>Node1&#45;&gt;Node42</title>
<path fill="none" stroke="midnightblue" d="M1084.66,-168.32C1093,-160.42 1105.53,-148.55 1115.68,-138.94"/>
<polygon fill="midnightblue" stroke="midnightblue" points="1118.32,-141.25 1123.18,-131.83 1113.51,-136.17 1118.32,-141.25"/>
</g>
<!-- Node43 -->
<g id="node43" class="node">
<title>Node43</title>
<g id="a_node43"><a xlink:href="_humid_actuator_8h.html" target="_top" xlink:title=" ">
<polygon fill="none" stroke="black" points="1194,-112.5 1194,-131.5 1283,-131.5 1283,-112.5 1194,-112.5"/>
<text text-anchor="middle" x="1238.5" y="-119.5" font-family="Helvetica,sans-Serif" font-size="10.00">HumidActuator.h</text>
</a>
</g>
</g>
<!-- Node1&#45;&gt;Node43 -->
<g id="edge60" class="edge">
<title>Node1&#45;&gt;Node43</title>
<path fill="none" stroke="midnightblue" d="M1101.33,-168.44C1128.75,-159.36 1172.28,-144.94 1202.93,-134.78"/>
<polygon fill="midnightblue" stroke="midnightblue" points="1204.4,-137.98 1212.79,-131.52 1202.2,-131.34 1204.4,-137.98"/>
</g>
<!-- Node44 -->
<g id="node44" class="node">
<title>Node44</title>
<g id="a_node44"><a xlink:href="_temp_algo_8h.html" target="_top" xlink:title=" ">
<polygon fill="none" stroke="black" points="1923.5,-56.5 1923.5,-75.5 1991.5,-75.5 1991.5,-56.5 1923.5,-56.5"/>
<text text-anchor="middle" x="1957.5" y="-63.5" font-family="Helvetica,sans-Serif" font-size="10.00">TempAlgo.h</text>
</a>
</g>
</g>
<!-- Node1&#45;&gt;Node44 -->
<g id="edge62" class="edge">
<title>Node1&#45;&gt;Node44</title>
<path fill="none" stroke="midnightblue" d="M1121.55,-176.96C1287.21,-176.47 1846.72,-171.87 1915.5,-132 1933.26,-121.71 1944.78,-100.56 1951.18,-85.17"/>
<polygon fill="midnightblue" stroke="midnightblue" points="1954.52,-86.23 1954.81,-75.64 1947.98,-83.74 1954.52,-86.23"/>
</g>
<!-- Node11 -->
<g id="node11" class="node">
<title>Node11</title>
<g id="a_node11"><a xlink:title=" ">
<polygon fill="none" stroke="#bfbfbf" points="1411.5,-0.5 1411.5,-19.5 1455.5,-19.5 1455.5,-0.5 1411.5,-0.5"/>
<text text-anchor="middle" x="1433.5" y="-7.5" font-family="Helvetica,sans-Serif" font-size="10.00">vector</text>
</a>
</g>
</g>
<!-- Node10&#45;&gt;Node11 -->
<g id="edge10" class="edge">
<title>Node10&#45;&gt;Node11</title>
<path fill="none" stroke="midnightblue" d="M752.44,-113.5C755.49,-112.94 758.55,-112.43 761.5,-112 967.96,-82.08 1024.74,-115.93 1229.5,-76 1246.68,-72.65 1349.02,-39.04 1401.9,-21.51"/>
<polygon fill="midnightblue" stroke="midnightblue" points="1403.08,-24.81 1411.47,-18.34 1400.88,-18.16 1403.08,-24.81"/>
</g>
<!-- Node12 -->
<g id="node12" class="node">
<title>Node12</title>
<g id="a_node12"><a xlink:href="_signal_8h.html" target="_top" xlink:title=" ">
<polygon fill="none" stroke="black" points="1150.5,-56.5 1150.5,-75.5 1202.5,-75.5 1202.5,-56.5 1150.5,-56.5"/>
<text text-anchor="middle" x="1176.5" y="-63.5" font-family="Helvetica,sans-Serif" font-size="10.00">Signal.h</text>
</a>
</g>
</g>
<!-- Node10&#45;&gt;Node12 -->
<g id="edge11" class="edge">
<title>Node10&#45;&gt;Node12</title>
<path fill="none" stroke="midnightblue" d="M752.45,-113.6C755.5,-113.02 758.56,-112.47 761.5,-112 834.22,-100.3 1053.11,-78.81 1140.19,-70.45"/>
<polygon fill="midnightblue" stroke="midnightblue" points="1140.76,-73.91 1150.38,-69.48 1140.09,-66.95 1140.76,-73.91"/>
</g>
<!-- Node18 -->
<g id="node18" class="node">
<title>Node18</title>
<g id="a_node18"><a xlink:href="_env_8h.html" target="_top" xlink:title=" ">
<polygon fill="none" stroke="black" points="912,-56.5 912,-75.5 953,-75.5 953,-56.5 912,-56.5"/>
<text text-anchor="middle" x="932.5" y="-63.5" font-family="Helvetica,sans-Serif" font-size="10.00">Env.h</text>
</a>
</g>
</g>
<!-- Node10&#45;&gt;Node18 -->
<g id="edge19" class="edge">
<title>Node10&#45;&gt;Node18</title>
<path fill="none" stroke="midnightblue" d="M752.31,-112.68C793.13,-102.33 862.26,-84.81 901.98,-74.74"/>
<polygon fill="midnightblue" stroke="midnightblue" points="903.05,-78.08 911.88,-72.23 901.33,-71.29 903.05,-78.08"/>
</g>
<!-- Node21 -->
<g id="node21" class="node">
<title>Node21</title>
<g id="a_node21"><a xlink:href="_session_time_8h.html" target="_top" xlink:title=" ">
<polygon fill="none" stroke="black" points="985.5,-56.5 985.5,-75.5 1067.5,-75.5 1067.5,-56.5 985.5,-56.5"/>
<text text-anchor="middle" x="1026.5" y="-63.5" font-family="Helvetica,sans-Serif" font-size="10.00">SessionTime.h</text>
</a>
</g>
</g>
<!-- Node10&#45;&gt;Node21 -->
<g id="edge24" class="edge">
<title>Node10&#45;&gt;Node21</title>
<path fill="none" stroke="midnightblue" d="M752.03,-113.89C755.23,-113.23 758.42,-112.59 761.5,-112 835.55,-97.79 921.7,-83.59 975.17,-75.05"/>
<polygon fill="midnightblue" stroke="midnightblue" points="975.76,-78.5 985.09,-73.47 974.66,-71.58 975.76,-78.5"/>
</g>
<!-- Node23 -->
<g id="node23" class="node">
<title>Node23</title>
<g id="a_node23"><a xlink:href="_sensor_8h.html" target="_top" xlink:title=" ">
<polygon fill="none" stroke="black" points="1659,-56.5 1659,-75.5 1714,-75.5 1714,-56.5 1659,-56.5"/>
<text text-anchor="middle" x="1686.5" y="-63.5" font-family="Helvetica,sans-Serif" font-size="10.00">Sensor.h</text>
</a>
</g>
</g>
<!-- Node10&#45;&gt;Node23 -->
<g id="edge29" class="edge">
<title>Node10&#45;&gt;Node23</title>
<path fill="none" stroke="midnightblue" d="M752.43,-113.42C755.48,-112.87 758.54,-112.39 761.5,-112 937.43,-89.03 1497.52,-72.22 1648.63,-68.02"/>
<polygon fill="midnightblue" stroke="midnightblue" points="1648.89,-71.51 1658.79,-67.74 1648.7,-64.52 1648.89,-71.51"/>
</g>
<!-- Node24 -->
<g id="node24" class="node">
<title>Node24</title>
<g id="a_node24"><a xlink:href="_actuator_8h.html" target="_top" xlink:title=" ">
<polygon fill="none" stroke="black" points="1308,-56.5 1308,-75.5 1369,-75.5 1369,-56.5 1308,-56.5"/>
<text text-anchor="middle" x="1338.5" y="-63.5" font-family="Helvetica,sans-Serif" font-size="10.00">Actuator.h</text>
</a>
</g>
</g>
<!-- Node10&#45;&gt;Node24 -->
<g id="edge30" class="edge">
<title>Node10&#45;&gt;Node24</title>
<path fill="none" stroke="midnightblue" d="M752.44,-113.48C755.49,-112.93 758.55,-112.42 761.5,-112 987.36,-80.02 1046.61,-99.66 1273.5,-76 1281.39,-75.18 1289.79,-74.14 1297.85,-73.06"/>
<polygon fill="midnightblue" stroke="midnightblue" points="1298.37,-76.52 1307.8,-71.68 1297.42,-69.58 1298.37,-76.52"/>
</g>
<!-- Node25 -->
<g id="node25" class="node">
<title>Node25</title>
<g id="a_node25"><a xlink:href="_display_client_8h.html" target="_top" xlink:title=" ">
<polygon fill="none" stroke="black" points="547,-56.5 547,-75.5 630,-75.5 630,-56.5 547,-56.5"/>
<text text-anchor="middle" x="588.5" y="-63.5" font-family="Helvetica,sans-Serif" font-size="10.00">DisplayClient.h</text>
</a>
</g>
</g>
<!-- Node10&#45;&gt;Node25 -->
<g id="edge32" class="edge">
<title>Node10&#45;&gt;Node25</title>
<path fill="none" stroke="midnightblue" d="M698.74,-112.44C677.18,-103.56 643.24,-89.56 618.71,-79.45"/>
<polygon fill="midnightblue" stroke="midnightblue" points="619.74,-76.09 609.16,-75.52 617.07,-82.56 619.74,-76.09"/>
</g>
<!-- Node12&#45;&gt;Node4 -->
<g id="edge17" class="edge">
<title>Node12&#45;&gt;Node4</title>
<path fill="none" stroke="midnightblue" d="M1152.73,-56.44C1127.61,-47.4 1087.79,-33.06 1059.6,-22.92"/>
<polygon fill="midnightblue" stroke="midnightblue" points="1060.75,-19.61 1050.16,-19.52 1058.38,-26.2 1060.75,-19.61"/>
</g>
<!-- Node12&#45;&gt;Node12 -->
<g id="edge16" class="edge">
<title>Node12&#45;&gt;Node12</title>
<path fill="none" stroke="midnightblue" d="M1195.5,-75.57C1208.17,-78.27 1220.5,-75.08 1220.5,-66 1220.5,-59.4 1213.99,-55.92 1205.57,-55.54"/>
<polygon fill="midnightblue" stroke="midnightblue" points="1205.15,-52.06 1195.5,-56.43 1205.76,-59.03 1205.15,-52.06"/>
</g>
<!-- Node13 -->
<g id="node13" class="node">
<title>Node13</title>
<g id="a_node13"><a xlink:title=" ">
<polygon fill="none" stroke="#bfbfbf" points="1347.5,-0.5 1347.5,-19.5 1393.5,-19.5 1393.5,-0.5 1347.5,-0.5"/>
<text text-anchor="middle" x="1370.5" y="-7.5" font-family="Helvetica,sans-Serif" font-size="10.00">atomic</text>
</a>
</g>
</g>
<!-- Node12&#45;&gt;Node13 -->
<g id="edge12" class="edge">
<title>Node12&#45;&gt;Node13</title>
<path fill="none" stroke="midnightblue" d="M1202.66,-57.72C1237.55,-48.01 1299.31,-30.82 1337.39,-20.21"/>
<polygon fill="midnightblue" stroke="midnightblue" points="1338.77,-23.46 1347.47,-17.41 1336.9,-16.72 1338.77,-23.46"/>
</g>
<!-- Node14 -->
<g id="node14" class="node">
<title>Node14</title>
<g id="a_node14"><a xlink:title=" ">
<polygon fill="none" stroke="#bfbfbf" points="1153.5,-0.5 1153.5,-19.5 1199.5,-19.5 1199.5,-0.5 1153.5,-0.5"/>
<text text-anchor="middle" x="1176.5" y="-7.5" font-family="Helvetica,sans-Serif" font-size="10.00">chrono</text>
</a>
</g>
</g>
<!-- Node12&#45;&gt;Node14 -->
<g id="edge13" class="edge">
<title>Node12&#45;&gt;Node14</title>
<path fill="none" stroke="midnightblue" d="M1176.5,-56.08C1176.5,-49.01 1176.5,-38.86 1176.5,-29.99"/>
<polygon fill="midnightblue" stroke="midnightblue" points="1180,-29.75 1176.5,-19.75 1173,-29.75 1180,-29.75"/>
</g>
<!-- Node15 -->
<g id="node15" class="node">
<title>Node15</title>
<g id="a_node15"><a xlink:title=" ">
<polygon fill="none" stroke="#bfbfbf" points="1217.5,-0.5 1217.5,-19.5 1261.5,-19.5 1261.5,-0.5 1217.5,-0.5"/>
<text text-anchor="middle" x="1239.5" y="-7.5" font-family="Helvetica,sans-Serif" font-size="10.00">thread</text>
</a>
</g>
</g>
<!-- Node12&#45;&gt;Node15 -->
<g id="edge14" class="edge">
<title>Node12&#45;&gt;Node15</title>
<path fill="none" stroke="midnightblue" d="M1186.62,-56.32C1196.03,-48.26 1210.24,-36.08 1221.57,-26.37"/>
<polygon fill="midnightblue" stroke="midnightblue" points="1223.88,-29 1229.19,-19.83 1219.32,-23.68 1223.88,-29"/>
</g>
<!-- Node16 -->
<g id="node16" class="node">
<title>Node16</title>
<g id="a_node16"><a xlink:title=" ">
<polygon fill="none" stroke="#bfbfbf" points="1280,-0.5 1280,-19.5 1329,-19.5 1329,-0.5 1280,-0.5"/>
<text text-anchor="middle" x="1304.5" y="-7.5" font-family="Helvetica,sans-Serif" font-size="10.00">cassert</text>
</a>
</g>
</g>
<!-- Node12&#45;&gt;Node16 -->
<g id="edge15" class="edge">
<title>Node12&#45;&gt;Node16</title>
<path fill="none" stroke="midnightblue" d="M1196.78,-56.44C1217.85,-47.56 1251.02,-33.56 1274.99,-23.45"/>
<polygon fill="midnightblue" stroke="midnightblue" points="1276.46,-26.63 1284.31,-19.52 1273.74,-20.18 1276.46,-26.63"/>
</g>
<!-- Node17 -->
<g id="node17" class="node">
<title>Node17</title>
<g id="a_node17"><a xlink:href="_singleton_8h.html" target="_top" xlink:title=" ">
<polygon fill="none" stroke="black" points="1070,-0.5 1070,-19.5 1135,-19.5 1135,-0.5 1070,-0.5"/>
<text text-anchor="middle" x="1102.5" y="-7.5" font-family="Helvetica,sans-Serif" font-size="10.00">Singleton.h</text>
</a>
</g>
</g>
<!-- Node12&#45;&gt;Node17 -->
<g id="edge18" class="edge">
<title>Node12&#45;&gt;Node17</title>
<path fill="none" stroke="midnightblue" d="M1164.61,-56.32C1153.35,-48.11 1136.21,-35.6 1122.79,-25.81"/>
<polygon fill="midnightblue" stroke="midnightblue" points="1124.75,-22.9 1114.61,-19.83 1120.62,-28.56 1124.75,-22.9"/>
</g>
<!-- Node18&#45;&gt;Node11 -->
<g id="edge22" class="edge">
<title>Node18&#45;&gt;Node11</title>
<path fill="none" stroke="midnightblue" d="M953.01,-60.29C960.38,-58.73 968.78,-57.11 976.5,-56 1161.35,-29.38 1213.89,-53.79 1401.37,-19.85"/>
<polygon fill="midnightblue" stroke="midnightblue" points="1402.08,-23.28 1411.28,-18.02 1400.81,-16.39 1402.08,-23.28"/>
</g>
<!-- Node18&#45;&gt;Node17 -->
<g id="edge23" class="edge">
<title>Node18&#45;&gt;Node17</title>
<path fill="none" stroke="midnightblue" d="M953.01,-58.49C980.9,-49.63 1031.26,-33.63 1065.76,-22.67"/>
<polygon fill="midnightblue" stroke="midnightblue" points="1067.01,-25.95 1075.48,-19.58 1064.89,-19.28 1067.01,-25.95"/>
</g>
<!-- Node19 -->
<g id="node19" class="node">
<title>Node19</title>
<g id="a_node19"><a xlink:title=" ">
<polygon fill="none" stroke="#bfbfbf" points="882,-0.5 882,-19.5 983,-19.5 983,-0.5 882,-0.5"/>
<text text-anchor="middle" x="932.5" y="-7.5" font-family="Helvetica,sans-Serif" font-size="10.00">jsoncpp/json/json.h</text>
</a>
</g>
</g>
<!-- Node18&#45;&gt;Node19 -->
<g id="edge20" class="edge">
<title>Node18&#45;&gt;Node19</title>
<path fill="none" stroke="midnightblue" d="M932.5,-56.08C932.5,-49.01 932.5,-38.86 932.5,-29.99"/>
<polygon fill="midnightblue" stroke="midnightblue" points="936,-29.75 932.5,-19.75 929,-29.75 936,-29.75"/>
</g>
<!-- Node20 -->
<g id="node20" class="node">
<title>Node20</title>
<g id="a_node20"><a xlink:title=" ">
<polygon fill="none" stroke="#bfbfbf" points="823,-0.5 823,-19.5 864,-19.5 864,-0.5 823,-0.5"/>
<text text-anchor="middle" x="843.5" y="-7.5" font-family="Helvetica,sans-Serif" font-size="10.00">string</text>
</a>
</g>
</g>
<!-- Node18&#45;&gt;Node20 -->
<g id="edge21" class="edge">
<title>Node18&#45;&gt;Node20</title>
<path fill="none" stroke="midnightblue" d="M918.2,-56.32C904.32,-47.9 883.01,-34.97 866.7,-25.07"/>
<polygon fill="midnightblue" stroke="midnightblue" points="868.13,-21.85 857.76,-19.65 864.5,-27.83 868.13,-21.85"/>
</g>
<!-- Node21&#45;&gt;Node4 -->
<g id="edge25" class="edge">
<title>Node21&#45;&gt;Node4</title>
<path fill="none" stroke="midnightblue" d="M1026.5,-56.08C1026.5,-49.01 1026.5,-38.86 1026.5,-29.99"/>
<polygon fill="midnightblue" stroke="midnightblue" points="1030,-29.75 1026.5,-19.75 1023,-29.75 1030,-29.75"/>
</g>
<!-- Node21&#45;&gt;Node17 -->
<g id="edge28" class="edge">
<title>Node21&#45;&gt;Node17</title>
<path fill="none" stroke="midnightblue" d="M1038.71,-56.32C1050.28,-48.11 1067.88,-35.6 1081.66,-25.81"/>
<polygon fill="midnightblue" stroke="midnightblue" points="1083.94,-28.48 1090.07,-19.83 1079.89,-22.77 1083.94,-28.48"/>
</g>
<!-- Node21&#45;&gt;Node20 -->
<g id="edge27" class="edge">
<title>Node21&#45;&gt;Node20</title>
<path fill="none" stroke="midnightblue" d="M996.65,-56.44C967.53,-48.05 921.75,-34.77 873.72,-20.33"/>
<polygon fill="midnightblue" stroke="midnightblue" points="874.67,-16.97 864.08,-17.43 872.65,-23.67 874.67,-16.97"/>
</g>
<!-- Node22 -->
<g id="node22" class="node">
<title>Node22</title>
<g id="a_node22"><a xlink:title=" ">
<polygon fill="none" stroke="#bfbfbf" points="1619.5,-0.5 1619.5,-19.5 1663.5,-19.5 1663.5,-0.5 1619.5,-0.5"/>
<text text-anchor="middle" x="1641.5" y="-7.5" font-family="Helvetica,sans-Serif" font-size="10.00">time.h</text>
</a>
</g>
</g>
<!-- Node21&#45;&gt;Node22 -->
<g id="edge26" class="edge">
<title>Node21&#45;&gt;Node22</title>
<path fill="none" stroke="midnightblue" d="M1067.81,-61.37C1182.91,-51.27 1505.58,-22.93 1609.1,-13.85"/>
<polygon fill="midnightblue" stroke="midnightblue" points="1609.59,-17.32 1619.24,-12.95 1608.98,-10.34 1609.59,-17.32"/>
</g>
<!-- Node24&#45;&gt;Node6 -->
<g id="edge31" class="edge">
<title>Node24&#45;&gt;Node6</title>
<path fill="none" stroke="midnightblue" d="M1369.05,-61.86C1459.92,-52.54 1728.26,-24.99 1827.26,-14.82"/>
<polygon fill="midnightblue" stroke="midnightblue" points="1827.8,-18.29 1837.39,-13.78 1827.08,-11.32 1827.8,-18.29"/>
</g>
<!-- Node25&#45;&gt;Node4 -->
<g id="edge36" class="edge">
<title>Node25&#45;&gt;Node4</title>
<path fill="none" stroke="midnightblue" d="M630.05,-58.06C634.92,-57.32 639.81,-56.62 644.5,-56 794.91,-36.13 837.09,-46.89 990.7,-19.86"/>
<polygon fill="midnightblue" stroke="midnightblue" points="991.75,-23.23 1000.98,-18.03 990.52,-16.34 991.75,-23.23"/>
</g>
<!-- Node25&#45;&gt;Node5 -->
<g id="edge33" class="edge">
<title>Node25&#45;&gt;Node5</title>
<path fill="none" stroke="midnightblue" d="M546.96,-57.93C542.1,-57.22 537.19,-56.55 532.5,-56 325.96,-31.6 268.61,-54.44 59.35,-19.81"/>
<polygon fill="midnightblue" stroke="midnightblue" points="59.71,-16.32 49.27,-18.12 58.55,-23.22 59.71,-16.32"/>
</g>
<!-- Node25&#45;&gt;Node20 -->
<g id="edge45" class="edge">
<title>Node25&#45;&gt;Node20</title>
<path fill="none" stroke="midnightblue" d="M630.23,-57.87C673.56,-50.19 743.48,-37.06 813.09,-19.9"/>
<polygon fill="midnightblue" stroke="midnightblue" points="814.06,-23.27 822.91,-17.45 812.36,-16.48 814.06,-23.27"/>
</g>
<!-- Node26 -->
<g id="node26" class="node">
<title>Node26</title>
<g id="a_node26"><a xlink:title=" ">
<polygon fill="none" stroke="#bfbfbf" points="565.5,-0.5 565.5,-19.5 611.5,-19.5 611.5,-0.5 565.5,-0.5"/>
<text text-anchor="middle" x="588.5" y="-7.5" font-family="Helvetica,sans-Serif" font-size="10.00">stdio.h</text>
</a>
</g>
</g>
<!-- Node25&#45;&gt;Node26 -->
<g id="edge34" class="edge">
<title>Node25&#45;&gt;Node26</title>
<path fill="none" stroke="midnightblue" d="M588.5,-56.08C588.5,-49.01 588.5,-38.86 588.5,-29.99"/>
<polygon fill="midnightblue" stroke="midnightblue" points="592,-29.75 588.5,-19.75 585,-29.75 592,-29.75"/>
</g>
<!-- Node27 -->
<g id="node27" class="node">
<title>Node27</title>
<g id="a_node27"><a xlink:title=" ">
<polygon fill="none" stroke="#bfbfbf" points="629.5,-0.5 629.5,-19.5 677.5,-19.5 677.5,-0.5 629.5,-0.5"/>
<text text-anchor="middle" x="653.5" y="-7.5" font-family="Helvetica,sans-Serif" font-size="10.00">stdlib.h</text>
</a>
</g>
</g>
<!-- Node25&#45;&gt;Node27 -->
<g id="edge35" class="edge">
<title>Node25&#45;&gt;Node27</title>
<path fill="none" stroke="midnightblue" d="M598.94,-56.32C608.65,-48.26 623.32,-36.08 635,-26.37"/>
<polygon fill="midnightblue" stroke="midnightblue" points="637.41,-28.92 642.87,-19.83 632.94,-23.53 637.41,-28.92"/>
</g>
<!-- Node28 -->
<g id="node28" class="node">
<title>Node28</title>
<g id="a_node28"><a xlink:title=" ">
<polygon fill="none" stroke="#bfbfbf" points="695.5,-0.5 695.5,-19.5 739.5,-19.5 739.5,-0.5 695.5,-0.5"/>
<text text-anchor="middle" x="717.5" y="-7.5" font-family="Helvetica,sans-Serif" font-size="10.00">fcntl.h</text>
</a>
</g>
</g>
<!-- Node25&#45;&gt;Node28 -->
<g id="edge37" class="edge">
<title>Node25&#45;&gt;Node28</title>
<path fill="none" stroke="midnightblue" d="M608.94,-56.44C630.17,-47.56 663.6,-33.56 687.75,-23.45"/>
<polygon fill="midnightblue" stroke="midnightblue" points="689.28,-26.61 697.16,-19.52 686.58,-20.15 689.28,-26.61"/>
</g>
<!-- Node29 -->
<g id="node29" class="node">
<title>Node29</title>
<g id="a_node29"><a xlink:title=" ">
<polygon fill="none" stroke="#bfbfbf" points="758,-0.5 758,-19.5 805,-19.5 805,-0.5 758,-0.5"/>
<text text-anchor="middle" x="781.5" y="-7.5" font-family="Helvetica,sans-Serif" font-size="10.00">errno.h</text>
</a>
</g>
</g>
<!-- Node25&#45;&gt;Node29 -->
<g id="edge38" class="edge">
<title>Node25&#45;&gt;Node29</title>
<path fill="none" stroke="midnightblue" d="M619.08,-56.44C654.25,-46.6 711.8,-30.5 748.11,-20.34"/>
<polygon fill="midnightblue" stroke="midnightblue" points="749.07,-23.71 757.75,-17.64 747.18,-16.97 749.07,-23.71"/>
</g>
<!-- Node30 -->
<g id="node30" class="node">
<title>Node30</title>
<g id="a_node30"><a xlink:title=" ">
<polygon fill="none" stroke="#bfbfbf" points="67.5,-0.5 67.5,-19.5 135.5,-19.5 135.5,-0.5 67.5,-0.5"/>
<text text-anchor="middle" x="101.5" y="-7.5" font-family="Helvetica,sans-Serif" font-size="10.00">sys/types.h</text>
</a>
</g>
</g>
<!-- Node25&#45;&gt;Node30 -->
<g id="edge39" class="edge">
<title>Node25&#45;&gt;Node30</title>
<path fill="none" stroke="midnightblue" d="M546.95,-58.01C542.09,-57.28 537.19,-56.59 532.5,-56 363.96,-34.66 317.51,-45.35 145.84,-20.04"/>
<polygon fill="midnightblue" stroke="midnightblue" points="146.11,-16.54 135.7,-18.53 145.08,-23.46 146.11,-16.54"/>
</g>
<!-- Node31 -->
<g id="node31" class="node">
<title>Node31</title>
<g id="a_node31"><a xlink:title=" ">
<polygon fill="none" stroke="#bfbfbf" points="154,-0.5 154,-19.5 227,-19.5 227,-0.5 154,-0.5"/>
<text text-anchor="middle" x="190.5" y="-7.5" font-family="Helvetica,sans-Serif" font-size="10.00">sys/socket.h</text>
</a>
</g>
</g>
<!-- Node25&#45;&gt;Node31 -->
<g id="edge40" class="edge">
<title>Node25&#45;&gt;Node31</title>
<path fill="none" stroke="midnightblue" d="M546.94,-58.14C542.07,-57.39 537.18,-56.66 532.5,-56 404.48,-37.93 369.1,-40.59 237.2,-20"/>
<polygon fill="midnightblue" stroke="midnightblue" points="237.54,-16.51 227.12,-18.41 236.45,-23.43 237.54,-16.51"/>
</g>
<!-- Node32 -->
<g id="node32" class="node">
<title>Node32</title>
<g id="a_node32"><a xlink:title=" ">
<polygon fill="none" stroke="#bfbfbf" points="245.5,-0.5 245.5,-19.5 307.5,-19.5 307.5,-0.5 245.5,-0.5"/>
<text text-anchor="middle" x="276.5" y="-7.5" font-family="Helvetica,sans-Serif" font-size="10.00">arpa/inet.h</text>
</a>
</g>
</g>
<!-- Node25&#45;&gt;Node32 -->
<g id="edge41" class="edge">
<title>Node25&#45;&gt;Node32</title>
<path fill="none" stroke="midnightblue" d="M546.92,-58.26C482.3,-47.76 361.35,-28.03 317.82,-20.11"/>
<polygon fill="midnightblue" stroke="midnightblue" points="318.38,-16.65 307.91,-18.25 317.09,-23.53 318.38,-16.65"/>
</g>
<!-- Node33 -->
<g id="node33" class="node">
<title>Node33</title>
<g id="a_node33"><a xlink:title=" ">
<polygon fill="none" stroke="#bfbfbf" points="326,-0.5 326,-19.5 391,-19.5 391,-0.5 326,-0.5"/>
<text text-anchor="middle" x="358.5" y="-7.5" font-family="Helvetica,sans-Serif" font-size="10.00">netinet/in.h</text>
</a>
</g>
</g>
<!-- Node25&#45;&gt;Node33 -->
<g id="edge42" class="edge">
<title>Node25&#45;&gt;Node33</title>
<path fill="none" stroke="midnightblue" d="M552.06,-56.44C511.01,-46.81 444.4,-31.17 401.02,-20.98"/>
<polygon fill="midnightblue" stroke="midnightblue" points="401.59,-17.52 391.05,-18.64 399.99,-24.34 401.59,-17.52"/>
</g>
<!-- Node34 -->
<g id="node34" class="node">
<title>Node34</title>
<g id="a_node34"><a xlink:title=" ">
<polygon fill="none" stroke="#bfbfbf" points="409,-0.5 409,-19.5 480,-19.5 480,-0.5 409,-0.5"/>
<text text-anchor="middle" x="444.5" y="-7.5" font-family="Helvetica,sans-Serif" font-size="10.00">netinet/tcp.h</text>
</a>
</g>
</g>
<!-- Node25&#45;&gt;Node34 -->
<g id="edge43" class="edge">
<title>Node25&#45;&gt;Node34</title>
<path fill="none" stroke="midnightblue" d="M565.68,-56.44C541.67,-47.44 503.67,-33.19 476.63,-23.05"/>
<polygon fill="midnightblue" stroke="midnightblue" points="477.8,-19.75 467.21,-19.52 475.34,-26.3 477.8,-19.75"/>
</g>
<!-- Node35 -->
<g id="node35" class="node">
<title>Node35</title>
<g id="a_node35"><a xlink:title=" ">
<polygon fill="none" stroke="#bfbfbf" points="498,-0.5 498,-19.5 547,-19.5 547,-0.5 498,-0.5"/>
<text text-anchor="middle" x="522.5" y="-7.5" font-family="Helvetica,sans-Serif" font-size="10.00">netdb.h</text>
</a>
</g>
</g>
<!-- Node25&#45;&gt;Node35 -->
<g id="edge44" class="edge">
<title>Node25&#45;&gt;Node35</title>
<path fill="none" stroke="midnightblue" d="M577.9,-56.32C568.04,-48.26 553.15,-36.08 541.28,-26.37"/>
<polygon fill="midnightblue" stroke="midnightblue" points="543.25,-23.46 533.3,-19.83 538.82,-28.88 543.25,-23.46"/>
</g>
<!-- Node36&#45;&gt;Node23 -->
<g id="edge47" class="edge">
<title>Node36&#45;&gt;Node23</title>
<path fill="none" stroke="midnightblue" d="M1795.9,-112.44C1774.51,-103.56 1740.82,-89.56 1716.48,-79.45"/>
<polygon fill="midnightblue" stroke="midnightblue" points="1717.58,-76.12 1707,-75.52 1714.89,-82.58 1717.58,-76.12"/>
</g>
<!-- Node37&#45;&gt;Node23 -->
<g id="edge49" class="edge">
<title>Node37&#45;&gt;Node23</title>
<path fill="none" stroke="midnightblue" d="M1686.5,-112.08C1686.5,-105.01 1686.5,-94.86 1686.5,-85.99"/>
<polygon fill="midnightblue" stroke="midnightblue" points="1690,-85.75 1686.5,-75.75 1683,-85.75 1690,-85.75"/>
</g>
<!-- Node38&#45;&gt;Node24 -->
<g id="edge51" class="edge">
<title>Node38&#45;&gt;Node24</title>
<path fill="none" stroke="midnightblue" d="M1346.85,-112.08C1345.52,-104.93 1343.62,-94.64 1341.96,-85.69"/>
<polygon fill="midnightblue" stroke="midnightblue" points="1345.38,-84.95 1340.12,-75.75 1338.5,-86.22 1345.38,-84.95"/>
</g>
<!-- Node39&#45;&gt;Node24 -->
<g id="edge53" class="edge">
<title>Node39&#45;&gt;Node24</title>
<path fill="none" stroke="midnightblue" d="M1443.69,-112.44C1423.21,-103.6 1391.02,-89.69 1367.64,-79.59"/>
<polygon fill="midnightblue" stroke="midnightblue" points="1368.78,-76.27 1358.21,-75.52 1366.01,-82.7 1368.78,-76.27"/>
</g>
<!-- Node40&#45;&gt;Node24 -->
<g id="edge55" class="edge">
<title>Node40&#45;&gt;Node24</title>
<path fill="none" stroke="midnightblue" d="M1535.42,-112.44C1492.74,-102.59 1422.88,-86.47 1378.86,-76.31"/>
<polygon fill="midnightblue" stroke="midnightblue" points="1379.6,-72.89 1369.07,-74.05 1378.02,-79.71 1379.6,-72.89"/>
</g>
<!-- Node41&#45;&gt;Node24 -->
<g id="edge57" class="edge">
<title>Node41&#45;&gt;Node24</title>
<path fill="none" stroke="midnightblue" d="M1070.05,-112.44C1133.19,-101.75 1239.97,-83.68 1298.01,-73.85"/>
<polygon fill="midnightblue" stroke="midnightblue" points="1298.64,-77.3 1307.92,-72.18 1297.47,-70.4 1298.64,-77.3"/>
</g>
<!-- Node42&#45;&gt;Node24 -->
<g id="edge59" class="edge">
<title>Node42&#45;&gt;Node24</title>
<path fill="none" stroke="midnightblue" d="M1165.14,-112.44C1201.07,-103.03 1258.88,-87.87 1297.75,-77.68"/>
<polygon fill="midnightblue" stroke="midnightblue" points="1298.91,-81 1307.69,-75.08 1297.13,-74.23 1298.91,-81"/>
</g>
<!-- Node43&#45;&gt;Node24 -->
<g id="edge61" class="edge">
<title>Node43&#45;&gt;Node24</title>
<path fill="none" stroke="midnightblue" d="M1254.57,-112.32C1270.46,-103.74 1295.01,-90.49 1313.46,-80.52"/>
<polygon fill="midnightblue" stroke="midnightblue" points="1315.34,-83.49 1322.47,-75.65 1312.01,-77.33 1315.34,-83.49"/>
</g>
<!-- Node44&#45;&gt;Node6 -->
<g id="edge63" class="edge">
<title>Node44&#45;&gt;Node6</title>
<path fill="none" stroke="midnightblue" d="M1942.56,-56.32C1927.91,-47.82 1905.37,-34.73 1888.26,-24.8"/>
<polygon fill="midnightblue" stroke="midnightblue" points="1889.81,-21.65 1879.4,-19.65 1886.3,-27.7 1889.81,-21.65"/>
</g>
<!-- Node44&#45;&gt;Node11 -->
<g id="edge64" class="edge">
<title>Node44&#45;&gt;Node11</title>
<path fill="none" stroke="midnightblue" d="M1923.12,-61.46C1827.41,-51.59 1558.83,-23.92 1465.74,-14.32"/>
<polygon fill="midnightblue" stroke="midnightblue" points="1465.84,-10.81 1455.54,-13.27 1465.12,-17.78 1465.84,-10.81"/>
</g>
<!-- Node44&#45;&gt;Node22 -->
<g id="edge68" class="edge">
<title>Node44&#45;&gt;Node22</title>
<path fill="none" stroke="midnightblue" d="M1923.38,-59.17C1861.96,-48.67 1733.59,-26.74 1673.64,-16.49"/>
<polygon fill="midnightblue" stroke="midnightblue" points="1674.05,-13.01 1663.61,-14.78 1672.87,-19.91 1674.05,-13.01"/>
</g>
<!-- Node45 -->
<g id="node45" class="node">
<title>Node45</title>
<g id="a_node45"><a xlink:title=" ">
<polygon fill="none" stroke="#bfbfbf" points="2023.5,-0.5 2023.5,-19.5 2079.5,-19.5 2079.5,-0.5 2023.5,-0.5"/>
<text text-anchor="middle" x="2051.5" y="-7.5" font-family="Helvetica,sans-Serif" font-size="10.00">algorithm</text>
</a>
</g>
</g>
<!-- Node44&#45;&gt;Node45 -->
<g id="edge65" class="edge">
<title>Node44&#45;&gt;Node45</title>
<path fill="none" stroke="midnightblue" d="M1972.6,-56.32C1987.4,-47.82 2010.19,-34.73 2027.48,-24.8"/>
<polygon fill="midnightblue" stroke="midnightblue" points="2029.51,-27.67 2036.43,-19.65 2026.02,-21.6 2029.51,-27.67"/>
</g>
<!-- Node46 -->
<g id="node46" class="node">
<title>Node46</title>
<g id="a_node46"><a xlink:title=" ">
<polygon fill="none" stroke="#bfbfbf" points="1909.5,-0.5 1909.5,-19.5 1949.5,-19.5 1949.5,-0.5 1909.5,-0.5"/>
<text text-anchor="middle" x="1929.5" y="-7.5" font-family="Helvetica,sans-Serif" font-size="10.00">utility</text>
</a>
</g>
</g>
<!-- Node44&#45;&gt;Node46 -->
<g id="edge66" class="edge">
<title>Node44&#45;&gt;Node46</title>
<path fill="none" stroke="midnightblue" d="M1952.88,-56.08C1949.04,-48.69 1943.48,-37.95 1938.74,-28.81"/>
<polygon fill="midnightblue" stroke="midnightblue" points="1941.75,-27.02 1934.04,-19.75 1935.53,-30.24 1941.75,-27.02"/>
</g>
<!-- Node47 -->
<g id="node47" class="node">
<title>Node47</title>
<g id="a_node47"><a xlink:title=" ">
<polygon fill="none" stroke="#bfbfbf" points="1967.5,-0.5 1967.5,-19.5 2005.5,-19.5 2005.5,-0.5 1967.5,-0.5"/>
<text text-anchor="middle" x="1986.5" y="-7.5" font-family="Helvetica,sans-Serif" font-size="10.00">tuple</text>
</a>
</g>
</g>
<!-- Node44&#45;&gt;Node47 -->
<g id="edge67" class="edge">
<title>Node44&#45;&gt;Node47</title>
<path fill="none" stroke="midnightblue" d="M1962.29,-56.08C1966.26,-48.69 1972.03,-37.95 1976.93,-28.81"/>
<polygon fill="midnightblue" stroke="midnightblue" points="1980.15,-30.22 1981.8,-19.75 1973.99,-26.91 1980.15,-30.22"/>
</g>
</g>
</svg>
