<?xml version="1.0" encoding="UTF-8" standalone="no"?>
<!DOCTYPE svg PUBLIC "-//W3C//DTD SVG 1.1//EN"
 "http://www.w3.org/Graphics/SVG/1.1/DTD/svg11.dtd">
<!-- Generated by graphviz version 2.48.0 (20210717.1556)
 -->
<!-- Title: main Pages: 1 -->
<svg width="358pt" height="262pt"
 viewBox="0.00 0.00 358.00 262.00" xmlns="http://www.w3.org/2000/svg" xmlns:xlink="http://www.w3.org/1999/xlink">
<g id="graph0" class="graph" transform="scale(1 1) rotate(0) translate(4 258)">
<title>main</title>
<!-- Node1 -->
<g id="node1" class="node">
<title>Node1</title>
<g id="a_node1"><a xlink:title=" ">
<polygon fill="#bfbfbf" stroke="black" points="0,-158.5 0,-177.5 38,-177.5 38,-158.5 0,-158.5"/>
<text text-anchor="middle" x="19" y="-165.5" font-family="Helvetica,sans-Serif" font-size="10.00">main</text>
</a>
</g>
</g>
<!-- Node2 -->
<g id="node2" class="node">
<title>Node2</title>
<g id="a_node2"><a xlink:href="class_incubator.html#aac2aed1ccce13bbd3bc067e04fff0e0e" target="_top" xlink:title=" ">
<polygon fill="none" stroke="black" points="89,-234.5 89,-253.5 177,-253.5 177,-234.5 89,-234.5"/>
<text text-anchor="middle" x="133" y="-241.5" font-family="Helvetica,sans-Serif" font-size="10.00">Incubator::deinit</text>
</a>
</g>
</g>
<!-- Node1&#45;&gt;Node2 -->
<g id="edge1" class="edge">
<title>Node1&#45;&gt;Node2</title>
<path fill="none" stroke="midnightblue" d="M27.92,-177.56C37.75,-188.93 55.49,-207.89 74,-220 79.94,-223.89 86.62,-227.35 93.27,-230.36"/>
<polygon fill="midnightblue" stroke="midnightblue" points="92.33,-233.76 102.91,-234.42 95.05,-227.31 92.33,-233.76"/>
</g>
<!-- Node3 -->
<g id="node3" class="node">
<title>Node3</title>
<g id="a_node3"><a xlink:href="class_singleton.html#a8ec70839501fe76ec61195233d8fdb62" target="_top" xlink:title=" ">
<polygon fill="none" stroke="black" points="234.5,-191 234.5,-221 343.5,-221 343.5,-191 234.5,-191"/>
<text text-anchor="start" x="242.5" y="-209" font-family="Helvetica,sans-Serif" font-size="10.00">Singleton&lt; Incubator</text>
<text text-anchor="middle" x="289" y="-198" font-family="Helvetica,sans-Serif" font-size="10.00"> &gt;::getInstance</text>
</a>
</g>
</g>
<!-- Node1&#45;&gt;Node3 -->
<g id="edge2" class="edge">
<title>Node1&#45;&gt;Node3</title>
<path fill="none" stroke="midnightblue" d="M38.17,-175.67C48.49,-179.7 61.76,-184.35 74,-187 123.78,-197.79 181.34,-202.47 224.22,-204.5"/>
<polygon fill="midnightblue" stroke="midnightblue" points="224.09,-207.99 234.24,-204.93 224.4,-201 224.09,-207.99"/>
</g>
<!-- Node4 -->
<g id="node4" class="node">
<title>Node4</title>
<g id="a_node4"><a xlink:href="class_incubator.html#ae7355111b46b8cd6d2c88c5ba76fb084" target="_top" xlink:title=" ">
<polygon fill="none" stroke="black" points="94.5,-158.5 94.5,-177.5 171.5,-177.5 171.5,-158.5 94.5,-158.5"/>
<text text-anchor="middle" x="133" y="-165.5" font-family="Helvetica,sans-Serif" font-size="10.00">Incubator::init</text>
</a>
</g>
</g>
<!-- Node1&#45;&gt;Node4 -->
<g id="edge3" class="edge">
<title>Node1&#45;&gt;Node4</title>
<path fill="none" stroke="midnightblue" d="M38.49,-168C50.93,-168 67.93,-168 84.03,-168"/>
<polygon fill="midnightblue" stroke="midnightblue" points="84.42,-171.5 94.42,-168 84.42,-164.5 84.42,-171.5"/>
</g>
<!-- Node6 -->
<g id="node6" class="node">
<title>Node6</title>
<g id="a_node6"><a xlink:href="class_incubator.html#a9b56968f759315c07c1f39db5622425d" target="_top" xlink:title=" ">
<polygon fill="none" stroke="black" points="74,-120.5 74,-139.5 192,-139.5 192,-120.5 74,-120.5"/>
<text text-anchor="middle" x="133" y="-127.5" font-family="Helvetica,sans-Serif" font-size="10.00">Incubator::newSession</text>
</a>
</g>
</g>
<!-- Node1&#45;&gt;Node6 -->
<g id="edge7" class="edge">
<title>Node1&#45;&gt;Node6</title>
<path fill="none" stroke="midnightblue" d="M38.46,-161.39C48.88,-157.69 62.14,-153.03 74,-149 80.06,-146.94 86.48,-144.8 92.77,-142.72"/>
<polygon fill="midnightblue" stroke="midnightblue" points="94.04,-145.99 102.45,-139.54 91.86,-139.34 94.04,-145.99"/>
</g>
<!-- Node7 -->
<g id="node7" class="node">
<title>Node7</title>
<g id="a_node7"><a xlink:href="class_incubator.html#ab2084701ceb46e156faa8c7e9724a0fd" target="_top" xlink:title=" ">
<polygon fill="none" stroke="black" points="83,-76.5 83,-95.5 183,-95.5 183,-76.5 83,-76.5"/>
<text text-anchor="middle" x="133" y="-83.5" font-family="Helvetica,sans-Serif" font-size="10.00">Incubator::runLoop</text>
</a>
</g>
</g>
<!-- Node1&#45;&gt;Node7 -->
<g id="edge8" class="edge">
<title>Node1&#45;&gt;Node7</title>
<path fill="none" stroke="midnightblue" d="M27.09,-158.38C36.6,-146.03 54.55,-124.58 74,-111 80.18,-106.68 87.22,-102.88 94.22,-99.63"/>
<polygon fill="midnightblue" stroke="midnightblue" points="95.87,-102.73 103.65,-95.54 93.08,-96.31 95.87,-102.73"/>
</g>
<!-- Node4&#45;&gt;Node3 -->
<g id="edge5" class="edge">
<title>Node4&#45;&gt;Node3</title>
<path fill="none" stroke="midnightblue" d="M171.67,-171.4C192.52,-175.55 218.63,-181.87 240.83,-188.08"/>
<polygon fill="midnightblue" stroke="midnightblue" points="240.14,-191.53 250.72,-190.92 242.07,-184.8 240.14,-191.53"/>
</g>
<!-- Node4&#45;&gt;Node3 -->
<g id="edge6" class="edge">
<title>Node4&#45;&gt;Node3</title>
<path fill="none" stroke="midnightblue" d="M153.82,-177.59C171.67,-183.65 198.93,-191.03 224.23,-196.92"/>
<polygon fill="midnightblue" stroke="midnightblue" points="223.64,-200.38 234.17,-199.19 225.2,-193.56 223.64,-200.38"/>
</g>
<!-- Node5 -->
<g id="node5" class="node">
<title>Node5</title>
<g id="a_node5"><a xlink:href="_incubator_8cpp.html#a22634c395123171d31d988b1bcb5776f" target="_top" xlink:title=" ">
<polygon fill="none" stroke="black" points="252.5,-152.5 252.5,-171.5 325.5,-171.5 325.5,-152.5 252.5,-152.5"/>
<text text-anchor="middle" x="289" y="-159.5" font-family="Helvetica,sans-Serif" font-size="10.00">cfgFileName</text>
</a>
</g>
</g>
<!-- Node4&#45;&gt;Node5 -->
<g id="edge4" class="edge">
<title>Node4&#45;&gt;Node5</title>
<path fill="none" stroke="midnightblue" d="M171.67,-166.53C192.99,-165.7 219.79,-164.66 242.3,-163.78"/>
<polygon fill="midnightblue" stroke="midnightblue" points="242.45,-167.28 252.3,-163.39 242.17,-160.28 242.45,-167.28"/>
</g>
<!-- Node8 -->
<g id="node8" class="node">
<title>Node8</title>
<g id="a_node8"><a xlink:href="class_signal.html#a23715c9728a374020fdad3454552b2f1" target="_top" xlink:title=" ">
<polygon fill="none" stroke="black" points="230,-114.5 230,-133.5 348,-133.5 348,-114.5 230,-114.5"/>
<text text-anchor="middle" x="289" y="-121.5" font-family="Helvetica,sans-Serif" font-size="10.00">Signal::isSignaledTerm</text>
</a>
</g>
</g>
<!-- Node7&#45;&gt;Node8 -->
<g id="edge9" class="edge">
<title>Node7&#45;&gt;Node8</title>
<path fill="none" stroke="midnightblue" d="M172.86,-95.59C193.09,-100.58 218.02,-106.73 239.5,-112.03"/>
<polygon fill="midnightblue" stroke="midnightblue" points="238.87,-115.48 249.42,-114.48 240.55,-108.69 238.87,-115.48"/>
</g>
<!-- Node9 -->
<g id="node9" class="node">
<title>Node9</title>
<g id="a_node9"><a xlink:href="class_signal.html#a82891210bdbc99ca9e7e1ac108fb048a" target="_top" xlink:title=" ">
<polygon fill="none" stroke="black" points="230.5,-76.5 230.5,-95.5 347.5,-95.5 347.5,-76.5 230.5,-76.5"/>
<text text-anchor="middle" x="289" y="-83.5" font-family="Helvetica,sans-Serif" font-size="10.00">Signal::isSignaledUsr1</text>
</a>
</g>
</g>
<!-- Node7&#45;&gt;Node9 -->
<g id="edge10" class="edge">
<title>Node7&#45;&gt;Node9</title>
<path fill="none" stroke="midnightblue" d="M183.15,-86C194.91,-86 207.67,-86 220.11,-86"/>
<polygon fill="midnightblue" stroke="midnightblue" points="220.46,-89.5 230.46,-86 220.46,-82.5 220.46,-89.5"/>
</g>
<!-- Node10 -->
<g id="node10" class="node">
<title>Node10</title>
<g id="a_node10"><a xlink:href="class_signal.html#aed6098485cfbacfbcfe105bd3c70cdde" target="_top" xlink:title=" ">
<polygon fill="none" stroke="black" points="228,-38.5 228,-57.5 350,-57.5 350,-38.5 228,-38.5"/>
<text text-anchor="middle" x="289" y="-45.5" font-family="Helvetica,sans-Serif" font-size="10.00">Signal::resetSignalTerm</text>
</a>
</g>
</g>
<!-- Node7&#45;&gt;Node10 -->
<g id="edge11" class="edge">
<title>Node7&#45;&gt;Node10</title>
<path fill="none" stroke="midnightblue" d="M172.86,-76.41C193.09,-71.42 218.02,-65.27 239.5,-59.97"/>
<polygon fill="midnightblue" stroke="midnightblue" points="240.55,-63.31 249.42,-57.52 238.87,-56.52 240.55,-63.31"/>
</g>
<!-- Node11 -->
<g id="node11" class="node">
<title>Node11</title>
<g id="a_node11"><a xlink:href="class_signal.html#a2184d31e9dac489d01c6f9f558000668" target="_top" xlink:title=" ">
<polygon fill="none" stroke="black" points="228.5,-0.5 228.5,-19.5 349.5,-19.5 349.5,-0.5 228.5,-0.5"/>
<text text-anchor="middle" x="289" y="-7.5" font-family="Helvetica,sans-Serif" font-size="10.00">Signal::resetSignalUsr1</text>
</a>
</g>
</g>
<!-- Node7&#45;&gt;Node11 -->
<g id="edge12" class="edge">
<title>Node7&#45;&gt;Node11</title>
<path fill="none" stroke="midnightblue" d="M147.45,-76.42C165.2,-64.12 197.76,-42.72 228,-29 232.79,-26.83 237.9,-24.8 243.04,-22.94"/>
<polygon fill="midnightblue" stroke="midnightblue" points="244.56,-26.12 252.89,-19.57 242.29,-19.5 244.56,-26.12"/>
</g>
</g>
</svg>
