<?xml version="1.0" encoding="UTF-8" standalone="no"?>
<!DOCTYPE svg PUBLIC "-//W3C//DTD SVG 1.1//EN"
 "http://www.w3.org/Graphics/SVG/1.1/DTD/svg11.dtd">
<!-- Generated by graphviz version 2.48.0 (20210717.1556)
 -->
<!-- Title: src/display_server/InfoPanel.cpp Pages: 1 -->
<svg width="528pt" height="151pt"
 viewBox="0.00 0.00 528.02 151.00" xmlns="http://www.w3.org/2000/svg" xmlns:xlink="http://www.w3.org/1999/xlink">
<g id="graph0" class="graph" transform="scale(1 1) rotate(0) translate(4 147)">
<title>src/display_server/InfoPanel.cpp</title>
<!-- Node1 -->
<g id="node1" class="node">
<title>Node1</title>
<g id="a_node1"><a xlink:title=" ">
<polygon fill="#bfbfbf" stroke="black" points="176.02,-112.5 176.02,-142.5 273.02,-142.5 273.02,-112.5 176.02,-112.5"/>
<text text-anchor="start" x="184.02" y="-130.5" font-family="Helvetica,sans-Serif" font-size="10.00">src/display_server</text>
<text text-anchor="middle" x="224.52" y="-119.5" font-family="Helvetica,sans-Serif" font-size="10.00">/InfoPanel.cpp</text>
</a>
</g>
</g>
<!-- Node2 -->
<g id="node2" class="node">
<title>Node2</title>
<g id="a_node2"><a xlink:title=" ">
<polygon fill="none" stroke="#bfbfbf" points="186.02,-0.5 186.02,-19.5 227.02,-19.5 227.02,-0.5 186.02,-0.5"/>
<text text-anchor="middle" x="206.52" y="-7.5" font-family="Helvetica,sans-Serif" font-size="10.00">string</text>
</a>
</g>
</g>
<!-- Node1&#45;&gt;Node2 -->
<g id="edge1" class="edge">
<title>Node1&#45;&gt;Node2</title>
<path fill="none" stroke="midnightblue" d="M175.92,-122.05C118.75,-115.7 29.02,-101.84 8.52,-76 -36.41,-19.34 109.52,-11.53 175.66,-10.83"/>
<polygon fill="midnightblue" stroke="midnightblue" points="175.94,-14.33 185.92,-10.78 175.9,-7.33 175.94,-14.33"/>
</g>
<!-- Node3 -->
<g id="node3" class="node">
<title>Node3</title>
<g id="a_node3"><a xlink:title=" ">
<polygon fill="none" stroke="#bfbfbf" points="18.02,-56.5 18.02,-75.5 73.02,-75.5 73.02,-56.5 18.02,-56.5"/>
<text text-anchor="middle" x="45.52" y="-63.5" font-family="Helvetica,sans-Serif" font-size="10.00">iostream</text>
</a>
</g>
</g>
<!-- Node1&#45;&gt;Node3 -->
<g id="edge2" class="edge">
<title>Node1&#45;&gt;Node3</title>
<path fill="none" stroke="midnightblue" d="M182.1,-112.4C151.31,-102.16 110.12,-88.47 81.05,-78.81"/>
<polygon fill="midnightblue" stroke="midnightblue" points="81.9,-75.4 71.31,-75.57 79.69,-82.05 81.9,-75.4"/>
</g>
<!-- Node4 -->
<g id="node4" class="node">
<title>Node4</title>
<g id="a_node4"><a xlink:title=" ">
<polygon fill="none" stroke="#bfbfbf" points="91.52,-56.5 91.52,-75.5 171.52,-75.5 171.52,-56.5 91.52,-56.5"/>
<text text-anchor="middle" x="131.52" y="-63.5" font-family="Helvetica,sans-Serif" font-size="10.00">DEV_Config.h</text>
</a>
</g>
</g>
<!-- Node1&#45;&gt;Node4 -->
<g id="edge3" class="edge">
<title>Node1&#45;&gt;Node4</title>
<path fill="none" stroke="midnightblue" d="M202.48,-112.4C187.72,-102.95 168.35,-90.56 153.58,-81.11"/>
<polygon fill="midnightblue" stroke="midnightblue" points="155.37,-78.1 145.06,-75.66 151.59,-84 155.37,-78.1"/>
</g>
<!-- Node5 -->
<g id="node5" class="node">
<title>Node5</title>
<g id="a_node5"><a xlink:title=" ">
<polygon fill="none" stroke="#bfbfbf" points="190.02,-56.5 190.02,-75.5 259.02,-75.5 259.02,-56.5 190.02,-56.5"/>
<text text-anchor="middle" x="224.52" y="-63.5" font-family="Helvetica,sans-Serif" font-size="10.00">LCD_1in3.h</text>
</a>
</g>
</g>
<!-- Node1&#45;&gt;Node5 -->
<g id="edge4" class="edge">
<title>Node1&#45;&gt;Node5</title>
<path fill="none" stroke="midnightblue" d="M224.52,-112.4C224.52,-104.47 224.52,-94.46 224.52,-85.86"/>
<polygon fill="midnightblue" stroke="midnightblue" points="228.02,-85.66 224.52,-75.66 221.02,-85.66 228.02,-85.66"/>
</g>
<!-- Node6 -->
<g id="node6" class="node">
<title>Node6</title>
<g id="a_node6"><a xlink:title=" ">
<polygon fill="none" stroke="#bfbfbf" points="277.02,-56.5 277.02,-75.5 348.02,-75.5 348.02,-56.5 277.02,-56.5"/>
<text text-anchor="middle" x="312.52" y="-63.5" font-family="Helvetica,sans-Serif" font-size="10.00">GUI_Paint.h</text>
</a>
</g>
</g>
<!-- Node1&#45;&gt;Node6 -->
<g id="edge5" class="edge">
<title>Node1&#45;&gt;Node6</title>
<path fill="none" stroke="midnightblue" d="M245.38,-112.4C259.22,-103.04 277.34,-90.79 291.26,-81.38"/>
<polygon fill="midnightblue" stroke="midnightblue" points="293.4,-84.16 299.72,-75.66 289.47,-78.36 293.4,-84.16"/>
</g>
<!-- Node7 -->
<g id="node7" class="node">
<title>Node7</title>
<g id="a_node7"><a xlink:title=" ">
<polygon fill="none" stroke="#bfbfbf" points="366.02,-56.5 366.02,-75.5 435.02,-75.5 435.02,-56.5 366.02,-56.5"/>
<text text-anchor="middle" x="400.52" y="-63.5" font-family="Helvetica,sans-Serif" font-size="10.00">GUI_BMP.h</text>
</a>
</g>
</g>
<!-- Node1&#45;&gt;Node7 -->
<g id="edge6" class="edge">
<title>Node1&#45;&gt;Node7</title>
<path fill="none" stroke="midnightblue" d="M266.23,-112.4C296.51,-102.16 337.02,-88.47 365.6,-78.81"/>
<polygon fill="midnightblue" stroke="midnightblue" points="366.82,-82.09 375.17,-75.57 364.58,-75.46 366.82,-82.09"/>
</g>
<!-- Node8 -->
<g id="node8" class="node">
<title>Node8</title>
<g id="a_node8"><a xlink:href="_info_panel_8h.html" target="_top" xlink:title=" ">
<polygon fill="none" stroke="black" points="453.02,-56.5 453.02,-75.5 520.02,-75.5 520.02,-56.5 453.02,-56.5"/>
<text text-anchor="middle" x="486.52" y="-63.5" font-family="Helvetica,sans-Serif" font-size="10.00">InfoPanel.h</text>
</a>
</g>
</g>
<!-- Node1&#45;&gt;Node8 -->
<g id="edge7" class="edge">
<title>Node1&#45;&gt;Node8</title>
<path fill="none" stroke="midnightblue" d="M273.19,-115.45C321.86,-104.4 396.02,-87.55 442.85,-76.92"/>
<polygon fill="midnightblue" stroke="midnightblue" points="443.72,-80.31 452.69,-74.68 442.17,-73.48 443.72,-80.31"/>
</g>
<!-- Node8&#45;&gt;Node2 -->
<g id="edge8" class="edge">
<title>Node8&#45;&gt;Node2</title>
<path fill="none" stroke="midnightblue" d="M452.61,-57.66C449.88,-57.09 447.16,-56.53 444.52,-56 370.3,-41.03 282.74,-24.86 237.33,-16.58"/>
<polygon fill="midnightblue" stroke="midnightblue" points="237.71,-13.09 227.25,-14.74 236.46,-19.98 237.71,-13.09"/>
</g>
<!-- Node9 -->
<g id="node9" class="node">
<title>Node9</title>
<g id="a_node9"><a xlink:title=" ">
<polygon fill="none" stroke="#bfbfbf" points="462.02,-0.5 462.02,-19.5 511.02,-19.5 511.02,-0.5 462.02,-0.5"/>
<text text-anchor="middle" x="486.52" y="-7.5" font-family="Helvetica,sans-Serif" font-size="10.00">stdint.h</text>
</a>
</g>
</g>
<!-- Node8&#45;&gt;Node9 -->
<g id="edge9" class="edge">
<title>Node8&#45;&gt;Node9</title>
<path fill="none" stroke="midnightblue" d="M486.52,-56.08C486.52,-49.01 486.52,-38.86 486.52,-29.99"/>
<polygon fill="midnightblue" stroke="midnightblue" points="490.02,-29.75 486.52,-19.75 483.02,-29.75 490.02,-29.75"/>
</g>
</g>
</svg>
