<?xml version="1.0" encoding="UTF-8" standalone="no"?>
<!DOCTYPE svg PUBLIC "-//W3C//DTD SVG 1.1//EN"
 "http://www.w3.org/Graphics/SVG/1.1/DTD/svg11.dtd">
<!-- Generated by graphviz version 2.48.0 (20210717.1556)
 -->
<!-- Title: src/display_server/InfoPanel.h Pages: 1 -->
<svg width="261pt" height="173pt"
 viewBox="0.00 0.00 260.50 173.00" xmlns="http://www.w3.org/2000/svg" xmlns:xlink="http://www.w3.org/1999/xlink">
<g id="graph0" class="graph" transform="scale(1 1) rotate(0) translate(4 169)">
<title>src/display_server/InfoPanel.h</title>
<!-- Node1 -->
<g id="node1" class="node">
<title>Node1</title>
<g id="a_node1"><a xlink:title=" ">
<polygon fill="#bfbfbf" stroke="black" points="40.5,-134.5 40.5,-164.5 137.5,-164.5 137.5,-134.5 40.5,-134.5"/>
<text text-anchor="start" x="48.5" y="-152.5" font-family="Helvetica,sans-Serif" font-size="10.00">src/display_server</text>
<text text-anchor="middle" x="89" y="-141.5" font-family="Helvetica,sans-Serif" font-size="10.00">/InfoPanel.h</text>
</a>
</g>
</g>
<!-- Node2 -->
<g id="node2" class="node">
<title>Node2</title>
<g id="a_node2"><a xlink:href="_display_server_8cpp.html" target="_top" xlink:title=" ">
<polygon fill="none" stroke="black" points="0,-0.5 0,-30.5 100,-30.5 100,-0.5 0,-0.5"/>
<text text-anchor="start" x="8" y="-18.5" font-family="Helvetica,sans-Serif" font-size="10.00">src/display_server</text>
<text text-anchor="middle" x="50" y="-7.5" font-family="Helvetica,sans-Serif" font-size="10.00">/DisplayServer.cpp</text>
</a>
</g>
</g>
<!-- Node1&#45;&gt;Node2 -->
<g id="edge1" class="edge">
<title>Node1&#45;&gt;Node2</title>
<path fill="none" stroke="midnightblue" d="M56.38,-128.3C46.32,-120.23 36.46,-109.99 31,-98 20.83,-75.65 32.37,-47.29 41.38,-30.6"/>
<polygon fill="midnightblue" stroke="midnightblue" points="54.31,-131.12 64.41,-134.29 58.49,-125.51 54.31,-131.12"/>
</g>
<!-- Node3 -->
<g id="node3" class="node">
<title>Node3</title>
<g id="a_node3"><a xlink:href="_display_server_8h.html" target="_top" xlink:title=" ">
<polygon fill="none" stroke="black" points="40.5,-67.5 40.5,-97.5 137.5,-97.5 137.5,-67.5 40.5,-67.5"/>
<text text-anchor="start" x="48.5" y="-85.5" font-family="Helvetica,sans-Serif" font-size="10.00">src/display_server</text>
<text text-anchor="middle" x="89" y="-74.5" font-family="Helvetica,sans-Serif" font-size="10.00">/DisplayServer.h</text>
</a>
</g>
</g>
<!-- Node1&#45;&gt;Node3 -->
<g id="edge2" class="edge">
<title>Node1&#45;&gt;Node3</title>
<path fill="none" stroke="midnightblue" d="M89,-124.11C89,-115.15 89,-105.32 89,-97.58"/>
<polygon fill="midnightblue" stroke="midnightblue" points="85.5,-124.4 89,-134.4 92.5,-124.4 85.5,-124.4"/>
</g>
<!-- Node4 -->
<g id="node4" class="node">
<title>Node4</title>
<g id="a_node4"><a xlink:href="_info_panel_8cpp.html" target="_top" xlink:title=" ">
<polygon fill="none" stroke="black" points="155.5,-67.5 155.5,-97.5 252.5,-97.5 252.5,-67.5 155.5,-67.5"/>
<text text-anchor="start" x="163.5" y="-85.5" font-family="Helvetica,sans-Serif" font-size="10.00">src/display_server</text>
<text text-anchor="middle" x="204" y="-74.5" font-family="Helvetica,sans-Serif" font-size="10.00">/InfoPanel.cpp</text>
</a>
</g>
</g>
<!-- Node1&#45;&gt;Node4 -->
<g id="edge4" class="edge">
<title>Node1&#45;&gt;Node4</title>
<path fill="none" stroke="midnightblue" d="M122.98,-129.3C140.97,-119.12 162.68,-106.85 179.1,-97.58"/>
<polygon fill="midnightblue" stroke="midnightblue" points="120.94,-126.43 113.95,-134.4 124.38,-132.52 120.94,-126.43"/>
</g>
<!-- Node3&#45;&gt;Node2 -->
<g id="edge3" class="edge">
<title>Node3&#45;&gt;Node2</title>
<path fill="none" stroke="midnightblue" d="M75.25,-58.58C69.64,-49.24 63.35,-38.75 58.45,-30.58"/>
<polygon fill="midnightblue" stroke="midnightblue" points="72.39,-60.62 80.54,-67.4 78.39,-57.02 72.39,-60.62"/>
</g>
</g>
</svg>
