<?xml version="1.0" encoding="UTF-8" standalone="no"?>
<!DOCTYPE svg PUBLIC "-//W3C//DTD SVG 1.1//EN"
 "http://www.w3.org/Graphics/SVG/1.1/DTD/svg11.dtd">
<!-- Generated by graphviz version 2.48.0 (20210717.1556)
 -->
<!-- Title: src/RollerActuator.cpp Pages: 1 -->
<svg width="238pt" height="196pt"
 viewBox="0.00 0.00 238.00 196.00" xmlns="http://www.w3.org/2000/svg" xmlns:xlink="http://www.w3.org/1999/xlink">
<g id="graph0" class="graph" transform="scale(1 1) rotate(0) translate(4 192)">
<title>src/RollerActuator.cpp</title>
<!-- Node1 -->
<g id="node1" class="node">
<title>Node1</title>
<g id="a_node1"><a xlink:title=" ">
<polygon fill="#bfbfbf" stroke="black" points="44,-168.5 44,-187.5 158,-187.5 158,-168.5 44,-168.5"/>
<text text-anchor="middle" x="101" y="-175.5" font-family="Helvetica,sans-Serif" font-size="10.00">src/RollerActuator.cpp</text>
</a>
</g>
</g>
<!-- Node2 -->
<g id="node2" class="node">
<title>Node2</title>
<g id="a_node2"><a xlink:title=" ">
<polygon fill="none" stroke="#bfbfbf" points="0,-112.5 0,-131.5 60,-131.5 60,-112.5 0,-112.5"/>
<text text-anchor="middle" x="30" y="-119.5" font-family="Helvetica,sans-Serif" font-size="10.00">wiringPi.h</text>
</a>
</g>
</g>
<!-- Node1&#45;&gt;Node2 -->
<g id="edge1" class="edge">
<title>Node1&#45;&gt;Node2</title>
<path fill="none" stroke="midnightblue" d="M89.59,-168.32C78.89,-160.18 62.66,-147.84 49.84,-138.09"/>
<polygon fill="midnightblue" stroke="midnightblue" points="51.69,-135.1 41.61,-131.83 47.46,-140.67 51.69,-135.1"/>
</g>
<!-- Node3 -->
<g id="node3" class="node">
<title>Node3</title>
<g id="a_node3"><a xlink:href="_gpio_8h.html" target="_top" xlink:title=" ">
<polygon fill="none" stroke="black" points="78,-112.5 78,-131.5 124,-131.5 124,-112.5 78,-112.5"/>
<text text-anchor="middle" x="101" y="-119.5" font-family="Helvetica,sans-Serif" font-size="10.00">Gpio.h</text>
</a>
</g>
</g>
<!-- Node1&#45;&gt;Node3 -->
<g id="edge2" class="edge">
<title>Node1&#45;&gt;Node3</title>
<path fill="none" stroke="midnightblue" d="M101,-168.08C101,-161.01 101,-150.86 101,-141.99"/>
<polygon fill="midnightblue" stroke="midnightblue" points="104.5,-141.75 101,-131.75 97.5,-141.75 104.5,-141.75"/>
</g>
<!-- Node5 -->
<g id="node5" class="node">
<title>Node5</title>
<g id="a_node5"><a xlink:href="_roller_actuator_8h.html" target="_top" xlink:title=" ">
<polygon fill="none" stroke="black" points="142,-112.5 142,-131.5 230,-131.5 230,-112.5 142,-112.5"/>
<text text-anchor="middle" x="186" y="-119.5" font-family="Helvetica,sans-Serif" font-size="10.00">RollerActuator.h</text>
</a>
</g>
</g>
<!-- Node1&#45;&gt;Node5 -->
<g id="edge4" class="edge">
<title>Node1&#45;&gt;Node5</title>
<path fill="none" stroke="midnightblue" d="M114.66,-168.32C127.92,-159.9 148.27,-146.97 163.85,-137.07"/>
<polygon fill="midnightblue" stroke="midnightblue" points="165.81,-139.97 172.38,-131.65 162.06,-134.06 165.81,-139.97"/>
</g>
<!-- Node4 -->
<g id="node4" class="node">
<title>Node4</title>
<g id="a_node4"><a xlink:href="_singleton_8h.html" target="_top" xlink:title=" ">
<polygon fill="none" stroke="black" points="67.5,-56.5 67.5,-75.5 134.5,-75.5 134.5,-56.5 67.5,-56.5"/>
<text text-anchor="middle" x="101" y="-63.5" font-family="Helvetica,sans-Serif" font-size="10.00">Singleton.h</text>
</a>
</g>
</g>
<!-- Node3&#45;&gt;Node4 -->
<g id="edge3" class="edge">
<title>Node3&#45;&gt;Node4</title>
<path fill="none" stroke="midnightblue" d="M101,-112.08C101,-105.01 101,-94.86 101,-85.99"/>
<polygon fill="midnightblue" stroke="midnightblue" points="104.5,-85.75 101,-75.75 97.5,-85.75 104.5,-85.75"/>
</g>
<!-- Node6 -->
<g id="node6" class="node">
<title>Node6</title>
<g id="a_node6"><a xlink:href="_actuator_8h.html" target="_top" xlink:title=" ">
<polygon fill="none" stroke="black" points="155,-56.5 155,-75.5 217,-75.5 217,-56.5 155,-56.5"/>
<text text-anchor="middle" x="186" y="-63.5" font-family="Helvetica,sans-Serif" font-size="10.00">Actuator.h</text>
</a>
</g>
</g>
<!-- Node5&#45;&gt;Node6 -->
<g id="edge5" class="edge">
<title>Node5&#45;&gt;Node6</title>
<path fill="none" stroke="midnightblue" d="M186,-112.08C186,-105.01 186,-94.86 186,-85.99"/>
<polygon fill="midnightblue" stroke="midnightblue" points="189.5,-85.75 186,-75.75 182.5,-85.75 189.5,-85.75"/>
</g>
<!-- Node7 -->
<g id="node7" class="node">
<title>Node7</title>
<g id="a_node7"><a xlink:title=" ">
<polygon fill="none" stroke="#bfbfbf" points="158.5,-0.5 158.5,-19.5 213.5,-19.5 213.5,-0.5 158.5,-0.5"/>
<text text-anchor="middle" x="186" y="-7.5" font-family="Helvetica,sans-Serif" font-size="10.00">iostream</text>
</a>
</g>
</g>
<!-- Node6&#45;&gt;Node7 -->
<g id="edge6" class="edge">
<title>Node6&#45;&gt;Node7</title>
<path fill="none" stroke="midnightblue" d="M186,-56.08C186,-49.01 186,-38.86 186,-29.99"/>
<polygon fill="midnightblue" stroke="midnightblue" points="189.5,-29.75 186,-19.75 182.5,-29.75 189.5,-29.75"/>
</g>
</g>
</svg>
