<?xml version="1.0" encoding="UTF-8" standalone="no"?>
<!DOCTYPE svg PUBLIC "-//W3C//DTD SVG 1.1//EN"
 "http://www.w3.org/Graphics/SVG/1.1/DTD/svg11.dtd">
<!-- Generated by graphviz version 2.48.0 (20210717.1556)
 -->
<!-- Title: src/Sensor.h Pages: 1 -->
<svg width="571pt" height="140pt"
 viewBox="0.00 0.00 571.00 140.00" xmlns="http://www.w3.org/2000/svg" xmlns:xlink="http://www.w3.org/1999/xlink">
<g id="graph0" class="graph" transform="scale(1 1) rotate(0) translate(4 136)">
<title>src/Sensor.h</title>
<!-- Node1 -->
<g id="node1" class="node">
<title>Node1</title>
<g id="a_node1"><a xlink:title=" ">
<polygon fill="#bfbfbf" stroke="black" points="234,-112.5 234,-131.5 306,-131.5 306,-112.5 234,-112.5"/>
<text text-anchor="middle" x="270" y="-119.5" font-family="Helvetica,sans-Serif" font-size="10.00">src/Sensor.h</text>
</a>
</g>
</g>
<!-- Node2 -->
<g id="node2" class="node">
<title>Node2</title>
<g id="a_node2"><a xlink:href="_dht22_humid_sensor_8h.html" target="_top" xlink:title=" ">
<polygon fill="none" stroke="black" points="21,-56.5 21,-75.5 149,-75.5 149,-56.5 21,-56.5"/>
<text text-anchor="middle" x="85" y="-63.5" font-family="Helvetica,sans-Serif" font-size="10.00">src/Dht22HumidSensor.h</text>
</a>
</g>
</g>
<!-- Node1&#45;&gt;Node2 -->
<g id="edge1" class="edge">
<title>Node1&#45;&gt;Node2</title>
<path fill="none" stroke="midnightblue" d="M230.83,-109.57C195.93,-99.38 145.65,-84.7 114.18,-75.52"/>
<polygon fill="midnightblue" stroke="midnightblue" points="230.11,-113 240.69,-112.44 232.07,-106.28 230.11,-113"/>
</g>
<!-- Node5 -->
<g id="node5" class="node">
<title>Node5</title>
<g id="a_node5"><a xlink:href="_dht22_temp_sensor_8h.html" target="_top" xlink:title=" ">
<polygon fill="none" stroke="black" points="428.5,-56.5 428.5,-75.5 551.5,-75.5 551.5,-56.5 428.5,-56.5"/>
<text text-anchor="middle" x="490" y="-63.5" font-family="Helvetica,sans-Serif" font-size="10.00">src/Dht22TempSensor.h</text>
</a>
</g>
</g>
<!-- Node1&#45;&gt;Node5 -->
<g id="edge4" class="edge">
<title>Node1&#45;&gt;Node5</title>
<path fill="none" stroke="midnightblue" d="M314.72,-110.02C356.28,-99.82 417.31,-84.84 455.3,-75.52"/>
<polygon fill="midnightblue" stroke="midnightblue" points="313.74,-106.66 304.86,-112.44 315.41,-113.46 313.74,-106.66"/>
</g>
<!-- Node7 -->
<g id="node7" class="node">
<title>Node7</title>
<g id="a_node7"><a xlink:href="_incubator_8h.html" target="_top" xlink:title=" ">
<polygon fill="none" stroke="black" points="167,-56.5 167,-75.5 249,-75.5 249,-56.5 167,-56.5"/>
<text text-anchor="middle" x="208" y="-63.5" font-family="Helvetica,sans-Serif" font-size="10.00">src/Incubator.h</text>
</a>
</g>
</g>
<!-- Node1&#45;&gt;Node7 -->
<g id="edge6" class="edge">
<title>Node1&#45;&gt;Node7</title>
<path fill="none" stroke="midnightblue" d="M252.25,-105.54C241.19,-95.91 227.37,-83.87 218.14,-75.83"/>
<polygon fill="midnightblue" stroke="midnightblue" points="250.2,-108.4 260.04,-112.32 254.8,-103.12 250.2,-108.4"/>
</g>
<!-- Node8 -->
<g id="node8" class="node">
<title>Node8</title>
<g id="a_node8"><a xlink:href="_tmp117_temp_sensor_8h.html" target="_top" xlink:title=" ">
<polygon fill="none" stroke="black" points="267,-56.5 267,-75.5 399,-75.5 399,-56.5 267,-56.5"/>
<text text-anchor="middle" x="333" y="-63.5" font-family="Helvetica,sans-Serif" font-size="10.00">src/Tmp117TempSensor.h</text>
</a>
</g>
</g>
<!-- Node1&#45;&gt;Node8 -->
<g id="edge8" class="edge">
<title>Node1&#45;&gt;Node8</title>
<path fill="none" stroke="midnightblue" d="M288.04,-105.54C299.27,-95.91 313.32,-83.87 322.69,-75.83"/>
<polygon fill="midnightblue" stroke="midnightblue" points="285.44,-103.16 280.12,-112.32 289.99,-108.47 285.44,-103.16"/>
</g>
<!-- Node3 -->
<g id="node3" class="node">
<title>Node3</title>
<g id="a_node3"><a xlink:href="_dht22_humid_sensor_8cpp.html" target="_top" xlink:title=" ">
<polygon fill="none" stroke="black" points="0,-0.5 0,-19.5 138,-19.5 138,-0.5 0,-0.5"/>
<text text-anchor="middle" x="69" y="-7.5" font-family="Helvetica,sans-Serif" font-size="10.00">src/Dht22HumidSensor.cpp</text>
</a>
</g>
</g>
<!-- Node2&#45;&gt;Node3 -->
<g id="edge2" class="edge">
<title>Node2&#45;&gt;Node3</title>
<path fill="none" stroke="midnightblue" d="M79.49,-46.4C76.81,-37.36 73.72,-26.94 71.59,-19.75"/>
<polygon fill="midnightblue" stroke="midnightblue" points="76.16,-47.49 82.36,-56.08 82.87,-45.5 76.16,-47.49"/>
</g>
<!-- Node4 -->
<g id="node4" class="node">
<title>Node4</title>
<g id="a_node4"><a xlink:href="_incubator_8cpp.html" target="_top" xlink:title=" ">
<polygon fill="none" stroke="black" points="156.5,-0.5 156.5,-19.5 249.5,-19.5 249.5,-0.5 156.5,-0.5"/>
<text text-anchor="middle" x="203" y="-7.5" font-family="Helvetica,sans-Serif" font-size="10.00">src/Incubator.cpp</text>
</a>
</g>
</g>
<!-- Node2&#45;&gt;Node4 -->
<g id="edge3" class="edge">
<title>Node2&#45;&gt;Node4</title>
<path fill="none" stroke="midnightblue" d="M112.9,-52.23C134.97,-42.13 165.18,-28.31 184.39,-19.52"/>
<polygon fill="midnightblue" stroke="midnightblue" points="111.33,-49.1 103.7,-56.44 114.25,-55.46 111.33,-49.1"/>
</g>
<!-- Node6 -->
<g id="node6" class="node">
<title>Node6</title>
<g id="a_node6"><a xlink:href="_dht22_temp_sensor_8cpp.html" target="_top" xlink:title=" ">
<polygon fill="none" stroke="black" points="429,-0.5 429,-19.5 563,-19.5 563,-0.5 429,-0.5"/>
<text text-anchor="middle" x="496" y="-7.5" font-family="Helvetica,sans-Serif" font-size="10.00">src/Dht22TempSensor.cpp</text>
</a>
</g>
</g>
<!-- Node5&#45;&gt;Node6 -->
<g id="edge5" class="edge">
<title>Node5&#45;&gt;Node6</title>
<path fill="none" stroke="midnightblue" d="M492.1,-46.1C493.1,-37.14 494.24,-26.86 495.03,-19.75"/>
<polygon fill="midnightblue" stroke="midnightblue" points="488.62,-45.76 490.99,-56.08 495.57,-46.53 488.62,-45.76"/>
</g>
<!-- Node7&#45;&gt;Node4 -->
<g id="edge7" class="edge">
<title>Node7&#45;&gt;Node4</title>
<path fill="none" stroke="midnightblue" d="M206.25,-46.1C205.42,-37.14 204.47,-26.86 203.81,-19.75"/>
<polygon fill="midnightblue" stroke="midnightblue" points="202.77,-46.45 207.17,-56.08 209.74,-45.8 202.77,-46.45"/>
</g>
<!-- Node8&#45;&gt;Node4 -->
<g id="edge9" class="edge">
<title>Node8&#45;&gt;Node4</title>
<path fill="none" stroke="midnightblue" d="M302.91,-52.5C278.54,-42.38 244.86,-28.39 223.5,-19.52"/>
<polygon fill="midnightblue" stroke="midnightblue" points="301.82,-55.84 312.4,-56.44 304.51,-49.38 301.82,-55.84"/>
</g>
<!-- Node9 -->
<g id="node9" class="node">
<title>Node9</title>
<g id="a_node9"><a xlink:href="_tmp117_temp_sensor_8cpp.html" target="_top" xlink:title=" ">
<polygon fill="none" stroke="black" points="267.5,-0.5 267.5,-19.5 410.5,-19.5 410.5,-0.5 267.5,-0.5"/>
<text text-anchor="middle" x="339" y="-7.5" font-family="Helvetica,sans-Serif" font-size="10.00">src/Tmp117TempSensor.cpp</text>
</a>
</g>
</g>
<!-- Node8&#45;&gt;Node9 -->
<g id="edge10" class="edge">
<title>Node8&#45;&gt;Node9</title>
<path fill="none" stroke="midnightblue" d="M335.1,-46.1C336.1,-37.14 337.24,-26.86 338.03,-19.75"/>
<polygon fill="midnightblue" stroke="midnightblue" points="331.62,-45.76 333.99,-56.08 338.57,-46.53 331.62,-45.76"/>
</g>
</g>
</svg>
