<?xml version="1.0" encoding="UTF-8" standalone="no"?>
<!DOCTYPE svg PUBLIC "-//W3C//DTD SVG 1.1//EN"
 "http://www.w3.org/Graphics/SVG/1.1/DTD/svg11.dtd">
<!-- Generated by graphviz version 2.48.0 (20210717.1556)
 -->
<!-- Title: src/SessionTime.cpp Pages: 1 -->
<svg width="475pt" height="140pt"
 viewBox="0.00 0.00 475.00 140.00" xmlns="http://www.w3.org/2000/svg" xmlns:xlink="http://www.w3.org/1999/xlink">
<g id="graph0" class="graph" transform="scale(1 1) rotate(0) translate(4 136)">
<title>src/SessionTime.cpp</title>
<!-- Node1 -->
<g id="node1" class="node">
<title>Node1</title>
<g id="a_node1"><a xlink:title=" ">
<polygon fill="#bfbfbf" stroke="black" points="121,-112.5 121,-131.5 230,-131.5 230,-112.5 121,-112.5"/>
<text text-anchor="middle" x="175.5" y="-119.5" font-family="Helvetica,sans-Serif" font-size="10.00">src/SessionTime.cpp</text>
</a>
</g>
</g>
<!-- Node2 -->
<g id="node2" class="node">
<title>Node2</title>
<g id="a_node2"><a xlink:title=" ">
<polygon fill="none" stroke="#bfbfbf" points="0,-56.5 0,-75.5 59,-75.5 59,-56.5 0,-56.5"/>
<text text-anchor="middle" x="29.5" y="-63.5" font-family="Helvetica,sans-Serif" font-size="10.00">sys/stat.h</text>
</a>
</g>
</g>
<!-- Node1&#45;&gt;Node2 -->
<g id="edge1" class="edge">
<title>Node1&#45;&gt;Node2</title>
<path fill="none" stroke="midnightblue" d="M152.37,-112.44C128.02,-103.44 89.49,-89.19 62.08,-79.05"/>
<polygon fill="midnightblue" stroke="midnightblue" points="63.12,-75.7 52.53,-75.52 60.69,-82.27 63.12,-75.7"/>
</g>
<!-- Node3 -->
<g id="node3" class="node">
<title>Node3</title>
<g id="a_node3"><a xlink:title=" ">
<polygon fill="none" stroke="#bfbfbf" points="77,-56.5 77,-75.5 132,-75.5 132,-56.5 77,-56.5"/>
<text text-anchor="middle" x="104.5" y="-63.5" font-family="Helvetica,sans-Serif" font-size="10.00">iostream</text>
</a>
</g>
</g>
<!-- Node1&#45;&gt;Node3 -->
<g id="edge2" class="edge">
<title>Node1&#45;&gt;Node3</title>
<path fill="none" stroke="midnightblue" d="M164.09,-112.32C153.39,-104.18 137.16,-91.84 124.34,-82.09"/>
<polygon fill="midnightblue" stroke="midnightblue" points="126.19,-79.1 116.11,-75.83 121.96,-84.67 126.19,-79.1"/>
</g>
<!-- Node4 -->
<g id="node4" class="node">
<title>Node4</title>
<g id="a_node4"><a xlink:title=" ">
<polygon fill="none" stroke="#bfbfbf" points="150.5,-56.5 150.5,-75.5 200.5,-75.5 200.5,-56.5 150.5,-56.5"/>
<text text-anchor="middle" x="175.5" y="-63.5" font-family="Helvetica,sans-Serif" font-size="10.00">fstream</text>
</a>
</g>
</g>
<!-- Node1&#45;&gt;Node4 -->
<g id="edge3" class="edge">
<title>Node1&#45;&gt;Node4</title>
<path fill="none" stroke="midnightblue" d="M175.5,-112.08C175.5,-105.01 175.5,-94.86 175.5,-85.99"/>
<polygon fill="midnightblue" stroke="midnightblue" points="179,-85.75 175.5,-75.75 172,-85.75 179,-85.75"/>
</g>
<!-- Node5 -->
<g id="node5" class="node">
<title>Node5</title>
<g id="a_node5"><a xlink:title=" ">
<polygon fill="none" stroke="#bfbfbf" points="208,-0.5 208,-19.5 249,-19.5 249,-0.5 208,-0.5"/>
<text text-anchor="middle" x="228.5" y="-7.5" font-family="Helvetica,sans-Serif" font-size="10.00">string</text>
</a>
</g>
</g>
<!-- Node1&#45;&gt;Node5 -->
<g id="edge4" class="edge">
<title>Node1&#45;&gt;Node5</title>
<path fill="none" stroke="midnightblue" d="M183.58,-112.34C191.23,-103.72 202.55,-89.82 209.5,-76 216.92,-61.23 221.93,-43.07 224.93,-29.71"/>
<polygon fill="midnightblue" stroke="midnightblue" points="228.38,-30.29 226.98,-19.79 221.52,-28.87 228.38,-30.29"/>
</g>
<!-- Node6 -->
<g id="node6" class="node">
<title>Node6</title>
<g id="a_node6"><a xlink:href="_session_time_8h.html" target="_top" xlink:title=" ">
<polygon fill="none" stroke="black" points="256.5,-56.5 256.5,-75.5 338.5,-75.5 338.5,-56.5 256.5,-56.5"/>
<text text-anchor="middle" x="297.5" y="-63.5" font-family="Helvetica,sans-Serif" font-size="10.00">SessionTime.h</text>
</a>
</g>
</g>
<!-- Node1&#45;&gt;Node6 -->
<g id="edge5" class="edge">
<title>Node1&#45;&gt;Node6</title>
<path fill="none" stroke="midnightblue" d="M194.83,-112.44C214.82,-103.6 246.24,-89.69 269.06,-79.59"/>
<polygon fill="midnightblue" stroke="midnightblue" points="270.53,-82.76 278.26,-75.52 267.7,-76.36 270.53,-82.76"/>
</g>
<!-- Node6&#45;&gt;Node5 -->
<g id="edge8" class="edge">
<title>Node6&#45;&gt;Node5</title>
<path fill="none" stroke="midnightblue" d="M286.41,-56.32C276.01,-48.18 260.24,-35.84 247.78,-26.09"/>
<polygon fill="midnightblue" stroke="midnightblue" points="249.82,-23.24 239.79,-19.83 245.51,-28.75 249.82,-23.24"/>
</g>
<!-- Node7 -->
<g id="node7" class="node">
<title>Node7</title>
<g id="a_node7"><a xlink:title=" ">
<polygon fill="none" stroke="#bfbfbf" points="267.5,-0.5 267.5,-19.5 319.5,-19.5 319.5,-0.5 267.5,-0.5"/>
<text text-anchor="middle" x="293.5" y="-7.5" font-family="Helvetica,sans-Serif" font-size="10.00">unistd.h</text>
</a>
</g>
</g>
<!-- Node6&#45;&gt;Node7 -->
<g id="edge6" class="edge">
<title>Node6&#45;&gt;Node7</title>
<path fill="none" stroke="midnightblue" d="M296.84,-56.08C296.32,-49.01 295.56,-38.86 294.91,-29.99"/>
<polygon fill="midnightblue" stroke="midnightblue" points="298.38,-29.47 294.15,-19.75 291.4,-29.98 298.38,-29.47"/>
</g>
<!-- Node8 -->
<g id="node8" class="node">
<title>Node8</title>
<g id="a_node8"><a xlink:title=" ">
<polygon fill="none" stroke="#bfbfbf" points="337.5,-0.5 337.5,-19.5 381.5,-19.5 381.5,-0.5 337.5,-0.5"/>
<text text-anchor="middle" x="359.5" y="-7.5" font-family="Helvetica,sans-Serif" font-size="10.00">time.h</text>
</a>
</g>
</g>
<!-- Node6&#45;&gt;Node8 -->
<g id="edge7" class="edge">
<title>Node6&#45;&gt;Node8</title>
<path fill="none" stroke="midnightblue" d="M307.46,-56.32C316.63,-48.34 330.44,-36.31 341.53,-26.65"/>
<polygon fill="midnightblue" stroke="midnightblue" points="344.12,-29.04 349.36,-19.83 339.52,-23.76 344.12,-29.04"/>
</g>
<!-- Node9 -->
<g id="node9" class="node">
<title>Node9</title>
<g id="a_node9"><a xlink:href="_singleton_8h.html" target="_top" xlink:title=" ">
<polygon fill="none" stroke="black" points="400,-0.5 400,-19.5 467,-19.5 467,-0.5 400,-0.5"/>
<text text-anchor="middle" x="433.5" y="-7.5" font-family="Helvetica,sans-Serif" font-size="10.00">Singleton.h</text>
</a>
</g>
</g>
<!-- Node6&#45;&gt;Node9 -->
<g id="edge9" class="edge">
<title>Node6&#45;&gt;Node9</title>
<path fill="none" stroke="midnightblue" d="M319.05,-56.44C341.53,-47.52 376.99,-33.44 402.48,-23.32"/>
<polygon fill="midnightblue" stroke="midnightblue" points="404.05,-26.46 412.05,-19.52 401.47,-19.95 404.05,-26.46"/>
</g>
</g>
</svg>
