<?xml version="1.0" encoding="UTF-8" standalone="no"?>
<!DOCTYPE svg PUBLIC "-//W3C//DTD SVG 1.1//EN"
 "http://www.w3.org/Graphics/SVG/1.1/DTD/svg11.dtd">
<!-- Generated by graphviz version 2.50.0 (20211204.2007)
 -->
<!-- Title: sBeginTimeName Pages: 1 -->
<svg width="461pt" height="85pt"
 viewBox="0.00 0.00 461.00 85.00" xmlns="http://www.w3.org/2000/svg" xmlns:xlink="http://www.w3.org/1999/xlink">
<g id="graph0" class="graph" transform="scale(1 1) rotate(0) translate(4 81)">
<title>sBeginTimeName</title>
<!-- Node1 -->
<g id="node1" class="node">
<title>Node1</title>
<g id="a_node1"><a xlink:title=" ">
<polygon fill="#bfbfbf" stroke="black" points="358,-19.5 358,-38.5 453,-38.5 453,-19.5 358,-19.5"/>
<text text-anchor="middle" x="405.5" y="-26.5" font-family="Helvetica,sans-Serif" font-size="10.00">sBeginTimeName</text>
</a>
</g>
</g>
<!-- Node2 -->
<g id="node2" class="node">
<title>Node2</title>
<g id="a_node2"><a xlink:href="class_session_time.html#a22ab81d2e9448c9cbcaef59c2d8eb8dc" target="_top" xlink:title=" ">
<polygon fill="none" stroke="black" points="219,-38.5 219,-57.5 311,-57.5 311,-38.5 219,-38.5"/>
<text text-anchor="middle" x="265" y="-45.5" font-family="Helvetica,sans-Serif" font-size="10.00">SessionTime::init</text>
</a>
</g>
</g>
<!-- Node1&#45;&gt;Node2 -->
<g id="edge1" class="edge">
<title>Node1&#45;&gt;Node2</title>
<path fill="none" stroke="midnightblue" d="M347.9,-36.77C335.68,-38.44 322.92,-40.19 311.21,-41.8"/>
<polygon fill="midnightblue" stroke="midnightblue" points="348.56,-40.21 358,-35.38 347.61,-33.27 348.56,-40.21"/>
</g>
<!-- Node6 -->
<g id="node6" class="node">
<title>Node6</title>
<g id="a_node6"><a xlink:href="class_session_time.html#a78e7701a8055b6fba72c015aaf9faf3d" target="_top" xlink:title=" ">
<polygon fill="none" stroke="black" points="208,-0.5 208,-19.5 322,-19.5 322,-0.5 208,-0.5"/>
<text text-anchor="middle" x="265" y="-7.5" font-family="Helvetica,sans-Serif" font-size="10.00">SessionTime::setStart</text>
</a>
</g>
</g>
<!-- Node1&#45;&gt;Node6 -->
<g id="edge6" class="edge">
<title>Node1&#45;&gt;Node6</title>
<path fill="none" stroke="midnightblue" d="M347.85,-21.23C339.39,-20.07 330.68,-18.87 322.23,-17.71"/>
<polygon fill="midnightblue" stroke="midnightblue" points="347.61,-24.73 358,-22.62 348.56,-17.79 347.61,-24.73"/>
</g>
<!-- Node3 -->
<g id="node3" class="node">
<title>Node3</title>
<g id="a_node3"><a xlink:href="class_incubator.html#ae7355111b46b8cd6d2c88c5ba76fb084" target="_top" xlink:title=" ">
<polygon fill="none" stroke="black" points="85,-57.5 85,-76.5 161,-76.5 161,-57.5 85,-57.5"/>
<text text-anchor="middle" x="123" y="-64.5" font-family="Helvetica,sans-Serif" font-size="10.00">Incubator::init</text>
</a>
</g>
</g>
<!-- Node2&#45;&gt;Node3 -->
<g id="edge2" class="edge">
<title>Node2&#45;&gt;Node3</title>
<path fill="none" stroke="midnightblue" d="M208.62,-55.52C192.64,-57.68 175.6,-60 161.03,-61.97"/>
<polygon fill="midnightblue" stroke="midnightblue" points="209.49,-58.93 218.93,-54.12 208.55,-51.99 209.49,-58.93"/>
</g>
<!-- Node5 -->
<g id="node5" class="node">
<title>Node5</title>
<g id="a_node5"><a xlink:href="class_incubator.html#ab2084701ceb46e156faa8c7e9724a0fd" target="_top" xlink:title=" ">
<polygon fill="none" stroke="black" points="74,-19.5 74,-38.5 172,-38.5 172,-19.5 74,-19.5"/>
<text text-anchor="middle" x="123" y="-26.5" font-family="Helvetica,sans-Serif" font-size="10.00">Incubator::runLoop</text>
</a>
</g>
</g>
<!-- Node2&#45;&gt;Node5 -->
<g id="edge4" class="edge">
<title>Node2&#45;&gt;Node5</title>
<path fill="none" stroke="midnightblue" d="M208.96,-40.53C196.88,-38.89 184.17,-37.17 172.37,-35.56"/>
<polygon fill="midnightblue" stroke="midnightblue" points="208.55,-44.01 218.93,-41.88 209.49,-37.07 208.55,-44.01"/>
</g>
<!-- Node4 -->
<g id="node4" class="node">
<title>Node4</title>
<g id="a_node4"><a xlink:href="_incubator_8cpp.html#a0ddf1224851353fc92bfbff6f499fa97" target="_top" xlink:title=" ">
<polygon fill="none" stroke="black" points="0,-38.5 0,-57.5 38,-57.5 38,-38.5 0,-38.5"/>
<text text-anchor="middle" x="19" y="-45.5" font-family="Helvetica,sans-Serif" font-size="10.00">main</text>
</a>
</g>
</g>
<!-- Node3&#45;&gt;Node4 -->
<g id="edge3" class="edge">
<title>Node3&#45;&gt;Node4</title>
<path fill="none" stroke="midnightblue" d="M74.98,-58.24C61.87,-55.8 48.4,-53.29 38.07,-51.37"/>
<polygon fill="midnightblue" stroke="midnightblue" points="74.42,-61.7 84.89,-60.09 75.7,-54.81 74.42,-61.7"/>
</g>
<!-- Node5&#45;&gt;Node4 -->
<g id="edge5" class="edge">
<title>Node5&#45;&gt;Node4</title>
<path fill="none" stroke="midnightblue" d="M64.08,-39.79C54.63,-41.55 45.51,-43.25 38.04,-44.64"/>
<polygon fill="midnightblue" stroke="midnightblue" points="64.8,-43.22 73.99,-37.94 63.51,-36.33 64.8,-43.22"/>
</g>
</g>
</svg>
