<?xml version="1.0" encoding="UTF-8" standalone="no"?>
<!DOCTYPE svg PUBLIC "-//W3C//DTD SVG 1.1//EN"
 "http://www.w3.org/Graphics/SVG/1.1/DTD/svg11.dtd">
<!-- Generated by graphviz version 2.48.0 (20210717.1556)
 -->
<!-- Title: src/Signal.cpp Pages: 1 -->
<svg width="406pt" height="140pt"
 viewBox="0.00 0.00 405.50 140.00" xmlns="http://www.w3.org/2000/svg" xmlns:xlink="http://www.w3.org/1999/xlink">
<g id="graph0" class="graph" transform="scale(1 1) rotate(0) translate(4 136)">
<title>src/Signal.cpp</title>
<!-- Node1 -->
<g id="node1" class="node">
<title>Node1</title>
<g id="a_node1"><a xlink:title=" ">
<polygon fill="#bfbfbf" stroke="black" points="108.5,-112.5 108.5,-131.5 187.5,-131.5 187.5,-112.5 108.5,-112.5"/>
<text text-anchor="middle" x="148" y="-119.5" font-family="Helvetica,sans-Serif" font-size="10.00">src/Signal.cpp</text>
</a>
</g>
</g>
<!-- Node2 -->
<g id="node2" class="node">
<title>Node2</title>
<g id="a_node2"><a xlink:title=" ">
<polygon fill="none" stroke="#bfbfbf" points="84.5,-56.5 84.5,-75.5 139.5,-75.5 139.5,-56.5 84.5,-56.5"/>
<text text-anchor="middle" x="112" y="-63.5" font-family="Helvetica,sans-Serif" font-size="10.00">iostream</text>
</a>
</g>
</g>
<!-- Node1&#45;&gt;Node2 -->
<g id="edge1" class="edge">
<title>Node1&#45;&gt;Node2</title>
<path fill="none" stroke="midnightblue" d="M142.06,-112.08C137.02,-104.53 129.66,-93.49 123.49,-84.23"/>
<polygon fill="midnightblue" stroke="midnightblue" points="126.29,-82.13 117.83,-75.75 120.47,-86.01 126.29,-82.13"/>
</g>
<!-- Node3 -->
<g id="node3" class="node">
<title>Node3</title>
<g id="a_node3"><a xlink:href="_signal_8h.html" target="_top" xlink:title=" ">
<polygon fill="none" stroke="black" points="157.5,-56.5 157.5,-75.5 210.5,-75.5 210.5,-56.5 157.5,-56.5"/>
<text text-anchor="middle" x="184" y="-63.5" font-family="Helvetica,sans-Serif" font-size="10.00">Signal.h</text>
</a>
</g>
</g>
<!-- Node1&#45;&gt;Node3 -->
<g id="edge2" class="edge">
<title>Node1&#45;&gt;Node3</title>
<path fill="none" stroke="midnightblue" d="M153.94,-112.08C158.98,-104.53 166.34,-93.49 172.51,-84.23"/>
<polygon fill="midnightblue" stroke="midnightblue" points="175.53,-86.01 178.17,-75.75 169.71,-82.13 175.53,-86.01"/>
</g>
<!-- Node3&#45;&gt;Node3 -->
<g id="edge7" class="edge">
<title>Node3&#45;&gt;Node3</title>
<path fill="none" stroke="midnightblue" d="M203.21,-75.57C216.03,-78.27 228.5,-75.08 228.5,-66 228.5,-59.4 221.92,-55.92 213.4,-55.54"/>
<polygon fill="midnightblue" stroke="midnightblue" points="212.87,-52.07 203.21,-56.43 213.48,-59.04 212.87,-52.07"/>
</g>
<!-- Node4 -->
<g id="node4" class="node">
<title>Node4</title>
<g id="a_node4"><a xlink:title=" ">
<polygon fill="none" stroke="#bfbfbf" points="0,-0.5 0,-19.5 46,-19.5 46,-0.5 0,-0.5"/>
<text text-anchor="middle" x="23" y="-7.5" font-family="Helvetica,sans-Serif" font-size="10.00">atomic</text>
</a>
</g>
</g>
<!-- Node3&#45;&gt;Node4 -->
<g id="edge3" class="edge">
<title>Node3&#45;&gt;Node4</title>
<path fill="none" stroke="midnightblue" d="M158.49,-56.44C130.69,-47.12 86.12,-32.17 55.75,-21.99"/>
<polygon fill="midnightblue" stroke="midnightblue" points="56.64,-18.59 46.04,-18.73 54.41,-25.23 56.64,-18.59"/>
</g>
<!-- Node5 -->
<g id="node5" class="node">
<title>Node5</title>
<g id="a_node5"><a xlink:title=" ">
<polygon fill="none" stroke="#bfbfbf" points="64.5,-0.5 64.5,-19.5 111.5,-19.5 111.5,-0.5 64.5,-0.5"/>
<text text-anchor="middle" x="88" y="-7.5" font-family="Helvetica,sans-Serif" font-size="10.00">chrono</text>
</a>
</g>
</g>
<!-- Node3&#45;&gt;Node5 -->
<g id="edge4" class="edge">
<title>Node3&#45;&gt;Node5</title>
<path fill="none" stroke="midnightblue" d="M168.58,-56.32C153.46,-47.82 130.18,-34.73 112.53,-24.8"/>
<polygon fill="midnightblue" stroke="midnightblue" points="113.82,-21.51 103.39,-19.65 110.39,-27.61 113.82,-21.51"/>
</g>
<!-- Node6 -->
<g id="node6" class="node">
<title>Node6</title>
<g id="a_node6"><a xlink:title=" ">
<polygon fill="none" stroke="#bfbfbf" points="129.5,-0.5 129.5,-19.5 174.5,-19.5 174.5,-0.5 129.5,-0.5"/>
<text text-anchor="middle" x="152" y="-7.5" font-family="Helvetica,sans-Serif" font-size="10.00">thread</text>
</a>
</g>
</g>
<!-- Node3&#45;&gt;Node6 -->
<g id="edge5" class="edge">
<title>Node3&#45;&gt;Node6</title>
<path fill="none" stroke="midnightblue" d="M178.72,-56.08C174.29,-48.61 167.84,-37.72 162.38,-28.52"/>
<polygon fill="midnightblue" stroke="midnightblue" points="165.29,-26.57 157.19,-19.75 159.27,-30.14 165.29,-26.57"/>
</g>
<!-- Node7 -->
<g id="node7" class="node">
<title>Node7</title>
<g id="a_node7"><a xlink:title=" ">
<polygon fill="none" stroke="#bfbfbf" points="192.5,-0.5 192.5,-19.5 241.5,-19.5 241.5,-0.5 192.5,-0.5"/>
<text text-anchor="middle" x="217" y="-7.5" font-family="Helvetica,sans-Serif" font-size="10.00">cassert</text>
</a>
</g>
</g>
<!-- Node3&#45;&gt;Node7 -->
<g id="edge6" class="edge">
<title>Node3&#45;&gt;Node7</title>
<path fill="none" stroke="midnightblue" d="M189.45,-56.08C194.01,-48.61 200.67,-37.72 206.29,-28.52"/>
<polygon fill="midnightblue" stroke="midnightblue" points="209.42,-30.11 211.65,-19.75 203.45,-26.46 209.42,-30.11"/>
</g>
<!-- Node8 -->
<g id="node8" class="node">
<title>Node8</title>
<g id="a_node8"><a xlink:title=" ">
<polygon fill="none" stroke="#bfbfbf" points="260,-0.5 260,-19.5 312,-19.5 312,-0.5 260,-0.5"/>
<text text-anchor="middle" x="286" y="-7.5" font-family="Helvetica,sans-Serif" font-size="10.00">unistd.h</text>
</a>
</g>
</g>
<!-- Node3&#45;&gt;Node8 -->
<g id="edge8" class="edge">
<title>Node3&#45;&gt;Node8</title>
<path fill="none" stroke="midnightblue" d="M200.39,-56.32C216.67,-47.7 241.87,-34.36 260.72,-24.39"/>
<polygon fill="midnightblue" stroke="midnightblue" points="262.45,-27.43 269.65,-19.65 259.18,-21.24 262.45,-27.43"/>
</g>
<!-- Node9 -->
<g id="node9" class="node">
<title>Node9</title>
<g id="a_node9"><a xlink:href="_singleton_8h.html" target="_top" xlink:title=" ">
<polygon fill="none" stroke="black" points="330.5,-0.5 330.5,-19.5 397.5,-19.5 397.5,-0.5 330.5,-0.5"/>
<text text-anchor="middle" x="364" y="-7.5" font-family="Helvetica,sans-Serif" font-size="10.00">Singleton.h</text>
</a>
</g>
</g>
<!-- Node3&#45;&gt;Node9 -->
<g id="edge9" class="edge">
<title>Node3&#45;&gt;Node9</title>
<path fill="none" stroke="midnightblue" d="M210.56,-57.03C241,-47.9 291.14,-32.86 325.78,-22.47"/>
<polygon fill="midnightblue" stroke="midnightblue" points="326.97,-25.76 335.55,-19.54 324.96,-19.06 326.97,-25.76"/>
</g>
</g>
</svg>
