<?xml version="1.0" encoding="UTF-8" standalone="no"?>
<!DOCTYPE svg PUBLIC "-//W3C//DTD SVG 1.1//EN"
 "http://www.w3.org/Graphics/SVG/1.1/DTD/svg11.dtd">
<!-- Generated by graphviz version 2.48.0 (20210717.1556)
 -->
<!-- Title: src/Signal.h Pages: 1 -->
<svg width="193pt" height="141pt"
 viewBox="0.00 0.00 193.00 140.53" xmlns="http://www.w3.org/2000/svg" xmlns:xlink="http://www.w3.org/1999/xlink">
<g id="graph0" class="graph" transform="scale(1 1) rotate(0) translate(4 136.53)">
<title>src/Signal.h</title>
<!-- Node1 -->
<g id="node1" class="node">
<title>Node1</title>
<g id="a_node1"><a xlink:title=" ">
<polygon fill="#bfbfbf" stroke="black" points="61,-112.5 61,-131.5 130,-131.5 130,-112.5 61,-112.5"/>
<text text-anchor="middle" x="95.5" y="-119.5" font-family="Helvetica,sans-Serif" font-size="10.00">src/Signal.h</text>
</a>
</g>
</g>
<!-- Node1&#45;&gt;Node1 -->
<g id="edge4" class="edge">
<title>Node1&#45;&gt;Node1</title>
<path fill="none" stroke="midnightblue" d="M128.01,-132.5C139.09,-132.56 148,-129.06 148,-122 148,-112.87 133.11,-109.69 117.89,-112.47"/>
<polygon fill="midnightblue" stroke="midnightblue" points="128.18,-129 117.89,-131.53 127.51,-135.97 128.18,-129"/>
</g>
<!-- Node2 -->
<g id="node2" class="node">
<title>Node2</title>
<g id="a_node2"><a xlink:href="_incubator_8h.html" target="_top" xlink:title=" ">
<polygon fill="none" stroke="black" points="5.5,-56.5 5.5,-75.5 87.5,-75.5 87.5,-56.5 5.5,-56.5"/>
<text text-anchor="middle" x="46.5" y="-63.5" font-family="Helvetica,sans-Serif" font-size="10.00">src/Incubator.h</text>
</a>
</g>
</g>
<!-- Node1&#45;&gt;Node2 -->
<g id="edge1" class="edge">
<title>Node1&#45;&gt;Node2</title>
<path fill="none" stroke="midnightblue" d="M80.47,-104.43C71.88,-94.97 61.46,-83.48 54.44,-75.75"/>
<polygon fill="midnightblue" stroke="midnightblue" points="78.1,-107.03 87.41,-112.08 83.28,-102.33 78.1,-107.03"/>
</g>
<!-- Node4 -->
<g id="node4" class="node">
<title>Node4</title>
<g id="a_node4"><a xlink:href="_signal_8cpp.html" target="_top" xlink:title=" ">
<polygon fill="none" stroke="black" points="106,-56.5 106,-75.5 185,-75.5 185,-56.5 106,-56.5"/>
<text text-anchor="middle" x="145.5" y="-63.5" font-family="Helvetica,sans-Serif" font-size="10.00">src/Signal.cpp</text>
</a>
</g>
</g>
<!-- Node1&#45;&gt;Node4 -->
<g id="edge3" class="edge">
<title>Node1&#45;&gt;Node4</title>
<path fill="none" stroke="midnightblue" d="M110.58,-104.72C119.39,-95.2 130.17,-83.56 137.4,-75.75"/>
<polygon fill="midnightblue" stroke="midnightblue" points="107.98,-102.37 103.76,-112.08 113.12,-107.12 107.98,-102.37"/>
</g>
<!-- Node3 -->
<g id="node3" class="node">
<title>Node3</title>
<g id="a_node3"><a xlink:href="_incubator_8cpp.html" target="_top" xlink:title=" ">
<polygon fill="none" stroke="black" points="0,-0.5 0,-19.5 93,-19.5 93,-0.5 0,-0.5"/>
<text text-anchor="middle" x="46.5" y="-7.5" font-family="Helvetica,sans-Serif" font-size="10.00">src/Incubator.cpp</text>
</a>
</g>
</g>
<!-- Node2&#45;&gt;Node3 -->
<g id="edge2" class="edge">
<title>Node2&#45;&gt;Node3</title>
<path fill="none" stroke="midnightblue" d="M46.5,-45.8C46.5,-36.91 46.5,-26.78 46.5,-19.75"/>
<polygon fill="midnightblue" stroke="midnightblue" points="43,-46.08 46.5,-56.08 50,-46.08 43,-46.08"/>
</g>
</g>
</svg>
