<?xml version="1.0" encoding="UTF-8" standalone="no"?>
<!DOCTYPE svg PUBLIC "-//W3C//DTD SVG 1.1//EN"
 "http://www.w3.org/Graphics/SVG/1.1/DTD/svg11.dtd">
<!-- Generated by graphviz version 2.48.0 (20210717.1556)
 -->
<!-- Title: src/Singleton.h Pages: 1 -->
<svg width="1038pt" height="196pt"
 viewBox="0.00 0.00 1038.00 196.00" xmlns="http://www.w3.org/2000/svg" xmlns:xlink="http://www.w3.org/1999/xlink">
<g id="graph0" class="graph" transform="scale(1 1) rotate(0) translate(4 192)">
<title>src/Singleton.h</title>
<!-- Node1 -->
<g id="node1" class="node">
<title>Node1</title>
<g id="a_node1"><a xlink:title=" ">
<polygon fill="#bfbfbf" stroke="black" points="261.5,-168.5 261.5,-187.5 344.5,-187.5 344.5,-168.5 261.5,-168.5"/>
<text text-anchor="middle" x="303" y="-175.5" font-family="Helvetica,sans-Serif" font-size="10.00">src/Singleton.h</text>
</a>
</g>
</g>
<!-- Node2 -->
<g id="node2" class="node">
<title>Node2</title>
<g id="a_node2"><a xlink:href="_env_8h.html" target="_top" xlink:title=" ">
<polygon fill="none" stroke="black" points="127.5,-112.5 127.5,-131.5 184.5,-131.5 184.5,-112.5 127.5,-112.5"/>
<text text-anchor="middle" x="156" y="-119.5" font-family="Helvetica,sans-Serif" font-size="10.00">src/Env.h</text>
</a>
</g>
</g>
<!-- Node1&#45;&gt;Node2 -->
<g id="edge1" class="edge">
<title>Node1&#45;&gt;Node2</title>
<path fill="none" stroke="midnightblue" d="M270.08,-164.91C242.44,-154.75 203.66,-140.51 179.18,-131.52"/>
<polygon fill="midnightblue" stroke="midnightblue" points="269.11,-168.28 279.71,-168.44 271.53,-161.71 269.11,-168.28"/>
</g>
<!-- Node6 -->
<g id="node6" class="node">
<title>Node6</title>
<g id="a_node6"><a xlink:href="_gpio_8h.html" target="_top" xlink:title=" ">
<polygon fill="none" stroke="black" points="591,-112.5 591,-131.5 653,-131.5 653,-112.5 591,-112.5"/>
<text text-anchor="middle" x="622" y="-119.5" font-family="Helvetica,sans-Serif" font-size="10.00">src/Gpio.h</text>
</a>
</g>
</g>
<!-- Node1&#45;&gt;Node6 -->
<g id="edge5" class="edge">
<title>Node1&#45;&gt;Node6</title>
<path fill="none" stroke="midnightblue" d="M354.61,-168.26C421.46,-156.95 535.93,-137.57 590.83,-128.28"/>
<polygon fill="midnightblue" stroke="midnightblue" points="353.98,-164.82 344.7,-169.94 355.15,-171.72 353.98,-164.82"/>
</g>
<!-- Node12 -->
<g id="node12" class="node">
<title>Node12</title>
<g id="a_node12"><a xlink:href="_session_time_8h.html" target="_top" xlink:title=" ">
<polygon fill="none" stroke="black" points="203,-112.5 203,-131.5 301,-131.5 301,-112.5 203,-112.5"/>
<text text-anchor="middle" x="252" y="-119.5" font-family="Helvetica,sans-Serif" font-size="10.00">src/SessionTime.h</text>
</a>
</g>
</g>
<!-- Node1&#45;&gt;Node12 -->
<g id="edge11" class="edge">
<title>Node1&#45;&gt;Node12</title>
<path fill="none" stroke="midnightblue" d="M287.62,-160.72C278.63,-151.2 267.64,-139.56 260.26,-131.75"/>
<polygon fill="midnightblue" stroke="midnightblue" points="285.17,-163.22 294.58,-168.08 290.26,-158.41 285.17,-163.22"/>
</g>
<!-- Node14 -->
<g id="node14" class="node">
<title>Node14</title>
<g id="a_node14"><a xlink:href="_signal_8h.html" target="_top" xlink:title=" ">
<polygon fill="none" stroke="black" points="319.5,-112.5 319.5,-131.5 388.5,-131.5 388.5,-112.5 319.5,-112.5"/>
<text text-anchor="middle" x="354" y="-119.5" font-family="Helvetica,sans-Serif" font-size="10.00">src/Signal.h</text>
</a>
</g>
</g>
<!-- Node1&#45;&gt;Node14 -->
<g id="edge14" class="edge">
<title>Node1&#45;&gt;Node14</title>
<path fill="none" stroke="midnightblue" d="M318.38,-160.72C327.37,-151.2 338.36,-139.56 345.74,-131.75"/>
<polygon fill="midnightblue" stroke="midnightblue" points="315.74,-158.41 311.42,-168.08 320.83,-163.22 315.74,-158.41"/>
</g>
<!-- Node3 -->
<g id="node3" class="node">
<title>Node3</title>
<g id="a_node3"><a xlink:href="_env_8cpp.html" target="_top" xlink:title=" ">
<polygon fill="none" stroke="black" points="0,-56.5 0,-75.5 68,-75.5 68,-56.5 0,-56.5"/>
<text text-anchor="middle" x="34" y="-63.5" font-family="Helvetica,sans-Serif" font-size="10.00">src/Env.cpp</text>
</a>
</g>
</g>
<!-- Node2&#45;&gt;Node3 -->
<g id="edge2" class="edge">
<title>Node2&#45;&gt;Node3</title>
<path fill="none" stroke="midnightblue" d="M127.46,-108.37C104.61,-98.26 73.19,-84.35 53.24,-75.52"/>
<polygon fill="midnightblue" stroke="midnightblue" points="126.11,-111.6 136.67,-112.44 128.94,-105.2 126.11,-111.6"/>
</g>
<!-- Node4 -->
<g id="node4" class="node">
<title>Node4</title>
<g id="a_node4"><a xlink:href="_incubator_8h.html" target="_top" xlink:title=" ">
<polygon fill="none" stroke="black" points="214,-56.5 214,-75.5 296,-75.5 296,-56.5 214,-56.5"/>
<text text-anchor="middle" x="255" y="-63.5" font-family="Helvetica,sans-Serif" font-size="10.00">src/Incubator.h</text>
</a>
</g>
</g>
<!-- Node2&#45;&gt;Node4 -->
<g id="edge3" class="edge">
<title>Node2&#45;&gt;Node4</title>
<path fill="none" stroke="midnightblue" d="M180.84,-107.45C199.11,-97.48 223.42,-84.23 239.13,-75.65"/>
<polygon fill="midnightblue" stroke="midnightblue" points="179.01,-104.46 171.91,-112.32 182.36,-110.61 179.01,-104.46"/>
</g>
<!-- Node5 -->
<g id="node5" class="node">
<title>Node5</title>
<g id="a_node5"><a xlink:href="_incubator_8cpp.html" target="_top" xlink:title=" ">
<polygon fill="none" stroke="black" points="208.5,-0.5 208.5,-19.5 301.5,-19.5 301.5,-0.5 208.5,-0.5"/>
<text text-anchor="middle" x="255" y="-7.5" font-family="Helvetica,sans-Serif" font-size="10.00">src/Incubator.cpp</text>
</a>
</g>
</g>
<!-- Node4&#45;&gt;Node5 -->
<g id="edge4" class="edge">
<title>Node4&#45;&gt;Node5</title>
<path fill="none" stroke="midnightblue" d="M255,-45.8C255,-36.91 255,-26.78 255,-19.75"/>
<polygon fill="midnightblue" stroke="midnightblue" points="251.5,-46.08 255,-56.08 258.5,-46.08 251.5,-46.08"/>
</g>
<!-- Node7 -->
<g id="node7" class="node">
<title>Node7</title>
<g id="a_node7"><a xlink:href="_air_flow_actuator_8cpp.html" target="_top" xlink:title=" ">
<polygon fill="none" stroke="black" points="762,-56.5 762,-75.5 884,-75.5 884,-56.5 762,-56.5"/>
<text text-anchor="middle" x="823" y="-63.5" font-family="Helvetica,sans-Serif" font-size="10.00">src/AirFlowActuator.cpp</text>
</a>
</g>
</g>
<!-- Node6&#45;&gt;Node7 -->
<g id="edge6" class="edge">
<title>Node6&#45;&gt;Node7</title>
<path fill="none" stroke="midnightblue" d="M663.12,-109.95C701.03,-99.77 756.51,-84.86 791.15,-75.56"/>
<polygon fill="midnightblue" stroke="midnightblue" points="662.16,-106.59 653.41,-112.56 663.97,-113.35 662.16,-106.59"/>
</g>
<!-- Node8 -->
<g id="node8" class="node">
<title>Node8</title>
<g id="a_node8"><a xlink:href="_dehumid_actuator_8cpp.html" target="_top" xlink:title=" ">
<polygon fill="none" stroke="black" points="902,-56.5 902,-75.5 1030,-75.5 1030,-56.5 902,-56.5"/>
<text text-anchor="middle" x="966" y="-63.5" font-family="Helvetica,sans-Serif" font-size="10.00">src/DehumidActuator.cpp</text>
</a>
</g>
</g>
<!-- Node6&#45;&gt;Node8 -->
<g id="edge7" class="edge">
<title>Node6&#45;&gt;Node8</title>
<path fill="none" stroke="midnightblue" d="M663.34,-114.51C725.43,-104.76 842.82,-86.34 911.73,-75.52"/>
<polygon fill="midnightblue" stroke="midnightblue" points="662.47,-111.1 653.13,-116.11 663.56,-118.02 662.47,-111.1"/>
</g>
<!-- Node9 -->
<g id="node9" class="node">
<title>Node9</title>
<g id="a_node9"><a xlink:href="_gpio_8cpp.html" target="_top" xlink:title=" ">
<polygon fill="none" stroke="black" points="411.5,-56.5 411.5,-75.5 484.5,-75.5 484.5,-56.5 411.5,-56.5"/>
<text text-anchor="middle" x="448" y="-63.5" font-family="Helvetica,sans-Serif" font-size="10.00">src/Gpio.cpp</text>
</a>
</g>
</g>
<!-- Node6&#45;&gt;Node9 -->
<g id="edge8" class="edge">
<title>Node6&#45;&gt;Node9</title>
<path fill="none" stroke="midnightblue" d="M584.74,-109.44C551.93,-99.26 504.92,-84.66 475.44,-75.52"/>
<polygon fill="midnightblue" stroke="midnightblue" points="583.84,-112.82 594.43,-112.44 585.92,-106.14 583.84,-112.82"/>
</g>
<!-- Node10 -->
<g id="node10" class="node">
<title>Node10</title>
<g id="a_node10"><a xlink:href="_heat_actuator_8cpp.html" target="_top" xlink:title=" ">
<polygon fill="none" stroke="black" points="502.5,-56.5 502.5,-75.5 611.5,-75.5 611.5,-56.5 502.5,-56.5"/>
<text text-anchor="middle" x="557" y="-63.5" font-family="Helvetica,sans-Serif" font-size="10.00">src/HeatActuator.cpp</text>
</a>
</g>
</g>
<!-- Node6&#45;&gt;Node10 -->
<g id="edge9" class="edge">
<title>Node6&#45;&gt;Node10</title>
<path fill="none" stroke="midnightblue" d="M603.73,-105.82C592.08,-96.15 577.4,-83.95 567.63,-75.83"/>
<polygon fill="midnightblue" stroke="midnightblue" points="601.63,-108.63 611.56,-112.32 606.1,-103.24 601.63,-108.63"/>
</g>
<!-- Node11 -->
<g id="node11" class="node">
<title>Node11</title>
<g id="a_node11"><a xlink:href="_roller_actuator_8cpp.html" target="_top" xlink:title=" ">
<polygon fill="none" stroke="black" points="630,-56.5 630,-75.5 744,-75.5 744,-56.5 630,-56.5"/>
<text text-anchor="middle" x="687" y="-63.5" font-family="Helvetica,sans-Serif" font-size="10.00">src/RollerActuator.cpp</text>
</a>
</g>
</g>
<!-- Node6&#45;&gt;Node11 -->
<g id="edge10" class="edge">
<title>Node6&#45;&gt;Node11</title>
<path fill="none" stroke="midnightblue" d="M640.27,-105.82C651.92,-96.15 666.6,-83.95 676.37,-75.83"/>
<polygon fill="midnightblue" stroke="midnightblue" points="637.9,-103.24 632.44,-112.32 642.37,-108.63 637.9,-103.24"/>
</g>
<!-- Node12&#45;&gt;Node4 -->
<g id="edge12" class="edge">
<title>Node12&#45;&gt;Node4</title>
<path fill="none" stroke="midnightblue" d="M253.07,-101.8C253.56,-92.91 254.12,-82.78 254.51,-75.75"/>
<polygon fill="midnightblue" stroke="midnightblue" points="249.56,-101.9 252.5,-112.08 256.54,-102.29 249.56,-101.9"/>
</g>
<!-- Node13 -->
<g id="node13" class="node">
<title>Node13</title>
<g id="a_node13"><a xlink:href="_session_time_8cpp.html" target="_top" xlink:title=" ">
<polygon fill="none" stroke="black" points="86.5,-56.5 86.5,-75.5 195.5,-75.5 195.5,-56.5 86.5,-56.5"/>
<text text-anchor="middle" x="141" y="-63.5" font-family="Helvetica,sans-Serif" font-size="10.00">src/SessionTime.cpp</text>
</a>
</g>
</g>
<!-- Node12&#45;&gt;Node13 -->
<g id="edge13" class="edge">
<title>Node12&#45;&gt;Node13</title>
<path fill="none" stroke="midnightblue" d="M224.99,-107.86C204.41,-97.85 176.66,-84.35 158.79,-75.65"/>
<polygon fill="midnightblue" stroke="midnightblue" points="223.64,-111.1 234.17,-112.32 226.7,-104.8 223.64,-111.1"/>
</g>
<!-- Node14&#45;&gt;Node4 -->
<g id="edge15" class="edge">
<title>Node14&#45;&gt;Node4</title>
<path fill="none" stroke="midnightblue" d="M329.16,-107.45C310.89,-97.48 286.58,-84.23 270.87,-75.65"/>
<polygon fill="midnightblue" stroke="midnightblue" points="327.64,-110.61 338.09,-112.32 330.99,-104.46 327.64,-110.61"/>
</g>
<!-- Node14&#45;&gt;Node14 -->
<g id="edge17" class="edge">
<title>Node14&#45;&gt;Node14</title>
<path fill="none" stroke="midnightblue" d="M386.51,-132.5C397.59,-132.56 406.5,-129.06 406.5,-122 406.5,-112.87 391.61,-109.69 376.39,-112.47"/>
<polygon fill="midnightblue" stroke="midnightblue" points="386.68,-129 376.39,-131.53 386.01,-135.97 386.68,-129"/>
</g>
<!-- Node15 -->
<g id="node15" class="node">
<title>Node15</title>
<g id="a_node15"><a xlink:href="_signal_8cpp.html" target="_top" xlink:title=" ">
<polygon fill="none" stroke="black" points="314.5,-56.5 314.5,-75.5 393.5,-75.5 393.5,-56.5 314.5,-56.5"/>
<text text-anchor="middle" x="354" y="-63.5" font-family="Helvetica,sans-Serif" font-size="10.00">src/Signal.cpp</text>
</a>
</g>
</g>
<!-- Node14&#45;&gt;Node15 -->
<g id="edge16" class="edge">
<title>Node14&#45;&gt;Node15</title>
<path fill="none" stroke="midnightblue" d="M354,-101.8C354,-92.91 354,-82.78 354,-75.75"/>
<polygon fill="midnightblue" stroke="midnightblue" points="350.5,-102.08 354,-112.08 357.5,-102.08 350.5,-102.08"/>
</g>
</g>
</svg>
