<?xml version="1.0" encoding="UTF-8" standalone="no"?>
<!DOCTYPE svg PUBLIC "-//W3C//DTD SVG 1.1//EN"
 "http://www.w3.org/Graphics/SVG/1.1/DTD/svg11.dtd">
<!-- Generated by graphviz version 2.50.0 (20211204.2007)
 -->
<!-- Title: src/Singleton.h Pages: 1 -->
<svg width="1621pt" height="196pt"
 viewBox="0.00 0.00 1620.50 196.00" xmlns="http://www.w3.org/2000/svg" xmlns:xlink="http://www.w3.org/1999/xlink">
<g id="graph0" class="graph" transform="scale(1 1) rotate(0) translate(4 192)">
<title>src/Singleton.h</title>
<!-- Node1 -->
<g id="node1" class="node">
<title>Node1</title>
<g id="a_node1"><a xlink:title=" ">
<polygon fill="#bfbfbf" stroke="black" points="260,-168.5 260,-187.5 342,-187.5 342,-168.5 260,-168.5"/>
<text text-anchor="middle" x="301" y="-175.5" font-family="Helvetica,sans-Serif" font-size="10.00">src/Singleton.h</text>
</a>
</g>
</g>
<!-- Node2 -->
<g id="node2" class="node">
<title>Node2</title>
<g id="a_node2"><a xlink:href="_env_8h.html" target="_top" xlink:title=" ">
<polygon fill="none" stroke="black" points="126.5,-112.5 126.5,-131.5 183.5,-131.5 183.5,-112.5 126.5,-112.5"/>
<text text-anchor="middle" x="155" y="-119.5" font-family="Helvetica,sans-Serif" font-size="10.00">src/Env.h</text>
</a>
</g>
</g>
<!-- Node1&#45;&gt;Node2 -->
<g id="edge1" class="edge">
<title>Node1&#45;&gt;Node2</title>
<path fill="none" stroke="midnightblue" d="M268.3,-164.91C240.85,-154.75 202.33,-140.51 178.03,-131.52"/>
<polygon fill="midnightblue" stroke="midnightblue" points="267.27,-168.26 277.87,-168.44 269.7,-161.69 267.27,-168.26"/>
</g>
<!-- Node6 -->
<g id="node6" class="node">
<title>Node6</title>
<g id="a_node6"><a xlink:href="_gpio_8h.html" target="_top" xlink:title=" ">
<polygon fill="none" stroke="black" points="882,-112.5 882,-131.5 944,-131.5 944,-112.5 882,-112.5"/>
<text text-anchor="middle" x="913" y="-119.5" font-family="Helvetica,sans-Serif" font-size="10.00">src/Gpio.h</text>
</a>
</g>
</g>
<!-- Node1&#45;&gt;Node6 -->
<g id="edge5" class="edge">
<title>Node1&#45;&gt;Node6</title>
<path fill="none" stroke="midnightblue" d="M352.36,-172.47C475.2,-161.63 783.07,-134.46 881.92,-125.74"/>
<polygon fill="midnightblue" stroke="midnightblue" points="351.76,-169.01 342.11,-173.37 352.37,-175.98 351.76,-169.01"/>
</g>
<!-- Node16 -->
<g id="node16" class="node">
<title>Node16</title>
<g id="a_node16"><a xlink:href="_session_time_8h.html" target="_top" xlink:title=" ">
<polygon fill="none" stroke="black" points="202,-112.5 202,-131.5 300,-131.5 300,-112.5 202,-112.5"/>
<text text-anchor="middle" x="251" y="-119.5" font-family="Helvetica,sans-Serif" font-size="10.00">src/SessionTime.h</text>
</a>
</g>
</g>
<!-- Node1&#45;&gt;Node16 -->
<g id="edge15" class="edge">
<title>Node1&#45;&gt;Node16</title>
<path fill="none" stroke="midnightblue" d="M285.92,-160.72C277.11,-151.2 266.33,-139.56 259.1,-131.75"/>
<polygon fill="midnightblue" stroke="midnightblue" points="283.38,-163.12 292.74,-168.08 288.52,-158.37 283.38,-163.12"/>
</g>
<!-- Node18 -->
<g id="node18" class="node">
<title>Node18</title>
<g id="a_node18"><a xlink:href="_signal_8h.html" target="_top" xlink:title=" ">
<polygon fill="none" stroke="black" points="318,-112.5 318,-131.5 386,-131.5 386,-112.5 318,-112.5"/>
<text text-anchor="middle" x="352" y="-119.5" font-family="Helvetica,sans-Serif" font-size="10.00">src/Signal.h</text>
</a>
</g>
</g>
<!-- Node1&#45;&gt;Node18 -->
<g id="edge18" class="edge">
<title>Node1&#45;&gt;Node18</title>
<path fill="none" stroke="midnightblue" d="M316.38,-160.72C325.37,-151.2 336.36,-139.56 343.74,-131.75"/>
<polygon fill="midnightblue" stroke="midnightblue" points="313.74,-158.41 309.42,-168.08 318.83,-163.22 313.74,-158.41"/>
</g>
<!-- Node3 -->
<g id="node3" class="node">
<title>Node3</title>
<g id="a_node3"><a xlink:href="_env_8cpp.html" target="_top" xlink:title=" ">
<polygon fill="none" stroke="black" points="0,-56.5 0,-75.5 68,-75.5 68,-56.5 0,-56.5"/>
<text text-anchor="middle" x="34" y="-63.5" font-family="Helvetica,sans-Serif" font-size="10.00">src/Env.cpp</text>
</a>
</g>
</g>
<!-- Node2&#45;&gt;Node3 -->
<g id="edge2" class="edge">
<title>Node2&#45;&gt;Node3</title>
<path fill="none" stroke="midnightblue" d="M126.69,-108.37C104.03,-98.26 72.87,-84.35 53.08,-75.52"/>
<polygon fill="midnightblue" stroke="midnightblue" points="125.27,-111.56 135.83,-112.44 128.12,-105.17 125.27,-111.56"/>
</g>
<!-- Node4 -->
<g id="node4" class="node">
<title>Node4</title>
<g id="a_node4"><a xlink:href="_incubator_8h.html" target="_top" xlink:title=" ">
<polygon fill="none" stroke="black" points="213.5,-56.5 213.5,-75.5 294.5,-75.5 294.5,-56.5 213.5,-56.5"/>
<text text-anchor="middle" x="254" y="-63.5" font-family="Helvetica,sans-Serif" font-size="10.00">src/Incubator.h</text>
</a>
</g>
</g>
<!-- Node2&#45;&gt;Node4 -->
<g id="edge3" class="edge">
<title>Node2&#45;&gt;Node4</title>
<path fill="none" stroke="midnightblue" d="M179.84,-107.45C198.11,-97.48 222.42,-84.23 238.13,-75.65"/>
<polygon fill="midnightblue" stroke="midnightblue" points="178.01,-104.46 170.91,-112.32 181.36,-110.61 178.01,-104.46"/>
</g>
<!-- Node5 -->
<g id="node5" class="node">
<title>Node5</title>
<g id="a_node5"><a xlink:href="_incubator_8cpp.html" target="_top" xlink:title=" ">
<polygon fill="none" stroke="black" points="208,-0.5 208,-19.5 300,-19.5 300,-0.5 208,-0.5"/>
<text text-anchor="middle" x="254" y="-7.5" font-family="Helvetica,sans-Serif" font-size="10.00">src/Incubator.cpp</text>
</a>
</g>
</g>
<!-- Node4&#45;&gt;Node5 -->
<g id="edge4" class="edge">
<title>Node4&#45;&gt;Node5</title>
<path fill="none" stroke="midnightblue" d="M254,-45.8C254,-36.91 254,-26.78 254,-19.75"/>
<polygon fill="midnightblue" stroke="midnightblue" points="250.5,-46.08 254,-56.08 257.5,-46.08 250.5,-46.08"/>
</g>
<!-- Node7 -->
<g id="node7" class="node">
<title>Node7</title>
<g id="a_node7"><a xlink:href="_air_flow_actuator_8cpp.html" target="_top" xlink:title=" ">
<polygon fill="none" stroke="black" points="1191.5,-56.5 1191.5,-75.5 1312.5,-75.5 1312.5,-56.5 1191.5,-56.5"/>
<text text-anchor="middle" x="1252" y="-63.5" font-family="Helvetica,sans-Serif" font-size="10.00">src/AirFlowActuator.cpp</text>
</a>
</g>
</g>
<!-- Node6&#45;&gt;Node7 -->
<g id="edge6" class="edge">
<title>Node6&#45;&gt;Node7</title>
<path fill="none" stroke="midnightblue" d="M954.37,-114.41C1015.7,-104.64 1130.76,-86.31 1198.45,-75.53"/>
<polygon fill="midnightblue" stroke="midnightblue" points="953.61,-110.99 944.28,-116.02 954.71,-117.9 953.61,-110.99"/>
</g>
<!-- Node8 -->
<g id="node8" class="node">
<title>Node8</title>
<g id="a_node8"><a xlink:href="_dehumid_actuator_8cpp.html" target="_top" xlink:title=" ">
<polygon fill="none" stroke="black" points="1330.5,-56.5 1330.5,-75.5 1457.5,-75.5 1457.5,-56.5 1330.5,-56.5"/>
<text text-anchor="middle" x="1394" y="-63.5" font-family="Helvetica,sans-Serif" font-size="10.00">src/DehumidActuator.cpp</text>
</a>
</g>
</g>
<!-- Node6&#45;&gt;Node8 -->
<g id="edge7" class="edge">
<title>Node6&#45;&gt;Node8</title>
<path fill="none" stroke="midnightblue" d="M954.32,-116.66C1028.15,-108.85 1187.6,-91.79 1322,-76 1324.75,-75.68 1327.56,-75.34 1330.4,-75"/>
<polygon fill="midnightblue" stroke="midnightblue" points="953.64,-113.21 944.06,-117.74 954.37,-120.17 953.64,-113.21"/>
</g>
<!-- Node9 -->
<g id="node9" class="node">
<title>Node9</title>
<g id="a_node9"><a xlink:href="_dht22_humid_sensor_8cpp.html" target="_top" xlink:title=" ">
<polygon fill="none" stroke="black" points="1475.5,-56.5 1475.5,-75.5 1612.5,-75.5 1612.5,-56.5 1475.5,-56.5"/>
<text text-anchor="middle" x="1544" y="-63.5" font-family="Helvetica,sans-Serif" font-size="10.00">src/Dht22HumidSensor.cpp</text>
</a>
</g>
</g>
<!-- Node6&#45;&gt;Node9 -->
<g id="edge8" class="edge">
<title>Node6&#45;&gt;Node9</title>
<path fill="none" stroke="midnightblue" d="M954.3,-118.15C1046.41,-111.67 1275.6,-94.95 1467,-76 1469.68,-75.73 1472.41,-75.46 1475.17,-75.17"/>
<polygon fill="midnightblue" stroke="midnightblue" points="954,-114.66 944.27,-118.85 954.49,-121.64 954,-114.66"/>
</g>
<!-- Node10 -->
<g id="node10" class="node">
<title>Node10</title>
<g id="a_node10"><a xlink:href="_dht22_temp_sensor_8cpp.html" target="_top" xlink:title=" ">
<polygon fill="none" stroke="black" points="410,-56.5 410,-75.5 542,-75.5 542,-56.5 410,-56.5"/>
<text text-anchor="middle" x="476" y="-63.5" font-family="Helvetica,sans-Serif" font-size="10.00">src/Dht22TempSensor.cpp</text>
</a>
</g>
</g>
<!-- Node6&#45;&gt;Node10 -->
<g id="edge9" class="edge">
<title>Node6&#45;&gt;Node10</title>
<path fill="none" stroke="midnightblue" d="M871.82,-115.91C796.02,-106.54 633.82,-86.5 542.33,-75.2"/>
<polygon fill="midnightblue" stroke="midnightblue" points="871.57,-119.41 881.92,-117.16 872.43,-112.46 871.57,-119.41"/>
</g>
<!-- Node11 -->
<g id="node11" class="node">
<title>Node11</title>
<g id="a_node11"><a xlink:href="_gpio_8cpp.html" target="_top" xlink:title=" ">
<polygon fill="none" stroke="black" points="560,-56.5 560,-75.5 632,-75.5 632,-56.5 560,-56.5"/>
<text text-anchor="middle" x="596" y="-63.5" font-family="Helvetica,sans-Serif" font-size="10.00">src/Gpio.cpp</text>
</a>
</g>
</g>
<!-- Node6&#45;&gt;Node11 -->
<g id="edge10" class="edge">
<title>Node6&#45;&gt;Node11</title>
<path fill="none" stroke="midnightblue" d="M871.86,-114.63C818.52,-106.28 722.66,-90.92 641,-76 638.18,-75.48 635.26,-74.94 632.33,-74.37"/>
<polygon fill="midnightblue" stroke="midnightblue" points="871.52,-118.12 881.94,-116.21 872.6,-111.21 871.52,-118.12"/>
</g>
<!-- Node12 -->
<g id="node12" class="node">
<title>Node12</title>
<g id="a_node12"><a xlink:href="_heat_actuator_8cpp.html" target="_top" xlink:title=" ">
<polygon fill="none" stroke="black" points="650.5,-56.5 650.5,-75.5 759.5,-75.5 759.5,-56.5 650.5,-56.5"/>
<text text-anchor="middle" x="705" y="-63.5" font-family="Helvetica,sans-Serif" font-size="10.00">src/HeatActuator.cpp</text>
</a>
</g>
</g>
<!-- Node6&#45;&gt;Node12 -->
<g id="edge11" class="edge">
<title>Node6&#45;&gt;Node12</title>
<path fill="none" stroke="midnightblue" d="M872.08,-110.38C832.87,-100.2 774.43,-85.03 738.07,-75.59"/>
<polygon fill="midnightblue" stroke="midnightblue" points="871.3,-113.79 881.86,-112.92 873.06,-107.02 871.3,-113.79"/>
</g>
<!-- Node13 -->
<g id="node13" class="node">
<title>Node13</title>
<g id="a_node13"><a xlink:href="_heat_flow_actuator_8cpp.html" target="_top" xlink:title=" ">
<polygon fill="none" stroke="black" points="778,-56.5 778,-75.5 908,-75.5 908,-56.5 778,-56.5"/>
<text text-anchor="middle" x="843" y="-63.5" font-family="Helvetica,sans-Serif" font-size="10.00">src/HeatFlowActuator.cpp</text>
</a>
</g>
</g>
<!-- Node6&#45;&gt;Node13 -->
<g id="edge12" class="edge">
<title>Node6&#45;&gt;Node13</title>
<path fill="none" stroke="midnightblue" d="M893.69,-106.1C881.09,-96.38 865.07,-84.03 854.45,-75.83"/>
<polygon fill="midnightblue" stroke="midnightblue" points="891.7,-108.99 901.75,-112.32 895.97,-103.44 891.7,-108.99"/>
</g>
<!-- Node14 -->
<g id="node14" class="node">
<title>Node14</title>
<g id="a_node14"><a xlink:href="_humid_actuator_8cpp.html" target="_top" xlink:title=" ">
<polygon fill="none" stroke="black" points="926,-56.5 926,-75.5 1042,-75.5 1042,-56.5 926,-56.5"/>
<text text-anchor="middle" x="984" y="-63.5" font-family="Helvetica,sans-Serif" font-size="10.00">src/HumidActuator.cpp</text>
</a>
</g>
</g>
<!-- Node6&#45;&gt;Node14 -->
<g id="edge13" class="edge">
<title>Node6&#45;&gt;Node14</title>
<path fill="none" stroke="midnightblue" d="M932.59,-106.1C945.37,-96.38 961.61,-84.03 972.39,-75.83"/>
<polygon fill="midnightblue" stroke="midnightblue" points="930.25,-103.48 924.41,-112.32 934.49,-109.06 930.25,-103.48"/>
</g>
<!-- Node15 -->
<g id="node15" class="node">
<title>Node15</title>
<g id="a_node15"><a xlink:href="_roller_actuator_8cpp.html" target="_top" xlink:title=" ">
<polygon fill="none" stroke="black" points="1060.5,-56.5 1060.5,-75.5 1173.5,-75.5 1173.5,-56.5 1060.5,-56.5"/>
<text text-anchor="middle" x="1117" y="-63.5" font-family="Helvetica,sans-Serif" font-size="10.00">src/RollerActuator.cpp</text>
</a>
</g>
</g>
<!-- Node6&#45;&gt;Node15 -->
<g id="edge14" class="edge">
<title>Node6&#45;&gt;Node15</title>
<path fill="none" stroke="midnightblue" d="M954.3,-110.07C992.85,-99.86 1049.59,-84.84 1084.86,-75.51"/>
<polygon fill="midnightblue" stroke="midnightblue" points="953.2,-106.74 944.43,-112.68 954.99,-113.51 953.2,-106.74"/>
</g>
<!-- Node16&#45;&gt;Node4 -->
<g id="edge16" class="edge">
<title>Node16&#45;&gt;Node4</title>
<path fill="none" stroke="midnightblue" d="M252.07,-101.8C252.56,-92.91 253.12,-82.78 253.51,-75.75"/>
<polygon fill="midnightblue" stroke="midnightblue" points="248.56,-101.9 251.5,-112.08 255.54,-102.29 248.56,-101.9"/>
</g>
<!-- Node17 -->
<g id="node17" class="node">
<title>Node17</title>
<g id="a_node17"><a xlink:href="_session_time_8cpp.html" target="_top" xlink:title=" ">
<polygon fill="none" stroke="black" points="86.5,-56.5 86.5,-75.5 195.5,-75.5 195.5,-56.5 86.5,-56.5"/>
<text text-anchor="middle" x="141" y="-63.5" font-family="Helvetica,sans-Serif" font-size="10.00">src/SessionTime.cpp</text>
</a>
</g>
</g>
<!-- Node16&#45;&gt;Node17 -->
<g id="edge17" class="edge">
<title>Node16&#45;&gt;Node17</title>
<path fill="none" stroke="midnightblue" d="M224.24,-107.86C203.84,-97.85 176.33,-84.35 158.63,-75.65"/>
<polygon fill="midnightblue" stroke="midnightblue" points="222.81,-111.06 233.33,-112.32 225.89,-104.78 222.81,-111.06"/>
</g>
<!-- Node18&#45;&gt;Node4 -->
<g id="edge19" class="edge">
<title>Node18&#45;&gt;Node4</title>
<path fill="none" stroke="midnightblue" d="M327.41,-107.45C309.32,-97.48 285.27,-84.23 269.71,-75.65"/>
<polygon fill="midnightblue" stroke="midnightblue" points="325.81,-110.56 336.25,-112.32 329.19,-104.43 325.81,-110.56"/>
</g>
<!-- Node18&#45;&gt;Node18 -->
<g id="edge21" class="edge">
<title>Node18&#45;&gt;Node18</title>
<path fill="none" stroke="midnightblue" d="M384.2,-132.5C395.17,-132.56 404,-129.06 404,-122 404,-112.87 389.25,-109.69 374.18,-112.47"/>
<polygon fill="midnightblue" stroke="midnightblue" points="384.47,-129.01 374.18,-131.53 383.79,-135.98 384.47,-129.01"/>
</g>
<!-- Node19 -->
<g id="node19" class="node">
<title>Node19</title>
<g id="a_node19"><a xlink:href="_signal_8cpp.html" target="_top" xlink:title=" ">
<polygon fill="none" stroke="black" points="312.5,-56.5 312.5,-75.5 391.5,-75.5 391.5,-56.5 312.5,-56.5"/>
<text text-anchor="middle" x="352" y="-63.5" font-family="Helvetica,sans-Serif" font-size="10.00">src/Signal.cpp</text>
</a>
</g>
</g>
<!-- Node18&#45;&gt;Node19 -->
<g id="edge20" class="edge">
<title>Node18&#45;&gt;Node19</title>
<path fill="none" stroke="midnightblue" d="M352,-101.8C352,-92.91 352,-82.78 352,-75.75"/>
<polygon fill="midnightblue" stroke="midnightblue" points="348.5,-102.08 352,-112.08 355.5,-102.08 348.5,-102.08"/>
</g>
</g>
</svg>
