<?xml version="1.0" encoding="UTF-8" standalone="no"?>
<!DOCTYPE svg PUBLIC "-//W3C//DTD SVG 1.1//EN"
 "http://www.w3.org/Graphics/SVG/1.1/DTD/svg11.dtd">
<!-- Generated by graphviz version 2.48.0 (20210717.1556)
 -->
<!-- Title: src/Tmp117TempSensor.h Pages: 1 -->
<svg width="262pt" height="84pt"
 viewBox="0.00 0.00 262.00 84.00" xmlns="http://www.w3.org/2000/svg" xmlns:xlink="http://www.w3.org/1999/xlink">
<g id="graph0" class="graph" transform="scale(1 1) rotate(0) translate(4 80)">
<title>src/Tmp117TempSensor.h</title>
<!-- Node1 -->
<g id="node1" class="node">
<title>Node1</title>
<g id="a_node1"><a xlink:title=" ">
<polygon fill="#bfbfbf" stroke="black" points="48.5,-56.5 48.5,-75.5 180.5,-75.5 180.5,-56.5 48.5,-56.5"/>
<text text-anchor="middle" x="114.5" y="-63.5" font-family="Helvetica,sans-Serif" font-size="10.00">src/Tmp117TempSensor.h</text>
</a>
</g>
</g>
<!-- Node2 -->
<g id="node2" class="node">
<title>Node2</title>
<g id="a_node2"><a xlink:href="_incubator_8cpp.html" target="_top" xlink:title=" ">
<polygon fill="none" stroke="black" points="0,-0.5 0,-19.5 93,-19.5 93,-0.5 0,-0.5"/>
<text text-anchor="middle" x="46.5" y="-7.5" font-family="Helvetica,sans-Serif" font-size="10.00">src/Incubator.cpp</text>
</a>
</g>
</g>
<!-- Node1&#45;&gt;Node2 -->
<g id="edge1" class="edge">
<title>Node1&#45;&gt;Node2</title>
<path fill="none" stroke="midnightblue" d="M95.74,-50.1C83.5,-40.38 67.94,-28.03 57.62,-19.83"/>
<polygon fill="midnightblue" stroke="midnightblue" points="93.57,-52.85 103.57,-56.32 97.92,-47.36 93.57,-52.85"/>
</g>
<!-- Node3 -->
<g id="node3" class="node">
<title>Node3</title>
<g id="a_node3"><a xlink:href="_tmp117_temp_sensor_8cpp.html" target="_top" xlink:title=" ">
<polygon fill="none" stroke="black" points="111,-0.5 111,-19.5 254,-19.5 254,-0.5 111,-0.5"/>
<text text-anchor="middle" x="182.5" y="-7.5" font-family="Helvetica,sans-Serif" font-size="10.00">src/Tmp117TempSensor.cpp</text>
</a>
</g>
</g>
<!-- Node1&#45;&gt;Node3 -->
<g id="edge2" class="edge">
<title>Node1&#45;&gt;Node3</title>
<path fill="none" stroke="midnightblue" d="M133.26,-50.1C145.5,-40.38 161.06,-28.03 171.38,-19.83"/>
<polygon fill="midnightblue" stroke="midnightblue" points="131.08,-47.36 125.43,-56.32 135.43,-52.85 131.08,-47.36"/>
</g>
</g>
</svg>
