<?xml version="1.0" encoding="UTF-8" standalone="no"?>
<!DOCTYPE svg PUBLIC "-//W3C//DTD SVG 1.1//EN"
 "http://www.w3.org/Graphics/SVG/1.1/DTD/svg11.dtd">
<!-- Generated by graphviz version 2.48.0 (20210717.1556)
 -->
<!-- Title: src/Tmp117TempSensor.cpp Pages: 1 -->
<svg width="700pt" height="162pt"
 viewBox="0.00 0.00 699.50 162.00" xmlns="http://www.w3.org/2000/svg" xmlns:xlink="http://www.w3.org/1999/xlink">
<g id="graph0" class="graph" transform="scale(1 1) rotate(0) translate(4 158)">
<title>src/Tmp117TempSensor.cpp</title>
<!-- Node1 -->
<g id="node1" class="node">
<title>Node1</title>
<g id="a_node1"><a xlink:title=" ">
<polygon fill="#bfbfbf" stroke="black" points="166.5,-134.5 166.5,-153.5 309.5,-153.5 309.5,-134.5 166.5,-134.5"/>
<text text-anchor="middle" x="238" y="-141.5" font-family="Helvetica,sans-Serif" font-size="10.00">src/Tmp117TempSensor.cpp</text>
</a>
</g>
</g>
<!-- Node2 -->
<g id="node2" class="node">
<title>Node2</title>
<g id="a_node2"><a xlink:title=" ">
<polygon fill="none" stroke="#bfbfbf" points="0,-67.5 0,-86.5 52,-86.5 52,-67.5 0,-67.5"/>
<text text-anchor="middle" x="26" y="-74.5" font-family="Helvetica,sans-Serif" font-size="10.00">unistd.h</text>
</a>
</g>
</g>
<!-- Node1&#45;&gt;Node2 -->
<g id="edge1" class="edge">
<title>Node1&#45;&gt;Node2</title>
<path fill="none" stroke="midnightblue" d="M189.94,-134.44C153.69,-127.12 103.18,-115.05 61,-98 56.65,-96.24 52.18,-94.03 47.94,-91.73"/>
<polygon fill="midnightblue" stroke="midnightblue" points="49.61,-88.65 39.2,-86.67 46.11,-94.71 49.61,-88.65"/>
</g>
<!-- Node3 -->
<g id="node3" class="node">
<title>Node3</title>
<g id="a_node3"><a xlink:title=" ">
<polygon fill="none" stroke="#bfbfbf" points="70,-67.5 70,-86.5 116,-86.5 116,-67.5 70,-67.5"/>
<text text-anchor="middle" x="93" y="-74.5" font-family="Helvetica,sans-Serif" font-size="10.00">cstring</text>
</a>
</g>
</g>
<!-- Node1&#45;&gt;Node3 -->
<g id="edge2" class="edge">
<title>Node1&#45;&gt;Node3</title>
<path fill="none" stroke="midnightblue" d="M213.47,-134.45C190.43,-126.13 155.24,-112.61 126,-98 122.33,-96.17 118.53,-94.06 114.86,-91.93"/>
<polygon fill="midnightblue" stroke="midnightblue" points="116.57,-88.87 106.21,-86.68 112.94,-94.86 116.57,-88.87"/>
</g>
<!-- Node4 -->
<g id="node4" class="node">
<title>Node4</title>
<g id="a_node4"><a xlink:title=" ">
<polygon fill="none" stroke="#bfbfbf" points="134.5,-67.5 134.5,-86.5 189.5,-86.5 189.5,-67.5 134.5,-67.5"/>
<text text-anchor="middle" x="162" y="-74.5" font-family="Helvetica,sans-Serif" font-size="10.00">iostream</text>
</a>
</g>
</g>
<!-- Node1&#45;&gt;Node4 -->
<g id="edge3" class="edge">
<title>Node1&#45;&gt;Node4</title>
<path fill="none" stroke="midnightblue" d="M227.75,-134.23C215.56,-123.81 194.98,-106.21 180.09,-93.47"/>
<polygon fill="midnightblue" stroke="midnightblue" points="181.96,-90.47 172.09,-86.63 177.41,-95.79 181.96,-90.47"/>
</g>
<!-- Node5 -->
<g id="node5" class="node">
<title>Node5</title>
<g id="a_node5"><a xlink:title=" ">
<polygon fill="none" stroke="#bfbfbf" points="208,-67.5 208,-86.5 268,-86.5 268,-67.5 208,-67.5"/>
<text text-anchor="middle" x="238" y="-74.5" font-family="Helvetica,sans-Serif" font-size="10.00">wiringPi.h</text>
</a>
</g>
</g>
<!-- Node1&#45;&gt;Node5 -->
<g id="edge4" class="edge">
<title>Node1&#45;&gt;Node5</title>
<path fill="none" stroke="midnightblue" d="M238,-134.23C238,-124.68 238,-109.12 238,-96.78"/>
<polygon fill="midnightblue" stroke="midnightblue" points="241.5,-96.63 238,-86.63 234.5,-96.63 241.5,-96.63"/>
</g>
<!-- Node6 -->
<g id="node6" class="node">
<title>Node6</title>
<g id="a_node6"><a xlink:title=" ">
<polygon fill="none" stroke="#bfbfbf" points="286.5,-67.5 286.5,-86.5 361.5,-86.5 361.5,-67.5 286.5,-67.5"/>
<text text-anchor="middle" x="324" y="-74.5" font-family="Helvetica,sans-Serif" font-size="10.00">wiringPiI2C.h</text>
</a>
</g>
</g>
<!-- Node1&#45;&gt;Node6 -->
<g id="edge5" class="edge">
<title>Node1&#45;&gt;Node6</title>
<path fill="none" stroke="midnightblue" d="M249.6,-134.23C263.65,-123.61 287.55,-105.55 304.47,-92.76"/>
<polygon fill="midnightblue" stroke="midnightblue" points="306.72,-95.45 312.59,-86.63 302.5,-89.86 306.72,-95.45"/>
</g>
<!-- Node7 -->
<g id="node7" class="node">
<title>Node7</title>
<g id="a_node7"><a xlink:href="_tmp117_temp_sensor_8h.html" target="_top" xlink:title=" ">
<polygon fill="none" stroke="black" points="380,-67.5 380,-86.5 496,-86.5 496,-67.5 380,-67.5"/>
<text text-anchor="middle" x="438" y="-74.5" font-family="Helvetica,sans-Serif" font-size="10.00">Tmp117TempSensor.h</text>
</a>
</g>
</g>
<!-- Node1&#45;&gt;Node7 -->
<g id="edge6" class="edge">
<title>Node1&#45;&gt;Node7</title>
<path fill="none" stroke="midnightblue" d="M264.56,-134.37C299.92,-122.88 362.59,-102.51 402.13,-89.66"/>
<polygon fill="midnightblue" stroke="midnightblue" points="403.22,-92.98 411.65,-86.56 401.06,-86.33 403.22,-92.98"/>
</g>
<!-- Node9 -->
<g id="node9" class="node">
<title>Node9</title>
<g id="a_node9"><a xlink:title=" ">
<polygon fill="none" stroke="#bfbfbf" points="514.5,-56.5 514.5,-97.5 691.5,-97.5 691.5,-56.5 514.5,-56.5"/>
<text text-anchor="start" x="522.5" y="-85.5" font-family="Helvetica,sans-Serif" font-size="10.00">../third_party/SparkFun</text>
<text text-anchor="start" x="522.5" y="-74.5" font-family="Helvetica,sans-Serif" font-size="10.00">_TMP117_Arduino_Library</text>
<text text-anchor="middle" x="603" y="-63.5" font-family="Helvetica,sans-Serif" font-size="10.00">/src/SparkFun_TMP117_Registers.h</text>
</a>
</g>
</g>
<!-- Node1&#45;&gt;Node9 -->
<g id="edge8" class="edge">
<title>Node1&#45;&gt;Node9</title>
<path fill="none" stroke="midnightblue" d="M291.79,-134.49C343.57,-126.17 424.33,-112.88 504.12,-98.13"/>
<polygon fill="midnightblue" stroke="midnightblue" points="505.16,-101.5 514.35,-96.23 503.88,-94.62 505.16,-101.5"/>
</g>
<!-- Node8 -->
<g id="node8" class="node">
<title>Node8</title>
<g id="a_node8"><a xlink:href="_sensor_8h.html" target="_top" xlink:title=" ">
<polygon fill="none" stroke="black" points="410,-0.5 410,-19.5 466,-19.5 466,-0.5 410,-0.5"/>
<text text-anchor="middle" x="438" y="-7.5" font-family="Helvetica,sans-Serif" font-size="10.00">Sensor.h</text>
</a>
</g>
</g>
<!-- Node7&#45;&gt;Node8 -->
<g id="edge7" class="edge">
<title>Node7&#45;&gt;Node8</title>
<path fill="none" stroke="midnightblue" d="M438,-67.23C438,-57.68 438,-42.12 438,-29.78"/>
<polygon fill="midnightblue" stroke="midnightblue" points="441.5,-29.63 438,-19.63 434.5,-29.63 441.5,-29.63"/>
</g>
</g>
</svg>
