<?xml version="1.0" encoding="UTF-8" standalone="no"?>
<!DOCTYPE svg PUBLIC "-//W3C//DTD SVG 1.1//EN"
 "http://www.w3.org/Graphics/SVG/1.1/DTD/svg11.dtd">
<!-- Generated by graphviz version 2.50.0 (20211204.2007)
 -->
<!-- Title: Dht22HumidSensor Pages: 1 -->
<svg width="216pt" height="270pt"
 viewBox="0.00 0.00 216.00 270.00" xmlns="http://www.w3.org/2000/svg" xmlns:xlink="http://www.w3.org/1999/xlink">
<g id="graph0" class="graph" transform="scale(1 1) rotate(0) translate(4 266)">
<title>Dht22HumidSensor</title>
<!-- Node1 -->
<g id="node1" class="node">
<title>Node1</title>
<g id="a_node1"><a xlink:title=" ">
<polygon fill="#bfbfbf" stroke="black" points="48.5,-0.5 48.5,-112.5 171.5,-112.5 171.5,-0.5 48.5,-0.5"/>
<text text-anchor="middle" x="110" y="-100.5" font-family="Helvetica,sans-Serif" font-size="10.00">Dht22HumidSensor</text>
<polyline fill="none" stroke="black" points="48.5,-93.5 171.5,-93.5 "/>
<text text-anchor="middle" x="110" y="-81.5" font-family="Helvetica,sans-Serif" font-size="10.00"> </text>
<polyline fill="none" stroke="black" points="48.5,-74.5 171.5,-74.5 "/>
<text text-anchor="start" x="56.5" y="-62.5" font-family="Helvetica,sans-Serif" font-size="10.00">+ Dht22HumidSensor()</text>
<text text-anchor="start" x="56.5" y="-51.5" font-family="Helvetica,sans-Serif" font-size="10.00">+ ~Dht22HumidSensor()</text>
<text text-anchor="start" x="56.5" y="-40.5" font-family="Helvetica,sans-Serif" font-size="10.00">+ init()</text>
<text text-anchor="start" x="56.5" y="-29.5" font-family="Helvetica,sans-Serif" font-size="10.00">+ deinit()</text>
<text text-anchor="start" x="56.5" y="-18.5" font-family="Helvetica,sans-Serif" font-size="10.00">+ get()</text>
<text text-anchor="start" x="56.5" y="-7.5" font-family="Helvetica,sans-Serif" font-size="10.00">+ getCache()</text>
</a>
</g>
</g>
<!-- Node2 -->
<g id="node2" class="node">
<title>Node2</title>
<g id="a_node2"><a xlink:href="struct_sensor.html" target="_top" xlink:title=" ">
<polygon fill="none" stroke="black" points="0,-160.5 0,-261.5 74,-261.5 74,-160.5 0,-160.5"/>
<text text-anchor="middle" x="37" y="-249.5" font-family="Helvetica,sans-Serif" font-size="10.00">Sensor</text>
<polyline fill="none" stroke="black" points="0,-242.5 74,-242.5 "/>
<text text-anchor="middle" x="37" y="-230.5" font-family="Helvetica,sans-Serif" font-size="10.00"> </text>
<polyline fill="none" stroke="black" points="0,-223.5 74,-223.5 "/>
<text text-anchor="start" x="8" y="-211.5" font-family="Helvetica,sans-Serif" font-size="10.00">+ ~Sensor()</text>
<text text-anchor="start" x="8" y="-200.5" font-family="Helvetica,sans-Serif" font-size="10.00">+ init()</text>
<text text-anchor="start" x="8" y="-189.5" font-family="Helvetica,sans-Serif" font-size="10.00">+ deinit()</text>
<text text-anchor="start" x="8" y="-178.5" font-family="Helvetica,sans-Serif" font-size="10.00">+ get()</text>
<text text-anchor="start" x="8" y="-167.5" font-family="Helvetica,sans-Serif" font-size="10.00">+ getCache()</text>
</a>
</g>
</g>
<!-- Node2&#45;&gt;Node1 -->
<g id="edge1" class="edge">
<title>Node2&#45;&gt;Node1</title>
<path fill="none" stroke="midnightblue" d="M65.07,-151.35C71.17,-138.61 77.61,-125.17 83.64,-112.57"/>
<polygon fill="none" stroke="midnightblue" points="61.86,-149.96 60.7,-160.49 68.18,-152.98 61.86,-149.96"/>
</g>
<!-- Node3 -->
<g id="node3" class="node">
<title>Node3</title>
<g id="a_node3"><a xlink:title=" ">
<polygon fill="none" stroke="#bfbfbf" points="92.5,-182.5 92.5,-239.5 127.5,-239.5 127.5,-182.5 92.5,-182.5"/>
<text text-anchor="middle" x="110" y="-227.5" font-family="Helvetica,sans-Serif" font-size="10.00">bool</text>
<polyline fill="none" stroke="#bfbfbf" points="92.5,-220.5 127.5,-220.5 "/>
<text text-anchor="middle" x="110" y="-208.5" font-family="Helvetica,sans-Serif" font-size="10.00"> </text>
<polyline fill="none" stroke="#bfbfbf" points="92.5,-201.5 127.5,-201.5 "/>
<text text-anchor="middle" x="110" y="-189.5" font-family="Helvetica,sans-Serif" font-size="10.00"> </text>
</a>
</g>
</g>
<!-- Node3&#45;&gt;Node1 -->
<g id="edge2" class="edge">
<title>Node3&#45;&gt;Node1</title>
<path fill="none" stroke="#404040" d="M110,-182.38C110,-166.24 110,-145.11 110,-124.84"/>
<polygon fill="none" stroke="#404040" points="110,-124.71 106,-118.71 110,-112.71 114,-118.71 110,-124.71"/>
<text text-anchor="middle" x="136" y="-134" font-family="Helvetica,sans-Serif" font-size="10.00"> &#45;_initialized</text>
</g>
<!-- Node4 -->
<g id="node4" class="node">
<title>Node4</title>
<g id="a_node4"><a xlink:title=" ">
<polygon fill="none" stroke="#bfbfbf" points="167.5,-182.5 167.5,-239.5 202.5,-239.5 202.5,-182.5 167.5,-182.5"/>
<text text-anchor="middle" x="185" y="-227.5" font-family="Helvetica,sans-Serif" font-size="10.00">float</text>
<polyline fill="none" stroke="#bfbfbf" points="167.5,-220.5 202.5,-220.5 "/>
<text text-anchor="middle" x="185" y="-208.5" font-family="Helvetica,sans-Serif" font-size="10.00"> </text>
<polyline fill="none" stroke="#bfbfbf" points="167.5,-201.5 202.5,-201.5 "/>
<text text-anchor="middle" x="185" y="-189.5" font-family="Helvetica,sans-Serif" font-size="10.00"> </text>
</a>
</g>
</g>
<!-- Node4&#45;&gt;Node1 -->
<g id="edge3" class="edge">
<title>Node4&#45;&gt;Node1</title>
<path fill="none" stroke="#404040" d="M179.84,-182.45C176.31,-166.87 170.83,-147.3 163,-131 161.76,-128.43 160.44,-125.85 159.04,-123.28"/>
<polygon fill="none" stroke="#404040" points="158.98,-123.18 152.5,-120.01 152.93,-112.81 159.41,-115.98 158.98,-123.18"/>
<text text-anchor="middle" x="187.5" y="-134" font-family="Helvetica,sans-Serif" font-size="10.00"> &#45;_lastVal</text>
</g>
</g>
</svg>
