<?xml version="1.0" encoding="UTF-8" standalone="no"?>
<!DOCTYPE svg PUBLIC "-//W3C//DTD SVG 1.1//EN"
 "http://www.w3.org/Graphics/SVG/1.1/DTD/svg11.dtd">
<!-- Generated by graphviz version 2.48.0 (20210717.1556)
 -->
<!-- Title: DisplayServer Pages: 1 -->
<svg width="224pt" height="485pt"
 viewBox="0.00 0.00 224.00 485.00" xmlns="http://www.w3.org/2000/svg" xmlns:xlink="http://www.w3.org/1999/xlink">
<g id="graph0" class="graph" transform="scale(1 1) rotate(0) translate(4 481)">
<title>DisplayServer</title>
<!-- Node1 -->
<g id="node1" class="node">
<title>Node1</title>
<g id="a_node1"><a xlink:title=" ">
<polygon fill="#bfbfbf" stroke="black" points="73,-0.5 73,-90.5 173,-90.5 173,-0.5 73,-0.5"/>
<text text-anchor="middle" x="123" y="-78.5" font-family="Helvetica,sans-Serif" font-size="10.00">DisplayServer</text>
<polyline fill="none" stroke="black" points="73,-71.5 173,-71.5 "/>
<text text-anchor="middle" x="123" y="-59.5" font-family="Helvetica,sans-Serif" font-size="10.00"> </text>
<polyline fill="none" stroke="black" points="73,-52.5 173,-52.5 "/>
<text text-anchor="start" x="81" y="-40.5" font-family="Helvetica,sans-Serif" font-size="10.00">+ DisplayServer()</text>
<text text-anchor="start" x="81" y="-29.5" font-family="Helvetica,sans-Serif" font-size="10.00">+ ~DisplayServer()</text>
<text text-anchor="start" x="81" y="-18.5" font-family="Helvetica,sans-Serif" font-size="10.00">+ run()</text>
<text text-anchor="start" x="81" y="-7.5" font-family="Helvetica,sans-Serif" font-size="10.00">&#45; _updateDisplay()</text>
</a>
</g>
</g>
<!-- Node2 -->
<g id="node2" class="node">
<title>Node2</title>
<g id="a_node2"><a xlink:href="class_info_panel.html" target="_top" xlink:title=" ">
<polygon fill="none" stroke="black" points="0,-160.5 0,-371.5 132,-371.5 132,-160.5 0,-160.5"/>
<text text-anchor="middle" x="66" y="-359.5" font-family="Helvetica,sans-Serif" font-size="10.00">InfoPanel</text>
<polyline fill="none" stroke="black" points="0,-352.5 132,-352.5 "/>
<text text-anchor="middle" x="66" y="-340.5" font-family="Helvetica,sans-Serif" font-size="10.00"> </text>
<polyline fill="none" stroke="black" points="0,-333.5 132,-333.5 "/>
<text text-anchor="start" x="8" y="-321.5" font-family="Helvetica,sans-Serif" font-size="10.00">+ InfoPanel()</text>
<text text-anchor="start" x="8" y="-310.5" font-family="Helvetica,sans-Serif" font-size="10.00">+ ~InfoPanel()</text>
<text text-anchor="start" x="8" y="-299.5" font-family="Helvetica,sans-Serif" font-size="10.00">+ drawInfoPanel()</text>
<text text-anchor="start" x="8" y="-288.5" font-family="Helvetica,sans-Serif" font-size="10.00">+ isRequestNewSession()</text>
<text text-anchor="start" x="8" y="-277.5" font-family="Helvetica,sans-Serif" font-size="10.00">+ drawInfoNewSession()</text>
<text text-anchor="start" x="8" y="-266.5" font-family="Helvetica,sans-Serif" font-size="10.00">+ init()</text>
<text text-anchor="start" x="8" y="-255.5" font-family="Helvetica,sans-Serif" font-size="10.00">+ deinit()</text>
<text text-anchor="start" x="8" y="-244.5" font-family="Helvetica,sans-Serif" font-size="10.00">&#45; _devInit()</text>
<text text-anchor="start" x="8" y="-233.5" font-family="Helvetica,sans-Serif" font-size="10.00">&#45; _devDeinit()</text>
<text text-anchor="start" x="8" y="-222.5" font-family="Helvetica,sans-Serif" font-size="10.00">&#45; _prepareCanvas()</text>
<text text-anchor="start" x="8" y="-211.5" font-family="Helvetica,sans-Serif" font-size="10.00">&#45; _refreshCanvas()</text>
<text text-anchor="start" x="8" y="-200.5" font-family="Helvetica,sans-Serif" font-size="10.00">&#45; _destroyCanvas()</text>
<text text-anchor="start" x="8" y="-189.5" font-family="Helvetica,sans-Serif" font-size="10.00">&#45; _drawSolidLine()</text>
<text text-anchor="start" x="8" y="-178.5" font-family="Helvetica,sans-Serif" font-size="10.00">&#45; _drawDottedLine()</text>
<text text-anchor="start" x="8" y="-167.5" font-family="Helvetica,sans-Serif" font-size="10.00">&#45; _drawText()</text>
</a>
</g>
</g>
<!-- Node2&#45;&gt;Node1 -->
<g id="edge1" class="edge">
<title>Node2&#45;&gt;Node1</title>
<path fill="none" stroke="#404040" d="M93.33,-160.23C98.53,-140.3 103.78,-120.16 108.39,-102.49"/>
<polygon fill="none" stroke="#404040" points="108.44,-102.3 106.09,-95.48 111.47,-90.68 113.83,-97.5 108.44,-102.3"/>
<text text-anchor="middle" x="120.5" y="-123" font-family="Helvetica,sans-Serif" font-size="10.00"> &#45;_pIP</text>
</g>
<!-- Node3 -->
<g id="node3" class="node">
<title>Node3</title>
<g id="a_node3"><a xlink:title=" ">
<polygon fill="none" stroke="#bfbfbf" points="10.5,-419.5 10.5,-476.5 45.5,-476.5 45.5,-419.5 10.5,-419.5"/>
<text text-anchor="middle" x="28" y="-464.5" font-family="Helvetica,sans-Serif" font-size="10.00">bool</text>
<polyline fill="none" stroke="#bfbfbf" points="10.5,-457.5 45.5,-457.5 "/>
<text text-anchor="middle" x="28" y="-445.5" font-family="Helvetica,sans-Serif" font-size="10.00"> </text>
<polyline fill="none" stroke="#bfbfbf" points="10.5,-438.5 45.5,-438.5 "/>
<text text-anchor="middle" x="28" y="-426.5" font-family="Helvetica,sans-Serif" font-size="10.00"> </text>
</a>
</g>
</g>
<!-- Node3&#45;&gt;Node2 -->
<g id="edge2" class="edge">
<title>Node3&#45;&gt;Node2</title>
<path fill="none" stroke="#404040" d="M26.96,-419.33C27.02,-409.97 27.52,-399.49 29,-390 29.34,-387.82 29.71,-385.63 30.1,-383.43"/>
<polygon fill="none" stroke="#404040" points="30.12,-383.34 27.36,-376.68 32.45,-371.57 35.21,-378.23 30.12,-383.34"/>
<text text-anchor="middle" x="55.5" y="-393" font-family="Helvetica,sans-Serif" font-size="10.00"> &#45;_initialized</text>
</g>
<!-- Node4 -->
<g id="node4" class="node">
<title>Node4</title>
<g id="a_node4"><a xlink:title=" ">
<polygon fill="none" stroke="#bfbfbf" points="74.5,-419.5 74.5,-476.5 133.5,-476.5 133.5,-419.5 74.5,-419.5"/>
<text text-anchor="middle" x="104" y="-464.5" font-family="Helvetica,sans-Serif" font-size="10.00">uint16_t *</text>
<polyline fill="none" stroke="#bfbfbf" points="74.5,-457.5 133.5,-457.5 "/>
<text text-anchor="middle" x="104" y="-445.5" font-family="Helvetica,sans-Serif" font-size="10.00"> </text>
<polyline fill="none" stroke="#bfbfbf" points="74.5,-438.5 133.5,-438.5 "/>
<text text-anchor="middle" x="104" y="-426.5" font-family="Helvetica,sans-Serif" font-size="10.00"> </text>
</a>
</g>
</g>
<!-- Node4&#45;&gt;Node2 -->
<g id="edge3" class="edge">
<title>Node4&#45;&gt;Node2</title>
<path fill="none" stroke="#404040" d="M98.15,-419.27C95.99,-409.05 93.39,-396.73 90.61,-383.57"/>
<polygon fill="none" stroke="#404040" points="90.61,-383.57 85.46,-378.53 88.13,-371.83 93.28,-376.88 90.61,-383.57"/>
<text text-anchor="middle" x="129" y="-393" font-family="Helvetica,sans-Serif" font-size="10.00"> &#45;_pBlackImage</text>
</g>
<!-- Node5 -->
<g id="node5" class="node">
<title>Node5</title>
<g id="a_node5"><a xlink:title=" ">
<polygon fill="none" stroke="#bfbfbf" points="150.5,-237.5 150.5,-294.5 207.5,-294.5 207.5,-237.5 150.5,-237.5"/>
<text text-anchor="middle" x="179" y="-282.5" font-family="Helvetica,sans-Serif" font-size="10.00">unsigned</text>
<polyline fill="none" stroke="#bfbfbf" points="150.5,-275.5 207.5,-275.5 "/>
<text text-anchor="middle" x="179" y="-263.5" font-family="Helvetica,sans-Serif" font-size="10.00"> </text>
<polyline fill="none" stroke="#bfbfbf" points="150.5,-256.5 207.5,-256.5 "/>
<text text-anchor="middle" x="179" y="-244.5" font-family="Helvetica,sans-Serif" font-size="10.00"> </text>
</a>
</g>
</g>
<!-- Node5&#45;&gt;Node1 -->
<g id="edge4" class="edge">
<title>Node5&#45;&gt;Node1</title>
<path fill="none" stroke="#404040" d="M171.91,-237.33C163.25,-203.53 148.38,-145.53 137.31,-102.32"/>
<polygon fill="none" stroke="#404040" points="137.27,-102.18 131.91,-97.36 134.29,-90.56 139.66,-95.38 137.27,-102.18"/>
<text text-anchor="middle" x="180.5" y="-134" font-family="Helvetica,sans-Serif" font-size="10.00"> &#45;_bufSize</text>
<text text-anchor="middle" x="180.5" y="-123" font-family="Helvetica,sans-Serif" font-size="10.00">&#45;_maxConnects</text>
<text text-anchor="middle" x="180.5" y="-112" font-family="Helvetica,sans-Serif" font-size="10.00">&#45;_portNo</text>
</g>
</g>
</svg>
