<?xml version="1.0" encoding="UTF-8" standalone="no"?>
<!DOCTYPE svg PUBLIC "-//W3C//DTD SVG 1.1//EN"
 "http://www.w3.org/Graphics/SVG/1.1/DTD/svg11.dtd">
<!-- Generated by graphviz version 2.48.0 (20210717.1556)
 -->
<!-- Title: Gpio Pages: 1 -->
<svg width="184pt" height="375pt"
 viewBox="0.00 0.00 183.50 375.00" xmlns="http://www.w3.org/2000/svg" xmlns:xlink="http://www.w3.org/1999/xlink">
<g id="graph0" class="graph" transform="scale(1 1) rotate(0) translate(4 371)">
<title>Gpio</title>
<!-- Node1 -->
<g id="node1" class="node">
<title>Node1</title>
<g id="a_node1"><a xlink:title=" ">
<polygon fill="#bfbfbf" stroke="black" points="82,-0.5 82,-90.5 141,-90.5 141,-0.5 82,-0.5"/>
<text text-anchor="middle" x="111.5" y="-78.5" font-family="Helvetica,sans-Serif" font-size="10.00">Gpio</text>
<polyline fill="none" stroke="black" points="82,-71.5 141,-71.5 "/>
<text text-anchor="middle" x="111.5" y="-59.5" font-family="Helvetica,sans-Serif" font-size="10.00"> </text>
<polyline fill="none" stroke="black" points="82,-52.5 141,-52.5 "/>
<text text-anchor="start" x="90" y="-40.5" font-family="Helvetica,sans-Serif" font-size="10.00">+ Gpio()</text>
<text text-anchor="start" x="90" y="-29.5" font-family="Helvetica,sans-Serif" font-size="10.00">+ ~Gpio()</text>
<text text-anchor="start" x="90" y="-18.5" font-family="Helvetica,sans-Serif" font-size="10.00">+ init()</text>
<text text-anchor="start" x="90" y="-7.5" font-family="Helvetica,sans-Serif" font-size="10.00">+ deinit()</text>
</a>
</g>
</g>
<!-- Node2 -->
<g id="node2" class="node">
<title>Node2</title>
<g id="a_node2"><a xlink:href="class_singleton.html" target="_top" xlink:title=" ">
<polygon fill="none" stroke="black" points="0,-138.5 0,-228.5 97,-228.5 97,-138.5 0,-138.5"/>
<text text-anchor="middle" x="48.5" y="-216.5" font-family="Helvetica,sans-Serif" font-size="10.00">Singleton&lt; Gpio &gt;</text>
<polyline fill="none" stroke="black" points="0,-209.5 97,-209.5 "/>
<text text-anchor="middle" x="48.5" y="-197.5" font-family="Helvetica,sans-Serif" font-size="10.00"> </text>
<polyline fill="none" stroke="black" points="0,-190.5 97,-190.5 "/>
<text text-anchor="start" x="8" y="-178.5" font-family="Helvetica,sans-Serif" font-size="10.00">+ getInstance()</text>
<text text-anchor="start" x="8" y="-167.5" font-family="Helvetica,sans-Serif" font-size="10.00"># Singleton()</text>
<text text-anchor="start" x="8" y="-156.5" font-family="Helvetica,sans-Serif" font-size="10.00">&#45; Singleton()</text>
<text text-anchor="start" x="8" y="-145.5" font-family="Helvetica,sans-Serif" font-size="10.00">&#45; operator=()</text>
</a>
</g>
</g>
<!-- Node2&#45;&gt;Node1 -->
<g id="edge1" class="edge">
<title>Node2&#45;&gt;Node1</title>
<path fill="none" stroke="midnightblue" d="M73.16,-129.26C79.04,-116.56 85.26,-103.15 90.93,-90.9"/>
<polygon fill="none" stroke="midnightblue" points="69.98,-127.8 68.95,-138.34 76.33,-130.74 69.98,-127.8"/>
</g>
<!-- Node3 -->
<g id="node3" class="node">
<title>Node3</title>
<g id="a_node3"><a xlink:href="class_singleton.html" target="_top" xlink:title=" ">
<polygon fill="none" stroke="black" points="7,-276.5 7,-366.5 90,-366.5 90,-276.5 7,-276.5"/>
<text text-anchor="middle" x="48.5" y="-354.5" font-family="Helvetica,sans-Serif" font-size="10.00">Singleton&lt; T &gt;</text>
<polyline fill="none" stroke="black" points="7,-347.5 90,-347.5 "/>
<text text-anchor="middle" x="48.5" y="-335.5" font-family="Helvetica,sans-Serif" font-size="10.00"> </text>
<polyline fill="none" stroke="black" points="7,-328.5 90,-328.5 "/>
<text text-anchor="start" x="15" y="-316.5" font-family="Helvetica,sans-Serif" font-size="10.00">+ getInstance()</text>
<text text-anchor="start" x="15" y="-305.5" font-family="Helvetica,sans-Serif" font-size="10.00"># Singleton()</text>
<text text-anchor="start" x="15" y="-294.5" font-family="Helvetica,sans-Serif" font-size="10.00">&#45; Singleton()</text>
<text text-anchor="start" x="15" y="-283.5" font-family="Helvetica,sans-Serif" font-size="10.00">&#45; operator=()</text>
</a>
</g>
</g>
<!-- Node3&#45;&gt;Node2 -->
<g id="edge2" class="edge">
<title>Node3&#45;&gt;Node2</title>
<path fill="none" stroke="orange" d="M48.5,-266.15C48.5,-253.78 48.5,-240.79 48.5,-228.9"/>
<polygon fill="orange" stroke="orange" points="45,-266.34 48.5,-276.34 52,-266.34 45,-266.34"/>
<text text-anchor="middle" x="69.5" y="-250" font-family="Helvetica,sans-Serif" font-size="10.00"> &lt; Gpio &gt;</text>
</g>
<!-- Node4 -->
<g id="node4" class="node">
<title>Node4</title>
<g id="a_node4"><a xlink:title=" ">
<polygon fill="none" stroke="#bfbfbf" points="115,-155 115,-212 150,-212 150,-155 115,-155"/>
<text text-anchor="middle" x="132.5" y="-200" font-family="Helvetica,sans-Serif" font-size="10.00">bool</text>
<polyline fill="none" stroke="#bfbfbf" points="115,-193 150,-193 "/>
<text text-anchor="middle" x="132.5" y="-181" font-family="Helvetica,sans-Serif" font-size="10.00"> </text>
<polyline fill="none" stroke="#bfbfbf" points="115,-174 150,-174 "/>
<text text-anchor="middle" x="132.5" y="-162" font-family="Helvetica,sans-Serif" font-size="10.00"> </text>
</a>
</g>
</g>
<!-- Node4&#45;&gt;Node1 -->
<g id="edge3" class="edge">
<title>Node4&#45;&gt;Node1</title>
<path fill="none" stroke="#404040" d="M128.25,-154.98C125.92,-139.9 122.95,-120.64 120.15,-102.55"/>
<polygon fill="none" stroke="#404040" points="120.14,-102.44 115.27,-97.12 118.31,-90.58 123.18,-95.9 120.14,-102.44"/>
<text text-anchor="middle" x="149" y="-112" font-family="Helvetica,sans-Serif" font-size="10.00"> &#45;_initialized</text>
</g>
</g>
</svg>
