<?xml version="1.0" encoding="UTF-8" standalone="no"?>
<!DOCTYPE svg PUBLIC "-//W3C//DTD SVG 1.1//EN"
 "http://www.w3.org/Graphics/SVG/1.1/DTD/svg11.dtd">
<!-- Generated by graphviz version 2.50.0 (20211204.2007)
 -->
<!-- Title: Env Pages: 1 -->
<!--zoomable 728 -->
<svg id="main" version="1.1" xmlns="http://www.w3.org/2000/svg" xmlns:xlink="http://www.w3.org/1999/xlink" xml:space="preserve" onload="init(evt)">
<style type="text/css"><![CDATA[
.edge:hover path { stroke: red; }
.edge:hover polygon { stroke: red; fill: red; }
]]></style>
<script type="text/javascript"><![CDATA[
var edges = document.getElementsByTagName('g');
if (edges && edges.length) {
  for (var i=0;i<edges.length;i++) {
    if (edges[i].id.substr(0,4)=='edge') {
      edges[i].setAttribute('class','edge');
    }
  }
}
]]></script>
        <defs>
                <circle id="rim" cx="0" cy="0" r="7"/>
                <circle id="rim2" cx="0" cy="0" r="3.5"/>
                <g id="zoomPlus">
                        <use xlink:href="#rim" fill="#404040">
                                <set attributeName="fill" to="#808080" begin="zoomplus.mouseover" end="zoomplus.mouseout"/>
                        </use>
                        <path d="M-4,0h8M0,-4v8" fill="none" stroke="white" stroke-width="1.5" pointer-events="none"/>
                </g>
                <g id="zoomMin">
                        <use xlink:href="#rim" fill="#404040">
                                <set attributeName="fill" to="#808080" begin="zoomminus.mouseover" end="zoomminus.mouseout"/>
                        </use>
                        <path d="M-4,0h8" fill="none" stroke="white" stroke-width="1.5" pointer-events="none"/>
                </g>
                <g id="dirArrow">
                        <path fill="none" stroke="white" stroke-width="1.5" d="M0,-3.0v7 M-2.5,-0.5L0,-3.0L2.5,-0.5"/>
                </g>
               <g id="resetDef">
                       <use xlink:href="#rim2" fill="#404040">
                               <set attributeName="fill" to="#808080" begin="reset.mouseover" end="reset.mouseout"/>
                       </use>
               </g>
        </defs>

<script type="text/javascript">
var viewWidth = 547;
var viewHeight = 728;
var sectionId = 'dynsection-1';
</script>
<script xlink:href="svgpan.js"/>
<svg id="graph" class="graph">
<g id="viewport">
<title>Env</title>
<!-- Node1 -->
<g id="node1" class="node">
<title>Node1</title>
<g id="a_node1"><a xlink:title=" ">
<polygon fill="#bfbfbf" stroke="black" points="87.5,-0.5 87.5,-200.5 200.5,-200.5 200.5,-0.5 87.5,-0.5"/>
<text text-anchor="middle" x="144" y="-188.5" font-family="Helvetica,sans-Serif" font-size="10.00">Env</text>
<polyline fill="none" stroke="black" points="87.5,-181.5 200.5,-181.5 "/>
<text text-anchor="middle" x="144" y="-169.5" font-family="Helvetica,sans-Serif" font-size="10.00"> </text>
<polyline fill="none" stroke="black" points="87.5,-162.5 200.5,-162.5 "/>
<text text-anchor="start" x="95.5" y="-150.5" font-family="Helvetica,sans-Serif" font-size="10.00">+ Env()</text>
<text text-anchor="start" x="95.5" y="-139.5" font-family="Helvetica,sans-Serif" font-size="10.00">+ ~Env()</text>
<text text-anchor="start" x="95.5" y="-128.5" font-family="Helvetica,sans-Serif" font-size="10.00">+ setUp()</text>
<text text-anchor="start" x="95.5" y="-117.5" font-family="Helvetica,sans-Serif" font-size="10.00">+ getConfig()</text>
<text text-anchor="start" x="95.5" y="-106.5" font-family="Helvetica,sans-Serif" font-size="10.00">+ setConfig()</text>
<text text-anchor="start" x="95.5" y="-95.5" font-family="Helvetica,sans-Serif" font-size="10.00">+ getFormula()</text>
<text text-anchor="start" x="95.5" y="-84.5" font-family="Helvetica,sans-Serif" font-size="10.00">+ getMaxDay()</text>
<text text-anchor="start" x="95.5" y="-73.5" font-family="Helvetica,sans-Serif" font-size="10.00">&#45; _readConfig()</text>
<text text-anchor="start" x="95.5" y="-62.5" font-family="Helvetica,sans-Serif" font-size="10.00">&#45; _readFromCfgFile()</text>
<text text-anchor="start" x="95.5" y="-51.5" font-family="Helvetica,sans-Serif" font-size="10.00">&#45; _str2Obj()</text>
<text text-anchor="start" x="95.5" y="-40.5" font-family="Helvetica,sans-Serif" font-size="10.00">&#45; _objByPhaseName()</text>
<text text-anchor="start" x="95.5" y="-29.5" font-family="Helvetica,sans-Serif" font-size="10.00">&#45; _obj2Phase()</text>
<text text-anchor="start" x="95.5" y="-18.5" font-family="Helvetica,sans-Serif" font-size="10.00">&#45; _obj2Config()</text>
<text text-anchor="start" x="95.5" y="-7.5" font-family="Helvetica,sans-Serif" font-size="10.00">&#45; _cfg2Formulas()</text>
</a>
</g>
</g>
<!-- Node2 -->
<g id="node2" class="node">
<title>Node2</title>
<g id="a_node2"><a xlink:href="class_singleton.html" target="_top" xlink:title=" ">
<polygon fill="none" stroke="black" points="0,-248.5 0,-338.5 92,-338.5 92,-248.5 0,-248.5"/>
<text text-anchor="middle" x="46" y="-326.5" font-family="Helvetica,sans-Serif" font-size="10.00">Singleton&lt; Env &gt;</text>
<polyline fill="none" stroke="black" points="0,-319.5 92,-319.5 "/>
<text text-anchor="middle" x="46" y="-307.5" font-family="Helvetica,sans-Serif" font-size="10.00"> </text>
<polyline fill="none" stroke="black" points="0,-300.5 92,-300.5 "/>
<text text-anchor="start" x="8" y="-288.5" font-family="Helvetica,sans-Serif" font-size="10.00">+ getInstance()</text>
<text text-anchor="start" x="8" y="-277.5" font-family="Helvetica,sans-Serif" font-size="10.00"># Singleton()</text>
<text text-anchor="start" x="8" y="-266.5" font-family="Helvetica,sans-Serif" font-size="10.00">&#45; Singleton()</text>
<text text-anchor="start" x="8" y="-255.5" font-family="Helvetica,sans-Serif" font-size="10.00">&#45; operator=()</text>
</a>
</g>
</g>
<!-- Node2&#45;&gt;Node1 -->
<g id="edge1" class="edge">
<title>Node2&#45;&gt;Node1</title>
<path fill="none" stroke="midnightblue" d="M73.34,-239.22C79.52,-227.16 86.29,-213.98 93.1,-200.71"/>
<polygon fill="none" stroke="midnightblue" points="70.18,-237.71 68.73,-248.2 76.41,-240.9 70.18,-237.71"/>
</g>
<!-- Node3 -->
<g id="node3" class="node">
<title>Node3</title>
<g id="a_node3"><a xlink:href="class_singleton.html" target="_top" xlink:title=" ">
<polygon fill="none" stroke="black" points="2.5,-386.5 2.5,-476.5 85.5,-476.5 85.5,-386.5 2.5,-386.5"/>
<text text-anchor="middle" x="44" y="-464.5" font-family="Helvetica,sans-Serif" font-size="10.00">Singleton&lt; T &gt;</text>
<polyline fill="none" stroke="black" points="2.5,-457.5 85.5,-457.5 "/>
<text text-anchor="middle" x="44" y="-445.5" font-family="Helvetica,sans-Serif" font-size="10.00"> </text>
<polyline fill="none" stroke="black" points="2.5,-438.5 85.5,-438.5 "/>
<text text-anchor="start" x="10.5" y="-426.5" font-family="Helvetica,sans-Serif" font-size="10.00">+ getInstance()</text>
<text text-anchor="start" x="10.5" y="-415.5" font-family="Helvetica,sans-Serif" font-size="10.00"># Singleton()</text>
<text text-anchor="start" x="10.5" y="-404.5" font-family="Helvetica,sans-Serif" font-size="10.00">&#45; Singleton()</text>
<text text-anchor="start" x="10.5" y="-393.5" font-family="Helvetica,sans-Serif" font-size="10.00">&#45; operator=()</text>
</a>
</g>
</g>
<!-- Node3&#45;&gt;Node2 -->
<g id="edge2" class="edge">
<title>Node3&#45;&gt;Node2</title>
<path fill="none" stroke="orange" d="M44.8,-376.15C44.98,-363.78 45.17,-350.79 45.35,-338.9"/>
<polygon fill="orange" stroke="orange" points="41.3,-376.29 44.65,-386.34 48.3,-376.4 41.3,-376.29"/>
<text text-anchor="middle" x="65.5" y="-360" font-family="Helvetica,sans-Serif" font-size="10.00"> &lt; Env &gt;</text>
</g>
<!-- Node4 -->
<g id="node4" class="node">
<title>Node4</title>
<g id="a_node4"><a xlink:title=" ">
<polygon fill="none" stroke="#bfbfbf" points="157.5,-662.5 157.5,-719.5 198.5,-719.5 198.5,-662.5 157.5,-662.5"/>
<text text-anchor="middle" x="178" y="-707.5" font-family="Helvetica,sans-Serif" font-size="10.00">string</text>
<polyline fill="none" stroke="#bfbfbf" points="157.5,-700.5 198.5,-700.5 "/>
<text text-anchor="middle" x="178" y="-688.5" font-family="Helvetica,sans-Serif" font-size="10.00"> </text>
<polyline fill="none" stroke="#bfbfbf" points="157.5,-681.5 198.5,-681.5 "/>
<text text-anchor="middle" x="178" y="-669.5" font-family="Helvetica,sans-Serif" font-size="10.00"> </text>
</a>
</g>
</g>
<!-- Node4&#45;&gt;Node1 -->
<g id="edge3" class="edge">
<title>Node4&#45;&gt;Node1</title>
<path fill="none" stroke="#404040" d="M159.2,-662.45C142.93,-635.89 122,-593.96 122,-554 122,-554 122,-554 122,-292.5 122,-266.71 124,-239.09 126.8,-213.09"/>
<polygon fill="none" stroke="#404040" points="126.84,-212.8 123.54,-206.39 128.19,-200.88 131.49,-207.29 126.84,-212.8"/>
<text text-anchor="middle" x="136" y="-429" font-family="Helvetica,sans-Serif" font-size="10.00"> &#45;_text</text>
</g>
<!-- Node5 -->
<g id="node5" class="node">
<title>Node5</title>
<g id="a_node5"><a xlink:href="struct__config.html" target="_top" xlink:title=" ">
<polygon fill="none" stroke="black" points="154,-265 154,-322 202,-322 202,-265 154,-265"/>
<text text-anchor="middle" x="178" y="-310" font-family="Helvetica,sans-Serif" font-size="10.00">_config</text>
<polyline fill="none" stroke="black" points="154,-303 202,-303 "/>
<text text-anchor="middle" x="178" y="-291" font-family="Helvetica,sans-Serif" font-size="10.00"> </text>
<polyline fill="none" stroke="black" points="154,-284 202,-284 "/>
<text text-anchor="middle" x="178" y="-272" font-family="Helvetica,sans-Serif" font-size="10.00"> </text>
</a>
</g>
</g>
<!-- Node4&#45;&gt;Node5 -->
<g id="edge5" class="edge">
<title>Node4&#45;&gt;Node5</title>
<path fill="none" stroke="#404040" d="M178,-662.19C178,-593.32 178,-414.63 178,-334.45"/>
<polygon fill="none" stroke="#404040" points="178,-334.02 174,-328.02 178,-322.02 182,-328.02 178,-334.02"/>
<text text-anchor="middle" x="195" y="-498" font-family="Helvetica,sans-Serif" font-size="10.00"> +name</text>
</g>
<!-- Node8 -->
<g id="node8" class="node">
<title>Node8</title>
<g id="a_node8"><a xlink:href="struct__phase__header.html" target="_top" xlink:title=" ">
<polygon fill="none" stroke="black" points="275.5,-524.5 275.5,-581.5 358.5,-581.5 358.5,-524.5 275.5,-524.5"/>
<text text-anchor="middle" x="317" y="-569.5" font-family="Helvetica,sans-Serif" font-size="10.00">_phase_header</text>
<polyline fill="none" stroke="black" points="275.5,-562.5 358.5,-562.5 "/>
<text text-anchor="middle" x="317" y="-550.5" font-family="Helvetica,sans-Serif" font-size="10.00"> </text>
<polyline fill="none" stroke="black" points="275.5,-543.5 358.5,-543.5 "/>
<text text-anchor="middle" x="317" y="-531.5" font-family="Helvetica,sans-Serif" font-size="10.00"> </text>
</a>
</g>
</g>
<!-- Node4&#45;&gt;Node8 -->
<g id="edge9" class="edge">
<title>Node4&#45;&gt;Node8</title>
<path fill="none" stroke="#404040" d="M198.63,-667.71C215.97,-649.2 241.6,-622.38 265,-600 268.48,-596.67 272.13,-593.27 275.83,-589.88"/>
<polygon fill="none" stroke="#404040" points="276.11,-589.63 277.89,-582.64 285.02,-581.59 283.25,-588.58 276.11,-589.63"/>
<text text-anchor="middle" x="282" y="-619.5" font-family="Helvetica,sans-Serif" font-size="10.00"> +name</text>
</g>
<!-- Node5&#45;&gt;Node1 -->
<g id="edge4" class="edge">
<title>Node5&#45;&gt;Node1</title>
<path fill="none" stroke="#404040" d="M173.06,-264.73C170.52,-250.5 167.26,-232.15 163.83,-212.91"/>
<polygon fill="none" stroke="#404040" points="163.79,-212.66 158.8,-207.46 161.69,-200.85 166.67,-206.05 163.79,-212.66"/>
<text text-anchor="middle" x="185" y="-222" font-family="Helvetica,sans-Serif" font-size="10.00"> &#45;_config</text>
</g>
<!-- Node6 -->
<g id="node6" class="node">
<title>Node6</title>
<g id="a_node6"><a xlink:title=" ">
<polygon fill="none" stroke="#bfbfbf" points="277,-662.5 277,-719.5 333,-719.5 333,-662.5 277,-662.5"/>
<text text-anchor="middle" x="305" y="-707.5" font-family="Helvetica,sans-Serif" font-size="10.00">unsigned</text>
<polyline fill="none" stroke="#bfbfbf" points="277,-700.5 333,-700.5 "/>
<text text-anchor="middle" x="305" y="-688.5" font-family="Helvetica,sans-Serif" font-size="10.00"> </text>
<polyline fill="none" stroke="#bfbfbf" points="277,-681.5 333,-681.5 "/>
<text text-anchor="middle" x="305" y="-669.5" font-family="Helvetica,sans-Serif" font-size="10.00"> </text>
</a>
</g>
</g>
<!-- Node6&#45;&gt;Node5 -->
<g id="edge6" class="edge">
<title>Node6&#45;&gt;Node5</title>
<path fill="none" stroke="#404040" d="M294.87,-662.13C287.04,-640.38 276.05,-609.36 267,-582 237.88,-493.91 206.34,-389.7 189.74,-334.11"/>
<polygon fill="none" stroke="#404040" points="189.67,-333.87 184.12,-329.26 186.24,-322.37 191.79,-326.97 189.67,-333.87"/>
<text text-anchor="middle" x="256.5" y="-498" font-family="Helvetica,sans-Serif" font-size="10.00"> +days</text>
</g>
<!-- Node6&#45;&gt;Node8 -->
<g id="edge10" class="edge">
<title>Node6&#45;&gt;Node8</title>
<path fill="none" stroke="#404040" d="M303.72,-662.32C303.28,-644.47 303.43,-620.78 306,-600 306.27,-597.83 306.6,-595.62 306.98,-593.39"/>
<polygon fill="none" stroke="#404040" points="306.99,-593.31 304.25,-586.64 309.36,-581.55 312.1,-588.22 306.99,-593.31"/>
<text text-anchor="middle" x="329.5" y="-625" font-family="Helvetica,sans-Serif" font-size="10.00"> +endDate</text>
<text text-anchor="middle" x="329.5" y="-614" font-family="Helvetica,sans-Serif" font-size="10.00">+startDate</text>
</g>
<!-- Node9 -->
<g id="node9" class="node">
<title>Node9</title>
<g id="a_node9"><a xlink:href="struct__fomula.html" target="_top" xlink:title=" ">
<polygon fill="none" stroke="black" points="376.5,-524.5 376.5,-581.5 427.5,-581.5 427.5,-524.5 376.5,-524.5"/>
<text text-anchor="middle" x="402" y="-569.5" font-family="Helvetica,sans-Serif" font-size="10.00">_fomula</text>
<polyline fill="none" stroke="black" points="376.5,-562.5 427.5,-562.5 "/>
<text text-anchor="middle" x="402" y="-550.5" font-family="Helvetica,sans-Serif" font-size="10.00"> </text>
<polyline fill="none" stroke="black" points="376.5,-543.5 427.5,-543.5 "/>
<text text-anchor="middle" x="402" y="-531.5" font-family="Helvetica,sans-Serif" font-size="10.00"> </text>
</a>
</g>
</g>
<!-- Node6&#45;&gt;Node9 -->
<g id="edge13" class="edge">
<title>Node6&#45;&gt;Node9</title>
<path fill="none" stroke="#404040" d="M333.15,-666.63C340.23,-659.84 347.4,-652.06 353,-644 365.15,-626.51 361.92,-618.77 372,-600 373.37,-597.45 374.84,-594.85 376.36,-592.27"/>
<polygon fill="none" stroke="#404040" points="376.53,-591.98 376.27,-584.77 382.82,-581.76 383.08,-588.96 376.53,-591.98"/>
<text text-anchor="middle" x="404" y="-625" font-family="Helvetica,sans-Serif" font-size="10.00"> +airFlowLevel</text>
<text text-anchor="middle" x="404" y="-614" font-family="Helvetica,sans-Serif" font-size="10.00">+rollInterval</text>
</g>
<!-- Node7 -->
<g id="node7" class="node">
<title>Node7</title>
<g id="a_node7"><a xlink:href="struct__phase.html" target="_top" xlink:title=" ">
<polygon fill="none" stroke="black" points="293,-403 293,-460 341,-460 341,-403 293,-403"/>
<text text-anchor="middle" x="317" y="-448" font-family="Helvetica,sans-Serif" font-size="10.00">_phase</text>
<polyline fill="none" stroke="black" points="293,-441 341,-441 "/>
<text text-anchor="middle" x="317" y="-429" font-family="Helvetica,sans-Serif" font-size="10.00"> </text>
<polyline fill="none" stroke="black" points="293,-422 341,-422 "/>
<text text-anchor="middle" x="317" y="-410" font-family="Helvetica,sans-Serif" font-size="10.00"> </text>
</a>
</g>
</g>
<!-- Node7&#45;&gt;Node5 -->
<g id="edge7" class="edge">
<title>Node7&#45;&gt;Node5</title>
<path fill="none" stroke="#404040" d="M301.42,-402.86C291.56,-387.52 277.56,-369.14 261,-357 241.95,-343.04 229.96,-353.09 211,-339 208.01,-336.78 205.17,-334.21 202.5,-331.45"/>
<polygon fill="none" stroke="#404040" points="202.37,-331.3 195.44,-329.33 194.59,-322.17 201.53,-324.14 202.37,-331.3"/>
<text text-anchor="middle" x="292.5" y="-360" font-family="Helvetica,sans-Serif" font-size="10.00"> +phases</text>
</g>
<!-- Node8&#45;&gt;Node7 -->
<g id="edge8" class="edge">
<title>Node8&#45;&gt;Node7</title>
<path fill="none" stroke="#404040" d="M317,-524.28C317,-508.9 317,-489.49 317,-472.49"/>
<polygon fill="none" stroke="#404040" points="317,-472.07 313,-466.07 317,-460.07 321,-466.07 317,-472.07"/>
<text text-anchor="middle" x="336.5" y="-498" font-family="Helvetica,sans-Serif" font-size="10.00"> +header</text>
</g>
<!-- Node9&#45;&gt;Node7 -->
<g id="edge11" class="edge">
<title>Node9&#45;&gt;Node7</title>
<path fill="none" stroke="#404040" d="M382.29,-524.28C370.81,-508.15 356.18,-487.58 343.68,-470.01"/>
<polygon fill="none" stroke="#404040" points="343.56,-469.84 336.83,-467.27 336.61,-460.07 343.34,-462.64 343.56,-469.84"/>
<text text-anchor="middle" x="382.5" y="-498" font-family="Helvetica,sans-Serif" font-size="10.00"> +body</text>
</g>
<!-- Node10 -->
<g id="node10" class="node">
<title>Node10</title>
<g id="a_node10"><a xlink:title=" ">
<polygon fill="none" stroke="#bfbfbf" points="444.5,-662.5 444.5,-719.5 479.5,-719.5 479.5,-662.5 444.5,-662.5"/>
<text text-anchor="middle" x="462" y="-707.5" font-family="Helvetica,sans-Serif" font-size="10.00">float</text>
<polyline fill="none" stroke="#bfbfbf" points="444.5,-700.5 479.5,-700.5 "/>
<text text-anchor="middle" x="462" y="-688.5" font-family="Helvetica,sans-Serif" font-size="10.00"> </text>
<polyline fill="none" stroke="#bfbfbf" points="444.5,-681.5 479.5,-681.5 "/>
<text text-anchor="middle" x="462" y="-669.5" font-family="Helvetica,sans-Serif" font-size="10.00"> </text>
</a>
</g>
</g>
<!-- Node10&#45;&gt;Node9 -->
<g id="edge12" class="edge">
<title>Node10&#45;&gt;Node9</title>
<path fill="none" stroke="#404040" d="M458.5,-662.1C455.41,-643.73 449.81,-619.55 440,-600 438.45,-596.92 436.67,-593.86 434.73,-590.87"/>
<polygon fill="none" stroke="#404040" points="434.68,-590.8 427.93,-588.26 427.68,-581.05 434.43,-583.59 434.68,-590.8"/>
<text text-anchor="middle" x="496.5" y="-636" font-family="Helvetica,sans-Serif" font-size="10.00"> +humidHigherLimit</text>
<text text-anchor="middle" x="496.5" y="-625" font-family="Helvetica,sans-Serif" font-size="10.00">+humidLowerLimit</text>
<text text-anchor="middle" x="496.5" y="-614" font-family="Helvetica,sans-Serif" font-size="10.00">+tempHigherLimit</text>
<text text-anchor="middle" x="496.5" y="-603" font-family="Helvetica,sans-Serif" font-size="10.00">+tempLowerLimit</text>
</g>
<!-- Node11 -->
<g id="node11" class="node">
<title>Node11</title>
<g id="a_node11"><a xlink:title=" ">
<polygon fill="none" stroke="#bfbfbf" points="220,-265 220,-322 270,-322 270,-265 220,-265"/>
<text text-anchor="middle" x="245" y="-310" font-family="Helvetica,sans-Serif" font-size="10.00">vector&lt;</text>
<polyline fill="none" stroke="#bfbfbf" points="220,-303 270,-303 "/>
<text text-anchor="middle" x="245" y="-291" font-family="Helvetica,sans-Serif" font-size="10.00"> </text>
<polyline fill="none" stroke="#bfbfbf" points="220,-284 270,-284 "/>
<text text-anchor="middle" x="245" y="-272" font-family="Helvetica,sans-Serif" font-size="10.00"> </text>
</a>
</g>
</g>
<!-- Node11&#45;&gt;Node1 -->
<g id="edge14" class="edge">
<title>Node11&#45;&gt;Node1</title>
<path fill="none" stroke="#404040" d="M231.33,-264.82C224.44,-251 215.89,-234.06 208,-219 206.68,-216.48 205.34,-213.94 203.99,-211.37"/>
<polygon fill="none" stroke="#404040" points="203.97,-211.34 197.63,-207.92 198.35,-200.74 204.69,-204.17 203.97,-211.34"/>
<text text-anchor="middle" x="237.5" y="-222" font-family="Helvetica,sans-Serif" font-size="10.00"> &#45;_formulas</text>
</g>
</g>
</svg>
        <g id="navigator" transform="translate(0 0)" fill="#404254">
                <rect fill="#f2f5e9" fill-opacity="0.5" stroke="#606060" stroke-width=".5" x="0" y="0" width="60" height="60"/>
                <use id="zoomplus" xlink:href="#zoomPlus" x="17" y="9" onmousedown="handleZoom(evt,'in')"/>
                <use id="zoomminus" xlink:href="#zoomMin" x="42" y="9" onmousedown="handleZoom(evt,'out')"/>
                <use id="reset" xlink:href="#resetDef" x="30" y="36" onmousedown="handleReset()"/>
                <g id="arrowUp" xlink:href="#dirArrow" transform="translate(30 24)" onmousedown="handlePan(0,-1)">
                  <use xlink:href="#rim" fill="#404040">
                        <set attributeName="fill" to="#808080" begin="arrowUp.mouseover" end="arrowUp.mouseout"/>
                  </use>
                  <path fill="none" stroke="white" stroke-width="1.5" d="M0,-3.0v7 M-2.5,-0.5L0,-3.0L2.5,-0.5"/>
                </g>
                <g id="arrowRight" xlink:href="#dirArrow" transform="rotate(90) translate(36 -43)" onmousedown="handlePan(1,0)">
                  <use xlink:href="#rim" fill="#404040">
                        <set attributeName="fill" to="#808080" begin="arrowRight.mouseover" end="arrowRight.mouseout"/>
                  </use>
                  <path fill="none" stroke="white" stroke-width="1.5" d="M0,-3.0v7 M-2.5,-0.5L0,-3.0L2.5,-0.5"/>
                </g>
                <g id="arrowDown" xlink:href="#dirArrow" transform="rotate(180) translate(-30 -48)" onmousedown="handlePan(0,1)">
                  <use xlink:href="#rim" fill="#404040">
                        <set attributeName="fill" to="#808080" begin="arrowDown.mouseover" end="arrowDown.mouseout"/>
                  </use>
                  <path fill="none" stroke="white" stroke-width="1.5" d="M0,-3.0v7 M-2.5,-0.5L0,-3.0L2.5,-0.5"/>
                </g>
                <g id="arrowLeft" xlink:href="#dirArrow" transform="rotate(270) translate(-36 17)" onmousedown="handlePan(-1,0)">
                  <use xlink:href="#rim" fill="#404040">
                        <set attributeName="fill" to="#808080" begin="arrowLeft.mouseover" end="arrowLeft.mouseout"/>
                  </use>
                  <path fill="none" stroke="white" stroke-width="1.5" d="M0,-3.0v7 M-2.5,-0.5L0,-3.0L2.5,-0.5"/>
                </g>
        </g>
        <svg viewBox="0 0 15 15" width="100%" height="30px" preserveAspectRatio="xMaxYMin meet">
         <g id="arrow_out" transform="scale(0.3 0.3)">
          <a xlink:href="class_env__coll__graph_org.svg" target="_base">
           <rect id="button" ry="5" rx="5" y="6" x="6" height="38" width="38"
                fill="#f2f5e9" fill-opacity="0.5" stroke="#606060" stroke-width="1.0"/>
           <path id="arrow"
             d="M 11.500037,31.436501 C 11.940474,20.09759 22.043105,11.32322 32.158766,21.979434 L 37.068811,17.246167 C 37.068811,17.246167 37.088388,32 37.088388,32 L 22.160133,31.978069 C 22.160133,31.978069 26.997745,27.140456 26.997745,27.140456 C 18.528582,18.264221 13.291696,25.230495 11.500037,31.436501 z"
             style="fill:#404040;"/>
          </a>
         </g>
        </svg>
</svg>
