<?xml version="1.0" encoding="UTF-8" standalone="no"?>
<!DOCTYPE svg PUBLIC "-//W3C//DTD SVG 1.1//EN"
 "http://www.w3.org/Graphics/SVG/1.1/DTD/svg11.dtd">
<!-- Generated by graphviz version 2.48.0 (20210717.1556)
 -->
<!-- Title: DisplayClient Pages: 1 -->
<svg width="129pt" height="204pt"
 viewBox="0.00 0.00 128.50 204.00" xmlns="http://www.w3.org/2000/svg" xmlns:xlink="http://www.w3.org/1999/xlink">
<g id="graph0" class="graph" transform="scale(1 1) rotate(0) translate(4 200)">
<title>DisplayClient</title>
<!-- Node1 -->
<g id="node1" class="node">
<title>Node1</title>
<g id="a_node1"><a xlink:title=" ">
<polygon fill="#bfbfbf" stroke="black" points="5.5,-0.5 5.5,-79.5 101.5,-79.5 101.5,-0.5 5.5,-0.5"/>
<text text-anchor="middle" x="53.5" y="-67.5" font-family="Helvetica,sans-Serif" font-size="10.00">DisplayClient</text>
<polyline fill="none" stroke="black" points="5.5,-60.5 101.5,-60.5 "/>
<text text-anchor="middle" x="53.5" y="-48.5" font-family="Helvetica,sans-Serif" font-size="10.00"> </text>
<polyline fill="none" stroke="black" points="5.5,-41.5 101.5,-41.5 "/>
<text text-anchor="start" x="13.5" y="-29.5" font-family="Helvetica,sans-Serif" font-size="10.00">+ DisplayClient()</text>
<text text-anchor="start" x="13.5" y="-18.5" font-family="Helvetica,sans-Serif" font-size="10.00">+ ~DisplayClient()</text>
<text text-anchor="start" x="13.5" y="-7.5" font-family="Helvetica,sans-Serif" font-size="10.00">+ sendMsg()</text>
</a>
</g>
</g>
<!-- Node2 -->
<g id="node2" class="node">
<title>Node2</title>
<g id="a_node2"><a xlink:title=" ">
<polygon fill="none" stroke="#bfbfbf" points="0,-138.5 0,-195.5 41,-195.5 41,-138.5 0,-138.5"/>
<text text-anchor="middle" x="20.5" y="-183.5" font-family="Helvetica,sans-Serif" font-size="10.00">string</text>
<polyline fill="none" stroke="#bfbfbf" points="0,-176.5 41,-176.5 "/>
<text text-anchor="middle" x="20.5" y="-164.5" font-family="Helvetica,sans-Serif" font-size="10.00"> </text>
<polyline fill="none" stroke="#bfbfbf" points="0,-157.5 41,-157.5 "/>
<text text-anchor="middle" x="20.5" y="-145.5" font-family="Helvetica,sans-Serif" font-size="10.00"> </text>
</a>
</g>
</g>
<!-- Node2&#45;&gt;Node1 -->
<g id="edge1" class="edge">
<title>Node2&#45;&gt;Node1</title>
<path fill="none" stroke="#404040" d="M25.42,-138.36C27.83,-125.94 30.97,-111.15 34.5,-98 35.07,-95.86 35.68,-93.69 36.32,-91.5"/>
<polygon fill="none" stroke="#404040" points="36.4,-91.23 34.32,-84.33 39.9,-79.75 41.98,-86.66 36.4,-91.23"/>
<text text-anchor="middle" x="50" y="-106.5" font-family="Helvetica,sans-Serif" font-size="10.00"> &#45;_host</text>
</g>
<!-- Node3 -->
<g id="node3" class="node">
<title>Node3</title>
<g id="a_node3"><a xlink:title=" ">
<polygon fill="none" stroke="#bfbfbf" points="59,-138.5 59,-195.5 116,-195.5 116,-138.5 59,-138.5"/>
<text text-anchor="middle" x="87.5" y="-183.5" font-family="Helvetica,sans-Serif" font-size="10.00">unsigned</text>
<polyline fill="none" stroke="#bfbfbf" points="59,-176.5 116,-176.5 "/>
<text text-anchor="middle" x="87.5" y="-164.5" font-family="Helvetica,sans-Serif" font-size="10.00"> </text>
<polyline fill="none" stroke="#bfbfbf" points="59,-157.5 116,-157.5 "/>
<text text-anchor="middle" x="87.5" y="-145.5" font-family="Helvetica,sans-Serif" font-size="10.00"> </text>
</a>
</g>
</g>
<!-- Node3&#45;&gt;Node1 -->
<g id="edge2" class="edge">
<title>Node3&#45;&gt;Node1</title>
<path fill="none" stroke="#404040" d="M79.95,-138.26C76.21,-124.5 71.58,-107.45 67.23,-91.49"/>
<polygon fill="none" stroke="#404040" points="67.14,-91.15 61.71,-86.41 63.99,-79.57 69.42,-84.31 67.14,-91.15"/>
<text text-anchor="middle" x="97.5" y="-112" font-family="Helvetica,sans-Serif" font-size="10.00"> &#45;_bufSize</text>
<text text-anchor="middle" x="97.5" y="-101" font-family="Helvetica,sans-Serif" font-size="10.00">&#45;_portNo</text>
</g>
</g>
</svg>
