<?xml version="1.0" encoding="UTF-8" standalone="no"?>
<!DOCTYPE svg PUBLIC "-//W3C//DTD SVG 1.1//EN"
 "http://www.w3.org/Graphics/SVG/1.1/DTD/svg11.dtd">
<!-- Generated by graphviz version 2.50.0 (20211204.2007)
 -->
<!-- Title: AirFlowActuator::deinit Pages: 1 -->
<svg width="264pt" height="116pt"
 viewBox="0.00 0.00 264.00 116.00" xmlns="http://www.w3.org/2000/svg" xmlns:xlink="http://www.w3.org/1999/xlink">
<g id="graph0" class="graph" transform="scale(1 1) rotate(0) translate(4 112)">
<title>AirFlowActuator::deinit</title>
<!-- Node1 -->
<g id="node1" class="node">
<title>Node1</title>
<g id="a_node1"><a xlink:title=" ">
<polygon fill="#bfbfbf" stroke="black" points="0,-44.5 0,-63.5 116,-63.5 116,-44.5 0,-44.5"/>
<text text-anchor="middle" x="58" y="-51.5" font-family="Helvetica,sans-Serif" font-size="10.00">AirFlowActuator::deinit</text>
</a>
</g>
</g>
<!-- Node2 -->
<g id="node2" class="node">
<title>Node2</title>
<g id="a_node2"><a xlink:href="class_gpio.html#a7b51caf5fd923221806206f1d28736ee" target="_top" xlink:title=" ">
<polygon fill="none" stroke="black" points="171,-88.5 171,-107.5 237,-107.5 237,-88.5 171,-88.5"/>
<text text-anchor="middle" x="204" y="-95.5" font-family="Helvetica,sans-Serif" font-size="10.00">Gpio::deinit</text>
</a>
</g>
</g>
<!-- Node1&#45;&gt;Node2 -->
<g id="edge1" class="edge">
<title>Node1&#45;&gt;Node2</title>
<path fill="none" stroke="midnightblue" d="M90.25,-63.55C111.29,-69.98 139.25,-78.52 162.06,-85.49"/>
<polygon fill="midnightblue" stroke="midnightblue" points="161.23,-88.9 171.82,-88.47 163.27,-82.2 161.23,-88.9"/>
</g>
<!-- Node3 -->
<g id="node3" class="node">
<title>Node3</title>
<g id="a_node3"><a xlink:href="class_singleton.html#a4aec04ab40783981bc6314c390206a68" target="_top" xlink:title=" ">
<polygon fill="none" stroke="black" points="153.5,-39 153.5,-69 254.5,-69 254.5,-39 153.5,-39"/>
<text text-anchor="start" x="161.5" y="-57" font-family="Helvetica,sans-Serif" font-size="10.00">Singleton&lt; Gpio &gt;::</text>
<text text-anchor="middle" x="204" y="-46" font-family="Helvetica,sans-Serif" font-size="10.00">getInstance</text>
</a>
</g>
</g>
<!-- Node1&#45;&gt;Node3 -->
<g id="edge2" class="edge">
<title>Node1&#45;&gt;Node3</title>
<path fill="none" stroke="midnightblue" d="M116.33,-54C125.12,-54 134.22,-54 143.07,-54"/>
<polygon fill="midnightblue" stroke="midnightblue" points="143.31,-57.5 153.31,-54 143.31,-50.5 143.31,-57.5"/>
</g>
<!-- Node4 -->
<g id="node4" class="node">
<title>Node4</title>
<g id="a_node4"><a xlink:href="class_air_flow_actuator.html#afc690adc4a3fd7da272c537af99148e5" target="_top" xlink:title=" ">
<polygon fill="none" stroke="black" points="152,-0.5 152,-19.5 256,-19.5 256,-0.5 152,-0.5"/>
<text text-anchor="middle" x="204" y="-7.5" font-family="Helvetica,sans-Serif" font-size="10.00">AirFlowActuator::off</text>
</a>
</g>
</g>
<!-- Node1&#45;&gt;Node4 -->
<g id="edge3" class="edge">
<title>Node1&#45;&gt;Node4</title>
<path fill="none" stroke="midnightblue" d="M90.25,-44.45C111.29,-38.02 139.25,-29.48 162.06,-22.51"/>
<polygon fill="midnightblue" stroke="midnightblue" points="163.27,-25.8 171.82,-19.53 161.23,-19.1 163.27,-25.8"/>
</g>
</g>
</svg>
