<?xml version="1.0" encoding="UTF-8" standalone="no"?>
<!DOCTYPE svg PUBLIC "-//W3C//DTD SVG 1.1//EN"
 "http://www.w3.org/Graphics/SVG/1.1/DTD/svg11.dtd">
<!-- Generated by graphviz version 2.50.0 (20211204.2007)
 -->
<!-- Title: RollerActuator::init Pages: 1 -->
<svg width="243pt" height="78pt"
 viewBox="0.00 0.00 243.00 77.50" xmlns="http://www.w3.org/2000/svg" xmlns:xlink="http://www.w3.org/1999/xlink">
<g id="graph0" class="graph" transform="scale(1 1) rotate(0) translate(4 73.5)">
<title>RollerActuator::init</title>
<!-- Node1 -->
<g id="node1" class="node">
<title>Node1</title>
<g id="a_node1"><a xlink:title=" ">
<polygon fill="#bfbfbf" stroke="black" points="0,-22.5 0,-41.5 98,-41.5 98,-22.5 0,-22.5"/>
<text text-anchor="middle" x="49" y="-29.5" font-family="Helvetica,sans-Serif" font-size="10.00">RollerActuator::init</text>
</a>
</g>
</g>
<!-- Node2 -->
<g id="node2" class="node">
<title>Node2</title>
<g id="a_node2"><a xlink:href="class_singleton.html#a4aec04ab40783981bc6314c390206a68" target="_top" xlink:title=" ">
<polygon fill="none" stroke="black" points="134,-39 134,-69 235,-69 235,-39 134,-39"/>
<text text-anchor="start" x="142" y="-57" font-family="Helvetica,sans-Serif" font-size="10.00">Singleton&lt; Gpio &gt;::</text>
<text text-anchor="middle" x="184.5" y="-46" font-family="Helvetica,sans-Serif" font-size="10.00">getInstance</text>
</a>
</g>
</g>
<!-- Node1&#45;&gt;Node2 -->
<g id="edge1" class="edge">
<title>Node1&#45;&gt;Node2</title>
<path fill="none" stroke="midnightblue" d="M98.2,-39.94C106.46,-41.3 115.14,-42.74 123.67,-44.14"/>
<polygon fill="midnightblue" stroke="midnightblue" points="123.14,-47.6 133.58,-45.77 124.28,-40.69 123.14,-47.6"/>
</g>
<!-- Node3 -->
<g id="node3" class="node">
<title>Node3</title>
<g id="a_node3"><a xlink:href="class_gpio.html#ad5006f04eb912df7556ee05a7045d7e2" target="_top" xlink:title=" ">
<polygon fill="none" stroke="black" points="156.5,-0.5 156.5,-19.5 212.5,-19.5 212.5,-0.5 156.5,-0.5"/>
<text text-anchor="middle" x="184.5" y="-7.5" font-family="Helvetica,sans-Serif" font-size="10.00">Gpio::init</text>
</a>
</g>
</g>
<!-- Node1&#45;&gt;Node3 -->
<g id="edge2" class="edge">
<title>Node1&#45;&gt;Node3</title>
<path fill="none" stroke="midnightblue" d="M98.2,-24.06C114.1,-21.44 131.52,-18.57 146.45,-16.11"/>
<polygon fill="midnightblue" stroke="midnightblue" points="147.05,-19.55 156.34,-14.48 145.91,-12.65 147.05,-19.55"/>
</g>
</g>
</svg>
