<?xml version="1.0" encoding="UTF-8" standalone="no"?>
<!DOCTYPE svg PUBLIC "-//W3C//DTD SVG 1.1//EN"
 "http://www.w3.org/Graphics/SVG/1.1/DTD/svg11.dtd">
<!-- Generated by graphviz version 2.50.0 (20211204.2007)
 -->
<!-- Title: Incubator::init Pages: 1 -->
<!--zoomable 313 -->
<svg id="main" version="1.1" xmlns="http://www.w3.org/2000/svg" xmlns:xlink="http://www.w3.org/1999/xlink" xml:space="preserve" onload="init(evt)">
<style type="text/css"><![CDATA[
.edge:hover path { stroke: red; }
.edge:hover polygon { stroke: red; fill: red; }
]]></style>
<script type="text/javascript"><![CDATA[
var edges = document.getElementsByTagName('g');
if (edges && edges.length) {
  for (var i=0;i<edges.length;i++) {
    if (edges[i].id.substr(0,4)=='edge') {
      edges[i].setAttribute('class','edge');
    }
  }
}
]]></script>
        <defs>
                <circle id="rim" cx="0" cy="0" r="7"/>
                <circle id="rim2" cx="0" cy="0" r="3.5"/>
                <g id="zoomPlus">
                        <use xlink:href="#rim" fill="#404040">
                                <set attributeName="fill" to="#808080" begin="zoomplus.mouseover" end="zoomplus.mouseout"/>
                        </use>
                        <path d="M-4,0h8M0,-4v8" fill="none" stroke="white" stroke-width="1.5" pointer-events="none"/>
                </g>
                <g id="zoomMin">
                        <use xlink:href="#rim" fill="#404040">
                                <set attributeName="fill" to="#808080" begin="zoomminus.mouseover" end="zoomminus.mouseout"/>
                        </use>
                        <path d="M-4,0h8" fill="none" stroke="white" stroke-width="1.5" pointer-events="none"/>
                </g>
                <g id="dirArrow">
                        <path fill="none" stroke="white" stroke-width="1.5" d="M0,-3.0v7 M-2.5,-0.5L0,-3.0L2.5,-0.5"/>
                </g>
               <g id="resetDef">
                       <use xlink:href="#rim2" fill="#404040">
                               <set attributeName="fill" to="#808080" begin="reset.mouseover" end="reset.mouseout"/>
                       </use>
               </g>
        </defs>

<script type="text/javascript">
var viewWidth = 721;
var viewHeight = 313;
var sectionId = 'dynsection-8';
</script>
<script xlink:href="svgpan.js"/>
<svg id="graph" class="graph">
<g id="viewport">
<title>Incubator::init</title>
<!-- Node1 -->
<g id="node1" class="node">
<title>Node1</title>
<g id="a_node1"><a xlink:title=" ">
<polygon fill="#bfbfbf" stroke="black" points="0,-222.5 0,-241.5 76,-241.5 76,-222.5 0,-222.5"/>
<text text-anchor="middle" x="38" y="-229.5" font-family="Helvetica,sans-Serif" font-size="10.00">Incubator::init</text>
</a>
</g>
</g>
<!-- Node2 -->
<g id="node2" class="node">
<title>Node2</title>
<g id="a_node2"><a xlink:href="_incubator_8cpp.html#a22634c395123171d31d988b1bcb5776f" target="_top" xlink:title=" ">
<polygon fill="none" stroke="black" points="615,-152.5 615,-171.5 687,-171.5 687,-152.5 615,-152.5"/>
<text text-anchor="middle" x="651" y="-159.5" font-family="Helvetica,sans-Serif" font-size="10.00">cfgFileName</text>
</a>
</g>
</g>
<!-- Node1&#45;&gt;Node2 -->
<g id="edge1" class="edge">
<title>Node1&#45;&gt;Node2</title>
<path fill="none" stroke="midnightblue" d="M45.45,-241.71C56.71,-257.68 81.7,-288.95 112,-301 136.18,-310.62 388.43,-297.83 399,-295 491.08,-270.31 587.22,-207.07 628.79,-177.58"/>
<polygon fill="midnightblue" stroke="midnightblue" points="630.95,-180.33 637.03,-171.66 626.86,-174.65 630.95,-180.33"/>
</g>
<!-- Node3 -->
<g id="node3" class="node">
<title>Node3</title>
<g id="a_node3"><a xlink:href="class_singleton.html#a4aec04ab40783981bc6314c390206a68" target="_top" xlink:title=" ">
<polygon fill="none" stroke="black" points="112,-261 112,-291 235,-291 235,-261 112,-261"/>
<text text-anchor="start" x="120" y="-279" font-family="Helvetica,sans-Serif" font-size="10.00">Singleton&lt; SessionTime</text>
<text text-anchor="middle" x="173.5" y="-268" font-family="Helvetica,sans-Serif" font-size="10.00"> &gt;::getInstance</text>
</a>
</g>
</g>
<!-- Node1&#45;&gt;Node3 -->
<g id="edge2" class="edge">
<title>Node1&#45;&gt;Node3</title>
<path fill="none" stroke="midnightblue" d="M76.19,-238.13C94.37,-243.3 116.22,-250.49 134.5,-257.32"/>
<polygon fill="midnightblue" stroke="midnightblue" points="133.39,-260.64 143.98,-260.95 135.89,-254.1 133.39,-260.64"/>
</g>
<!-- Node1&#45;&gt;Node3 -->
<g id="edge3" class="edge">
<title>Node1&#45;&gt;Node3</title>
<path fill="none" stroke="midnightblue" d="M54.31,-241.54C66.28,-246.88 83.83,-253.42 101.77,-259.43"/>
<polygon fill="midnightblue" stroke="midnightblue" points="101.15,-262.91 111.74,-262.7 103.33,-256.26 101.15,-262.91"/>
</g>
<!-- Node4 -->
<g id="node4" class="node">
<title>Node4</title>
<g id="a_node4"><a xlink:href="class_session_time.html#a22ab81d2e9448c9cbcaef59c2d8eb8dc" target="_top" xlink:title=" ">
<polygon fill="none" stroke="black" points="127.5,-222.5 127.5,-241.5 219.5,-241.5 219.5,-222.5 127.5,-222.5"/>
<text text-anchor="middle" x="173.5" y="-229.5" font-family="Helvetica,sans-Serif" font-size="10.00">SessionTime::init</text>
</a>
</g>
</g>
<!-- Node1&#45;&gt;Node4 -->
<g id="edge4" class="edge">
<title>Node1&#45;&gt;Node4</title>
<path fill="none" stroke="midnightblue" d="M76.19,-232C88.85,-232 103.3,-232 117.08,-232"/>
<polygon fill="midnightblue" stroke="midnightblue" points="117.45,-235.5 127.45,-232 117.45,-228.5 117.45,-235.5"/>
</g>
<!-- Node8 -->
<g id="node8" class="node">
<title>Node8</title>
<g id="a_node8"><a xlink:href="struct_actuator.html#a7b3b092352cbf75e46b3d97391acbb15" target="_top" xlink:title=" ">
<polygon fill="none" stroke="black" points="137.5,-184.5 137.5,-203.5 209.5,-203.5 209.5,-184.5 137.5,-184.5"/>
<text text-anchor="middle" x="173.5" y="-191.5" font-family="Helvetica,sans-Serif" font-size="10.00">Actuator::init</text>
</a>
</g>
</g>
<!-- Node1&#45;&gt;Node8 -->
<g id="edge8" class="edge">
<title>Node1&#45;&gt;Node8</title>
<path fill="none" stroke="midnightblue" d="M72.69,-222.41C89.76,-217.55 110.7,-211.59 128.98,-206.39"/>
<polygon fill="midnightblue" stroke="midnightblue" points="130.16,-209.69 138.82,-203.59 128.25,-202.96 130.16,-209.69"/>
</g>
<!-- Node9 -->
<g id="node9" class="node">
<title>Node9</title>
<g id="a_node9"><a xlink:href="struct_sensor.html#a6de0bc70923498ea553558c575d356bd" target="_top" xlink:title=" ">
<polygon fill="none" stroke="black" points="140.5,-146.5 140.5,-165.5 206.5,-165.5 206.5,-146.5 140.5,-146.5"/>
<text text-anchor="middle" x="173.5" y="-153.5" font-family="Helvetica,sans-Serif" font-size="10.00">Sensor::init</text>
</a>
</g>
</g>
<!-- Node1&#45;&gt;Node9 -->
<g id="edge9" class="edge">
<title>Node1&#45;&gt;Node9</title>
<path fill="none" stroke="midnightblue" d="M49.05,-222.21C62.41,-209.67 87.23,-188.01 112,-175 117.76,-171.98 124.08,-169.34 130.4,-167.06"/>
<polygon fill="midnightblue" stroke="midnightblue" points="131.85,-170.27 140.24,-163.79 129.65,-163.63 131.85,-170.27"/>
</g>
<!-- Node10 -->
<g id="node10" class="node">
<title>Node10</title>
<g id="a_node10"><a xlink:href="class_env.html#a4b566e9606cee1c40837311d04c3c521" target="_top" xlink:title=" ">
<polygon fill="none" stroke="black" points="140.5,-108.5 140.5,-127.5 206.5,-127.5 206.5,-108.5 140.5,-108.5"/>
<text text-anchor="middle" x="173.5" y="-115.5" font-family="Helvetica,sans-Serif" font-size="10.00">Env::setUp</text>
</a>
</g>
</g>
<!-- Node1&#45;&gt;Node10 -->
<g id="edge10" class="edge">
<title>Node1&#45;&gt;Node10</title>
<path fill="none" stroke="midnightblue" d="M43.8,-222.35C53.8,-203.19 78.75,-160.23 112,-137 117.64,-133.06 124.13,-129.91 130.72,-127.4"/>
<polygon fill="midnightblue" stroke="midnightblue" points="131.99,-130.67 140.36,-124.17 129.77,-124.03 131.99,-130.67"/>
</g>
<!-- Node5 -->
<g id="node5" class="node">
<title>Node5</title>
<g id="a_node5"><a xlink:href="class_session_time.html#ad3b544332a5c1c7602fe6f195477c46d" target="_top" xlink:title=" ">
<polygon fill="none" stroke="black" points="271,-266.5 271,-285.5 399,-285.5 399,-266.5 271,-266.5"/>
<text text-anchor="middle" x="335" y="-273.5" font-family="Helvetica,sans-Serif" font-size="10.00">SessionTime::_createFile</text>
</a>
</g>
</g>
<!-- Node4&#45;&gt;Node5 -->
<g id="edge5" class="edge">
<title>Node4&#45;&gt;Node5</title>
<path fill="none" stroke="midnightblue" d="M209.11,-241.55C232.73,-248.06 264.22,-256.75 289.67,-263.77"/>
<polygon fill="midnightblue" stroke="midnightblue" points="288.89,-267.19 299.46,-266.47 290.75,-260.44 288.89,-267.19"/>
</g>
<!-- Node6 -->
<g id="node6" class="node">
<title>Node6</title>
<g id="a_node6"><a xlink:href="class_session_time.html#a091c923f5e31dc4e5a2d8f283d750559" target="_top" xlink:title=" ">
<polygon fill="none" stroke="black" points="275,-228.5 275,-247.5 395,-247.5 395,-228.5 275,-228.5"/>
<text text-anchor="middle" x="335" y="-235.5" font-family="Helvetica,sans-Serif" font-size="10.00">SessionTime::_fileExist</text>
</a>
</g>
</g>
<!-- Node4&#45;&gt;Node6 -->
<g id="edge6" class="edge">
<title>Node4&#45;&gt;Node6</title>
<path fill="none" stroke="midnightblue" d="M219.78,-233.7C233.7,-234.23 249.35,-234.82 264.5,-235.39"/>
<polygon fill="midnightblue" stroke="midnightblue" points="264.76,-238.9 274.88,-235.78 265.02,-231.9 264.76,-238.9"/>
</g>
<!-- Node7 -->
<g id="node7" class="node">
<title>Node7</title>
<g id="a_node7"><a xlink:href="_session_time_8cpp.html#abca31e57bfd5e5177ae07212663211be" target="_top" xlink:title=" ">
<polygon fill="none" stroke="black" points="287.5,-190.5 287.5,-209.5 382.5,-209.5 382.5,-190.5 287.5,-190.5"/>
<text text-anchor="middle" x="335" y="-197.5" font-family="Helvetica,sans-Serif" font-size="10.00">sBeginTimeName</text>
</a>
</g>
</g>
<!-- Node4&#45;&gt;Node7 -->
<g id="edge7" class="edge">
<title>Node4&#45;&gt;Node7</title>
<path fill="none" stroke="midnightblue" d="M219.78,-222.92C237.74,-219.31 258.58,-215.13 277.51,-211.33"/>
<polygon fill="midnightblue" stroke="midnightblue" points="278.38,-214.73 287.5,-209.33 277,-207.87 278.38,-214.73"/>
</g>
<!-- Node10&#45;&gt;Node2 -->
<g id="edge19" class="edge">
<title>Node10&#45;&gt;Node2</title>
<path fill="none" stroke="midnightblue" d="M206.58,-121.16C255.73,-125.98 352.66,-135.41 435,-143 493.73,-148.41 561.5,-154.35 605.01,-158.12"/>
<polygon fill="midnightblue" stroke="midnightblue" points="604.72,-161.61 614.99,-158.99 605.33,-154.64 604.72,-161.61"/>
</g>
<!-- Node11 -->
<g id="node11" class="node">
<title>Node11</title>
<g id="a_node11"><a xlink:href="class_env.html#a346a3d4dca594e25ed55bb2b6a21d2ec" target="_top" xlink:title=" ">
<polygon fill="none" stroke="black" points="289,-76.5 289,-95.5 381,-95.5 381,-76.5 289,-76.5"/>
<text text-anchor="middle" x="335" y="-83.5" font-family="Helvetica,sans-Serif" font-size="10.00">Env::_readConfig</text>
</a>
</g>
</g>
<!-- Node10&#45;&gt;Node11 -->
<g id="edge11" class="edge">
<title>Node10&#45;&gt;Node11</title>
<path fill="none" stroke="midnightblue" d="M206.78,-111.52C227.41,-107.39 254.7,-101.91 278.71,-97.09"/>
<polygon fill="midnightblue" stroke="midnightblue" points="279.66,-100.47 288.78,-95.07 278.28,-93.61 279.66,-100.47"/>
</g>
<!-- Node12 -->
<g id="node12" class="node">
<title>Node12</title>
<g id="a_node12"><a xlink:href="class_env.html#a391bb928ce93bbd72909cb7bade388ff" target="_top" xlink:title=" ">
<polygon fill="none" stroke="black" points="442,-114.5 442,-133.5 546,-133.5 546,-114.5 442,-114.5"/>
<text text-anchor="middle" x="494" y="-121.5" font-family="Helvetica,sans-Serif" font-size="10.00">Env::_cfg2Formulas</text>
</a>
</g>
</g>
<!-- Node11&#45;&gt;Node12 -->
<g id="edge12" class="edge">
<title>Node11&#45;&gt;Node12</title>
<path fill="none" stroke="midnightblue" d="M375.62,-95.59C396.34,-100.6 421.89,-106.79 443.86,-112.11"/>
<polygon fill="midnightblue" stroke="midnightblue" points="443.12,-115.53 453.67,-114.48 444.77,-108.73 443.12,-115.53"/>
</g>
<!-- Node13 -->
<g id="node13" class="node">
<title>Node13</title>
<g id="a_node13"><a xlink:href="class_env.html#a0468f6095ca1e0c9317c4b23aa67bc42" target="_top" xlink:title=" ">
<polygon fill="none" stroke="black" points="448,-38.5 448,-57.5 540,-57.5 540,-38.5 448,-38.5"/>
<text text-anchor="middle" x="494" y="-45.5" font-family="Helvetica,sans-Serif" font-size="10.00">Env::_obj2Config</text>
</a>
</g>
</g>
<!-- Node11&#45;&gt;Node13 -->
<g id="edge13" class="edge">
<title>Node11&#45;&gt;Node13</title>
<path fill="none" stroke="midnightblue" d="M375.62,-76.41C396.34,-71.4 421.89,-65.21 443.86,-59.89"/>
<polygon fill="midnightblue" stroke="midnightblue" points="444.77,-63.27 453.67,-57.52 443.12,-56.47 444.77,-63.27"/>
</g>
<!-- Node16 -->
<g id="node16" class="node">
<title>Node16</title>
<g id="a_node16"><a xlink:href="class_env.html#a25e1717e8826032795d713a474e548b9" target="_top" xlink:title=" ">
<polygon fill="none" stroke="black" points="435,-76.5 435,-95.5 553,-95.5 553,-76.5 435,-76.5"/>
<text text-anchor="middle" x="494" y="-83.5" font-family="Helvetica,sans-Serif" font-size="10.00">Env::_readFromCfgFile</text>
</a>
</g>
</g>
<!-- Node11&#45;&gt;Node16 -->
<g id="edge16" class="edge">
<title>Node11&#45;&gt;Node16</title>
<path fill="none" stroke="midnightblue" d="M381.41,-86C394.95,-86 410.1,-86 424.76,-86"/>
<polygon fill="midnightblue" stroke="midnightblue" points="424.8,-89.5 434.8,-86 424.8,-82.5 424.8,-89.5"/>
</g>
<!-- Node17 -->
<g id="node17" class="node">
<title>Node17</title>
<g id="a_node17"><a xlink:href="class_env.html#af384952f73e5f6c4e03b9533a3272f7e" target="_top" xlink:title=" ">
<polygon fill="none" stroke="black" points="455.5,-0.5 455.5,-19.5 532.5,-19.5 532.5,-0.5 455.5,-0.5"/>
<text text-anchor="middle" x="494" y="-7.5" font-family="Helvetica,sans-Serif" font-size="10.00">Env::_str2Obj</text>
</a>
</g>
</g>
<!-- Node11&#45;&gt;Node17 -->
<g id="edge18" class="edge">
<title>Node11&#45;&gt;Node17</title>
<path fill="none" stroke="midnightblue" d="M350.59,-76.32C369.47,-64.09 403.66,-42.97 435,-29 439.78,-26.87 444.87,-24.85 449.97,-22.99"/>
<polygon fill="midnightblue" stroke="midnightblue" points="451.44,-26.19 459.73,-19.6 449.14,-19.57 451.44,-26.19"/>
</g>
<!-- Node14 -->
<g id="node14" class="node">
<title>Node14</title>
<g id="a_node14"><a xlink:href="class_env.html#aecf668e7dfe93e0d8f5b960ba48123d6" target="_top" xlink:title=" ">
<polygon fill="none" stroke="black" points="605.5,-57.5 605.5,-76.5 696.5,-76.5 696.5,-57.5 605.5,-57.5"/>
<text text-anchor="middle" x="651" y="-64.5" font-family="Helvetica,sans-Serif" font-size="10.00">Env::_obj2Phase</text>
</a>
</g>
</g>
<!-- Node13&#45;&gt;Node14 -->
<g id="edge14" class="edge">
<title>Node13&#45;&gt;Node14</title>
<path fill="none" stroke="midnightblue" d="M540.25,-53.55C557.51,-55.66 577.37,-58.1 595.41,-60.31"/>
<polygon fill="midnightblue" stroke="midnightblue" points="595.15,-63.8 605.5,-61.54 596,-56.85 595.15,-63.8"/>
</g>
<!-- Node15 -->
<g id="node15" class="node">
<title>Node15</title>
<g id="a_node15"><a xlink:href="class_env.html#aa16d4c38c8180d55cb99c309465ce518" target="_top" xlink:title=" ">
<polygon fill="none" stroke="black" points="589,-19.5 589,-38.5 713,-38.5 713,-19.5 589,-19.5"/>
<text text-anchor="middle" x="651" y="-26.5" font-family="Helvetica,sans-Serif" font-size="10.00">Env::_objByPhaseName</text>
</a>
</g>
</g>
<!-- Node13&#45;&gt;Node15 -->
<g id="edge15" class="edge">
<title>Node13&#45;&gt;Node15</title>
<path fill="none" stroke="midnightblue" d="M540.25,-42.45C552.35,-40.97 565.74,-39.33 578.87,-37.72"/>
<polygon fill="midnightblue" stroke="midnightblue" points="579.35,-41.19 588.85,-36.5 578.49,-34.24 579.35,-41.19"/>
</g>
<!-- Node16&#45;&gt;Node2 -->
<g id="edge17" class="edge">
<title>Node16&#45;&gt;Node2</title>
<path fill="none" stroke="midnightblue" d="M528.29,-95.55C536.5,-98.27 545.18,-101.47 553,-105 579.59,-117 608.17,-134.4 627.37,-146.81"/>
<polygon fill="midnightblue" stroke="midnightblue" points="625.45,-149.74 635.74,-152.29 629.29,-143.89 625.45,-149.74"/>
</g>
</g>
</svg>
        <g id="navigator" transform="translate(0 0)" fill="#404254">
                <rect fill="#f2f5e9" fill-opacity="0.5" stroke="#606060" stroke-width=".5" x="0" y="0" width="60" height="60"/>
                <use id="zoomplus" xlink:href="#zoomPlus" x="17" y="9" onmousedown="handleZoom(evt,'in')"/>
                <use id="zoomminus" xlink:href="#zoomMin" x="42" y="9" onmousedown="handleZoom(evt,'out')"/>
                <use id="reset" xlink:href="#resetDef" x="30" y="36" onmousedown="handleReset()"/>
                <g id="arrowUp" xlink:href="#dirArrow" transform="translate(30 24)" onmousedown="handlePan(0,-1)">
                  <use xlink:href="#rim" fill="#404040">
                        <set attributeName="fill" to="#808080" begin="arrowUp.mouseover" end="arrowUp.mouseout"/>
                  </use>
                  <path fill="none" stroke="white" stroke-width="1.5" d="M0,-3.0v7 M-2.5,-0.5L0,-3.0L2.5,-0.5"/>
                </g>
                <g id="arrowRight" xlink:href="#dirArrow" transform="rotate(90) translate(36 -43)" onmousedown="handlePan(1,0)">
                  <use xlink:href="#rim" fill="#404040">
                        <set attributeName="fill" to="#808080" begin="arrowRight.mouseover" end="arrowRight.mouseout"/>
                  </use>
                  <path fill="none" stroke="white" stroke-width="1.5" d="M0,-3.0v7 M-2.5,-0.5L0,-3.0L2.5,-0.5"/>
                </g>
                <g id="arrowDown" xlink:href="#dirArrow" transform="rotate(180) translate(-30 -48)" onmousedown="handlePan(0,1)">
                  <use xlink:href="#rim" fill="#404040">
                        <set attributeName="fill" to="#808080" begin="arrowDown.mouseover" end="arrowDown.mouseout"/>
                  </use>
                  <path fill="none" stroke="white" stroke-width="1.5" d="M0,-3.0v7 M-2.5,-0.5L0,-3.0L2.5,-0.5"/>
                </g>
                <g id="arrowLeft" xlink:href="#dirArrow" transform="rotate(270) translate(-36 17)" onmousedown="handlePan(-1,0)">
                  <use xlink:href="#rim" fill="#404040">
                        <set attributeName="fill" to="#808080" begin="arrowLeft.mouseover" end="arrowLeft.mouseout"/>
                  </use>
                  <path fill="none" stroke="white" stroke-width="1.5" d="M0,-3.0v7 M-2.5,-0.5L0,-3.0L2.5,-0.5"/>
                </g>
        </g>
        <svg viewBox="0 0 15 15" width="100%" height="30px" preserveAspectRatio="xMaxYMin meet">
         <g id="arrow_out" transform="scale(0.3 0.3)">
          <a xlink:href="class_incubator_ae7355111b46b8cd6d2c88c5ba76fb084_cgraph_org.svg" target="_base">
           <rect id="button" ry="5" rx="5" y="6" x="6" height="38" width="38"
                fill="#f2f5e9" fill-opacity="0.5" stroke="#606060" stroke-width="1.0"/>
           <path id="arrow"
             d="M 11.500037,31.436501 C 11.940474,20.09759 22.043105,11.32322 32.158766,21.979434 L 37.068811,17.246167 C 37.068811,17.246167 37.088388,32 37.088388,32 L 22.160133,31.978069 C 22.160133,31.978069 26.997745,27.140456 26.997745,27.140456 C 18.528582,18.264221 13.291696,25.230495 11.500037,31.436501 z"
             style="fill:#404040;"/>
          </a>
         </g>
        </svg>
</svg>
