<?xml version="1.0" encoding="UTF-8" standalone="no"?>
<!DOCTYPE svg PUBLIC "-//W3C//DTD SVG 1.1//EN"
 "http://www.w3.org/Graphics/SVG/1.1/DTD/svg11.dtd">
<!-- Generated by graphviz version 2.50.0 (20211204.2007)
 -->
<!-- Title: AirFlowActuator::init Pages: 1 -->
<svg width="250pt" height="78pt"
 viewBox="0.00 0.00 250.00 77.50" xmlns="http://www.w3.org/2000/svg" xmlns:xlink="http://www.w3.org/1999/xlink">
<g id="graph0" class="graph" transform="scale(1 1) rotate(0) translate(4 73.5)">
<title>AirFlowActuator::init</title>
<!-- Node1 -->
<g id="node1" class="node">
<title>Node1</title>
<g id="a_node1"><a xlink:title=" ">
<polygon fill="#bfbfbf" stroke="black" points="0,-22.5 0,-41.5 105,-41.5 105,-22.5 0,-22.5"/>
<text text-anchor="middle" x="52.5" y="-29.5" font-family="Helvetica,sans-Serif" font-size="10.00">AirFlowActuator::init</text>
</a>
</g>
</g>
<!-- Node2 -->
<g id="node2" class="node">
<title>Node2</title>
<g id="a_node2"><a xlink:href="class_singleton.html#a4aec04ab40783981bc6314c390206a68" target="_top" xlink:title=" ">
<polygon fill="none" stroke="black" points="141,-39 141,-69 242,-69 242,-39 141,-39"/>
<text text-anchor="start" x="149" y="-57" font-family="Helvetica,sans-Serif" font-size="10.00">Singleton&lt; Gpio &gt;::</text>
<text text-anchor="middle" x="191.5" y="-46" font-family="Helvetica,sans-Serif" font-size="10.00">getInstance</text>
</a>
</g>
</g>
<!-- Node1&#45;&gt;Node2 -->
<g id="edge1" class="edge">
<title>Node1&#45;&gt;Node2</title>
<path fill="none" stroke="midnightblue" d="M105.29,-40.32C113.68,-41.66 122.42,-43.07 130.98,-44.44"/>
<polygon fill="midnightblue" stroke="midnightblue" points="130.47,-47.9 140.9,-46.03 131.58,-40.99 130.47,-47.9"/>
</g>
<!-- Node3 -->
<g id="node3" class="node">
<title>Node3</title>
<g id="a_node3"><a xlink:href="class_gpio.html#ad5006f04eb912df7556ee05a7045d7e2" target="_top" xlink:title=" ">
<polygon fill="none" stroke="black" points="163.5,-0.5 163.5,-19.5 219.5,-19.5 219.5,-0.5 163.5,-0.5"/>
<text text-anchor="middle" x="191.5" y="-7.5" font-family="Helvetica,sans-Serif" font-size="10.00">Gpio::init</text>
</a>
</g>
</g>
<!-- Node1&#45;&gt;Node3 -->
<g id="edge2" class="edge">
<title>Node1&#45;&gt;Node3</title>
<path fill="none" stroke="midnightblue" d="M105.29,-23.68C121.15,-21.14 138.27,-18.39 152.98,-16.02"/>
<polygon fill="midnightblue" stroke="midnightblue" points="153.89,-19.42 163.21,-14.38 152.78,-12.51 153.89,-19.42"/>
</g>
</g>
</svg>
