<?xml version="1.0" encoding="UTF-8" standalone="no"?>
<!DOCTYPE svg PUBLIC "-//W3C//DTD SVG 1.1//EN"
 "http://www.w3.org/Graphics/SVG/1.1/DTD/svg11.dtd">
<!-- Generated by graphviz version 2.48.0 (20210717.1556)
 -->
<!-- Title: HeatActuator::init Pages: 1 -->
<svg width="239pt" height="78pt"
 viewBox="0.00 0.00 239.00 77.50" xmlns="http://www.w3.org/2000/svg" xmlns:xlink="http://www.w3.org/1999/xlink">
<g id="graph0" class="graph" transform="scale(1 1) rotate(0) translate(4 73.5)">
<title>HeatActuator::init</title>
<!-- Node1 -->
<g id="node1" class="node">
<title>Node1</title>
<g id="a_node1"><a xlink:title=" ">
<polygon fill="#bfbfbf" stroke="black" points="0,-22.5 0,-41.5 93,-41.5 93,-22.5 0,-22.5"/>
<text text-anchor="middle" x="46.5" y="-29.5" font-family="Helvetica,sans-Serif" font-size="10.00">HeatActuator::init</text>
</a>
</g>
</g>
<!-- Node2 -->
<g id="node2" class="node">
<title>Node2</title>
<g id="a_node2"><a xlink:href="class_singleton.html#a8ec70839501fe76ec61195233d8fdb62" target="_top" xlink:title=" ">
<polygon fill="none" stroke="black" points="129,-39 129,-69 231,-69 231,-39 129,-39"/>
<text text-anchor="start" x="137" y="-57" font-family="Helvetica,sans-Serif" font-size="10.00">Singleton&lt; Gpio &gt;::</text>
<text text-anchor="middle" x="180" y="-46" font-family="Helvetica,sans-Serif" font-size="10.00">getInstance</text>
</a>
</g>
</g>
<!-- Node1&#45;&gt;Node2 -->
<g id="edge1" class="edge">
<title>Node1&#45;&gt;Node2</title>
<path fill="none" stroke="midnightblue" d="M93.12,-39.63C101.44,-41.02 110.23,-42.5 118.9,-43.94"/>
<polygon fill="midnightblue" stroke="midnightblue" points="118.53,-47.43 128.97,-45.63 119.68,-40.53 118.53,-47.43"/>
</g>
<!-- Node3 -->
<g id="node3" class="node">
<title>Node3</title>
<g id="a_node3"><a xlink:href="class_gpio.html#ad5006f04eb912df7556ee05a7045d7e2" target="_top" xlink:title=" ">
<polygon fill="none" stroke="black" points="152,-0.5 152,-19.5 208,-19.5 208,-0.5 152,-0.5"/>
<text text-anchor="middle" x="180" y="-7.5" font-family="Helvetica,sans-Serif" font-size="10.00">Gpio::init</text>
</a>
</g>
</g>
<!-- Node1&#45;&gt;Node3 -->
<g id="edge2" class="edge">
<title>Node1&#45;&gt;Node3</title>
<path fill="none" stroke="midnightblue" d="M93.12,-24.37C109.03,-21.71 126.69,-18.75 141.83,-16.22"/>
<polygon fill="midnightblue" stroke="midnightblue" points="142.57,-19.64 151.86,-14.54 141.42,-12.74 142.57,-19.64"/>
</g>
</g>
</svg>
