<?xml version="1.0" encoding="UTF-8" standalone="no"?>
<!DOCTYPE svg PUBLIC "-//W3C//DTD SVG 1.1//EN"
 "http://www.w3.org/Graphics/SVG/1.1/DTD/svg11.dtd">
<!-- Generated by graphviz version 2.48.0 (20210717.1556)
 -->
<!-- Title: Tmp117TempSensor Pages: 1 -->
<svg width="283pt" height="270pt"
 viewBox="0.00 0.00 282.50 270.00" xmlns="http://www.w3.org/2000/svg" xmlns:xlink="http://www.w3.org/1999/xlink">
<g id="graph0" class="graph" transform="scale(1 1) rotate(0) translate(4 266)">
<title>Tmp117TempSensor</title>
<!-- Node1 -->
<g id="node1" class="node">
<title>Node1</title>
<g id="a_node1"><a xlink:title=" ">
<polygon fill="#bfbfbf" stroke="black" points="77.5,-0.5 77.5,-112.5 207.5,-112.5 207.5,-0.5 77.5,-0.5"/>
<text text-anchor="middle" x="142.5" y="-100.5" font-family="Helvetica,sans-Serif" font-size="10.00">Tmp117TempSensor</text>
<polyline fill="none" stroke="black" points="77.5,-93.5 207.5,-93.5 "/>
<text text-anchor="middle" x="142.5" y="-81.5" font-family="Helvetica,sans-Serif" font-size="10.00"> </text>
<polyline fill="none" stroke="black" points="77.5,-74.5 207.5,-74.5 "/>
<text text-anchor="start" x="85.5" y="-62.5" font-family="Helvetica,sans-Serif" font-size="10.00">+ Tmp117TempSensor()</text>
<text text-anchor="start" x="85.5" y="-51.5" font-family="Helvetica,sans-Serif" font-size="10.00">+ ~Tmp117TempSensor()</text>
<text text-anchor="start" x="85.5" y="-40.5" font-family="Helvetica,sans-Serif" font-size="10.00">+ init()</text>
<text text-anchor="start" x="85.5" y="-29.5" font-family="Helvetica,sans-Serif" font-size="10.00">+ deinit()</text>
<text text-anchor="start" x="85.5" y="-18.5" font-family="Helvetica,sans-Serif" font-size="10.00">+ get()</text>
<text text-anchor="start" x="85.5" y="-7.5" font-family="Helvetica,sans-Serif" font-size="10.00">+ getCache()</text>
</a>
</g>
</g>
<!-- Node2 -->
<g id="node2" class="node">
<title>Node2</title>
<g id="a_node2"><a xlink:href="struct_sensor.html" target="_top" xlink:title=" ">
<polygon fill="none" stroke="black" points="0,-160.5 0,-261.5 75,-261.5 75,-160.5 0,-160.5"/>
<text text-anchor="middle" x="37.5" y="-249.5" font-family="Helvetica,sans-Serif" font-size="10.00">Sensor</text>
<polyline fill="none" stroke="black" points="0,-242.5 75,-242.5 "/>
<text text-anchor="middle" x="37.5" y="-230.5" font-family="Helvetica,sans-Serif" font-size="10.00"> </text>
<polyline fill="none" stroke="black" points="0,-223.5 75,-223.5 "/>
<text text-anchor="start" x="8" y="-211.5" font-family="Helvetica,sans-Serif" font-size="10.00">+ ~Sensor()</text>
<text text-anchor="start" x="8" y="-200.5" font-family="Helvetica,sans-Serif" font-size="10.00">+ init()</text>
<text text-anchor="start" x="8" y="-189.5" font-family="Helvetica,sans-Serif" font-size="10.00">+ deinit()</text>
<text text-anchor="start" x="8" y="-178.5" font-family="Helvetica,sans-Serif" font-size="10.00">+ get()</text>
<text text-anchor="start" x="8" y="-167.5" font-family="Helvetica,sans-Serif" font-size="10.00">+ getCache()</text>
</a>
</g>
</g>
<!-- Node2&#45;&gt;Node1 -->
<g id="edge1" class="edge">
<title>Node2&#45;&gt;Node1</title>
<path fill="none" stroke="midnightblue" d="M77.37,-152.09C86.3,-139.13 95.74,-125.41 104.58,-112.57"/>
<polygon fill="none" stroke="midnightblue" points="74.38,-150.27 71.59,-160.49 80.14,-154.24 74.38,-150.27"/>
</g>
<!-- Node3 -->
<g id="node3" class="node">
<title>Node3</title>
<g id="a_node3"><a xlink:title=" ">
<polygon fill="none" stroke="#bfbfbf" points="93,-182.5 93,-239.5 128,-239.5 128,-182.5 93,-182.5"/>
<text text-anchor="middle" x="110.5" y="-227.5" font-family="Helvetica,sans-Serif" font-size="10.00">float</text>
<polyline fill="none" stroke="#bfbfbf" points="93,-220.5 128,-220.5 "/>
<text text-anchor="middle" x="110.5" y="-208.5" font-family="Helvetica,sans-Serif" font-size="10.00"> </text>
<polyline fill="none" stroke="#bfbfbf" points="93,-201.5 128,-201.5 "/>
<text text-anchor="middle" x="110.5" y="-189.5" font-family="Helvetica,sans-Serif" font-size="10.00"> </text>
</a>
</g>
</g>
<!-- Node3&#45;&gt;Node1 -->
<g id="edge2" class="edge">
<title>Node3&#45;&gt;Node1</title>
<path fill="none" stroke="#404040" d="M108.26,-182.3C107.67,-167.01 107.99,-147.78 111.5,-131 111.98,-128.71 112.53,-126.41 113.14,-124.1"/>
<polygon fill="none" stroke="#404040" points="113.15,-124.04 111.07,-117.14 116.63,-112.55 118.72,-119.45 113.15,-124.04"/>
<text text-anchor="middle" x="132" y="-134" font-family="Helvetica,sans-Serif" font-size="10.00"> &#45;_lastVal</text>
</g>
<!-- Node4 -->
<g id="node4" class="node">
<title>Node4</title>
<g id="a_node4"><a xlink:title=" ">
<polygon fill="none" stroke="#bfbfbf" points="160,-182.5 160,-239.5 189,-239.5 189,-182.5 160,-182.5"/>
<text text-anchor="middle" x="174.5" y="-227.5" font-family="Helvetica,sans-Serif" font-size="10.00">int</text>
<polyline fill="none" stroke="#bfbfbf" points="160,-220.5 189,-220.5 "/>
<text text-anchor="middle" x="174.5" y="-208.5" font-family="Helvetica,sans-Serif" font-size="10.00"> </text>
<polyline fill="none" stroke="#bfbfbf" points="160,-201.5 189,-201.5 "/>
<text text-anchor="middle" x="174.5" y="-189.5" font-family="Helvetica,sans-Serif" font-size="10.00"> </text>
</a>
</g>
</g>
<!-- Node4&#45;&gt;Node1 -->
<g id="edge3" class="edge">
<title>Node4&#45;&gt;Node1</title>
<path fill="none" stroke="#404040" d="M168.71,-182.38C165.3,-166.17 160.84,-144.92 156.57,-124.55"/>
<polygon fill="none" stroke="#404040" points="156.55,-124.45 151.4,-119.4 154.08,-112.71 159.23,-117.76 156.55,-124.45"/>
<text text-anchor="middle" x="185" y="-134" font-family="Helvetica,sans-Serif" font-size="10.00"> &#45;_deviceFd</text>
</g>
<!-- Node5 -->
<g id="node5" class="node">
<title>Node5</title>
<g id="a_node5"><a xlink:title=" ">
<polygon fill="none" stroke="#bfbfbf" points="233,-182.5 233,-239.5 268,-239.5 268,-182.5 233,-182.5"/>
<text text-anchor="middle" x="250.5" y="-227.5" font-family="Helvetica,sans-Serif" font-size="10.00">bool</text>
<polyline fill="none" stroke="#bfbfbf" points="233,-220.5 268,-220.5 "/>
<text text-anchor="middle" x="250.5" y="-208.5" font-family="Helvetica,sans-Serif" font-size="10.00"> </text>
<polyline fill="none" stroke="#bfbfbf" points="233,-201.5 268,-201.5 "/>
<text text-anchor="middle" x="250.5" y="-189.5" font-family="Helvetica,sans-Serif" font-size="10.00"> </text>
</a>
</g>
</g>
<!-- Node5&#45;&gt;Node1 -->
<g id="edge4" class="edge">
<title>Node5&#45;&gt;Node1</title>
<path fill="none" stroke="#404040" d="M241.13,-182.39C235.08,-166.6 226.33,-146.85 215.5,-131 213.44,-127.98 211.24,-124.97 208.94,-122"/>
<polygon fill="none" stroke="#404040" points="208.89,-121.94 202,-119.82 201.32,-112.64 208.21,-114.77 208.89,-121.94"/>
<text text-anchor="middle" x="248" y="-134" font-family="Helvetica,sans-Serif" font-size="10.00"> &#45;_initialized</text>
</g>
</g>
</svg>
