<?xml version="1.0" encoding="UTF-8" standalone="no"?>
<!DOCTYPE svg PUBLIC "-//W3C//DTD SVG 1.1//EN"
 "http://www.w3.org/Graphics/SVG/1.1/DTD/svg11.dtd">
<!-- Generated by graphviz version 2.50.0 (20211204.2007)
 -->
<!-- Title: Signal Pages: 1 -->
<svg width="215pt" height="259pt"
 viewBox="0.00 0.00 215.00 259.00" xmlns="http://www.w3.org/2000/svg" xmlns:xlink="http://www.w3.org/1999/xlink">
<g id="graph0" class="graph" transform="scale(1 1) rotate(0) translate(4 255)">
<title>Signal</title>
<!-- Node1 -->
<g id="node1" class="node">
<title>Node1</title>
<g id="a_node1"><a xlink:title=" ">
<polygon fill="#bfbfbf" stroke="black" points="43,-0.5 43,-123.5 145,-123.5 145,-0.5 43,-0.5"/>
<text text-anchor="middle" x="94" y="-111.5" font-family="Helvetica,sans-Serif" font-size="10.00">Signal</text>
<polyline fill="none" stroke="black" points="43,-104.5 145,-104.5 "/>
<text text-anchor="middle" x="94" y="-92.5" font-family="Helvetica,sans-Serif" font-size="10.00"> </text>
<polyline fill="none" stroke="black" points="43,-85.5 145,-85.5 "/>
<text text-anchor="start" x="51" y="-73.5" font-family="Helvetica,sans-Serif" font-size="10.00">+ Signal()</text>
<text text-anchor="start" x="51" y="-62.5" font-family="Helvetica,sans-Serif" font-size="10.00">+ ~Signal()</text>
<text text-anchor="start" x="51" y="-51.5" font-family="Helvetica,sans-Serif" font-size="10.00">+ signalHandler()</text>
<text text-anchor="start" x="51" y="-40.5" font-family="Helvetica,sans-Serif" font-size="10.00">+ isSignaledTerm()</text>
<text text-anchor="start" x="51" y="-29.5" font-family="Helvetica,sans-Serif" font-size="10.00">+ isSignaledUsr1()</text>
<text text-anchor="start" x="51" y="-18.5" font-family="Helvetica,sans-Serif" font-size="10.00">+ resetSignalTerm()</text>
<text text-anchor="start" x="51" y="-7.5" font-family="Helvetica,sans-Serif" font-size="10.00">+ resetSignalUsr1()</text>
</a>
</g>
</g>
<!-- Node2 -->
<g id="node2" class="node">
<title>Node2</title>
<g id="a_node2"><a xlink:title=" ">
<polygon fill="none" stroke="#bfbfbf" points="0,-182.5 0,-250.5 90,-250.5 90,-182.5 0,-182.5"/>
<text text-anchor="start" x="8" y="-238.5" font-family="Helvetica,sans-Serif" font-size="10.00">static volatile sig</text>
<text text-anchor="middle" x="45" y="-227.5" font-family="Helvetica,sans-Serif" font-size="10.00">_atomic_t</text>
<polyline fill="none" stroke="#bfbfbf" points="0,-220.5 90,-220.5 "/>
<text text-anchor="middle" x="45" y="-208.5" font-family="Helvetica,sans-Serif" font-size="10.00"> </text>
<polyline fill="none" stroke="#bfbfbf" points="0,-201.5 90,-201.5 "/>
<text text-anchor="middle" x="45" y="-189.5" font-family="Helvetica,sans-Serif" font-size="10.00"> </text>
</a>
</g>
</g>
<!-- Node2&#45;&gt;Node1 -->
<g id="edge1" class="edge">
<title>Node2&#45;&gt;Node1</title>
<path fill="none" stroke="#404040" d="M41.77,-182.39C41.47,-169.56 42.3,-154.88 46,-142 46.69,-139.59 47.48,-137.18 48.35,-134.78"/>
<polygon fill="none" stroke="#404040" points="48.36,-134.73 46.95,-127.66 52.94,-123.64 54.35,-130.71 48.36,-134.73"/>
<text text-anchor="middle" x="83.5" y="-156" font-family="Helvetica,sans-Serif" font-size="10.00"> +atomicSigTerm</text>
<text text-anchor="middle" x="83.5" y="-145" font-family="Helvetica,sans-Serif" font-size="10.00">+atomicSigUsr1</text>
</g>
<!-- Node3 -->
<g id="node3" class="node">
<title>Node3</title>
<g id="a_node3"><a xlink:title=" ">
<polygon fill="none" stroke="#bfbfbf" points="117,-188 117,-245 169,-245 169,-188 117,-188"/>
<text text-anchor="middle" x="143" y="-233" font-family="Helvetica,sans-Serif" font-size="10.00">atomic&lt;</text>
<polyline fill="none" stroke="#bfbfbf" points="117,-226 169,-226 "/>
<text text-anchor="middle" x="143" y="-214" font-family="Helvetica,sans-Serif" font-size="10.00"> </text>
<polyline fill="none" stroke="#bfbfbf" points="117,-207 169,-207 "/>
<text text-anchor="middle" x="143" y="-195" font-family="Helvetica,sans-Serif" font-size="10.00"> </text>
</a>
</g>
</g>
<!-- Node3&#45;&gt;Node1 -->
<g id="edge2" class="edge">
<title>Node3&#45;&gt;Node1</title>
<path fill="none" stroke="#404040" d="M135,-187.85C130.93,-174.04 125.84,-157.09 121,-142 120.29,-139.77 119.56,-137.52 118.81,-135.24"/>
<polygon fill="none" stroke="#404040" points="118.78,-135.13 113.1,-130.69 115.02,-123.74 120.7,-128.18 118.78,-135.13"/>
<text text-anchor="middle" x="167" y="-156" font-family="Helvetica,sans-Serif" font-size="10.00"> +atomicSigTerm_</text>
<text text-anchor="middle" x="167" y="-145" font-family="Helvetica,sans-Serif" font-size="10.00">+atomicSigUsr1_</text>
</g>
</g>
</svg>
