<?xml version="1.0" encoding="UTF-8" standalone="no"?>
<!DOCTYPE svg PUBLIC "-//W3C//DTD SVG 1.1//EN"
 "http://www.w3.org/Graphics/SVG/1.1/DTD/svg11.dtd">
<!-- Generated by graphviz version 2.48.0 (20210717.1556)
 -->
<!-- Title: Gpio::init Pages: 1 -->
<svg width="212pt" height="142pt"
 viewBox="0.00 0.00 212.00 142.00" xmlns="http://www.w3.org/2000/svg" xmlns:xlink="http://www.w3.org/1999/xlink">
<g id="graph0" class="graph" transform="scale(1 1) rotate(0) translate(4 138)">
<title>Gpio::init</title>
<!-- Node1 -->
<g id="node1" class="node">
<title>Node1</title>
<g id="a_node1"><a xlink:title=" ">
<polygon fill="#bfbfbf" stroke="black" points="148,-57.5 148,-76.5 204,-76.5 204,-57.5 148,-57.5"/>
<text text-anchor="middle" x="176" y="-64.5" font-family="Helvetica,sans-Serif" font-size="10.00">Gpio::init</text>
</a>
</g>
</g>
<!-- Node2 -->
<g id="node2" class="node">
<title>Node2</title>
<g id="a_node2"><a xlink:href="class_air_flow_actuator.html#a6b2bc0b994e494e9419eb8782e910a38" target="_top" xlink:title=" ">
<polygon fill="none" stroke="black" points="3.5,-114.5 3.5,-133.5 108.5,-133.5 108.5,-114.5 3.5,-114.5"/>
<text text-anchor="middle" x="56" y="-121.5" font-family="Helvetica,sans-Serif" font-size="10.00">AirFlowActuator::init</text>
</a>
</g>
</g>
<!-- Node1&#45;&gt;Node2 -->
<g id="edge1" class="edge">
<title>Node1&#45;&gt;Node2</title>
<path fill="none" stroke="midnightblue" d="M152.29,-82.29C140.58,-89.76 125.88,-98.51 112,-105 104.5,-108.51 96.16,-111.72 88.29,-114.47"/>
<polygon fill="midnightblue" stroke="midnightblue" points="154.49,-85.03 160.96,-76.64 150.67,-79.17 154.49,-85.03"/>
</g>
<!-- Node3 -->
<g id="node3" class="node">
<title>Node3</title>
<g id="a_node3"><a xlink:href="class_dehumid_actuator.html#ac1a6e7d3ac470e387d52f6661416de80" target="_top" xlink:title=" ">
<polygon fill="none" stroke="black" points="0,-76.5 0,-95.5 112,-95.5 112,-76.5 0,-76.5"/>
<text text-anchor="middle" x="56" y="-83.5" font-family="Helvetica,sans-Serif" font-size="10.00">DehumidActuator::init</text>
</a>
</g>
</g>
<!-- Node1&#45;&gt;Node3 -->
<g id="edge2" class="edge">
<title>Node1&#45;&gt;Node3</title>
<path fill="none" stroke="midnightblue" d="M138.01,-72.96C129.86,-74.27 121.05,-75.69 112.35,-77.09"/>
<polygon fill="midnightblue" stroke="midnightblue" points="138.61,-76.4 147.93,-71.36 137.5,-69.49 138.61,-76.4"/>
</g>
<!-- Node4 -->
<g id="node4" class="node">
<title>Node4</title>
<g id="a_node4"><a xlink:href="class_heat_actuator.html#a3763844e43abebfe0f0812dd39fdc8e8" target="_top" xlink:title=" ">
<polygon fill="none" stroke="black" points="9.5,-38.5 9.5,-57.5 102.5,-57.5 102.5,-38.5 9.5,-38.5"/>
<text text-anchor="middle" x="56" y="-45.5" font-family="Helvetica,sans-Serif" font-size="10.00">HeatActuator::init</text>
</a>
</g>
</g>
<!-- Node1&#45;&gt;Node4 -->
<g id="edge3" class="edge">
<title>Node1&#45;&gt;Node4</title>
<path fill="none" stroke="midnightblue" d="M137.75,-61C126.7,-59.22 114.45,-57.25 102.91,-55.39"/>
<polygon fill="midnightblue" stroke="midnightblue" points="137.5,-64.51 147.93,-62.64 138.61,-57.6 137.5,-64.51"/>
</g>
<!-- Node5 -->
<g id="node5" class="node">
<title>Node5</title>
<g id="a_node5"><a xlink:href="class_roller_actuator.html#aa542794216c9ccbc027da1dddc858ce9" target="_top" xlink:title=" ">
<polygon fill="none" stroke="black" points="7,-0.5 7,-19.5 105,-19.5 105,-0.5 7,-0.5"/>
<text text-anchor="middle" x="56" y="-7.5" font-family="Helvetica,sans-Serif" font-size="10.00">RollerActuator::init</text>
</a>
</g>
</g>
<!-- Node1&#45;&gt;Node5 -->
<g id="edge4" class="edge">
<title>Node1&#45;&gt;Node5</title>
<path fill="none" stroke="midnightblue" d="M152.29,-51.71C140.58,-44.24 125.88,-35.49 112,-29 104.5,-25.49 96.16,-22.28 88.29,-19.53"/>
<polygon fill="midnightblue" stroke="midnightblue" points="150.67,-54.83 160.96,-57.36 154.49,-48.97 150.67,-54.83"/>
</g>
</g>
</svg>
