<?xml version="1.0" encoding="UTF-8" standalone="no"?>
<!DOCTYPE svg PUBLIC "-//W3C//DTD SVG 1.1//EN"
 "http://www.w3.org/Graphics/SVG/1.1/DTD/svg11.dtd">
<!-- Generated by graphviz version 2.48.0 (20210717.1556)
 -->
<!-- Title: AirFlowActuator::init Pages: 1 -->
<svg width="251pt" height="78pt"
 viewBox="0.00 0.00 251.00 77.50" xmlns="http://www.w3.org/2000/svg" xmlns:xlink="http://www.w3.org/1999/xlink">
<g id="graph0" class="graph" transform="scale(1 1) rotate(0) translate(4 73.5)">
<title>AirFlowActuator::init</title>
<!-- Node1 -->
<g id="node1" class="node">
<title>Node1</title>
<g id="a_node1"><a xlink:title=" ">
<polygon fill="#bfbfbf" stroke="black" points="0,-22.5 0,-41.5 105,-41.5 105,-22.5 0,-22.5"/>
<text text-anchor="middle" x="52.5" y="-29.5" font-family="Helvetica,sans-Serif" font-size="10.00">AirFlowActuator::init</text>
</a>
</g>
</g>
<!-- Node2 -->
<g id="node2" class="node">
<title>Node2</title>
<g id="a_node2"><a xlink:href="class_singleton.html#a8ec70839501fe76ec61195233d8fdb62" target="_top" xlink:title=" ">
<polygon fill="none" stroke="black" points="141,-39 141,-69 243,-69 243,-39 141,-39"/>
<text text-anchor="start" x="149" y="-57" font-family="Helvetica,sans-Serif" font-size="10.00">Singleton&lt; Gpio &gt;::</text>
<text text-anchor="middle" x="192" y="-46" font-family="Helvetica,sans-Serif" font-size="10.00">getInstance</text>
</a>
</g>
</g>
<!-- Node1&#45;&gt;Node2 -->
<g id="edge1" class="edge">
<title>Node1&#45;&gt;Node2</title>
<path fill="none" stroke="midnightblue" d="M105.09,-40.25C113.53,-41.6 122.33,-43.01 130.95,-44.39"/>
<polygon fill="midnightblue" stroke="midnightblue" points="130.52,-47.87 140.94,-45.99 131.62,-40.96 130.52,-47.87"/>
</g>
<!-- Node3 -->
<g id="node3" class="node">
<title>Node3</title>
<g id="a_node3"><a xlink:href="class_gpio.html#ad5006f04eb912df7556ee05a7045d7e2" target="_top" xlink:title=" ">
<polygon fill="none" stroke="black" points="164,-0.5 164,-19.5 220,-19.5 220,-0.5 164,-0.5"/>
<text text-anchor="middle" x="192" y="-7.5" font-family="Helvetica,sans-Serif" font-size="10.00">Gpio::init</text>
</a>
</g>
</g>
<!-- Node1&#45;&gt;Node3 -->
<g id="edge2" class="edge">
<title>Node1&#45;&gt;Node3</title>
<path fill="none" stroke="midnightblue" d="M105.09,-23.75C121.31,-21.15 138.9,-18.34 153.9,-15.94"/>
<polygon fill="midnightblue" stroke="midnightblue" points="154.51,-19.38 163.84,-14.35 153.41,-12.47 154.51,-19.38"/>
</g>
</g>
</svg>
