<?xml version="1.0" encoding="UTF-8" standalone="no"?>
<!DOCTYPE svg PUBLIC "-//W3C//DTD SVG 1.1//EN"
 "http://www.w3.org/Graphics/SVG/1.1/DTD/svg11.dtd">
<!-- Generated by graphviz version 2.50.0 (20211204.2007)
 -->
<!-- Title: Singleton&lt; T &gt; Pages: 1 -->
<svg width="509pt" height="574pt"
 viewBox="0.00 0.00 508.50 574.00" xmlns="http://www.w3.org/2000/svg" xmlns:xlink="http://www.w3.org/1999/xlink">
<g id="graph0" class="graph" transform="scale(1 1) rotate(0) translate(4 570)">
<title>Singleton&lt; T &gt;</title>
<!-- Node1 -->
<g id="node1" class="node">
<title>Node1</title>
<g id="a_node1"><a xlink:title=" ">
<polygon fill="#bfbfbf" stroke="black" points="174,-475.5 174,-565.5 257,-565.5 257,-475.5 174,-475.5"/>
<text text-anchor="middle" x="215.5" y="-553.5" font-family="Helvetica,sans-Serif" font-size="10.00">Singleton&lt; T &gt;</text>
<polyline fill="none" stroke="black" points="174,-546.5 257,-546.5 "/>
<text text-anchor="middle" x="215.5" y="-534.5" font-family="Helvetica,sans-Serif" font-size="10.00"> </text>
<polyline fill="none" stroke="black" points="174,-527.5 257,-527.5 "/>
<text text-anchor="start" x="182" y="-515.5" font-family="Helvetica,sans-Serif" font-size="10.00">+ getInstance()</text>
<text text-anchor="start" x="182" y="-504.5" font-family="Helvetica,sans-Serif" font-size="10.00"># Singleton()</text>
<text text-anchor="start" x="182" y="-493.5" font-family="Helvetica,sans-Serif" font-size="10.00">&#45; Singleton()</text>
<text text-anchor="start" x="182" y="-482.5" font-family="Helvetica,sans-Serif" font-size="10.00">&#45; operator=()</text>
</a>
</g>
</g>
<!-- Node2 -->
<g id="node2" class="node">
<title>Node2</title>
<g id="a_node2"><a xlink:href="class_singleton.html" target="_top" xlink:title=" ">
<polygon fill="none" stroke="black" points="10.5,-337.5 10.5,-427.5 102.5,-427.5 102.5,-337.5 10.5,-337.5"/>
<text text-anchor="middle" x="56.5" y="-415.5" font-family="Helvetica,sans-Serif" font-size="10.00">Singleton&lt; Env &gt;</text>
<polyline fill="none" stroke="black" points="10.5,-408.5 102.5,-408.5 "/>
<text text-anchor="middle" x="56.5" y="-396.5" font-family="Helvetica,sans-Serif" font-size="10.00"> </text>
<polyline fill="none" stroke="black" points="10.5,-389.5 102.5,-389.5 "/>
<text text-anchor="start" x="18.5" y="-377.5" font-family="Helvetica,sans-Serif" font-size="10.00">+ getInstance()</text>
<text text-anchor="start" x="18.5" y="-366.5" font-family="Helvetica,sans-Serif" font-size="10.00"># Singleton()</text>
<text text-anchor="start" x="18.5" y="-355.5" font-family="Helvetica,sans-Serif" font-size="10.00">&#45; Singleton()</text>
<text text-anchor="start" x="18.5" y="-344.5" font-family="Helvetica,sans-Serif" font-size="10.00">&#45; operator=()</text>
</a>
</g>
</g>
<!-- Node1&#45;&gt;Node2 -->
<g id="edge1" class="edge">
<title>Node1&#45;&gt;Node2</title>
<path fill="none" stroke="orange" d="M165.87,-477.05C145.71,-459.81 122.55,-440 102.75,-423.06"/>
<polygon fill="orange" stroke="orange" points="163.85,-479.93 173.72,-483.77 168.4,-474.61 163.85,-479.93"/>
<text text-anchor="middle" x="161" y="-449" font-family="Helvetica,sans-Serif" font-size="10.00"> &lt; Env &gt;</text>
</g>
<!-- Node4 -->
<g id="node4" class="node">
<title>Node4</title>
<g id="a_node4"><a xlink:href="class_singleton.html" target="_top" xlink:title=" ">
<polygon fill="none" stroke="black" points="121,-337.5 121,-427.5 216,-427.5 216,-337.5 121,-337.5"/>
<text text-anchor="middle" x="168.5" y="-415.5" font-family="Helvetica,sans-Serif" font-size="10.00">Singleton&lt; Gpio &gt;</text>
<polyline fill="none" stroke="black" points="121,-408.5 216,-408.5 "/>
<text text-anchor="middle" x="168.5" y="-396.5" font-family="Helvetica,sans-Serif" font-size="10.00"> </text>
<polyline fill="none" stroke="black" points="121,-389.5 216,-389.5 "/>
<text text-anchor="start" x="129" y="-377.5" font-family="Helvetica,sans-Serif" font-size="10.00">+ getInstance()</text>
<text text-anchor="start" x="129" y="-366.5" font-family="Helvetica,sans-Serif" font-size="10.00"># Singleton()</text>
<text text-anchor="start" x="129" y="-355.5" font-family="Helvetica,sans-Serif" font-size="10.00">&#45; Singleton()</text>
<text text-anchor="start" x="129" y="-344.5" font-family="Helvetica,sans-Serif" font-size="10.00">&#45; operator=()</text>
</a>
</g>
</g>
<!-- Node1&#45;&gt;Node4 -->
<g id="edge3" class="edge">
<title>Node1&#45;&gt;Node4</title>
<path fill="none" stroke="orange" d="M196.97,-465.89C192.62,-453.3 188.04,-440.03 183.84,-427.9"/>
<polygon fill="orange" stroke="orange" points="193.67,-467.04 200.24,-475.34 200.28,-464.75 193.67,-467.04"/>
<text text-anchor="middle" x="214.5" y="-449" font-family="Helvetica,sans-Serif" font-size="10.00"> &lt; Gpio &gt;</text>
</g>
<!-- Node6 -->
<g id="node6" class="node">
<title>Node6</title>
<g id="a_node6"><a xlink:href="class_singleton.html" target="_top" xlink:title=" ">
<polygon fill="none" stroke="black" points="234.5,-337.5 234.5,-427.5 350.5,-427.5 350.5,-337.5 234.5,-337.5"/>
<text text-anchor="middle" x="292.5" y="-415.5" font-family="Helvetica,sans-Serif" font-size="10.00">Singleton&lt; Incubator &gt;</text>
<polyline fill="none" stroke="black" points="234.5,-408.5 350.5,-408.5 "/>
<text text-anchor="middle" x="292.5" y="-396.5" font-family="Helvetica,sans-Serif" font-size="10.00"> </text>
<polyline fill="none" stroke="black" points="234.5,-389.5 350.5,-389.5 "/>
<text text-anchor="start" x="242.5" y="-377.5" font-family="Helvetica,sans-Serif" font-size="10.00">+ getInstance()</text>
<text text-anchor="start" x="242.5" y="-366.5" font-family="Helvetica,sans-Serif" font-size="10.00"># Singleton()</text>
<text text-anchor="start" x="242.5" y="-355.5" font-family="Helvetica,sans-Serif" font-size="10.00">&#45; Singleton()</text>
<text text-anchor="start" x="242.5" y="-344.5" font-family="Helvetica,sans-Serif" font-size="10.00">&#45; operator=()</text>
</a>
</g>
</g>
<!-- Node1&#45;&gt;Node6 -->
<g id="edge5" class="edge">
<title>Node1&#45;&gt;Node6</title>
<path fill="none" stroke="orange" d="M245.44,-466.63C252.68,-453.82 260.36,-440.27 267.36,-427.9"/>
<polygon fill="orange" stroke="orange" points="242.38,-464.92 240.5,-475.34 248.47,-468.37 242.38,-464.92"/>
<text text-anchor="middle" x="287.5" y="-449" font-family="Helvetica,sans-Serif" font-size="10.00"> &lt; Incubator &gt;</text>
</g>
<!-- Node8 -->
<g id="node8" class="node">
<title>Node8</title>
<g id="a_node8"><a xlink:href="class_singleton.html" target="_top" xlink:title=" ">
<polygon fill="none" stroke="black" points="368.5,-337.5 368.5,-427.5 500.5,-427.5 500.5,-337.5 368.5,-337.5"/>
<text text-anchor="middle" x="434.5" y="-415.5" font-family="Helvetica,sans-Serif" font-size="10.00">Singleton&lt; SessionTime &gt;</text>
<polyline fill="none" stroke="black" points="368.5,-408.5 500.5,-408.5 "/>
<text text-anchor="middle" x="434.5" y="-396.5" font-family="Helvetica,sans-Serif" font-size="10.00"> </text>
<polyline fill="none" stroke="black" points="368.5,-389.5 500.5,-389.5 "/>
<text text-anchor="start" x="376.5" y="-377.5" font-family="Helvetica,sans-Serif" font-size="10.00">+ getInstance()</text>
<text text-anchor="start" x="376.5" y="-366.5" font-family="Helvetica,sans-Serif" font-size="10.00"># Singleton()</text>
<text text-anchor="start" x="376.5" y="-355.5" font-family="Helvetica,sans-Serif" font-size="10.00">&#45; Singleton()</text>
<text text-anchor="start" x="376.5" y="-344.5" font-family="Helvetica,sans-Serif" font-size="10.00">&#45; operator=()</text>
</a>
</g>
</g>
<!-- Node1&#45;&gt;Node8 -->
<g id="edge7" class="edge">
<title>Node1&#45;&gt;Node8</title>
<path fill="none" stroke="orange" d="M266.33,-490.53C284.21,-480.16 304.36,-468.24 322.5,-457 337.53,-447.69 353.5,-437.43 368.54,-427.6"/>
<polygon fill="orange" stroke="orange" points="264.11,-487.77 257.21,-495.81 267.62,-493.83 264.11,-487.77"/>
<text text-anchor="middle" x="378" y="-449" font-family="Helvetica,sans-Serif" font-size="10.00"> &lt; SessionTime &gt;</text>
</g>
<!-- Node3 -->
<g id="node3" class="node">
<title>Node3</title>
<g id="a_node3"><a xlink:href="class_env.html" target="_top" xlink:title=" ">
<polygon fill="none" stroke="black" points="0,-39 0,-261 113,-261 113,-39 0,-39"/>
<text text-anchor="middle" x="56.5" y="-249" font-family="Helvetica,sans-Serif" font-size="10.00">Env</text>
<polyline fill="none" stroke="black" points="0,-242 113,-242 "/>
<text text-anchor="start" x="8" y="-230" font-family="Helvetica,sans-Serif" font-size="10.00">&#45; _text</text>
<text text-anchor="start" x="8" y="-219" font-family="Helvetica,sans-Serif" font-size="10.00">&#45; _config</text>
<text text-anchor="start" x="8" y="-208" font-family="Helvetica,sans-Serif" font-size="10.00">&#45; _formulas</text>
<polyline fill="none" stroke="black" points="0,-201 113,-201 "/>
<text text-anchor="start" x="8" y="-189" font-family="Helvetica,sans-Serif" font-size="10.00">+ Env()</text>
<text text-anchor="start" x="8" y="-178" font-family="Helvetica,sans-Serif" font-size="10.00">+ ~Env()</text>
<text text-anchor="start" x="8" y="-167" font-family="Helvetica,sans-Serif" font-size="10.00">+ setUp()</text>
<text text-anchor="start" x="8" y="-156" font-family="Helvetica,sans-Serif" font-size="10.00">+ getConfig()</text>
<text text-anchor="start" x="8" y="-145" font-family="Helvetica,sans-Serif" font-size="10.00">+ setConfig()</text>
<text text-anchor="start" x="8" y="-134" font-family="Helvetica,sans-Serif" font-size="10.00">+ getFormula()</text>
<text text-anchor="start" x="8" y="-123" font-family="Helvetica,sans-Serif" font-size="10.00">+ getMaxDay()</text>
<text text-anchor="start" x="8" y="-112" font-family="Helvetica,sans-Serif" font-size="10.00">&#45; _readConfig()</text>
<text text-anchor="start" x="8" y="-101" font-family="Helvetica,sans-Serif" font-size="10.00">&#45; _readFromCfgFile()</text>
<text text-anchor="start" x="8" y="-90" font-family="Helvetica,sans-Serif" font-size="10.00">&#45; _str2Obj()</text>
<text text-anchor="start" x="8" y="-79" font-family="Helvetica,sans-Serif" font-size="10.00">&#45; _objByPhaseName()</text>
<text text-anchor="start" x="8" y="-68" font-family="Helvetica,sans-Serif" font-size="10.00">&#45; _obj2Phase()</text>
<text text-anchor="start" x="8" y="-57" font-family="Helvetica,sans-Serif" font-size="10.00">&#45; _obj2Config()</text>
<text text-anchor="start" x="8" y="-46" font-family="Helvetica,sans-Serif" font-size="10.00">&#45; _cfg2Formulas()</text>
</a>
</g>
</g>
<!-- Node2&#45;&gt;Node3 -->
<g id="edge2" class="edge">
<title>Node2&#45;&gt;Node3</title>
<path fill="none" stroke="midnightblue" d="M56.5,-327.26C56.5,-307.37 56.5,-284.07 56.5,-261.06"/>
<polygon fill="none" stroke="midnightblue" points="53,-327.33 56.5,-337.33 60,-327.33 53,-327.33"/>
</g>
<!-- Node5 -->
<g id="node5" class="node">
<title>Node5</title>
<g id="a_node5"><a xlink:href="class_gpio.html" target="_top" xlink:title=" ">
<polygon fill="none" stroke="black" points="134.5,-105 134.5,-195 202.5,-195 202.5,-105 134.5,-105"/>
<text text-anchor="middle" x="168.5" y="-183" font-family="Helvetica,sans-Serif" font-size="10.00">Gpio</text>
<polyline fill="none" stroke="black" points="134.5,-176 202.5,-176 "/>
<text text-anchor="start" x="142.5" y="-164" font-family="Helvetica,sans-Serif" font-size="10.00">&#45; _initialized</text>
<polyline fill="none" stroke="black" points="134.5,-157 202.5,-157 "/>
<text text-anchor="start" x="142.5" y="-145" font-family="Helvetica,sans-Serif" font-size="10.00">+ Gpio()</text>
<text text-anchor="start" x="142.5" y="-134" font-family="Helvetica,sans-Serif" font-size="10.00">+ ~Gpio()</text>
<text text-anchor="start" x="142.5" y="-123" font-family="Helvetica,sans-Serif" font-size="10.00">+ init()</text>
<text text-anchor="start" x="142.5" y="-112" font-family="Helvetica,sans-Serif" font-size="10.00">+ deinit()</text>
</a>
</g>
</g>
<!-- Node4&#45;&gt;Node5 -->
<g id="edge4" class="edge">
<title>Node4&#45;&gt;Node5</title>
<path fill="none" stroke="midnightblue" d="M168.5,-327.14C168.5,-286.85 168.5,-232.62 168.5,-195.02"/>
<polygon fill="none" stroke="midnightblue" points="165,-327.33 168.5,-337.33 172,-327.33 165,-327.33"/>
</g>
<!-- Node7 -->
<g id="node7" class="node">
<title>Node7</title>
<g id="a_node7"><a xlink:href="class_incubator.html" target="_top" xlink:title=" ">
<polygon fill="none" stroke="black" points="236.5,-0.5 236.5,-299.5 348.5,-299.5 348.5,-0.5 236.5,-0.5"/>
<text text-anchor="middle" x="292.5" y="-287.5" font-family="Helvetica,sans-Serif" font-size="10.00">Incubator</text>
<polyline fill="none" stroke="black" points="236.5,-280.5 348.5,-280.5 "/>
<text text-anchor="start" x="244.5" y="-268.5" font-family="Helvetica,sans-Serif" font-size="10.00">&#45; _initialized</text>
<text text-anchor="start" x="244.5" y="-257.5" font-family="Helvetica,sans-Serif" font-size="10.00">&#45; _runCount</text>
<text text-anchor="start" x="244.5" y="-246.5" font-family="Helvetica,sans-Serif" font-size="10.00">&#45; _pSig</text>
<text text-anchor="start" x="244.5" y="-235.5" font-family="Helvetica,sans-Serif" font-size="10.00">&#45; _pEnv</text>
<text text-anchor="start" x="244.5" y="-224.5" font-family="Helvetica,sans-Serif" font-size="10.00">&#45; _pSTime</text>
<text text-anchor="start" x="244.5" y="-213.5" font-family="Helvetica,sans-Serif" font-size="10.00">&#45; _pDC</text>
<text text-anchor="start" x="244.5" y="-202.5" font-family="Helvetica,sans-Serif" font-size="10.00">&#45; _pTempSensor</text>
<text text-anchor="start" x="244.5" y="-191.5" font-family="Helvetica,sans-Serif" font-size="10.00">&#45; _pHumidSensor</text>
<text text-anchor="start" x="244.5" y="-180.5" font-family="Helvetica,sans-Serif" font-size="10.00">&#45; _pAirFlowActuator</text>
<text text-anchor="start" x="244.5" y="-169.5" font-family="Helvetica,sans-Serif" font-size="10.00">&#45; _pDehumidActuator</text>
<text text-anchor="start" x="244.5" y="-158.5" font-family="Helvetica,sans-Serif" font-size="10.00">&#45; _pHeatActuator</text>
<text text-anchor="start" x="244.5" y="-147.5" font-family="Helvetica,sans-Serif" font-size="10.00">&#45; _pHeatFlowActuator</text>
<text text-anchor="start" x="244.5" y="-136.5" font-family="Helvetica,sans-Serif" font-size="10.00">&#45; _pRollerActuator</text>
<text text-anchor="start" x="244.5" y="-125.5" font-family="Helvetica,sans-Serif" font-size="10.00">&#45; _pHumidActuator</text>
<text text-anchor="start" x="244.5" y="-114.5" font-family="Helvetica,sans-Serif" font-size="10.00">&#45; _pTempAlgo</text>
<polyline fill="none" stroke="black" points="236.5,-107.5 348.5,-107.5 "/>
<text text-anchor="start" x="244.5" y="-95.5" font-family="Helvetica,sans-Serif" font-size="10.00">+ Incubator()</text>
<text text-anchor="start" x="244.5" y="-84.5" font-family="Helvetica,sans-Serif" font-size="10.00">+ ~Incubator()</text>
<text text-anchor="start" x="244.5" y="-73.5" font-family="Helvetica,sans-Serif" font-size="10.00">+ init()</text>
<text text-anchor="start" x="244.5" y="-62.5" font-family="Helvetica,sans-Serif" font-size="10.00">+ deinit()</text>
<text text-anchor="start" x="244.5" y="-51.5" font-family="Helvetica,sans-Serif" font-size="10.00">+ runLoop()</text>
<text text-anchor="start" x="244.5" y="-40.5" font-family="Helvetica,sans-Serif" font-size="10.00">+ newSession()</text>
<text text-anchor="start" x="244.5" y="-29.5" font-family="Helvetica,sans-Serif" font-size="10.00">+ updatePanel()</text>
<text text-anchor="start" x="244.5" y="-18.5" font-family="Helvetica,sans-Serif" font-size="10.00">&#45; _run()</text>
<text text-anchor="start" x="244.5" y="-7.5" font-family="Helvetica,sans-Serif" font-size="10.00">&#45; _run4Roller()</text>
</a>
</g>
</g>
<!-- Node6&#45;&gt;Node7 -->
<g id="edge6" class="edge">
<title>Node6&#45;&gt;Node7</title>
<path fill="none" stroke="midnightblue" d="M292.5,-327.11C292.5,-318.45 292.5,-309.15 292.5,-299.51"/>
<polygon fill="none" stroke="midnightblue" points="289,-327.33 292.5,-337.33 296,-327.33 289,-327.33"/>
</g>
<!-- Node9 -->
<g id="node9" class="node">
<title>Node9</title>
<g id="a_node9"><a xlink:href="class_session_time.html" target="_top" xlink:title=" ">
<polygon fill="none" stroke="black" points="387,-61 387,-239 482,-239 482,-61 387,-61"/>
<text text-anchor="middle" x="434.5" y="-227" font-family="Helvetica,sans-Serif" font-size="10.00">SessionTime</text>
<polyline fill="none" stroke="black" points="387,-220 482,-220 "/>
<text text-anchor="start" x="395" y="-208" font-family="Helvetica,sans-Serif" font-size="10.00">&#45; _initialized</text>
<text text-anchor="start" x="395" y="-197" font-family="Helvetica,sans-Serif" font-size="10.00">&#45; _start</text>
<polyline fill="none" stroke="black" points="387,-190 482,-190 "/>
<text text-anchor="start" x="395" y="-178" font-family="Helvetica,sans-Serif" font-size="10.00">+ SessionTime()</text>
<text text-anchor="start" x="395" y="-167" font-family="Helvetica,sans-Serif" font-size="10.00">+ ~SessionTime()</text>
<text text-anchor="start" x="395" y="-156" font-family="Helvetica,sans-Serif" font-size="10.00">+ init()</text>
<text text-anchor="start" x="395" y="-145" font-family="Helvetica,sans-Serif" font-size="10.00">+ deinit()</text>
<text text-anchor="start" x="395" y="-134" font-family="Helvetica,sans-Serif" font-size="10.00">+ getStart()</text>
<text text-anchor="start" x="395" y="-123" font-family="Helvetica,sans-Serif" font-size="10.00">+ setStart()</text>
<text text-anchor="start" x="395" y="-112" font-family="Helvetica,sans-Serif" font-size="10.00">+ getCurrent()</text>
<text text-anchor="start" x="395" y="-101" font-family="Helvetica,sans-Serif" font-size="10.00">+ getElapsed()</text>
<text text-anchor="start" x="395" y="-90" font-family="Helvetica,sans-Serif" font-size="10.00">+ daysPassed()</text>
<text text-anchor="start" x="395" y="-79" font-family="Helvetica,sans-Serif" font-size="10.00">&#45; _fileExist()</text>
<text text-anchor="start" x="395" y="-68" font-family="Helvetica,sans-Serif" font-size="10.00">&#45; _createFile()</text>
</a>
</g>
</g>
<!-- Node8&#45;&gt;Node9 -->
<g id="edge8" class="edge">
<title>Node8&#45;&gt;Node9</title>
<path fill="none" stroke="midnightblue" d="M434.5,-327.24C434.5,-301.06 434.5,-268.98 434.5,-239.4"/>
<polygon fill="none" stroke="midnightblue" points="431,-327.33 434.5,-337.33 438,-327.33 431,-327.33"/>
</g>
</g>
</svg>
