<?xml version="1.0" encoding="UTF-8" standalone="no"?>
<!DOCTYPE svg PUBLIC "-//W3C//DTD SVG 1.1//EN"
 "http://www.w3.org/Graphics/SVG/1.1/DTD/svg11.dtd">
<!-- Generated by graphviz version 2.50.0 (20211204.2007)
 -->
<!-- Title: SessionTime::init Pages: 1 -->
<svg width="264pt" height="104pt"
 viewBox="0.00 0.00 264.00 104.00" xmlns="http://www.w3.org/2000/svg" xmlns:xlink="http://www.w3.org/1999/xlink">
<g id="graph0" class="graph" transform="scale(1 1) rotate(0) translate(4 100)">
<title>SessionTime::init</title>
<!-- Node1 -->
<g id="node1" class="node">
<title>Node1</title>
<g id="a_node1"><a xlink:title=" ">
<polygon fill="#bfbfbf" stroke="black" points="0,-38.5 0,-57.5 92,-57.5 92,-38.5 0,-38.5"/>
<text text-anchor="middle" x="46" y="-45.5" font-family="Helvetica,sans-Serif" font-size="10.00">SessionTime::init</text>
</a>
</g>
</g>
<!-- Node2 -->
<g id="node2" class="node">
<title>Node2</title>
<g id="a_node2"><a xlink:href="class_session_time.html#ad3b544332a5c1c7602fe6f195477c46d" target="_top" xlink:title=" ">
<polygon fill="none" stroke="black" points="128,-76.5 128,-95.5 256,-95.5 256,-76.5 128,-76.5"/>
<text text-anchor="middle" x="192" y="-83.5" font-family="Helvetica,sans-Serif" font-size="10.00">SessionTime::_createFile</text>
</a>
</g>
</g>
<!-- Node1&#45;&gt;Node2 -->
<g id="edge1" class="edge">
<title>Node1&#45;&gt;Node2</title>
<path fill="none" stroke="midnightblue" d="M83.34,-57.59C102.08,-62.54 125.14,-68.62 145.11,-73.89"/>
<polygon fill="midnightblue" stroke="midnightblue" points="144.36,-77.31 154.92,-76.48 146.15,-70.54 144.36,-77.31"/>
</g>
<!-- Node3 -->
<g id="node3" class="node">
<title>Node3</title>
<g id="a_node3"><a xlink:href="class_session_time.html#a091c923f5e31dc4e5a2d8f283d750559" target="_top" xlink:title=" ">
<polygon fill="none" stroke="black" points="132,-38.5 132,-57.5 252,-57.5 252,-38.5 132,-38.5"/>
<text text-anchor="middle" x="192" y="-45.5" font-family="Helvetica,sans-Serif" font-size="10.00">SessionTime::_fileExist</text>
</a>
</g>
</g>
<!-- Node1&#45;&gt;Node3 -->
<g id="edge2" class="edge">
<title>Node1&#45;&gt;Node3</title>
<path fill="none" stroke="midnightblue" d="M92.17,-48C101.63,-48 111.82,-48 121.93,-48"/>
<polygon fill="midnightblue" stroke="midnightblue" points="121.98,-51.5 131.98,-48 121.98,-44.5 121.98,-51.5"/>
</g>
<!-- Node4 -->
<g id="node4" class="node">
<title>Node4</title>
<g id="a_node4"><a xlink:href="_session_time_8cpp.html#abca31e57bfd5e5177ae07212663211be" target="_top" xlink:title=" ">
<polygon fill="none" stroke="black" points="144.5,-0.5 144.5,-19.5 239.5,-19.5 239.5,-0.5 144.5,-0.5"/>
<text text-anchor="middle" x="192" y="-7.5" font-family="Helvetica,sans-Serif" font-size="10.00">sBeginTimeName</text>
</a>
</g>
</g>
<!-- Node1&#45;&gt;Node4 -->
<g id="edge3" class="edge">
<title>Node1&#45;&gt;Node4</title>
<path fill="none" stroke="midnightblue" d="M83.34,-38.41C102.08,-33.46 125.14,-27.38 145.11,-22.11"/>
<polygon fill="midnightblue" stroke="midnightblue" points="146.15,-25.46 154.92,-19.52 144.36,-18.69 146.15,-25.46"/>
</g>
</g>
</svg>
