<?xml version="1.0" encoding="UTF-8" standalone="no"?>
<!DOCTYPE svg PUBLIC "-//W3C//DTD SVG 1.1//EN"
 "http://www.w3.org/Graphics/SVG/1.1/DTD/svg11.dtd">
<!-- Generated by graphviz version 2.48.0 (20210717.1556)
 -->
<!-- Title: DehumidActuator Pages: 1 -->
<svg width="223pt" height="325pt"
 viewBox="0.00 0.00 223.00 325.00" xmlns="http://www.w3.org/2000/svg" xmlns:xlink="http://www.w3.org/1999/xlink">
<g id="graph0" class="graph" transform="scale(1 1) rotate(0) translate(4 321)">
<title>DehumidActuator</title>
<!-- Node1 -->
<g id="node1" class="node">
<title>Node1</title>
<g id="a_node1"><a xlink:title=" ">
<polygon fill="#bfbfbf" stroke="black" points="53,-0.5 53,-145.5 168,-145.5 168,-0.5 53,-0.5"/>
<text text-anchor="middle" x="110.5" y="-133.5" font-family="Helvetica,sans-Serif" font-size="10.00">DehumidActuator</text>
<polyline fill="none" stroke="black" points="53,-126.5 168,-126.5 "/>
<text text-anchor="middle" x="110.5" y="-114.5" font-family="Helvetica,sans-Serif" font-size="10.00"> </text>
<polyline fill="none" stroke="black" points="53,-107.5 168,-107.5 "/>
<text text-anchor="start" x="61" y="-95.5" font-family="Helvetica,sans-Serif" font-size="10.00">+ DehumidActuator()</text>
<text text-anchor="start" x="61" y="-84.5" font-family="Helvetica,sans-Serif" font-size="10.00">+ ~DehumidActuator()</text>
<text text-anchor="start" x="61" y="-73.5" font-family="Helvetica,sans-Serif" font-size="10.00">+ init()</text>
<text text-anchor="start" x="61" y="-62.5" font-family="Helvetica,sans-Serif" font-size="10.00">+ deinit()</text>
<text text-anchor="start" x="61" y="-51.5" font-family="Helvetica,sans-Serif" font-size="10.00">+ on()</text>
<text text-anchor="start" x="61" y="-40.5" font-family="Helvetica,sans-Serif" font-size="10.00">+ off()</text>
<text text-anchor="start" x="61" y="-29.5" font-family="Helvetica,sans-Serif" font-size="10.00">+ start()</text>
<text text-anchor="start" x="61" y="-18.5" font-family="Helvetica,sans-Serif" font-size="10.00">+ stop()</text>
<text text-anchor="start" x="61" y="-7.5" font-family="Helvetica,sans-Serif" font-size="10.00">+ get()</text>
</a>
</g>
</g>
<!-- Node2 -->
<g id="node2" class="node">
<title>Node2</title>
<g id="a_node2"><a xlink:href="struct_actuator.html" target="_top" xlink:title=" ">
<polygon fill="none" stroke="black" points="0,-193.5 0,-316.5 75,-316.5 75,-193.5 0,-193.5"/>
<text text-anchor="middle" x="37.5" y="-304.5" font-family="Helvetica,sans-Serif" font-size="10.00">Actuator</text>
<polyline fill="none" stroke="black" points="0,-297.5 75,-297.5 "/>
<text text-anchor="middle" x="37.5" y="-285.5" font-family="Helvetica,sans-Serif" font-size="10.00"> </text>
<polyline fill="none" stroke="black" points="0,-278.5 75,-278.5 "/>
<text text-anchor="start" x="8" y="-266.5" font-family="Helvetica,sans-Serif" font-size="10.00">+ ~Actuator()</text>
<text text-anchor="start" x="8" y="-255.5" font-family="Helvetica,sans-Serif" font-size="10.00">+ init()</text>
<text text-anchor="start" x="8" y="-244.5" font-family="Helvetica,sans-Serif" font-size="10.00">+ deinit()</text>
<text text-anchor="start" x="8" y="-233.5" font-family="Helvetica,sans-Serif" font-size="10.00">+ on()</text>
<text text-anchor="start" x="8" y="-222.5" font-family="Helvetica,sans-Serif" font-size="10.00">+ off()</text>
<text text-anchor="start" x="8" y="-211.5" font-family="Helvetica,sans-Serif" font-size="10.00">+ start()</text>
<text text-anchor="start" x="8" y="-200.5" font-family="Helvetica,sans-Serif" font-size="10.00">+ stop()</text>
</a>
</g>
</g>
<!-- Node2&#45;&gt;Node1 -->
<g id="edge1" class="edge">
<title>Node2&#45;&gt;Node1</title>
<path fill="none" stroke="midnightblue" d="M65.95,-183.84C71.04,-171.3 76.35,-158.21 81.45,-145.63"/>
<polygon fill="none" stroke="midnightblue" points="62.63,-182.73 62.11,-193.31 69.11,-185.36 62.63,-182.73"/>
</g>
<!-- Node3 -->
<g id="node3" class="node">
<title>Node3</title>
<g id="a_node3"><a xlink:title=" ">
<polygon fill="none" stroke="#bfbfbf" points="93,-226.5 93,-283.5 128,-283.5 128,-226.5 93,-226.5"/>
<text text-anchor="middle" x="110.5" y="-271.5" font-family="Helvetica,sans-Serif" font-size="10.00">bool</text>
<polyline fill="none" stroke="#bfbfbf" points="93,-264.5 128,-264.5 "/>
<text text-anchor="middle" x="110.5" y="-252.5" font-family="Helvetica,sans-Serif" font-size="10.00"> </text>
<polyline fill="none" stroke="#bfbfbf" points="93,-245.5 128,-245.5 "/>
<text text-anchor="middle" x="110.5" y="-233.5" font-family="Helvetica,sans-Serif" font-size="10.00"> </text>
</a>
</g>
</g>
<!-- Node3&#45;&gt;Node1 -->
<g id="edge2" class="edge">
<title>Node3&#45;&gt;Node1</title>
<path fill="none" stroke="#404040" d="M110.5,-226.27C110.5,-207.79 110.5,-182.45 110.5,-157.74"/>
<polygon fill="none" stroke="#404040" points="110.5,-157.7 106.5,-151.7 110.5,-145.7 114.5,-151.7 110.5,-157.7"/>
<text text-anchor="middle" x="137" y="-167" font-family="Helvetica,sans-Serif" font-size="10.00"> &#45;_initialized</text>
</g>
<!-- Node4 -->
<g id="node4" class="node">
<title>Node4</title>
<g id="a_node4"><a xlink:title=" ">
<polygon fill="none" stroke="#bfbfbf" points="158,-226.5 158,-283.5 215,-283.5 215,-226.5 158,-226.5"/>
<text text-anchor="middle" x="186.5" y="-271.5" font-family="Helvetica,sans-Serif" font-size="10.00">unsigned</text>
<polyline fill="none" stroke="#bfbfbf" points="158,-264.5 215,-264.5 "/>
<text text-anchor="middle" x="186.5" y="-252.5" font-family="Helvetica,sans-Serif" font-size="10.00"> </text>
<polyline fill="none" stroke="#bfbfbf" points="158,-245.5 215,-245.5 "/>
<text text-anchor="middle" x="186.5" y="-233.5" font-family="Helvetica,sans-Serif" font-size="10.00"> </text>
</a>
</g>
</g>
<!-- Node4&#45;&gt;Node1 -->
<g id="edge3" class="edge">
<title>Node4&#45;&gt;Node1</title>
<path fill="none" stroke="#404040" d="M181.94,-226.15C178.42,-208.01 172.76,-184.08 164.5,-164 163.49,-161.54 162.41,-159.06 161.29,-156.58"/>
<polygon fill="none" stroke="#404040" points="161.27,-156.54 155.06,-152.86 156.07,-145.72 162.27,-149.39 161.27,-156.54"/>
<text text-anchor="middle" x="184" y="-167" font-family="Helvetica,sans-Serif" font-size="10.00"> &#45;_level</text>
</g>
</g>
</svg>
