<?xml version="1.0" encoding="UTF-8" standalone="no"?>
<!DOCTYPE svg PUBLIC "-//W3C//DTD SVG 1.1//EN"
 "http://www.w3.org/Graphics/SVG/1.1/DTD/svg11.dtd">
<!-- Generated by graphviz version 2.50.0 (20211204.2007)
 -->
<!-- Title: Incubator::runLoop Pages: 1 -->
<!--zoomable 636 -->
<svg id="main" version="1.1" xmlns="http://www.w3.org/2000/svg" xmlns:xlink="http://www.w3.org/1999/xlink" xml:space="preserve" onload="init(evt)">
<style type="text/css"><![CDATA[
.edge:hover path { stroke: red; }
.edge:hover polygon { stroke: red; fill: red; }
]]></style>
<script type="text/javascript"><![CDATA[
var edges = document.getElementsByTagName('g');
if (edges && edges.length) {
  for (var i=0;i<edges.length;i++) {
    if (edges[i].id.substr(0,4)=='edge') {
      edges[i].setAttribute('class','edge');
    }
  }
}
]]></script>
        <defs>
                <circle id="rim" cx="0" cy="0" r="7"/>
                <circle id="rim2" cx="0" cy="0" r="3.5"/>
                <g id="zoomPlus">
                        <use xlink:href="#rim" fill="#404040">
                                <set attributeName="fill" to="#808080" begin="zoomplus.mouseover" end="zoomplus.mouseout"/>
                        </use>
                        <path d="M-4,0h8M0,-4v8" fill="none" stroke="white" stroke-width="1.5" pointer-events="none"/>
                </g>
                <g id="zoomMin">
                        <use xlink:href="#rim" fill="#404040">
                                <set attributeName="fill" to="#808080" begin="zoomminus.mouseover" end="zoomminus.mouseout"/>
                        </use>
                        <path d="M-4,0h8" fill="none" stroke="white" stroke-width="1.5" pointer-events="none"/>
                </g>
                <g id="dirArrow">
                        <path fill="none" stroke="white" stroke-width="1.5" d="M0,-3.0v7 M-2.5,-0.5L0,-3.0L2.5,-0.5"/>
                </g>
               <g id="resetDef">
                       <use xlink:href="#rim2" fill="#404040">
                               <set attributeName="fill" to="#808080" begin="reset.mouseover" end="reset.mouseout"/>
                       </use>
               </g>
        </defs>

<script type="text/javascript">
var viewWidth = 757;
var viewHeight = 636;
var sectionId = 'dynsection-11';
</script>
<script xlink:href="svgpan.js"/>
<svg id="graph" class="graph">
<g id="viewport">
<title>Incubator::runLoop</title>
<!-- Node1 -->
<g id="node1" class="node">
<title>Node1</title>
<g id="a_node1"><a xlink:title=" ">
<polygon fill="#bfbfbf" stroke="black" points="0,-257.5 0,-276.5 98,-276.5 98,-257.5 0,-257.5"/>
<text text-anchor="middle" x="49" y="-264.5" font-family="Helvetica,sans-Serif" font-size="10.00">Incubator::runLoop</text>
</a>
</g>
</g>
<!-- Node2 -->
<g id="node2" class="node">
<title>Node2</title>
<g id="a_node2"><a xlink:href="class_incubator.html#aa954de969e24d16c70e7e4e049624991" target="_top" xlink:title=" ">
<polygon fill="none" stroke="black" points="153,-314.5 153,-333.5 235,-333.5 235,-314.5 153,-314.5"/>
<text text-anchor="middle" x="194" y="-321.5" font-family="Helvetica,sans-Serif" font-size="10.00">Incubator::_run</text>
</a>
</g>
</g>
<!-- Node1&#45;&gt;Node2 -->
<g id="edge1" class="edge">
<title>Node1&#45;&gt;Node2</title>
<path fill="none" stroke="midnightblue" d="M73.93,-276.54C97.34,-285.87 133.19,-300.16 159.44,-310.62"/>
<polygon fill="midnightblue" stroke="midnightblue" points="158.4,-313.98 168.99,-314.43 160.99,-307.47 158.4,-313.98"/>
</g>
<!-- Node3 -->
<g id="node3" class="node">
<title>Node3</title>
<g id="a_node3"><a xlink:href="class_session_time.html#a0229c1e2daf2b0a71500a82f71f923d0" target="_top" xlink:title=" ">
<polygon fill="none" stroke="black" points="290,-494.5 290,-513.5 424,-513.5 424,-494.5 290,-494.5"/>
<text text-anchor="middle" x="357" y="-501.5" font-family="Helvetica,sans-Serif" font-size="10.00">SessionTime::daysPassed</text>
</a>
</g>
</g>
<!-- Node1&#45;&gt;Node3 -->
<g id="edge23" class="edge">
<title>Node1&#45;&gt;Node3</title>
<path fill="none" stroke="midnightblue" d="M51.53,-276.56C56.86,-306.63 77.48,-400.09 134,-447 146.91,-457.71 239.12,-479.04 300.57,-492.35"/>
<polygon fill="midnightblue" stroke="midnightblue" points="300.01,-495.81 310.53,-494.5 301.49,-488.97 300.01,-495.81"/>
</g>
<!-- Node4 -->
<g id="node4" class="node">
<title>Node4</title>
<g id="a_node4"><a xlink:href="class_session_time.html#a04a87b947fb9d9c429a3fa9f542e622f" target="_top" xlink:title=" ">
<polygon fill="none" stroke="black" points="460,-494.5 460,-513.5 588,-513.5 588,-494.5 460,-494.5"/>
<text text-anchor="middle" x="524" y="-501.5" font-family="Helvetica,sans-Serif" font-size="10.00">SessionTime::getElapsed</text>
</a>
</g>
</g>
<!-- Node1&#45;&gt;Node4 -->
<g id="edge26" class="edge">
<title>Node1&#45;&gt;Node4</title>
<path fill="none" stroke="midnightblue" d="M50.03,-276.62C50.71,-314.29 58.45,-453.13 134,-523 229.44,-611.26 298.42,-594.57 424,-561 453.77,-553.04 483.88,-533.74 502.94,-519.8"/>
<polygon fill="midnightblue" stroke="midnightblue" points="505.24,-522.46 511.12,-513.65 501.03,-516.86 505.24,-522.46"/>
</g>
<!-- Node7 -->
<g id="node7" class="node">
<title>Node7</title>
<g id="a_node7"><a xlink:href="struct_actuator.html#ace3b7b4b9a9b57cdf4bae6a9d0169e71" target="_top" xlink:title=" ">
<polygon fill="none" stroke="black" points="320.5,-114.5 320.5,-133.5 393.5,-133.5 393.5,-114.5 320.5,-114.5"/>
<text text-anchor="middle" x="357" y="-121.5" font-family="Helvetica,sans-Serif" font-size="10.00">Actuator::get</text>
</a>
</g>
</g>
<!-- Node1&#45;&gt;Node7 -->
<g id="edge25" class="edge">
<title>Node1&#45;&gt;Node7</title>
<path fill="none" stroke="midnightblue" d="M78.01,-276.6C120.65,-289.29 202.32,-305.81 254,-267 299.89,-232.54 249.38,-183.53 290,-143 295.7,-137.32 302.98,-133.31 310.61,-130.49"/>
<polygon fill="midnightblue" stroke="midnightblue" points="311.83,-133.77 320.38,-127.51 309.79,-127.08 311.83,-133.77"/>
</g>
<!-- Node12 -->
<g id="node12" class="node">
<title>Node12</title>
<g id="a_node12"><a xlink:href="struct_actuator.html#a767243ef9f90e7a99175ad466cc02916" target="_top" xlink:title=" ">
<polygon fill="none" stroke="black" points="321.5,-380.5 321.5,-399.5 392.5,-399.5 392.5,-380.5 321.5,-380.5"/>
<text text-anchor="middle" x="357" y="-387.5" font-family="Helvetica,sans-Serif" font-size="10.00">Actuator::off</text>
</a>
</g>
</g>
<!-- Node1&#45;&gt;Node12 -->
<g id="edge34" class="edge">
<title>Node1&#45;&gt;Node12</title>
<path fill="none" stroke="midnightblue" d="M57.66,-276.68C71.2,-293.08 101.07,-326.19 134,-343 190.92,-372.06 264.85,-383.16 311.38,-387.4"/>
<polygon fill="midnightblue" stroke="midnightblue" points="311.18,-390.9 321.44,-388.25 311.77,-383.92 311.18,-390.9"/>
</g>
<!-- Node18 -->
<g id="node18" class="node">
<title>Node18</title>
<g id="a_node18"><a xlink:href="class_incubator.html#a5bcab58e7c87dce17536af174cf6454e" target="_top" xlink:title=" ">
<polygon fill="none" stroke="black" points="137.5,-418.5 137.5,-437.5 250.5,-437.5 250.5,-418.5 137.5,-418.5"/>
<text text-anchor="middle" x="194" y="-425.5" font-family="Helvetica,sans-Serif" font-size="10.00">Incubator::_run4Roller</text>
</a>
</g>
</g>
<!-- Node1&#45;&gt;Node18 -->
<g id="edge18" class="edge">
<title>Node1&#45;&gt;Node18</title>
<path fill="none" stroke="midnightblue" d="M54.39,-276.8C65.13,-299.86 94.71,-358.4 134,-395 141.86,-402.32 151.64,-408.62 160.96,-413.7"/>
<polygon fill="midnightblue" stroke="midnightblue" points="159.54,-416.91 170.04,-418.36 162.74,-410.68 159.54,-416.91"/>
</g>
<!-- Node19 -->
<g id="node19" class="node">
<title>Node19</title>
<g id="a_node19"><a xlink:href="class_session_time.html#a227011e4187472c8f551c24dd103d389" target="_top" xlink:title=" ">
<polygon fill="none" stroke="black" points="142.5,-238.5 142.5,-257.5 245.5,-257.5 245.5,-238.5 142.5,-238.5"/>
<text text-anchor="middle" x="194" y="-245.5" font-family="Helvetica,sans-Serif" font-size="10.00">SessionTime::deinit</text>
</a>
</g>
</g>
<!-- Node1&#45;&gt;Node19 -->
<g id="edge24" class="edge">
<title>Node1&#45;&gt;Node19</title>
<path fill="none" stroke="midnightblue" d="M98.01,-260.62C109.06,-259.15 120.95,-257.57 132.45,-256.05"/>
<polygon fill="midnightblue" stroke="midnightblue" points="132.97,-259.51 142.42,-254.72 132.05,-252.57 132.97,-259.51"/>
</g>
<!-- Node20 -->
<g id="node20" class="node">
<title>Node20</title>
<g id="a_node20"><a xlink:href="class_env.html#a3343f57ca78882bff394c0ccd8fcf03f" target="_top" xlink:title=" ">
<polygon fill="none" stroke="black" points="149,-200.5 149,-219.5 239,-219.5 239,-200.5 149,-200.5"/>
<text text-anchor="middle" x="194" y="-207.5" font-family="Helvetica,sans-Serif" font-size="10.00">Env::getMaxDay</text>
</a>
</g>
</g>
<!-- Node1&#45;&gt;Node20 -->
<g id="edge27" class="edge">
<title>Node1&#45;&gt;Node20</title>
<path fill="none" stroke="midnightblue" d="M69.42,-257.46C86.28,-249.36 111.45,-237.7 134,-229 139.6,-226.84 145.55,-224.72 151.45,-222.73"/>
<polygon fill="midnightblue" stroke="midnightblue" points="152.83,-225.96 161.23,-219.5 150.64,-219.31 152.83,-225.96"/>
</g>
<!-- Node21 -->
<g id="node21" class="node">
<title>Node21</title>
<g id="a_node21"><a xlink:href="class_session_time.html#a22ab81d2e9448c9cbcaef59c2d8eb8dc" target="_top" xlink:title=" ">
<polygon fill="none" stroke="black" points="148,-162.5 148,-181.5 240,-181.5 240,-162.5 148,-162.5"/>
<text text-anchor="middle" x="194" y="-169.5" font-family="Helvetica,sans-Serif" font-size="10.00">SessionTime::init</text>
</a>
</g>
</g>
<!-- Node1&#45;&gt;Node21 -->
<g id="edge28" class="edge">
<title>Node1&#45;&gt;Node21</title>
<path fill="none" stroke="midnightblue" d="M58.08,-257.42C72.01,-241.46 102.15,-209.38 134,-191 137.67,-188.88 141.61,-186.97 145.64,-185.24"/>
<polygon fill="midnightblue" stroke="midnightblue" points="147.09,-188.43 155.15,-181.55 144.56,-181.9 147.09,-188.43"/>
</g>
<!-- Node25 -->
<g id="node25" class="node">
<title>Node25</title>
<g id="a_node25"><a xlink:href="class_signal.html#a23715c9728a374020fdad3454552b2f1" target="_top" xlink:title=" ">
<polygon fill="none" stroke="black" points="136,-124.5 136,-143.5 252,-143.5 252,-124.5 136,-124.5"/>
<text text-anchor="middle" x="194" y="-131.5" font-family="Helvetica,sans-Serif" font-size="10.00">Signal::isSignaledTerm</text>
</a>
</g>
</g>
<!-- Node1&#45;&gt;Node25 -->
<g id="edge32" class="edge">
<title>Node1&#45;&gt;Node25</title>
<path fill="none" stroke="midnightblue" d="M54.41,-257.47C64.98,-235.68 93.89,-181.86 134,-153 136.66,-151.08 139.53,-149.35 142.51,-147.79"/>
<polygon fill="midnightblue" stroke="midnightblue" points="144.07,-150.93 151.73,-143.6 141.18,-144.56 144.07,-150.93"/>
</g>
<!-- Node26 -->
<g id="node26" class="node">
<title>Node26</title>
<g id="a_node26"><a xlink:href="class_signal.html#a82891210bdbc99ca9e7e1ac108fb048a" target="_top" xlink:title=" ">
<polygon fill="none" stroke="black" points="136,-86.5 136,-105.5 252,-105.5 252,-86.5 136,-86.5"/>
<text text-anchor="middle" x="194" y="-93.5" font-family="Helvetica,sans-Serif" font-size="10.00">Signal::isSignaledUsr1</text>
</a>
</g>
</g>
<!-- Node1&#45;&gt;Node26 -->
<g id="edge33" class="edge">
<title>Node1&#45;&gt;Node26</title>
<path fill="none" stroke="midnightblue" d="M52.65,-257.18C60.39,-230.29 85.58,-154.86 134,-115 136.15,-113.23 138.46,-111.63 140.88,-110.17"/>
<polygon fill="midnightblue" stroke="midnightblue" points="142.72,-113.17 150.06,-105.53 139.55,-106.92 142.72,-113.17"/>
</g>
<!-- Node27 -->
<g id="node27" class="node">
<title>Node27</title>
<g id="a_node27"><a xlink:href="class_signal.html#aed6098485cfbacfbcfe105bd3c70cdde" target="_top" xlink:title=" ">
<polygon fill="none" stroke="black" points="134,-48.5 134,-67.5 254,-67.5 254,-48.5 134,-48.5"/>
<text text-anchor="middle" x="194" y="-55.5" font-family="Helvetica,sans-Serif" font-size="10.00">Signal::resetSignalTerm</text>
</a>
</g>
</g>
<!-- Node1&#45;&gt;Node27 -->
<g id="edge35" class="edge">
<title>Node1&#45;&gt;Node27</title>
<path fill="none" stroke="midnightblue" d="M51.48,-257.07C56.67,-225.8 76.91,-128.4 134,-77 135.75,-75.42 137.64,-73.97 139.63,-72.64"/>
<polygon fill="midnightblue" stroke="midnightblue" points="141.77,-75.46 148.83,-67.56 138.39,-69.33 141.77,-75.46"/>
</g>
<!-- Node28 -->
<g id="node28" class="node">
<title>Node28</title>
<g id="a_node28"><a xlink:href="class_signal.html#a2184d31e9dac489d01c6f9f558000668" target="_top" xlink:title=" ">
<polygon fill="none" stroke="black" points="134.5,-10.5 134.5,-29.5 253.5,-29.5 253.5,-10.5 134.5,-10.5"/>
<text text-anchor="middle" x="194" y="-17.5" font-family="Helvetica,sans-Serif" font-size="10.00">Signal::resetSignalUsr1</text>
</a>
</g>
</g>
<!-- Node1&#45;&gt;Node28 -->
<g id="edge36" class="edge">
<title>Node1&#45;&gt;Node28</title>
<path fill="none" stroke="midnightblue" d="M50.66,-257.15C53.52,-222.13 67.94,-102.37 134,-39 135.64,-37.43 137.41,-35.98 139.28,-34.66"/>
<polygon fill="midnightblue" stroke="midnightblue" points="141.12,-37.64 148.01,-29.59 137.6,-31.59 141.12,-37.64"/>
</g>
<!-- Node29 -->
<g id="node29" class="node">
<title>Node29</title>
<g id="a_node29"><a xlink:href="class_incubator.html#afb4231e205731650813e786bcb35532a" target="_top" xlink:title=" ">
<polygon fill="none" stroke="black" points="135.5,-494.5 135.5,-513.5 252.5,-513.5 252.5,-494.5 135.5,-494.5"/>
<text text-anchor="middle" x="194" y="-501.5" font-family="Helvetica,sans-Serif" font-size="10.00">Incubator::updatePanel</text>
</a>
</g>
</g>
<!-- Node1&#45;&gt;Node29 -->
<g id="edge37" class="edge">
<title>Node1&#45;&gt;Node29</title>
<path fill="none" stroke="midnightblue" d="M51.09,-276.51C55.33,-309.29 73.61,-418.96 134,-480 137.89,-483.93 142.51,-487.24 147.43,-490.02"/>
<polygon fill="midnightblue" stroke="midnightblue" points="145.99,-493.22 156.51,-494.48 149.07,-486.93 145.99,-493.22"/>
</g>
<!-- Node2&#45;&gt;Node3 -->
<g id="edge2" class="edge">
<title>Node2&#45;&gt;Node3</title>
<path fill="none" stroke="midnightblue" d="M202.45,-333.6C214.21,-349 237.45,-380.39 254,-409 272.72,-441.35 261.52,-460.8 290,-485 291.99,-486.69 294.12,-488.23 296.35,-489.63"/>
<polygon fill="midnightblue" stroke="midnightblue" points="294.92,-492.83 305.39,-494.39 298.18,-486.64 294.92,-492.83"/>
</g>
<!-- Node2&#45;&gt;Node4 -->
<g id="edge8" class="edge">
<title>Node2&#45;&gt;Node4</title>
<path fill="none" stroke="midnightblue" d="M235.13,-314.62C283.62,-305.61 365.91,-297.97 424,-333 480.71,-367.19 508.18,-447.05 518.27,-484.26"/>
<polygon fill="midnightblue" stroke="midnightblue" points="514.98,-485.52 520.85,-494.34 521.76,-483.78 514.98,-485.52"/>
</g>
<!-- Node2&#45;&gt;Node7 -->
<g id="edge6" class="edge">
<title>Node2&#45;&gt;Node7</title>
<path fill="none" stroke="midnightblue" d="M233.72,-314.45C241.34,-310.99 248.63,-306.32 254,-300 300.39,-245.47 240.79,-194.99 290,-143 295.65,-137.03 303.05,-132.9 310.84,-130.04"/>
<polygon fill="midnightblue" stroke="midnightblue" points="311.87,-133.39 320.45,-127.16 309.86,-126.68 311.87,-133.39"/>
</g>
<!-- Node8 -->
<g id="node8" class="node">
<title>Node8</title>
<g id="a_node8"><a xlink:href="struct_sensor.html#aa8ccca455068dc4474ce2bac263970db" target="_top" xlink:title=" ">
<polygon fill="none" stroke="black" points="323.5,-266.5 323.5,-285.5 390.5,-285.5 390.5,-266.5 323.5,-266.5"/>
<text text-anchor="middle" x="357" y="-273.5" font-family="Helvetica,sans-Serif" font-size="10.00">Sensor::get</text>
</a>
</g>
</g>
<!-- Node2&#45;&gt;Node8 -->
<g id="edge7" class="edge">
<title>Node2&#45;&gt;Node8</title>
<path fill="none" stroke="midnightblue" d="M227.19,-314.4C252.2,-306.95 287.08,-296.55 314.24,-288.45"/>
<polygon fill="midnightblue" stroke="midnightblue" points="315.28,-291.79 323.86,-285.58 313.28,-285.08 315.28,-291.79"/>
</g>
<!-- Node9 -->
<g id="node9" class="node">
<title>Node9</title>
<g id="a_node9"><a xlink:href="class_env.html#a7a496cf30d21e81be2f8838cad290de4" target="_top" xlink:title=" ">
<polygon fill="none" stroke="black" points="312.5,-456.5 312.5,-475.5 401.5,-475.5 401.5,-456.5 312.5,-456.5"/>
<text text-anchor="middle" x="357" y="-463.5" font-family="Helvetica,sans-Serif" font-size="10.00">Env::getFormula</text>
</a>
</g>
</g>
<!-- Node2&#45;&gt;Node9 -->
<g id="edge9" class="edge">
<title>Node2&#45;&gt;Node9</title>
<path fill="none" stroke="midnightblue" d="M201.32,-333.69C218.58,-359.89 266.79,-431.23 290,-447 293.98,-449.71 298.35,-452.03 302.88,-454.03"/>
<polygon fill="midnightblue" stroke="midnightblue" points="301.76,-457.34 312.35,-457.68 304.28,-450.81 301.76,-457.34"/>
</g>
<!-- Node10 -->
<g id="node10" class="node">
<title>Node10</title>
<g id="a_node10"><a xlink:href="class_temp_algo.html#a17e47d35454790587da35e25b1c92740" target="_top" xlink:title=" ">
<polygon fill="none" stroke="black" points="308.5,-190.5 308.5,-209.5 405.5,-209.5 405.5,-190.5 308.5,-190.5"/>
<text text-anchor="middle" x="357" y="-197.5" font-family="Helvetica,sans-Serif" font-size="10.00">TempAlgo::getPair</text>
</a>
</g>
</g>
<!-- Node2&#45;&gt;Node10 -->
<g id="edge10" class="edge">
<title>Node2&#45;&gt;Node10</title>
<path fill="none" stroke="midnightblue" d="M231,-314.42C239.3,-310.92 247.57,-306.23 254,-300 282.3,-272.59 260.29,-244.87 290,-219 292.82,-216.55 295.94,-214.41 299.24,-212.54"/>
<polygon fill="midnightblue" stroke="midnightblue" points="300.79,-215.68 308.33,-208.23 297.79,-209.36 300.79,-215.68"/>
</g>
<!-- Node2&#45;&gt;Node12 -->
<g id="edge12" class="edge">
<title>Node2&#45;&gt;Node12</title>
<path fill="none" stroke="midnightblue" d="M212.09,-333.62C230.79,-343.87 261.86,-360.09 290,-371 296.88,-373.67 304.29,-376.15 311.57,-378.39"/>
<polygon fill="midnightblue" stroke="midnightblue" points="310.78,-381.81 321.36,-381.29 312.76,-375.1 310.78,-381.81"/>
</g>
<!-- Node13 -->
<g id="node13" class="node">
<title>Node13</title>
<g id="a_node13"><a xlink:href="struct_actuator.html#a40700c01e3123133fd11157f9707ac8a" target="_top" xlink:title=" ">
<polygon fill="none" stroke="black" points="322,-418.5 322,-437.5 392,-437.5 392,-418.5 322,-418.5"/>
<text text-anchor="middle" x="357" y="-425.5" font-family="Helvetica,sans-Serif" font-size="10.00">Actuator::on</text>
</a>
</g>
</g>
<!-- Node2&#45;&gt;Node13 -->
<g id="edge13" class="edge">
<title>Node2&#45;&gt;Node13</title>
<path fill="none" stroke="midnightblue" d="M203.11,-333.7C218.33,-351.3 253.01,-388.55 290,-409 296.9,-412.81 304.63,-415.92 312.31,-418.44"/>
<polygon fill="midnightblue" stroke="midnightblue" points="311.36,-421.81 321.94,-421.32 313.37,-415.1 311.36,-421.81"/>
</g>
<!-- Node14 -->
<g id="node14" class="node">
<title>Node14</title>
<g id="a_node14"><a xlink:href="struct_actuator.html#aaee783ce223c100db031aaa5b54614e4" target="_top" xlink:title=" ">
<polygon fill="none" stroke="black" points="317.5,-152.5 317.5,-171.5 396.5,-171.5 396.5,-152.5 317.5,-152.5"/>
<text text-anchor="middle" x="357" y="-159.5" font-family="Helvetica,sans-Serif" font-size="10.00">Actuator::start</text>
</a>
</g>
</g>
<!-- Node2&#45;&gt;Node14 -->
<g id="edge14" class="edge">
<title>Node2&#45;&gt;Node14</title>
<path fill="none" stroke="midnightblue" d="M232.79,-314.44C240.64,-310.97 248.26,-306.29 254,-300 291.22,-259.16 250.67,-219.81 290,-181 294.96,-176.1 301.1,-172.45 307.61,-169.74"/>
<polygon fill="midnightblue" stroke="midnightblue" points="309.03,-172.95 317.34,-166.38 306.75,-166.33 309.03,-172.95"/>
</g>
<!-- Node15 -->
<g id="node15" class="node">
<title>Node15</title>
<g id="a_node15"><a xlink:href="struct_actuator.html#a016fa92983cc24a331faef1af8ef0bda" target="_top" xlink:title=" ">
<polygon fill="none" stroke="black" points="318,-342.5 318,-361.5 396,-361.5 396,-342.5 318,-342.5"/>
<text text-anchor="middle" x="357" y="-349.5" font-family="Helvetica,sans-Serif" font-size="10.00">Actuator::stop</text>
</a>
</g>
</g>
<!-- Node2&#45;&gt;Node15 -->
<g id="edge15" class="edge">
<title>Node2&#45;&gt;Node15</title>
<path fill="none" stroke="midnightblue" d="M235.21,-330.99C257.28,-334.83 284.79,-339.62 307.98,-343.65"/>
<polygon fill="midnightblue" stroke="midnightblue" points="307.51,-347.12 317.96,-345.38 308.71,-340.22 307.51,-347.12"/>
</g>
<!-- Node16 -->
<g id="node16" class="node">
<title>Node16</title>
<g id="a_node16"><a xlink:href="class_temp_algo.html#afa4d2fa920faedfb3f72e6eb27b42392" target="_top" xlink:title=" ">
<polygon fill="none" stroke="black" points="296.5,-228.5 296.5,-247.5 417.5,-247.5 417.5,-228.5 296.5,-228.5"/>
<text text-anchor="middle" x="357" y="-235.5" font-family="Helvetica,sans-Serif" font-size="10.00">TempAlgo::tryGoOnRec</text>
</a>
</g>
</g>
<!-- Node2&#45;&gt;Node16 -->
<g id="edge16" class="edge">
<title>Node2&#45;&gt;Node16</title>
<path fill="none" stroke="midnightblue" d="M226.5,-314.45C235.85,-310.78 245.78,-305.99 254,-300 274.14,-285.31 269.11,-270.6 290,-257 293.13,-254.96 296.49,-253.14 299.96,-251.5"/>
<polygon fill="midnightblue" stroke="midnightblue" points="301.47,-254.67 309.38,-247.62 298.8,-248.2 301.47,-254.67"/>
</g>
<!-- Node3&#45;&gt;Node4 -->
<g id="edge3" class="edge">
<title>Node3&#45;&gt;Node4</title>
<path fill="none" stroke="midnightblue" d="M424.16,-504C432.51,-504 441.09,-504 449.55,-504"/>
<polygon fill="midnightblue" stroke="midnightblue" points="449.77,-507.5 459.77,-504 449.77,-500.5 449.77,-507.5"/>
</g>
<!-- Node5 -->
<g id="node5" class="node">
<title>Node5</title>
<g id="a_node5"><a xlink:href="class_session_time.html#a4d81264c1f6e33f594d71bfb144e1802" target="_top" xlink:title=" ">
<polygon fill="none" stroke="black" points="624,-513.5 624,-532.5 749,-532.5 749,-513.5 624,-513.5"/>
<text text-anchor="middle" x="686.5" y="-520.5" font-family="Helvetica,sans-Serif" font-size="10.00">SessionTime::getCurrent</text>
</a>
</g>
</g>
<!-- Node4&#45;&gt;Node5 -->
<g id="edge4" class="edge">
<title>Node4&#45;&gt;Node5</title>
<path fill="none" stroke="midnightblue" d="M588.43,-511.51C596.72,-512.49 605.25,-513.5 613.67,-514.5"/>
<polygon fill="midnightblue" stroke="midnightblue" points="613.5,-518 623.84,-515.7 614.32,-511.05 613.5,-518"/>
</g>
<!-- Node6 -->
<g id="node6" class="node">
<title>Node6</title>
<g id="a_node6"><a xlink:href="class_session_time.html#a3a257ffb8fad61d87f13fb167648c37e" target="_top" xlink:title=" ">
<polygon fill="none" stroke="black" points="629.5,-475.5 629.5,-494.5 743.5,-494.5 743.5,-475.5 629.5,-475.5"/>
<text text-anchor="middle" x="686.5" y="-482.5" font-family="Helvetica,sans-Serif" font-size="10.00">SessionTime::getStart</text>
</a>
</g>
</g>
<!-- Node4&#45;&gt;Node6 -->
<g id="edge5" class="edge">
<title>Node4&#45;&gt;Node6</title>
<path fill="none" stroke="midnightblue" d="M588.43,-496.49C598.55,-495.29 609.05,-494.05 619.23,-492.84"/>
<polygon fill="midnightblue" stroke="midnightblue" points="619.77,-496.31 629.29,-491.65 618.95,-489.35 619.77,-496.31"/>
</g>
<!-- Node11 -->
<g id="node11" class="node">
<title>Node11</title>
<g id="a_node11"><a xlink:href="class_temp_algo.html#a05c3609f932b9153ac4c95a29d5e1ffe" target="_top" xlink:title=" ">
<polygon fill="none" stroke="black" points="466,-190.5 466,-209.5 582,-209.5 582,-190.5 466,-190.5"/>
<text text-anchor="middle" x="524" y="-197.5" font-family="Helvetica,sans-Serif" font-size="10.00">TempAlgo::_getMedian</text>
</a>
</g>
</g>
<!-- Node10&#45;&gt;Node11 -->
<g id="edge11" class="edge">
<title>Node10&#45;&gt;Node11</title>
<path fill="none" stroke="midnightblue" d="M405.72,-200C421.25,-200 438.79,-200 455.48,-200"/>
<polygon fill="midnightblue" stroke="midnightblue" points="455.74,-203.5 465.74,-200 455.74,-196.5 455.74,-203.5"/>
</g>
<!-- Node17 -->
<g id="node17" class="node">
<title>Node17</title>
<g id="a_node17"><a xlink:href="class_temp_algo.html#abd3e99d3387e63b5b1c18859bc827594" target="_top" xlink:title=" ">
<polygon fill="none" stroke="black" points="475,-228.5 475,-247.5 573,-247.5 573,-228.5 475,-228.5"/>
<text text-anchor="middle" x="524" y="-235.5" font-family="Helvetica,sans-Serif" font-size="10.00">TempAlgo::_kickIn</text>
</a>
</g>
</g>
<!-- Node16&#45;&gt;Node17 -->
<g id="edge17" class="edge">
<title>Node16&#45;&gt;Node17</title>
<path fill="none" stroke="midnightblue" d="M417.57,-238C432.87,-238 449.31,-238 464.56,-238"/>
<polygon fill="midnightblue" stroke="midnightblue" points="464.89,-241.5 474.89,-238 464.89,-234.5 464.89,-241.5"/>
</g>
<!-- Node18&#45;&gt;Node3 -->
<g id="edge19" class="edge">
<title>Node18&#45;&gt;Node3</title>
<path fill="none" stroke="midnightblue" d="M224.22,-437.52C234.05,-441.33 244.84,-446.21 254,-452 272.34,-463.61 271.07,-474.38 290,-485 293.97,-487.23 298.22,-489.21 302.58,-490.97"/>
<polygon fill="midnightblue" stroke="midnightblue" points="301.65,-494.36 312.24,-494.5 304.05,-487.78 301.65,-494.36"/>
</g>
<!-- Node18&#45;&gt;Node9 -->
<g id="edge20" class="edge">
<title>Node18&#45;&gt;Node9</title>
<path fill="none" stroke="midnightblue" d="M235.63,-437.59C256.97,-442.63 283.31,-448.84 305.91,-454.18"/>
<polygon fill="midnightblue" stroke="midnightblue" points="305.13,-457.59 315.67,-456.48 306.74,-450.78 305.13,-457.59"/>
</g>
<!-- Node18&#45;&gt;Node12 -->
<g id="edge21" class="edge">
<title>Node18&#45;&gt;Node12</title>
<path fill="none" stroke="midnightblue" d="M235.63,-418.41C258.78,-412.95 287.81,-406.09 311.56,-400.49"/>
<polygon fill="midnightblue" stroke="midnightblue" points="312.46,-403.87 321.39,-398.17 310.85,-397.06 312.46,-403.87"/>
</g>
<!-- Node18&#45;&gt;Node13 -->
<g id="edge22" class="edge">
<title>Node18&#45;&gt;Node13</title>
<path fill="none" stroke="midnightblue" d="M250.86,-428C270.78,-428 292.93,-428 311.75,-428"/>
<polygon fill="midnightblue" stroke="midnightblue" points="311.82,-431.5 321.82,-428 311.82,-424.5 311.82,-431.5"/>
</g>
<!-- Node22 -->
<g id="node22" class="node">
<title>Node22</title>
<g id="a_node22"><a xlink:href="class_session_time.html#ad3b544332a5c1c7602fe6f195477c46d" target="_top" xlink:title=" ">
<polygon fill="none" stroke="black" points="293,-76.5 293,-95.5 421,-95.5 421,-76.5 293,-76.5"/>
<text text-anchor="middle" x="357" y="-83.5" font-family="Helvetica,sans-Serif" font-size="10.00">SessionTime::_createFile</text>
</a>
</g>
</g>
<!-- Node21&#45;&gt;Node22 -->
<g id="edge29" class="edge">
<title>Node21&#45;&gt;Node22</title>
<path fill="none" stroke="midnightblue" d="M235.94,-162.48C242.31,-159.99 248.57,-156.87 254,-153 275.71,-137.52 268.05,-120.14 290,-105 292.88,-103.01 295.98,-101.23 299.19,-99.63"/>
<polygon fill="midnightblue" stroke="midnightblue" points="300.71,-102.78 308.5,-95.6 297.93,-96.36 300.71,-102.78"/>
</g>
<!-- Node23 -->
<g id="node23" class="node">
<title>Node23</title>
<g id="a_node23"><a xlink:href="class_session_time.html#a091c923f5e31dc4e5a2d8f283d750559" target="_top" xlink:title=" ">
<polygon fill="none" stroke="black" points="297,-38.5 297,-57.5 417,-57.5 417,-38.5 297,-38.5"/>
<text text-anchor="middle" x="357" y="-45.5" font-family="Helvetica,sans-Serif" font-size="10.00">SessionTime::_fileExist</text>
</a>
</g>
</g>
<!-- Node21&#45;&gt;Node23 -->
<g id="edge30" class="edge">
<title>Node21&#45;&gt;Node23</title>
<path fill="none" stroke="midnightblue" d="M239.54,-162.38C244.81,-159.93 249.8,-156.86 254,-153 284.52,-124.97 259.05,-94.55 290,-67 291.77,-65.42 293.67,-63.97 295.66,-62.65"/>
<polygon fill="midnightblue" stroke="midnightblue" points="297.82,-65.45 304.89,-57.56 294.44,-59.32 297.82,-65.45"/>
</g>
<!-- Node24 -->
<g id="node24" class="node">
<title>Node24</title>
<g id="a_node24"><a xlink:href="_session_time_8cpp.html#abca31e57bfd5e5177ae07212663211be" target="_top" xlink:title=" ">
<polygon fill="none" stroke="black" points="309.5,-0.5 309.5,-19.5 404.5,-19.5 404.5,-0.5 309.5,-0.5"/>
<text text-anchor="middle" x="357" y="-7.5" font-family="Helvetica,sans-Serif" font-size="10.00">sBeginTimeName</text>
</a>
</g>
</g>
<!-- Node21&#45;&gt;Node24 -->
<g id="edge31" class="edge">
<title>Node21&#45;&gt;Node24</title>
<path fill="none" stroke="midnightblue" d="M240.26,-162.68C245.35,-160.18 250.1,-157.01 254,-153 293.99,-111.84 249.38,-69.53 290,-29 293.04,-25.97 296.53,-23.41 300.28,-21.26"/>
<polygon fill="midnightblue" stroke="midnightblue" points="301.88,-24.37 309.43,-16.94 298.89,-18.05 301.88,-24.37"/>
</g>
<!-- Node29&#45;&gt;Node3 -->
<g id="edge38" class="edge">
<title>Node29&#45;&gt;Node3</title>
<path fill="none" stroke="midnightblue" d="M252.67,-504C261.45,-504 270.63,-504 279.74,-504"/>
<polygon fill="midnightblue" stroke="midnightblue" points="279.97,-507.5 289.97,-504 279.97,-500.5 279.97,-507.5"/>
</g>
<!-- Node29&#45;&gt;Node9 -->
<g id="edge40" class="edge">
<title>Node29&#45;&gt;Node9</title>
<path fill="none" stroke="midnightblue" d="M235.63,-494.41C256.97,-489.37 283.31,-483.16 305.91,-477.82"/>
<polygon fill="midnightblue" stroke="midnightblue" points="306.74,-481.22 315.67,-475.52 305.13,-474.41 306.74,-481.22"/>
</g>
<!-- Node30 -->
<g id="node30" class="node">
<title>Node30</title>
<g id="a_node30"><a xlink:href="struct_sensor.html#ad62f84f033a2070a2a48844487c6afec" target="_top" xlink:title=" ">
<polygon fill="none" stroke="black" points="309.5,-532.5 309.5,-551.5 404.5,-551.5 404.5,-532.5 309.5,-532.5"/>
<text text-anchor="middle" x="357" y="-539.5" font-family="Helvetica,sans-Serif" font-size="10.00">Sensor::getCache</text>
</a>
</g>
</g>
<!-- Node29&#45;&gt;Node30 -->
<g id="edge39" class="edge">
<title>Node29&#45;&gt;Node30</title>
<path fill="none" stroke="midnightblue" d="M235.63,-513.59C256.97,-518.63 283.31,-524.84 305.91,-530.18"/>
<polygon fill="midnightblue" stroke="midnightblue" points="305.13,-533.59 315.67,-532.48 306.74,-526.78 305.13,-533.59"/>
</g>
<!-- Node31 -->
<g id="node31" class="node">
<title>Node31</title>
<g id="a_node31"><a xlink:href="class_display_client.html#a5110de3b45261b80c184d9ae3b5fd0dd" target="_top" xlink:title=" ">
<polygon fill="none" stroke="black" points="296.5,-608.5 296.5,-627.5 417.5,-627.5 417.5,-608.5 296.5,-608.5"/>
<text text-anchor="middle" x="357" y="-615.5" font-family="Helvetica,sans-Serif" font-size="10.00">DisplayClient::sendMsg</text>
</a>
</g>
</g>
<!-- Node29&#45;&gt;Node31 -->
<g id="edge41" class="edge">
<title>Node29&#45;&gt;Node31</title>
<path fill="none" stroke="midnightblue" d="M208.45,-513.52C236.2,-533.17 300.04,-578.37 333.93,-602.37"/>
<polygon fill="midnightblue" stroke="midnightblue" points="332.06,-605.34 342.25,-608.26 336.11,-599.63 332.06,-605.34"/>
</g>
<!-- Node32 -->
<g id="node32" class="node">
<title>Node32</title>
<g id="a_node32"><a xlink:href="_display_client_8cpp.html#ae6c284f76536f5a2cdc683e68988d02a" target="_top" xlink:title=" ">
<polygon fill="none" stroke="black" points="503.5,-608.5 503.5,-627.5 544.5,-627.5 544.5,-608.5 503.5,-608.5"/>
<text text-anchor="middle" x="524" y="-615.5" font-family="Helvetica,sans-Serif" font-size="10.00">guard</text>
</a>
</g>
</g>
<!-- Node31&#45;&gt;Node32 -->
<g id="edge42" class="edge">
<title>Node31&#45;&gt;Node32</title>
<path fill="none" stroke="midnightblue" d="M417.57,-618C443.19,-618 472.03,-618 493.05,-618"/>
<polygon fill="midnightblue" stroke="midnightblue" points="493.28,-621.5 503.28,-618 493.28,-614.5 493.28,-621.5"/>
</g>
</g>
</svg>
        <g id="navigator" transform="translate(0 0)" fill="#404254">
                <rect fill="#f2f5e9" fill-opacity="0.5" stroke="#606060" stroke-width=".5" x="0" y="0" width="60" height="60"/>
                <use id="zoomplus" xlink:href="#zoomPlus" x="17" y="9" onmousedown="handleZoom(evt,'in')"/>
                <use id="zoomminus" xlink:href="#zoomMin" x="42" y="9" onmousedown="handleZoom(evt,'out')"/>
                <use id="reset" xlink:href="#resetDef" x="30" y="36" onmousedown="handleReset()"/>
                <g id="arrowUp" xlink:href="#dirArrow" transform="translate(30 24)" onmousedown="handlePan(0,-1)">
                  <use xlink:href="#rim" fill="#404040">
                        <set attributeName="fill" to="#808080" begin="arrowUp.mouseover" end="arrowUp.mouseout"/>
                  </use>
                  <path fill="none" stroke="white" stroke-width="1.5" d="M0,-3.0v7 M-2.5,-0.5L0,-3.0L2.5,-0.5"/>
                </g>
                <g id="arrowRight" xlink:href="#dirArrow" transform="rotate(90) translate(36 -43)" onmousedown="handlePan(1,0)">
                  <use xlink:href="#rim" fill="#404040">
                        <set attributeName="fill" to="#808080" begin="arrowRight.mouseover" end="arrowRight.mouseout"/>
                  </use>
                  <path fill="none" stroke="white" stroke-width="1.5" d="M0,-3.0v7 M-2.5,-0.5L0,-3.0L2.5,-0.5"/>
                </g>
                <g id="arrowDown" xlink:href="#dirArrow" transform="rotate(180) translate(-30 -48)" onmousedown="handlePan(0,1)">
                  <use xlink:href="#rim" fill="#404040">
                        <set attributeName="fill" to="#808080" begin="arrowDown.mouseover" end="arrowDown.mouseout"/>
                  </use>
                  <path fill="none" stroke="white" stroke-width="1.5" d="M0,-3.0v7 M-2.5,-0.5L0,-3.0L2.5,-0.5"/>
                </g>
                <g id="arrowLeft" xlink:href="#dirArrow" transform="rotate(270) translate(-36 17)" onmousedown="handlePan(-1,0)">
                  <use xlink:href="#rim" fill="#404040">
                        <set attributeName="fill" to="#808080" begin="arrowLeft.mouseover" end="arrowLeft.mouseout"/>
                  </use>
                  <path fill="none" stroke="white" stroke-width="1.5" d="M0,-3.0v7 M-2.5,-0.5L0,-3.0L2.5,-0.5"/>
                </g>
        </g>
        <svg viewBox="0 0 15 15" width="100%" height="30px" preserveAspectRatio="xMaxYMin meet">
         <g id="arrow_out" transform="scale(0.3 0.3)">
          <a xlink:href="class_incubator_ab2084701ceb46e156faa8c7e9724a0fd_cgraph_org.svg" target="_base">
           <rect id="button" ry="5" rx="5" y="6" x="6" height="38" width="38"
                fill="#f2f5e9" fill-opacity="0.5" stroke="#606060" stroke-width="1.0"/>
           <path id="arrow"
             d="M 11.500037,31.436501 C 11.940474,20.09759 22.043105,11.32322 32.158766,21.979434 L 37.068811,17.246167 C 37.068811,17.246167 37.088388,32 37.088388,32 L 22.160133,31.978069 C 22.160133,31.978069 26.997745,27.140456 26.997745,27.140456 C 18.528582,18.264221 13.291696,25.230495 11.500037,31.436501 z"
             style="fill:#404040;"/>
          </a>
         </g>
        </svg>
</svg>
