<?xml version="1.0" encoding="UTF-8" standalone="no"?>
<!DOCTYPE svg PUBLIC "-//W3C//DTD SVG 1.1//EN"
 "http://www.w3.org/Graphics/SVG/1.1/DTD/svg11.dtd">
<!-- Generated by graphviz version 2.48.0 (20210717.1556)
 -->
<!-- Title: Env Pages: 1 -->
<!--zoomable 728 -->
<svg id="main" version="1.1" xmlns="http://www.w3.org/2000/svg" xmlns:xlink="http://www.w3.org/1999/xlink" xml:space="preserve" onload="init(evt)">
<style type="text/css"><![CDATA[
.edge:hover path { stroke: red; }
.edge:hover polygon { stroke: red; fill: red; }
]]></style>
<script type="text/javascript"><![CDATA[
var edges = document.getElementsByTagName('g');
if (edges && edges.length) {
  for (var i=0;i<edges.length;i++) {
    if (edges[i].id.substr(0,4)=='edge') {
      edges[i].setAttribute('class','edge');
    }
  }
}
]]></script>
        <defs>
                <circle id="rim" cx="0" cy="0" r="7"/>
                <circle id="rim2" cx="0" cy="0" r="3.5"/>
                <g id="zoomPlus">
                        <use xlink:href="#rim" fill="#404040">
                                <set attributeName="fill" to="#808080" begin="zoomplus.mouseover" end="zoomplus.mouseout"/>
                        </use>
                        <path d="M-4,0h8M0,-4v8" fill="none" stroke="white" stroke-width="1.5" pointer-events="none"/>
                </g>
                <g id="zoomMin">
                        <use xlink:href="#rim" fill="#404040">
                                <set attributeName="fill" to="#808080" begin="zoomminus.mouseover" end="zoomminus.mouseout"/>
                        </use>
                        <path d="M-4,0h8" fill="none" stroke="white" stroke-width="1.5" pointer-events="none"/>
                </g>
                <g id="dirArrow">
                        <path fill="none" stroke="white" stroke-width="1.5" d="M0,-3.0v7 M-2.5,-0.5L0,-3.0L2.5,-0.5"/>
                </g>
               <g id="resetDef">
                       <use xlink:href="#rim2" fill="#404040">
                               <set attributeName="fill" to="#808080" begin="reset.mouseover" end="reset.mouseout"/>
                       </use>
               </g>
        </defs>

<script type="text/javascript">
var viewWidth = 544;
var viewHeight = 728;
var sectionId = 'dynsection-1';
</script>
<script xlink:href="svgpan.js"/>
<svg id="graph" class="graph">
<g id="viewport">
<title>Env</title>
<!-- Node1 -->
<g id="node1" class="node">
<title>Node1</title>
<g id="a_node1"><a xlink:title=" ">
<polygon fill="#bfbfbf" stroke="black" points="87,-0.5 87,-200.5 202,-200.5 202,-0.5 87,-0.5"/>
<text text-anchor="middle" x="144.5" y="-188.5" font-family="Helvetica,sans-Serif" font-size="10.00">Env</text>
<polyline fill="none" stroke="black" points="87,-181.5 202,-181.5 "/>
<text text-anchor="middle" x="144.5" y="-169.5" font-family="Helvetica,sans-Serif" font-size="10.00"> </text>
<polyline fill="none" stroke="black" points="87,-162.5 202,-162.5 "/>
<text text-anchor="start" x="95" y="-150.5" font-family="Helvetica,sans-Serif" font-size="10.00">+ Env()</text>
<text text-anchor="start" x="95" y="-139.5" font-family="Helvetica,sans-Serif" font-size="10.00">+ ~Env()</text>
<text text-anchor="start" x="95" y="-128.5" font-family="Helvetica,sans-Serif" font-size="10.00">+ setUp()</text>
<text text-anchor="start" x="95" y="-117.5" font-family="Helvetica,sans-Serif" font-size="10.00">+ getConfig()</text>
<text text-anchor="start" x="95" y="-106.5" font-family="Helvetica,sans-Serif" font-size="10.00">+ setConfig()</text>
<text text-anchor="start" x="95" y="-95.5" font-family="Helvetica,sans-Serif" font-size="10.00">+ getFormula()</text>
<text text-anchor="start" x="95" y="-84.5" font-family="Helvetica,sans-Serif" font-size="10.00">+ getMaxDay()</text>
<text text-anchor="start" x="95" y="-73.5" font-family="Helvetica,sans-Serif" font-size="10.00">&#45; _readConfig()</text>
<text text-anchor="start" x="95" y="-62.5" font-family="Helvetica,sans-Serif" font-size="10.00">&#45; _readFromCfgFile()</text>
<text text-anchor="start" x="95" y="-51.5" font-family="Helvetica,sans-Serif" font-size="10.00">&#45; _str2Obj()</text>
<text text-anchor="start" x="95" y="-40.5" font-family="Helvetica,sans-Serif" font-size="10.00">&#45; _objByPhaseName()</text>
<text text-anchor="start" x="95" y="-29.5" font-family="Helvetica,sans-Serif" font-size="10.00">&#45; _obj2Phase()</text>
<text text-anchor="start" x="95" y="-18.5" font-family="Helvetica,sans-Serif" font-size="10.00">&#45; _obj2Config()</text>
<text text-anchor="start" x="95" y="-7.5" font-family="Helvetica,sans-Serif" font-size="10.00">&#45; _cfg2Formulas()</text>
</a>
</g>
</g>
<!-- Node2 -->
<g id="node2" class="node">
<title>Node2</title>
<g id="a_node2"><a xlink:href="class_singleton.html" target="_top" xlink:title=" ">
<polygon fill="none" stroke="black" points="0,-248.5 0,-338.5 93,-338.5 93,-248.5 0,-248.5"/>
<text text-anchor="middle" x="46.5" y="-326.5" font-family="Helvetica,sans-Serif" font-size="10.00">Singleton&lt; Env &gt;</text>
<polyline fill="none" stroke="black" points="0,-319.5 93,-319.5 "/>
<text text-anchor="middle" x="46.5" y="-307.5" font-family="Helvetica,sans-Serif" font-size="10.00"> </text>
<polyline fill="none" stroke="black" points="0,-300.5 93,-300.5 "/>
<text text-anchor="start" x="8" y="-288.5" font-family="Helvetica,sans-Serif" font-size="10.00">+ getInstance()</text>
<text text-anchor="start" x="8" y="-277.5" font-family="Helvetica,sans-Serif" font-size="10.00"># Singleton()</text>
<text text-anchor="start" x="8" y="-266.5" font-family="Helvetica,sans-Serif" font-size="10.00">&#45; Singleton()</text>
<text text-anchor="start" x="8" y="-255.5" font-family="Helvetica,sans-Serif" font-size="10.00">&#45; operator=()</text>
</a>
</g>
</g>
<!-- Node2&#45;&gt;Node1 -->
<g id="edge1" class="edge">
<title>Node2&#45;&gt;Node1</title>
<path fill="none" stroke="midnightblue" d="M73.84,-239.22C80.02,-227.16 86.79,-213.98 93.6,-200.71"/>
<polygon fill="none" stroke="midnightblue" points="70.68,-237.71 69.23,-248.2 76.91,-240.9 70.68,-237.71"/>
</g>
<!-- Node3 -->
<g id="node3" class="node">
<title>Node3</title>
<g id="a_node3"><a xlink:href="class_singleton.html" target="_top" xlink:title=" ">
<polygon fill="none" stroke="black" points="3,-386.5 3,-476.5 86,-476.5 86,-386.5 3,-386.5"/>
<text text-anchor="middle" x="44.5" y="-464.5" font-family="Helvetica,sans-Serif" font-size="10.00">Singleton&lt; T &gt;</text>
<polyline fill="none" stroke="black" points="3,-457.5 86,-457.5 "/>
<text text-anchor="middle" x="44.5" y="-445.5" font-family="Helvetica,sans-Serif" font-size="10.00"> </text>
<polyline fill="none" stroke="black" points="3,-438.5 86,-438.5 "/>
<text text-anchor="start" x="11" y="-426.5" font-family="Helvetica,sans-Serif" font-size="10.00">+ getInstance()</text>
<text text-anchor="start" x="11" y="-415.5" font-family="Helvetica,sans-Serif" font-size="10.00"># Singleton()</text>
<text text-anchor="start" x="11" y="-404.5" font-family="Helvetica,sans-Serif" font-size="10.00">&#45; Singleton()</text>
<text text-anchor="start" x="11" y="-393.5" font-family="Helvetica,sans-Serif" font-size="10.00">&#45; operator=()</text>
</a>
</g>
</g>
<!-- Node3&#45;&gt;Node2 -->
<g id="edge2" class="edge">
<title>Node3&#45;&gt;Node2</title>
<path fill="none" stroke="orange" d="M45.3,-376.15C45.48,-363.78 45.67,-350.79 45.85,-338.9"/>
<polygon fill="orange" stroke="orange" points="41.8,-376.29 45.15,-386.34 48.8,-376.4 41.8,-376.29"/>
<text text-anchor="middle" x="65.5" y="-360" font-family="Helvetica,sans-Serif" font-size="10.00"> &lt; Env &gt;</text>
</g>
<!-- Node4 -->
<g id="node4" class="node">
<title>Node4</title>
<g id="a_node4"><a xlink:href="struct__config.html" target="_top" xlink:title=" ">
<polygon fill="none" stroke="black" points="154,-265 154,-322 203,-322 203,-265 154,-265"/>
<text text-anchor="middle" x="178.5" y="-310" font-family="Helvetica,sans-Serif" font-size="10.00">_config</text>
<polyline fill="none" stroke="black" points="154,-303 203,-303 "/>
<text text-anchor="middle" x="178.5" y="-291" font-family="Helvetica,sans-Serif" font-size="10.00"> </text>
<polyline fill="none" stroke="black" points="154,-284 203,-284 "/>
<text text-anchor="middle" x="178.5" y="-272" font-family="Helvetica,sans-Serif" font-size="10.00"> </text>
</a>
</g>
</g>
<!-- Node4&#45;&gt;Node1 -->
<g id="edge3" class="edge">
<title>Node4&#45;&gt;Node1</title>
<path fill="none" stroke="#404040" d="M173.56,-264.73C171.02,-250.5 167.76,-232.15 164.33,-212.91"/>
<polygon fill="none" stroke="#404040" points="164.29,-212.66 159.3,-207.46 162.19,-200.85 167.17,-206.05 164.29,-212.66"/>
<text text-anchor="middle" x="186" y="-222" font-family="Helvetica,sans-Serif" font-size="10.00"> &#45;_config</text>
</g>
<!-- Node5 -->
<g id="node5" class="node">
<title>Node5</title>
<g id="a_node5"><a xlink:title=" ">
<polygon fill="none" stroke="#bfbfbf" points="158,-662.5 158,-719.5 199,-719.5 199,-662.5 158,-662.5"/>
<text text-anchor="middle" x="178.5" y="-707.5" font-family="Helvetica,sans-Serif" font-size="10.00">string</text>
<polyline fill="none" stroke="#bfbfbf" points="158,-700.5 199,-700.5 "/>
<text text-anchor="middle" x="178.5" y="-688.5" font-family="Helvetica,sans-Serif" font-size="10.00"> </text>
<polyline fill="none" stroke="#bfbfbf" points="158,-681.5 199,-681.5 "/>
<text text-anchor="middle" x="178.5" y="-669.5" font-family="Helvetica,sans-Serif" font-size="10.00"> </text>
</a>
</g>
</g>
<!-- Node5&#45;&gt;Node1 -->
<g id="edge14" class="edge">
<title>Node5&#45;&gt;Node1</title>
<path fill="none" stroke="#404040" d="M159.7,-662.45C143.43,-635.89 122.5,-593.96 122.5,-554 122.5,-554 122.5,-554 122.5,-292.5 122.5,-266.71 124.5,-239.09 127.3,-213.09"/>
<polygon fill="none" stroke="#404040" points="127.34,-212.8 124.04,-206.39 128.69,-200.88 131.99,-207.29 127.34,-212.8"/>
<text text-anchor="middle" x="136.5" y="-429" font-family="Helvetica,sans-Serif" font-size="10.00"> &#45;_text</text>
</g>
<!-- Node5&#45;&gt;Node4 -->
<g id="edge4" class="edge">
<title>Node5&#45;&gt;Node4</title>
<path fill="none" stroke="#404040" d="M178.5,-662.19C178.5,-593.32 178.5,-414.63 178.5,-334.45"/>
<polygon fill="none" stroke="#404040" points="178.5,-334.02 174.5,-328.02 178.5,-322.02 182.5,-328.02 178.5,-334.02"/>
<text text-anchor="middle" x="195.5" y="-498" font-family="Helvetica,sans-Serif" font-size="10.00"> +name</text>
</g>
<!-- Node10 -->
<g id="node10" class="node">
<title>Node10</title>
<g id="a_node10"><a xlink:href="struct__phase__header.html" target="_top" xlink:title=" ">
<polygon fill="none" stroke="black" points="275.5,-524.5 275.5,-581.5 361.5,-581.5 361.5,-524.5 275.5,-524.5"/>
<text text-anchor="middle" x="318.5" y="-569.5" font-family="Helvetica,sans-Serif" font-size="10.00">_phase_header</text>
<polyline fill="none" stroke="black" points="275.5,-562.5 361.5,-562.5 "/>
<text text-anchor="middle" x="318.5" y="-550.5" font-family="Helvetica,sans-Serif" font-size="10.00"> </text>
<polyline fill="none" stroke="black" points="275.5,-543.5 361.5,-543.5 "/>
<text text-anchor="middle" x="318.5" y="-531.5" font-family="Helvetica,sans-Serif" font-size="10.00"> </text>
</a>
</g>
</g>
<!-- Node5&#45;&gt;Node10 -->
<g id="edge10" class="edge">
<title>Node5&#45;&gt;Node10</title>
<path fill="none" stroke="#404040" d="M199.03,-664.38C214.52,-645.7 236.76,-620.22 258.5,-600 262.39,-596.38 266.55,-592.76 270.8,-589.22"/>
<polygon fill="none" stroke="#404040" points="270.83,-589.2 272.98,-582.31 280.16,-581.65 278.01,-588.54 270.83,-589.2"/>
<text text-anchor="middle" x="275.5" y="-619.5" font-family="Helvetica,sans-Serif" font-size="10.00"> +name</text>
</g>
<!-- Node6 -->
<g id="node6" class="node">
<title>Node6</title>
<g id="a_node6"><a xlink:href="struct__phase.html" target="_top" xlink:title=" ">
<polygon fill="none" stroke="black" points="294,-403 294,-460 343,-460 343,-403 294,-403"/>
<text text-anchor="middle" x="318.5" y="-448" font-family="Helvetica,sans-Serif" font-size="10.00">_phase</text>
<polyline fill="none" stroke="black" points="294,-441 343,-441 "/>
<text text-anchor="middle" x="318.5" y="-429" font-family="Helvetica,sans-Serif" font-size="10.00"> </text>
<polyline fill="none" stroke="black" points="294,-422 343,-422 "/>
<text text-anchor="middle" x="318.5" y="-410" font-family="Helvetica,sans-Serif" font-size="10.00"> </text>
</a>
</g>
</g>
<!-- Node6&#45;&gt;Node4 -->
<g id="edge5" class="edge">
<title>Node6&#45;&gt;Node4</title>
<path fill="none" stroke="#404040" d="M302.51,-402.9C292.43,-387.58 278.18,-369.2 261.5,-357 242.78,-343.3 231.18,-352.77 212.5,-339 209.47,-336.76 206.57,-334.19 203.85,-331.42"/>
<polygon fill="none" stroke="#404040" points="203.63,-331.17 196.67,-329.29 195.74,-322.13 202.7,-324.02 203.63,-331.17"/>
<text text-anchor="middle" x="293" y="-360" font-family="Helvetica,sans-Serif" font-size="10.00"> +phases</text>
</g>
<!-- Node7 -->
<g id="node7" class="node">
<title>Node7</title>
<g id="a_node7"><a xlink:href="struct__fomula.html" target="_top" xlink:title=" ">
<polygon fill="none" stroke="black" points="379.5,-524.5 379.5,-581.5 431.5,-581.5 431.5,-524.5 379.5,-524.5"/>
<text text-anchor="middle" x="405.5" y="-569.5" font-family="Helvetica,sans-Serif" font-size="10.00">_fomula</text>
<polyline fill="none" stroke="black" points="379.5,-562.5 431.5,-562.5 "/>
<text text-anchor="middle" x="405.5" y="-550.5" font-family="Helvetica,sans-Serif" font-size="10.00"> </text>
<polyline fill="none" stroke="black" points="379.5,-543.5 431.5,-543.5 "/>
<text text-anchor="middle" x="405.5" y="-531.5" font-family="Helvetica,sans-Serif" font-size="10.00"> </text>
</a>
</g>
</g>
<!-- Node7&#45;&gt;Node6 -->
<g id="edge6" class="edge">
<title>Node7&#45;&gt;Node6</title>
<path fill="none" stroke="#404040" d="M385.32,-524.28C373.57,-508.15 358.6,-487.58 345.81,-470.01"/>
<polygon fill="none" stroke="#404040" points="345.63,-469.77 338.87,-467.27 338.57,-460.07 345.33,-462.56 345.63,-469.77"/>
<text text-anchor="middle" x="385" y="-498" font-family="Helvetica,sans-Serif" font-size="10.00"> +body</text>
</g>
<!-- Node8 -->
<g id="node8" class="node">
<title>Node8</title>
<g id="a_node8"><a xlink:title=" ">
<polygon fill="none" stroke="#bfbfbf" points="440,-662.5 440,-719.5 475,-719.5 475,-662.5 440,-662.5"/>
<text text-anchor="middle" x="457.5" y="-707.5" font-family="Helvetica,sans-Serif" font-size="10.00">float</text>
<polyline fill="none" stroke="#bfbfbf" points="440,-700.5 475,-700.5 "/>
<text text-anchor="middle" x="457.5" y="-688.5" font-family="Helvetica,sans-Serif" font-size="10.00"> </text>
<polyline fill="none" stroke="#bfbfbf" points="440,-681.5 475,-681.5 "/>
<text text-anchor="middle" x="457.5" y="-669.5" font-family="Helvetica,sans-Serif" font-size="10.00"> </text>
</a>
</g>
</g>
<!-- Node8&#45;&gt;Node7 -->
<g id="edge7" class="edge">
<title>Node8&#45;&gt;Node7</title>
<path fill="none" stroke="#404040" d="M453.26,-662.44C449.86,-644.22 444.2,-620.07 435.5,-600 434.42,-597.51 433.21,-595.01 431.92,-592.53"/>
<polygon fill="none" stroke="#404040" points="431.77,-592.27 425.31,-589.06 425.8,-581.86 432.25,-585.08 431.77,-592.27"/>
<text text-anchor="middle" x="492" y="-636" font-family="Helvetica,sans-Serif" font-size="10.00"> +humidHigherLimit</text>
<text text-anchor="middle" x="492" y="-625" font-family="Helvetica,sans-Serif" font-size="10.00">+humidLowerLimit</text>
<text text-anchor="middle" x="492" y="-614" font-family="Helvetica,sans-Serif" font-size="10.00">+tempHigherLimit</text>
<text text-anchor="middle" x="492" y="-603" font-family="Helvetica,sans-Serif" font-size="10.00">+tempLowerLimit</text>
</g>
<!-- Node9 -->
<g id="node9" class="node">
<title>Node9</title>
<g id="a_node9"><a xlink:title=" ">
<polygon fill="none" stroke="#bfbfbf" points="271,-662.5 271,-719.5 328,-719.5 328,-662.5 271,-662.5"/>
<text text-anchor="middle" x="299.5" y="-707.5" font-family="Helvetica,sans-Serif" font-size="10.00">unsigned</text>
<polyline fill="none" stroke="#bfbfbf" points="271,-700.5 328,-700.5 "/>
<text text-anchor="middle" x="299.5" y="-688.5" font-family="Helvetica,sans-Serif" font-size="10.00"> </text>
<polyline fill="none" stroke="#bfbfbf" points="271,-681.5 328,-681.5 "/>
<text text-anchor="middle" x="299.5" y="-669.5" font-family="Helvetica,sans-Serif" font-size="10.00"> </text>
</a>
</g>
</g>
<!-- Node9&#45;&gt;Node4 -->
<g id="edge12" class="edge">
<title>Node9&#45;&gt;Node4</title>
<path fill="none" stroke="#404040" d="M290.99,-662.19C269.88,-593.18 215.03,-413.89 190.57,-333.96"/>
<polygon fill="none" stroke="#404040" points="190.43,-333.49 184.85,-328.92 186.92,-322.02 192.5,-326.58 190.43,-333.49"/>
<text text-anchor="middle" x="257.5" y="-498" font-family="Helvetica,sans-Serif" font-size="10.00"> +days</text>
</g>
<!-- Node9&#45;&gt;Node7 -->
<g id="edge8" class="edge">
<title>Node9&#45;&gt;Node7</title>
<path fill="none" stroke="#404040" d="M328.15,-666.15C335.07,-659.47 342.03,-651.87 347.5,-644 359.65,-626.51 355.27,-618.1 366.5,-600 368.31,-597.08 370.3,-594.15 372.39,-591.27"/>
<polygon fill="none" stroke="#404040" points="372.44,-591.2 372.94,-584.01 379.77,-581.7 379.27,-588.89 372.44,-591.2"/>
<text text-anchor="middle" x="399" y="-625" font-family="Helvetica,sans-Serif" font-size="10.00"> +airFlowLevel</text>
<text text-anchor="middle" x="399" y="-614" font-family="Helvetica,sans-Serif" font-size="10.00">+rollInterval</text>
</g>
<!-- Node9&#45;&gt;Node10 -->
<g id="edge11" class="edge">
<title>Node9&#45;&gt;Node10</title>
<path fill="none" stroke="#404040" d="M297.24,-662.17C296.42,-644.25 296.5,-620.55 300.5,-600 300.92,-597.82 301.45,-595.61 302.04,-593.4"/>
<polygon fill="none" stroke="#404040" points="302.12,-593.16 300.15,-586.22 305.8,-581.74 307.77,-588.67 302.12,-593.16"/>
<text text-anchor="middle" x="324" y="-625" font-family="Helvetica,sans-Serif" font-size="10.00"> +endDate</text>
<text text-anchor="middle" x="324" y="-614" font-family="Helvetica,sans-Serif" font-size="10.00">+startDate</text>
</g>
<!-- Node10&#45;&gt;Node6 -->
<g id="edge9" class="edge">
<title>Node10&#45;&gt;Node6</title>
<path fill="none" stroke="#404040" d="M318.5,-524.28C318.5,-508.9 318.5,-489.49 318.5,-472.49"/>
<polygon fill="none" stroke="#404040" points="318.5,-472.07 314.5,-466.07 318.5,-460.07 322.5,-466.07 318.5,-472.07"/>
<text text-anchor="middle" x="338.5" y="-498" font-family="Helvetica,sans-Serif" font-size="10.00"> +header</text>
</g>
<!-- Node11 -->
<g id="node11" class="node">
<title>Node11</title>
<g id="a_node11"><a xlink:title=" ">
<polygon fill="none" stroke="#bfbfbf" points="221,-265 221,-322 318,-322 318,-265 221,-265"/>
<text text-anchor="middle" x="269.5" y="-310" font-family="Helvetica,sans-Serif" font-size="10.00">vector&lt; _fomula &gt;</text>
<polyline fill="none" stroke="#bfbfbf" points="221,-303 318,-303 "/>
<text text-anchor="middle" x="269.5" y="-291" font-family="Helvetica,sans-Serif" font-size="10.00"> </text>
<polyline fill="none" stroke="#bfbfbf" points="221,-284 318,-284 "/>
<text text-anchor="middle" x="269.5" y="-272" font-family="Helvetica,sans-Serif" font-size="10.00"> </text>
</a>
</g>
</g>
<!-- Node11&#45;&gt;Node1 -->
<g id="edge13" class="edge">
<title>Node11&#45;&gt;Node1</title>
<path fill="none" stroke="#404040" d="M251.32,-264.73C239.89,-247.25 224.38,-223.55 208.72,-199.63"/>
<polygon fill="none" stroke="#404040" points="208.58,-199.42 201.95,-196.59 202.01,-189.38 208.64,-192.21 208.58,-199.42"/>
<text text-anchor="middle" x="251" y="-222" font-family="Helvetica,sans-Serif" font-size="10.00"> &#45;_formulas</text>
</g>
</g>
</svg>
        <g id="navigator" transform="translate(0 0)" fill="#404254">
                <rect fill="#f2f5e9" fill-opacity="0.5" stroke="#606060" stroke-width=".5" x="0" y="0" width="60" height="60"/>
                <use id="zoomplus" xlink:href="#zoomPlus" x="17" y="9" onmousedown="handleZoom(evt,'in')"/>
                <use id="zoomminus" xlink:href="#zoomMin" x="42" y="9" onmousedown="handleZoom(evt,'out')"/>
                <use id="reset" xlink:href="#resetDef" x="30" y="36" onmousedown="handleReset()"/>
                <g id="arrowUp" xlink:href="#dirArrow" transform="translate(30 24)" onmousedown="handlePan(0,-1)">
                  <use xlink:href="#rim" fill="#404040">
                        <set attributeName="fill" to="#808080" begin="arrowUp.mouseover" end="arrowUp.mouseout"/>
                  </use>
                  <path fill="none" stroke="white" stroke-width="1.5" d="M0,-3.0v7 M-2.5,-0.5L0,-3.0L2.5,-0.5"/>
                </g>
                <g id="arrowRight" xlink:href="#dirArrow" transform="rotate(90) translate(36 -43)" onmousedown="handlePan(1,0)">
                  <use xlink:href="#rim" fill="#404040">
                        <set attributeName="fill" to="#808080" begin="arrowRight.mouseover" end="arrowRight.mouseout"/>
                  </use>
                  <path fill="none" stroke="white" stroke-width="1.5" d="M0,-3.0v7 M-2.5,-0.5L0,-3.0L2.5,-0.5"/>
                </g>
                <g id="arrowDown" xlink:href="#dirArrow" transform="rotate(180) translate(-30 -48)" onmousedown="handlePan(0,1)">
                  <use xlink:href="#rim" fill="#404040">
                        <set attributeName="fill" to="#808080" begin="arrowDown.mouseover" end="arrowDown.mouseout"/>
                  </use>
                  <path fill="none" stroke="white" stroke-width="1.5" d="M0,-3.0v7 M-2.5,-0.5L0,-3.0L2.5,-0.5"/>
                </g>
                <g id="arrowLeft" xlink:href="#dirArrow" transform="rotate(270) translate(-36 17)" onmousedown="handlePan(-1,0)">
                  <use xlink:href="#rim" fill="#404040">
                        <set attributeName="fill" to="#808080" begin="arrowLeft.mouseover" end="arrowLeft.mouseout"/>
                  </use>
                  <path fill="none" stroke="white" stroke-width="1.5" d="M0,-3.0v7 M-2.5,-0.5L0,-3.0L2.5,-0.5"/>
                </g>
        </g>
        <svg viewBox="0 0 15 15" width="100%" height="30px" preserveAspectRatio="xMaxYMin meet">
         <g id="arrow_out" transform="scale(0.3 0.3)">
          <a xlink:href="class_env__coll__graph_org.svg" target="_base">
           <rect id="button" ry="5" rx="5" y="6" x="6" height="38" width="38"
                fill="#f2f5e9" fill-opacity="0.5" stroke="#606060" stroke-width="1.0"/>
           <path id="arrow"
             d="M 11.500037,31.436501 C 11.940474,20.09759 22.043105,11.32322 32.158766,21.979434 L 37.068811,17.246167 C 37.068811,17.246167 37.088388,32 37.088388,32 L 22.160133,31.978069 C 22.160133,31.978069 26.997745,27.140456 26.997745,27.140456 C 18.528582,18.264221 13.291696,25.230495 11.500037,31.436501 z"
             style="fill:#404040;"/>
          </a>
         </g>
        </svg>
</svg>
