<?xml version="1.0" encoding="UTF-8" standalone="no"?>
<!DOCTYPE svg PUBLIC "-//W3C//DTD SVG 1.1//EN"
 "http://www.w3.org/Graphics/SVG/1.1/DTD/svg11.dtd">
<!-- Generated by graphviz version 2.48.0 (20210717.1556)
 -->
<!-- Title: Dht22HumidSensor Pages: 1 -->
<svg width="218pt" height="270pt"
 viewBox="0.00 0.00 217.50 270.00" xmlns="http://www.w3.org/2000/svg" xmlns:xlink="http://www.w3.org/1999/xlink">
<g id="graph0" class="graph" transform="scale(1 1) rotate(0) translate(4 266)">
<title>Dht22HumidSensor</title>
<!-- Node1 -->
<g id="node1" class="node">
<title>Node1</title>
<g id="a_node1"><a xlink:title=" ">
<polygon fill="#bfbfbf" stroke="black" points="48,-0.5 48,-112.5 173,-112.5 173,-0.5 48,-0.5"/>
<text text-anchor="middle" x="110.5" y="-100.5" font-family="Helvetica,sans-Serif" font-size="10.00">Dht22HumidSensor</text>
<polyline fill="none" stroke="black" points="48,-93.5 173,-93.5 "/>
<text text-anchor="middle" x="110.5" y="-81.5" font-family="Helvetica,sans-Serif" font-size="10.00"> </text>
<polyline fill="none" stroke="black" points="48,-74.5 173,-74.5 "/>
<text text-anchor="start" x="56" y="-62.5" font-family="Helvetica,sans-Serif" font-size="10.00">+ Dht22HumidSensor()</text>
<text text-anchor="start" x="56" y="-51.5" font-family="Helvetica,sans-Serif" font-size="10.00">+ ~Dht22HumidSensor()</text>
<text text-anchor="start" x="56" y="-40.5" font-family="Helvetica,sans-Serif" font-size="10.00">+ init()</text>
<text text-anchor="start" x="56" y="-29.5" font-family="Helvetica,sans-Serif" font-size="10.00">+ deinit()</text>
<text text-anchor="start" x="56" y="-18.5" font-family="Helvetica,sans-Serif" font-size="10.00">+ get()</text>
<text text-anchor="start" x="56" y="-7.5" font-family="Helvetica,sans-Serif" font-size="10.00">+ getCache()</text>
</a>
</g>
</g>
<!-- Node2 -->
<g id="node2" class="node">
<title>Node2</title>
<g id="a_node2"><a xlink:href="struct_sensor.html" target="_top" xlink:title=" ">
<polygon fill="none" stroke="black" points="0,-160.5 0,-261.5 75,-261.5 75,-160.5 0,-160.5"/>
<text text-anchor="middle" x="37.5" y="-249.5" font-family="Helvetica,sans-Serif" font-size="10.00">Sensor</text>
<polyline fill="none" stroke="black" points="0,-242.5 75,-242.5 "/>
<text text-anchor="middle" x="37.5" y="-230.5" font-family="Helvetica,sans-Serif" font-size="10.00"> </text>
<polyline fill="none" stroke="black" points="0,-223.5 75,-223.5 "/>
<text text-anchor="start" x="8" y="-211.5" font-family="Helvetica,sans-Serif" font-size="10.00">+ ~Sensor()</text>
<text text-anchor="start" x="8" y="-200.5" font-family="Helvetica,sans-Serif" font-size="10.00">+ init()</text>
<text text-anchor="start" x="8" y="-189.5" font-family="Helvetica,sans-Serif" font-size="10.00">+ deinit()</text>
<text text-anchor="start" x="8" y="-178.5" font-family="Helvetica,sans-Serif" font-size="10.00">+ get()</text>
<text text-anchor="start" x="8" y="-167.5" font-family="Helvetica,sans-Serif" font-size="10.00">+ getCache()</text>
</a>
</g>
</g>
<!-- Node2&#45;&gt;Node1 -->
<g id="edge1" class="edge">
<title>Node2&#45;&gt;Node1</title>
<path fill="none" stroke="midnightblue" d="M65.57,-151.35C71.67,-138.61 78.11,-125.17 84.14,-112.57"/>
<polygon fill="none" stroke="midnightblue" points="62.36,-149.96 61.2,-160.49 68.68,-152.98 62.36,-149.96"/>
</g>
<!-- Node3 -->
<g id="node3" class="node">
<title>Node3</title>
<g id="a_node3"><a xlink:title=" ">
<polygon fill="none" stroke="#bfbfbf" points="93,-182.5 93,-239.5 128,-239.5 128,-182.5 93,-182.5"/>
<text text-anchor="middle" x="110.5" y="-227.5" font-family="Helvetica,sans-Serif" font-size="10.00">float</text>
<polyline fill="none" stroke="#bfbfbf" points="93,-220.5 128,-220.5 "/>
<text text-anchor="middle" x="110.5" y="-208.5" font-family="Helvetica,sans-Serif" font-size="10.00"> </text>
<polyline fill="none" stroke="#bfbfbf" points="93,-201.5 128,-201.5 "/>
<text text-anchor="middle" x="110.5" y="-189.5" font-family="Helvetica,sans-Serif" font-size="10.00"> </text>
</a>
</g>
</g>
<!-- Node3&#45;&gt;Node1 -->
<g id="edge2" class="edge">
<title>Node3&#45;&gt;Node1</title>
<path fill="none" stroke="#404040" d="M110.5,-182.38C110.5,-166.24 110.5,-145.11 110.5,-124.84"/>
<polygon fill="none" stroke="#404040" points="110.5,-124.71 106.5,-118.71 110.5,-112.71 114.5,-118.71 110.5,-124.71"/>
<text text-anchor="middle" x="131" y="-134" font-family="Helvetica,sans-Serif" font-size="10.00"> &#45;_lastVal</text>
</g>
<!-- Node4 -->
<g id="node4" class="node">
<title>Node4</title>
<g id="a_node4"><a xlink:title=" ">
<polygon fill="none" stroke="#bfbfbf" points="157,-182.5 157,-239.5 192,-239.5 192,-182.5 157,-182.5"/>
<text text-anchor="middle" x="174.5" y="-227.5" font-family="Helvetica,sans-Serif" font-size="10.00">bool</text>
<polyline fill="none" stroke="#bfbfbf" points="157,-220.5 192,-220.5 "/>
<text text-anchor="middle" x="174.5" y="-208.5" font-family="Helvetica,sans-Serif" font-size="10.00"> </text>
<polyline fill="none" stroke="#bfbfbf" points="157,-201.5 192,-201.5 "/>
<text text-anchor="middle" x="174.5" y="-189.5" font-family="Helvetica,sans-Serif" font-size="10.00"> </text>
</a>
</g>
</g>
<!-- Node4&#45;&gt;Node1 -->
<g id="edge3" class="edge">
<title>Node4&#45;&gt;Node1</title>
<path fill="none" stroke="#404040" d="M168.59,-182.38C164.85,-166.95 159.41,-147.55 152.5,-131 151.47,-128.52 150.36,-126.02 149.21,-123.52"/>
<polygon fill="none" stroke="#404040" points="149.12,-123.34 142.9,-119.69 143.87,-112.55 150.09,-116.19 149.12,-123.34"/>
<text text-anchor="middle" x="183" y="-134" font-family="Helvetica,sans-Serif" font-size="10.00"> &#45;_initialized</text>
</g>
</g>
</svg>
