<?xml version="1.0" encoding="UTF-8" standalone="no"?>
<!DOCTYPE svg PUBLIC "-//W3C//DTD SVG 1.1//EN"
 "http://www.w3.org/Graphics/SVG/1.1/DTD/svg11.dtd">
<!-- Generated by graphviz version 2.48.0 (20210717.1556)
 -->
<!-- Title: Gpio::deinit Pages: 1 -->
<svg width="234pt" height="142pt"
 viewBox="0.00 0.00 234.00 142.00" xmlns="http://www.w3.org/2000/svg" xmlns:xlink="http://www.w3.org/1999/xlink">
<g id="graph0" class="graph" transform="scale(1 1) rotate(0) translate(4 138)">
<title>Gpio::deinit</title>
<!-- Node1 -->
<g id="node1" class="node">
<title>Node1</title>
<g id="a_node1"><a xlink:title=" ">
<polygon fill="#bfbfbf" stroke="black" points="159,-57.5 159,-76.5 226,-76.5 226,-57.5 159,-57.5"/>
<text text-anchor="middle" x="192.5" y="-64.5" font-family="Helvetica,sans-Serif" font-size="10.00">Gpio::deinit</text>
</a>
</g>
</g>
<!-- Node2 -->
<g id="node2" class="node">
<title>Node2</title>
<g id="a_node2"><a xlink:href="class_air_flow_actuator.html#a1256f7df2b79633cd395920795a1b5f5" target="_top" xlink:title=" ">
<polygon fill="none" stroke="black" points="3,-114.5 3,-133.5 120,-133.5 120,-114.5 3,-114.5"/>
<text text-anchor="middle" x="61.5" y="-121.5" font-family="Helvetica,sans-Serif" font-size="10.00">AirFlowActuator::deinit</text>
</a>
</g>
</g>
<!-- Node1&#45;&gt;Node2 -->
<g id="edge1" class="edge">
<title>Node1&#45;&gt;Node2</title>
<path fill="none" stroke="midnightblue" d="M167.73,-81.75C154.82,-89.36 138.39,-98.4 123,-105 114.81,-108.52 105.74,-111.71 97.17,-114.43"/>
<polygon fill="midnightblue" stroke="midnightblue" points="169.67,-84.67 176.44,-76.52 166.07,-78.66 169.67,-84.67"/>
</g>
<!-- Node3 -->
<g id="node3" class="node">
<title>Node3</title>
<g id="a_node3"><a xlink:href="class_dehumid_actuator.html#a7517ddfacd5178a573bb4a5258e4d294" target="_top" xlink:title=" ">
<polygon fill="none" stroke="black" points="0,-76.5 0,-95.5 123,-95.5 123,-76.5 0,-76.5"/>
<text text-anchor="middle" x="61.5" y="-83.5" font-family="Helvetica,sans-Serif" font-size="10.00">DehumidActuator::deinit</text>
</a>
</g>
</g>
<!-- Node1&#45;&gt;Node3 -->
<g id="edge2" class="edge">
<title>Node1&#45;&gt;Node3</title>
<path fill="none" stroke="midnightblue" d="M148.86,-73.28C140.63,-74.49 131.86,-75.78 123.19,-77.06"/>
<polygon fill="midnightblue" stroke="midnightblue" points="149.56,-76.71 158.95,-71.79 148.54,-69.79 149.56,-76.71"/>
</g>
<!-- Node4 -->
<g id="node4" class="node">
<title>Node4</title>
<g id="a_node4"><a xlink:href="class_heat_actuator.html#a91e5ca9580dd31673b6020355ef6035c" target="_top" xlink:title=" ">
<polygon fill="none" stroke="black" points="9.5,-38.5 9.5,-57.5 113.5,-57.5 113.5,-38.5 9.5,-38.5"/>
<text text-anchor="middle" x="61.5" y="-45.5" font-family="Helvetica,sans-Serif" font-size="10.00">HeatActuator::deinit</text>
</a>
</g>
</g>
<!-- Node1&#45;&gt;Node4 -->
<g id="edge3" class="edge">
<title>Node1&#45;&gt;Node4</title>
<path fill="none" stroke="midnightblue" d="M148.91,-60.73C137.62,-59.06 125.32,-57.25 113.62,-55.53"/>
<polygon fill="midnightblue" stroke="midnightblue" points="148.54,-64.21 158.95,-62.21 149.56,-57.29 148.54,-64.21"/>
</g>
<!-- Node5 -->
<g id="node5" class="node">
<title>Node5</title>
<g id="a_node5"><a xlink:href="class_roller_actuator.html#aca0b6c94f85817eb0c60a34ddfda4634" target="_top" xlink:title=" ">
<polygon fill="none" stroke="black" points="7,-0.5 7,-19.5 116,-19.5 116,-0.5 7,-0.5"/>
<text text-anchor="middle" x="61.5" y="-7.5" font-family="Helvetica,sans-Serif" font-size="10.00">RollerActuator::deinit</text>
</a>
</g>
</g>
<!-- Node1&#45;&gt;Node5 -->
<g id="edge4" class="edge">
<title>Node1&#45;&gt;Node5</title>
<path fill="none" stroke="midnightblue" d="M167.73,-52.25C154.82,-44.64 138.39,-35.6 123,-29 114.81,-25.48 105.74,-22.29 97.17,-19.57"/>
<polygon fill="midnightblue" stroke="midnightblue" points="166.07,-55.34 176.44,-57.48 169.67,-49.33 166.07,-55.34"/>
</g>
</g>
</svg>
