<?xml version="1.0" encoding="UTF-8" standalone="no"?>
<!DOCTYPE svg PUBLIC "-//W3C//DTD SVG 1.1//EN"
 "http://www.w3.org/Graphics/SVG/1.1/DTD/svg11.dtd">
<!-- Generated by graphviz version 2.50.0 (20211204.2007)
 -->
<!-- Title: DisplayServer::_updateDisplay Pages: 1 -->
<svg width="493pt" height="142pt"
 viewBox="0.00 0.00 493.00 142.00" xmlns="http://www.w3.org/2000/svg" xmlns:xlink="http://www.w3.org/1999/xlink">
<g id="graph0" class="graph" transform="scale(1 1) rotate(0) translate(4 138)">
<title>DisplayServer::_updateDisplay</title>
<!-- Node1 -->
<g id="node1" class="node">
<title>Node1</title>
<g id="a_node1"><a xlink:title=" ">
<polygon fill="#bfbfbf" stroke="black" points="0,-38.5 0,-57.5 152,-57.5 152,-38.5 0,-38.5"/>
<text text-anchor="middle" x="76" y="-45.5" font-family="Helvetica,sans-Serif" font-size="10.00">DisplayServer::_updateDisplay</text>
</a>
</g>
</g>
<!-- Node2 -->
<g id="node2" class="node">
<title>Node2</title>
<g id="a_node2"><a xlink:href="class_info_panel.html#a06ea1542da8007f88d6db68cbb0cadd1" target="_top" xlink:title=" ">
<polygon fill="none" stroke="black" points="188,-57.5 188,-76.5 314,-76.5 314,-57.5 188,-57.5"/>
<text text-anchor="middle" x="251" y="-64.5" font-family="Helvetica,sans-Serif" font-size="10.00">InfoPanel::drawInfoPanel</text>
</a>
</g>
</g>
<!-- Node1&#45;&gt;Node2 -->
<g id="edge1" class="edge">
<title>Node1&#45;&gt;Node2</title>
<path fill="none" stroke="midnightblue" d="M152.13,-56.25C160.62,-57.18 169.26,-58.13 177.71,-59.06"/>
<polygon fill="midnightblue" stroke="midnightblue" points="177.59,-62.57 187.91,-60.18 178.35,-55.61 177.59,-62.57"/>
</g>
<!-- Node7 -->
<g id="node7" class="node">
<title>Node7</title>
<g id="a_node7"><a xlink:href="_display_server_8cpp.html#a03529396588a5d4dac36c432989fdfaa" target="_top" xlink:title=" ">
<polygon fill="none" stroke="black" points="233.5,-19.5 233.5,-38.5 268.5,-38.5 268.5,-19.5 233.5,-19.5"/>
<text text-anchor="middle" x="251" y="-26.5" font-family="Helvetica,sans-Serif" font-size="10.00">split</text>
</a>
</g>
</g>
<!-- Node1&#45;&gt;Node7 -->
<g id="edge6" class="edge">
<title>Node1&#45;&gt;Node7</title>
<path fill="none" stroke="midnightblue" d="M152.13,-39.75C177.55,-36.96 204.31,-34.02 223.41,-31.92"/>
<polygon fill="midnightblue" stroke="midnightblue" points="223.88,-35.39 233.44,-30.82 223.12,-28.43 223.88,-35.39"/>
</g>
<!-- Node3 -->
<g id="node3" class="node">
<title>Node3</title>
<g id="a_node3"><a xlink:href="class_info_panel.html#a0dc46c497fcc00d1ed813e32c26320bd" target="_top" xlink:title=" ">
<polygon fill="none" stroke="black" points="350,-114.5 350,-133.5 485,-133.5 485,-114.5 350,-114.5"/>
<text text-anchor="middle" x="417.5" y="-121.5" font-family="Helvetica,sans-Serif" font-size="10.00">InfoPanel::_destroyCanvas</text>
</a>
</g>
</g>
<!-- Node2&#45;&gt;Node3 -->
<g id="edge2" class="edge">
<title>Node2&#45;&gt;Node3</title>
<path fill="none" stroke="midnightblue" d="M274.75,-76.51C294.48,-84.58 323.88,-96.22 350,-105 356.65,-107.24 363.74,-109.44 370.7,-111.51"/>
<polygon fill="midnightblue" stroke="midnightblue" points="370.19,-115.01 380.77,-114.44 372.14,-108.29 370.19,-115.01"/>
</g>
<!-- Node4 -->
<g id="node4" class="node">
<title>Node4</title>
<g id="a_node4"><a xlink:href="class_info_panel.html#a7974b73d016dec3017ae6d7aa7fc046e" target="_top" xlink:title=" ">
<polygon fill="none" stroke="black" points="352.5,-76.5 352.5,-95.5 482.5,-95.5 482.5,-76.5 352.5,-76.5"/>
<text text-anchor="middle" x="417.5" y="-83.5" font-family="Helvetica,sans-Serif" font-size="10.00">InfoPanel::_drawSolidLine</text>
</a>
</g>
</g>
<!-- Node2&#45;&gt;Node4 -->
<g id="edge3" class="edge">
<title>Node2&#45;&gt;Node4</title>
<path fill="none" stroke="midnightblue" d="M314.19,-74.18C323.34,-75.24 332.85,-76.34 342.22,-77.42"/>
<polygon fill="midnightblue" stroke="midnightblue" points="341.97,-80.91 352.31,-78.59 342.77,-73.96 341.97,-80.91"/>
</g>
<!-- Node5 -->
<g id="node5" class="node">
<title>Node5</title>
<g id="a_node5"><a xlink:href="class_info_panel.html#ad998de9843ed1dd96325903697c9bab0" target="_top" xlink:title=" ">
<polygon fill="none" stroke="black" points="350,-38.5 350,-57.5 485,-57.5 485,-38.5 350,-38.5"/>
<text text-anchor="middle" x="417.5" y="-45.5" font-family="Helvetica,sans-Serif" font-size="10.00">InfoPanel::_prepareCanvas</text>
</a>
</g>
</g>
<!-- Node2&#45;&gt;Node5 -->
<g id="edge4" class="edge">
<title>Node2&#45;&gt;Node5</title>
<path fill="none" stroke="midnightblue" d="M314.19,-59.82C322.56,-58.85 331.23,-57.85 339.81,-56.86"/>
<polygon fill="midnightblue" stroke="midnightblue" points="340.3,-60.32 349.83,-55.7 339.49,-53.37 340.3,-60.32"/>
</g>
<!-- Node6 -->
<g id="node6" class="node">
<title>Node6</title>
<g id="a_node6"><a xlink:href="class_info_panel.html#a3d2ccd85850cab49479882271dd15915" target="_top" xlink:title=" ">
<polygon fill="none" stroke="black" points="351,-0.5 351,-19.5 484,-19.5 484,-0.5 351,-0.5"/>
<text text-anchor="middle" x="417.5" y="-7.5" font-family="Helvetica,sans-Serif" font-size="10.00">InfoPanel::_refreshCanvas</text>
</a>
</g>
</g>
<!-- Node2&#45;&gt;Node6 -->
<g id="edge5" class="edge">
<title>Node2&#45;&gt;Node6</title>
<path fill="none" stroke="midnightblue" d="M287.17,-57.48C296.04,-54.74 305.47,-51.52 314,-48 330.72,-41.1 333.21,-35.74 350,-29 355.85,-26.65 362.1,-24.47 368.33,-22.48"/>
<polygon fill="midnightblue" stroke="midnightblue" points="369.51,-25.78 378.06,-19.52 367.48,-19.08 369.51,-25.78"/>
</g>
</g>
</svg>
