<?xml version="1.0" encoding="UTF-8" standalone="no"?>
<!DOCTYPE svg PUBLIC "-//W3C//DTD SVG 1.1//EN"
 "http://www.w3.org/Graphics/SVG/1.1/DTD/svg11.dtd">
<!-- Generated by graphviz version 2.48.0 (20210717.1556)
 -->
<!-- Title: AirFlowActuator::deinit Pages: 1 -->
<svg width="263pt" height="78pt"
 viewBox="0.00 0.00 263.00 77.50" xmlns="http://www.w3.org/2000/svg" xmlns:xlink="http://www.w3.org/1999/xlink">
<g id="graph0" class="graph" transform="scale(1 1) rotate(0) translate(4 73.5)">
<title>AirFlowActuator::deinit</title>
<!-- Node1 -->
<g id="node1" class="node">
<title>Node1</title>
<g id="a_node1"><a xlink:title=" ">
<polygon fill="#bfbfbf" stroke="black" points="0,-28 0,-47 117,-47 117,-28 0,-28"/>
<text text-anchor="middle" x="58.5" y="-35" font-family="Helvetica,sans-Serif" font-size="10.00">AirFlowActuator::deinit</text>
</a>
</g>
</g>
<!-- Node2 -->
<g id="node2" class="node">
<title>Node2</title>
<g id="a_node2"><a xlink:href="class_gpio.html#a7b51caf5fd923221806206f1d28736ee" target="_top" xlink:title=" ">
<polygon fill="none" stroke="black" points="170.5,-50 170.5,-69 237.5,-69 237.5,-50 170.5,-50"/>
<text text-anchor="middle" x="204" y="-57" font-family="Helvetica,sans-Serif" font-size="10.00">Gpio::deinit</text>
</a>
</g>
</g>
<!-- Node1&#45;&gt;Node2 -->
<g id="edge1" class="edge">
<title>Node1&#45;&gt;Node2</title>
<path fill="none" stroke="midnightblue" d="M117.04,-46.32C131.46,-48.53 146.67,-50.86 160.22,-52.94"/>
<polygon fill="midnightblue" stroke="midnightblue" points="159.81,-56.42 170.22,-54.48 160.87,-49.5 159.81,-56.42"/>
</g>
<!-- Node3 -->
<g id="node3" class="node">
<title>Node3</title>
<g id="a_node3"><a xlink:href="class_singleton.html#a8ec70839501fe76ec61195233d8fdb62" target="_top" xlink:title=" ">
<polygon fill="none" stroke="black" points="153,-0.5 153,-30.5 255,-30.5 255,-0.5 153,-0.5"/>
<text text-anchor="start" x="161" y="-18.5" font-family="Helvetica,sans-Serif" font-size="10.00">Singleton&lt; Gpio &gt;::</text>
<text text-anchor="middle" x="204" y="-7.5" font-family="Helvetica,sans-Serif" font-size="10.00">getInstance</text>
</a>
</g>
</g>
<!-- Node1&#45;&gt;Node3 -->
<g id="edge2" class="edge">
<title>Node1&#45;&gt;Node3</title>
<path fill="none" stroke="midnightblue" d="M117.04,-28.68C125.56,-27.37 134.36,-26.02 142.92,-24.71"/>
<polygon fill="midnightblue" stroke="midnightblue" points="143.49,-28.16 152.85,-23.19 142.43,-21.24 143.49,-28.16"/>
</g>
</g>
</svg>
