<?xml version="1.0" encoding="UTF-8" standalone="no"?>
<!DOCTYPE svg PUBLIC "-//W3C//DTD SVG 1.1//EN"
 "http://www.w3.org/Graphics/SVG/1.1/DTD/svg11.dtd">
<!-- Generated by graphviz version 2.50.0 (20211204.2007)
 -->
<!-- Title: Gpio::init Pages: 1 -->
<svg width="221pt" height="294pt"
 viewBox="0.00 0.00 221.00 294.00" xmlns="http://www.w3.org/2000/svg" xmlns:xlink="http://www.w3.org/1999/xlink">
<g id="graph0" class="graph" transform="scale(1 1) rotate(0) translate(4 290)">
<title>Gpio::init</title>
<!-- Node1 -->
<g id="node1" class="node">
<title>Node1</title>
<g id="a_node1"><a xlink:title=" ">
<polygon fill="#bfbfbf" stroke="black" points="157,-133.5 157,-152.5 213,-152.5 213,-133.5 157,-133.5"/>
<text text-anchor="middle" x="185" y="-140.5" font-family="Helvetica,sans-Serif" font-size="10.00">Gpio::init</text>
</a>
</g>
</g>
<!-- Node2 -->
<g id="node2" class="node">
<title>Node2</title>
<g id="a_node2"><a xlink:href="class_air_flow_actuator.html#a6b2bc0b994e494e9419eb8782e910a38" target="_top" xlink:title=" ">
<polygon fill="none" stroke="black" points="8,-266.5 8,-285.5 113,-285.5 113,-266.5 8,-266.5"/>
<text text-anchor="middle" x="60.5" y="-273.5" font-family="Helvetica,sans-Serif" font-size="10.00">AirFlowActuator::init</text>
</a>
</g>
</g>
<!-- Node1&#45;&gt;Node2 -->
<g id="edge1" class="edge">
<title>Node1&#45;&gt;Node2</title>
<path fill="none" stroke="midnightblue" d="M178.38,-162.09C169.97,-187.39 151.74,-231.76 121,-257 116.31,-260.85 110.82,-263.93 105.11,-266.39"/>
<polygon fill="midnightblue" stroke="midnightblue" points="181.73,-163.12 181.39,-152.53 175.05,-161.02 181.73,-163.12"/>
</g>
<!-- Node3 -->
<g id="node3" class="node">
<title>Node3</title>
<g id="a_node3"><a xlink:href="class_dehumid_actuator.html#ac1a6e7d3ac470e387d52f6661416de80" target="_top" xlink:title=" ">
<polygon fill="none" stroke="black" points="5,-228.5 5,-247.5 116,-247.5 116,-228.5 5,-228.5"/>
<text text-anchor="middle" x="60.5" y="-235.5" font-family="Helvetica,sans-Serif" font-size="10.00">DehumidActuator::init</text>
</a>
</g>
</g>
<!-- Node1&#45;&gt;Node3 -->
<g id="edge2" class="edge">
<title>Node1&#45;&gt;Node3</title>
<path fill="none" stroke="midnightblue" d="M173.19,-161.3C162.13,-178.52 143.41,-203.87 121,-219 115.34,-222.82 108.86,-225.91 102.31,-228.4"/>
<polygon fill="midnightblue" stroke="midnightblue" points="176.24,-163.02 178.53,-152.68 170.29,-159.34 176.24,-163.02"/>
</g>
<!-- Node4 -->
<g id="node4" class="node">
<title>Node4</title>
<g id="a_node4"><a xlink:href="class_dht22_humid_sensor.html#a87e123fd6acf3f0348eb96b0ca2a29af" target="_top" xlink:title=" ">
<polygon fill="none" stroke="black" points="0,-190.5 0,-209.5 121,-209.5 121,-190.5 0,-190.5"/>
<text text-anchor="middle" x="60.5" y="-197.5" font-family="Helvetica,sans-Serif" font-size="10.00">Dht22HumidSensor::init</text>
</a>
</g>
</g>
<!-- Node1&#45;&gt;Node4 -->
<g id="edge3" class="edge">
<title>Node1&#45;&gt;Node4</title>
<path fill="none" stroke="midnightblue" d="M161.35,-158.43C149.66,-165.93 134.95,-174.67 121,-181 113.1,-184.58 104.33,-187.78 96,-190.49"/>
<polygon fill="midnightblue" stroke="midnightblue" points="163.57,-161.16 170.01,-152.75 159.73,-155.31 163.57,-161.16"/>
</g>
<!-- Node5 -->
<g id="node5" class="node">
<title>Node5</title>
<g id="a_node5"><a xlink:href="class_dht22_temp_sensor.html#a7ebd60725960abd1e8e494dadb08416b" target="_top" xlink:title=" ">
<polygon fill="none" stroke="black" points="2.5,-152.5 2.5,-171.5 118.5,-171.5 118.5,-152.5 2.5,-152.5"/>
<text text-anchor="middle" x="60.5" y="-159.5" font-family="Helvetica,sans-Serif" font-size="10.00">Dht22TempSensor::init</text>
</a>
</g>
</g>
<!-- Node1&#45;&gt;Node5 -->
<g id="edge4" class="edge">
<title>Node1&#45;&gt;Node5</title>
<path fill="none" stroke="midnightblue" d="M146.82,-148.77C137.94,-150.14 128.26,-151.65 118.72,-153.13"/>
<polygon fill="midnightblue" stroke="midnightblue" points="147.47,-152.21 156.81,-147.22 146.39,-145.29 147.47,-152.21"/>
</g>
<!-- Node6 -->
<g id="node6" class="node">
<title>Node6</title>
<g id="a_node6"><a xlink:href="class_heat_actuator.html#a3763844e43abebfe0f0812dd39fdc8e8" target="_top" xlink:title=" ">
<polygon fill="none" stroke="black" points="14,-114.5 14,-133.5 107,-133.5 107,-114.5 14,-114.5"/>
<text text-anchor="middle" x="60.5" y="-121.5" font-family="Helvetica,sans-Serif" font-size="10.00">HeatActuator::init</text>
</a>
</g>
</g>
<!-- Node1&#45;&gt;Node6 -->
<g id="edge5" class="edge">
<title>Node1&#45;&gt;Node6</title>
<path fill="none" stroke="midnightblue" d="M146.8,-137.23C134.38,-135.3 120.39,-133.13 107.38,-131.12"/>
<polygon fill="midnightblue" stroke="midnightblue" points="146.39,-140.71 156.81,-138.78 147.47,-133.79 146.39,-140.71"/>
</g>
<!-- Node7 -->
<g id="node7" class="node">
<title>Node7</title>
<g id="a_node7"><a xlink:href="class_heat_flow_actuator.html#af4fcb58b03a966e96439f11ec71a7c5a" target="_top" xlink:title=" ">
<polygon fill="none" stroke="black" points="3.5,-76.5 3.5,-95.5 117.5,-95.5 117.5,-76.5 3.5,-76.5"/>
<text text-anchor="middle" x="60.5" y="-83.5" font-family="Helvetica,sans-Serif" font-size="10.00">HeatFlowActuator::init</text>
</a>
</g>
</g>
<!-- Node1&#45;&gt;Node7 -->
<g id="edge6" class="edge">
<title>Node1&#45;&gt;Node7</title>
<path fill="none" stroke="midnightblue" d="M161.35,-127.57C149.66,-120.07 134.95,-111.33 121,-105 113.1,-101.42 104.33,-98.22 96,-95.51"/>
<polygon fill="midnightblue" stroke="midnightblue" points="159.73,-130.69 170.01,-133.25 163.57,-124.84 159.73,-130.69"/>
</g>
<!-- Node8 -->
<g id="node8" class="node">
<title>Node8</title>
<g id="a_node8"><a xlink:href="class_humid_actuator.html#a47d331f7d950b00d53dd18ffb6f1ecaf" target="_top" xlink:title=" ">
<polygon fill="none" stroke="black" points="10,-38.5 10,-57.5 111,-57.5 111,-38.5 10,-38.5"/>
<text text-anchor="middle" x="60.5" y="-45.5" font-family="Helvetica,sans-Serif" font-size="10.00">HumidActuator::init</text>
</a>
</g>
</g>
<!-- Node1&#45;&gt;Node8 -->
<g id="edge7" class="edge">
<title>Node1&#45;&gt;Node8</title>
<path fill="none" stroke="midnightblue" d="M173.19,-124.7C162.13,-107.48 143.41,-82.13 121,-67 115.34,-63.18 108.86,-60.09 102.31,-57.6"/>
<polygon fill="midnightblue" stroke="midnightblue" points="170.29,-126.66 178.53,-133.32 176.24,-122.98 170.29,-126.66"/>
</g>
<!-- Node9 -->
<g id="node9" class="node">
<title>Node9</title>
<g id="a_node9"><a xlink:href="class_roller_actuator.html#aa542794216c9ccbc027da1dddc858ce9" target="_top" xlink:title=" ">
<polygon fill="none" stroke="black" points="11.5,-0.5 11.5,-19.5 109.5,-19.5 109.5,-0.5 11.5,-0.5"/>
<text text-anchor="middle" x="60.5" y="-7.5" font-family="Helvetica,sans-Serif" font-size="10.00">RollerActuator::init</text>
</a>
</g>
</g>
<!-- Node1&#45;&gt;Node9 -->
<g id="edge8" class="edge">
<title>Node1&#45;&gt;Node9</title>
<path fill="none" stroke="midnightblue" d="M178.38,-123.91C169.97,-98.61 151.74,-54.24 121,-29 116.31,-25.15 110.82,-22.07 105.11,-19.61"/>
<polygon fill="midnightblue" stroke="midnightblue" points="175.05,-124.98 181.39,-133.47 181.73,-122.88 175.05,-124.98"/>
</g>
</g>
</svg>
