<?xml version="1.0" encoding="UTF-8" standalone="no"?>
<!DOCTYPE svg PUBLIC "-//W3C//DTD SVG 1.1//EN"
 "http://www.w3.org/Graphics/SVG/1.1/DTD/svg11.dtd">
<!-- Generated by graphviz version 2.50.0 (20211204.2007)
 -->
<!-- Title: Incubator Pages: 1 -->
<svg width="1271pt" height="1078pt"
 viewBox="0.00 0.00 1271.00 1078.00" xmlns="http://www.w3.org/2000/svg" xmlns:xlink="http://www.w3.org/1999/xlink">
<g id="graph0" class="graph" transform="scale(1 1) rotate(0) translate(4 1074)">
<title>Incubator</title>
<!-- Node1 -->
<g id="node1" class="node">
<title>Node1</title>
<g id="a_node1"><a xlink:title=" ">
<polygon fill="#bfbfbf" stroke="black" points="734,-0.5 734,-145.5 820,-145.5 820,-0.5 734,-0.5"/>
<text text-anchor="middle" x="777" y="-133.5" font-family="Helvetica,sans-Serif" font-size="10.00">Incubator</text>
<polyline fill="none" stroke="black" points="734,-126.5 820,-126.5 "/>
<text text-anchor="middle" x="777" y="-114.5" font-family="Helvetica,sans-Serif" font-size="10.00"> </text>
<polyline fill="none" stroke="black" points="734,-107.5 820,-107.5 "/>
<text text-anchor="start" x="742" y="-95.5" font-family="Helvetica,sans-Serif" font-size="10.00">+ Incubator()</text>
<text text-anchor="start" x="742" y="-84.5" font-family="Helvetica,sans-Serif" font-size="10.00">+ ~Incubator()</text>
<text text-anchor="start" x="742" y="-73.5" font-family="Helvetica,sans-Serif" font-size="10.00">+ init()</text>
<text text-anchor="start" x="742" y="-62.5" font-family="Helvetica,sans-Serif" font-size="10.00">+ deinit()</text>
<text text-anchor="start" x="742" y="-51.5" font-family="Helvetica,sans-Serif" font-size="10.00">+ runLoop()</text>
<text text-anchor="start" x="742" y="-40.5" font-family="Helvetica,sans-Serif" font-size="10.00">+ newSession()</text>
<text text-anchor="start" x="742" y="-29.5" font-family="Helvetica,sans-Serif" font-size="10.00">+ updatePanel()</text>
<text text-anchor="start" x="742" y="-18.5" font-family="Helvetica,sans-Serif" font-size="10.00">&#45; _run()</text>
<text text-anchor="start" x="742" y="-7.5" font-family="Helvetica,sans-Serif" font-size="10.00">&#45; _run4Roller()</text>
</a>
</g>
</g>
<!-- Node2 -->
<g id="node2" class="node">
<title>Node2</title>
<g id="a_node2"><a xlink:href="class_singleton.html" target="_top" xlink:title=" ">
<polygon fill="none" stroke="black" points="250,-467.5 250,-557.5 366,-557.5 366,-467.5 250,-467.5"/>
<text text-anchor="middle" x="308" y="-545.5" font-family="Helvetica,sans-Serif" font-size="10.00">Singleton&lt; Incubator &gt;</text>
<polyline fill="none" stroke="black" points="250,-538.5 366,-538.5 "/>
<text text-anchor="middle" x="308" y="-526.5" font-family="Helvetica,sans-Serif" font-size="10.00"> </text>
<polyline fill="none" stroke="black" points="250,-519.5 366,-519.5 "/>
<text text-anchor="start" x="258" y="-507.5" font-family="Helvetica,sans-Serif" font-size="10.00">+ getInstance()</text>
<text text-anchor="start" x="258" y="-496.5" font-family="Helvetica,sans-Serif" font-size="10.00"># Singleton()</text>
<text text-anchor="start" x="258" y="-485.5" font-family="Helvetica,sans-Serif" font-size="10.00">&#45; Singleton()</text>
<text text-anchor="start" x="258" y="-474.5" font-family="Helvetica,sans-Serif" font-size="10.00">&#45; operator=()</text>
</a>
</g>
</g>
<!-- Node2&#45;&gt;Node1 -->
<g id="edge1" class="edge">
<title>Node2&#45;&gt;Node1</title>
<path fill="none" stroke="midnightblue" d="M302.26,-456.97C297.48,-380.67 301.18,-242.61 378,-164 427.38,-113.47 641.09,-87.11 733.81,-77.88"/>
<polygon fill="none" stroke="midnightblue" points="298.79,-457.58 302.99,-467.31 305.78,-457.09 298.79,-457.58"/>
</g>
<!-- Node3 -->
<g id="node3" class="node">
<title>Node3</title>
<g id="a_node3"><a xlink:href="class_singleton.html" target="_top" xlink:title=" ">
<polygon fill="none" stroke="black" points="303.5,-714.5 303.5,-804.5 386.5,-804.5 386.5,-714.5 303.5,-714.5"/>
<text text-anchor="middle" x="345" y="-792.5" font-family="Helvetica,sans-Serif" font-size="10.00">Singleton&lt; T &gt;</text>
<polyline fill="none" stroke="black" points="303.5,-785.5 386.5,-785.5 "/>
<text text-anchor="middle" x="345" y="-773.5" font-family="Helvetica,sans-Serif" font-size="10.00"> </text>
<polyline fill="none" stroke="black" points="303.5,-766.5 386.5,-766.5 "/>
<text text-anchor="start" x="311.5" y="-754.5" font-family="Helvetica,sans-Serif" font-size="10.00">+ getInstance()</text>
<text text-anchor="start" x="311.5" y="-743.5" font-family="Helvetica,sans-Serif" font-size="10.00"># Singleton()</text>
<text text-anchor="start" x="311.5" y="-732.5" font-family="Helvetica,sans-Serif" font-size="10.00">&#45; Singleton()</text>
<text text-anchor="start" x="311.5" y="-721.5" font-family="Helvetica,sans-Serif" font-size="10.00">&#45; operator=()</text>
</a>
</g>
</g>
<!-- Node3&#45;&gt;Node2 -->
<g id="edge2" class="edge">
<title>Node3&#45;&gt;Node2</title>
<path fill="none" stroke="orange" d="M294.18,-737C265.59,-721.95 232.43,-698.81 216,-667 197.43,-631.07 197.07,-611.74 216,-576 223.68,-561.5 236.4,-549.73 249.97,-540.49"/>
<polygon fill="orange" stroke="orange" points="292.77,-740.21 303.27,-741.61 295.93,-733.97 292.77,-740.21"/>
<text text-anchor="middle" x="267" y="-688" font-family="Helvetica,sans-Serif" font-size="10.00"> &lt; Incubator &gt;</text>
</g>
<!-- Node10 -->
<g id="node10" class="node">
<title>Node10</title>
<g id="a_node10"><a xlink:href="class_singleton.html" target="_top" xlink:title=" ">
<polygon fill="none" stroke="black" points="429,-576.5 429,-666.5 521,-666.5 521,-576.5 429,-576.5"/>
<text text-anchor="middle" x="475" y="-654.5" font-family="Helvetica,sans-Serif" font-size="10.00">Singleton&lt; Env &gt;</text>
<polyline fill="none" stroke="black" points="429,-647.5 521,-647.5 "/>
<text text-anchor="middle" x="475" y="-635.5" font-family="Helvetica,sans-Serif" font-size="10.00"> </text>
<polyline fill="none" stroke="black" points="429,-628.5 521,-628.5 "/>
<text text-anchor="start" x="437" y="-616.5" font-family="Helvetica,sans-Serif" font-size="10.00">+ getInstance()</text>
<text text-anchor="start" x="437" y="-605.5" font-family="Helvetica,sans-Serif" font-size="10.00"># Singleton()</text>
<text text-anchor="start" x="437" y="-594.5" font-family="Helvetica,sans-Serif" font-size="10.00">&#45; Singleton()</text>
<text text-anchor="start" x="437" y="-583.5" font-family="Helvetica,sans-Serif" font-size="10.00">&#45; operator=()</text>
</a>
</g>
</g>
<!-- Node3&#45;&gt;Node10 -->
<g id="edge10" class="edge">
<title>Node3&#45;&gt;Node10</title>
<path fill="none" stroke="orange" d="M394.99,-725.4C406.51,-716.58 418.23,-706.54 428,-696 436.13,-687.22 443.72,-676.86 450.33,-666.73"/>
<polygon fill="orange" stroke="orange" points="392.6,-722.81 386.67,-731.59 396.78,-728.43 392.6,-722.81"/>
<text text-anchor="middle" x="457.5" y="-688" font-family="Helvetica,sans-Serif" font-size="10.00"> &lt; Env &gt;</text>
</g>
<!-- Node19 -->
<g id="node19" class="node">
<title>Node19</title>
<g id="a_node19"><a xlink:href="class_singleton.html" target="_top" xlink:title=" ">
<polygon fill="none" stroke="black" points="279,-576.5 279,-666.5 411,-666.5 411,-576.5 279,-576.5"/>
<text text-anchor="middle" x="345" y="-654.5" font-family="Helvetica,sans-Serif" font-size="10.00">Singleton&lt; SessionTime &gt;</text>
<polyline fill="none" stroke="black" points="279,-647.5 411,-647.5 "/>
<text text-anchor="middle" x="345" y="-635.5" font-family="Helvetica,sans-Serif" font-size="10.00"> </text>
<polyline fill="none" stroke="black" points="279,-628.5 411,-628.5 "/>
<text text-anchor="start" x="287" y="-616.5" font-family="Helvetica,sans-Serif" font-size="10.00">+ getInstance()</text>
<text text-anchor="start" x="287" y="-605.5" font-family="Helvetica,sans-Serif" font-size="10.00"># Singleton()</text>
<text text-anchor="start" x="287" y="-594.5" font-family="Helvetica,sans-Serif" font-size="10.00">&#45; Singleton()</text>
<text text-anchor="start" x="287" y="-583.5" font-family="Helvetica,sans-Serif" font-size="10.00">&#45; operator=()</text>
</a>
</g>
</g>
<!-- Node3&#45;&gt;Node19 -->
<g id="edge25" class="edge">
<title>Node3&#45;&gt;Node19</title>
<path fill="none" stroke="orange" d="M345,-704.15C345,-691.78 345,-678.79 345,-666.9"/>
<polygon fill="orange" stroke="orange" points="341.5,-704.34 345,-714.34 348.5,-704.34 341.5,-704.34"/>
<text text-anchor="middle" x="384.5" y="-688" font-family="Helvetica,sans-Serif" font-size="10.00"> &lt; SessionTime &gt;</text>
</g>
<!-- Node4 -->
<g id="node4" class="node">
<title>Node4</title>
<g id="a_node4"><a xlink:title=" ">
<polygon fill="none" stroke="#bfbfbf" points="225.5,-593 225.5,-650 260.5,-650 260.5,-593 225.5,-593"/>
<text text-anchor="middle" x="243" y="-638" font-family="Helvetica,sans-Serif" font-size="10.00">bool</text>
<polyline fill="none" stroke="#bfbfbf" points="225.5,-631 260.5,-631 "/>
<text text-anchor="middle" x="243" y="-619" font-family="Helvetica,sans-Serif" font-size="10.00"> </text>
<polyline fill="none" stroke="#bfbfbf" points="225.5,-612 260.5,-612 "/>
<text text-anchor="middle" x="243" y="-600" font-family="Helvetica,sans-Serif" font-size="10.00"> </text>
</a>
</g>
</g>
<!-- Node4&#45;&gt;Node1 -->
<g id="edge3" class="edge">
<title>Node4&#45;&gt;Node1</title>
<path fill="none" stroke="#404040" d="M254.97,-592.55C258.9,-586.23 263.87,-580.17 270,-576 309.14,-549.36 342.66,-592.58 375,-558 422.31,-507.42 366.93,-304.48 407,-248 482.09,-142.16 638.62,-98.75 721.98,-82.58"/>
<polygon fill="none" stroke="#404040" points="722.18,-82.54 727.34,-77.51 733.97,-80.35 728.81,-85.38 722.18,-82.54"/>
<text text-anchor="middle" x="433" y="-346" font-family="Helvetica,sans-Serif" font-size="10.00"> &#45;_initialized</text>
</g>
<!-- Node18 -->
<g id="node18" class="node">
<title>Node18</title>
<g id="a_node18"><a xlink:href="class_session_time.html" target="_top" xlink:title=" ">
<polygon fill="none" stroke="black" points="468.5,-265 468.5,-432 563.5,-432 563.5,-265 468.5,-265"/>
<text text-anchor="middle" x="516" y="-420" font-family="Helvetica,sans-Serif" font-size="10.00">SessionTime</text>
<polyline fill="none" stroke="black" points="468.5,-413 563.5,-413 "/>
<text text-anchor="middle" x="516" y="-401" font-family="Helvetica,sans-Serif" font-size="10.00"> </text>
<polyline fill="none" stroke="black" points="468.5,-394 563.5,-394 "/>
<text text-anchor="start" x="476.5" y="-382" font-family="Helvetica,sans-Serif" font-size="10.00">+ SessionTime()</text>
<text text-anchor="start" x="476.5" y="-371" font-family="Helvetica,sans-Serif" font-size="10.00">+ ~SessionTime()</text>
<text text-anchor="start" x="476.5" y="-360" font-family="Helvetica,sans-Serif" font-size="10.00">+ init()</text>
<text text-anchor="start" x="476.5" y="-349" font-family="Helvetica,sans-Serif" font-size="10.00">+ deinit()</text>
<text text-anchor="start" x="476.5" y="-338" font-family="Helvetica,sans-Serif" font-size="10.00">+ getStart()</text>
<text text-anchor="start" x="476.5" y="-327" font-family="Helvetica,sans-Serif" font-size="10.00">+ setStart()</text>
<text text-anchor="start" x="476.5" y="-316" font-family="Helvetica,sans-Serif" font-size="10.00">+ getCurrent()</text>
<text text-anchor="start" x="476.5" y="-305" font-family="Helvetica,sans-Serif" font-size="10.00">+ getElapsed()</text>
<text text-anchor="start" x="476.5" y="-294" font-family="Helvetica,sans-Serif" font-size="10.00">+ daysPassed()</text>
<text text-anchor="start" x="476.5" y="-283" font-family="Helvetica,sans-Serif" font-size="10.00">&#45; _fileExist()</text>
<text text-anchor="start" x="476.5" y="-272" font-family="Helvetica,sans-Serif" font-size="10.00">&#45; _createFile()</text>
</a>
</g>
</g>
<!-- Node4&#45;&gt;Node18 -->
<g id="edge26" class="edge">
<title>Node4&#45;&gt;Node18</title>
<path fill="none" stroke="#404040" d="M254.59,-592.86C258.56,-586.38 263.65,-580.16 270,-576 320.28,-543.1 359.37,-598.23 404,-558 434.91,-530.14 403.86,-502.23 426,-467 432.72,-456.3 439.46,-458.31 448,-449 452.38,-444.23 456.69,-439.16 460.89,-433.93"/>
<polygon fill="none" stroke="#404040" points="460.94,-433.85 461.47,-426.66 468.31,-424.38 467.79,-431.57 460.94,-433.85"/>
<text text-anchor="middle" x="452" y="-510" font-family="Helvetica,sans-Serif" font-size="10.00"> &#45;_initialized</text>
</g>
<!-- Node5 -->
<g id="node5" class="node">
<title>Node5</title>
<g id="a_node5"><a xlink:title=" ">
<polygon fill="none" stroke="#bfbfbf" points="1024,-1012.5 1024,-1069.5 1080,-1069.5 1080,-1012.5 1024,-1012.5"/>
<text text-anchor="middle" x="1052" y="-1057.5" font-family="Helvetica,sans-Serif" font-size="10.00">unsigned</text>
<polyline fill="none" stroke="#bfbfbf" points="1024,-1050.5 1080,-1050.5 "/>
<text text-anchor="middle" x="1052" y="-1038.5" font-family="Helvetica,sans-Serif" font-size="10.00"> </text>
<polyline fill="none" stroke="#bfbfbf" points="1024,-1031.5 1080,-1031.5 "/>
<text text-anchor="middle" x="1052" y="-1019.5" font-family="Helvetica,sans-Serif" font-size="10.00"> </text>
</a>
</g>
</g>
<!-- Node5&#45;&gt;Node1 -->
<g id="edge4" class="edge">
<title>Node5&#45;&gt;Node1</title>
<path fill="none" stroke="#404040" d="M1080.09,-1036.09C1107.21,-1030.93 1147.78,-1019.31 1173,-994 1206.86,-960.03 1211,-940.96 1211,-893 1211,-893 1211,-893 1211,-347.5 1211,-265.71 1250.81,-225.6 1197,-164 1149.67,-109.81 935.09,-86.18 832.26,-77.83"/>
<polygon fill="none" stroke="#404040" points="831.96,-77.8 825.67,-81.32 820,-76.86 826.3,-73.35 831.96,-77.8"/>
<text text-anchor="middle" x="1237" y="-688" font-family="Helvetica,sans-Serif" font-size="10.00"> &#45;_runCount</text>
</g>
<!-- Node12 -->
<g id="node12" class="node">
<title>Node12</title>
<g id="a_node12"><a xlink:href="struct__config.html" target="_top" xlink:title=" ">
<polygon fill="none" stroke="black" points="664,-593 664,-650 712,-650 712,-593 664,-593"/>
<text text-anchor="middle" x="688" y="-638" font-family="Helvetica,sans-Serif" font-size="10.00">_config</text>
<polyline fill="none" stroke="black" points="664,-631 712,-631 "/>
<text text-anchor="middle" x="688" y="-619" font-family="Helvetica,sans-Serif" font-size="10.00"> </text>
<polyline fill="none" stroke="black" points="664,-612 712,-612 "/>
<text text-anchor="middle" x="688" y="-600" font-family="Helvetica,sans-Serif" font-size="10.00"> </text>
</a>
</g>
</g>
<!-- Node5&#45;&gt;Node12 -->
<g id="edge14" class="edge">
<title>Node5&#45;&gt;Node12</title>
<path fill="none" stroke="#404040" d="M1034.72,-1012.01C1031.75,-1006.23 1028.98,-1000.05 1027,-994 1017.23,-964.16 1010.14,-737.22 989,-714 926.95,-645.84 874.34,-696.48 787,-667 765.27,-659.66 741.81,-649.24 723.2,-640.33"/>
<polygon fill="none" stroke="#404040" points="723.07,-640.27 715.93,-641.24 712.29,-635.01 719.43,-634.05 723.07,-640.27"/>
<text text-anchor="middle" x="1025.5" y="-826" font-family="Helvetica,sans-Serif" font-size="10.00"> +days</text>
</g>
<!-- Node14 -->
<g id="node14" class="node">
<title>Node14</title>
<g id="a_node14"><a xlink:href="struct__phase__header.html" target="_top" xlink:title=" ">
<polygon fill="none" stroke="black" points="677.5,-863.5 677.5,-920.5 760.5,-920.5 760.5,-863.5 677.5,-863.5"/>
<text text-anchor="middle" x="719" y="-908.5" font-family="Helvetica,sans-Serif" font-size="10.00">_phase_header</text>
<polyline fill="none" stroke="black" points="677.5,-901.5 760.5,-901.5 "/>
<text text-anchor="middle" x="719" y="-889.5" font-family="Helvetica,sans-Serif" font-size="10.00"> </text>
<polyline fill="none" stroke="black" points="677.5,-882.5 760.5,-882.5 "/>
<text text-anchor="middle" x="719" y="-870.5" font-family="Helvetica,sans-Serif" font-size="10.00"> </text>
</a>
</g>
</g>
<!-- Node5&#45;&gt;Node14 -->
<g id="edge18" class="edge">
<title>Node5&#45;&gt;Node14</title>
<path fill="none" stroke="#404040" d="M1023.94,-1035.5C968.82,-1026.44 850.49,-1005.88 836,-994 819.52,-980.5 832.37,-964.74 817,-950 800.86,-934.52 789.53,-942.91 770,-932 767.5,-930.6 764.98,-929.09 762.48,-927.5"/>
<polygon fill="none" stroke="#404040" points="762.29,-927.38 755.08,-927.32 752.36,-920.64 759.57,-920.7 762.29,-927.38"/>
<text text-anchor="middle" x="859.5" y="-975" font-family="Helvetica,sans-Serif" font-size="10.00"> +endDate</text>
<text text-anchor="middle" x="859.5" y="-964" font-family="Helvetica,sans-Serif" font-size="10.00">+startDate</text>
</g>
<!-- Node15 -->
<g id="node15" class="node">
<title>Node15</title>
<g id="a_node15"><a xlink:href="struct__fomula.html" target="_top" xlink:title=" ">
<polygon fill="none" stroke="black" points="778.5,-863.5 778.5,-920.5 829.5,-920.5 829.5,-863.5 778.5,-863.5"/>
<text text-anchor="middle" x="804" y="-908.5" font-family="Helvetica,sans-Serif" font-size="10.00">_fomula</text>
<polyline fill="none" stroke="black" points="778.5,-901.5 829.5,-901.5 "/>
<text text-anchor="middle" x="804" y="-889.5" font-family="Helvetica,sans-Serif" font-size="10.00"> </text>
<polyline fill="none" stroke="black" points="778.5,-882.5 829.5,-882.5 "/>
<text text-anchor="middle" x="804" y="-870.5" font-family="Helvetica,sans-Serif" font-size="10.00"> </text>
</a>
</g>
</g>
<!-- Node5&#45;&gt;Node15 -->
<g id="edge21" class="edge">
<title>Node5&#45;&gt;Node15</title>
<path fill="none" stroke="#404040" d="M1023.69,-1032.09C999.11,-1024.5 963.14,-1011.57 935,-994 910.45,-978.67 909.65,-968.01 887,-950 872.14,-938.18 854.94,-926.13 840.07,-916.17"/>
<polygon fill="none" stroke="#404040" points="839.73,-915.94 832.52,-915.97 829.72,-909.32 836.93,-909.29 839.73,-915.94"/>
<text text-anchor="middle" x="967" y="-975" font-family="Helvetica,sans-Serif" font-size="10.00"> +airFlowLevel</text>
<text text-anchor="middle" x="967" y="-964" font-family="Helvetica,sans-Serif" font-size="10.00">+rollInterval</text>
</g>
<!-- Node21 -->
<g id="node21" class="node">
<title>Node21</title>
<g id="a_node21"><a xlink:href="class_display_client.html" target="_top" xlink:title=" ">
<polygon fill="none" stroke="black" points="1087,-852.5 1087,-931.5 1183,-931.5 1183,-852.5 1087,-852.5"/>
<text text-anchor="middle" x="1135" y="-919.5" font-family="Helvetica,sans-Serif" font-size="10.00">DisplayClient</text>
<polyline fill="none" stroke="black" points="1087,-912.5 1183,-912.5 "/>
<text text-anchor="middle" x="1135" y="-900.5" font-family="Helvetica,sans-Serif" font-size="10.00"> </text>
<polyline fill="none" stroke="black" points="1087,-893.5 1183,-893.5 "/>
<text text-anchor="start" x="1095" y="-881.5" font-family="Helvetica,sans-Serif" font-size="10.00">+ DisplayClient()</text>
<text text-anchor="start" x="1095" y="-870.5" font-family="Helvetica,sans-Serif" font-size="10.00">+ ~DisplayClient()</text>
<text text-anchor="start" x="1095" y="-859.5" font-family="Helvetica,sans-Serif" font-size="10.00">+ sendMsg()</text>
</a>
</g>
</g>
<!-- Node5&#45;&gt;Node21 -->
<g id="edge30" class="edge">
<title>Node5&#45;&gt;Node21</title>
<path fill="none" stroke="#404040" d="M1080.01,-1021.33C1089.44,-1013.82 1099.26,-1004.46 1106,-994 1115.7,-978.95 1122.23,-960.58 1126.59,-943.67"/>
<polygon fill="none" stroke="#404040" points="1126.66,-943.35 1124.13,-936.6 1129.39,-931.67 1131.92,-938.42 1126.66,-943.35"/>
<text text-anchor="middle" x="1146.5" y="-975" font-family="Helvetica,sans-Serif" font-size="10.00"> &#45;_bufSize</text>
<text text-anchor="middle" x="1146.5" y="-964" font-family="Helvetica,sans-Serif" font-size="10.00">&#45;_portNo</text>
</g>
<!-- Node24 -->
<g id="node24" class="node">
<title>Node24</title>
<g id="a_node24"><a xlink:href="class_temp_algo.html" target="_top" xlink:title=" ">
<polygon fill="none" stroke="black" points="814,-287 814,-410 900,-410 900,-287 814,-287"/>
<text text-anchor="middle" x="857" y="-398" font-family="Helvetica,sans-Serif" font-size="10.00">TempAlgo</text>
<polyline fill="none" stroke="black" points="814,-391 900,-391 "/>
<text text-anchor="middle" x="857" y="-379" font-family="Helvetica,sans-Serif" font-size="10.00"> </text>
<polyline fill="none" stroke="black" points="814,-372 900,-372 "/>
<text text-anchor="start" x="822" y="-360" font-family="Helvetica,sans-Serif" font-size="10.00">+ TempAlgo()</text>
<text text-anchor="start" x="822" y="-349" font-family="Helvetica,sans-Serif" font-size="10.00">+ ~TempAlgo()</text>
<text text-anchor="start" x="822" y="-338" font-family="Helvetica,sans-Serif" font-size="10.00">+ getPair()</text>
<text text-anchor="start" x="822" y="-327" font-family="Helvetica,sans-Serif" font-size="10.00">+ tryGoOnRec()</text>
<text text-anchor="start" x="822" y="-316" font-family="Helvetica,sans-Serif" font-size="10.00">+ printRecord()</text>
<text text-anchor="start" x="822" y="-305" font-family="Helvetica,sans-Serif" font-size="10.00">&#45; _kickIn()</text>
<text text-anchor="start" x="822" y="-294" font-family="Helvetica,sans-Serif" font-size="10.00">&#45; _getMedian()</text>
</a>
</g>
</g>
<!-- Node5&#45;&gt;Node24 -->
<g id="edge34" class="edge">
<title>Node5&#45;&gt;Node24</title>
<path fill="none" stroke="#404040" d="M1070.64,-1012.27C1073.68,-1006.46 1076.37,-1000.21 1078,-994 1088.24,-955.09 1059,-854.6 1059,-829.5 1059,-829.5 1059,-829.5 1059,-620.5 1059,-618.92 967.41,-496.6 907.58,-416.85"/>
<polygon fill="none" stroke="#404040" points="907.29,-416.46 900.49,-414.07 900.09,-406.87 906.89,-409.26 907.29,-416.46"/>
<text text-anchor="middle" x="1091" y="-757" font-family="Helvetica,sans-Serif" font-size="10.00"> &#45;NumRecords</text>
</g>
<!-- Node6 -->
<g id="node6" class="node">
<title>Node6</title>
<g id="a_node6"><a xlink:href="class_signal.html" target="_top" xlink:title=" ">
<polygon fill="none" stroke="black" points="92,-287 92,-410 194,-410 194,-287 92,-287"/>
<text text-anchor="middle" x="143" y="-398" font-family="Helvetica,sans-Serif" font-size="10.00">Signal</text>
<polyline fill="none" stroke="black" points="92,-391 194,-391 "/>
<text text-anchor="middle" x="143" y="-379" font-family="Helvetica,sans-Serif" font-size="10.00"> </text>
<polyline fill="none" stroke="black" points="92,-372 194,-372 "/>
<text text-anchor="start" x="100" y="-360" font-family="Helvetica,sans-Serif" font-size="10.00">+ Signal()</text>
<text text-anchor="start" x="100" y="-349" font-family="Helvetica,sans-Serif" font-size="10.00">+ ~Signal()</text>
<text text-anchor="start" x="100" y="-338" font-family="Helvetica,sans-Serif" font-size="10.00">+ signalHandler()</text>
<text text-anchor="start" x="100" y="-327" font-family="Helvetica,sans-Serif" font-size="10.00">+ isSignaledTerm()</text>
<text text-anchor="start" x="100" y="-316" font-family="Helvetica,sans-Serif" font-size="10.00">+ isSignaledUsr1()</text>
<text text-anchor="start" x="100" y="-305" font-family="Helvetica,sans-Serif" font-size="10.00">+ resetSignalTerm()</text>
<text text-anchor="start" x="100" y="-294" font-family="Helvetica,sans-Serif" font-size="10.00">+ resetSignalUsr1()</text>
</a>
</g>
</g>
<!-- Node6&#45;&gt;Node1 -->
<g id="edge5" class="edge">
<title>Node6&#45;&gt;Node1</title>
<path fill="none" stroke="#404040" d="M173.39,-286.66C197.23,-245.43 234.33,-193.3 282,-164 355.25,-118.97 608.58,-89.97 721.7,-78.98"/>
<polygon fill="none" stroke="#404040" points="721.87,-78.96 727.46,-74.41 733.81,-77.82 728.22,-82.37 721.87,-78.96"/>
<text text-anchor="middle" x="297.5" y="-194.5" font-family="Helvetica,sans-Serif" font-size="10.00"> &#45;_pSig</text>
</g>
<!-- Node7 -->
<g id="node7" class="node">
<title>Node7</title>
<g id="a_node7"><a xlink:title=" ">
<polygon fill="none" stroke="#bfbfbf" points="0,-587.5 0,-655.5 90,-655.5 90,-587.5 0,-587.5"/>
<text text-anchor="start" x="8" y="-643.5" font-family="Helvetica,sans-Serif" font-size="10.00">static volatile sig</text>
<text text-anchor="middle" x="45" y="-632.5" font-family="Helvetica,sans-Serif" font-size="10.00">_atomic_t</text>
<polyline fill="none" stroke="#bfbfbf" points="0,-625.5 90,-625.5 "/>
<text text-anchor="middle" x="45" y="-613.5" font-family="Helvetica,sans-Serif" font-size="10.00"> </text>
<polyline fill="none" stroke="#bfbfbf" points="0,-606.5 90,-606.5 "/>
<text text-anchor="middle" x="45" y="-594.5" font-family="Helvetica,sans-Serif" font-size="10.00"> </text>
</a>
</g>
</g>
<!-- Node7&#45;&gt;Node6 -->
<g id="edge6" class="edge">
<title>Node7&#45;&gt;Node6</title>
<path fill="none" stroke="#404040" d="M44.7,-587.41C45.42,-555.59 49.2,-506.62 64,-467 69.92,-451.16 78.36,-435.34 87.55,-420.69"/>
<polygon fill="none" stroke="#404040" points="87.8,-420.3 87.71,-413.09 94.34,-410.24 94.42,-417.45 87.8,-420.3"/>
<text text-anchor="middle" x="101.5" y="-515.5" font-family="Helvetica,sans-Serif" font-size="10.00"> +atomicSigTerm</text>
<text text-anchor="middle" x="101.5" y="-504.5" font-family="Helvetica,sans-Serif" font-size="10.00">+atomicSigUsr1</text>
</g>
<!-- Node8 -->
<g id="node8" class="node">
<title>Node8</title>
<g id="a_node8"><a xlink:title=" ">
<polygon fill="none" stroke="#bfbfbf" points="117,-593 117,-650 169,-650 169,-593 117,-593"/>
<text text-anchor="middle" x="143" y="-638" font-family="Helvetica,sans-Serif" font-size="10.00">atomic&lt;</text>
<polyline fill="none" stroke="#bfbfbf" points="117,-631 169,-631 "/>
<text text-anchor="middle" x="143" y="-619" font-family="Helvetica,sans-Serif" font-size="10.00"> </text>
<polyline fill="none" stroke="#bfbfbf" points="117,-612 169,-612 "/>
<text text-anchor="middle" x="143" y="-600" font-family="Helvetica,sans-Serif" font-size="10.00"> </text>
</a>
</g>
</g>
<!-- Node8&#45;&gt;Node6 -->
<g id="edge7" class="edge">
<title>Node8&#45;&gt;Node6</title>
<path fill="none" stroke="#404040" d="M143,-592.77C143,-552.99 143,-478.35 143,-422.19"/>
<polygon fill="none" stroke="#404040" points="143,-422.14 139,-416.14 143,-410.14 147,-416.14 143,-422.14"/>
<text text-anchor="middle" x="183" y="-515.5" font-family="Helvetica,sans-Serif" font-size="10.00"> +atomicSigTerm_</text>
<text text-anchor="middle" x="183" y="-504.5" font-family="Helvetica,sans-Serif" font-size="10.00">+atomicSigUsr1_</text>
</g>
<!-- Node9 -->
<g id="node9" class="node">
<title>Node9</title>
<g id="a_node9"><a xlink:href="class_env.html" target="_top" xlink:title=" ">
<polygon fill="none" stroke="black" points="587.5,-248.5 587.5,-448.5 700.5,-448.5 700.5,-248.5 587.5,-248.5"/>
<text text-anchor="middle" x="644" y="-436.5" font-family="Helvetica,sans-Serif" font-size="10.00">Env</text>
<polyline fill="none" stroke="black" points="587.5,-429.5 700.5,-429.5 "/>
<text text-anchor="middle" x="644" y="-417.5" font-family="Helvetica,sans-Serif" font-size="10.00"> </text>
<polyline fill="none" stroke="black" points="587.5,-410.5 700.5,-410.5 "/>
<text text-anchor="start" x="595.5" y="-398.5" font-family="Helvetica,sans-Serif" font-size="10.00">+ Env()</text>
<text text-anchor="start" x="595.5" y="-387.5" font-family="Helvetica,sans-Serif" font-size="10.00">+ ~Env()</text>
<text text-anchor="start" x="595.5" y="-376.5" font-family="Helvetica,sans-Serif" font-size="10.00">+ setUp()</text>
<text text-anchor="start" x="595.5" y="-365.5" font-family="Helvetica,sans-Serif" font-size="10.00">+ getConfig()</text>
<text text-anchor="start" x="595.5" y="-354.5" font-family="Helvetica,sans-Serif" font-size="10.00">+ setConfig()</text>
<text text-anchor="start" x="595.5" y="-343.5" font-family="Helvetica,sans-Serif" font-size="10.00">+ getFormula()</text>
<text text-anchor="start" x="595.5" y="-332.5" font-family="Helvetica,sans-Serif" font-size="10.00">+ getMaxDay()</text>
<text text-anchor="start" x="595.5" y="-321.5" font-family="Helvetica,sans-Serif" font-size="10.00">&#45; _readConfig()</text>
<text text-anchor="start" x="595.5" y="-310.5" font-family="Helvetica,sans-Serif" font-size="10.00">&#45; _readFromCfgFile()</text>
<text text-anchor="start" x="595.5" y="-299.5" font-family="Helvetica,sans-Serif" font-size="10.00">&#45; _str2Obj()</text>
<text text-anchor="start" x="595.5" y="-288.5" font-family="Helvetica,sans-Serif" font-size="10.00">&#45; _objByPhaseName()</text>
<text text-anchor="start" x="595.5" y="-277.5" font-family="Helvetica,sans-Serif" font-size="10.00">&#45; _obj2Phase()</text>
<text text-anchor="start" x="595.5" y="-266.5" font-family="Helvetica,sans-Serif" font-size="10.00">&#45; _obj2Config()</text>
<text text-anchor="start" x="595.5" y="-255.5" font-family="Helvetica,sans-Serif" font-size="10.00">&#45; _cfg2Formulas()</text>
</a>
</g>
</g>
<!-- Node9&#45;&gt;Node1 -->
<g id="edge8" class="edge">
<title>Node9&#45;&gt;Node1</title>
<path fill="none" stroke="#404040" d="M692.2,-248.37C706.84,-218.28 722.75,-185.55 736.8,-156.66"/>
<polygon fill="none" stroke="#404040" points="736.84,-156.58 735.87,-149.44 742.09,-145.79 743.06,-152.94 736.84,-156.58"/>
<text text-anchor="middle" x="747" y="-194.5" font-family="Helvetica,sans-Serif" font-size="10.00"> &#45;_pEnv</text>
</g>
<!-- Node10&#45;&gt;Node9 -->
<g id="edge9" class="edge">
<title>Node10&#45;&gt;Node9</title>
<path fill="none" stroke="midnightblue" d="M507.49,-567.53C509.09,-564.34 510.61,-561.15 512,-558 529.12,-519.3 513.44,-499.94 540,-467 550.24,-454.3 559.82,-459.86 572,-449 577.25,-444.32 582.34,-439.19 587.23,-433.8"/>
<polygon fill="none" stroke="midnightblue" points="504.35,-565.98 502.8,-576.46 510.55,-569.23 504.35,-565.98"/>
</g>
<!-- Node11 -->
<g id="node11" class="node">
<title>Node11</title>
<g id="a_node11"><a xlink:title=" ">
<polygon fill="none" stroke="#bfbfbf" points="637.5,-1012.5 637.5,-1069.5 678.5,-1069.5 678.5,-1012.5 637.5,-1012.5"/>
<text text-anchor="middle" x="658" y="-1057.5" font-family="Helvetica,sans-Serif" font-size="10.00">string</text>
<polyline fill="none" stroke="#bfbfbf" points="637.5,-1050.5 678.5,-1050.5 "/>
<text text-anchor="middle" x="658" y="-1038.5" font-family="Helvetica,sans-Serif" font-size="10.00"> </text>
<polyline fill="none" stroke="#bfbfbf" points="637.5,-1031.5 678.5,-1031.5 "/>
<text text-anchor="middle" x="658" y="-1019.5" font-family="Helvetica,sans-Serif" font-size="10.00"> </text>
</a>
</g>
</g>
<!-- Node11&#45;&gt;Node9 -->
<g id="edge11" class="edge">
<title>Node11&#45;&gt;Node9</title>
<path fill="none" stroke="#404040" d="M643.51,-1012.38C629.71,-983.45 611,-936.27 611,-893 611,-893 611,-893 611,-620.5 611,-567.63 617.27,-509.38 624.34,-460.47"/>
<polygon fill="none" stroke="#404040" points="624.34,-460.45 621.26,-453.93 626.1,-448.58 629.18,-455.1 624.34,-460.45"/>
<text text-anchor="middle" x="625" y="-757" font-family="Helvetica,sans-Serif" font-size="10.00"> &#45;_text</text>
</g>
<!-- Node11&#45;&gt;Node12 -->
<g id="edge13" class="edge">
<title>Node11&#45;&gt;Node12</title>
<path fill="none" stroke="#404040" d="M659.41,-1012.27C661.33,-975.59 664.98,-908.91 669,-852 673.71,-785.29 680.38,-707.77 684.43,-662.06"/>
<polygon fill="none" stroke="#404040" points="684.44,-661.99 680.99,-655.66 685.5,-650.04 688.96,-656.37 684.44,-661.99"/>
<text text-anchor="middle" x="688" y="-826" font-family="Helvetica,sans-Serif" font-size="10.00"> +name</text>
</g>
<!-- Node11&#45;&gt;Node14 -->
<g id="edge17" class="edge">
<title>Node11&#45;&gt;Node14</title>
<path fill="none" stroke="#404040" d="M664.45,-1012.2C669.1,-994.08 676.13,-970.16 685,-950 687.73,-943.8 690.99,-937.45 694.41,-931.34"/>
<polygon fill="none" stroke="#404040" points="694.58,-931.04 694.15,-923.84 700.63,-920.68 701.06,-927.88 694.58,-931.04"/>
<text text-anchor="middle" x="702" y="-969.5" font-family="Helvetica,sans-Serif" font-size="10.00"> +name</text>
</g>
<!-- Node11&#45;&gt;Node21 -->
<g id="edge29" class="edge">
<title>Node11&#45;&gt;Node21</title>
<path fill="none" stroke="#404040" d="M678.69,-1036.32C711.38,-1030.6 777.03,-1019.44 833,-1012 908.32,-1001.99 932.42,-1022.13 1003,-994 1019.92,-987.26 1052.25,-962.61 1080.67,-939.35"/>
<polygon fill="none" stroke="#404040" points="1080.88,-939.18 1082.96,-932.27 1090.14,-931.54 1088.05,-938.45 1080.88,-939.18"/>
<text text-anchor="middle" x="1079.5" y="-969.5" font-family="Helvetica,sans-Serif" font-size="10.00"> &#45;_host</text>
</g>
<!-- Node12&#45;&gt;Node9 -->
<g id="edge12" class="edge">
<title>Node12&#45;&gt;Node9</title>
<path fill="none" stroke="#404040" d="M663.95,-593.16C656.36,-582.85 648.94,-570.57 645,-558 635.38,-527.29 632.32,-492.77 632.42,-460.79"/>
<polygon fill="none" stroke="#404040" points="632.42,-460.67 628.52,-454.61 632.61,-448.67 636.52,-454.73 632.42,-460.67"/>
<text text-anchor="middle" x="664" y="-510" font-family="Helvetica,sans-Serif" font-size="10.00"> &#45;_config</text>
</g>
<!-- Node13 -->
<g id="node13" class="node">
<title>Node13</title>
<g id="a_node13"><a xlink:href="struct__phase.html" target="_top" xlink:title=" ">
<polygon fill="none" stroke="black" points="695,-731 695,-788 743,-788 743,-731 695,-731"/>
<text text-anchor="middle" x="719" y="-776" font-family="Helvetica,sans-Serif" font-size="10.00">_phase</text>
<polyline fill="none" stroke="black" points="695,-769 743,-769 "/>
<text text-anchor="middle" x="719" y="-757" font-family="Helvetica,sans-Serif" font-size="10.00"> </text>
<polyline fill="none" stroke="black" points="695,-750 743,-750 "/>
<text text-anchor="middle" x="719" y="-738" font-family="Helvetica,sans-Serif" font-size="10.00"> </text>
</a>
</g>
</g>
<!-- Node13&#45;&gt;Node12 -->
<g id="edge15" class="edge">
<title>Node13&#45;&gt;Node12</title>
<path fill="none" stroke="#404040" d="M712.73,-730.98C708.24,-711.29 702.13,-684.49 697.11,-662.45"/>
<polygon fill="none" stroke="#404040" points="697.04,-662.15 691.8,-657.19 694.37,-650.45 699.6,-655.41 697.04,-662.15"/>
<text text-anchor="middle" x="724.5" y="-688" font-family="Helvetica,sans-Serif" font-size="10.00"> +phases</text>
</g>
<!-- Node14&#45;&gt;Node13 -->
<g id="edge16" class="edge">
<title>Node14&#45;&gt;Node13</title>
<path fill="none" stroke="#404040" d="M719,-863.32C719,-844.98 719,-820.64 719,-800.24"/>
<polygon fill="none" stroke="#404040" points="719,-800.14 715,-794.14 719,-788.14 723,-794.14 719,-800.14"/>
<text text-anchor="middle" x="738.5" y="-826" font-family="Helvetica,sans-Serif" font-size="10.00"> +header</text>
</g>
<!-- Node15&#45;&gt;Node13 -->
<g id="edge19" class="edge">
<title>Node15&#45;&gt;Node13</title>
<path fill="none" stroke="#404040" d="M787.34,-863.34C779.75,-850.92 770.57,-836.13 762,-823 756.74,-814.93 750.97,-806.38 745.42,-798.27"/>
<polygon fill="none" stroke="#404040" points="745.37,-798.18 738.67,-795.51 738.56,-788.3 745.26,-790.97 745.37,-798.18"/>
<text text-anchor="middle" x="784.5" y="-826" font-family="Helvetica,sans-Serif" font-size="10.00"> +body</text>
</g>
<!-- Node16 -->
<g id="node16" class="node">
<title>Node16</title>
<g id="a_node16"><a xlink:title=" ">
<polygon fill="none" stroke="#bfbfbf" points="841.5,-1012.5 841.5,-1069.5 876.5,-1069.5 876.5,-1012.5 841.5,-1012.5"/>
<text text-anchor="middle" x="859" y="-1057.5" font-family="Helvetica,sans-Serif" font-size="10.00">float</text>
<polyline fill="none" stroke="#bfbfbf" points="841.5,-1050.5 876.5,-1050.5 "/>
<text text-anchor="middle" x="859" y="-1038.5" font-family="Helvetica,sans-Serif" font-size="10.00"> </text>
<polyline fill="none" stroke="#bfbfbf" points="841.5,-1031.5 876.5,-1031.5 "/>
<text text-anchor="middle" x="859" y="-1019.5" font-family="Helvetica,sans-Serif" font-size="10.00"> </text>
</a>
</g>
</g>
<!-- Node16&#45;&gt;Node15 -->
<g id="edge20" class="edge">
<title>Node16&#45;&gt;Node15</title>
<path fill="none" stroke="#404040" d="M841.32,-1039.57C812.74,-1037.81 757.05,-1029.71 732,-994 720.77,-977.99 721.54,-966.52 732,-950 741.99,-934.21 755.1,-943.28 770,-932 771.07,-931.19 772.14,-930.33 773.19,-929.45"/>
<polygon fill="none" stroke="#404040" points="773.56,-929.1 775.18,-922.07 782.28,-920.86 780.67,-927.88 773.56,-929.1"/>
<text text-anchor="middle" x="774.5" y="-986" font-family="Helvetica,sans-Serif" font-size="10.00"> +humidHigherLimit</text>
<text text-anchor="middle" x="774.5" y="-975" font-family="Helvetica,sans-Serif" font-size="10.00">+humidLowerLimit</text>
<text text-anchor="middle" x="774.5" y="-964" font-family="Helvetica,sans-Serif" font-size="10.00">+tempHigherLimit</text>
<text text-anchor="middle" x="774.5" y="-953" font-family="Helvetica,sans-Serif" font-size="10.00">+tempLowerLimit</text>
</g>
<!-- Node16&#45;&gt;Node24 -->
<g id="edge36" class="edge">
<title>Node16&#45;&gt;Node24</title>
<path fill="none" stroke="#404040" d="M876.77,-1038.81C903.19,-1035.99 952.06,-1026.41 974,-994 984.96,-977.81 975.7,-969.48 974,-950 955.04,-732.86 936.58,-679.71 889,-467 885.72,-452.35 881.8,-436.78 877.85,-421.94"/>
<polygon fill="none" stroke="#404040" points="877.81,-421.8 872.38,-417.06 874.68,-410.22 880.1,-414.97 877.81,-421.8"/>
<text text-anchor="middle" x="995" y="-757" font-family="Helvetica,sans-Serif" font-size="10.00"> &#45;TempIncrement</text>
</g>
<!-- Node17 -->
<g id="node17" class="node">
<title>Node17</title>
<g id="a_node17"><a xlink:title=" ">
<polygon fill="none" stroke="#bfbfbf" points="796,-593 796,-650 846,-650 846,-593 796,-593"/>
<text text-anchor="middle" x="821" y="-638" font-family="Helvetica,sans-Serif" font-size="10.00">vector&lt;</text>
<polyline fill="none" stroke="#bfbfbf" points="796,-631 846,-631 "/>
<text text-anchor="middle" x="821" y="-619" font-family="Helvetica,sans-Serif" font-size="10.00"> </text>
<polyline fill="none" stroke="#bfbfbf" points="796,-612 846,-612 "/>
<text text-anchor="middle" x="821" y="-600" font-family="Helvetica,sans-Serif" font-size="10.00"> </text>
</a>
</g>
</g>
<!-- Node17&#45;&gt;Node9 -->
<g id="edge22" class="edge">
<title>Node17&#45;&gt;Node9</title>
<path fill="none" stroke="#404040" d="M800.72,-592.69C793.9,-582.24 786.81,-569.99 782,-558 766.6,-519.66 782.76,-503.28 763,-467 749.69,-442.57 729.67,-419.96 709.83,-401.24"/>
<polygon fill="none" stroke="#404040" points="709.6,-401.03 702.47,-399.92 700.75,-392.92 707.88,-394.03 709.6,-401.03"/>
<text text-anchor="middle" x="806.5" y="-510" font-family="Helvetica,sans-Serif" font-size="10.00"> &#45;_formulas</text>
</g>
<!-- Node17&#45;&gt;Node24 -->
<g id="edge37" class="edge">
<title>Node17&#45;&gt;Node24</title>
<path fill="none" stroke="#404040" d="M827.89,-592.94C830.41,-582.11 833.11,-569.52 835,-558 842.35,-513.24 847.76,-462.66 851.37,-422.52"/>
<polygon fill="none" stroke="#404040" points="851.38,-422.37 847.92,-416.05 852.43,-410.42 855.89,-416.75 851.38,-422.37"/>
<text text-anchor="middle" x="865.5" y="-510" font-family="Helvetica,sans-Serif" font-size="10.00"> &#45;_record</text>
</g>
<!-- Node18&#45;&gt;Node1 -->
<g id="edge23" class="edge">
<title>Node18&#45;&gt;Node1</title>
<path fill="none" stroke="#404040" d="M563.55,-268.48C568.28,-261.45 573.14,-254.53 578,-248 607.7,-208.08 615.13,-197.41 652,-164 674.18,-143.9 700.86,-124.17 723.87,-108.33"/>
<polygon fill="none" stroke="#404040" points="723.89,-108.31 726.6,-101.63 733.81,-101.56 731.1,-108.25 723.89,-108.31"/>
<text text-anchor="middle" x="675" y="-194.5" font-family="Helvetica,sans-Serif" font-size="10.00"> &#45;_pSTime</text>
</g>
<!-- Node19&#45;&gt;Node18 -->
<g id="edge24" class="edge">
<title>Node19&#45;&gt;Node18</title>
<path fill="none" stroke="midnightblue" d="M420.6,-576.44C449.47,-567.06 464.76,-577.46 482,-558 498.48,-539.4 507.04,-482.08 511.44,-432.23"/>
<polygon fill="none" stroke="midnightblue" points="419.28,-573.2 411.19,-580.05 421.78,-579.74 419.28,-573.2"/>
</g>
<!-- Node20 -->
<g id="node20" class="node">
<title>Node20</title>
<g id="a_node20"><a xlink:title=" ">
<polygon fill="none" stroke="#bfbfbf" points="539,-593 539,-650 583,-650 583,-593 539,-593"/>
<text text-anchor="middle" x="561" y="-638" font-family="Helvetica,sans-Serif" font-size="10.00">time_t</text>
<polyline fill="none" stroke="#bfbfbf" points="539,-631 583,-631 "/>
<text text-anchor="middle" x="561" y="-619" font-family="Helvetica,sans-Serif" font-size="10.00"> </text>
<polyline fill="none" stroke="#bfbfbf" points="539,-612 583,-612 "/>
<text text-anchor="middle" x="561" y="-600" font-family="Helvetica,sans-Serif" font-size="10.00"> </text>
</a>
</g>
</g>
<!-- Node20&#45;&gt;Node18 -->
<g id="edge27" class="edge">
<title>Node20&#45;&gt;Node18</title>
<path fill="none" stroke="#404040" d="M556.4,-592.77C550.63,-558.04 540.45,-496.73 531.75,-444.35"/>
<polygon fill="none" stroke="#404040" points="531.71,-444.13 526.78,-438.86 529.75,-432.29 534.68,-437.55 531.71,-444.13"/>
<text text-anchor="middle" x="566.5" y="-510" font-family="Helvetica,sans-Serif" font-size="10.00"> &#45;_start</text>
</g>
<!-- Node20&#45;&gt;Node24 -->
<g id="edge35" class="edge">
<title>Node20&#45;&gt;Node24</title>
<path fill="none" stroke="#404040" d="M583.22,-610.39C616.57,-595.03 676.38,-566.68 683,-558 708.06,-525.15 679.91,-501.92 702,-467 726.6,-428.12 768.92,-397.34 803.13,-377.05"/>
<polygon fill="none" stroke="#404040" points="803.52,-376.83 806.72,-370.37 813.92,-370.84 810.72,-377.3 803.52,-376.83"/>
<text text-anchor="middle" x="730.5" y="-515.5" font-family="Helvetica,sans-Serif" font-size="10.00"> &#45;RecInterval</text>
<text text-anchor="middle" x="730.5" y="-504.5" font-family="Helvetica,sans-Serif" font-size="10.00">&#45;lastTick</text>
</g>
<!-- Node21&#45;&gt;Node1 -->
<g id="edge28" class="edge">
<title>Node21&#45;&gt;Node1</title>
<path fill="none" stroke="#404040" d="M1136.86,-852.22C1137.75,-816.04 1136.93,-760.79 1127,-714 1113.33,-649.57 1104.92,-633.61 1073,-576 1043.74,-523.21 1035.75,-508.57 992,-467 981.54,-457.07 973.46,-460.68 965,-449 887.92,-342.53 957.54,-274.27 886,-164 871.6,-141.8 849.98,-122.33 829.79,-107.23"/>
<polygon fill="none" stroke="#404040" points="829.76,-107.2 822.55,-106.93 820.03,-100.18 827.24,-100.45 829.76,-107.2"/>
<text text-anchor="middle" x="1131" y="-619" font-family="Helvetica,sans-Serif" font-size="10.00"> &#45;_pDC</text>
</g>
<!-- Node22 -->
<g id="node22" class="node">
<title>Node22</title>
<g id="a_node22"><a xlink:href="struct_sensor.html" target="_top" xlink:title=" ">
<polygon fill="none" stroke="black" points="974,-298 974,-399 1048,-399 1048,-298 974,-298"/>
<text text-anchor="middle" x="1011" y="-387" font-family="Helvetica,sans-Serif" font-size="10.00">Sensor</text>
<polyline fill="none" stroke="black" points="974,-380 1048,-380 "/>
<text text-anchor="middle" x="1011" y="-368" font-family="Helvetica,sans-Serif" font-size="10.00"> </text>
<polyline fill="none" stroke="black" points="974,-361 1048,-361 "/>
<text text-anchor="start" x="982" y="-349" font-family="Helvetica,sans-Serif" font-size="10.00">+ ~Sensor()</text>
<text text-anchor="start" x="982" y="-338" font-family="Helvetica,sans-Serif" font-size="10.00">+ init()</text>
<text text-anchor="start" x="982" y="-327" font-family="Helvetica,sans-Serif" font-size="10.00">+ deinit()</text>
<text text-anchor="start" x="982" y="-316" font-family="Helvetica,sans-Serif" font-size="10.00">+ get()</text>
<text text-anchor="start" x="982" y="-305" font-family="Helvetica,sans-Serif" font-size="10.00">+ getCache()</text>
</a>
</g>
</g>
<!-- Node22&#45;&gt;Node1 -->
<g id="edge31" class="edge">
<title>Node22&#45;&gt;Node1</title>
<path fill="none" stroke="#404040" d="M1008.16,-297.6C1003.49,-257.49 991.35,-201.79 960,-164 927.19,-124.44 872.74,-100.8 831.75,-87.76"/>
<polygon fill="none" stroke="#404040" points="831.52,-87.68 824.62,-89.77 820.04,-84.2 826.94,-82.11 831.52,-87.68"/>
<text text-anchor="middle" x="1031" y="-200" font-family="Helvetica,sans-Serif" font-size="10.00"> &#45;_pHumidSensor</text>
<text text-anchor="middle" x="1031" y="-189" font-family="Helvetica,sans-Serif" font-size="10.00">&#45;_pTempSensor</text>
</g>
<!-- Node23 -->
<g id="node23" class="node">
<title>Node23</title>
<g id="a_node23"><a xlink:href="struct_actuator.html" target="_top" xlink:title=" ">
<polygon fill="none" stroke="black" points="1066,-281.5 1066,-415.5 1140,-415.5 1140,-281.5 1066,-281.5"/>
<text text-anchor="middle" x="1103" y="-403.5" font-family="Helvetica,sans-Serif" font-size="10.00">Actuator</text>
<polyline fill="none" stroke="black" points="1066,-396.5 1140,-396.5 "/>
<text text-anchor="middle" x="1103" y="-384.5" font-family="Helvetica,sans-Serif" font-size="10.00"> </text>
<polyline fill="none" stroke="black" points="1066,-377.5 1140,-377.5 "/>
<text text-anchor="start" x="1074" y="-365.5" font-family="Helvetica,sans-Serif" font-size="10.00">+ ~Actuator()</text>
<text text-anchor="start" x="1074" y="-354.5" font-family="Helvetica,sans-Serif" font-size="10.00">+ init()</text>
<text text-anchor="start" x="1074" y="-343.5" font-family="Helvetica,sans-Serif" font-size="10.00">+ deinit()</text>
<text text-anchor="start" x="1074" y="-332.5" font-family="Helvetica,sans-Serif" font-size="10.00">+ get()</text>
<text text-anchor="start" x="1074" y="-321.5" font-family="Helvetica,sans-Serif" font-size="10.00">+ on()</text>
<text text-anchor="start" x="1074" y="-310.5" font-family="Helvetica,sans-Serif" font-size="10.00">+ off()</text>
<text text-anchor="start" x="1074" y="-299.5" font-family="Helvetica,sans-Serif" font-size="10.00">+ start()</text>
<text text-anchor="start" x="1074" y="-288.5" font-family="Helvetica,sans-Serif" font-size="10.00">+ stop()</text>
</a>
</g>
</g>
<!-- Node23&#45;&gt;Node1 -->
<g id="edge32" class="edge">
<title>Node23&#45;&gt;Node1</title>
<path fill="none" stroke="#404040" d="M1108.44,-281.3C1107.99,-242.77 1100.74,-195.7 1073,-164 1012.23,-94.55 899.71,-77.78 832.27,-74.27"/>
<polygon fill="none" stroke="#404040" points="832.21,-74.26 826.05,-78 820.23,-73.75 826.39,-70.01 832.21,-74.26"/>
<text text-anchor="middle" x="1148.5" y="-222" font-family="Helvetica,sans-Serif" font-size="10.00"> &#45;_pAirFlowActuator</text>
<text text-anchor="middle" x="1148.5" y="-211" font-family="Helvetica,sans-Serif" font-size="10.00">&#45;_pDehumidActuator</text>
<text text-anchor="middle" x="1148.5" y="-200" font-family="Helvetica,sans-Serif" font-size="10.00">&#45;_pHeatActuator</text>
<text text-anchor="middle" x="1148.5" y="-189" font-family="Helvetica,sans-Serif" font-size="10.00">&#45;_pHeatFlowActuator</text>
<text text-anchor="middle" x="1148.5" y="-178" font-family="Helvetica,sans-Serif" font-size="10.00">&#45;_pHumidActuator</text>
<text text-anchor="middle" x="1148.5" y="-167" font-family="Helvetica,sans-Serif" font-size="10.00">&#45;_pRollerActuator</text>
</g>
<!-- Node24&#45;&gt;Node1 -->
<g id="edge33" class="edge">
<title>Node24&#45;&gt;Node1</title>
<path fill="none" stroke="#404040" d="M839.25,-286.8C828.1,-248.68 813.56,-199 801.35,-157.23"/>
<polygon fill="none" stroke="#404040" points="801.33,-157.19 795.81,-152.56 797.97,-145.67 803.49,-150.31 801.33,-157.19"/>
<text text-anchor="middle" x="851.5" y="-194.5" font-family="Helvetica,sans-Serif" font-size="10.00"> &#45;_pTempAlgo</text>
</g>
</g>
</svg>
