<?xml version="1.0" encoding="UTF-8" standalone="no"?>
<!DOCTYPE svg PUBLIC "-//W3C//DTD SVG 1.1//EN"
 "http://www.w3.org/Graphics/SVG/1.1/DTD/svg11.dtd">
<!-- Generated by graphviz version 2.48.0 (20210717.1556)
 -->
<!-- Title: HeatActuator::deinit Pages: 1 -->
<svg width="250pt" height="78pt"
 viewBox="0.00 0.00 250.00 77.50" xmlns="http://www.w3.org/2000/svg" xmlns:xlink="http://www.w3.org/1999/xlink">
<g id="graph0" class="graph" transform="scale(1 1) rotate(0) translate(4 73.5)">
<title>HeatActuator::deinit</title>
<!-- Node1 -->
<g id="node1" class="node">
<title>Node1</title>
<g id="a_node1"><a xlink:title=" ">
<polygon fill="#bfbfbf" stroke="black" points="0,-28 0,-47 104,-47 104,-28 0,-28"/>
<text text-anchor="middle" x="52" y="-35" font-family="Helvetica,sans-Serif" font-size="10.00">HeatActuator::deinit</text>
</a>
</g>
</g>
<!-- Node2 -->
<g id="node2" class="node">
<title>Node2</title>
<g id="a_node2"><a xlink:href="class_gpio.html#a7b51caf5fd923221806206f1d28736ee" target="_top" xlink:title=" ">
<polygon fill="none" stroke="black" points="157.5,-50 157.5,-69 224.5,-69 224.5,-50 157.5,-50"/>
<text text-anchor="middle" x="191" y="-57" font-family="Helvetica,sans-Serif" font-size="10.00">Gpio::deinit</text>
</a>
</g>
</g>
<!-- Node1&#45;&gt;Node2 -->
<g id="edge1" class="edge">
<title>Node1&#45;&gt;Node2</title>
<path fill="none" stroke="midnightblue" d="M104.01,-45.69C118.2,-47.97 133.46,-50.42 147.13,-52.62"/>
<polygon fill="midnightblue" stroke="midnightblue" points="146.79,-56.11 157.22,-54.24 147.9,-49.2 146.79,-56.11"/>
</g>
<!-- Node3 -->
<g id="node3" class="node">
<title>Node3</title>
<g id="a_node3"><a xlink:href="class_singleton.html#a8ec70839501fe76ec61195233d8fdb62" target="_top" xlink:title=" ">
<polygon fill="none" stroke="black" points="140,-0.5 140,-30.5 242,-30.5 242,-0.5 140,-0.5"/>
<text text-anchor="start" x="148" y="-18.5" font-family="Helvetica,sans-Serif" font-size="10.00">Singleton&lt; Gpio &gt;::</text>
<text text-anchor="middle" x="191" y="-7.5" font-family="Helvetica,sans-Serif" font-size="10.00">getInstance</text>
</a>
</g>
</g>
<!-- Node1&#45;&gt;Node3 -->
<g id="edge2" class="edge">
<title>Node1&#45;&gt;Node3</title>
<path fill="none" stroke="midnightblue" d="M104.01,-29.31C112.43,-27.96 121.23,-26.54 129.85,-25.16"/>
<polygon fill="midnightblue" stroke="midnightblue" points="130.54,-28.59 139.86,-23.55 129.43,-21.68 130.54,-28.59"/>
</g>
</g>
</svg>
