<?xml version="1.0" encoding="UTF-8" standalone="no"?>
<!DOCTYPE svg PUBLIC "-//W3C//DTD SVG 1.1//EN"
 "http://www.w3.org/Graphics/SVG/1.1/DTD/svg11.dtd">
<!-- Generated by graphviz version 2.50.0 (20211204.2007)
 -->
<!-- Title: Env::setUp Pages: 1 -->
<!--zoomable 154 -->
<svg id="main" version="1.1" xmlns="http://www.w3.org/2000/svg" xmlns:xlink="http://www.w3.org/1999/xlink" xml:space="preserve" onload="init(evt)">
<style type="text/css"><![CDATA[
.edge:hover path { stroke: red; }
.edge:hover polygon { stroke: red; fill: red; }
]]></style>
<script type="text/javascript"><![CDATA[
var edges = document.getElementsByTagName('g');
if (edges && edges.length) {
  for (var i=0;i<edges.length;i++) {
    if (edges[i].id.substr(0,4)=='edge') {
      edges[i].setAttribute('class','edge');
    }
  }
}
]]></script>
        <defs>
                <circle id="rim" cx="0" cy="0" r="7"/>
                <circle id="rim2" cx="0" cy="0" r="3.5"/>
                <g id="zoomPlus">
                        <use xlink:href="#rim" fill="#404040">
                                <set attributeName="fill" to="#808080" begin="zoomplus.mouseover" end="zoomplus.mouseout"/>
                        </use>
                        <path d="M-4,0h8M0,-4v8" fill="none" stroke="white" stroke-width="1.5" pointer-events="none"/>
                </g>
                <g id="zoomMin">
                        <use xlink:href="#rim" fill="#404040">
                                <set attributeName="fill" to="#808080" begin="zoomminus.mouseover" end="zoomminus.mouseout"/>
                        </use>
                        <path d="M-4,0h8" fill="none" stroke="white" stroke-width="1.5" pointer-events="none"/>
                </g>
                <g id="dirArrow">
                        <path fill="none" stroke="white" stroke-width="1.5" d="M0,-3.0v7 M-2.5,-0.5L0,-3.0L2.5,-0.5"/>
                </g>
               <g id="resetDef">
                       <use xlink:href="#rim2" fill="#404040">
                               <set attributeName="fill" to="#808080" begin="reset.mouseover" end="reset.mouseout"/>
                       </use>
               </g>
        </defs>

<script type="text/javascript">
var viewWidth = 516;
var viewHeight = 154;
var sectionId = 'dynsection-14';
</script>
<script xlink:href="svgpan.js"/>
<svg id="graph" class="graph">
<g id="viewport">
<title>Env::setUp</title>
<!-- Node1 -->
<g id="node1" class="node">
<title>Node1</title>
<g id="a_node1"><a xlink:title=" ">
<polygon fill="#bfbfbf" stroke="black" points="0,-12.92 0,-31.92 66,-31.92 66,-12.92 0,-12.92"/>
<text text-anchor="middle" x="33" y="-19.92" font-family="Helvetica,sans-Serif" font-size="10.00">Env::setUp</text>
</a>
</g>
</g>
<!-- Node2 -->
<g id="node2" class="node">
<title>Node2</title>
<g id="a_node2"><a xlink:href="class_env.html#a346a3d4dca594e25ed55bb2b6a21d2ec" target="_top" xlink:title=" ">
<polygon fill="none" stroke="black" points="102,-50.92 102,-69.92 194,-69.92 194,-50.92 102,-50.92"/>
<text text-anchor="middle" x="148" y="-57.92" font-family="Helvetica,sans-Serif" font-size="10.00">Env::_readConfig</text>
</a>
</g>
</g>
<!-- Node1&#45;&gt;Node2 -->
<g id="edge1" class="edge">
<title>Node1&#45;&gt;Node2</title>
<path fill="none" stroke="midnightblue" d="M62.51,-32.01C76.57,-36.73 93.71,-42.5 108.87,-47.59"/>
<polygon fill="midnightblue" stroke="midnightblue" points="107.9,-50.96 118.49,-50.83 110.13,-44.33 107.9,-50.96"/>
</g>
<!-- Node8 -->
<g id="node8" class="node">
<title>Node8</title>
<g id="a_node8"><a xlink:href="_incubator_8cpp.html#a22634c395123171d31d988b1bcb5776f" target="_top" xlink:title=" ">
<polygon fill="none" stroke="black" points="410,-12.92 410,-31.92 482,-31.92 482,-12.92 410,-12.92"/>
<text text-anchor="middle" x="446" y="-19.92" font-family="Helvetica,sans-Serif" font-size="10.00">cfgFileName</text>
</a>
</g>
</g>
<!-- Node1&#45;&gt;Node8 -->
<g id="edge9" class="edge">
<title>Node1&#45;&gt;Node8</title>
<path fill="none" stroke="midnightblue" d="M66.15,-17.15C123.07,-8.56 245.26,6.55 348,-3.42 365.11,-5.08 383.69,-8.35 399.97,-11.72"/>
<polygon fill="midnightblue" stroke="midnightblue" points="399.26,-15.14 409.77,-13.81 400.72,-8.3 399.26,-15.14"/>
</g>
<!-- Node3 -->
<g id="node3" class="node">
<title>Node3</title>
<g id="a_node3"><a xlink:href="class_env.html#a391bb928ce93bbd72909cb7bade388ff" target="_top" xlink:title=" ">
<polygon fill="none" stroke="black" points="237,-126.92 237,-145.92 341,-145.92 341,-126.92 237,-126.92"/>
<text text-anchor="middle" x="289" y="-133.92" font-family="Helvetica,sans-Serif" font-size="10.00">Env::_cfg2Formulas</text>
</a>
</g>
</g>
<!-- Node2&#45;&gt;Node3 -->
<g id="edge2" class="edge">
<title>Node2&#45;&gt;Node3</title>
<path fill="none" stroke="midnightblue" d="M160.38,-70.09C175.45,-82.49 203.26,-104 230,-117.42 234.33,-119.59 238.96,-121.59 243.65,-123.41"/>
<polygon fill="midnightblue" stroke="midnightblue" points="242.69,-126.79 253.28,-126.9 245.07,-120.21 242.69,-126.79"/>
</g>
<!-- Node4 -->
<g id="node4" class="node">
<title>Node4</title>
<g id="a_node4"><a xlink:href="class_env.html#a0468f6095ca1e0c9317c4b23aa67bc42" target="_top" xlink:title=" ">
<polygon fill="none" stroke="black" points="243,-88.92 243,-107.92 335,-107.92 335,-88.92 243,-88.92"/>
<text text-anchor="middle" x="289" y="-95.92" font-family="Helvetica,sans-Serif" font-size="10.00">Env::_obj2Config</text>
</a>
</g>
</g>
<!-- Node2&#45;&gt;Node4 -->
<g id="edge3" class="edge">
<title>Node2&#45;&gt;Node4</title>
<path fill="none" stroke="midnightblue" d="M184.08,-70.01C202.02,-74.91 224.06,-80.94 243.22,-86.17"/>
<polygon fill="midnightblue" stroke="midnightblue" points="242.37,-89.57 252.94,-88.83 244.21,-82.82 242.37,-89.57"/>
</g>
<!-- Node7 -->
<g id="node7" class="node">
<title>Node7</title>
<g id="a_node7"><a xlink:href="class_env.html#a25e1717e8826032795d713a474e548b9" target="_top" xlink:title=" ">
<polygon fill="none" stroke="black" points="230,-50.92 230,-69.92 348,-69.92 348,-50.92 230,-50.92"/>
<text text-anchor="middle" x="289" y="-57.92" font-family="Helvetica,sans-Serif" font-size="10.00">Env::_readFromCfgFile</text>
</a>
</g>
</g>
<!-- Node2&#45;&gt;Node7 -->
<g id="edge6" class="edge">
<title>Node2&#45;&gt;Node7</title>
<path fill="none" stroke="midnightblue" d="M194.13,-60.42C202.33,-60.42 211.06,-60.42 219.75,-60.42"/>
<polygon fill="midnightblue" stroke="midnightblue" points="219.92,-63.92 229.92,-60.42 219.92,-56.92 219.92,-63.92"/>
</g>
<!-- Node9 -->
<g id="node9" class="node">
<title>Node9</title>
<g id="a_node9"><a xlink:href="class_env.html#af384952f73e5f6c4e03b9533a3272f7e" target="_top" xlink:title=" ">
<polygon fill="none" stroke="black" points="250.5,-12.92 250.5,-31.92 327.5,-31.92 327.5,-12.92 250.5,-12.92"/>
<text text-anchor="middle" x="289" y="-19.92" font-family="Helvetica,sans-Serif" font-size="10.00">Env::_str2Obj</text>
</a>
</g>
</g>
<!-- Node2&#45;&gt;Node9 -->
<g id="edge8" class="edge">
<title>Node2&#45;&gt;Node9</title>
<path fill="none" stroke="midnightblue" d="M184.08,-50.83C202.02,-45.92 224.06,-39.9 243.22,-34.66"/>
<polygon fill="midnightblue" stroke="midnightblue" points="244.21,-38.02 252.94,-32 242.37,-31.26 244.21,-38.02"/>
</g>
<!-- Node5 -->
<g id="node5" class="node">
<title>Node5</title>
<g id="a_node5"><a xlink:href="class_env.html#aecf668e7dfe93e0d8f5b960ba48123d6" target="_top" xlink:title=" ">
<polygon fill="none" stroke="black" points="400.5,-107.92 400.5,-126.92 491.5,-126.92 491.5,-107.92 400.5,-107.92"/>
<text text-anchor="middle" x="446" y="-114.92" font-family="Helvetica,sans-Serif" font-size="10.00">Env::_obj2Phase</text>
</a>
</g>
</g>
<!-- Node4&#45;&gt;Node5 -->
<g id="edge4" class="edge">
<title>Node4&#45;&gt;Node5</title>
<path fill="none" stroke="midnightblue" d="M335.25,-103.96C352.51,-106.08 372.37,-108.51 390.41,-110.72"/>
<polygon fill="midnightblue" stroke="midnightblue" points="390.15,-114.22 400.5,-111.96 391,-107.27 390.15,-114.22"/>
</g>
<!-- Node6 -->
<g id="node6" class="node">
<title>Node6</title>
<g id="a_node6"><a xlink:href="class_env.html#aa16d4c38c8180d55cb99c309465ce518" target="_top" xlink:title=" ">
<polygon fill="none" stroke="black" points="384,-69.92 384,-88.92 508,-88.92 508,-69.92 384,-69.92"/>
<text text-anchor="middle" x="446" y="-76.92" font-family="Helvetica,sans-Serif" font-size="10.00">Env::_objByPhaseName</text>
</a>
</g>
</g>
<!-- Node4&#45;&gt;Node6 -->
<g id="edge5" class="edge">
<title>Node4&#45;&gt;Node6</title>
<path fill="none" stroke="midnightblue" d="M335.25,-92.87C347.35,-91.39 360.74,-89.75 373.87,-88.14"/>
<polygon fill="midnightblue" stroke="midnightblue" points="374.35,-91.6 383.85,-86.91 373.49,-84.66 374.35,-91.6"/>
</g>
<!-- Node7&#45;&gt;Node8 -->
<g id="edge7" class="edge">
<title>Node7&#45;&gt;Node8</title>
<path fill="none" stroke="midnightblue" d="M329.11,-50.83C350.66,-45.55 377.49,-38.97 399.91,-33.47"/>
<polygon fill="midnightblue" stroke="midnightblue" points="400.99,-36.81 409.87,-31.03 399.32,-30.01 400.99,-36.81"/>
</g>
</g>
</svg>
        <g id="navigator" transform="translate(0 0)" fill="#404254">
                <rect fill="#f2f5e9" fill-opacity="0.5" stroke="#606060" stroke-width=".5" x="0" y="0" width="60" height="60"/>
                <use id="zoomplus" xlink:href="#zoomPlus" x="17" y="9" onmousedown="handleZoom(evt,'in')"/>
                <use id="zoomminus" xlink:href="#zoomMin" x="42" y="9" onmousedown="handleZoom(evt,'out')"/>
                <use id="reset" xlink:href="#resetDef" x="30" y="36" onmousedown="handleReset()"/>
                <g id="arrowUp" xlink:href="#dirArrow" transform="translate(30 24)" onmousedown="handlePan(0,-1)">
                  <use xlink:href="#rim" fill="#404040">
                        <set attributeName="fill" to="#808080" begin="arrowUp.mouseover" end="arrowUp.mouseout"/>
                  </use>
                  <path fill="none" stroke="white" stroke-width="1.5" d="M0,-3.0v7 M-2.5,-0.5L0,-3.0L2.5,-0.5"/>
                </g>
                <g id="arrowRight" xlink:href="#dirArrow" transform="rotate(90) translate(36 -43)" onmousedown="handlePan(1,0)">
                  <use xlink:href="#rim" fill="#404040">
                        <set attributeName="fill" to="#808080" begin="arrowRight.mouseover" end="arrowRight.mouseout"/>
                  </use>
                  <path fill="none" stroke="white" stroke-width="1.5" d="M0,-3.0v7 M-2.5,-0.5L0,-3.0L2.5,-0.5"/>
                </g>
                <g id="arrowDown" xlink:href="#dirArrow" transform="rotate(180) translate(-30 -48)" onmousedown="handlePan(0,1)">
                  <use xlink:href="#rim" fill="#404040">
                        <set attributeName="fill" to="#808080" begin="arrowDown.mouseover" end="arrowDown.mouseout"/>
                  </use>
                  <path fill="none" stroke="white" stroke-width="1.5" d="M0,-3.0v7 M-2.5,-0.5L0,-3.0L2.5,-0.5"/>
                </g>
                <g id="arrowLeft" xlink:href="#dirArrow" transform="rotate(270) translate(-36 17)" onmousedown="handlePan(-1,0)">
                  <use xlink:href="#rim" fill="#404040">
                        <set attributeName="fill" to="#808080" begin="arrowLeft.mouseover" end="arrowLeft.mouseout"/>
                  </use>
                  <path fill="none" stroke="white" stroke-width="1.5" d="M0,-3.0v7 M-2.5,-0.5L0,-3.0L2.5,-0.5"/>
                </g>
        </g>
        <svg viewBox="0 0 15 15" width="100%" height="30px" preserveAspectRatio="xMaxYMin meet">
         <g id="arrow_out" transform="scale(0.3 0.3)">
          <a xlink:href="class_env_a4b566e9606cee1c40837311d04c3c521_cgraph_org.svg" target="_base">
           <rect id="button" ry="5" rx="5" y="6" x="6" height="38" width="38"
                fill="#f2f5e9" fill-opacity="0.5" stroke="#606060" stroke-width="1.0"/>
           <path id="arrow"
             d="M 11.500037,31.436501 C 11.940474,20.09759 22.043105,11.32322 32.158766,21.979434 L 37.068811,17.246167 C 37.068811,17.246167 37.088388,32 37.088388,32 L 22.160133,31.978069 C 22.160133,31.978069 26.997745,27.140456 26.997745,27.140456 C 18.528582,18.264221 13.291696,25.230495 11.500037,31.436501 z"
             style="fill:#404040;"/>
          </a>
         </g>
        </svg>
</svg>
