<?xml version="1.0" encoding="UTF-8" standalone="no"?>
<!DOCTYPE svg PUBLIC "-//W3C//DTD SVG 1.1//EN"
 "http://www.w3.org/Graphics/SVG/1.1/DTD/svg11.dtd">
<!-- Generated by graphviz version 2.50.0 (20211204.2007)
 -->
<!-- Title: DisplayServer::run Pages: 1 -->
<!--zoomable 180 -->
<svg id="main" version="1.1" xmlns="http://www.w3.org/2000/svg" xmlns:xlink="http://www.w3.org/1999/xlink" xml:space="preserve" onload="init(evt)">
<style type="text/css"><![CDATA[
.edge:hover path { stroke: red; }
.edge:hover polygon { stroke: red; fill: red; }
]]></style>
<script type="text/javascript"><![CDATA[
var edges = document.getElementsByTagName('g');
if (edges && edges.length) {
  for (var i=0;i<edges.length;i++) {
    if (edges[i].id.substr(0,4)=='edge') {
      edges[i].setAttribute('class','edge');
    }
  }
}
]]></script>
        <defs>
                <circle id="rim" cx="0" cy="0" r="7"/>
                <circle id="rim2" cx="0" cy="0" r="3.5"/>
                <g id="zoomPlus">
                        <use xlink:href="#rim" fill="#404040">
                                <set attributeName="fill" to="#808080" begin="zoomplus.mouseover" end="zoomplus.mouseout"/>
                        </use>
                        <path d="M-4,0h8M0,-4v8" fill="none" stroke="white" stroke-width="1.5" pointer-events="none"/>
                </g>
                <g id="zoomMin">
                        <use xlink:href="#rim" fill="#404040">
                                <set attributeName="fill" to="#808080" begin="zoomminus.mouseover" end="zoomminus.mouseout"/>
                        </use>
                        <path d="M-4,0h8" fill="none" stroke="white" stroke-width="1.5" pointer-events="none"/>
                </g>
                <g id="dirArrow">
                        <path fill="none" stroke="white" stroke-width="1.5" d="M0,-3.0v7 M-2.5,-0.5L0,-3.0L2.5,-0.5"/>
                </g>
               <g id="resetDef">
                       <use xlink:href="#rim2" fill="#404040">
                               <set attributeName="fill" to="#808080" begin="reset.mouseover" end="reset.mouseout"/>
                       </use>
               </g>
        </defs>

<script type="text/javascript">
var viewWidth = 670;
var viewHeight = 180;
var sectionId = 'dynsection-5';
</script>
<script xlink:href="svgpan.js"/>
<svg id="graph" class="graph">
<g id="viewport">
<title>DisplayServer::run</title>
<!-- Node1 -->
<g id="node1" class="node">
<title>Node1</title>
<g id="a_node1"><a xlink:title=" ">
<polygon fill="#bfbfbf" stroke="black" points="0,-57.5 0,-76.5 98,-76.5 98,-57.5 0,-57.5"/>
<text text-anchor="middle" x="49" y="-64.5" font-family="Helvetica,sans-Serif" font-size="10.00">DisplayServer::run</text>
</a>
</g>
</g>
<!-- Node2 -->
<g id="node2" class="node">
<title>Node2</title>
<g id="a_node2"><a xlink:href="class_display_server.html#aec4ced2b9f9163d6ca174b82f8d0249e" target="_top" xlink:title=" ">
<polygon fill="none" stroke="black" points="140,-114.5 140,-133.5 292,-133.5 292,-114.5 140,-114.5"/>
<text text-anchor="middle" x="216" y="-121.5" font-family="Helvetica,sans-Serif" font-size="10.00">DisplayServer::_updateDisplay</text>
</a>
</g>
</g>
<!-- Node1&#45;&gt;Node2 -->
<g id="edge1" class="edge">
<title>Node1&#45;&gt;Node2</title>
<path fill="none" stroke="midnightblue" d="M72.98,-76.65C89.75,-83.53 113.11,-92.82 134,-100 145.81,-104.06 158.73,-108.08 170.71,-111.63"/>
<polygon fill="midnightblue" stroke="midnightblue" points="169.92,-115.04 180.5,-114.49 171.89,-108.33 169.92,-115.04"/>
</g>
<!-- Node9 -->
<g id="node9" class="node">
<title>Node9</title>
<g id="a_node9"><a xlink:href="class_info_panel.html#ab38d1389f70d810e41c571166b90cbe3" target="_top" xlink:title=" ">
<polygon fill="none" stroke="black" points="334,-76.5 334,-95.5 491,-95.5 491,-76.5 334,-76.5"/>
<text text-anchor="middle" x="412.5" y="-83.5" font-family="Helvetica,sans-Serif" font-size="10.00">InfoPanel::drawInfoNewSession</text>
</a>
</g>
</g>
<!-- Node1&#45;&gt;Node9 -->
<g id="edge8" class="edge">
<title>Node1&#45;&gt;Node9</title>
<path fill="none" stroke="midnightblue" d="M98,-69.52C155.39,-72.54 252.57,-77.65 323.55,-81.38"/>
<polygon fill="midnightblue" stroke="midnightblue" points="323.66,-84.89 333.83,-81.92 324.02,-77.9 323.66,-84.89"/>
</g>
<!-- Node10 -->
<g id="node10" class="node">
<title>Node10</title>
<g id="a_node10"><a xlink:href="_display_server_8cpp.html#ae6c284f76536f5a2cdc683e68988d02a" target="_top" xlink:title=" ">
<polygon fill="none" stroke="black" points="195.5,-38.5 195.5,-57.5 236.5,-57.5 236.5,-38.5 195.5,-38.5"/>
<text text-anchor="middle" x="216" y="-45.5" font-family="Helvetica,sans-Serif" font-size="10.00">guard</text>
</a>
</g>
</g>
<!-- Node1&#45;&gt;Node10 -->
<g id="edge12" class="edge">
<title>Node1&#45;&gt;Node10</title>
<path fill="none" stroke="midnightblue" d="M98.17,-61.45C126.34,-58.21 161.01,-54.22 185.24,-51.43"/>
<polygon fill="midnightblue" stroke="midnightblue" points="185.72,-54.89 195.25,-50.27 184.92,-47.94 185.72,-54.89"/>
</g>
<!-- Node11 -->
<g id="node11" class="node">
<title>Node11</title>
<g id="a_node11"><a xlink:href="class_info_panel.html#afe133feade84a75e1b4cfe1688357474" target="_top" xlink:title=" ">
<polygon fill="none" stroke="black" points="134,-0.5 134,-19.5 298,-19.5 298,-0.5 134,-0.5"/>
<text text-anchor="middle" x="216" y="-7.5" font-family="Helvetica,sans-Serif" font-size="10.00">InfoPanel::isRequestNewSession</text>
</a>
</g>
</g>
<!-- Node1&#45;&gt;Node11 -->
<g id="edge13" class="edge">
<title>Node1&#45;&gt;Node11</title>
<path fill="none" stroke="midnightblue" d="M68.26,-57.49C85,-49.07 110.66,-36.93 134,-29 141.58,-26.42 149.68,-24.07 157.72,-21.97"/>
<polygon fill="midnightblue" stroke="midnightblue" points="158.6,-25.35 167.45,-19.53 156.9,-18.56 158.6,-25.35"/>
</g>
<!-- Node3 -->
<g id="node3" class="node">
<title>Node3</title>
<g id="a_node3"><a xlink:href="class_info_panel.html#a06ea1542da8007f88d6db68cbb0cadd1" target="_top" xlink:title=" ">
<polygon fill="none" stroke="black" points="349.5,-114.5 349.5,-133.5 475.5,-133.5 475.5,-114.5 349.5,-114.5"/>
<text text-anchor="middle" x="412.5" y="-121.5" font-family="Helvetica,sans-Serif" font-size="10.00">InfoPanel::drawInfoPanel</text>
</a>
</g>
</g>
<!-- Node2&#45;&gt;Node3 -->
<g id="edge2" class="edge">
<title>Node2&#45;&gt;Node3</title>
<path fill="none" stroke="midnightblue" d="M292.2,-124C307.57,-124 323.72,-124 339,-124"/>
<polygon fill="midnightblue" stroke="midnightblue" points="339.41,-127.5 349.41,-124 339.41,-120.5 339.41,-127.5"/>
</g>
<!-- Node8 -->
<g id="node8" class="node">
<title>Node8</title>
<g id="a_node8"><a xlink:href="_display_server_8cpp.html#a03529396588a5d4dac36c432989fdfaa" target="_top" xlink:title=" ">
<polygon fill="none" stroke="black" points="395,-152.5 395,-171.5 430,-171.5 430,-152.5 395,-152.5"/>
<text text-anchor="middle" x="412.5" y="-159.5" font-family="Helvetica,sans-Serif" font-size="10.00">split</text>
</a>
</g>
</g>
<!-- Node2&#45;&gt;Node8 -->
<g id="edge7" class="edge">
<title>Node2&#45;&gt;Node8</title>
<path fill="none" stroke="midnightblue" d="M265.83,-133.54C303.48,-140.9 354.12,-150.79 384.7,-156.76"/>
<polygon fill="midnightblue" stroke="midnightblue" points="384.14,-160.22 394.63,-158.7 385.49,-153.35 384.14,-160.22"/>
</g>
<!-- Node4 -->
<g id="node4" class="node">
<title>Node4</title>
<g id="a_node4"><a xlink:href="class_info_panel.html#a0dc46c497fcc00d1ed813e32c26320bd" target="_top" xlink:title=" ">
<polygon fill="none" stroke="black" points="527,-114.5 527,-133.5 662,-133.5 662,-114.5 527,-114.5"/>
<text text-anchor="middle" x="594.5" y="-121.5" font-family="Helvetica,sans-Serif" font-size="10.00">InfoPanel::_destroyCanvas</text>
</a>
</g>
</g>
<!-- Node3&#45;&gt;Node4 -->
<g id="edge3" class="edge">
<title>Node3&#45;&gt;Node4</title>
<path fill="none" stroke="midnightblue" d="M475.7,-124C488.82,-124 502.81,-124 516.4,-124"/>
<polygon fill="midnightblue" stroke="midnightblue" points="516.69,-127.5 526.69,-124 516.69,-120.5 516.69,-127.5"/>
</g>
<!-- Node5 -->
<g id="node5" class="node">
<title>Node5</title>
<g id="a_node5"><a xlink:href="class_info_panel.html#a7974b73d016dec3017ae6d7aa7fc046e" target="_top" xlink:title=" ">
<polygon fill="none" stroke="black" points="529.5,-152.5 529.5,-171.5 659.5,-171.5 659.5,-152.5 529.5,-152.5"/>
<text text-anchor="middle" x="594.5" y="-159.5" font-family="Helvetica,sans-Serif" font-size="10.00">InfoPanel::_drawSolidLine</text>
</a>
</g>
</g>
<!-- Node3&#45;&gt;Node5 -->
<g id="edge4" class="edge">
<title>Node3&#45;&gt;Node5</title>
<path fill="none" stroke="midnightblue" d="M458.92,-133.59C483.1,-138.69 513.03,-145.01 538.51,-150.39"/>
<polygon fill="midnightblue" stroke="midnightblue" points="537.9,-153.84 548.41,-152.48 539.34,-146.99 537.9,-153.84"/>
</g>
<!-- Node6 -->
<g id="node6" class="node">
<title>Node6</title>
<g id="a_node6"><a xlink:href="class_info_panel.html#ad998de9843ed1dd96325903697c9bab0" target="_top" xlink:title=" ">
<polygon fill="none" stroke="black" points="527,-76.5 527,-95.5 662,-95.5 662,-76.5 527,-76.5"/>
<text text-anchor="middle" x="594.5" y="-83.5" font-family="Helvetica,sans-Serif" font-size="10.00">InfoPanel::_prepareCanvas</text>
</a>
</g>
</g>
<!-- Node3&#45;&gt;Node6 -->
<g id="edge5" class="edge">
<title>Node3&#45;&gt;Node6</title>
<path fill="none" stroke="midnightblue" d="M458.92,-114.41C483.1,-109.31 513.03,-102.99 538.51,-97.61"/>
<polygon fill="midnightblue" stroke="midnightblue" points="539.34,-101.01 548.41,-95.52 537.9,-94.16 539.34,-101.01"/>
</g>
<!-- Node7 -->
<g id="node7" class="node">
<title>Node7</title>
<g id="a_node7"><a xlink:href="class_info_panel.html#a3d2ccd85850cab49479882271dd15915" target="_top" xlink:title=" ">
<polygon fill="none" stroke="black" points="528,-38.5 528,-57.5 661,-57.5 661,-38.5 528,-38.5"/>
<text text-anchor="middle" x="594.5" y="-45.5" font-family="Helvetica,sans-Serif" font-size="10.00">InfoPanel::_refreshCanvas</text>
</a>
</g>
</g>
<!-- Node3&#45;&gt;Node7 -->
<g id="edge6" class="edge">
<title>Node3&#45;&gt;Node7</title>
<path fill="none" stroke="midnightblue" d="M469.22,-114.47C476.81,-112 484.29,-108.9 491,-105 511.11,-93.31 507.11,-79.07 527,-67 530.58,-64.83 534.42,-62.89 538.38,-61.18"/>
<polygon fill="midnightblue" stroke="midnightblue" points="539.71,-64.41 547.78,-57.54 537.19,-57.88 539.71,-64.41"/>
</g>
<!-- Node9&#45;&gt;Node4 -->
<g id="edge9" class="edge">
<title>Node9&#45;&gt;Node4</title>
<path fill="none" stroke="midnightblue" d="M458.92,-95.59C483.1,-100.69 513.03,-107.01 538.51,-112.39"/>
<polygon fill="midnightblue" stroke="midnightblue" points="537.9,-115.84 548.41,-114.48 539.34,-108.99 537.9,-115.84"/>
</g>
<!-- Node9&#45;&gt;Node6 -->
<g id="edge10" class="edge">
<title>Node9&#45;&gt;Node6</title>
<path fill="none" stroke="midnightblue" d="M491.14,-86C499.6,-86 508.2,-86 516.65,-86"/>
<polygon fill="midnightblue" stroke="midnightblue" points="516.85,-89.5 526.85,-86 516.85,-82.5 516.85,-89.5"/>
</g>
<!-- Node9&#45;&gt;Node7 -->
<g id="edge11" class="edge">
<title>Node9&#45;&gt;Node7</title>
<path fill="none" stroke="midnightblue" d="M458.92,-76.41C483.1,-71.31 513.03,-64.99 538.51,-59.61"/>
<polygon fill="midnightblue" stroke="midnightblue" points="539.34,-63.01 548.41,-57.52 537.9,-56.16 539.34,-63.01"/>
</g>
</g>
</svg>
        <g id="navigator" transform="translate(0 0)" fill="#404254">
                <rect fill="#f2f5e9" fill-opacity="0.5" stroke="#606060" stroke-width=".5" x="0" y="0" width="60" height="60"/>
                <use id="zoomplus" xlink:href="#zoomPlus" x="17" y="9" onmousedown="handleZoom(evt,'in')"/>
                <use id="zoomminus" xlink:href="#zoomMin" x="42" y="9" onmousedown="handleZoom(evt,'out')"/>
                <use id="reset" xlink:href="#resetDef" x="30" y="36" onmousedown="handleReset()"/>
                <g id="arrowUp" xlink:href="#dirArrow" transform="translate(30 24)" onmousedown="handlePan(0,-1)">
                  <use xlink:href="#rim" fill="#404040">
                        <set attributeName="fill" to="#808080" begin="arrowUp.mouseover" end="arrowUp.mouseout"/>
                  </use>
                  <path fill="none" stroke="white" stroke-width="1.5" d="M0,-3.0v7 M-2.5,-0.5L0,-3.0L2.5,-0.5"/>
                </g>
                <g id="arrowRight" xlink:href="#dirArrow" transform="rotate(90) translate(36 -43)" onmousedown="handlePan(1,0)">
                  <use xlink:href="#rim" fill="#404040">
                        <set attributeName="fill" to="#808080" begin="arrowRight.mouseover" end="arrowRight.mouseout"/>
                  </use>
                  <path fill="none" stroke="white" stroke-width="1.5" d="M0,-3.0v7 M-2.5,-0.5L0,-3.0L2.5,-0.5"/>
                </g>
                <g id="arrowDown" xlink:href="#dirArrow" transform="rotate(180) translate(-30 -48)" onmousedown="handlePan(0,1)">
                  <use xlink:href="#rim" fill="#404040">
                        <set attributeName="fill" to="#808080" begin="arrowDown.mouseover" end="arrowDown.mouseout"/>
                  </use>
                  <path fill="none" stroke="white" stroke-width="1.5" d="M0,-3.0v7 M-2.5,-0.5L0,-3.0L2.5,-0.5"/>
                </g>
                <g id="arrowLeft" xlink:href="#dirArrow" transform="rotate(270) translate(-36 17)" onmousedown="handlePan(-1,0)">
                  <use xlink:href="#rim" fill="#404040">
                        <set attributeName="fill" to="#808080" begin="arrowLeft.mouseover" end="arrowLeft.mouseout"/>
                  </use>
                  <path fill="none" stroke="white" stroke-width="1.5" d="M0,-3.0v7 M-2.5,-0.5L0,-3.0L2.5,-0.5"/>
                </g>
        </g>
        <svg viewBox="0 0 15 15" width="100%" height="30px" preserveAspectRatio="xMaxYMin meet">
         <g id="arrow_out" transform="scale(0.3 0.3)">
          <a xlink:href="class_display_server_a51dae66f15f858f9ed8407e425fe03f1_cgraph_org.svg" target="_base">
           <rect id="button" ry="5" rx="5" y="6" x="6" height="38" width="38"
                fill="#f2f5e9" fill-opacity="0.5" stroke="#606060" stroke-width="1.0"/>
           <path id="arrow"
             d="M 11.500037,31.436501 C 11.940474,20.09759 22.043105,11.32322 32.158766,21.979434 L 37.068811,17.246167 C 37.068811,17.246167 37.088388,32 37.088388,32 L 22.160133,31.978069 C 22.160133,31.978069 26.997745,27.140456 26.997745,27.140456 C 18.528582,18.264221 13.291696,25.230495 11.500037,31.436501 z"
             style="fill:#404040;"/>
          </a>
         </g>
        </svg>
</svg>
