<?xml version="1.0" encoding="UTF-8" standalone="no"?>
<!DOCTYPE svg PUBLIC "-//W3C//DTD SVG 1.1//EN"
 "http://www.w3.org/Graphics/SVG/1.1/DTD/svg11.dtd">
<!-- Generated by graphviz version 2.48.0 (20210717.1556)
 -->
<!-- Title: SessionTime Pages: 1 -->
<svg width="153pt" height="453pt"
 viewBox="0.00 0.00 152.50 453.00" xmlns="http://www.w3.org/2000/svg" xmlns:xlink="http://www.w3.org/1999/xlink">
<g id="graph0" class="graph" transform="scale(1 1) rotate(0) translate(4 449)">
<title>SessionTime</title>
<!-- Node1 -->
<g id="node1" class="node">
<title>Node1</title>
<g id="a_node1"><a xlink:title=" ">
<polygon fill="#bfbfbf" stroke="black" points="19,-0.5 19,-178.5 114,-178.5 114,-0.5 19,-0.5"/>
<text text-anchor="middle" x="66.5" y="-166.5" font-family="Helvetica,sans-Serif" font-size="10.00">SessionTime</text>
<polyline fill="none" stroke="black" points="19,-159.5 114,-159.5 "/>
<text text-anchor="start" x="27" y="-147.5" font-family="Helvetica,sans-Serif" font-size="10.00">&#45; _initialized</text>
<text text-anchor="start" x="27" y="-136.5" font-family="Helvetica,sans-Serif" font-size="10.00">&#45; _start</text>
<polyline fill="none" stroke="black" points="19,-129.5 114,-129.5 "/>
<text text-anchor="start" x="27" y="-117.5" font-family="Helvetica,sans-Serif" font-size="10.00">+ SessionTime()</text>
<text text-anchor="start" x="27" y="-106.5" font-family="Helvetica,sans-Serif" font-size="10.00">+ ~SessionTime()</text>
<text text-anchor="start" x="27" y="-95.5" font-family="Helvetica,sans-Serif" font-size="10.00">+ init()</text>
<text text-anchor="start" x="27" y="-84.5" font-family="Helvetica,sans-Serif" font-size="10.00">+ deinit()</text>
<text text-anchor="start" x="27" y="-73.5" font-family="Helvetica,sans-Serif" font-size="10.00">+ getStart()</text>
<text text-anchor="start" x="27" y="-62.5" font-family="Helvetica,sans-Serif" font-size="10.00">+ setStart()</text>
<text text-anchor="start" x="27" y="-51.5" font-family="Helvetica,sans-Serif" font-size="10.00">+ getCurrent()</text>
<text text-anchor="start" x="27" y="-40.5" font-family="Helvetica,sans-Serif" font-size="10.00">+ getElapsed()</text>
<text text-anchor="start" x="27" y="-29.5" font-family="Helvetica,sans-Serif" font-size="10.00">+ daysPassed()</text>
<text text-anchor="start" x="27" y="-18.5" font-family="Helvetica,sans-Serif" font-size="10.00">&#45; _fileExist()</text>
<text text-anchor="start" x="27" y="-7.5" font-family="Helvetica,sans-Serif" font-size="10.00">&#45; _createFile()</text>
</a>
</g>
</g>
<!-- Node2 -->
<g id="node2" class="node">
<title>Node2</title>
<g id="a_node2"><a xlink:href="class_singleton.html" target="_top" xlink:title=" ">
<polygon fill="none" stroke="black" points="0,-216.5 0,-306.5 133,-306.5 133,-216.5 0,-216.5"/>
<text text-anchor="middle" x="66.5" y="-294.5" font-family="Helvetica,sans-Serif" font-size="10.00">Singleton&lt; SessionTime &gt;</text>
<polyline fill="none" stroke="black" points="0,-287.5 133,-287.5 "/>
<text text-anchor="middle" x="66.5" y="-275.5" font-family="Helvetica,sans-Serif" font-size="10.00"> </text>
<polyline fill="none" stroke="black" points="0,-268.5 133,-268.5 "/>
<text text-anchor="start" x="8" y="-256.5" font-family="Helvetica,sans-Serif" font-size="10.00">+ getInstance()</text>
<text text-anchor="start" x="8" y="-245.5" font-family="Helvetica,sans-Serif" font-size="10.00"># Singleton()</text>
<text text-anchor="start" x="8" y="-234.5" font-family="Helvetica,sans-Serif" font-size="10.00">&#45; Singleton()</text>
<text text-anchor="start" x="8" y="-223.5" font-family="Helvetica,sans-Serif" font-size="10.00">&#45; operator=()</text>
</a>
</g>
</g>
<!-- Node2&#45;&gt;Node1 -->
<g id="edge1" class="edge">
<title>Node2&#45;&gt;Node1</title>
<path fill="none" stroke="midnightblue" d="M66.5,-206.2C66.5,-197.38 66.5,-188.06 66.5,-178.69"/>
<polygon fill="none" stroke="midnightblue" points="63,-206.28 66.5,-216.28 70,-206.28 63,-206.28"/>
</g>
<!-- Node3 -->
<g id="node3" class="node">
<title>Node3</title>
<g id="a_node3"><a xlink:href="class_singleton.html" target="_top" xlink:title=" ">
<polygon fill="none" stroke="black" points="25,-354.5 25,-444.5 108,-444.5 108,-354.5 25,-354.5"/>
<text text-anchor="middle" x="66.5" y="-432.5" font-family="Helvetica,sans-Serif" font-size="10.00">Singleton&lt; T &gt;</text>
<polyline fill="none" stroke="black" points="25,-425.5 108,-425.5 "/>
<text text-anchor="middle" x="66.5" y="-413.5" font-family="Helvetica,sans-Serif" font-size="10.00"> </text>
<polyline fill="none" stroke="black" points="25,-406.5 108,-406.5 "/>
<text text-anchor="start" x="33" y="-394.5" font-family="Helvetica,sans-Serif" font-size="10.00">+ getInstance()</text>
<text text-anchor="start" x="33" y="-383.5" font-family="Helvetica,sans-Serif" font-size="10.00"># Singleton()</text>
<text text-anchor="start" x="33" y="-372.5" font-family="Helvetica,sans-Serif" font-size="10.00">&#45; Singleton()</text>
<text text-anchor="start" x="33" y="-361.5" font-family="Helvetica,sans-Serif" font-size="10.00">&#45; operator=()</text>
</a>
</g>
</g>
<!-- Node3&#45;&gt;Node2 -->
<g id="edge2" class="edge">
<title>Node3&#45;&gt;Node2</title>
<path fill="none" stroke="orange" d="M66.5,-344.15C66.5,-331.78 66.5,-318.79 66.5,-306.9"/>
<polygon fill="orange" stroke="orange" points="63,-344.34 66.5,-354.34 70,-344.34 63,-344.34"/>
<text text-anchor="middle" x="105.5" y="-328" font-family="Helvetica,sans-Serif" font-size="10.00"> &lt; SessionTime &gt;</text>
</g>
</g>
</svg>
