<?xml version="1.0" encoding="UTF-8" standalone="no"?>
<!DOCTYPE svg PUBLIC "-//W3C//DTD SVG 1.1//EN"
 "http://www.w3.org/Graphics/SVG/1.1/DTD/svg11.dtd">
<!-- Generated by graphviz version 2.48.0 (20210717.1556)
 -->
<!-- Title: Singleton&lt; T &gt; Pages: 1 -->
<svg width="519pt" height="541pt"
 viewBox="0.00 0.00 519.00 541.00" xmlns="http://www.w3.org/2000/svg" xmlns:xlink="http://www.w3.org/1999/xlink">
<g id="graph0" class="graph" transform="scale(1 1) rotate(0) translate(4 537)">
<title>Singleton&lt; T &gt;</title>
<!-- Node1 -->
<g id="node1" class="node">
<title>Node1</title>
<g id="a_node1"><a xlink:title=" ">
<polygon fill="#bfbfbf" stroke="black" points="211,-442.5 211,-532.5 294,-532.5 294,-442.5 211,-442.5"/>
<text text-anchor="middle" x="252.5" y="-520.5" font-family="Helvetica,sans-Serif" font-size="10.00">Singleton&lt; T &gt;</text>
<polyline fill="none" stroke="black" points="211,-513.5 294,-513.5 "/>
<text text-anchor="middle" x="252.5" y="-501.5" font-family="Helvetica,sans-Serif" font-size="10.00"> </text>
<polyline fill="none" stroke="black" points="211,-494.5 294,-494.5 "/>
<text text-anchor="start" x="219" y="-482.5" font-family="Helvetica,sans-Serif" font-size="10.00">+ getInstance()</text>
<text text-anchor="start" x="219" y="-471.5" font-family="Helvetica,sans-Serif" font-size="10.00"># Singleton()</text>
<text text-anchor="start" x="219" y="-460.5" font-family="Helvetica,sans-Serif" font-size="10.00">&#45; Singleton()</text>
<text text-anchor="start" x="219" y="-449.5" font-family="Helvetica,sans-Serif" font-size="10.00">&#45; operator=()</text>
</a>
</g>
</g>
<!-- Node2 -->
<g id="node2" class="node">
<title>Node2</title>
<g id="a_node2"><a xlink:href="class_singleton.html" target="_top" xlink:title=" ">
<polygon fill="none" stroke="black" points="0,-304.5 0,-394.5 97,-394.5 97,-304.5 0,-304.5"/>
<text text-anchor="middle" x="48.5" y="-382.5" font-family="Helvetica,sans-Serif" font-size="10.00">Singleton&lt; Gpio &gt;</text>
<polyline fill="none" stroke="black" points="0,-375.5 97,-375.5 "/>
<text text-anchor="middle" x="48.5" y="-363.5" font-family="Helvetica,sans-Serif" font-size="10.00"> </text>
<polyline fill="none" stroke="black" points="0,-356.5 97,-356.5 "/>
<text text-anchor="start" x="8" y="-344.5" font-family="Helvetica,sans-Serif" font-size="10.00">+ getInstance()</text>
<text text-anchor="start" x="8" y="-333.5" font-family="Helvetica,sans-Serif" font-size="10.00"># Singleton()</text>
<text text-anchor="start" x="8" y="-322.5" font-family="Helvetica,sans-Serif" font-size="10.00">&#45; Singleton()</text>
<text text-anchor="start" x="8" y="-311.5" font-family="Helvetica,sans-Serif" font-size="10.00">&#45; operator=()</text>
</a>
</g>
</g>
<!-- Node1&#45;&gt;Node2 -->
<g id="edge1" class="edge">
<title>Node1&#45;&gt;Node2</title>
<path fill="none" stroke="orange" d="M202.2,-457C173.41,-439.67 136.88,-416.92 105.5,-395 102.72,-393.06 99.89,-391.03 97.06,-388.96"/>
<polygon fill="orange" stroke="orange" points="200.5,-460.06 210.88,-462.2 204.1,-454.06 200.5,-460.06"/>
<text text-anchor="middle" x="166.5" y="-416" font-family="Helvetica,sans-Serif" font-size="10.00"> &lt; Gpio &gt;</text>
</g>
<!-- Node4 -->
<g id="node4" class="node">
<title>Node4</title>
<g id="a_node4"><a xlink:href="class_singleton.html" target="_top" xlink:title=" ">
<polygon fill="none" stroke="black" points="115,-304.5 115,-394.5 248,-394.5 248,-304.5 115,-304.5"/>
<text text-anchor="middle" x="181.5" y="-382.5" font-family="Helvetica,sans-Serif" font-size="10.00">Singleton&lt; SessionTime &gt;</text>
<polyline fill="none" stroke="black" points="115,-375.5 248,-375.5 "/>
<text text-anchor="middle" x="181.5" y="-363.5" font-family="Helvetica,sans-Serif" font-size="10.00"> </text>
<polyline fill="none" stroke="black" points="115,-356.5 248,-356.5 "/>
<text text-anchor="start" x="123" y="-344.5" font-family="Helvetica,sans-Serif" font-size="10.00">+ getInstance()</text>
<text text-anchor="start" x="123" y="-333.5" font-family="Helvetica,sans-Serif" font-size="10.00"># Singleton()</text>
<text text-anchor="start" x="123" y="-322.5" font-family="Helvetica,sans-Serif" font-size="10.00">&#45; Singleton()</text>
<text text-anchor="start" x="123" y="-311.5" font-family="Helvetica,sans-Serif" font-size="10.00">&#45; operator=()</text>
</a>
</g>
</g>
<!-- Node1&#45;&gt;Node4 -->
<g id="edge3" class="edge">
<title>Node1&#45;&gt;Node4</title>
<path fill="none" stroke="orange" d="M218.63,-433.39C216.85,-430.24 215.13,-427.09 213.5,-424 208.58,-414.64 203.76,-404.36 199.41,-394.53"/>
<polygon fill="orange" stroke="orange" points="215.73,-435.35 223.78,-442.24 221.78,-431.84 215.73,-435.35"/>
<text text-anchor="middle" x="252.5" y="-416" font-family="Helvetica,sans-Serif" font-size="10.00"> &lt; SessionTime &gt;</text>
</g>
<!-- Node6 -->
<g id="node6" class="node">
<title>Node6</title>
<g id="a_node6"><a xlink:href="class_singleton.html" target="_top" xlink:title=" ">
<polygon fill="none" stroke="black" points="266,-304.5 266,-394.5 383,-394.5 383,-304.5 266,-304.5"/>
<text text-anchor="middle" x="324.5" y="-382.5" font-family="Helvetica,sans-Serif" font-size="10.00">Singleton&lt; Incubator &gt;</text>
<polyline fill="none" stroke="black" points="266,-375.5 383,-375.5 "/>
<text text-anchor="middle" x="324.5" y="-363.5" font-family="Helvetica,sans-Serif" font-size="10.00"> </text>
<polyline fill="none" stroke="black" points="266,-356.5 383,-356.5 "/>
<text text-anchor="start" x="274" y="-344.5" font-family="Helvetica,sans-Serif" font-size="10.00">+ getInstance()</text>
<text text-anchor="start" x="274" y="-333.5" font-family="Helvetica,sans-Serif" font-size="10.00"># Singleton()</text>
<text text-anchor="start" x="274" y="-322.5" font-family="Helvetica,sans-Serif" font-size="10.00">&#45; Singleton()</text>
<text text-anchor="start" x="274" y="-311.5" font-family="Helvetica,sans-Serif" font-size="10.00">&#45; operator=()</text>
</a>
</g>
</g>
<!-- Node1&#45;&gt;Node6 -->
<g id="edge5" class="edge">
<title>Node1&#45;&gt;Node6</title>
<path fill="none" stroke="orange" d="M286.32,-433.37C288.12,-430.22 289.86,-427.08 291.5,-424 296.5,-414.62 301.44,-404.33 305.92,-394.5"/>
<polygon fill="orange" stroke="orange" points="283.18,-431.81 281.16,-442.21 289.23,-435.34 283.18,-431.81"/>
<text text-anchor="middle" x="328.5" y="-416" font-family="Helvetica,sans-Serif" font-size="10.00"> &lt; Incubator &gt;</text>
</g>
<!-- Node8 -->
<g id="node8" class="node">
<title>Node8</title>
<g id="a_node8"><a xlink:href="class_singleton.html" target="_top" xlink:title=" ">
<polygon fill="none" stroke="black" points="405,-304.5 405,-394.5 498,-394.5 498,-304.5 405,-304.5"/>
<text text-anchor="middle" x="451.5" y="-382.5" font-family="Helvetica,sans-Serif" font-size="10.00">Singleton&lt; Env &gt;</text>
<polyline fill="none" stroke="black" points="405,-375.5 498,-375.5 "/>
<text text-anchor="middle" x="451.5" y="-363.5" font-family="Helvetica,sans-Serif" font-size="10.00"> </text>
<polyline fill="none" stroke="black" points="405,-356.5 498,-356.5 "/>
<text text-anchor="start" x="413" y="-344.5" font-family="Helvetica,sans-Serif" font-size="10.00">+ getInstance()</text>
<text text-anchor="start" x="413" y="-333.5" font-family="Helvetica,sans-Serif" font-size="10.00"># Singleton()</text>
<text text-anchor="start" x="413" y="-322.5" font-family="Helvetica,sans-Serif" font-size="10.00">&#45; Singleton()</text>
<text text-anchor="start" x="413" y="-311.5" font-family="Helvetica,sans-Serif" font-size="10.00">&#45; operator=()</text>
</a>
</g>
</g>
<!-- Node1&#45;&gt;Node8 -->
<g id="edge7" class="edge">
<title>Node1&#45;&gt;Node8</title>
<path fill="none" stroke="orange" d="M303.16,-460.53C322.51,-449.95 344.49,-437.13 363.5,-424 377.42,-414.39 391.8,-403.05 404.8,-392.2"/>
<polygon fill="orange" stroke="orange" points="301.31,-457.54 294.18,-465.37 304.64,-463.7 301.31,-457.54"/>
<text text-anchor="middle" x="397.5" y="-416" font-family="Helvetica,sans-Serif" font-size="10.00"> &lt; Env &gt;</text>
</g>
<!-- Node3 -->
<g id="node3" class="node">
<title>Node3</title>
<g id="a_node3"><a xlink:href="class_gpio.html" target="_top" xlink:title=" ">
<polygon fill="none" stroke="black" points="14,-88.5 14,-178.5 83,-178.5 83,-88.5 14,-88.5"/>
<text text-anchor="middle" x="48.5" y="-166.5" font-family="Helvetica,sans-Serif" font-size="10.00">Gpio</text>
<polyline fill="none" stroke="black" points="14,-159.5 83,-159.5 "/>
<text text-anchor="start" x="22" y="-147.5" font-family="Helvetica,sans-Serif" font-size="10.00">&#45; _initialized</text>
<polyline fill="none" stroke="black" points="14,-140.5 83,-140.5 "/>
<text text-anchor="start" x="22" y="-128.5" font-family="Helvetica,sans-Serif" font-size="10.00">+ Gpio()</text>
<text text-anchor="start" x="22" y="-117.5" font-family="Helvetica,sans-Serif" font-size="10.00">+ ~Gpio()</text>
<text text-anchor="start" x="22" y="-106.5" font-family="Helvetica,sans-Serif" font-size="10.00">+ init()</text>
<text text-anchor="start" x="22" y="-95.5" font-family="Helvetica,sans-Serif" font-size="10.00">+ deinit()</text>
</a>
</g>
</g>
<!-- Node2&#45;&gt;Node3 -->
<g id="edge2" class="edge">
<title>Node2&#45;&gt;Node3</title>
<path fill="none" stroke="midnightblue" d="M48.5,-294.14C48.5,-258.33 48.5,-212.03 48.5,-178.52"/>
<polygon fill="none" stroke="midnightblue" points="45,-294.42 48.5,-304.42 52,-294.42 45,-294.42"/>
</g>
<!-- Node5 -->
<g id="node5" class="node">
<title>Node5</title>
<g id="a_node5"><a xlink:href="class_session_time.html" target="_top" xlink:title=" ">
<polygon fill="none" stroke="black" points="134,-44.5 134,-222.5 229,-222.5 229,-44.5 134,-44.5"/>
<text text-anchor="middle" x="181.5" y="-210.5" font-family="Helvetica,sans-Serif" font-size="10.00">SessionTime</text>
<polyline fill="none" stroke="black" points="134,-203.5 229,-203.5 "/>
<text text-anchor="start" x="142" y="-191.5" font-family="Helvetica,sans-Serif" font-size="10.00">&#45; _initialized</text>
<text text-anchor="start" x="142" y="-180.5" font-family="Helvetica,sans-Serif" font-size="10.00">&#45; _start</text>
<polyline fill="none" stroke="black" points="134,-173.5 229,-173.5 "/>
<text text-anchor="start" x="142" y="-161.5" font-family="Helvetica,sans-Serif" font-size="10.00">+ SessionTime()</text>
<text text-anchor="start" x="142" y="-150.5" font-family="Helvetica,sans-Serif" font-size="10.00">+ ~SessionTime()</text>
<text text-anchor="start" x="142" y="-139.5" font-family="Helvetica,sans-Serif" font-size="10.00">+ init()</text>
<text text-anchor="start" x="142" y="-128.5" font-family="Helvetica,sans-Serif" font-size="10.00">+ deinit()</text>
<text text-anchor="start" x="142" y="-117.5" font-family="Helvetica,sans-Serif" font-size="10.00">+ getStart()</text>
<text text-anchor="start" x="142" y="-106.5" font-family="Helvetica,sans-Serif" font-size="10.00">+ setStart()</text>
<text text-anchor="start" x="142" y="-95.5" font-family="Helvetica,sans-Serif" font-size="10.00">+ getCurrent()</text>
<text text-anchor="start" x="142" y="-84.5" font-family="Helvetica,sans-Serif" font-size="10.00">+ getElapsed()</text>
<text text-anchor="start" x="142" y="-73.5" font-family="Helvetica,sans-Serif" font-size="10.00">+ daysPassed()</text>
<text text-anchor="start" x="142" y="-62.5" font-family="Helvetica,sans-Serif" font-size="10.00">&#45; _fileExist()</text>
<text text-anchor="start" x="142" y="-51.5" font-family="Helvetica,sans-Serif" font-size="10.00">&#45; _createFile()</text>
</a>
</g>
</g>
<!-- Node4&#45;&gt;Node5 -->
<g id="edge4" class="edge">
<title>Node4&#45;&gt;Node5</title>
<path fill="none" stroke="midnightblue" d="M181.5,-294.4C181.5,-272.65 181.5,-247 181.5,-222.69"/>
<polygon fill="none" stroke="midnightblue" points="178,-294.42 181.5,-304.42 185,-294.42 178,-294.42"/>
</g>
<!-- Node7 -->
<g id="node7" class="node">
<title>Node7</title>
<g id="a_node7"><a xlink:href="class_incubator.html" target="_top" xlink:title=" ">
<polygon fill="none" stroke="black" points="267,-0.5 267,-266.5 378,-266.5 378,-0.5 267,-0.5"/>
<text text-anchor="middle" x="322.5" y="-254.5" font-family="Helvetica,sans-Serif" font-size="10.00">Incubator</text>
<polyline fill="none" stroke="black" points="267,-247.5 378,-247.5 "/>
<text text-anchor="start" x="275" y="-235.5" font-family="Helvetica,sans-Serif" font-size="10.00">&#45; _initialized</text>
<text text-anchor="start" x="275" y="-224.5" font-family="Helvetica,sans-Serif" font-size="10.00">&#45; _runCount</text>
<text text-anchor="start" x="275" y="-213.5" font-family="Helvetica,sans-Serif" font-size="10.00">&#45; _pSig</text>
<text text-anchor="start" x="275" y="-202.5" font-family="Helvetica,sans-Serif" font-size="10.00">&#45; _pEnv</text>
<text text-anchor="start" x="275" y="-191.5" font-family="Helvetica,sans-Serif" font-size="10.00">&#45; _pSTime</text>
<text text-anchor="start" x="275" y="-180.5" font-family="Helvetica,sans-Serif" font-size="10.00">&#45; _pDC</text>
<text text-anchor="start" x="275" y="-169.5" font-family="Helvetica,sans-Serif" font-size="10.00">&#45; _pTempSensor</text>
<text text-anchor="start" x="275" y="-158.5" font-family="Helvetica,sans-Serif" font-size="10.00">&#45; _pHumidSensor</text>
<text text-anchor="start" x="275" y="-147.5" font-family="Helvetica,sans-Serif" font-size="10.00">&#45; _pAirFlowActuator</text>
<text text-anchor="start" x="275" y="-136.5" font-family="Helvetica,sans-Serif" font-size="10.00">&#45; _pDehumidActuator</text>
<text text-anchor="start" x="275" y="-125.5" font-family="Helvetica,sans-Serif" font-size="10.00">&#45; _pHeatActuator</text>
<text text-anchor="start" x="275" y="-114.5" font-family="Helvetica,sans-Serif" font-size="10.00">&#45; _pRollerActuator</text>
<polyline fill="none" stroke="black" points="267,-107.5 378,-107.5 "/>
<text text-anchor="start" x="275" y="-95.5" font-family="Helvetica,sans-Serif" font-size="10.00">+ Incubator()</text>
<text text-anchor="start" x="275" y="-84.5" font-family="Helvetica,sans-Serif" font-size="10.00">+ ~Incubator()</text>
<text text-anchor="start" x="275" y="-73.5" font-family="Helvetica,sans-Serif" font-size="10.00">+ init()</text>
<text text-anchor="start" x="275" y="-62.5" font-family="Helvetica,sans-Serif" font-size="10.00">+ deinit()</text>
<text text-anchor="start" x="275" y="-51.5" font-family="Helvetica,sans-Serif" font-size="10.00">+ runLoop()</text>
<text text-anchor="start" x="275" y="-40.5" font-family="Helvetica,sans-Serif" font-size="10.00">+ newSession()</text>
<text text-anchor="start" x="275" y="-29.5" font-family="Helvetica,sans-Serif" font-size="10.00">+ updatePanel()</text>
<text text-anchor="start" x="275" y="-18.5" font-family="Helvetica,sans-Serif" font-size="10.00">&#45; _run()</text>
<text text-anchor="start" x="275" y="-7.5" font-family="Helvetica,sans-Serif" font-size="10.00">&#45; _run4Roller()</text>
</a>
</g>
</g>
<!-- Node6&#45;&gt;Node7 -->
<g id="edge6" class="edge">
<title>Node6&#45;&gt;Node7</title>
<path fill="none" stroke="midnightblue" d="M323.99,-294.2C323.91,-285.56 323.83,-276.31 323.74,-266.77"/>
<polygon fill="none" stroke="midnightblue" points="320.49,-294.45 324.09,-304.42 327.49,-294.39 320.49,-294.45"/>
</g>
<!-- Node9 -->
<g id="node9" class="node">
<title>Node9</title>
<g id="a_node9"><a xlink:href="class_env.html" target="_top" xlink:title=" ">
<polygon fill="none" stroke="black" points="396,-22.5 396,-244.5 511,-244.5 511,-22.5 396,-22.5"/>
<text text-anchor="middle" x="453.5" y="-232.5" font-family="Helvetica,sans-Serif" font-size="10.00">Env</text>
<polyline fill="none" stroke="black" points="396,-225.5 511,-225.5 "/>
<text text-anchor="start" x="404" y="-213.5" font-family="Helvetica,sans-Serif" font-size="10.00">&#45; _text</text>
<text text-anchor="start" x="404" y="-202.5" font-family="Helvetica,sans-Serif" font-size="10.00">&#45; _config</text>
<text text-anchor="start" x="404" y="-191.5" font-family="Helvetica,sans-Serif" font-size="10.00">&#45; _formulas</text>
<polyline fill="none" stroke="black" points="396,-184.5 511,-184.5 "/>
<text text-anchor="start" x="404" y="-172.5" font-family="Helvetica,sans-Serif" font-size="10.00">+ Env()</text>
<text text-anchor="start" x="404" y="-161.5" font-family="Helvetica,sans-Serif" font-size="10.00">+ ~Env()</text>
<text text-anchor="start" x="404" y="-150.5" font-family="Helvetica,sans-Serif" font-size="10.00">+ setUp()</text>
<text text-anchor="start" x="404" y="-139.5" font-family="Helvetica,sans-Serif" font-size="10.00">+ getConfig()</text>
<text text-anchor="start" x="404" y="-128.5" font-family="Helvetica,sans-Serif" font-size="10.00">+ setConfig()</text>
<text text-anchor="start" x="404" y="-117.5" font-family="Helvetica,sans-Serif" font-size="10.00">+ getFormula()</text>
<text text-anchor="start" x="404" y="-106.5" font-family="Helvetica,sans-Serif" font-size="10.00">+ getMaxDay()</text>
<text text-anchor="start" x="404" y="-95.5" font-family="Helvetica,sans-Serif" font-size="10.00">&#45; _readConfig()</text>
<text text-anchor="start" x="404" y="-84.5" font-family="Helvetica,sans-Serif" font-size="10.00">&#45; _readFromCfgFile()</text>
<text text-anchor="start" x="404" y="-73.5" font-family="Helvetica,sans-Serif" font-size="10.00">&#45; _str2Obj()</text>
<text text-anchor="start" x="404" y="-62.5" font-family="Helvetica,sans-Serif" font-size="10.00">&#45; _objByPhaseName()</text>
<text text-anchor="start" x="404" y="-51.5" font-family="Helvetica,sans-Serif" font-size="10.00">&#45; _obj2Phase()</text>
<text text-anchor="start" x="404" y="-40.5" font-family="Helvetica,sans-Serif" font-size="10.00">&#45; _obj2Config()</text>
<text text-anchor="start" x="404" y="-29.5" font-family="Helvetica,sans-Serif" font-size="10.00">&#45; _cfg2Formulas()</text>
</a>
</g>
</g>
<!-- Node8&#45;&gt;Node9 -->
<g id="edge8" class="edge">
<title>Node8&#45;&gt;Node9</title>
<path fill="none" stroke="midnightblue" d="M452.01,-294.23C452.15,-279.05 452.31,-261.98 452.47,-244.79"/>
<polygon fill="none" stroke="midnightblue" points="448.51,-294.39 451.91,-304.42 455.51,-294.45 448.51,-294.39"/>
</g>
</g>
</svg>
