<?xml version="1.0" encoding="UTF-8" standalone="no"?>
<!DOCTYPE svg PUBLIC "-//W3C//DTD SVG 1.1//EN"
 "http://www.w3.org/Graphics/SVG/1.1/DTD/svg11.dtd">
<!-- Generated by graphviz version 2.48.0 (20210717.1556)
 -->
<!-- Title: Incubator Pages: 1 -->
<svg width="129pt" height="541pt"
 viewBox="0.00 0.00 128.50 541.00" xmlns="http://www.w3.org/2000/svg" xmlns:xlink="http://www.w3.org/1999/xlink">
<g id="graph0" class="graph" transform="scale(1 1) rotate(0) translate(4 537)">
<title>Incubator</title>
<!-- Node1 -->
<g id="node1" class="node">
<title>Node1</title>
<g id="a_node1"><a xlink:title=" ">
<polygon fill="#bfbfbf" stroke="black" points="3,-0.5 3,-266.5 114,-266.5 114,-0.5 3,-0.5"/>
<text text-anchor="middle" x="58.5" y="-254.5" font-family="Helvetica,sans-Serif" font-size="10.00">Incubator</text>
<polyline fill="none" stroke="black" points="3,-247.5 114,-247.5 "/>
<text text-anchor="start" x="11" y="-235.5" font-family="Helvetica,sans-Serif" font-size="10.00">&#45; _initialized</text>
<text text-anchor="start" x="11" y="-224.5" font-family="Helvetica,sans-Serif" font-size="10.00">&#45; _runCount</text>
<text text-anchor="start" x="11" y="-213.5" font-family="Helvetica,sans-Serif" font-size="10.00">&#45; _pSig</text>
<text text-anchor="start" x="11" y="-202.5" font-family="Helvetica,sans-Serif" font-size="10.00">&#45; _pEnv</text>
<text text-anchor="start" x="11" y="-191.5" font-family="Helvetica,sans-Serif" font-size="10.00">&#45; _pSTime</text>
<text text-anchor="start" x="11" y="-180.5" font-family="Helvetica,sans-Serif" font-size="10.00">&#45; _pDC</text>
<text text-anchor="start" x="11" y="-169.5" font-family="Helvetica,sans-Serif" font-size="10.00">&#45; _pTempSensor</text>
<text text-anchor="start" x="11" y="-158.5" font-family="Helvetica,sans-Serif" font-size="10.00">&#45; _pHumidSensor</text>
<text text-anchor="start" x="11" y="-147.5" font-family="Helvetica,sans-Serif" font-size="10.00">&#45; _pAirFlowActuator</text>
<text text-anchor="start" x="11" y="-136.5" font-family="Helvetica,sans-Serif" font-size="10.00">&#45; _pDehumidActuator</text>
<text text-anchor="start" x="11" y="-125.5" font-family="Helvetica,sans-Serif" font-size="10.00">&#45; _pHeatActuator</text>
<text text-anchor="start" x="11" y="-114.5" font-family="Helvetica,sans-Serif" font-size="10.00">&#45; _pRollerActuator</text>
<polyline fill="none" stroke="black" points="3,-107.5 114,-107.5 "/>
<text text-anchor="start" x="11" y="-95.5" font-family="Helvetica,sans-Serif" font-size="10.00">+ Incubator()</text>
<text text-anchor="start" x="11" y="-84.5" font-family="Helvetica,sans-Serif" font-size="10.00">+ ~Incubator()</text>
<text text-anchor="start" x="11" y="-73.5" font-family="Helvetica,sans-Serif" font-size="10.00">+ init()</text>
<text text-anchor="start" x="11" y="-62.5" font-family="Helvetica,sans-Serif" font-size="10.00">+ deinit()</text>
<text text-anchor="start" x="11" y="-51.5" font-family="Helvetica,sans-Serif" font-size="10.00">+ runLoop()</text>
<text text-anchor="start" x="11" y="-40.5" font-family="Helvetica,sans-Serif" font-size="10.00">+ newSession()</text>
<text text-anchor="start" x="11" y="-29.5" font-family="Helvetica,sans-Serif" font-size="10.00">+ updatePanel()</text>
<text text-anchor="start" x="11" y="-18.5" font-family="Helvetica,sans-Serif" font-size="10.00">&#45; _run()</text>
<text text-anchor="start" x="11" y="-7.5" font-family="Helvetica,sans-Serif" font-size="10.00">&#45; _run4Roller()</text>
</a>
</g>
</g>
<!-- Node2 -->
<g id="node2" class="node">
<title>Node2</title>
<g id="a_node2"><a xlink:href="class_singleton.html" target="_top" xlink:title=" ">
<polygon fill="none" stroke="black" points="0,-304.5 0,-394.5 117,-394.5 117,-304.5 0,-304.5"/>
<text text-anchor="middle" x="58.5" y="-382.5" font-family="Helvetica,sans-Serif" font-size="10.00">Singleton&lt; Incubator &gt;</text>
<polyline fill="none" stroke="black" points="0,-375.5 117,-375.5 "/>
<text text-anchor="middle" x="58.5" y="-363.5" font-family="Helvetica,sans-Serif" font-size="10.00"> </text>
<polyline fill="none" stroke="black" points="0,-356.5 117,-356.5 "/>
<text text-anchor="start" x="8" y="-344.5" font-family="Helvetica,sans-Serif" font-size="10.00">+ getInstance()</text>
<text text-anchor="start" x="8" y="-333.5" font-family="Helvetica,sans-Serif" font-size="10.00"># Singleton()</text>
<text text-anchor="start" x="8" y="-322.5" font-family="Helvetica,sans-Serif" font-size="10.00">&#45; Singleton()</text>
<text text-anchor="start" x="8" y="-311.5" font-family="Helvetica,sans-Serif" font-size="10.00">&#45; operator=()</text>
</a>
</g>
</g>
<!-- Node2&#45;&gt;Node1 -->
<g id="edge1" class="edge">
<title>Node2&#45;&gt;Node1</title>
<path fill="none" stroke="midnightblue" d="M58.5,-294.2C58.5,-285.56 58.5,-276.31 58.5,-266.77"/>
<polygon fill="none" stroke="midnightblue" points="55,-294.42 58.5,-304.42 62,-294.42 55,-294.42"/>
</g>
<!-- Node3 -->
<g id="node3" class="node">
<title>Node3</title>
<g id="a_node3"><a xlink:href="class_singleton.html" target="_top" xlink:title=" ">
<polygon fill="none" stroke="black" points="17,-442.5 17,-532.5 100,-532.5 100,-442.5 17,-442.5"/>
<text text-anchor="middle" x="58.5" y="-520.5" font-family="Helvetica,sans-Serif" font-size="10.00">Singleton&lt; T &gt;</text>
<polyline fill="none" stroke="black" points="17,-513.5 100,-513.5 "/>
<text text-anchor="middle" x="58.5" y="-501.5" font-family="Helvetica,sans-Serif" font-size="10.00"> </text>
<polyline fill="none" stroke="black" points="17,-494.5 100,-494.5 "/>
<text text-anchor="start" x="25" y="-482.5" font-family="Helvetica,sans-Serif" font-size="10.00">+ getInstance()</text>
<text text-anchor="start" x="25" y="-471.5" font-family="Helvetica,sans-Serif" font-size="10.00"># Singleton()</text>
<text text-anchor="start" x="25" y="-460.5" font-family="Helvetica,sans-Serif" font-size="10.00">&#45; Singleton()</text>
<text text-anchor="start" x="25" y="-449.5" font-family="Helvetica,sans-Serif" font-size="10.00">&#45; operator=()</text>
</a>
</g>
</g>
<!-- Node3&#45;&gt;Node2 -->
<g id="edge2" class="edge">
<title>Node3&#45;&gt;Node2</title>
<path fill="none" stroke="orange" d="M58.5,-432.15C58.5,-419.78 58.5,-406.79 58.5,-394.9"/>
<polygon fill="orange" stroke="orange" points="55,-432.34 58.5,-442.34 62,-432.34 55,-432.34"/>
<text text-anchor="middle" x="89.5" y="-416" font-family="Helvetica,sans-Serif" font-size="10.00"> &lt; Incubator &gt;</text>
</g>
</g>
</svg>
