<?xml version="1.0" encoding="UTF-8" standalone="no"?>
<!DOCTYPE svg PUBLIC "-//W3C//DTD SVG 1.1//EN"
 "http://www.w3.org/Graphics/SVG/1.1/DTD/svg11.dtd">
<!-- Generated by graphviz version 2.48.0 (20210717.1556)
 -->
<!-- Title: Signal Pages: 1 -->
<svg width="222pt" height="259pt"
 viewBox="0.00 0.00 221.50 259.00" xmlns="http://www.w3.org/2000/svg" xmlns:xlink="http://www.w3.org/1999/xlink">
<g id="graph0" class="graph" transform="scale(1 1) rotate(0) translate(4 255)">
<title>Signal</title>
<!-- Node1 -->
<g id="node1" class="node">
<title>Node1</title>
<g id="a_node1"><a xlink:title=" ">
<polygon fill="#bfbfbf" stroke="black" points="44.5,-0.5 44.5,-123.5 148.5,-123.5 148.5,-0.5 44.5,-0.5"/>
<text text-anchor="middle" x="96.5" y="-111.5" font-family="Helvetica,sans-Serif" font-size="10.00">Signal</text>
<polyline fill="none" stroke="black" points="44.5,-104.5 148.5,-104.5 "/>
<text text-anchor="middle" x="96.5" y="-92.5" font-family="Helvetica,sans-Serif" font-size="10.00"> </text>
<polyline fill="none" stroke="black" points="44.5,-85.5 148.5,-85.5 "/>
<text text-anchor="start" x="52.5" y="-73.5" font-family="Helvetica,sans-Serif" font-size="10.00">+ Signal()</text>
<text text-anchor="start" x="52.5" y="-62.5" font-family="Helvetica,sans-Serif" font-size="10.00">+ ~Signal()</text>
<text text-anchor="start" x="52.5" y="-51.5" font-family="Helvetica,sans-Serif" font-size="10.00">+ signalHandler()</text>
<text text-anchor="start" x="52.5" y="-40.5" font-family="Helvetica,sans-Serif" font-size="10.00">+ isSignaledTerm()</text>
<text text-anchor="start" x="52.5" y="-29.5" font-family="Helvetica,sans-Serif" font-size="10.00">+ isSignaledUsr1()</text>
<text text-anchor="start" x="52.5" y="-18.5" font-family="Helvetica,sans-Serif" font-size="10.00">+ resetSignalTerm()</text>
<text text-anchor="start" x="52.5" y="-7.5" font-family="Helvetica,sans-Serif" font-size="10.00">+ resetSignalUsr1()</text>
</a>
</g>
</g>
<!-- Node2 -->
<g id="node2" class="node">
<title>Node2</title>
<g id="a_node2"><a xlink:title=" ">
<polygon fill="none" stroke="#bfbfbf" points="0,-182.5 0,-250.5 89,-250.5 89,-182.5 0,-182.5"/>
<text text-anchor="start" x="8" y="-238.5" font-family="Helvetica,sans-Serif" font-size="10.00">static volatile sig</text>
<text text-anchor="middle" x="44.5" y="-227.5" font-family="Helvetica,sans-Serif" font-size="10.00">_atomic_t</text>
<polyline fill="none" stroke="#bfbfbf" points="0,-220.5 89,-220.5 "/>
<text text-anchor="middle" x="44.5" y="-208.5" font-family="Helvetica,sans-Serif" font-size="10.00"> </text>
<polyline fill="none" stroke="#bfbfbf" points="0,-201.5 89,-201.5 "/>
<text text-anchor="middle" x="44.5" y="-189.5" font-family="Helvetica,sans-Serif" font-size="10.00"> </text>
</a>
</g>
</g>
<!-- Node2&#45;&gt;Node1 -->
<g id="edge1" class="edge">
<title>Node2&#45;&gt;Node1</title>
<path fill="none" stroke="#404040" d="M44.7,-182.35C45.53,-169.5 47.44,-154.83 51.5,-142 52.26,-139.59 53.11,-137.17 54.02,-134.76"/>
<polygon fill="none" stroke="#404040" points="54.09,-134.58 52.72,-127.5 58.72,-123.51 60.1,-130.59 54.09,-134.58"/>
<text text-anchor="middle" x="89" y="-156" font-family="Helvetica,sans-Serif" font-size="10.00"> +atomicSigTerm</text>
<text text-anchor="middle" x="89" y="-145" font-family="Helvetica,sans-Serif" font-size="10.00">+atomicSigUsr1</text>
</g>
<!-- Node3 -->
<g id="node3" class="node">
<title>Node3</title>
<g id="a_node3"><a xlink:title=" ">
<polygon fill="none" stroke="#bfbfbf" points="107.5,-188 107.5,-245 189.5,-245 189.5,-188 107.5,-188"/>
<text text-anchor="middle" x="148.5" y="-233" font-family="Helvetica,sans-Serif" font-size="10.00">atomic&lt; bool &gt;</text>
<polyline fill="none" stroke="#bfbfbf" points="107.5,-226 189.5,-226 "/>
<text text-anchor="middle" x="148.5" y="-214" font-family="Helvetica,sans-Serif" font-size="10.00"> </text>
<polyline fill="none" stroke="#bfbfbf" points="107.5,-207 189.5,-207 "/>
<text text-anchor="middle" x="148.5" y="-195" font-family="Helvetica,sans-Serif" font-size="10.00"> </text>
</a>
</g>
</g>
<!-- Node3&#45;&gt;Node1 -->
<g id="edge2" class="edge">
<title>Node3&#45;&gt;Node1</title>
<path fill="none" stroke="#404040" d="M140.71,-187.78C136.7,-173.95 131.59,-157.01 126.5,-142 125.74,-139.76 124.96,-137.49 124.16,-135.2"/>
<polygon fill="none" stroke="#404040" points="124.07,-134.96 118.29,-130.65 120.04,-123.65 125.82,-127.96 124.07,-134.96"/>
<text text-anchor="middle" x="173" y="-156" font-family="Helvetica,sans-Serif" font-size="10.00"> +atomicSigTerm_</text>
<text text-anchor="middle" x="173" y="-145" font-family="Helvetica,sans-Serif" font-size="10.00">+atomicSigUsr1_</text>
</g>
</g>
</svg>
