<?xml version="1.0" encoding="UTF-8" standalone="no"?>
<!DOCTYPE svg PUBLIC "-//W3C//DTD SVG 1.1//EN"
 "http://www.w3.org/Graphics/SVG/1.1/DTD/svg11.dtd">
<!-- Generated by graphviz version 2.48.0 (20210717.1556)
 -->
<!-- Title: DehumidActuator::init Pages: 1 -->
<svg width="258pt" height="78pt"
 viewBox="0.00 0.00 258.00 77.50" xmlns="http://www.w3.org/2000/svg" xmlns:xlink="http://www.w3.org/1999/xlink">
<g id="graph0" class="graph" transform="scale(1 1) rotate(0) translate(4 73.5)">
<title>DehumidActuator::init</title>
<!-- Node1 -->
<g id="node1" class="node">
<title>Node1</title>
<g id="a_node1"><a xlink:title=" ">
<polygon fill="#bfbfbf" stroke="black" points="0,-22.5 0,-41.5 112,-41.5 112,-22.5 0,-22.5"/>
<text text-anchor="middle" x="56" y="-29.5" font-family="Helvetica,sans-Serif" font-size="10.00">DehumidActuator::init</text>
</a>
</g>
</g>
<!-- Node2 -->
<g id="node2" class="node">
<title>Node2</title>
<g id="a_node2"><a xlink:href="class_singleton.html#a8ec70839501fe76ec61195233d8fdb62" target="_top" xlink:title=" ">
<polygon fill="none" stroke="black" points="148,-39 148,-69 250,-69 250,-39 148,-39"/>
<text text-anchor="start" x="156" y="-57" font-family="Helvetica,sans-Serif" font-size="10.00">Singleton&lt; Gpio &gt;::</text>
<text text-anchor="middle" x="199" y="-46" font-family="Helvetica,sans-Serif" font-size="10.00">getInstance</text>
</a>
</g>
</g>
<!-- Node1&#45;&gt;Node2 -->
<g id="edge1" class="edge">
<title>Node1&#45;&gt;Node2</title>
<path fill="none" stroke="midnightblue" d="M112.32,-40.63C120.66,-41.93 129.29,-43.28 137.73,-44.6"/>
<polygon fill="midnightblue" stroke="midnightblue" points="137.47,-48.1 147.89,-46.18 138.54,-41.18 137.47,-48.1"/>
</g>
<!-- Node3 -->
<g id="node3" class="node">
<title>Node3</title>
<g id="a_node3"><a xlink:href="class_gpio.html#ad5006f04eb912df7556ee05a7045d7e2" target="_top" xlink:title=" ">
<polygon fill="none" stroke="black" points="171,-0.5 171,-19.5 227,-19.5 227,-0.5 171,-0.5"/>
<text text-anchor="middle" x="199" y="-7.5" font-family="Helvetica,sans-Serif" font-size="10.00">Gpio::init</text>
</a>
</g>
</g>
<!-- Node1&#45;&gt;Node3 -->
<g id="edge2" class="edge">
<title>Node1&#45;&gt;Node3</title>
<path fill="none" stroke="midnightblue" d="M112.32,-23.37C128.46,-20.85 145.72,-18.16 160.48,-15.85"/>
<polygon fill="midnightblue" stroke="midnightblue" points="161.4,-19.25 170.74,-14.25 160.32,-12.34 161.4,-19.25"/>
</g>
</g>
</svg>
