<?xml version="1.0" encoding="UTF-8" standalone="no"?>
<!DOCTYPE svg PUBLIC "-//W3C//DTD SVG 1.1//EN"
 "http://www.w3.org/Graphics/SVG/1.1/DTD/svg11.dtd">
<!-- Generated by graphviz version 2.48.0 (20210717.1556)
 -->
<!-- Title: Dht22TempSensor Pages: 1 -->
<svg width="128pt" height="270pt"
 viewBox="0.00 0.00 128.00 270.00" xmlns="http://www.w3.org/2000/svg" xmlns:xlink="http://www.w3.org/1999/xlink">
<g id="graph0" class="graph" transform="scale(1 1) rotate(0) translate(4 266)">
<title>Dht22TempSensor</title>
<!-- Node1 -->
<g id="node1" class="node">
<title>Node1</title>
<g id="a_node1"><a xlink:title=" ">
<polygon fill="#bfbfbf" stroke="black" points="0,-0.5 0,-123.5 120,-123.5 120,-0.5 0,-0.5"/>
<text text-anchor="middle" x="60" y="-111.5" font-family="Helvetica,sans-Serif" font-size="10.00">Dht22TempSensor</text>
<polyline fill="none" stroke="black" points="0,-104.5 120,-104.5 "/>
<text text-anchor="start" x="8" y="-92.5" font-family="Helvetica,sans-Serif" font-size="10.00">&#45; _initialized</text>
<text text-anchor="start" x="8" y="-81.5" font-family="Helvetica,sans-Serif" font-size="10.00">&#45; _lastVal</text>
<polyline fill="none" stroke="black" points="0,-74.5 120,-74.5 "/>
<text text-anchor="start" x="8" y="-62.5" font-family="Helvetica,sans-Serif" font-size="10.00">+ Dht22TempSensor()</text>
<text text-anchor="start" x="8" y="-51.5" font-family="Helvetica,sans-Serif" font-size="10.00">+ ~Dht22TempSensor()</text>
<text text-anchor="start" x="8" y="-40.5" font-family="Helvetica,sans-Serif" font-size="10.00">+ init()</text>
<text text-anchor="start" x="8" y="-29.5" font-family="Helvetica,sans-Serif" font-size="10.00">+ deinit()</text>
<text text-anchor="start" x="8" y="-18.5" font-family="Helvetica,sans-Serif" font-size="10.00">+ get()</text>
<text text-anchor="start" x="8" y="-7.5" font-family="Helvetica,sans-Serif" font-size="10.00">+ getCache()</text>
</a>
</g>
</g>
<!-- Node2 -->
<g id="node2" class="node">
<title>Node2</title>
<g id="a_node2"><a xlink:href="struct_sensor.html" target="_top" xlink:title=" ">
<polygon fill="none" stroke="black" points="22.5,-160.5 22.5,-261.5 97.5,-261.5 97.5,-160.5 22.5,-160.5"/>
<text text-anchor="middle" x="60" y="-249.5" font-family="Helvetica,sans-Serif" font-size="10.00">Sensor</text>
<polyline fill="none" stroke="black" points="22.5,-242.5 97.5,-242.5 "/>
<text text-anchor="middle" x="60" y="-230.5" font-family="Helvetica,sans-Serif" font-size="10.00"> </text>
<polyline fill="none" stroke="black" points="22.5,-223.5 97.5,-223.5 "/>
<text text-anchor="start" x="30.5" y="-211.5" font-family="Helvetica,sans-Serif" font-size="10.00">+ ~Sensor()</text>
<text text-anchor="start" x="30.5" y="-200.5" font-family="Helvetica,sans-Serif" font-size="10.00">+ init()</text>
<text text-anchor="start" x="30.5" y="-189.5" font-family="Helvetica,sans-Serif" font-size="10.00">+ deinit()</text>
<text text-anchor="start" x="30.5" y="-178.5" font-family="Helvetica,sans-Serif" font-size="10.00">+ get()</text>
<text text-anchor="start" x="30.5" y="-167.5" font-family="Helvetica,sans-Serif" font-size="10.00">+ getCache()</text>
</a>
</g>
</g>
<!-- Node2&#45;&gt;Node1 -->
<g id="edge1" class="edge">
<title>Node2&#45;&gt;Node1</title>
<path fill="none" stroke="midnightblue" d="M60,-150.14C60,-141.41 60,-132.42 60,-123.67"/>
<polygon fill="none" stroke="midnightblue" points="56.5,-150.23 60,-160.23 63.5,-150.23 56.5,-150.23"/>
</g>
</g>
</svg>
