<?xml version="1.0" encoding="UTF-8" standalone="no"?>
<!DOCTYPE svg PUBLIC "-//W3C//DTD SVG 1.1//EN"
 "http://www.w3.org/Graphics/SVG/1.1/DTD/svg11.dtd">
<!-- Generated by graphviz version 2.48.0 (20210717.1556)
 -->
<!-- Title: Incubator::runLoop Pages: 1 -->
<svg width="266pt" height="142pt"
 viewBox="0.00 0.00 266.00 142.00" xmlns="http://www.w3.org/2000/svg" xmlns:xlink="http://www.w3.org/1999/xlink">
<g id="graph0" class="graph" transform="scale(1 1) rotate(0) translate(4 138)">
<title>Incubator::runLoop</title>
<!-- Node1 -->
<g id="node1" class="node">
<title>Node1</title>
<g id="a_node1"><a xlink:title=" ">
<polygon fill="#bfbfbf" stroke="black" points="0,-57.5 0,-76.5 100,-76.5 100,-57.5 0,-57.5"/>
<text text-anchor="middle" x="50" y="-64.5" font-family="Helvetica,sans-Serif" font-size="10.00">Incubator::runLoop</text>
</a>
</g>
</g>
<!-- Node2 -->
<g id="node2" class="node">
<title>Node2</title>
<g id="a_node2"><a xlink:href="class_signal.html#a23715c9728a374020fdad3454552b2f1" target="_top" xlink:title=" ">
<polygon fill="none" stroke="black" points="138,-114.5 138,-133.5 256,-133.5 256,-114.5 138,-114.5"/>
<text text-anchor="middle" x="197" y="-121.5" font-family="Helvetica,sans-Serif" font-size="10.00">Signal::isSignaledTerm</text>
</a>
</g>
</g>
<!-- Node1&#45;&gt;Node2 -->
<g id="edge1" class="edge">
<title>Node1&#45;&gt;Node2</title>
<path fill="none" stroke="midnightblue" d="M70.65,-76.55C87.71,-84.66 113.19,-96.32 136,-105 141.63,-107.14 147.61,-109.24 153.54,-111.22"/>
<polygon fill="midnightblue" stroke="midnightblue" points="152.79,-114.65 163.38,-114.41 154.95,-108 152.79,-114.65"/>
</g>
<!-- Node3 -->
<g id="node3" class="node">
<title>Node3</title>
<g id="a_node3"><a xlink:href="class_signal.html#a82891210bdbc99ca9e7e1ac108fb048a" target="_top" xlink:title=" ">
<polygon fill="none" stroke="black" points="138.5,-76.5 138.5,-95.5 255.5,-95.5 255.5,-76.5 138.5,-76.5"/>
<text text-anchor="middle" x="197" y="-83.5" font-family="Helvetica,sans-Serif" font-size="10.00">Signal::isSignaledUsr1</text>
</a>
</g>
</g>
<!-- Node1&#45;&gt;Node3 -->
<g id="edge2" class="edge">
<title>Node1&#45;&gt;Node3</title>
<path fill="none" stroke="midnightblue" d="M100.09,-73.43C109.24,-74.63 118.94,-75.9 128.53,-77.16"/>
<polygon fill="midnightblue" stroke="midnightblue" points="128.07,-80.63 138.44,-78.46 128.98,-73.69 128.07,-80.63"/>
</g>
<!-- Node4 -->
<g id="node4" class="node">
<title>Node4</title>
<g id="a_node4"><a xlink:href="class_signal.html#aed6098485cfbacfbcfe105bd3c70cdde" target="_top" xlink:title=" ">
<polygon fill="none" stroke="black" points="136,-38.5 136,-57.5 258,-57.5 258,-38.5 136,-38.5"/>
<text text-anchor="middle" x="197" y="-45.5" font-family="Helvetica,sans-Serif" font-size="10.00">Signal::resetSignalTerm</text>
</a>
</g>
</g>
<!-- Node1&#45;&gt;Node4 -->
<g id="edge3" class="edge">
<title>Node1&#45;&gt;Node4</title>
<path fill="none" stroke="midnightblue" d="M100.09,-60.57C108.36,-59.48 117.08,-58.34 125.76,-57.2"/>
<polygon fill="midnightblue" stroke="midnightblue" points="126.44,-60.65 135.9,-55.88 125.53,-53.7 126.44,-60.65"/>
</g>
<!-- Node5 -->
<g id="node5" class="node">
<title>Node5</title>
<g id="a_node5"><a xlink:href="class_signal.html#a2184d31e9dac489d01c6f9f558000668" target="_top" xlink:title=" ">
<polygon fill="none" stroke="black" points="136.5,-0.5 136.5,-19.5 257.5,-19.5 257.5,-0.5 136.5,-0.5"/>
<text text-anchor="middle" x="197" y="-7.5" font-family="Helvetica,sans-Serif" font-size="10.00">Signal::resetSignalUsr1</text>
</a>
</g>
</g>
<!-- Node1&#45;&gt;Node5 -->
<g id="edge4" class="edge">
<title>Node1&#45;&gt;Node5</title>
<path fill="none" stroke="midnightblue" d="M70.65,-57.45C87.71,-49.34 113.19,-37.68 136,-29 141.63,-26.86 147.61,-24.76 153.54,-22.78"/>
<polygon fill="midnightblue" stroke="midnightblue" points="154.95,-26 163.38,-19.59 152.79,-19.35 154.95,-26"/>
</g>
</g>
</svg>
