<?xml version="1.0" encoding="UTF-8" standalone="no"?>
<!DOCTYPE svg PUBLIC "-//W3C//DTD SVG 1.1//EN"
 "http://www.w3.org/Graphics/SVG/1.1/DTD/svg11.dtd">
<!-- Generated by graphviz version 2.50.0 (20211204.2007)
 -->
<!-- Title: Tmp117TempSensor Pages: 1 -->
<svg width="286pt" height="270pt"
 viewBox="0.00 0.00 285.50 270.00" xmlns="http://www.w3.org/2000/svg" xmlns:xlink="http://www.w3.org/1999/xlink">
<g id="graph0" class="graph" transform="scale(1 1) rotate(0) translate(4 266)">
<title>Tmp117TempSensor</title>
<!-- Node1 -->
<g id="node1" class="node">
<title>Node1</title>
<g id="a_node1"><a xlink:title=" ">
<polygon fill="#bfbfbf" stroke="black" points="83,-0.5 83,-112.5 211,-112.5 211,-0.5 83,-0.5"/>
<text text-anchor="middle" x="147" y="-100.5" font-family="Helvetica,sans-Serif" font-size="10.00">Tmp117TempSensor</text>
<polyline fill="none" stroke="black" points="83,-93.5 211,-93.5 "/>
<text text-anchor="middle" x="147" y="-81.5" font-family="Helvetica,sans-Serif" font-size="10.00"> </text>
<polyline fill="none" stroke="black" points="83,-74.5 211,-74.5 "/>
<text text-anchor="start" x="91" y="-62.5" font-family="Helvetica,sans-Serif" font-size="10.00">+ Tmp117TempSensor()</text>
<text text-anchor="start" x="91" y="-51.5" font-family="Helvetica,sans-Serif" font-size="10.00">+ ~Tmp117TempSensor()</text>
<text text-anchor="start" x="91" y="-40.5" font-family="Helvetica,sans-Serif" font-size="10.00">+ init()</text>
<text text-anchor="start" x="91" y="-29.5" font-family="Helvetica,sans-Serif" font-size="10.00">+ deinit()</text>
<text text-anchor="start" x="91" y="-18.5" font-family="Helvetica,sans-Serif" font-size="10.00">+ get()</text>
<text text-anchor="start" x="91" y="-7.5" font-family="Helvetica,sans-Serif" font-size="10.00">+ getCache()</text>
</a>
</g>
</g>
<!-- Node2 -->
<g id="node2" class="node">
<title>Node2</title>
<g id="a_node2"><a xlink:href="struct_sensor.html" target="_top" xlink:title=" ">
<polygon fill="none" stroke="black" points="0,-160.5 0,-261.5 74,-261.5 74,-160.5 0,-160.5"/>
<text text-anchor="middle" x="37" y="-249.5" font-family="Helvetica,sans-Serif" font-size="10.00">Sensor</text>
<polyline fill="none" stroke="black" points="0,-242.5 74,-242.5 "/>
<text text-anchor="middle" x="37" y="-230.5" font-family="Helvetica,sans-Serif" font-size="10.00"> </text>
<polyline fill="none" stroke="black" points="0,-223.5 74,-223.5 "/>
<text text-anchor="start" x="8" y="-211.5" font-family="Helvetica,sans-Serif" font-size="10.00">+ ~Sensor()</text>
<text text-anchor="start" x="8" y="-200.5" font-family="Helvetica,sans-Serif" font-size="10.00">+ init()</text>
<text text-anchor="start" x="8" y="-189.5" font-family="Helvetica,sans-Serif" font-size="10.00">+ deinit()</text>
<text text-anchor="start" x="8" y="-178.5" font-family="Helvetica,sans-Serif" font-size="10.00">+ get()</text>
<text text-anchor="start" x="8" y="-167.5" font-family="Helvetica,sans-Serif" font-size="10.00">+ getCache()</text>
</a>
</g>
</g>
<!-- Node2&#45;&gt;Node1 -->
<g id="edge1" class="edge">
<title>Node2&#45;&gt;Node1</title>
<path fill="none" stroke="midnightblue" d="M78.77,-152.09C88.12,-139.13 98.01,-125.41 107.28,-112.57"/>
<polygon fill="none" stroke="midnightblue" points="75.73,-150.33 72.71,-160.49 81.4,-154.42 75.73,-150.33"/>
</g>
<!-- Node3 -->
<g id="node3" class="node">
<title>Node3</title>
<g id="a_node3"><a xlink:title=" ">
<polygon fill="none" stroke="#bfbfbf" points="92.5,-182.5 92.5,-239.5 127.5,-239.5 127.5,-182.5 92.5,-182.5"/>
<text text-anchor="middle" x="110" y="-227.5" font-family="Helvetica,sans-Serif" font-size="10.00">bool</text>
<polyline fill="none" stroke="#bfbfbf" points="92.5,-220.5 127.5,-220.5 "/>
<text text-anchor="middle" x="110" y="-208.5" font-family="Helvetica,sans-Serif" font-size="10.00"> </text>
<polyline fill="none" stroke="#bfbfbf" points="92.5,-201.5 127.5,-201.5 "/>
<text text-anchor="middle" x="110" y="-189.5" font-family="Helvetica,sans-Serif" font-size="10.00"> </text>
</a>
</g>
</g>
<!-- Node3&#45;&gt;Node1 -->
<g id="edge2" class="edge">
<title>Node3&#45;&gt;Node1</title>
<path fill="none" stroke="#404040" d="M107.39,-182.21C106.69,-166.9 107.02,-147.68 111,-131 111.54,-128.72 112.17,-126.43 112.86,-124.14"/>
<polygon fill="none" stroke="#404040" points="112.88,-124.06 111.07,-117.08 116.81,-112.72 118.63,-119.7 112.88,-124.06"/>
<text text-anchor="middle" x="137" y="-134" font-family="Helvetica,sans-Serif" font-size="10.00"> &#45;_initialized</text>
</g>
<!-- Node4 -->
<g id="node4" class="node">
<title>Node4</title>
<g id="a_node4"><a xlink:title=" ">
<polygon fill="none" stroke="#bfbfbf" points="170.5,-182.5 170.5,-239.5 199.5,-239.5 199.5,-182.5 170.5,-182.5"/>
<text text-anchor="middle" x="185" y="-227.5" font-family="Helvetica,sans-Serif" font-size="10.00">int</text>
<polyline fill="none" stroke="#bfbfbf" points="170.5,-220.5 199.5,-220.5 "/>
<text text-anchor="middle" x="185" y="-208.5" font-family="Helvetica,sans-Serif" font-size="10.00"> </text>
<polyline fill="none" stroke="#bfbfbf" points="170.5,-201.5 199.5,-201.5 "/>
<text text-anchor="middle" x="185" y="-189.5" font-family="Helvetica,sans-Serif" font-size="10.00"> </text>
</a>
</g>
</g>
<!-- Node4&#45;&gt;Node1 -->
<g id="edge3" class="edge">
<title>Node4&#45;&gt;Node1</title>
<path fill="none" stroke="#404040" d="M178.12,-182.38C174.08,-166.17 168.78,-144.92 163.71,-124.55"/>
<polygon fill="none" stroke="#404040" points="163.66,-124.35 158.33,-119.5 160.76,-112.71 166.09,-117.56 163.66,-124.35"/>
<text text-anchor="middle" x="193" y="-134" font-family="Helvetica,sans-Serif" font-size="10.00"> &#45;_deviceFd</text>
</g>
<!-- Node5 -->
<g id="node5" class="node">
<title>Node5</title>
<g id="a_node5"><a xlink:title=" ">
<polygon fill="none" stroke="#bfbfbf" points="242.5,-182.5 242.5,-239.5 277.5,-239.5 277.5,-182.5 242.5,-182.5"/>
<text text-anchor="middle" x="260" y="-227.5" font-family="Helvetica,sans-Serif" font-size="10.00">float</text>
<polyline fill="none" stroke="#bfbfbf" points="242.5,-220.5 277.5,-220.5 "/>
<text text-anchor="middle" x="260" y="-208.5" font-family="Helvetica,sans-Serif" font-size="10.00"> </text>
<polyline fill="none" stroke="#bfbfbf" points="242.5,-201.5 277.5,-201.5 "/>
<text text-anchor="middle" x="260" y="-189.5" font-family="Helvetica,sans-Serif" font-size="10.00"> </text>
</a>
</g>
</g>
<!-- Node5&#45;&gt;Node1 -->
<g id="edge4" class="edge">
<title>Node5&#45;&gt;Node1</title>
<path fill="none" stroke="#404040" d="M249.95,-182.33C243.51,-166.53 234.26,-146.78 223,-131 220.83,-127.96 218.53,-124.94 216.12,-121.96"/>
<polygon fill="none" stroke="#404040" points="215.91,-121.71 208.98,-119.72 208.14,-112.56 215.08,-114.55 215.91,-121.71"/>
<text text-anchor="middle" x="249.5" y="-134" font-family="Helvetica,sans-Serif" font-size="10.00"> &#45;_lastVal</text>
</g>
</g>
</svg>
