<?xml version="1.0" encoding="UTF-8" standalone="no"?>
<!DOCTYPE svg PUBLIC "-//W3C//DTD SVG 1.1//EN"
 "http://www.w3.org/Graphics/SVG/1.1/DTD/svg11.dtd">
<!-- Generated by graphviz version 2.48.0 (20210717.1556)
 -->
<!-- Title: Incubator::init Pages: 1 -->
<svg width="245pt" height="78pt"
 viewBox="0.00 0.00 245.00 77.50" xmlns="http://www.w3.org/2000/svg" xmlns:xlink="http://www.w3.org/1999/xlink">
<g id="graph0" class="graph" transform="scale(1 1) rotate(0) translate(4 73.5)">
<title>Incubator::init</title>
<!-- Node1 -->
<g id="node1" class="node">
<title>Node1</title>
<g id="a_node1"><a xlink:title=" ">
<polygon fill="#bfbfbf" stroke="black" points="0,-6 0,-25 77,-25 77,-6 0,-6"/>
<text text-anchor="middle" x="38.5" y="-13" font-family="Helvetica,sans-Serif" font-size="10.00">Incubator::init</text>
</a>
</g>
</g>
<!-- Node2 -->
<g id="node2" class="node">
<title>Node2</title>
<g id="a_node2"><a xlink:href="_incubator_8cpp.html#a22634c395123171d31d988b1bcb5776f" target="_top" xlink:title=" ">
<polygon fill="none" stroke="black" points="138.5,-50 138.5,-69 211.5,-69 211.5,-50 138.5,-50"/>
<text text-anchor="middle" x="175" y="-57" font-family="Helvetica,sans-Serif" font-size="10.00">cfgFileName</text>
</a>
</g>
</g>
<!-- Node1&#45;&gt;Node2 -->
<g id="edge1" class="edge">
<title>Node1&#45;&gt;Node2</title>
<path fill="none" stroke="midnightblue" d="M67.02,-25.05C80.8,-29.78 97.75,-35.53 113,-40.5 119.52,-42.62 126.45,-44.83 133.2,-46.95"/>
<polygon fill="midnightblue" stroke="midnightblue" points="132.33,-50.35 142.92,-49.99 134.42,-43.67 132.33,-50.35"/>
</g>
<!-- Node3 -->
<g id="node3" class="node">
<title>Node3</title>
<g id="a_node3"><a xlink:href="class_singleton.html#a8ec70839501fe76ec61195233d8fdb62" target="_top" xlink:title=" ">
<polygon fill="none" stroke="black" points="113,-0.5 113,-30.5 237,-30.5 237,-0.5 113,-0.5"/>
<text text-anchor="start" x="121" y="-18.5" font-family="Helvetica,sans-Serif" font-size="10.00">Singleton&lt; SessionTime</text>
<text text-anchor="middle" x="175" y="-7.5" font-family="Helvetica,sans-Serif" font-size="10.00"> &gt;::getInstance</text>
</a>
</g>
</g>
<!-- Node1&#45;&gt;Node3 -->
<g id="edge2" class="edge">
<title>Node1&#45;&gt;Node3</title>
<path fill="none" stroke="midnightblue" d="M77.32,-9.36C85.25,-9.01 93.86,-8.81 102.57,-8.76"/>
<polygon fill="midnightblue" stroke="midnightblue" points="102.79,-12.26 112.79,-8.77 102.8,-5.26 102.79,-12.26"/>
</g>
<!-- Node1&#45;&gt;Node3 -->
<g id="edge3" class="edge">
<title>Node1&#45;&gt;Node3</title>
<path fill="none" stroke="midnightblue" d="M77.32,-21.64C85.25,-21.99 93.86,-22.19 102.57,-22.24"/>
<polygon fill="midnightblue" stroke="midnightblue" points="102.8,-25.74 112.79,-22.23 102.79,-18.74 102.8,-25.74"/>
</g>
</g>
</svg>
