<?xml version="1.0" encoding="UTF-8" standalone="no"?>
<!DOCTYPE svg PUBLIC "-//W3C//DTD SVG 1.1//EN"
 "http://www.w3.org/Graphics/SVG/1.1/DTD/svg11.dtd">
<!-- Generated by graphviz version 2.50.0 (20211204.2007)
 -->
<!-- Title: HeatActuator Pages: 1 -->
<svg width="103pt" height="336pt"
 viewBox="0.00 0.00 103.00 336.00" xmlns="http://www.w3.org/2000/svg" xmlns:xlink="http://www.w3.org/1999/xlink">
<g id="graph0" class="graph" transform="scale(1 1) rotate(0) translate(4 332)">
<title>HeatActuator</title>
<!-- Node1 -->
<g id="node1" class="node">
<title>Node1</title>
<g id="a_node1"><a xlink:title=" ">
<polygon fill="#bfbfbf" stroke="black" points="0,-0.5 0,-156.5 95,-156.5 95,-0.5 0,-0.5"/>
<text text-anchor="middle" x="47.5" y="-144.5" font-family="Helvetica,sans-Serif" font-size="10.00">HeatActuator</text>
<polyline fill="none" stroke="black" points="0,-137.5 95,-137.5 "/>
<text text-anchor="start" x="8" y="-125.5" font-family="Helvetica,sans-Serif" font-size="10.00">&#45; _initialized</text>
<text text-anchor="start" x="8" y="-114.5" font-family="Helvetica,sans-Serif" font-size="10.00">&#45; _level</text>
<polyline fill="none" stroke="black" points="0,-107.5 95,-107.5 "/>
<text text-anchor="start" x="8" y="-95.5" font-family="Helvetica,sans-Serif" font-size="10.00">+ HeatActuator()</text>
<text text-anchor="start" x="8" y="-84.5" font-family="Helvetica,sans-Serif" font-size="10.00">+ ~HeatActuator()</text>
<text text-anchor="start" x="8" y="-73.5" font-family="Helvetica,sans-Serif" font-size="10.00">+ init()</text>
<text text-anchor="start" x="8" y="-62.5" font-family="Helvetica,sans-Serif" font-size="10.00">+ deinit()</text>
<text text-anchor="start" x="8" y="-51.5" font-family="Helvetica,sans-Serif" font-size="10.00">+ on()</text>
<text text-anchor="start" x="8" y="-40.5" font-family="Helvetica,sans-Serif" font-size="10.00">+ off()</text>
<text text-anchor="start" x="8" y="-29.5" font-family="Helvetica,sans-Serif" font-size="10.00">+ start()</text>
<text text-anchor="start" x="8" y="-18.5" font-family="Helvetica,sans-Serif" font-size="10.00">+ stop()</text>
<text text-anchor="start" x="8" y="-7.5" font-family="Helvetica,sans-Serif" font-size="10.00">+ get()</text>
</a>
</g>
</g>
<!-- Node2 -->
<g id="node2" class="node">
<title>Node2</title>
<g id="a_node2"><a xlink:href="struct_actuator.html" target="_top" xlink:title=" ">
<polygon fill="none" stroke="black" points="10.5,-193.5 10.5,-327.5 84.5,-327.5 84.5,-193.5 10.5,-193.5"/>
<text text-anchor="middle" x="47.5" y="-315.5" font-family="Helvetica,sans-Serif" font-size="10.00">Actuator</text>
<polyline fill="none" stroke="black" points="10.5,-308.5 84.5,-308.5 "/>
<text text-anchor="middle" x="47.5" y="-296.5" font-family="Helvetica,sans-Serif" font-size="10.00"> </text>
<polyline fill="none" stroke="black" points="10.5,-289.5 84.5,-289.5 "/>
<text text-anchor="start" x="18.5" y="-277.5" font-family="Helvetica,sans-Serif" font-size="10.00">+ ~Actuator()</text>
<text text-anchor="start" x="18.5" y="-266.5" font-family="Helvetica,sans-Serif" font-size="10.00">+ init()</text>
<text text-anchor="start" x="18.5" y="-255.5" font-family="Helvetica,sans-Serif" font-size="10.00">+ deinit()</text>
<text text-anchor="start" x="18.5" y="-244.5" font-family="Helvetica,sans-Serif" font-size="10.00">+ get()</text>
<text text-anchor="start" x="18.5" y="-233.5" font-family="Helvetica,sans-Serif" font-size="10.00">+ on()</text>
<text text-anchor="start" x="18.5" y="-222.5" font-family="Helvetica,sans-Serif" font-size="10.00">+ off()</text>
<text text-anchor="start" x="18.5" y="-211.5" font-family="Helvetica,sans-Serif" font-size="10.00">+ start()</text>
<text text-anchor="start" x="18.5" y="-200.5" font-family="Helvetica,sans-Serif" font-size="10.00">+ stop()</text>
</a>
</g>
</g>
<!-- Node2&#45;&gt;Node1 -->
<g id="edge1" class="edge">
<title>Node2&#45;&gt;Node1</title>
<path fill="none" stroke="midnightblue" d="M47.5,-183.3C47.5,-174.52 47.5,-165.57 47.5,-156.78"/>
<polygon fill="none" stroke="midnightblue" points="44,-183.5 47.5,-193.5 51,-183.5 44,-183.5"/>
</g>
</g>
</svg>
