<?xml version="1.0" encoding="UTF-8" standalone="no"?>
<!DOCTYPE svg PUBLIC "-//W3C//DTD SVG 1.1//EN"
 "http://www.w3.org/Graphics/SVG/1.1/DTD/svg11.dtd">
<!-- Generated by graphviz version 2.50.0 (20211204.2007)
 -->
<!-- Title: DehumidActuator::init Pages: 1 -->
<svg width="256pt" height="78pt"
 viewBox="0.00 0.00 256.00 77.50" xmlns="http://www.w3.org/2000/svg" xmlns:xlink="http://www.w3.org/1999/xlink">
<g id="graph0" class="graph" transform="scale(1 1) rotate(0) translate(4 73.5)">
<title>DehumidActuator::init</title>
<!-- Node1 -->
<g id="node1" class="node">
<title>Node1</title>
<g id="a_node1"><a xlink:title=" ">
<polygon fill="#bfbfbf" stroke="black" points="0,-22.5 0,-41.5 111,-41.5 111,-22.5 0,-22.5"/>
<text text-anchor="middle" x="55.5" y="-29.5" font-family="Helvetica,sans-Serif" font-size="10.00">DehumidActuator::init</text>
</a>
</g>
</g>
<!-- Node2 -->
<g id="node2" class="node">
<title>Node2</title>
<g id="a_node2"><a xlink:href="class_singleton.html#a4aec04ab40783981bc6314c390206a68" target="_top" xlink:title=" ">
<polygon fill="none" stroke="black" points="147,-39 147,-69 248,-69 248,-39 147,-39"/>
<text text-anchor="start" x="155" y="-57" font-family="Helvetica,sans-Serif" font-size="10.00">Singleton&lt; Gpio &gt;::</text>
<text text-anchor="middle" x="197.5" y="-46" font-family="Helvetica,sans-Serif" font-size="10.00">getInstance</text>
</a>
</g>
</g>
<!-- Node1&#45;&gt;Node2 -->
<g id="edge1" class="edge">
<title>Node1&#45;&gt;Node2</title>
<path fill="none" stroke="midnightblue" d="M111.03,-40.57C119.53,-41.9 128.35,-43.29 136.95,-44.64"/>
<polygon fill="midnightblue" stroke="midnightblue" points="136.49,-48.11 146.92,-46.21 137.58,-41.2 136.49,-48.11"/>
</g>
<!-- Node3 -->
<g id="node3" class="node">
<title>Node3</title>
<g id="a_node3"><a xlink:href="class_gpio.html#ad5006f04eb912df7556ee05a7045d7e2" target="_top" xlink:title=" ">
<polygon fill="none" stroke="black" points="169.5,-0.5 169.5,-19.5 225.5,-19.5 225.5,-0.5 169.5,-0.5"/>
<text text-anchor="middle" x="197.5" y="-7.5" font-family="Helvetica,sans-Serif" font-size="10.00">Gpio::init</text>
</a>
</g>
</g>
<!-- Node1&#45;&gt;Node3 -->
<g id="edge2" class="edge">
<title>Node1&#45;&gt;Node3</title>
<path fill="none" stroke="midnightblue" d="M111.03,-23.43C127.09,-20.91 144.3,-18.2 159.03,-15.89"/>
<polygon fill="midnightblue" stroke="midnightblue" points="159.94,-19.29 169.27,-14.28 158.85,-12.37 159.94,-19.29"/>
</g>
</g>
</svg>
