<?xml version="1.0" encoding="UTF-8" standalone="no"?>
<!DOCTYPE svg PUBLIC "-//W3C//DTD SVG 1.1//EN"
 "http://www.w3.org/Graphics/SVG/1.1/DTD/svg11.dtd">
<!-- Generated by graphviz version 2.50.0 (20211204.2007)
 -->
<!-- Title: HeatActuator::init Pages: 1 -->
<svg width="238pt" height="116pt"
 viewBox="0.00 0.00 238.00 115.50" xmlns="http://www.w3.org/2000/svg" xmlns:xlink="http://www.w3.org/1999/xlink">
<g id="graph0" class="graph" transform="scale(1 1) rotate(0) translate(4 111.5)">
<title>HeatActuator::init</title>
<!-- Node1 -->
<g id="node1" class="node">
<title>Node1</title>
<g id="a_node1"><a xlink:title=" ">
<polygon fill="#bfbfbf" stroke="black" points="0,-38.5 0,-57.5 93,-57.5 93,-38.5 0,-38.5"/>
<text text-anchor="middle" x="46.5" y="-45.5" font-family="Helvetica,sans-Serif" font-size="10.00">HeatActuator::init</text>
</a>
</g>
</g>
<!-- Node2 -->
<g id="node2" class="node">
<title>Node2</title>
<g id="a_node2"><a xlink:href="class_singleton.html#a4aec04ab40783981bc6314c390206a68" target="_top" xlink:title=" ">
<polygon fill="none" stroke="black" points="129,-77 129,-107 230,-107 230,-77 129,-77"/>
<text text-anchor="start" x="137" y="-95" font-family="Helvetica,sans-Serif" font-size="10.00">Singleton&lt; Gpio &gt;::</text>
<text text-anchor="middle" x="179.5" y="-84" font-family="Helvetica,sans-Serif" font-size="10.00">getInstance</text>
</a>
</g>
</g>
<!-- Node1&#45;&gt;Node2 -->
<g id="edge1" class="edge">
<title>Node1&#45;&gt;Node2</title>
<path fill="none" stroke="midnightblue" d="M75.93,-57.55C90.02,-62.28 107.52,-68.16 124.06,-73.71"/>
<polygon fill="midnightblue" stroke="midnightblue" points="123.05,-77.07 133.65,-76.93 125.28,-70.43 123.05,-77.07"/>
</g>
<!-- Node3 -->
<g id="node3" class="node">
<title>Node3</title>
<g id="a_node3"><a xlink:href="class_gpio.html#ad5006f04eb912df7556ee05a7045d7e2" target="_top" xlink:title=" ">
<polygon fill="none" stroke="black" points="151.5,-38.5 151.5,-57.5 207.5,-57.5 207.5,-38.5 151.5,-38.5"/>
<text text-anchor="middle" x="179.5" y="-45.5" font-family="Helvetica,sans-Serif" font-size="10.00">Gpio::init</text>
</a>
</g>
</g>
<!-- Node1&#45;&gt;Node3 -->
<g id="edge2" class="edge">
<title>Node1&#45;&gt;Node3</title>
<path fill="none" stroke="midnightblue" d="M93.32,-48C108.87,-48 126.06,-48 140.9,-48"/>
<polygon fill="midnightblue" stroke="midnightblue" points="141.23,-51.5 151.23,-48 141.23,-44.5 141.23,-51.5"/>
</g>
<!-- Node4 -->
<g id="node4" class="node">
<title>Node4</title>
<g id="a_node4"><a xlink:href="class_heat_actuator.html#ad8a15265b17d86439db4fda85954d657" target="_top" xlink:title=" ">
<polygon fill="none" stroke="black" points="133.5,-0.5 133.5,-19.5 225.5,-19.5 225.5,-0.5 133.5,-0.5"/>
<text text-anchor="middle" x="179.5" y="-7.5" font-family="Helvetica,sans-Serif" font-size="10.00">HeatActuator::off</text>
</a>
</g>
</g>
<!-- Node1&#45;&gt;Node4 -->
<g id="edge3" class="edge">
<title>Node1&#45;&gt;Node4</title>
<path fill="none" stroke="midnightblue" d="M80.56,-38.41C97.31,-33.55 117.86,-27.59 135.8,-22.39"/>
<polygon fill="midnightblue" stroke="midnightblue" points="136.82,-25.73 145.45,-19.59 134.87,-19.01 136.82,-25.73"/>
</g>
</g>
</svg>
