<?xml version="1.0" encoding="UTF-8" standalone="no"?>
<!DOCTYPE svg PUBLIC "-//W3C//DTD SVG 1.1//EN"
 "http://www.w3.org/Graphics/SVG/1.1/DTD/svg11.dtd">
<!-- Generated by graphviz version 2.50.0 (20211204.2007)
 -->
<!-- Title: Gpio::deinit Pages: 1 -->
<svg width="241pt" height="294pt"
 viewBox="0.00 0.00 241.00 294.00" xmlns="http://www.w3.org/2000/svg" xmlns:xlink="http://www.w3.org/1999/xlink">
<g id="graph0" class="graph" transform="scale(1 1) rotate(0) translate(4 290)">
<title>Gpio::deinit</title>
<!-- Node1 -->
<g id="node1" class="node">
<title>Node1</title>
<g id="a_node1"><a xlink:title=" ">
<polygon fill="#bfbfbf" stroke="black" points="167,-133.5 167,-152.5 233,-152.5 233,-133.5 167,-133.5"/>
<text text-anchor="middle" x="200" y="-140.5" font-family="Helvetica,sans-Serif" font-size="10.00">Gpio::deinit</text>
</a>
</g>
</g>
<!-- Node2 -->
<g id="node2" class="node">
<title>Node2</title>
<g id="a_node2"><a xlink:href="class_air_flow_actuator.html#a1256f7df2b79633cd395920795a1b5f5" target="_top" xlink:title=" ">
<polygon fill="none" stroke="black" points="7.5,-266.5 7.5,-285.5 123.5,-285.5 123.5,-266.5 7.5,-266.5"/>
<text text-anchor="middle" x="65.5" y="-273.5" font-family="Helvetica,sans-Serif" font-size="10.00">AirFlowActuator::deinit</text>
</a>
</g>
</g>
<!-- Node1&#45;&gt;Node2 -->
<g id="edge1" class="edge">
<title>Node1&#45;&gt;Node2</title>
<path fill="none" stroke="midnightblue" d="M192.6,-162.21C183.14,-187.64 163.03,-232.16 131,-257 126.02,-260.86 120.27,-263.94 114.3,-266.4"/>
<polygon fill="midnightblue" stroke="midnightblue" points="195.96,-163.19 196,-152.59 189.37,-160.85 195.96,-163.19"/>
</g>
<!-- Node3 -->
<g id="node3" class="node">
<title>Node3</title>
<g id="a_node3"><a xlink:href="class_dehumid_actuator.html#a7517ddfacd5178a573bb4a5258e4d294" target="_top" xlink:title=" ">
<polygon fill="none" stroke="black" points="4.5,-228.5 4.5,-247.5 126.5,-247.5 126.5,-228.5 4.5,-228.5"/>
<text text-anchor="middle" x="65.5" y="-235.5" font-family="Helvetica,sans-Serif" font-size="10.00">DehumidActuator::deinit</text>
</a>
</g>
</g>
<!-- Node1&#45;&gt;Node3 -->
<g id="edge2" class="edge">
<title>Node1&#45;&gt;Node3</title>
<path fill="none" stroke="midnightblue" d="M187.08,-161.39C174.95,-178.68 154.61,-204.07 131,-219 124.88,-222.87 117.94,-225.98 110.94,-228.47"/>
<polygon fill="midnightblue" stroke="midnightblue" points="190.23,-162.97 192.94,-152.73 184.44,-159.05 190.23,-162.97"/>
</g>
<!-- Node4 -->
<g id="node4" class="node">
<title>Node4</title>
<g id="a_node4"><a xlink:href="class_dht22_humid_sensor.html#a156040f01ad5bf41646420e942ef5f02" target="_top" xlink:title=" ">
<polygon fill="none" stroke="black" points="0,-190.5 0,-209.5 131,-209.5 131,-190.5 0,-190.5"/>
<text text-anchor="middle" x="65.5" y="-197.5" font-family="Helvetica,sans-Serif" font-size="10.00">Dht22HumidSensor::deinit</text>
</a>
</g>
</g>
<!-- Node1&#45;&gt;Node4 -->
<g id="edge3" class="edge">
<title>Node1&#45;&gt;Node4</title>
<path fill="none" stroke="midnightblue" d="M175.46,-157.87C162.66,-165.51 146.35,-174.55 131,-181 122.5,-184.57 113.1,-187.75 104.17,-190.44"/>
<polygon fill="midnightblue" stroke="midnightblue" points="177.38,-160.8 184.1,-152.61 173.74,-154.82 177.38,-160.8"/>
</g>
<!-- Node5 -->
<g id="node5" class="node">
<title>Node5</title>
<g id="a_node5"><a xlink:href="class_dht22_temp_sensor.html#a116cd310062753f8d8b19a2e8cf7256c" target="_top" xlink:title=" ">
<polygon fill="none" stroke="black" points="2,-152.5 2,-171.5 129,-171.5 129,-152.5 2,-152.5"/>
<text text-anchor="middle" x="65.5" y="-159.5" font-family="Helvetica,sans-Serif" font-size="10.00">Dht22TempSensor::deinit</text>
</a>
</g>
</g>
<!-- Node1&#45;&gt;Node5 -->
<g id="edge4" class="edge">
<title>Node1&#45;&gt;Node5</title>
<path fill="none" stroke="midnightblue" d="M156.9,-149.04C148.06,-150.3 138.56,-151.67 129.15,-153.02"/>
<polygon fill="midnightblue" stroke="midnightblue" points="157.52,-152.48 166.93,-147.6 156.53,-145.55 157.52,-152.48"/>
</g>
<!-- Node6 -->
<g id="node6" class="node">
<title>Node6</title>
<g id="a_node6"><a xlink:href="class_heat_actuator.html#a91e5ca9580dd31673b6020355ef6035c" target="_top" xlink:title=" ">
<polygon fill="none" stroke="black" points="13.5,-114.5 13.5,-133.5 117.5,-133.5 117.5,-114.5 13.5,-114.5"/>
<text text-anchor="middle" x="65.5" y="-121.5" font-family="Helvetica,sans-Serif" font-size="10.00">HeatActuator::deinit</text>
</a>
</g>
</g>
<!-- Node1&#45;&gt;Node6 -->
<g id="edge5" class="edge">
<title>Node1&#45;&gt;Node6</title>
<path fill="none" stroke="midnightblue" d="M156.82,-136.95C144.37,-135.17 130.61,-133.19 117.66,-131.34"/>
<polygon fill="midnightblue" stroke="midnightblue" points="156.53,-140.45 166.93,-138.4 157.52,-133.52 156.53,-140.45"/>
</g>
<!-- Node7 -->
<g id="node7" class="node">
<title>Node7</title>
<g id="a_node7"><a xlink:href="class_heat_flow_actuator.html#a8fbdd72eff236ab117c5415fd9df59fe" target="_top" xlink:title=" ">
<polygon fill="none" stroke="black" points="3,-76.5 3,-95.5 128,-95.5 128,-76.5 3,-76.5"/>
<text text-anchor="middle" x="65.5" y="-83.5" font-family="Helvetica,sans-Serif" font-size="10.00">HeatFlowActuator::deinit</text>
</a>
</g>
</g>
<!-- Node1&#45;&gt;Node7 -->
<g id="edge6" class="edge">
<title>Node1&#45;&gt;Node7</title>
<path fill="none" stroke="midnightblue" d="M175.46,-128.13C162.66,-120.49 146.35,-111.45 131,-105 122.5,-101.43 113.1,-98.25 104.17,-95.56"/>
<polygon fill="midnightblue" stroke="midnightblue" points="173.74,-131.18 184.1,-133.39 177.38,-125.2 173.74,-131.18"/>
</g>
<!-- Node8 -->
<g id="node8" class="node">
<title>Node8</title>
<g id="a_node8"><a xlink:href="class_humid_actuator.html#a1e6912685f19a2a24748c6d9921c87b0" target="_top" xlink:title=" ">
<polygon fill="none" stroke="black" points="10,-38.5 10,-57.5 121,-57.5 121,-38.5 10,-38.5"/>
<text text-anchor="middle" x="65.5" y="-45.5" font-family="Helvetica,sans-Serif" font-size="10.00">HumidActuator::deinit</text>
</a>
</g>
</g>
<!-- Node1&#45;&gt;Node8 -->
<g id="edge7" class="edge">
<title>Node1&#45;&gt;Node8</title>
<path fill="none" stroke="midnightblue" d="M187.08,-124.61C174.95,-107.32 154.61,-81.93 131,-67 124.88,-63.13 117.94,-60.02 110.94,-57.53"/>
<polygon fill="midnightblue" stroke="midnightblue" points="184.44,-126.95 192.94,-133.27 190.23,-123.03 184.44,-126.95"/>
</g>
<!-- Node9 -->
<g id="node9" class="node">
<title>Node9</title>
<g id="a_node9"><a xlink:href="class_roller_actuator.html#aca0b6c94f85817eb0c60a34ddfda4634" target="_top" xlink:title=" ">
<polygon fill="none" stroke="black" points="11.5,-0.5 11.5,-19.5 119.5,-19.5 119.5,-0.5 11.5,-0.5"/>
<text text-anchor="middle" x="65.5" y="-7.5" font-family="Helvetica,sans-Serif" font-size="10.00">RollerActuator::deinit</text>
</a>
</g>
</g>
<!-- Node1&#45;&gt;Node9 -->
<g id="edge8" class="edge">
<title>Node1&#45;&gt;Node9</title>
<path fill="none" stroke="midnightblue" d="M192.6,-123.79C183.14,-98.36 163.03,-53.84 131,-29 126.02,-25.14 120.27,-22.06 114.3,-19.6"/>
<polygon fill="midnightblue" stroke="midnightblue" points="189.37,-125.15 196,-133.41 195.96,-122.81 189.37,-125.15"/>
</g>
</g>
</svg>
