<?xml version="1.0" encoding="UTF-8" standalone="no"?>
<!DOCTYPE svg PUBLIC "-//W3C//DTD SVG 1.1//EN"
 "http://www.w3.org/Graphics/SVG/1.1/DTD/svg11.dtd">
<!-- Generated by graphviz version 2.50.0 (20211204.2007)
 -->
<!-- Title: RollerActuator::deinit Pages: 1 -->
<svg width="253pt" height="116pt"
 viewBox="0.00 0.00 253.00 116.00" xmlns="http://www.w3.org/2000/svg" xmlns:xlink="http://www.w3.org/1999/xlink">
<g id="graph0" class="graph" transform="scale(1 1) rotate(0) translate(4 112)">
<title>RollerActuator::deinit</title>
<!-- Node1 -->
<g id="node1" class="node">
<title>Node1</title>
<g id="a_node1"><a xlink:title=" ">
<polygon fill="#bfbfbf" stroke="black" points="0,-44.5 0,-63.5 108,-63.5 108,-44.5 0,-44.5"/>
<text text-anchor="middle" x="54" y="-51.5" font-family="Helvetica,sans-Serif" font-size="10.00">RollerActuator::deinit</text>
</a>
</g>
</g>
<!-- Node2 -->
<g id="node2" class="node">
<title>Node2</title>
<g id="a_node2"><a xlink:href="class_gpio.html#a7b51caf5fd923221806206f1d28736ee" target="_top" xlink:title=" ">
<polygon fill="none" stroke="black" points="161.5,-88.5 161.5,-107.5 227.5,-107.5 227.5,-88.5 161.5,-88.5"/>
<text text-anchor="middle" x="194.5" y="-95.5" font-family="Helvetica,sans-Serif" font-size="10.00">Gpio::deinit</text>
</a>
</g>
</g>
<!-- Node1&#45;&gt;Node2 -->
<g id="edge1" class="edge">
<title>Node1&#45;&gt;Node2</title>
<path fill="none" stroke="midnightblue" d="M85.05,-63.55C105.2,-69.95 131.94,-78.44 153.83,-85.4"/>
<polygon fill="midnightblue" stroke="midnightblue" points="152.92,-88.78 163.51,-88.47 155.04,-82.11 152.92,-88.78"/>
</g>
<!-- Node3 -->
<g id="node3" class="node">
<title>Node3</title>
<g id="a_node3"><a xlink:href="class_singleton.html#a4aec04ab40783981bc6314c390206a68" target="_top" xlink:title=" ">
<polygon fill="none" stroke="black" points="144,-39 144,-69 245,-69 245,-39 144,-39"/>
<text text-anchor="start" x="152" y="-57" font-family="Helvetica,sans-Serif" font-size="10.00">Singleton&lt; Gpio &gt;::</text>
<text text-anchor="middle" x="194.5" y="-46" font-family="Helvetica,sans-Serif" font-size="10.00">getInstance</text>
</a>
</g>
</g>
<!-- Node1&#45;&gt;Node3 -->
<g id="edge2" class="edge">
<title>Node1&#45;&gt;Node3</title>
<path fill="none" stroke="midnightblue" d="M108.15,-54C116.5,-54 125.19,-54 133.68,-54"/>
<polygon fill="midnightblue" stroke="midnightblue" points="133.9,-57.5 143.9,-54 133.9,-50.5 133.9,-57.5"/>
</g>
<!-- Node4 -->
<g id="node4" class="node">
<title>Node4</title>
<g id="a_node4"><a xlink:href="class_roller_actuator.html#ae15f34d73d01350a7ee553ab026cc25f" target="_top" xlink:title=" ">
<polygon fill="none" stroke="black" points="146.5,-0.5 146.5,-19.5 242.5,-19.5 242.5,-0.5 146.5,-0.5"/>
<text text-anchor="middle" x="194.5" y="-7.5" font-family="Helvetica,sans-Serif" font-size="10.00">RollerActuator::off</text>
</a>
</g>
</g>
<!-- Node1&#45;&gt;Node4 -->
<g id="edge3" class="edge">
<title>Node1&#45;&gt;Node4</title>
<path fill="none" stroke="midnightblue" d="M85.05,-44.45C105.2,-38.05 131.94,-29.56 153.83,-22.6"/>
<polygon fill="midnightblue" stroke="midnightblue" points="155.04,-25.89 163.51,-19.53 152.92,-19.22 155.04,-25.89"/>
</g>
</g>
</svg>
