<?xml version="1.0" encoding="UTF-8" standalone="no"?>
<!DOCTYPE svg PUBLIC "-//W3C//DTD SVG 1.1//EN"
 "http://www.w3.org/Graphics/SVG/1.1/DTD/svg11.dtd">
<!-- Generated by graphviz version 2.50.0 (20211204.2007)
 -->
<!-- Title: HeatActuator::deinit Pages: 1 -->
<svg width="249pt" height="116pt"
 viewBox="0.00 0.00 249.00 116.00" xmlns="http://www.w3.org/2000/svg" xmlns:xlink="http://www.w3.org/1999/xlink">
<g id="graph0" class="graph" transform="scale(1 1) rotate(0) translate(4 112)">
<title>HeatActuator::deinit</title>
<!-- Node1 -->
<g id="node1" class="node">
<title>Node1</title>
<g id="a_node1"><a xlink:title=" ">
<polygon fill="#bfbfbf" stroke="black" points="0,-44.5 0,-63.5 104,-63.5 104,-44.5 0,-44.5"/>
<text text-anchor="middle" x="52" y="-51.5" font-family="Helvetica,sans-Serif" font-size="10.00">HeatActuator::deinit</text>
</a>
</g>
</g>
<!-- Node2 -->
<g id="node2" class="node">
<title>Node2</title>
<g id="a_node2"><a xlink:href="class_gpio.html#a7b51caf5fd923221806206f1d28736ee" target="_top" xlink:title=" ">
<polygon fill="none" stroke="black" points="157.5,-88.5 157.5,-107.5 223.5,-107.5 223.5,-88.5 157.5,-88.5"/>
<text text-anchor="middle" x="190.5" y="-95.5" font-family="Helvetica,sans-Serif" font-size="10.00">Gpio::deinit</text>
</a>
</g>
</g>
<!-- Node1&#45;&gt;Node2 -->
<g id="edge1" class="edge">
<title>Node1&#45;&gt;Node2</title>
<path fill="none" stroke="midnightblue" d="M82.62,-63.55C102.47,-69.95 128.83,-78.44 150.4,-85.4"/>
<polygon fill="midnightblue" stroke="midnightblue" points="149.35,-88.73 159.94,-88.47 151.5,-82.07 149.35,-88.73"/>
</g>
<!-- Node3 -->
<g id="node3" class="node">
<title>Node3</title>
<g id="a_node3"><a xlink:href="class_singleton.html#a4aec04ab40783981bc6314c390206a68" target="_top" xlink:title=" ">
<polygon fill="none" stroke="black" points="140,-39 140,-69 241,-69 241,-39 140,-39"/>
<text text-anchor="start" x="148" y="-57" font-family="Helvetica,sans-Serif" font-size="10.00">Singleton&lt; Gpio &gt;::</text>
<text text-anchor="middle" x="190.5" y="-46" font-family="Helvetica,sans-Serif" font-size="10.00">getInstance</text>
</a>
</g>
</g>
<!-- Node1&#45;&gt;Node3 -->
<g id="edge2" class="edge">
<title>Node1&#45;&gt;Node3</title>
<path fill="none" stroke="midnightblue" d="M104.22,-54C112.5,-54 121.14,-54 129.6,-54"/>
<polygon fill="midnightblue" stroke="midnightblue" points="129.81,-57.5 139.81,-54 129.81,-50.5 129.81,-57.5"/>
</g>
<!-- Node4 -->
<g id="node4" class="node">
<title>Node4</title>
<g id="a_node4"><a xlink:href="class_heat_actuator.html#ad8a15265b17d86439db4fda85954d657" target="_top" xlink:title=" ">
<polygon fill="none" stroke="black" points="144.5,-0.5 144.5,-19.5 236.5,-19.5 236.5,-0.5 144.5,-0.5"/>
<text text-anchor="middle" x="190.5" y="-7.5" font-family="Helvetica,sans-Serif" font-size="10.00">HeatActuator::off</text>
</a>
</g>
</g>
<!-- Node1&#45;&gt;Node4 -->
<g id="edge3" class="edge">
<title>Node1&#45;&gt;Node4</title>
<path fill="none" stroke="midnightblue" d="M82.62,-44.45C102.47,-38.05 128.83,-29.56 150.4,-22.6"/>
<polygon fill="midnightblue" stroke="midnightblue" points="151.5,-25.93 159.94,-19.53 149.35,-19.27 151.5,-25.93"/>
</g>
</g>
</svg>
