<?xml version="1.0" encoding="UTF-8" standalone="no"?>
<!DOCTYPE svg PUBLIC "-//W3C//DTD SVG 1.1//EN"
 "http://www.w3.org/Graphics/SVG/1.1/DTD/svg11.dtd">
<!-- Generated by graphviz version 2.48.0 (20210717.1556)
 -->
<!-- Title: InfoPanel Pages: 1 -->
<svg width="171pt" height="325pt"
 viewBox="0.00 0.00 171.00 325.00" xmlns="http://www.w3.org/2000/svg" xmlns:xlink="http://www.w3.org/1999/xlink">
<g id="graph0" class="graph" transform="scale(1 1) rotate(0) translate(4 321)">
<title>InfoPanel</title>
<!-- Node1 -->
<g id="node1" class="node">
<title>Node1</title>
<g id="a_node1"><a xlink:title=" ">
<polygon fill="#bfbfbf" stroke="black" points="0,-0.5 0,-211.5 132,-211.5 132,-0.5 0,-0.5"/>
<text text-anchor="middle" x="66" y="-199.5" font-family="Helvetica,sans-Serif" font-size="10.00">InfoPanel</text>
<polyline fill="none" stroke="black" points="0,-192.5 132,-192.5 "/>
<text text-anchor="middle" x="66" y="-180.5" font-family="Helvetica,sans-Serif" font-size="10.00"> </text>
<polyline fill="none" stroke="black" points="0,-173.5 132,-173.5 "/>
<text text-anchor="start" x="8" y="-161.5" font-family="Helvetica,sans-Serif" font-size="10.00">+ InfoPanel()</text>
<text text-anchor="start" x="8" y="-150.5" font-family="Helvetica,sans-Serif" font-size="10.00">+ ~InfoPanel()</text>
<text text-anchor="start" x="8" y="-139.5" font-family="Helvetica,sans-Serif" font-size="10.00">+ drawInfoPanel()</text>
<text text-anchor="start" x="8" y="-128.5" font-family="Helvetica,sans-Serif" font-size="10.00">+ isRequestNewSession()</text>
<text text-anchor="start" x="8" y="-117.5" font-family="Helvetica,sans-Serif" font-size="10.00">+ drawInfoNewSession()</text>
<text text-anchor="start" x="8" y="-106.5" font-family="Helvetica,sans-Serif" font-size="10.00">+ init()</text>
<text text-anchor="start" x="8" y="-95.5" font-family="Helvetica,sans-Serif" font-size="10.00">+ deinit()</text>
<text text-anchor="start" x="8" y="-84.5" font-family="Helvetica,sans-Serif" font-size="10.00">&#45; _devInit()</text>
<text text-anchor="start" x="8" y="-73.5" font-family="Helvetica,sans-Serif" font-size="10.00">&#45; _devDeinit()</text>
<text text-anchor="start" x="8" y="-62.5" font-family="Helvetica,sans-Serif" font-size="10.00">&#45; _prepareCanvas()</text>
<text text-anchor="start" x="8" y="-51.5" font-family="Helvetica,sans-Serif" font-size="10.00">&#45; _refreshCanvas()</text>
<text text-anchor="start" x="8" y="-40.5" font-family="Helvetica,sans-Serif" font-size="10.00">&#45; _destroyCanvas()</text>
<text text-anchor="start" x="8" y="-29.5" font-family="Helvetica,sans-Serif" font-size="10.00">&#45; _drawSolidLine()</text>
<text text-anchor="start" x="8" y="-18.5" font-family="Helvetica,sans-Serif" font-size="10.00">&#45; _drawDottedLine()</text>
<text text-anchor="start" x="8" y="-7.5" font-family="Helvetica,sans-Serif" font-size="10.00">&#45; _drawText()</text>
</a>
</g>
</g>
<!-- Node2 -->
<g id="node2" class="node">
<title>Node2</title>
<g id="a_node2"><a xlink:title=" ">
<polygon fill="none" stroke="#bfbfbf" points="10.5,-259.5 10.5,-316.5 45.5,-316.5 45.5,-259.5 10.5,-259.5"/>
<text text-anchor="middle" x="28" y="-304.5" font-family="Helvetica,sans-Serif" font-size="10.00">bool</text>
<polyline fill="none" stroke="#bfbfbf" points="10.5,-297.5 45.5,-297.5 "/>
<text text-anchor="middle" x="28" y="-285.5" font-family="Helvetica,sans-Serif" font-size="10.00"> </text>
<polyline fill="none" stroke="#bfbfbf" points="10.5,-278.5 45.5,-278.5 "/>
<text text-anchor="middle" x="28" y="-266.5" font-family="Helvetica,sans-Serif" font-size="10.00"> </text>
</a>
</g>
</g>
<!-- Node2&#45;&gt;Node1 -->
<g id="edge1" class="edge">
<title>Node2&#45;&gt;Node1</title>
<path fill="none" stroke="#404040" d="M26.96,-259.33C27.02,-249.97 27.52,-239.49 29,-230 29.34,-227.82 29.71,-225.63 30.1,-223.43"/>
<polygon fill="none" stroke="#404040" points="30.12,-223.34 27.36,-216.68 32.45,-211.57 35.21,-218.23 30.12,-223.34"/>
<text text-anchor="middle" x="55.5" y="-233" font-family="Helvetica,sans-Serif" font-size="10.00"> &#45;_initialized</text>
</g>
<!-- Node3 -->
<g id="node3" class="node">
<title>Node3</title>
<g id="a_node3"><a xlink:title=" ">
<polygon fill="none" stroke="#bfbfbf" points="74.5,-259.5 74.5,-316.5 133.5,-316.5 133.5,-259.5 74.5,-259.5"/>
<text text-anchor="middle" x="104" y="-304.5" font-family="Helvetica,sans-Serif" font-size="10.00">uint16_t *</text>
<polyline fill="none" stroke="#bfbfbf" points="74.5,-297.5 133.5,-297.5 "/>
<text text-anchor="middle" x="104" y="-285.5" font-family="Helvetica,sans-Serif" font-size="10.00"> </text>
<polyline fill="none" stroke="#bfbfbf" points="74.5,-278.5 133.5,-278.5 "/>
<text text-anchor="middle" x="104" y="-266.5" font-family="Helvetica,sans-Serif" font-size="10.00"> </text>
</a>
</g>
</g>
<!-- Node3&#45;&gt;Node1 -->
<g id="edge2" class="edge">
<title>Node3&#45;&gt;Node1</title>
<path fill="none" stroke="#404040" d="M98.15,-259.27C95.99,-249.05 93.39,-236.73 90.61,-223.57"/>
<polygon fill="none" stroke="#404040" points="90.61,-223.57 85.46,-218.53 88.13,-211.83 93.28,-216.88 90.61,-223.57"/>
<text text-anchor="middle" x="128" y="-233" font-family="Helvetica,sans-Serif" font-size="10.00"> &#45;_pBlackImage</text>
</g>
</g>
</svg>
