<?xml version="1.0" encoding="UTF-8" standalone="no"?>
<!DOCTYPE svg PUBLIC "-//W3C//DTD SVG 1.1//EN"
 "http://www.w3.org/Graphics/SVG/1.1/DTD/svg11.dtd">
<!-- Generated by graphviz version 2.50.0 (20211204.2007)
 -->
<!-- Title: DisplayServer::DisplayServer Pages: 1 -->
<svg width="401pt" height="28pt"
 viewBox="0.00 0.00 401.00 28.00" xmlns="http://www.w3.org/2000/svg" xmlns:xlink="http://www.w3.org/1999/xlink">
<g id="graph0" class="graph" transform="scale(1 1) rotate(0) translate(4 24)">
<title>DisplayServer::DisplayServer</title>
<!-- Node1 -->
<g id="node1" class="node">
<title>Node1</title>
<g id="a_node1"><a xlink:title=" ">
<polygon fill="#bfbfbf" stroke="black" points="0,-0.5 0,-19.5 146,-19.5 146,-0.5 0,-0.5"/>
<text text-anchor="middle" x="73" y="-7.5" font-family="Helvetica,sans-Serif" font-size="10.00">DisplayServer::DisplayServer</text>
</a>
</g>
</g>
<!-- Node2 -->
<g id="node2" class="node">
<title>Node2</title>
<g id="a_node2"><a xlink:href="class_info_panel.html#ac58af8fb551efa180a6eb9a33ae89091" target="_top" xlink:title=" ">
<polygon fill="none" stroke="black" points="182,-0.5 182,-19.5 259,-19.5 259,-0.5 182,-0.5"/>
<text text-anchor="middle" x="220.5" y="-7.5" font-family="Helvetica,sans-Serif" font-size="10.00">InfoPanel::init</text>
</a>
</g>
</g>
<!-- Node1&#45;&gt;Node2 -->
<g id="edge1" class="edge">
<title>Node1&#45;&gt;Node2</title>
<path fill="none" stroke="midnightblue" d="M146.32,-10C154.95,-10 163.58,-10 171.74,-10"/>
<polygon fill="midnightblue" stroke="midnightblue" points="171.78,-13.5 181.78,-10 171.78,-6.5 171.78,-13.5"/>
</g>
<!-- Node3 -->
<g id="node3" class="node">
<title>Node3</title>
<g id="a_node3"><a xlink:href="class_info_panel.html#a8add1bd371ef4ffd47653ed46c8570bb" target="_top" xlink:title=" ">
<polygon fill="none" stroke="black" points="295,-0.5 295,-19.5 393,-19.5 393,-0.5 295,-0.5"/>
<text text-anchor="middle" x="344" y="-7.5" font-family="Helvetica,sans-Serif" font-size="10.00">InfoPanel::_devInit</text>
</a>
</g>
</g>
<!-- Node2&#45;&gt;Node3 -->
<g id="edge2" class="edge">
<title>Node2&#45;&gt;Node3</title>
<path fill="none" stroke="midnightblue" d="M259.28,-10C267.39,-10 276.14,-10 284.82,-10"/>
<polygon fill="midnightblue" stroke="midnightblue" points="284.94,-13.5 294.94,-10 284.94,-6.5 284.94,-13.5"/>
</g>
</g>
</svg>
