<?xml version="1.0" encoding="UTF-8" standalone="no"?>
<!DOCTYPE svg PUBLIC "-//W3C//DTD SVG 1.1//EN"
 "http://www.w3.org/Graphics/SVG/1.1/DTD/svg11.dtd">
<!-- Generated by graphviz version 2.48.0 (20210717.1556)
 -->
<!-- Title: Incubator Pages: 1 -->
<!--zoomable 1056 -->
<svg id="main" version="1.1" xmlns="http://www.w3.org/2000/svg" xmlns:xlink="http://www.w3.org/1999/xlink" xml:space="preserve" onload="init(evt)">
<style type="text/css"><![CDATA[
.edge:hover path { stroke: red; }
.edge:hover polygon { stroke: red; fill: red; }
]]></style>
<script type="text/javascript"><![CDATA[
var edges = document.getElementsByTagName('g');
if (edges && edges.length) {
  for (var i=0;i<edges.length;i++) {
    if (edges[i].id.substr(0,4)=='edge') {
      edges[i].setAttribute('class','edge');
    }
  }
}
]]></script>
        <defs>
                <circle id="rim" cx="0" cy="0" r="7"/>
                <circle id="rim2" cx="0" cy="0" r="3.5"/>
                <g id="zoomPlus">
                        <use xlink:href="#rim" fill="#404040">
                                <set attributeName="fill" to="#808080" begin="zoomplus.mouseover" end="zoomplus.mouseout"/>
                        </use>
                        <path d="M-4,0h8M0,-4v8" fill="none" stroke="white" stroke-width="1.5" pointer-events="none"/>
                </g>
                <g id="zoomMin">
                        <use xlink:href="#rim" fill="#404040">
                                <set attributeName="fill" to="#808080" begin="zoomminus.mouseover" end="zoomminus.mouseout"/>
                        </use>
                        <path d="M-4,0h8" fill="none" stroke="white" stroke-width="1.5" pointer-events="none"/>
                </g>
                <g id="dirArrow">
                        <path fill="none" stroke="white" stroke-width="1.5" d="M0,-3.0v7 M-2.5,-0.5L0,-3.0L2.5,-0.5"/>
                </g>
               <g id="resetDef">
                       <use xlink:href="#rim2" fill="#404040">
                               <set attributeName="fill" to="#808080" begin="reset.mouseover" end="reset.mouseout"/>
                       </use>
               </g>
        </defs>

<script type="text/javascript">
var viewWidth = 1038;
var viewHeight = 1056;
var sectionId = 'dynsection-1';
</script>
<script xlink:href="svgpan.js"/>
<svg id="graph" class="graph">
<g id="viewport">
<title>Incubator</title>
<!-- Node1 -->
<g id="node1" class="node">
<title>Node1</title>
<g id="a_node1"><a xlink:title=" ">
<polygon fill="#bfbfbf" stroke="black" points="592.5,-0.5 592.5,-145.5 680.5,-145.5 680.5,-0.5 592.5,-0.5"/>
<text text-anchor="middle" x="636.5" y="-133.5" font-family="Helvetica,sans-Serif" font-size="10.00">Incubator</text>
<polyline fill="none" stroke="black" points="592.5,-126.5 680.5,-126.5 "/>
<text text-anchor="middle" x="636.5" y="-114.5" font-family="Helvetica,sans-Serif" font-size="10.00"> </text>
<polyline fill="none" stroke="black" points="592.5,-107.5 680.5,-107.5 "/>
<text text-anchor="start" x="600.5" y="-95.5" font-family="Helvetica,sans-Serif" font-size="10.00">+ Incubator()</text>
<text text-anchor="start" x="600.5" y="-84.5" font-family="Helvetica,sans-Serif" font-size="10.00">+ ~Incubator()</text>
<text text-anchor="start" x="600.5" y="-73.5" font-family="Helvetica,sans-Serif" font-size="10.00">+ init()</text>
<text text-anchor="start" x="600.5" y="-62.5" font-family="Helvetica,sans-Serif" font-size="10.00">+ deinit()</text>
<text text-anchor="start" x="600.5" y="-51.5" font-family="Helvetica,sans-Serif" font-size="10.00">+ runLoop()</text>
<text text-anchor="start" x="600.5" y="-40.5" font-family="Helvetica,sans-Serif" font-size="10.00">+ newSession()</text>
<text text-anchor="start" x="600.5" y="-29.5" font-family="Helvetica,sans-Serif" font-size="10.00">+ updatePanel()</text>
<text text-anchor="start" x="600.5" y="-18.5" font-family="Helvetica,sans-Serif" font-size="10.00">&#45; _run()</text>
<text text-anchor="start" x="600.5" y="-7.5" font-family="Helvetica,sans-Serif" font-size="10.00">&#45; _run4Roller()</text>
</a>
</g>
</g>
<!-- Node2 -->
<g id="node2" class="node">
<title>Node2</title>
<g id="a_node2"><a xlink:href="class_singleton.html" target="_top" xlink:title=" ">
<polygon fill="none" stroke="black" points="0,-445.5 0,-535.5 117,-535.5 117,-445.5 0,-445.5"/>
<text text-anchor="middle" x="58.5" y="-523.5" font-family="Helvetica,sans-Serif" font-size="10.00">Singleton&lt; Incubator &gt;</text>
<polyline fill="none" stroke="black" points="0,-516.5 117,-516.5 "/>
<text text-anchor="middle" x="58.5" y="-504.5" font-family="Helvetica,sans-Serif" font-size="10.00"> </text>
<polyline fill="none" stroke="black" points="0,-497.5 117,-497.5 "/>
<text text-anchor="start" x="8" y="-485.5" font-family="Helvetica,sans-Serif" font-size="10.00">+ getInstance()</text>
<text text-anchor="start" x="8" y="-474.5" font-family="Helvetica,sans-Serif" font-size="10.00"># Singleton()</text>
<text text-anchor="start" x="8" y="-463.5" font-family="Helvetica,sans-Serif" font-size="10.00">&#45; Singleton()</text>
<text text-anchor="start" x="8" y="-452.5" font-family="Helvetica,sans-Serif" font-size="10.00">&#45; operator=()</text>
</a>
</g>
</g>
<!-- Node2&#45;&gt;Node1 -->
<g id="edge1" class="edge">
<title>Node2&#45;&gt;Node1</title>
<path fill="none" stroke="midnightblue" d="M80.39,-435.92C105.46,-379.15 150.78,-289.15 209.5,-226 313.72,-113.92 506.06,-84.41 592.46,-76.7"/>
<polygon fill="none" stroke="midnightblue" points="77.03,-434.86 76.24,-445.43 83.44,-437.66 77.03,-434.86"/>
</g>
<!-- Node3 -->
<g id="node3" class="node">
<title>Node3</title>
<g id="a_node3"><a xlink:href="class_singleton.html" target="_top" xlink:title=" ">
<polygon fill="none" stroke="black" points="174,-692.5 174,-782.5 257,-782.5 257,-692.5 174,-692.5"/>
<text text-anchor="middle" x="215.5" y="-770.5" font-family="Helvetica,sans-Serif" font-size="10.00">Singleton&lt; T &gt;</text>
<polyline fill="none" stroke="black" points="174,-763.5 257,-763.5 "/>
<text text-anchor="middle" x="215.5" y="-751.5" font-family="Helvetica,sans-Serif" font-size="10.00"> </text>
<polyline fill="none" stroke="black" points="174,-744.5 257,-744.5 "/>
<text text-anchor="start" x="182" y="-732.5" font-family="Helvetica,sans-Serif" font-size="10.00">+ getInstance()</text>
<text text-anchor="start" x="182" y="-721.5" font-family="Helvetica,sans-Serif" font-size="10.00"># Singleton()</text>
<text text-anchor="start" x="182" y="-710.5" font-family="Helvetica,sans-Serif" font-size="10.00">&#45; Singleton()</text>
<text text-anchor="start" x="182" y="-699.5" font-family="Helvetica,sans-Serif" font-size="10.00">&#45; operator=()</text>
</a>
</g>
</g>
<!-- Node3&#45;&gt;Node2 -->
<g id="edge2" class="edge">
<title>Node3&#45;&gt;Node2</title>
<path fill="none" stroke="orange" d="M164.63,-716.02C134.2,-701.01 97.65,-677.56 77.5,-645 57.29,-612.35 53.73,-568.28 54.53,-535.74"/>
<polygon fill="orange" stroke="orange" points="163.31,-719.27 173.85,-720.4 166.32,-712.95 163.31,-719.27"/>
<text text-anchor="middle" x="131.5" y="-666" font-family="Helvetica,sans-Serif" font-size="10.00"> &lt; Incubator &gt;</text>
</g>
<!-- Node9 -->
<g id="node9" class="node">
<title>Node9</title>
<g id="a_node9"><a xlink:href="class_singleton.html" target="_top" xlink:title=" ">
<polygon fill="none" stroke="black" points="149,-554.5 149,-644.5 282,-644.5 282,-554.5 149,-554.5"/>
<text text-anchor="middle" x="215.5" y="-632.5" font-family="Helvetica,sans-Serif" font-size="10.00">Singleton&lt; SessionTime &gt;</text>
<polyline fill="none" stroke="black" points="149,-625.5 282,-625.5 "/>
<text text-anchor="middle" x="215.5" y="-613.5" font-family="Helvetica,sans-Serif" font-size="10.00"> </text>
<polyline fill="none" stroke="black" points="149,-606.5 282,-606.5 "/>
<text text-anchor="start" x="157" y="-594.5" font-family="Helvetica,sans-Serif" font-size="10.00">+ getInstance()</text>
<text text-anchor="start" x="157" y="-583.5" font-family="Helvetica,sans-Serif" font-size="10.00"># Singleton()</text>
<text text-anchor="start" x="157" y="-572.5" font-family="Helvetica,sans-Serif" font-size="10.00">&#45; Singleton()</text>
<text text-anchor="start" x="157" y="-561.5" font-family="Helvetica,sans-Serif" font-size="10.00">&#45; operator=()</text>
</a>
</g>
</g>
<!-- Node3&#45;&gt;Node9 -->
<g id="edge9" class="edge">
<title>Node3&#45;&gt;Node9</title>
<path fill="none" stroke="orange" d="M215.5,-682.15C215.5,-669.78 215.5,-656.79 215.5,-644.9"/>
<polygon fill="orange" stroke="orange" points="212,-682.34 215.5,-692.34 219,-682.34 212,-682.34"/>
<text text-anchor="middle" x="254.5" y="-666" font-family="Helvetica,sans-Serif" font-size="10.00"> &lt; SessionTime &gt;</text>
</g>
<!-- Node17 -->
<g id="node17" class="node">
<title>Node17</title>
<g id="a_node17"><a xlink:href="class_singleton.html" target="_top" xlink:title=" ">
<polygon fill="none" stroke="black" points="353,-554.5 353,-644.5 446,-644.5 446,-554.5 353,-554.5"/>
<text text-anchor="middle" x="399.5" y="-632.5" font-family="Helvetica,sans-Serif" font-size="10.00">Singleton&lt; Env &gt;</text>
<polyline fill="none" stroke="black" points="353,-625.5 446,-625.5 "/>
<text text-anchor="middle" x="399.5" y="-613.5" font-family="Helvetica,sans-Serif" font-size="10.00"> </text>
<polyline fill="none" stroke="black" points="353,-606.5 446,-606.5 "/>
<text text-anchor="start" x="361" y="-594.5" font-family="Helvetica,sans-Serif" font-size="10.00">+ getInstance()</text>
<text text-anchor="start" x="361" y="-583.5" font-family="Helvetica,sans-Serif" font-size="10.00"># Singleton()</text>
<text text-anchor="start" x="361" y="-572.5" font-family="Helvetica,sans-Serif" font-size="10.00">&#45; Singleton()</text>
<text text-anchor="start" x="361" y="-561.5" font-family="Helvetica,sans-Serif" font-size="10.00">&#45; operator=()</text>
</a>
</g>
</g>
<!-- Node3&#45;&gt;Node17 -->
<g id="edge18" class="edge">
<title>Node3&#45;&gt;Node17</title>
<path fill="none" stroke="orange" d="M265.32,-701.77C289.18,-684.91 318.04,-664.2 343.5,-645 346.57,-642.68 349.72,-640.27 352.89,-637.83"/>
<polygon fill="orange" stroke="orange" points="263.26,-698.94 257.1,-707.56 267.29,-704.66 263.26,-698.94"/>
<text text-anchor="middle" x="335.5" y="-666" font-family="Helvetica,sans-Serif" font-size="10.00"> &lt; Env &gt;</text>
</g>
<!-- Node4 -->
<g id="node4" class="node">
<title>Node4</title>
<g id="a_node4"><a xlink:href="struct_actuator.html" target="_top" xlink:title=" ">
<polygon fill="none" stroke="black" points="739,-265 739,-388 814,-388 814,-265 739,-265"/>
<text text-anchor="middle" x="776.5" y="-376" font-family="Helvetica,sans-Serif" font-size="10.00">Actuator</text>
<polyline fill="none" stroke="black" points="739,-369 814,-369 "/>
<text text-anchor="middle" x="776.5" y="-357" font-family="Helvetica,sans-Serif" font-size="10.00"> </text>
<polyline fill="none" stroke="black" points="739,-350 814,-350 "/>
<text text-anchor="start" x="747" y="-338" font-family="Helvetica,sans-Serif" font-size="10.00">+ ~Actuator()</text>
<text text-anchor="start" x="747" y="-327" font-family="Helvetica,sans-Serif" font-size="10.00">+ init()</text>
<text text-anchor="start" x="747" y="-316" font-family="Helvetica,sans-Serif" font-size="10.00">+ deinit()</text>
<text text-anchor="start" x="747" y="-305" font-family="Helvetica,sans-Serif" font-size="10.00">+ on()</text>
<text text-anchor="start" x="747" y="-294" font-family="Helvetica,sans-Serif" font-size="10.00">+ off()</text>
<text text-anchor="start" x="747" y="-283" font-family="Helvetica,sans-Serif" font-size="10.00">+ start()</text>
<text text-anchor="start" x="747" y="-272" font-family="Helvetica,sans-Serif" font-size="10.00">+ stop()</text>
</a>
</g>
</g>
<!-- Node4&#45;&gt;Node1 -->
<g id="edge3" class="edge">
<title>Node4&#45;&gt;Node1</title>
<path fill="none" stroke="#404040" d="M764.03,-264.75C755.85,-233.2 743.14,-194.9 724.5,-164 715.05,-148.34 702.38,-133.3 689.6,-120.15"/>
<polygon fill="none" stroke="#404040" points="689.27,-119.83 682.2,-118.43 680.77,-111.36 687.84,-112.76 689.27,-119.83"/>
<text text-anchor="middle" x="790.5" y="-200" font-family="Helvetica,sans-Serif" font-size="10.00"> &#45;_pAirFlowActuator</text>
<text text-anchor="middle" x="790.5" y="-189" font-family="Helvetica,sans-Serif" font-size="10.00">&#45;_pDehumidActuator</text>
<text text-anchor="middle" x="790.5" y="-178" font-family="Helvetica,sans-Serif" font-size="10.00">&#45;_pHeatActuator</text>
<text text-anchor="middle" x="790.5" y="-167" font-family="Helvetica,sans-Serif" font-size="10.00">&#45;_pRollerActuator</text>
</g>
<!-- Node5 -->
<g id="node5" class="node">
<title>Node5</title>
<g id="a_node5"><a xlink:href="class_display_client.html" target="_top" xlink:title=" ">
<polygon fill="none" stroke="black" points="580.5,-830.5 580.5,-909.5 676.5,-909.5 676.5,-830.5 580.5,-830.5"/>
<text text-anchor="middle" x="628.5" y="-897.5" font-family="Helvetica,sans-Serif" font-size="10.00">DisplayClient</text>
<polyline fill="none" stroke="black" points="580.5,-890.5 676.5,-890.5 "/>
<text text-anchor="middle" x="628.5" y="-878.5" font-family="Helvetica,sans-Serif" font-size="10.00"> </text>
<polyline fill="none" stroke="black" points="580.5,-871.5 676.5,-871.5 "/>
<text text-anchor="start" x="588.5" y="-859.5" font-family="Helvetica,sans-Serif" font-size="10.00">+ DisplayClient()</text>
<text text-anchor="start" x="588.5" y="-848.5" font-family="Helvetica,sans-Serif" font-size="10.00">+ ~DisplayClient()</text>
<text text-anchor="start" x="588.5" y="-837.5" font-family="Helvetica,sans-Serif" font-size="10.00">+ sendMsg()</text>
</a>
</g>
</g>
<!-- Node5&#45;&gt;Node1 -->
<g id="edge4" class="edge">
<title>Node5&#45;&gt;Node1</title>
<path fill="none" stroke="#404040" d="M632.1,-830.49C634.23,-804.53 636.5,-769.48 636.5,-738.5 636.5,-738.5 636.5,-738.5 636.5,-325.5 636.5,-269.55 636.5,-206.6 636.5,-157.67"/>
<polygon fill="none" stroke="#404040" points="636.5,-157.55 632.5,-151.55 636.5,-145.55 640.5,-151.55 636.5,-157.55"/>
<text text-anchor="middle" x="652.5" y="-597" font-family="Helvetica,sans-Serif" font-size="10.00"> &#45;_pDC</text>
</g>
<!-- Node6 -->
<g id="node6" class="node">
<title>Node6</title>
<g id="a_node6"><a xlink:title=" ">
<polygon fill="none" stroke="#bfbfbf" points="464,-990.5 464,-1047.5 505,-1047.5 505,-990.5 464,-990.5"/>
<text text-anchor="middle" x="484.5" y="-1035.5" font-family="Helvetica,sans-Serif" font-size="10.00">string</text>
<polyline fill="none" stroke="#bfbfbf" points="464,-1028.5 505,-1028.5 "/>
<text text-anchor="middle" x="484.5" y="-1016.5" font-family="Helvetica,sans-Serif" font-size="10.00"> </text>
<polyline fill="none" stroke="#bfbfbf" points="464,-1009.5 505,-1009.5 "/>
<text text-anchor="middle" x="484.5" y="-997.5" font-family="Helvetica,sans-Serif" font-size="10.00"> </text>
</a>
</g>
</g>
<!-- Node6&#45;&gt;Node5 -->
<g id="edge5" class="edge">
<title>Node6&#45;&gt;Node5</title>
<path fill="none" stroke="#404040" d="M483.3,-990.49C483.87,-971.12 487.62,-945.6 501.5,-928 518.16,-906.88 544.33,-893.35 568.6,-884.81"/>
<polygon fill="none" stroke="#404040" points="568.9,-884.71 573.37,-879.05 580.31,-881 575.84,-886.66 568.9,-884.71"/>
<text text-anchor="middle" x="517" y="-947.5" font-family="Helvetica,sans-Serif" font-size="10.00"> &#45;_host</text>
</g>
<!-- Node16 -->
<g id="node16" class="node">
<title>Node16</title>
<g id="a_node16"><a xlink:href="class_env.html" target="_top" xlink:title=" ">
<polygon fill="none" stroke="black" points="493,-226.5 493,-426.5 608,-426.5 608,-226.5 493,-226.5"/>
<text text-anchor="middle" x="550.5" y="-414.5" font-family="Helvetica,sans-Serif" font-size="10.00">Env</text>
<polyline fill="none" stroke="black" points="493,-407.5 608,-407.5 "/>
<text text-anchor="middle" x="550.5" y="-395.5" font-family="Helvetica,sans-Serif" font-size="10.00"> </text>
<polyline fill="none" stroke="black" points="493,-388.5 608,-388.5 "/>
<text text-anchor="start" x="501" y="-376.5" font-family="Helvetica,sans-Serif" font-size="10.00">+ Env()</text>
<text text-anchor="start" x="501" y="-365.5" font-family="Helvetica,sans-Serif" font-size="10.00">+ ~Env()</text>
<text text-anchor="start" x="501" y="-354.5" font-family="Helvetica,sans-Serif" font-size="10.00">+ setUp()</text>
<text text-anchor="start" x="501" y="-343.5" font-family="Helvetica,sans-Serif" font-size="10.00">+ getConfig()</text>
<text text-anchor="start" x="501" y="-332.5" font-family="Helvetica,sans-Serif" font-size="10.00">+ setConfig()</text>
<text text-anchor="start" x="501" y="-321.5" font-family="Helvetica,sans-Serif" font-size="10.00">+ getFormula()</text>
<text text-anchor="start" x="501" y="-310.5" font-family="Helvetica,sans-Serif" font-size="10.00">+ getMaxDay()</text>
<text text-anchor="start" x="501" y="-299.5" font-family="Helvetica,sans-Serif" font-size="10.00">&#45; _readConfig()</text>
<text text-anchor="start" x="501" y="-288.5" font-family="Helvetica,sans-Serif" font-size="10.00">&#45; _readFromCfgFile()</text>
<text text-anchor="start" x="501" y="-277.5" font-family="Helvetica,sans-Serif" font-size="10.00">&#45; _str2Obj()</text>
<text text-anchor="start" x="501" y="-266.5" font-family="Helvetica,sans-Serif" font-size="10.00">&#45; _objByPhaseName()</text>
<text text-anchor="start" x="501" y="-255.5" font-family="Helvetica,sans-Serif" font-size="10.00">&#45; _obj2Phase()</text>
<text text-anchor="start" x="501" y="-244.5" font-family="Helvetica,sans-Serif" font-size="10.00">&#45; _obj2Config()</text>
<text text-anchor="start" x="501" y="-233.5" font-family="Helvetica,sans-Serif" font-size="10.00">&#45; _cfg2Formulas()</text>
</a>
</g>
</g>
<!-- Node6&#45;&gt;Node16 -->
<g id="edge30" class="edge">
<title>Node6&#45;&gt;Node16</title>
<path fill="none" stroke="#404040" d="M476.8,-990.46C475.43,-984.42 474.21,-978.03 473.5,-972 471.21,-952.58 472.98,-947.55 473.5,-928 477.95,-761.6 468.63,-718.59 493.5,-554 499.25,-515.92 508.58,-474.92 518.04,-438.41"/>
<polygon fill="none" stroke="#404040" points="518.07,-438.33 515.72,-431.51 521.12,-426.73 523.46,-433.55 518.07,-438.33"/>
<text text-anchor="middle" x="492.5" y="-735" font-family="Helvetica,sans-Serif" font-size="10.00"> &#45;_text</text>
</g>
<!-- Node18 -->
<g id="node18" class="node">
<title>Node18</title>
<g id="a_node18"><a xlink:href="struct__config.html" target="_top" xlink:title=" ">
<polygon fill="none" stroke="black" points="692,-571 692,-628 741,-628 741,-571 692,-571"/>
<text text-anchor="middle" x="716.5" y="-616" font-family="Helvetica,sans-Serif" font-size="10.00">_config</text>
<polyline fill="none" stroke="black" points="692,-609 741,-609 "/>
<text text-anchor="middle" x="716.5" y="-597" font-family="Helvetica,sans-Serif" font-size="10.00"> </text>
<polyline fill="none" stroke="black" points="692,-590 741,-590 "/>
<text text-anchor="middle" x="716.5" y="-578" font-family="Helvetica,sans-Serif" font-size="10.00"> </text>
</a>
</g>
</g>
<!-- Node6&#45;&gt;Node18 -->
<g id="edge20" class="edge">
<title>Node6&#45;&gt;Node18</title>
<path fill="none" stroke="#404040" d="M478.79,-990.15C476.23,-972.02 475.04,-948.09 481.5,-928 502.27,-863.42 626.37,-708.81 685.37,-637.58"/>
<polygon fill="none" stroke="#404040" points="685.58,-637.33 686.34,-630.16 693.25,-628.1 692.49,-635.28 685.58,-637.33"/>
<text text-anchor="middle" x="573.5" y="-804" font-family="Helvetica,sans-Serif" font-size="10.00"> +name</text>
</g>
<!-- Node22 -->
<g id="node22" class="node">
<title>Node22</title>
<g id="a_node22"><a xlink:href="struct__phase__header.html" target="_top" xlink:title=" ">
<polygon fill="none" stroke="black" points="694.5,-841.5 694.5,-898.5 780.5,-898.5 780.5,-841.5 694.5,-841.5"/>
<text text-anchor="middle" x="737.5" y="-886.5" font-family="Helvetica,sans-Serif" font-size="10.00">_phase_header</text>
<polyline fill="none" stroke="black" points="694.5,-879.5 780.5,-879.5 "/>
<text text-anchor="middle" x="737.5" y="-867.5" font-family="Helvetica,sans-Serif" font-size="10.00"> </text>
<polyline fill="none" stroke="black" points="694.5,-860.5 780.5,-860.5 "/>
<text text-anchor="middle" x="737.5" y="-848.5" font-family="Helvetica,sans-Serif" font-size="10.00"> </text>
</a>
</g>
</g>
<!-- Node6&#45;&gt;Node22 -->
<g id="edge26" class="edge">
<title>Node6&#45;&gt;Node22</title>
<path fill="none" stroke="#404040" d="M505.12,-1000.14C514,-991.98 524.22,-981.93 532.5,-972 547.49,-954.01 541.73,-940.56 561.5,-928 608.5,-898.13 634.07,-931.37 685.5,-910 688.88,-908.59 692.24,-906.92 695.53,-905.06"/>
<polygon fill="none" stroke="#404040" points="695.58,-905.03 698.53,-898.45 705.74,-898.64 702.79,-905.22 695.58,-905.03"/>
<text text-anchor="middle" x="578.5" y="-947.5" font-family="Helvetica,sans-Serif" font-size="10.00"> +name</text>
</g>
<!-- Node7 -->
<g id="node7" class="node">
<title>Node7</title>
<g id="a_node7"><a xlink:title=" ">
<polygon fill="none" stroke="#bfbfbf" points="832,-990.5 832,-1047.5 889,-1047.5 889,-990.5 832,-990.5"/>
<text text-anchor="middle" x="860.5" y="-1035.5" font-family="Helvetica,sans-Serif" font-size="10.00">unsigned</text>
<polyline fill="none" stroke="#bfbfbf" points="832,-1028.5 889,-1028.5 "/>
<text text-anchor="middle" x="860.5" y="-1016.5" font-family="Helvetica,sans-Serif" font-size="10.00"> </text>
<polyline fill="none" stroke="#bfbfbf" points="832,-1009.5 889,-1009.5 "/>
<text text-anchor="middle" x="860.5" y="-997.5" font-family="Helvetica,sans-Serif" font-size="10.00"> </text>
</a>
</g>
</g>
<!-- Node7&#45;&gt;Node1 -->
<g id="edge32" class="edge">
<title>Node7&#45;&gt;Node1</title>
<path fill="none" stroke="#404040" d="M889.31,-1007.93C905.41,-1000.65 924.09,-989.05 933.5,-972 952.52,-937.54 929.73,-852.3 909.5,-801 888.47,-747.66 876.56,-736.58 840.5,-692 821.72,-668.79 807.76,-670.66 792.5,-645 743.36,-562.37 682.72,-295.51 653.64,-157.86"/>
<polygon fill="none" stroke="#404040" points="653.56,-157.5 648.41,-152.45 651.09,-145.76 656.24,-150.8 653.56,-157.5"/>
<text text-anchor="middle" x="847" y="-666" font-family="Helvetica,sans-Serif" font-size="10.00"> &#45;_runCount</text>
</g>
<!-- Node7&#45;&gt;Node5 -->
<g id="edge6" class="edge">
<title>Node7&#45;&gt;Node5</title>
<path fill="none" stroke="#404040" d="M831.99,-1015.68C800.58,-1011.7 750.32,-1000.95 718.5,-972 702.74,-957.67 712.41,-944.94 699.5,-928 695.43,-922.66 690.75,-917.52 685.78,-912.66"/>
<polygon fill="none" stroke="#404040" points="685.44,-912.34 678.32,-911.24 676.59,-904.24 683.72,-905.34 685.44,-912.34"/>
<text text-anchor="middle" x="741.5" y="-953" font-family="Helvetica,sans-Serif" font-size="10.00"> &#45;_bufSize</text>
<text text-anchor="middle" x="741.5" y="-942" font-family="Helvetica,sans-Serif" font-size="10.00">&#45;_portNo</text>
</g>
<!-- Node7&#45;&gt;Node18 -->
<g id="edge28" class="edge">
<title>Node7&#45;&gt;Node18</title>
<path fill="none" stroke="#404040" d="M889.09,-1002.49C900.1,-994.89 911.47,-984.62 917.5,-972 925.93,-954.36 922.34,-946.95 917.5,-928 884.24,-797.93 851.46,-771.58 772.5,-663 766.03,-654.1 762.91,-653.14 755.5,-645 753.31,-642.59 751.06,-640.09 748.8,-637.57"/>
<polygon fill="none" stroke="#404040" points="748.65,-637.39 741.67,-635.56 740.68,-628.41 747.66,-630.25 748.65,-637.39"/>
<text text-anchor="middle" x="890.5" y="-804" font-family="Helvetica,sans-Serif" font-size="10.00"> +days</text>
</g>
<!-- Node20 -->
<g id="node20" class="node">
<title>Node20</title>
<g id="a_node20"><a xlink:href="struct__fomula.html" target="_top" xlink:title=" ">
<polygon fill="none" stroke="black" points="798.5,-841.5 798.5,-898.5 850.5,-898.5 850.5,-841.5 798.5,-841.5"/>
<text text-anchor="middle" x="824.5" y="-886.5" font-family="Helvetica,sans-Serif" font-size="10.00">_fomula</text>
<polyline fill="none" stroke="black" points="798.5,-879.5 850.5,-879.5 "/>
<text text-anchor="middle" x="824.5" y="-867.5" font-family="Helvetica,sans-Serif" font-size="10.00"> </text>
<polyline fill="none" stroke="black" points="798.5,-860.5 850.5,-860.5 "/>
<text text-anchor="middle" x="824.5" y="-848.5" font-family="Helvetica,sans-Serif" font-size="10.00"> </text>
</a>
</g>
</g>
<!-- Node7&#45;&gt;Node20 -->
<g id="edge24" class="edge">
<title>Node7&#45;&gt;Node20</title>
<path fill="none" stroke="#404040" d="M853.77,-990.43C849.42,-972.61 843.63,-948.93 838.5,-928 837.1,-922.3 835.63,-916.28 834.18,-910.37"/>
<polygon fill="none" stroke="#404040" points="834.13,-910.19 828.82,-905.32 831.27,-898.54 836.59,-903.41 834.13,-910.19"/>
<text text-anchor="middle" x="881" y="-953" font-family="Helvetica,sans-Serif" font-size="10.00"> +airFlowLevel</text>
<text text-anchor="middle" x="881" y="-942" font-family="Helvetica,sans-Serif" font-size="10.00">+rollInterval</text>
</g>
<!-- Node7&#45;&gt;Node22 -->
<g id="edge27" class="edge">
<title>Node7&#45;&gt;Node22</title>
<path fill="none" stroke="#404040" d="M831.93,-1005.18C817.09,-997.34 799.58,-986.11 787.5,-972 773.65,-955.82 777.82,-947.15 768.5,-928 765.54,-921.92 762.27,-915.56 758.99,-909.39"/>
<polygon fill="none" stroke="#404040" points="758.85,-909.13 752.48,-905.75 753.15,-898.57 759.52,-901.95 758.85,-909.13"/>
<text text-anchor="middle" x="811" y="-953" font-family="Helvetica,sans-Serif" font-size="10.00"> +endDate</text>
<text text-anchor="middle" x="811" y="-942" font-family="Helvetica,sans-Serif" font-size="10.00">+startDate</text>
</g>
<!-- Node8 -->
<g id="node8" class="node">
<title>Node8</title>
<g id="a_node8"><a xlink:href="class_session_time.html" target="_top" xlink:title=" ">
<polygon fill="none" stroke="black" points="219,-243 219,-410 314,-410 314,-243 219,-243"/>
<text text-anchor="middle" x="266.5" y="-398" font-family="Helvetica,sans-Serif" font-size="10.00">SessionTime</text>
<polyline fill="none" stroke="black" points="219,-391 314,-391 "/>
<text text-anchor="middle" x="266.5" y="-379" font-family="Helvetica,sans-Serif" font-size="10.00"> </text>
<polyline fill="none" stroke="black" points="219,-372 314,-372 "/>
<text text-anchor="start" x="227" y="-360" font-family="Helvetica,sans-Serif" font-size="10.00">+ SessionTime()</text>
<text text-anchor="start" x="227" y="-349" font-family="Helvetica,sans-Serif" font-size="10.00">+ ~SessionTime()</text>
<text text-anchor="start" x="227" y="-338" font-family="Helvetica,sans-Serif" font-size="10.00">+ init()</text>
<text text-anchor="start" x="227" y="-327" font-family="Helvetica,sans-Serif" font-size="10.00">+ deinit()</text>
<text text-anchor="start" x="227" y="-316" font-family="Helvetica,sans-Serif" font-size="10.00">+ getStart()</text>
<text text-anchor="start" x="227" y="-305" font-family="Helvetica,sans-Serif" font-size="10.00">+ setStart()</text>
<text text-anchor="start" x="227" y="-294" font-family="Helvetica,sans-Serif" font-size="10.00">+ getCurrent()</text>
<text text-anchor="start" x="227" y="-283" font-family="Helvetica,sans-Serif" font-size="10.00">+ getElapsed()</text>
<text text-anchor="start" x="227" y="-272" font-family="Helvetica,sans-Serif" font-size="10.00">+ daysPassed()</text>
<text text-anchor="start" x="227" y="-261" font-family="Helvetica,sans-Serif" font-size="10.00">&#45; _fileExist()</text>
<text text-anchor="start" x="227" y="-250" font-family="Helvetica,sans-Serif" font-size="10.00">&#45; _createFile()</text>
</a>
</g>
</g>
<!-- Node8&#45;&gt;Node1 -->
<g id="edge7" class="edge">
<title>Node8&#45;&gt;Node1</title>
<path fill="none" stroke="#404040" d="M287.27,-242.96C298.08,-214.55 314.11,-184.7 337.5,-164 406.15,-103.25 514.57,-83.48 580.26,-77.07"/>
<polygon fill="none" stroke="#404040" points="580.46,-77.05 586.08,-72.54 592.41,-75.99 586.79,-80.5 580.46,-77.05"/>
<text text-anchor="middle" x="360.5" y="-183.5" font-family="Helvetica,sans-Serif" font-size="10.00"> &#45;_pSTime</text>
</g>
<!-- Node9&#45;&gt;Node8 -->
<g id="edge8" class="edge">
<title>Node9&#45;&gt;Node8</title>
<path fill="none" stroke="midnightblue" d="M225.68,-544.41C232.9,-506.03 242.73,-453.8 250.94,-410.2"/>
<polygon fill="none" stroke="midnightblue" points="222.22,-543.88 223.81,-554.36 229.1,-545.18 222.22,-543.88"/>
</g>
<!-- Node10 -->
<g id="node10" class="node">
<title>Node10</title>
<g id="a_node10"><a xlink:title=" ">
<polygon fill="none" stroke="#bfbfbf" points="86.5,-571 86.5,-628 130.5,-628 130.5,-571 86.5,-571"/>
<text text-anchor="middle" x="108.5" y="-616" font-family="Helvetica,sans-Serif" font-size="10.00">time_t</text>
<polyline fill="none" stroke="#bfbfbf" points="86.5,-609 130.5,-609 "/>
<text text-anchor="middle" x="108.5" y="-597" font-family="Helvetica,sans-Serif" font-size="10.00"> </text>
<polyline fill="none" stroke="#bfbfbf" points="86.5,-590 130.5,-590 "/>
<text text-anchor="middle" x="108.5" y="-578" font-family="Helvetica,sans-Serif" font-size="10.00"> </text>
</a>
</g>
</g>
<!-- Node10&#45;&gt;Node8 -->
<g id="edge10" class="edge">
<title>Node10&#45;&gt;Node8</title>
<path fill="none" stroke="#404040" d="M123.02,-570.76C139.38,-539.8 167.02,-488.34 192.5,-445 198.79,-434.29 205.55,-423.13 212.34,-412.14"/>
<polygon fill="none" stroke="#404040" points="212.5,-411.86 212.27,-404.66 218.83,-401.67 219.07,-408.87 212.5,-411.86"/>
<text text-anchor="middle" x="208.5" y="-488" font-family="Helvetica,sans-Serif" font-size="10.00"> &#45;_start</text>
</g>
<!-- Node11 -->
<g id="node11" class="node">
<title>Node11</title>
<g id="a_node11"><a xlink:title=" ">
<polygon fill="none" stroke="#bfbfbf" points="300,-571 300,-628 335,-628 335,-571 300,-571"/>
<text text-anchor="middle" x="317.5" y="-616" font-family="Helvetica,sans-Serif" font-size="10.00">bool</text>
<polyline fill="none" stroke="#bfbfbf" points="300,-609 335,-609 "/>
<text text-anchor="middle" x="317.5" y="-597" font-family="Helvetica,sans-Serif" font-size="10.00"> </text>
<polyline fill="none" stroke="#bfbfbf" points="300,-590 335,-590 "/>
<text text-anchor="middle" x="317.5" y="-578" font-family="Helvetica,sans-Serif" font-size="10.00"> </text>
</a>
</g>
</g>
<!-- Node11&#45;&gt;Node1 -->
<g id="edge31" class="edge">
<title>Node11&#45;&gt;Node1</title>
<path fill="none" stroke="#404040" d="M332,-570.87C335.48,-565.09 339.39,-559.19 343.5,-554 350.73,-544.89 356.78,-546.13 362.5,-536 431.87,-413.18 353.73,-344.33 430.5,-226 467.64,-168.75 534.33,-125.5 581.77,-100.04"/>
<polygon fill="none" stroke="#404040" points="581.85,-100 585.31,-93.67 592.48,-94.42 589.03,-100.75 581.85,-100"/>
<text text-anchor="middle" x="457" y="-324" font-family="Helvetica,sans-Serif" font-size="10.00"> &#45;_initialized</text>
</g>
<!-- Node11&#45;&gt;Node8 -->
<g id="edge11" class="edge">
<title>Node11&#45;&gt;Node8</title>
<path fill="none" stroke="#404040" d="M312.28,-570.77C305.75,-536.04 294.21,-474.73 284.35,-422.35"/>
<polygon fill="none" stroke="#404040" points="284.3,-422.08 279.26,-416.93 282.08,-410.29 287.12,-415.45 284.3,-422.08"/>
<text text-anchor="middle" x="332" y="-488" font-family="Helvetica,sans-Serif" font-size="10.00"> &#45;_initialized</text>
</g>
<!-- Node12 -->
<g id="node12" class="node">
<title>Node12</title>
<g id="a_node12"><a xlink:href="class_signal.html" target="_top" xlink:title=" ">
<polygon fill="none" stroke="black" points="832.5,-265 832.5,-388 936.5,-388 936.5,-265 832.5,-265"/>
<text text-anchor="middle" x="884.5" y="-376" font-family="Helvetica,sans-Serif" font-size="10.00">Signal</text>
<polyline fill="none" stroke="black" points="832.5,-369 936.5,-369 "/>
<text text-anchor="middle" x="884.5" y="-357" font-family="Helvetica,sans-Serif" font-size="10.00"> </text>
<polyline fill="none" stroke="black" points="832.5,-350 936.5,-350 "/>
<text text-anchor="start" x="840.5" y="-338" font-family="Helvetica,sans-Serif" font-size="10.00">+ Signal()</text>
<text text-anchor="start" x="840.5" y="-327" font-family="Helvetica,sans-Serif" font-size="10.00">+ ~Signal()</text>
<text text-anchor="start" x="840.5" y="-316" font-family="Helvetica,sans-Serif" font-size="10.00">+ signalHandler()</text>
<text text-anchor="start" x="840.5" y="-305" font-family="Helvetica,sans-Serif" font-size="10.00">+ isSignaledTerm()</text>
<text text-anchor="start" x="840.5" y="-294" font-family="Helvetica,sans-Serif" font-size="10.00">+ isSignaledUsr1()</text>
<text text-anchor="start" x="840.5" y="-283" font-family="Helvetica,sans-Serif" font-size="10.00">+ resetSignalTerm()</text>
<text text-anchor="start" x="840.5" y="-272" font-family="Helvetica,sans-Serif" font-size="10.00">+ resetSignalUsr1()</text>
</a>
</g>
</g>
<!-- Node12&#45;&gt;Node1 -->
<g id="edge12" class="edge">
<title>Node12&#45;&gt;Node1</title>
<path fill="none" stroke="#404040" d="M880.52,-264.72C875.5,-231.62 864.48,-191.86 840.5,-164 802.48,-119.83 738.63,-96.49 692.48,-84.75"/>
<polygon fill="none" stroke="#404040" points="692.22,-84.69 685.45,-87.17 680.56,-81.87 687.33,-79.39 692.22,-84.69"/>
<text text-anchor="middle" x="880.5" y="-183.5" font-family="Helvetica,sans-Serif" font-size="10.00"> &#45;_pSig</text>
</g>
<!-- Node13 -->
<g id="node13" class="node">
<title>Node13</title>
<g id="a_node13"><a xlink:title=" ">
<polygon fill="none" stroke="#bfbfbf" points="801,-565.5 801,-633.5 890,-633.5 890,-565.5 801,-565.5"/>
<text text-anchor="start" x="809" y="-621.5" font-family="Helvetica,sans-Serif" font-size="10.00">static volatile sig</text>
<text text-anchor="middle" x="845.5" y="-610.5" font-family="Helvetica,sans-Serif" font-size="10.00">_atomic_t</text>
<polyline fill="none" stroke="#bfbfbf" points="801,-603.5 890,-603.5 "/>
<text text-anchor="middle" x="845.5" y="-591.5" font-family="Helvetica,sans-Serif" font-size="10.00"> </text>
<polyline fill="none" stroke="#bfbfbf" points="801,-584.5 890,-584.5 "/>
<text text-anchor="middle" x="845.5" y="-572.5" font-family="Helvetica,sans-Serif" font-size="10.00"> </text>
</a>
</g>
</g>
<!-- Node13&#45;&gt;Node12 -->
<g id="edge13" class="edge">
<title>Node13&#45;&gt;Node12</title>
<path fill="none" stroke="#404040" d="M844.92,-565.35C844.86,-534.12 846.05,-486.11 852.5,-445 854.82,-430.25 858.29,-414.7 862.11,-399.9"/>
<polygon fill="none" stroke="#404040" points="862.13,-399.83 859.81,-393 865.22,-388.23 867.54,-395.06 862.13,-399.83"/>
<text text-anchor="middle" x="890" y="-493.5" font-family="Helvetica,sans-Serif" font-size="10.00"> +atomicSigTerm</text>
<text text-anchor="middle" x="890" y="-482.5" font-family="Helvetica,sans-Serif" font-size="10.00">+atomicSigUsr1</text>
</g>
<!-- Node14 -->
<g id="node14" class="node">
<title>Node14</title>
<g id="a_node14"><a xlink:title=" ">
<polygon fill="none" stroke="#bfbfbf" points="908.5,-571 908.5,-628 990.5,-628 990.5,-571 908.5,-571"/>
<text text-anchor="middle" x="949.5" y="-616" font-family="Helvetica,sans-Serif" font-size="10.00">atomic&lt; bool &gt;</text>
<polyline fill="none" stroke="#bfbfbf" points="908.5,-609 990.5,-609 "/>
<text text-anchor="middle" x="949.5" y="-597" font-family="Helvetica,sans-Serif" font-size="10.00"> </text>
<polyline fill="none" stroke="#bfbfbf" points="908.5,-590 990.5,-590 "/>
<text text-anchor="middle" x="949.5" y="-578" font-family="Helvetica,sans-Serif" font-size="10.00"> </text>
</a>
</g>
</g>
<!-- Node14&#45;&gt;Node12 -->
<g id="edge14" class="edge">
<title>Node14&#45;&gt;Node12</title>
<path fill="none" stroke="#404040" d="M947.3,-570.99C944.42,-540.01 938.41,-488.34 927.5,-445 923.76,-430.12 918.8,-414.51 913.6,-399.71"/>
<polygon fill="none" stroke="#404040" points="913.46,-399.32 907.66,-395.03 909.39,-388.03 915.18,-392.32 913.46,-399.32"/>
<text text-anchor="middle" x="983" y="-493.5" font-family="Helvetica,sans-Serif" font-size="10.00"> +atomicSigTerm_</text>
<text text-anchor="middle" x="983" y="-482.5" font-family="Helvetica,sans-Serif" font-size="10.00">+atomicSigUsr1_</text>
</g>
<!-- Node15 -->
<g id="node15" class="node">
<title>Node15</title>
<g id="a_node15"><a xlink:href="struct_sensor.html" target="_top" xlink:title=" ">
<polygon fill="none" stroke="black" points="955,-276 955,-377 1030,-377 1030,-276 955,-276"/>
<text text-anchor="middle" x="992.5" y="-365" font-family="Helvetica,sans-Serif" font-size="10.00">Sensor</text>
<polyline fill="none" stroke="black" points="955,-358 1030,-358 "/>
<text text-anchor="middle" x="992.5" y="-346" font-family="Helvetica,sans-Serif" font-size="10.00"> </text>
<polyline fill="none" stroke="black" points="955,-339 1030,-339 "/>
<text text-anchor="start" x="963" y="-327" font-family="Helvetica,sans-Serif" font-size="10.00">+ ~Sensor()</text>
<text text-anchor="start" x="963" y="-316" font-family="Helvetica,sans-Serif" font-size="10.00">+ init()</text>
<text text-anchor="start" x="963" y="-305" font-family="Helvetica,sans-Serif" font-size="10.00">+ deinit()</text>
<text text-anchor="start" x="963" y="-294" font-family="Helvetica,sans-Serif" font-size="10.00">+ get()</text>
<text text-anchor="start" x="963" y="-283" font-family="Helvetica,sans-Serif" font-size="10.00">+ getCache()</text>
</a>
</g>
</g>
<!-- Node15&#45;&gt;Node1 -->
<g id="edge15" class="edge">
<title>Node15&#45;&gt;Node1</title>
<path fill="none" stroke="#404040" d="M976.55,-275.66C962.32,-239.24 937.89,-191.59 900.5,-164 837.7,-117.66 749.33,-93.99 692.48,-82.82"/>
<polygon fill="none" stroke="#404040" points="692.29,-82.79 685.66,-85.6 680.5,-80.56 687.14,-77.74 692.29,-82.79"/>
<text text-anchor="middle" x="979.5" y="-189" font-family="Helvetica,sans-Serif" font-size="10.00"> &#45;_pHumidSensor</text>
<text text-anchor="middle" x="979.5" y="-178" font-family="Helvetica,sans-Serif" font-size="10.00">&#45;_pTempSensor</text>
</g>
<!-- Node16&#45;&gt;Node1 -->
<g id="edge16" class="edge">
<title>Node16&#45;&gt;Node1</title>
<path fill="none" stroke="#404040" d="M568.69,-226.44C573.78,-205.5 580.01,-183.77 587.5,-164 588.4,-161.63 589.35,-159.24 590.34,-156.85"/>
<polygon fill="none" stroke="#404040" points="590.44,-156.62 589.2,-149.52 595.27,-145.64 596.52,-152.74 590.44,-156.62"/>
<text text-anchor="middle" x="605" y="-183.5" font-family="Helvetica,sans-Serif" font-size="10.00"> &#45;_pEnv</text>
</g>
<!-- Node17&#45;&gt;Node16 -->
<g id="edge17" class="edge">
<title>Node17&#45;&gt;Node16</title>
<path fill="none" stroke="midnightblue" d="M416.73,-544.82C427.43,-514.57 442.56,-476.62 460.5,-445 469.88,-428.46 481.36,-411.66 492.94,-396.14"/>
<polygon fill="none" stroke="midnightblue" points="413.39,-543.76 413.41,-554.36 420,-546.06 413.39,-543.76"/>
</g>
<!-- Node18&#45;&gt;Node16 -->
<g id="edge19" class="edge">
<title>Node18&#45;&gt;Node16</title>
<path fill="none" stroke="#404040" d="M699.52,-570.77C679.49,-538.08 645.05,-481.85 614.31,-431.68"/>
<polygon fill="none" stroke="#404040" points="614.29,-431.64 607.74,-428.61 608.02,-421.4 614.57,-424.43 614.29,-431.64"/>
<text text-anchor="middle" x="695" y="-488" font-family="Helvetica,sans-Serif" font-size="10.00"> &#45;_config</text>
</g>
<!-- Node19 -->
<g id="node19" class="node">
<title>Node19</title>
<g id="a_node19"><a xlink:href="struct__phase.html" target="_top" xlink:title=" ">
<polygon fill="none" stroke="black" points="713,-709 713,-766 762,-766 762,-709 713,-709"/>
<text text-anchor="middle" x="737.5" y="-754" font-family="Helvetica,sans-Serif" font-size="10.00">_phase</text>
<polyline fill="none" stroke="black" points="713,-747 762,-747 "/>
<text text-anchor="middle" x="737.5" y="-735" font-family="Helvetica,sans-Serif" font-size="10.00"> </text>
<polyline fill="none" stroke="black" points="713,-728 762,-728 "/>
<text text-anchor="middle" x="737.5" y="-716" font-family="Helvetica,sans-Serif" font-size="10.00"> </text>
</a>
</g>
</g>
<!-- Node19&#45;&gt;Node18 -->
<g id="edge21" class="edge">
<title>Node19&#45;&gt;Node18</title>
<path fill="none" stroke="#404040" d="M733.25,-708.98C730.21,-689.29 726.07,-662.49 722.67,-640.45"/>
<polygon fill="none" stroke="#404040" points="722.65,-640.31 717.78,-634.99 720.82,-628.45 725.68,-633.77 722.65,-640.31"/>
<text text-anchor="middle" x="748" y="-666" font-family="Helvetica,sans-Serif" font-size="10.00"> +phases</text>
</g>
<!-- Node20&#45;&gt;Node19 -->
<g id="edge22" class="edge">
<title>Node20&#45;&gt;Node19</title>
<path fill="none" stroke="#404040" d="M807.44,-841.34C799.67,-828.91 790.26,-814.13 781.5,-801 776.11,-792.93 770.21,-784.37 764.53,-776.26"/>
<polygon fill="none" stroke="#404040" points="764.42,-776.11 757.7,-773.51 757.51,-766.3 764.24,-768.9 764.42,-776.11"/>
<text text-anchor="middle" x="804" y="-804" font-family="Helvetica,sans-Serif" font-size="10.00"> +body</text>
</g>
<!-- Node21 -->
<g id="node21" class="node">
<title>Node21</title>
<g id="a_node21"><a xlink:title=" ">
<polygon fill="none" stroke="#bfbfbf" points="594,-990.5 594,-1047.5 629,-1047.5 629,-990.5 594,-990.5"/>
<text text-anchor="middle" x="611.5" y="-1035.5" font-family="Helvetica,sans-Serif" font-size="10.00">float</text>
<polyline fill="none" stroke="#bfbfbf" points="594,-1028.5 629,-1028.5 "/>
<text text-anchor="middle" x="611.5" y="-1016.5" font-family="Helvetica,sans-Serif" font-size="10.00"> </text>
<polyline fill="none" stroke="#bfbfbf" points="594,-1009.5 629,-1009.5 "/>
<text text-anchor="middle" x="611.5" y="-997.5" font-family="Helvetica,sans-Serif" font-size="10.00"> </text>
</a>
</g>
</g>
<!-- Node21&#45;&gt;Node20 -->
<g id="edge23" class="edge">
<title>Node21&#45;&gt;Node20</title>
<path fill="none" stroke="#404040" d="M603.01,-990.1C598.86,-970.28 597.53,-944.38 612.5,-928 639.17,-898.81 754.26,-927.92 789.5,-910 791.4,-909.04 793.24,-907.92 795.02,-906.7"/>
<polygon fill="none" stroke="#404040" points="795.35,-906.41 797.35,-899.49 804.52,-898.67 802.52,-905.6 795.35,-906.41"/>
<text text-anchor="middle" x="656" y="-964" font-family="Helvetica,sans-Serif" font-size="10.00"> +humidHigherLimit</text>
<text text-anchor="middle" x="656" y="-953" font-family="Helvetica,sans-Serif" font-size="10.00">+humidLowerLimit</text>
<text text-anchor="middle" x="656" y="-942" font-family="Helvetica,sans-Serif" font-size="10.00">+tempHigherLimit</text>
<text text-anchor="middle" x="656" y="-931" font-family="Helvetica,sans-Serif" font-size="10.00">+tempLowerLimit</text>
</g>
<!-- Node22&#45;&gt;Node19 -->
<g id="edge25" class="edge">
<title>Node22&#45;&gt;Node19</title>
<path fill="none" stroke="#404040" d="M737.5,-841.32C737.5,-822.98 737.5,-798.64 737.5,-778.24"/>
<polygon fill="none" stroke="#404040" points="737.5,-778.14 733.5,-772.14 737.5,-766.14 741.5,-772.14 737.5,-778.14"/>
<text text-anchor="middle" x="757.5" y="-804" font-family="Helvetica,sans-Serif" font-size="10.00"> +header</text>
</g>
<!-- Node23 -->
<g id="node23" class="node">
<title>Node23</title>
<g id="a_node23"><a xlink:title=" ">
<polygon fill="none" stroke="#bfbfbf" points="503,-571 503,-628 600,-628 600,-571 503,-571"/>
<text text-anchor="middle" x="551.5" y="-616" font-family="Helvetica,sans-Serif" font-size="10.00">vector&lt; _fomula &gt;</text>
<polyline fill="none" stroke="#bfbfbf" points="503,-609 600,-609 "/>
<text text-anchor="middle" x="551.5" y="-597" font-family="Helvetica,sans-Serif" font-size="10.00"> </text>
<polyline fill="none" stroke="#bfbfbf" points="503,-590 600,-590 "/>
<text text-anchor="middle" x="551.5" y="-578" font-family="Helvetica,sans-Serif" font-size="10.00"> </text>
</a>
</g>
</g>
<!-- Node23&#45;&gt;Node16 -->
<g id="edge29" class="edge">
<title>Node23&#45;&gt;Node16</title>
<path fill="none" stroke="#404040" d="M551.4,-570.77C551.28,-539.62 551.09,-487.08 550.91,-438.78"/>
<polygon fill="none" stroke="#404040" points="550.91,-438.61 546.89,-432.62 550.87,-426.61 554.89,-432.6 550.91,-438.61"/>
<text text-anchor="middle" x="577" y="-488" font-family="Helvetica,sans-Serif" font-size="10.00"> &#45;_formulas</text>
</g>
</g>
</svg>
        <g id="navigator" transform="translate(0 0)" fill="#404254">
                <rect fill="#f2f5e9" fill-opacity="0.5" stroke="#606060" stroke-width=".5" x="0" y="0" width="60" height="60"/>
                <use id="zoomplus" xlink:href="#zoomPlus" x="17" y="9" onmousedown="handleZoom(evt,'in')"/>
                <use id="zoomminus" xlink:href="#zoomMin" x="42" y="9" onmousedown="handleZoom(evt,'out')"/>
                <use id="reset" xlink:href="#resetDef" x="30" y="36" onmousedown="handleReset()"/>
                <g id="arrowUp" xlink:href="#dirArrow" transform="translate(30 24)" onmousedown="handlePan(0,-1)">
                  <use xlink:href="#rim" fill="#404040">
                        <set attributeName="fill" to="#808080" begin="arrowUp.mouseover" end="arrowUp.mouseout"/>
                  </use>
                  <path fill="none" stroke="white" stroke-width="1.5" d="M0,-3.0v7 M-2.5,-0.5L0,-3.0L2.5,-0.5"/>
                </g>
                <g id="arrowRight" xlink:href="#dirArrow" transform="rotate(90) translate(36 -43)" onmousedown="handlePan(1,0)">
                  <use xlink:href="#rim" fill="#404040">
                        <set attributeName="fill" to="#808080" begin="arrowRight.mouseover" end="arrowRight.mouseout"/>
                  </use>
                  <path fill="none" stroke="white" stroke-width="1.5" d="M0,-3.0v7 M-2.5,-0.5L0,-3.0L2.5,-0.5"/>
                </g>
                <g id="arrowDown" xlink:href="#dirArrow" transform="rotate(180) translate(-30 -48)" onmousedown="handlePan(0,1)">
                  <use xlink:href="#rim" fill="#404040">
                        <set attributeName="fill" to="#808080" begin="arrowDown.mouseover" end="arrowDown.mouseout"/>
                  </use>
                  <path fill="none" stroke="white" stroke-width="1.5" d="M0,-3.0v7 M-2.5,-0.5L0,-3.0L2.5,-0.5"/>
                </g>
                <g id="arrowLeft" xlink:href="#dirArrow" transform="rotate(270) translate(-36 17)" onmousedown="handlePan(-1,0)">
                  <use xlink:href="#rim" fill="#404040">
                        <set attributeName="fill" to="#808080" begin="arrowLeft.mouseover" end="arrowLeft.mouseout"/>
                  </use>
                  <path fill="none" stroke="white" stroke-width="1.5" d="M0,-3.0v7 M-2.5,-0.5L0,-3.0L2.5,-0.5"/>
                </g>
        </g>
        <svg viewBox="0 0 15 15" width="100%" height="30px" preserveAspectRatio="xMaxYMin meet">
         <g id="arrow_out" transform="scale(0.3 0.3)">
          <a xlink:href="class_incubator__coll__graph_org.svg" target="_base">
           <rect id="button" ry="5" rx="5" y="6" x="6" height="38" width="38"
                fill="#f2f5e9" fill-opacity="0.5" stroke="#606060" stroke-width="1.0"/>
           <path id="arrow"
             d="M 11.500037,31.436501 C 11.940474,20.09759 22.043105,11.32322 32.158766,21.979434 L 37.068811,17.246167 C 37.068811,17.246167 37.088388,32 37.088388,32 L 22.160133,31.978069 C 22.160133,31.978069 26.997745,27.140456 26.997745,27.140456 C 18.528582,18.264221 13.291696,25.230495 11.500037,31.436501 z"
             style="fill:#404040;"/>
          </a>
         </g>
        </svg>
</svg>
