<?xml version="1.0" encoding="UTF-8" standalone="no"?>
<!DOCTYPE svg PUBLIC "-//W3C//DTD SVG 1.1//EN"
 "http://www.w3.org/Graphics/SVG/1.1/DTD/svg11.dtd">
<!-- Generated by graphviz version 2.48.0 (20210717.1556)
 -->
<!-- Title: Graphical Class Hierarchy Pages: 1 -->
<svg width="192pt" height="142pt"
 viewBox="0.00 0.00 192.00 142.00" xmlns="http://www.w3.org/2000/svg" xmlns:xlink="http://www.w3.org/1999/xlink">
<g id="graph0" class="graph" transform="scale(1 1) rotate(0) translate(4 138)">
<title>Graphical Class Hierarchy</title>
<!-- Node0 -->
<g id="node1" class="node">
<title>Node0</title>
<g id="a_node1"><a xlink:href="struct_actuator.html" target="_top" xlink:title=" ">
<polygon fill="none" stroke="black" points="0,-57.5 0,-76.5 54,-76.5 54,-57.5 0,-57.5"/>
<text text-anchor="middle" x="27" y="-64.5" font-family="Helvetica,sans-Serif" font-size="10.00">Actuator</text>
</a>
</g>
</g>
<!-- Node1 -->
<g id="node2" class="node">
<title>Node1</title>
<g id="a_node2"><a xlink:href="class_air_flow_actuator.html" target="_top" xlink:title=" ">
<polygon fill="none" stroke="black" points="93.5,-114.5 93.5,-133.5 180.5,-133.5 180.5,-114.5 93.5,-114.5"/>
<text text-anchor="middle" x="137" y="-121.5" font-family="Helvetica,sans-Serif" font-size="10.00">AirFlowActuator</text>
</a>
</g>
</g>
<!-- Node0&#45;&gt;Node1 -->
<g id="edge1" class="edge">
<title>Node0&#45;&gt;Node1</title>
<path fill="none" stroke="midnightblue" d="M50.95,-82.26C62.43,-89.59 76.68,-98.22 90,-105 96.62,-108.37 103.99,-111.62 110.85,-114.45"/>
<polygon fill="midnightblue" stroke="midnightblue" points="52.7,-79.23 42.41,-76.73 48.9,-85.11 52.7,-79.23"/>
</g>
<!-- Node2 -->
<g id="node3" class="node">
<title>Node2</title>
<g id="a_node3"><a xlink:href="class_dehumid_actuator.html" target="_top" xlink:title=" ">
<polygon fill="none" stroke="black" points="90,-76.5 90,-95.5 184,-95.5 184,-76.5 90,-76.5"/>
<text text-anchor="middle" x="137" y="-83.5" font-family="Helvetica,sans-Serif" font-size="10.00">DehumidActuator</text>
</a>
</g>
</g>
<!-- Node0&#45;&gt;Node2 -->
<g id="edge2" class="edge">
<title>Node0&#45;&gt;Node2</title>
<path fill="none" stroke="midnightblue" d="M64.17,-73.36C72.41,-74.81 81.27,-76.37 89.86,-77.88"/>
<polygon fill="midnightblue" stroke="midnightblue" points="64.6,-69.89 54.14,-71.6 63.39,-76.78 64.6,-69.89"/>
</g>
<!-- Node3 -->
<g id="node4" class="node">
<title>Node3</title>
<g id="a_node4"><a xlink:href="class_heat_actuator.html" target="_top" xlink:title=" ">
<polygon fill="none" stroke="black" points="99.5,-38.5 99.5,-57.5 174.5,-57.5 174.5,-38.5 99.5,-38.5"/>
<text text-anchor="middle" x="137" y="-45.5" font-family="Helvetica,sans-Serif" font-size="10.00">HeatActuator</text>
</a>
</g>
</g>
<!-- Node0&#45;&gt;Node3 -->
<g id="edge3" class="edge">
<title>Node0&#45;&gt;Node3</title>
<path fill="none" stroke="midnightblue" d="M64.18,-60.63C75.55,-58.64 88.1,-56.43 99.49,-54.42"/>
<polygon fill="midnightblue" stroke="midnightblue" points="63.39,-57.22 54.14,-62.4 64.6,-64.11 63.39,-57.22"/>
</g>
<!-- Node4 -->
<g id="node5" class="node">
<title>Node4</title>
<g id="a_node5"><a xlink:href="class_roller_actuator.html" target="_top" xlink:title=" ">
<polygon fill="none" stroke="black" points="97,-0.5 97,-19.5 177,-19.5 177,-0.5 97,-0.5"/>
<text text-anchor="middle" x="137" y="-7.5" font-family="Helvetica,sans-Serif" font-size="10.00">RollerActuator</text>
</a>
</g>
</g>
<!-- Node0&#45;&gt;Node4 -->
<g id="edge4" class="edge">
<title>Node0&#45;&gt;Node4</title>
<path fill="none" stroke="midnightblue" d="M50.95,-51.74C62.43,-44.41 76.68,-35.78 90,-29 96.62,-25.63 103.99,-22.38 110.85,-19.55"/>
<polygon fill="midnightblue" stroke="midnightblue" points="48.9,-48.89 42.41,-57.27 52.7,-54.77 48.9,-48.89"/>
</g>
</g>
</svg>
