<?xml version="1.0" encoding="UTF-8" standalone="no"?>
<!DOCTYPE svg PUBLIC "-//W3C//DTD SVG 1.1//EN"
 "http://www.w3.org/Graphics/SVG/1.1/DTD/svg11.dtd">
<!-- Generated by graphviz version 2.50.0 (20211204.2007)
 -->
<!-- Title: Graphical Class Hierarchy Pages: 1 -->
<svg width="192pt" height="218pt"
 viewBox="0.00 0.00 192.00 218.00" xmlns="http://www.w3.org/2000/svg" xmlns:xlink="http://www.w3.org/1999/xlink">
<g id="graph0" class="graph" transform="scale(1 1) rotate(0) translate(4 214)">
<title>Graphical Class Hierarchy</title>
<!-- Node0 -->
<g id="node1" class="node">
<title>Node0</title>
<g id="a_node1"><a xlink:href="struct_actuator.html" target="_top" xlink:title=" ">
<polygon fill="none" stroke="black" points="0,-95.5 0,-114.5 53,-114.5 53,-95.5 0,-95.5"/>
<text text-anchor="middle" x="26.5" y="-102.5" font-family="Helvetica,sans-Serif" font-size="10.00">Actuator</text>
</a>
</g>
</g>
<!-- Node1 -->
<g id="node2" class="node">
<title>Node1</title>
<g id="a_node2"><a xlink:href="class_air_flow_actuator.html" target="_top" xlink:title=" ">
<polygon fill="none" stroke="black" points="93.5,-190.5 93.5,-209.5 179.5,-209.5 179.5,-190.5 93.5,-190.5"/>
<text text-anchor="middle" x="136.5" y="-197.5" font-family="Helvetica,sans-Serif" font-size="10.00">AirFlowActuator</text>
</a>
</g>
</g>
<!-- Node0&#45;&gt;Node1 -->
<g id="edge1" class="edge">
<title>Node0&#45;&gt;Node1</title>
<path fill="none" stroke="midnightblue" d="M38.7,-123.67C49.68,-140.6 67.82,-165.26 89,-181 94.04,-184.75 99.92,-187.89 105.78,-190.47"/>
<polygon fill="midnightblue" stroke="midnightblue" points="41.37,-121.33 33.1,-114.72 35.44,-125.05 41.37,-121.33"/>
</g>
<!-- Node2 -->
<g id="node3" class="node">
<title>Node2</title>
<g id="a_node3"><a xlink:href="class_dehumid_actuator.html" target="_top" xlink:title=" ">
<polygon fill="none" stroke="black" points="90.5,-152.5 90.5,-171.5 182.5,-171.5 182.5,-152.5 90.5,-152.5"/>
<text text-anchor="middle" x="136.5" y="-159.5" font-family="Helvetica,sans-Serif" font-size="10.00">DehumidActuator</text>
</a>
</g>
</g>
<!-- Node0&#45;&gt;Node2 -->
<g id="edge2" class="edge">
<title>Node0&#45;&gt;Node2</title>
<path fill="none" stroke="midnightblue" d="M50.24,-120.3C61.62,-127.63 75.76,-136.26 89,-143 95.68,-146.4 103.13,-149.66 110.06,-152.49"/>
<polygon fill="midnightblue" stroke="midnightblue" points="52.05,-117.31 41.77,-114.76 48.22,-123.16 52.05,-117.31"/>
</g>
<!-- Node3 -->
<g id="node4" class="node">
<title>Node3</title>
<g id="a_node4"><a xlink:href="class_heat_actuator.html" target="_top" xlink:title=" ">
<polygon fill="none" stroke="black" points="99.5,-114.5 99.5,-133.5 173.5,-133.5 173.5,-114.5 99.5,-114.5"/>
<text text-anchor="middle" x="136.5" y="-121.5" font-family="Helvetica,sans-Serif" font-size="10.00">HeatActuator</text>
</a>
</g>
</g>
<!-- Node0&#45;&gt;Node3 -->
<g id="edge3" class="edge">
<title>Node0&#45;&gt;Node3</title>
<path fill="none" stroke="midnightblue" d="M62.98,-111.24C74.69,-113.3 87.72,-115.59 99.46,-117.66"/>
<polygon fill="midnightblue" stroke="midnightblue" points="63.55,-107.79 53.09,-109.5 62.34,-114.68 63.55,-107.79"/>
</g>
<!-- Node4 -->
<g id="node5" class="node">
<title>Node4</title>
<g id="a_node5"><a xlink:href="class_heat_flow_actuator.html" target="_top" xlink:title=" ">
<polygon fill="none" stroke="black" points="89,-76.5 89,-95.5 184,-95.5 184,-76.5 89,-76.5"/>
<text text-anchor="middle" x="136.5" y="-83.5" font-family="Helvetica,sans-Serif" font-size="10.00">HeatFlowActuator</text>
</a>
</g>
</g>
<!-- Node0&#45;&gt;Node4 -->
<g id="edge4" class="edge">
<title>Node0&#45;&gt;Node4</title>
<path fill="none" stroke="midnightblue" d="M63.13,-98.73C71.39,-97.28 80.29,-95.71 88.94,-94.19"/>
<polygon fill="midnightblue" stroke="midnightblue" points="62.34,-95.32 53.09,-100.5 63.55,-102.21 62.34,-95.32"/>
</g>
<!-- Node5 -->
<g id="node6" class="node">
<title>Node5</title>
<g id="a_node6"><a xlink:href="class_humid_actuator.html" target="_top" xlink:title=" ">
<polygon fill="none" stroke="black" points="95.5,-38.5 95.5,-57.5 177.5,-57.5 177.5,-38.5 95.5,-38.5"/>
<text text-anchor="middle" x="136.5" y="-45.5" font-family="Helvetica,sans-Serif" font-size="10.00">HumidActuator</text>
</a>
</g>
</g>
<!-- Node0&#45;&gt;Node5 -->
<g id="edge5" class="edge">
<title>Node0&#45;&gt;Node5</title>
<path fill="none" stroke="midnightblue" d="M50.24,-89.7C61.62,-82.37 75.76,-73.74 89,-67 95.68,-63.6 103.13,-60.34 110.06,-57.51"/>
<polygon fill="midnightblue" stroke="midnightblue" points="48.22,-86.84 41.77,-95.24 52.05,-92.69 48.22,-86.84"/>
</g>
<!-- Node6 -->
<g id="node7" class="node">
<title>Node6</title>
<g id="a_node7"><a xlink:href="class_roller_actuator.html" target="_top" xlink:title=" ">
<polygon fill="none" stroke="black" points="97,-0.5 97,-19.5 176,-19.5 176,-0.5 97,-0.5"/>
<text text-anchor="middle" x="136.5" y="-7.5" font-family="Helvetica,sans-Serif" font-size="10.00">RollerActuator</text>
</a>
</g>
</g>
<!-- Node0&#45;&gt;Node6 -->
<g id="edge6" class="edge">
<title>Node0&#45;&gt;Node6</title>
<path fill="none" stroke="midnightblue" d="M38.7,-86.33C49.68,-69.4 67.82,-44.74 89,-29 94.04,-25.25 99.92,-22.11 105.78,-19.53"/>
<polygon fill="midnightblue" stroke="midnightblue" points="35.44,-84.95 33.1,-95.28 41.37,-88.67 35.44,-84.95"/>
</g>
</g>
</svg>
