<?xml version="1.0" encoding="UTF-8" standalone="no"?>
<!DOCTYPE svg PUBLIC "-//W3C//DTD SVG 1.1//EN"
 "http://www.w3.org/Graphics/SVG/1.1/DTD/svg11.dtd">
<!-- Generated by graphviz version 2.50.0 (20211204.2007)
 -->
<!-- Title: _phase Pages: 1 -->
<svg width="320pt" height="309pt"
 viewBox="0.00 0.00 319.50 309.00" xmlns="http://www.w3.org/2000/svg" xmlns:xlink="http://www.w3.org/1999/xlink">
<g id="graph0" class="graph" transform="scale(1 1) rotate(0) translate(4 305)">
<title>_phase</title>
<!-- Node1 -->
<g id="node1" class="node">
<title>Node1</title>
<g id="a_node1"><a xlink:title=" ">
<polygon fill="#bfbfbf" stroke="black" points="87.5,-0.5 87.5,-57.5 135.5,-57.5 135.5,-0.5 87.5,-0.5"/>
<text text-anchor="middle" x="111.5" y="-45.5" font-family="Helvetica,sans-Serif" font-size="10.00">_phase</text>
<polyline fill="none" stroke="black" points="87.5,-38.5 135.5,-38.5 "/>
<text text-anchor="middle" x="111.5" y="-26.5" font-family="Helvetica,sans-Serif" font-size="10.00"> </text>
<polyline fill="none" stroke="black" points="87.5,-19.5 135.5,-19.5 "/>
<text text-anchor="middle" x="111.5" y="-7.5" font-family="Helvetica,sans-Serif" font-size="10.00"> </text>
</a>
</g>
</g>
<!-- Node2 -->
<g id="node2" class="node">
<title>Node2</title>
<g id="a_node2"><a xlink:href="struct__phase__header.html" target="_top" xlink:title=" ">
<polygon fill="none" stroke="black" points="28,-105.5 28,-162.5 111,-162.5 111,-105.5 28,-105.5"/>
<text text-anchor="middle" x="69.5" y="-150.5" font-family="Helvetica,sans-Serif" font-size="10.00">_phase_header</text>
<polyline fill="none" stroke="black" points="28,-143.5 111,-143.5 "/>
<text text-anchor="middle" x="69.5" y="-131.5" font-family="Helvetica,sans-Serif" font-size="10.00"> </text>
<polyline fill="none" stroke="black" points="28,-124.5 111,-124.5 "/>
<text text-anchor="middle" x="69.5" y="-112.5" font-family="Helvetica,sans-Serif" font-size="10.00"> </text>
</a>
</g>
</g>
<!-- Node2&#45;&gt;Node1 -->
<g id="edge1" class="edge">
<title>Node2&#45;&gt;Node1</title>
<path fill="none" stroke="#404040" d="M77.15,-105.4C80.05,-95.95 83.6,-85.39 87.5,-76 88.47,-73.66 89.52,-71.28 90.61,-68.89"/>
<polygon fill="none" stroke="#404040" points="90.74,-68.64 89.76,-61.5 95.98,-57.85 96.96,-64.99 90.74,-68.64"/>
<text text-anchor="middle" x="107" y="-79" font-family="Helvetica,sans-Serif" font-size="10.00"> +header</text>
</g>
<!-- Node3 -->
<g id="node3" class="node">
<title>Node3</title>
<g id="a_node3"><a xlink:title=" ">
<polygon fill="none" stroke="#bfbfbf" points="0,-243.5 0,-300.5 41,-300.5 41,-243.5 0,-243.5"/>
<text text-anchor="middle" x="20.5" y="-288.5" font-family="Helvetica,sans-Serif" font-size="10.00">string</text>
<polyline fill="none" stroke="#bfbfbf" points="0,-281.5 41,-281.5 "/>
<text text-anchor="middle" x="20.5" y="-269.5" font-family="Helvetica,sans-Serif" font-size="10.00"> </text>
<polyline fill="none" stroke="#bfbfbf" points="0,-262.5 41,-262.5 "/>
<text text-anchor="middle" x="20.5" y="-250.5" font-family="Helvetica,sans-Serif" font-size="10.00"> </text>
</a>
</g>
</g>
<!-- Node3&#45;&gt;Node2 -->
<g id="edge2" class="edge">
<title>Node3&#45;&gt;Node2</title>
<path fill="none" stroke="#404040" d="M20.37,-243.2C21.19,-224.87 24.05,-200.7 32.5,-181 33.7,-178.2 35.12,-175.43 36.7,-172.71"/>
<polygon fill="none" stroke="#404040" points="36.76,-172.63 36.74,-165.41 43.39,-162.62 43.41,-169.83 36.76,-172.63"/>
<text text-anchor="middle" x="49.5" y="-200.5" font-family="Helvetica,sans-Serif" font-size="10.00"> +name</text>
</g>
<!-- Node4 -->
<g id="node4" class="node">
<title>Node4</title>
<g id="a_node4"><a xlink:title=" ">
<polygon fill="none" stroke="#bfbfbf" points="89.5,-243.5 89.5,-300.5 145.5,-300.5 145.5,-243.5 89.5,-243.5"/>
<text text-anchor="middle" x="117.5" y="-288.5" font-family="Helvetica,sans-Serif" font-size="10.00">unsigned</text>
<polyline fill="none" stroke="#bfbfbf" points="89.5,-281.5 145.5,-281.5 "/>
<text text-anchor="middle" x="117.5" y="-269.5" font-family="Helvetica,sans-Serif" font-size="10.00"> </text>
<polyline fill="none" stroke="#bfbfbf" points="89.5,-262.5 145.5,-262.5 "/>
<text text-anchor="middle" x="117.5" y="-250.5" font-family="Helvetica,sans-Serif" font-size="10.00"> </text>
</a>
</g>
</g>
<!-- Node4&#45;&gt;Node2 -->
<g id="edge3" class="edge">
<title>Node4&#45;&gt;Node2</title>
<path fill="none" stroke="#404040" d="M91.33,-243.4C87.09,-237.68 83.21,-231.42 80.5,-225 73.93,-209.44 70.93,-191.11 69.67,-175.07"/>
<polygon fill="none" stroke="#404040" points="69.66,-174.77 65.33,-169 69,-162.79 73.32,-168.56 69.66,-174.77"/>
<text text-anchor="middle" x="104" y="-206" font-family="Helvetica,sans-Serif" font-size="10.00"> +endDate</text>
<text text-anchor="middle" x="104" y="-195" font-family="Helvetica,sans-Serif" font-size="10.00">+startDate</text>
</g>
<!-- Node5 -->
<g id="node5" class="node">
<title>Node5</title>
<g id="a_node5"><a xlink:href="struct__fomula.html" target="_top" xlink:title=" ">
<polygon fill="none" stroke="black" points="129,-105.5 129,-162.5 180,-162.5 180,-105.5 129,-105.5"/>
<text text-anchor="middle" x="154.5" y="-150.5" font-family="Helvetica,sans-Serif" font-size="10.00">_fomula</text>
<polyline fill="none" stroke="black" points="129,-143.5 180,-143.5 "/>
<text text-anchor="middle" x="154.5" y="-131.5" font-family="Helvetica,sans-Serif" font-size="10.00"> </text>
<polyline fill="none" stroke="black" points="129,-124.5 180,-124.5 "/>
<text text-anchor="middle" x="154.5" y="-112.5" font-family="Helvetica,sans-Serif" font-size="10.00"> </text>
</a>
</g>
</g>
<!-- Node4&#45;&gt;Node5 -->
<g id="edge6" class="edge">
<title>Node4&#45;&gt;Node5</title>
<path fill="none" stroke="#404040" d="M124.99,-243.48C130.37,-223.7 137.7,-196.74 143.71,-174.65"/>
<polygon fill="none" stroke="#404040" points="143.75,-174.53 141.46,-167.69 146.9,-162.95 149.18,-169.79 143.75,-174.53"/>
<text text-anchor="middle" x="173.5" y="-206" font-family="Helvetica,sans-Serif" font-size="10.00"> +airFlowLevel</text>
<text text-anchor="middle" x="173.5" y="-195" font-family="Helvetica,sans-Serif" font-size="10.00">+rollInterval</text>
</g>
<!-- Node5&#45;&gt;Node1 -->
<g id="edge4" class="edge">
<title>Node5&#45;&gt;Node1</title>
<path fill="none" stroke="#404040" d="M142.98,-105.4C138.3,-94.2 132.82,-81.06 127.75,-68.92"/>
<polygon fill="none" stroke="#404040" points="127.68,-68.75 121.68,-64.76 123.06,-57.68 129.06,-61.67 127.68,-68.75"/>
<text text-anchor="middle" x="150" y="-79" font-family="Helvetica,sans-Serif" font-size="10.00"> +body</text>
</g>
<!-- Node6 -->
<g id="node6" class="node">
<title>Node6</title>
<g id="a_node6"><a xlink:title=" ">
<polygon fill="none" stroke="#bfbfbf" points="217,-243.5 217,-300.5 252,-300.5 252,-243.5 217,-243.5"/>
<text text-anchor="middle" x="234.5" y="-288.5" font-family="Helvetica,sans-Serif" font-size="10.00">float</text>
<polyline fill="none" stroke="#bfbfbf" points="217,-281.5 252,-281.5 "/>
<text text-anchor="middle" x="234.5" y="-269.5" font-family="Helvetica,sans-Serif" font-size="10.00"> </text>
<polyline fill="none" stroke="#bfbfbf" points="217,-262.5 252,-262.5 "/>
<text text-anchor="middle" x="234.5" y="-250.5" font-family="Helvetica,sans-Serif" font-size="10.00"> </text>
</a>
</g>
</g>
<!-- Node6&#45;&gt;Node5 -->
<g id="edge5" class="edge">
<title>Node6&#45;&gt;Node5</title>
<path fill="none" stroke="#404040" d="M231.19,-243.25C227.94,-224.49 221.63,-199.81 209.5,-181 204.24,-172.83 197.07,-165.37 189.65,-158.94"/>
<polygon fill="none" stroke="#404040" points="189.59,-158.9 182.41,-158.25 180.24,-151.38 187.42,-152.02 189.59,-158.9"/>
<text text-anchor="middle" x="269" y="-217" font-family="Helvetica,sans-Serif" font-size="10.00"> +humidHigherLimit</text>
<text text-anchor="middle" x="269" y="-206" font-family="Helvetica,sans-Serif" font-size="10.00">+humidLowerLimit</text>
<text text-anchor="middle" x="269" y="-195" font-family="Helvetica,sans-Serif" font-size="10.00">+tempHigherLimit</text>
<text text-anchor="middle" x="269" y="-184" font-family="Helvetica,sans-Serif" font-size="10.00">+tempLowerLimit</text>
</g>
</g>
</svg>
