<?xml version="1.0" encoding="UTF-8" standalone="no"?>
<!DOCTYPE svg PUBLIC "-//W3C//DTD SVG 1.1//EN"
 "http://www.w3.org/Graphics/SVG/1.1/DTD/svg11.dtd">
<!-- Generated by graphviz version 2.48.0 (20210717.1556)
 -->
<!-- Title: Sensor Pages: 1 -->
<svg width="420pt" height="281pt"
 viewBox="0.00 0.00 419.50 281.00" xmlns="http://www.w3.org/2000/svg" xmlns:xlink="http://www.w3.org/1999/xlink">
<g id="graph0" class="graph" transform="scale(1 1) rotate(0) translate(4 277)">
<title>Sensor</title>
<!-- Node1 -->
<g id="node1" class="node">
<title>Node1</title>
<g id="a_node1"><a xlink:title=" ">
<polygon fill="#bfbfbf" stroke="black" points="166,-171.5 166,-272.5 241,-272.5 241,-171.5 166,-171.5"/>
<text text-anchor="middle" x="203.5" y="-260.5" font-family="Helvetica,sans-Serif" font-size="10.00">Sensor</text>
<polyline fill="none" stroke="black" points="166,-253.5 241,-253.5 "/>
<text text-anchor="middle" x="203.5" y="-241.5" font-family="Helvetica,sans-Serif" font-size="10.00"> </text>
<polyline fill="none" stroke="black" points="166,-234.5 241,-234.5 "/>
<text text-anchor="start" x="174" y="-222.5" font-family="Helvetica,sans-Serif" font-size="10.00">+ ~Sensor()</text>
<text text-anchor="start" x="174" y="-211.5" font-family="Helvetica,sans-Serif" font-size="10.00">+ init()</text>
<text text-anchor="start" x="174" y="-200.5" font-family="Helvetica,sans-Serif" font-size="10.00">+ deinit()</text>
<text text-anchor="start" x="174" y="-189.5" font-family="Helvetica,sans-Serif" font-size="10.00">+ get()</text>
<text text-anchor="start" x="174" y="-178.5" font-family="Helvetica,sans-Serif" font-size="10.00">+ getCache()</text>
</a>
</g>
</g>
<!-- Node2 -->
<g id="node2" class="node">
<title>Node2</title>
<g id="a_node2"><a xlink:href="class_dht22_humid_sensor.html" target="_top" xlink:title=" ">
<polygon fill="none" stroke="black" points="0,-6 0,-129 125,-129 125,-6 0,-6"/>
<text text-anchor="middle" x="62.5" y="-117" font-family="Helvetica,sans-Serif" font-size="10.00">Dht22HumidSensor</text>
<polyline fill="none" stroke="black" points="0,-110 125,-110 "/>
<text text-anchor="start" x="8" y="-98" font-family="Helvetica,sans-Serif" font-size="10.00">&#45; _initialized</text>
<text text-anchor="start" x="8" y="-87" font-family="Helvetica,sans-Serif" font-size="10.00">&#45; _lastVal</text>
<polyline fill="none" stroke="black" points="0,-80 125,-80 "/>
<text text-anchor="start" x="8" y="-68" font-family="Helvetica,sans-Serif" font-size="10.00">+ Dht22HumidSensor()</text>
<text text-anchor="start" x="8" y="-57" font-family="Helvetica,sans-Serif" font-size="10.00">+ ~Dht22HumidSensor()</text>
<text text-anchor="start" x="8" y="-46" font-family="Helvetica,sans-Serif" font-size="10.00">+ init()</text>
<text text-anchor="start" x="8" y="-35" font-family="Helvetica,sans-Serif" font-size="10.00">+ deinit()</text>
<text text-anchor="start" x="8" y="-24" font-family="Helvetica,sans-Serif" font-size="10.00">+ get()</text>
<text text-anchor="start" x="8" y="-13" font-family="Helvetica,sans-Serif" font-size="10.00">+ getCache()</text>
</a>
</g>
</g>
<!-- Node1&#45;&gt;Node2 -->
<g id="edge1" class="edge">
<title>Node1&#45;&gt;Node2</title>
<path fill="none" stroke="midnightblue" d="M158.79,-172.64C146.05,-158.87 132.02,-143.69 118.69,-129.28"/>
<polygon fill="none" stroke="midnightblue" points="156.36,-175.17 165.71,-180.13 161.5,-170.41 156.36,-175.17"/>
</g>
<!-- Node3 -->
<g id="node3" class="node">
<title>Node3</title>
<g id="a_node3"><a xlink:href="class_dht22_temp_sensor.html" target="_top" xlink:title=" ">
<polygon fill="none" stroke="black" points="143.5,-6 143.5,-129 263.5,-129 263.5,-6 143.5,-6"/>
<text text-anchor="middle" x="203.5" y="-117" font-family="Helvetica,sans-Serif" font-size="10.00">Dht22TempSensor</text>
<polyline fill="none" stroke="black" points="143.5,-110 263.5,-110 "/>
<text text-anchor="start" x="151.5" y="-98" font-family="Helvetica,sans-Serif" font-size="10.00">&#45; _initialized</text>
<text text-anchor="start" x="151.5" y="-87" font-family="Helvetica,sans-Serif" font-size="10.00">&#45; _lastVal</text>
<polyline fill="none" stroke="black" points="143.5,-80 263.5,-80 "/>
<text text-anchor="start" x="151.5" y="-68" font-family="Helvetica,sans-Serif" font-size="10.00">+ Dht22TempSensor()</text>
<text text-anchor="start" x="151.5" y="-57" font-family="Helvetica,sans-Serif" font-size="10.00">+ ~Dht22TempSensor()</text>
<text text-anchor="start" x="151.5" y="-46" font-family="Helvetica,sans-Serif" font-size="10.00">+ init()</text>
<text text-anchor="start" x="151.5" y="-35" font-family="Helvetica,sans-Serif" font-size="10.00">+ deinit()</text>
<text text-anchor="start" x="151.5" y="-24" font-family="Helvetica,sans-Serif" font-size="10.00">+ get()</text>
<text text-anchor="start" x="151.5" y="-13" font-family="Helvetica,sans-Serif" font-size="10.00">+ getCache()</text>
</a>
</g>
</g>
<!-- Node1&#45;&gt;Node3 -->
<g id="edge2" class="edge">
<title>Node1&#45;&gt;Node3</title>
<path fill="none" stroke="midnightblue" d="M203.5,-161.17C203.5,-150.67 203.5,-139.74 203.5,-129.22"/>
<polygon fill="none" stroke="midnightblue" points="200,-161.49 203.5,-171.49 207,-161.49 200,-161.49"/>
</g>
<!-- Node4 -->
<g id="node4" class="node">
<title>Node4</title>
<g id="a_node4"><a xlink:href="class_tmp117_temp_sensor.html" target="_top" xlink:title=" ">
<polygon fill="none" stroke="black" points="281.5,-0.5 281.5,-134.5 411.5,-134.5 411.5,-0.5 281.5,-0.5"/>
<text text-anchor="middle" x="346.5" y="-122.5" font-family="Helvetica,sans-Serif" font-size="10.00">Tmp117TempSensor</text>
<polyline fill="none" stroke="black" points="281.5,-115.5 411.5,-115.5 "/>
<text text-anchor="start" x="289.5" y="-103.5" font-family="Helvetica,sans-Serif" font-size="10.00">&#45; _initialized</text>
<text text-anchor="start" x="289.5" y="-92.5" font-family="Helvetica,sans-Serif" font-size="10.00">&#45; _deviceFd</text>
<text text-anchor="start" x="289.5" y="-81.5" font-family="Helvetica,sans-Serif" font-size="10.00">&#45; _lastVal</text>
<polyline fill="none" stroke="black" points="281.5,-74.5 411.5,-74.5 "/>
<text text-anchor="start" x="289.5" y="-62.5" font-family="Helvetica,sans-Serif" font-size="10.00">+ Tmp117TempSensor()</text>
<text text-anchor="start" x="289.5" y="-51.5" font-family="Helvetica,sans-Serif" font-size="10.00">+ ~Tmp117TempSensor()</text>
<text text-anchor="start" x="289.5" y="-40.5" font-family="Helvetica,sans-Serif" font-size="10.00">+ init()</text>
<text text-anchor="start" x="289.5" y="-29.5" font-family="Helvetica,sans-Serif" font-size="10.00">+ deinit()</text>
<text text-anchor="start" x="289.5" y="-18.5" font-family="Helvetica,sans-Serif" font-size="10.00">+ get()</text>
<text text-anchor="start" x="289.5" y="-7.5" font-family="Helvetica,sans-Serif" font-size="10.00">+ getCache()</text>
</a>
</g>
</g>
<!-- Node1&#45;&gt;Node4 -->
<g id="edge3" class="edge">
<title>Node1&#45;&gt;Node4</title>
<path fill="none" stroke="midnightblue" d="M248.11,-173.43C259.66,-161.11 272.31,-147.62 284.57,-134.54"/>
<polygon fill="none" stroke="midnightblue" points="245.36,-171.24 241.07,-180.93 250.46,-176.03 245.36,-171.24"/>
</g>
</g>
</svg>
