<?xml version="1.0" encoding="UTF-8" standalone="no"?>
<!DOCTYPE svg PUBLIC "-//W3C//DTD SVG 1.1//EN"
 "http://www.w3.org/Graphics/SVG/1.1/DTD/svg11.dtd">
<!-- Generated by graphviz version 2.48.0 (20210717.1556)
 -->
<!-- Title: _config Pages: 1 -->
<svg width="348pt" height="414pt"
 viewBox="0.00 0.00 347.87 414.00" xmlns="http://www.w3.org/2000/svg" xmlns:xlink="http://www.w3.org/1999/xlink">
<g id="graph0" class="graph" transform="scale(1 1) rotate(0) translate(4 410)">
<title>_config</title>
<!-- Node1 -->
<g id="node1" class="node">
<title>Node1</title>
<g id="a_node1"><a xlink:title=" ">
<polygon fill="#bfbfbf" stroke="black" points="146,-0.5 146,-57.5 195,-57.5 195,-0.5 146,-0.5"/>
<text text-anchor="middle" x="170.5" y="-45.5" font-family="Helvetica,sans-Serif" font-size="10.00">_config</text>
<polyline fill="none" stroke="black" points="146,-38.5 195,-38.5 "/>
<text text-anchor="middle" x="170.5" y="-26.5" font-family="Helvetica,sans-Serif" font-size="10.00"> </text>
<polyline fill="none" stroke="black" points="146,-19.5 195,-19.5 "/>
<text text-anchor="middle" x="170.5" y="-7.5" font-family="Helvetica,sans-Serif" font-size="10.00"> </text>
</a>
</g>
</g>
<!-- Node2 -->
<g id="node2" class="node">
<title>Node2</title>
<g id="a_node2"><a xlink:title=" ">
<polygon fill="none" stroke="#bfbfbf" points="0,-348.5 0,-405.5 41,-405.5 41,-348.5 0,-348.5"/>
<text text-anchor="middle" x="20.5" y="-393.5" font-family="Helvetica,sans-Serif" font-size="10.00">string</text>
<polyline fill="none" stroke="#bfbfbf" points="0,-386.5 41,-386.5 "/>
<text text-anchor="middle" x="20.5" y="-374.5" font-family="Helvetica,sans-Serif" font-size="10.00"> </text>
<polyline fill="none" stroke="#bfbfbf" points="0,-367.5 41,-367.5 "/>
<text text-anchor="middle" x="20.5" y="-355.5" font-family="Helvetica,sans-Serif" font-size="10.00"> </text>
</a>
</g>
</g>
<!-- Node2&#45;&gt;Node1 -->
<g id="edge1" class="edge">
<title>Node2&#45;&gt;Node1</title>
<path fill="none" stroke="#404040" d="M15.36,-348.32C13.03,-330.26 11.88,-306.34 17.5,-286 41.17,-200.26 101.96,-114.32 139.4,-67.05"/>
<polygon fill="none" stroke="#404040" points="139.5,-66.93 140.14,-59.74 147.02,-57.57 146.38,-64.75 139.5,-66.93"/>
<text text-anchor="middle" x="78.5" y="-184" font-family="Helvetica,sans-Serif" font-size="10.00"> +name</text>
</g>
<!-- Node7 -->
<g id="node7" class="node">
<title>Node7</title>
<g id="a_node7"><a xlink:href="struct__phase__header.html" target="_top" xlink:title=" ">
<polygon fill="none" stroke="black" points="87.5,-210.5 87.5,-267.5 173.5,-267.5 173.5,-210.5 87.5,-210.5"/>
<text text-anchor="middle" x="130.5" y="-255.5" font-family="Helvetica,sans-Serif" font-size="10.00">_phase_header</text>
<polyline fill="none" stroke="black" points="87.5,-248.5 173.5,-248.5 "/>
<text text-anchor="middle" x="130.5" y="-236.5" font-family="Helvetica,sans-Serif" font-size="10.00"> </text>
<polyline fill="none" stroke="black" points="87.5,-229.5 173.5,-229.5 "/>
<text text-anchor="middle" x="130.5" y="-217.5" font-family="Helvetica,sans-Serif" font-size="10.00"> </text>
</a>
</g>
</g>
<!-- Node2&#45;&gt;Node7 -->
<g id="edge7" class="edge">
<title>Node2&#45;&gt;Node7</title>
<path fill="none" stroke="#404040" d="M19.52,-348.23C20.22,-328.99 24.04,-303.73 37.5,-286 47.3,-273.08 61.72,-263.56 76.28,-256.64"/>
<polygon fill="none" stroke="#404040" points="76.36,-256.6 80.29,-250.55 87.38,-251.85 83.46,-257.9 76.36,-256.6"/>
<text text-anchor="middle" x="54.5" y="-305.5" font-family="Helvetica,sans-Serif" font-size="10.00"> +name</text>
</g>
<!-- Node3 -->
<g id="node3" class="node">
<title>Node3</title>
<g id="a_node3"><a xlink:href="struct__phase.html" target="_top" xlink:title=" ">
<polygon fill="none" stroke="black" points="146,-105.5 146,-162.5 195,-162.5 195,-105.5 146,-105.5"/>
<text text-anchor="middle" x="170.5" y="-150.5" font-family="Helvetica,sans-Serif" font-size="10.00">_phase</text>
<polyline fill="none" stroke="black" points="146,-143.5 195,-143.5 "/>
<text text-anchor="middle" x="170.5" y="-131.5" font-family="Helvetica,sans-Serif" font-size="10.00"> </text>
<polyline fill="none" stroke="black" points="146,-124.5 195,-124.5 "/>
<text text-anchor="middle" x="170.5" y="-112.5" font-family="Helvetica,sans-Serif" font-size="10.00"> </text>
</a>
</g>
</g>
<!-- Node3&#45;&gt;Node1 -->
<g id="edge2" class="edge">
<title>Node3&#45;&gt;Node1</title>
<path fill="none" stroke="#404040" d="M170.5,-105.4C170.5,-94.55 170.5,-81.87 170.5,-70.05"/>
<polygon fill="none" stroke="#404040" points="170.5,-69.68 166.5,-63.68 170.5,-57.68 174.5,-63.68 170.5,-69.68"/>
<text text-anchor="middle" x="191" y="-79" font-family="Helvetica,sans-Serif" font-size="10.00"> +phases</text>
</g>
<!-- Node4 -->
<g id="node4" class="node">
<title>Node4</title>
<g id="a_node4"><a xlink:href="struct__fomula.html" target="_top" xlink:title=" ">
<polygon fill="none" stroke="black" points="191.5,-210.5 191.5,-267.5 243.5,-267.5 243.5,-210.5 191.5,-210.5"/>
<text text-anchor="middle" x="217.5" y="-255.5" font-family="Helvetica,sans-Serif" font-size="10.00">_fomula</text>
<polyline fill="none" stroke="black" points="191.5,-248.5 243.5,-248.5 "/>
<text text-anchor="middle" x="217.5" y="-236.5" font-family="Helvetica,sans-Serif" font-size="10.00"> </text>
<polyline fill="none" stroke="black" points="191.5,-229.5 243.5,-229.5 "/>
<text text-anchor="middle" x="217.5" y="-217.5" font-family="Helvetica,sans-Serif" font-size="10.00"> </text>
</a>
</g>
</g>
<!-- Node4&#45;&gt;Node3 -->
<g id="edge3" class="edge">
<title>Node4&#45;&gt;Node3</title>
<path fill="none" stroke="#404040" d="M204.9,-210.4C199.79,-199.2 193.8,-186.06 188.26,-173.92"/>
<polygon fill="none" stroke="#404040" points="188.11,-173.6 181.98,-169.8 183.13,-162.68 189.26,-166.48 188.11,-173.6"/>
<text text-anchor="middle" x="210" y="-184" font-family="Helvetica,sans-Serif" font-size="10.00"> +body</text>
</g>
<!-- Node5 -->
<g id="node5" class="node">
<title>Node5</title>
<g id="a_node5"><a xlink:title=" ">
<polygon fill="none" stroke="#bfbfbf" points="76,-348.5 76,-405.5 111,-405.5 111,-348.5 76,-348.5"/>
<text text-anchor="middle" x="93.5" y="-393.5" font-family="Helvetica,sans-Serif" font-size="10.00">float</text>
<polyline fill="none" stroke="#bfbfbf" points="76,-386.5 111,-386.5 "/>
<text text-anchor="middle" x="93.5" y="-374.5" font-family="Helvetica,sans-Serif" font-size="10.00"> </text>
<polyline fill="none" stroke="#bfbfbf" points="76,-367.5 111,-367.5 "/>
<text text-anchor="middle" x="93.5" y="-355.5" font-family="Helvetica,sans-Serif" font-size="10.00"> </text>
</a>
</g>
</g>
<!-- Node5&#45;&gt;Node4 -->
<g id="edge4" class="edge">
<title>Node5&#45;&gt;Node4</title>
<path fill="none" stroke="#404040" d="M85.43,-348.12C81.6,-328.57 80.47,-302.99 94.5,-286 117.73,-257.86 141.82,-280.28 180.05,-267.64"/>
<polygon fill="none" stroke="#404040" points="180.11,-267.62 184.15,-261.65 191.22,-263.08 187.18,-269.05 180.11,-267.62"/>
<text text-anchor="middle" x="138" y="-322" font-family="Helvetica,sans-Serif" font-size="10.00"> +humidHigherLimit</text>
<text text-anchor="middle" x="138" y="-311" font-family="Helvetica,sans-Serif" font-size="10.00">+humidLowerLimit</text>
<text text-anchor="middle" x="138" y="-300" font-family="Helvetica,sans-Serif" font-size="10.00">+tempHigherLimit</text>
<text text-anchor="middle" x="138" y="-289" font-family="Helvetica,sans-Serif" font-size="10.00">+tempLowerLimit</text>
</g>
<!-- Node6 -->
<g id="node6" class="node">
<title>Node6</title>
<g id="a_node6"><a xlink:title=" ">
<polygon fill="none" stroke="#bfbfbf" points="245,-348.5 245,-405.5 302,-405.5 302,-348.5 245,-348.5"/>
<text text-anchor="middle" x="273.5" y="-393.5" font-family="Helvetica,sans-Serif" font-size="10.00">unsigned</text>
<polyline fill="none" stroke="#bfbfbf" points="245,-386.5 302,-386.5 "/>
<text text-anchor="middle" x="273.5" y="-374.5" font-family="Helvetica,sans-Serif" font-size="10.00"> </text>
<polyline fill="none" stroke="#bfbfbf" points="245,-367.5 302,-367.5 "/>
<text text-anchor="middle" x="273.5" y="-355.5" font-family="Helvetica,sans-Serif" font-size="10.00"> </text>
</a>
</g>
</g>
<!-- Node6&#45;&gt;Node1 -->
<g id="edge9" class="edge">
<title>Node6&#45;&gt;Node1</title>
<path fill="none" stroke="#404040" d="M302.12,-362.13C314.47,-354.51 327.64,-343.77 334.5,-330 343.22,-312.5 339.49,-304.91 334.5,-286 307.15,-182.27 279.99,-161.73 215.5,-76 211.91,-71.23 207.86,-66.45 203.7,-61.86"/>
<polygon fill="none" stroke="#404040" points="203.36,-61.51 196.33,-59.91 195.1,-52.81 202.13,-54.4 203.36,-61.51"/>
<text text-anchor="middle" x="313.5" y="-184" font-family="Helvetica,sans-Serif" font-size="10.00"> +days</text>
</g>
<!-- Node6&#45;&gt;Node4 -->
<g id="edge5" class="edge">
<title>Node6&#45;&gt;Node4</title>
<path fill="none" stroke="#404040" d="M269.65,-348.27C266.41,-329.97 260.78,-305.81 251.5,-286 250.21,-283.25 248.74,-280.49 247.16,-277.78"/>
<polygon fill="none" stroke="#404040" points="247.09,-277.68 240.48,-274.8 240.59,-267.59 247.21,-270.47 247.09,-277.68"/>
<text text-anchor="middle" x="298" y="-311" font-family="Helvetica,sans-Serif" font-size="10.00"> +airFlowLevel</text>
<text text-anchor="middle" x="298" y="-300" font-family="Helvetica,sans-Serif" font-size="10.00">+rollInterval</text>
</g>
<!-- Node6&#45;&gt;Node7 -->
<g id="edge8" class="edge">
<title>Node6&#45;&gt;Node7</title>
<path fill="none" stroke="#404040" d="M244.93,-363.18C230.09,-355.34 212.58,-344.11 200.5,-330 186.65,-313.82 193.92,-303.31 181.5,-286 179.17,-282.75 176.58,-279.57 173.83,-276.49"/>
<polygon fill="none" stroke="#404040" points="173.57,-276.22 166.52,-274.68 165.23,-267.58 172.28,-269.12 173.57,-276.22"/>
<text text-anchor="middle" x="224" y="-311" font-family="Helvetica,sans-Serif" font-size="10.00"> +endDate</text>
<text text-anchor="middle" x="224" y="-300" font-family="Helvetica,sans-Serif" font-size="10.00">+startDate</text>
</g>
<!-- Node7&#45;&gt;Node3 -->
<g id="edge6" class="edge">
<title>Node7&#45;&gt;Node3</title>
<path fill="none" stroke="#404040" d="M135.05,-210.23C137.07,-200.77 139.83,-190.25 143.5,-181 144.5,-178.48 145.62,-175.94 146.83,-173.41"/>
<polygon fill="none" stroke="#404040" points="146.96,-173.16 146.19,-165.99 152.51,-162.53 153.28,-169.7 146.96,-173.16"/>
<text text-anchor="middle" x="163.5" y="-184" font-family="Helvetica,sans-Serif" font-size="10.00"> +header</text>
</g>
</g>
</svg>
