<?xml version="1.0" encoding="UTF-8" standalone="no"?>
<!DOCTYPE svg PUBLIC "-//W3C//DTD SVG 1.1//EN"
 "http://www.w3.org/Graphics/SVG/1.1/DTD/svg11.dtd">
<!-- Generated by graphviz version 2.48.0 (20210717.1556)
 -->
<!-- Title: _phase_header Pages: 1 -->
<svg width="129pt" height="182pt"
 viewBox="0.00 0.00 128.50 182.00" xmlns="http://www.w3.org/2000/svg" xmlns:xlink="http://www.w3.org/1999/xlink">
<g id="graph0" class="graph" transform="scale(1 1) rotate(0) translate(4 178)">
<title>_phase_header</title>
<!-- Node1 -->
<g id="node1" class="node">
<title>Node1</title>
<g id="a_node1"><a xlink:title=" ">
<polygon fill="#bfbfbf" stroke="black" points="10.5,-0.5 10.5,-57.5 96.5,-57.5 96.5,-0.5 10.5,-0.5"/>
<text text-anchor="middle" x="53.5" y="-45.5" font-family="Helvetica,sans-Serif" font-size="10.00">_phase_header</text>
<polyline fill="none" stroke="black" points="10.5,-38.5 96.5,-38.5 "/>
<text text-anchor="middle" x="53.5" y="-26.5" font-family="Helvetica,sans-Serif" font-size="10.00"> </text>
<polyline fill="none" stroke="black" points="10.5,-19.5 96.5,-19.5 "/>
<text text-anchor="middle" x="53.5" y="-7.5" font-family="Helvetica,sans-Serif" font-size="10.00"> </text>
</a>
</g>
</g>
<!-- Node2 -->
<g id="node2" class="node">
<title>Node2</title>
<g id="a_node2"><a xlink:title=" ">
<polygon fill="none" stroke="#bfbfbf" points="0,-116.5 0,-173.5 41,-173.5 41,-116.5 0,-116.5"/>
<text text-anchor="middle" x="20.5" y="-161.5" font-family="Helvetica,sans-Serif" font-size="10.00">string</text>
<polyline fill="none" stroke="#bfbfbf" points="0,-154.5 41,-154.5 "/>
<text text-anchor="middle" x="20.5" y="-142.5" font-family="Helvetica,sans-Serif" font-size="10.00"> </text>
<polyline fill="none" stroke="#bfbfbf" points="0,-135.5 41,-135.5 "/>
<text text-anchor="middle" x="20.5" y="-123.5" font-family="Helvetica,sans-Serif" font-size="10.00"> </text>
</a>
</g>
</g>
<!-- Node2&#45;&gt;Node1 -->
<g id="edge1" class="edge">
<title>Node2&#45;&gt;Node1</title>
<path fill="none" stroke="#404040" d="M23.14,-116.45C24.8,-103.92 27.43,-89.01 31.5,-76 32.24,-73.62 33.09,-71.21 34.01,-68.81"/>
<polygon fill="none" stroke="#404040" points="34.03,-68.76 32.67,-61.68 38.69,-57.7 40.04,-64.79 34.03,-68.76"/>
<text text-anchor="middle" x="48.5" y="-84.5" font-family="Helvetica,sans-Serif" font-size="10.00"> +name</text>
</g>
<!-- Node3 -->
<g id="node3" class="node">
<title>Node3</title>
<g id="a_node3"><a xlink:title=" ">
<polygon fill="none" stroke="#bfbfbf" points="59,-116.5 59,-173.5 116,-173.5 116,-116.5 59,-116.5"/>
<text text-anchor="middle" x="87.5" y="-161.5" font-family="Helvetica,sans-Serif" font-size="10.00">unsigned</text>
<polyline fill="none" stroke="#bfbfbf" points="59,-154.5 116,-154.5 "/>
<text text-anchor="middle" x="87.5" y="-142.5" font-family="Helvetica,sans-Serif" font-size="10.00"> </text>
<polyline fill="none" stroke="#bfbfbf" points="59,-135.5 116,-135.5 "/>
<text text-anchor="middle" x="87.5" y="-123.5" font-family="Helvetica,sans-Serif" font-size="10.00"> </text>
</a>
</g>
</g>
<!-- Node3&#45;&gt;Node1 -->
<g id="edge2" class="edge">
<title>Node3&#45;&gt;Node1</title>
<path fill="none" stroke="#404040" d="M79.27,-116.4C75.08,-102.36 69.92,-85.05 65.31,-69.61"/>
<polygon fill="none" stroke="#404040" points="65.2,-69.24 59.65,-64.63 61.77,-57.74 67.32,-62.34 65.2,-69.24"/>
<text text-anchor="middle" x="97" y="-90" font-family="Helvetica,sans-Serif" font-size="10.00"> +endDate</text>
<text text-anchor="middle" x="97" y="-79" font-family="Helvetica,sans-Serif" font-size="10.00">+startDate</text>
</g>
</g>
</svg>
