<?xml version="1.0" encoding="UTF-8" standalone="no"?>
<!DOCTYPE svg PUBLIC "-//W3C//DTD SVG 1.1//EN"
 "http://www.w3.org/Graphics/SVG/1.1/DTD/svg11.dtd">
<!-- Generated by graphviz version 2.50.0 (20211204.2007)
 -->
<!-- Title: _config Pages: 1 -->
<svg width="379pt" height="414pt"
 viewBox="0.00 0.00 378.50 414.00" xmlns="http://www.w3.org/2000/svg" xmlns:xlink="http://www.w3.org/1999/xlink">
<g id="graph0" class="graph" transform="scale(1 1) rotate(0) translate(4 410)">
<title>_config</title>
<!-- Node1 -->
<g id="node1" class="node">
<title>Node1</title>
<g id="a_node1"><a xlink:title=" ">
<polygon fill="#bfbfbf" stroke="black" points="61.5,-0.5 61.5,-57.5 109.5,-57.5 109.5,-0.5 61.5,-0.5"/>
<text text-anchor="middle" x="85.5" y="-45.5" font-family="Helvetica,sans-Serif" font-size="10.00">_config</text>
<polyline fill="none" stroke="black" points="61.5,-38.5 109.5,-38.5 "/>
<text text-anchor="middle" x="85.5" y="-26.5" font-family="Helvetica,sans-Serif" font-size="10.00"> </text>
<polyline fill="none" stroke="black" points="61.5,-19.5 109.5,-19.5 "/>
<text text-anchor="middle" x="85.5" y="-7.5" font-family="Helvetica,sans-Serif" font-size="10.00"> </text>
</a>
</g>
</g>
<!-- Node2 -->
<g id="node2" class="node">
<title>Node2</title>
<g id="a_node2"><a xlink:title=" ">
<polygon fill="none" stroke="#bfbfbf" points="0,-348.5 0,-405.5 41,-405.5 41,-348.5 0,-348.5"/>
<text text-anchor="middle" x="20.5" y="-393.5" font-family="Helvetica,sans-Serif" font-size="10.00">string</text>
<polyline fill="none" stroke="#bfbfbf" points="0,-386.5 41,-386.5 "/>
<text text-anchor="middle" x="20.5" y="-374.5" font-family="Helvetica,sans-Serif" font-size="10.00"> </text>
<polyline fill="none" stroke="#bfbfbf" points="0,-367.5 41,-367.5 "/>
<text text-anchor="middle" x="20.5" y="-355.5" font-family="Helvetica,sans-Serif" font-size="10.00"> </text>
</a>
</g>
</g>
<!-- Node2&#45;&gt;Node1 -->
<g id="edge1" class="edge">
<title>Node2&#45;&gt;Node1</title>
<path fill="none" stroke="#404040" d="M25.32,-348.2C31.93,-310.34 44.25,-240.48 55.5,-181 62.68,-143.03 71.32,-99.79 77.48,-69.33"/>
<polygon fill="none" stroke="#404040" points="77.49,-69.28 74.76,-62.61 79.87,-57.52 82.6,-64.2 77.49,-69.28"/>
<text text-anchor="middle" x="72.5" y="-184" font-family="Helvetica,sans-Serif" font-size="10.00"> +name</text>
</g>
<!-- Node5 -->
<g id="node5" class="node">
<title>Node5</title>
<g id="a_node5"><a xlink:href="struct__phase__header.html" target="_top" xlink:title=" ">
<polygon fill="none" stroke="black" points="114,-210.5 114,-267.5 197,-267.5 197,-210.5 114,-210.5"/>
<text text-anchor="middle" x="155.5" y="-255.5" font-family="Helvetica,sans-Serif" font-size="10.00">_phase_header</text>
<polyline fill="none" stroke="black" points="114,-248.5 197,-248.5 "/>
<text text-anchor="middle" x="155.5" y="-236.5" font-family="Helvetica,sans-Serif" font-size="10.00"> </text>
<polyline fill="none" stroke="black" points="114,-229.5 197,-229.5 "/>
<text text-anchor="middle" x="155.5" y="-217.5" font-family="Helvetica,sans-Serif" font-size="10.00"> </text>
</a>
</g>
</g>
<!-- Node2&#45;&gt;Node5 -->
<g id="edge5" class="edge">
<title>Node2&#45;&gt;Node5</title>
<path fill="none" stroke="#404040" d="M41.09,-348.73C55.66,-330.19 76.16,-305.56 96.5,-286 100.19,-282.46 104.13,-278.91 108.18,-275.46"/>
<polygon fill="none" stroke="#404040" points="108.45,-275.23 110.53,-268.32 117.7,-267.58 115.62,-274.49 108.45,-275.23"/>
<text text-anchor="middle" x="113.5" y="-305.5" font-family="Helvetica,sans-Serif" font-size="10.00"> +name</text>
</g>
<!-- Node3 -->
<g id="node3" class="node">
<title>Node3</title>
<g id="a_node3"><a xlink:title=" ">
<polygon fill="none" stroke="#bfbfbf" points="108.5,-348.5 108.5,-405.5 164.5,-405.5 164.5,-348.5 108.5,-348.5"/>
<text text-anchor="middle" x="136.5" y="-393.5" font-family="Helvetica,sans-Serif" font-size="10.00">unsigned</text>
<polyline fill="none" stroke="#bfbfbf" points="108.5,-386.5 164.5,-386.5 "/>
<text text-anchor="middle" x="136.5" y="-374.5" font-family="Helvetica,sans-Serif" font-size="10.00"> </text>
<polyline fill="none" stroke="#bfbfbf" points="108.5,-367.5 164.5,-367.5 "/>
<text text-anchor="middle" x="136.5" y="-355.5" font-family="Helvetica,sans-Serif" font-size="10.00"> </text>
</a>
</g>
</g>
<!-- Node3&#45;&gt;Node1 -->
<g id="edge2" class="edge">
<title>Node3&#45;&gt;Node1</title>
<path fill="none" stroke="#404040" d="M126.59,-348.42C119.26,-326.82 109.68,-295.88 104.5,-268 91.69,-199.13 87.51,-117.46 86.15,-69.91"/>
<polygon fill="none" stroke="#404040" points="86.15,-69.73 82,-63.83 85.85,-57.73 90,-63.63 86.15,-69.73"/>
<text text-anchor="middle" x="110" y="-184" font-family="Helvetica,sans-Serif" font-size="10.00"> +days</text>
</g>
<!-- Node3&#45;&gt;Node5 -->
<g id="edge6" class="edge">
<title>Node3&#45;&gt;Node5</title>
<path fill="none" stroke="#404040" d="M134.24,-348.17C133.42,-330.25 133.5,-306.55 137.5,-286 137.92,-283.82 138.45,-281.61 139.04,-279.4"/>
<polygon fill="none" stroke="#404040" points="139.12,-279.16 137.15,-272.22 142.8,-267.74 144.77,-274.67 139.12,-279.16"/>
<text text-anchor="middle" x="161" y="-311" font-family="Helvetica,sans-Serif" font-size="10.00"> +endDate</text>
<text text-anchor="middle" x="161" y="-300" font-family="Helvetica,sans-Serif" font-size="10.00">+startDate</text>
</g>
<!-- Node6 -->
<g id="node6" class="node">
<title>Node6</title>
<g id="a_node6"><a xlink:href="struct__fomula.html" target="_top" xlink:title=" ">
<polygon fill="none" stroke="black" points="215,-210.5 215,-267.5 266,-267.5 266,-210.5 215,-210.5"/>
<text text-anchor="middle" x="240.5" y="-255.5" font-family="Helvetica,sans-Serif" font-size="10.00">_fomula</text>
<polyline fill="none" stroke="black" points="215,-248.5 266,-248.5 "/>
<text text-anchor="middle" x="240.5" y="-236.5" font-family="Helvetica,sans-Serif" font-size="10.00"> </text>
<polyline fill="none" stroke="black" points="215,-229.5 266,-229.5 "/>
<text text-anchor="middle" x="240.5" y="-217.5" font-family="Helvetica,sans-Serif" font-size="10.00"> </text>
</a>
</g>
</g>
<!-- Node3&#45;&gt;Node6 -->
<g id="edge9" class="edge">
<title>Node3&#45;&gt;Node6</title>
<path fill="none" stroke="#404040" d="M164.65,-352.63C171.73,-345.84 178.9,-338.06 184.5,-330 196.65,-312.51 192.5,-304.24 203.5,-286 205.18,-283.22 207.01,-280.42 208.93,-277.65"/>
<polygon fill="none" stroke="#404040" points="209.04,-277.5 209.37,-270.29 216.15,-267.83 215.82,-275.04 209.04,-277.5"/>
<text text-anchor="middle" x="235.5" y="-311" font-family="Helvetica,sans-Serif" font-size="10.00"> +airFlowLevel</text>
<text text-anchor="middle" x="235.5" y="-300" font-family="Helvetica,sans-Serif" font-size="10.00">+rollInterval</text>
</g>
<!-- Node4 -->
<g id="node4" class="node">
<title>Node4</title>
<g id="a_node4"><a xlink:href="struct__phase.html" target="_top" xlink:title=" ">
<polygon fill="none" stroke="black" points="131.5,-105.5 131.5,-162.5 179.5,-162.5 179.5,-105.5 131.5,-105.5"/>
<text text-anchor="middle" x="155.5" y="-150.5" font-family="Helvetica,sans-Serif" font-size="10.00">_phase</text>
<polyline fill="none" stroke="black" points="131.5,-143.5 179.5,-143.5 "/>
<text text-anchor="middle" x="155.5" y="-131.5" font-family="Helvetica,sans-Serif" font-size="10.00"> </text>
<polyline fill="none" stroke="black" points="131.5,-124.5 179.5,-124.5 "/>
<text text-anchor="middle" x="155.5" y="-112.5" font-family="Helvetica,sans-Serif" font-size="10.00"> </text>
</a>
</g>
</g>
<!-- Node4&#45;&gt;Node1 -->
<g id="edge3" class="edge">
<title>Node4&#45;&gt;Node1</title>
<path fill="none" stroke="#404040" d="M136.74,-105.4C128.89,-93.85 119.65,-80.25 111.19,-67.8"/>
<polygon fill="none" stroke="#404040" points="111.06,-67.6 104.37,-64.89 104.31,-57.68 110.99,-60.39 111.06,-67.6"/>
<text text-anchor="middle" x="144" y="-79" font-family="Helvetica,sans-Serif" font-size="10.00"> +phases</text>
</g>
<!-- Node5&#45;&gt;Node4 -->
<g id="edge4" class="edge">
<title>Node5&#45;&gt;Node4</title>
<path fill="none" stroke="#404040" d="M155.5,-210.4C155.5,-199.55 155.5,-186.87 155.5,-175.05"/>
<polygon fill="none" stroke="#404040" points="155.5,-174.68 151.5,-168.68 155.5,-162.68 159.5,-168.68 155.5,-174.68"/>
<text text-anchor="middle" x="175" y="-184" font-family="Helvetica,sans-Serif" font-size="10.00"> +header</text>
</g>
<!-- Node6&#45;&gt;Node4 -->
<g id="edge7" class="edge">
<title>Node6&#45;&gt;Node4</title>
<path fill="none" stroke="#404040" d="M221.05,-210.25C214.16,-200.79 206.2,-190.26 198.5,-181 195.2,-177.03 191.65,-172.95 188.06,-168.95"/>
<polygon fill="none" stroke="#404040" points="187.81,-168.68 180.8,-166.95 179.7,-159.83 186.7,-161.55 187.81,-168.68"/>
<text text-anchor="middle" x="223" y="-184" font-family="Helvetica,sans-Serif" font-size="10.00"> +body</text>
</g>
<!-- Node7 -->
<g id="node7" class="node">
<title>Node7</title>
<g id="a_node7"><a xlink:title=" ">
<polygon fill="none" stroke="#bfbfbf" points="276,-348.5 276,-405.5 311,-405.5 311,-348.5 276,-348.5"/>
<text text-anchor="middle" x="293.5" y="-393.5" font-family="Helvetica,sans-Serif" font-size="10.00">float</text>
<polyline fill="none" stroke="#bfbfbf" points="276,-386.5 311,-386.5 "/>
<text text-anchor="middle" x="293.5" y="-374.5" font-family="Helvetica,sans-Serif" font-size="10.00"> </text>
<polyline fill="none" stroke="#bfbfbf" points="276,-367.5 311,-367.5 "/>
<text text-anchor="middle" x="293.5" y="-355.5" font-family="Helvetica,sans-Serif" font-size="10.00"> </text>
</a>
</g>
</g>
<!-- Node7&#45;&gt;Node6 -->
<g id="edge8" class="edge">
<title>Node7&#45;&gt;Node6</title>
<path fill="none" stroke="#404040" d="M289.36,-348.4C286,-330.16 280.35,-306.01 271.5,-286 270.35,-283.4 269.05,-280.79 267.66,-278.2"/>
<polygon fill="none" stroke="#404040" points="267.61,-278.12 261.11,-275 261.5,-267.8 268,-270.92 267.61,-278.12"/>
<text text-anchor="middle" x="328" y="-322" font-family="Helvetica,sans-Serif" font-size="10.00"> +humidHigherLimit</text>
<text text-anchor="middle" x="328" y="-311" font-family="Helvetica,sans-Serif" font-size="10.00">+humidLowerLimit</text>
<text text-anchor="middle" x="328" y="-300" font-family="Helvetica,sans-Serif" font-size="10.00">+tempHigherLimit</text>
<text text-anchor="middle" x="328" y="-289" font-family="Helvetica,sans-Serif" font-size="10.00">+tempLowerLimit</text>
</g>
</g>
</svg>
