<?xml version="1.0" encoding="UTF-8" standalone="no"?>
<!DOCTYPE svg PUBLIC "-//W3C//DTD SVG 1.1//EN"
 "http://www.w3.org/Graphics/SVG/1.1/DTD/svg11.dtd">
<!-- Generated by graphviz version 2.48.0 (20210717.1556)
 -->
<!-- Title: Actuator Pages: 1 -->
<svg width="484pt" height="325pt"
 viewBox="0.00 0.00 483.50 325.00" xmlns="http://www.w3.org/2000/svg" xmlns:xlink="http://www.w3.org/1999/xlink">
<g id="graph0" class="graph" transform="scale(1 1) rotate(0) translate(4 321)">
<title>Actuator</title>
<!-- Node1 -->
<g id="node1" class="node">
<title>Node1</title>
<g id="a_node1"><a xlink:title=" ">
<polygon fill="#bfbfbf" stroke="black" points="208.5,-193.5 208.5,-316.5 283.5,-316.5 283.5,-193.5 208.5,-193.5"/>
<text text-anchor="middle" x="246" y="-304.5" font-family="Helvetica,sans-Serif" font-size="10.00">Actuator</text>
<polyline fill="none" stroke="black" points="208.5,-297.5 283.5,-297.5 "/>
<text text-anchor="middle" x="246" y="-285.5" font-family="Helvetica,sans-Serif" font-size="10.00"> </text>
<polyline fill="none" stroke="black" points="208.5,-278.5 283.5,-278.5 "/>
<text text-anchor="start" x="216.5" y="-266.5" font-family="Helvetica,sans-Serif" font-size="10.00">+ ~Actuator()</text>
<text text-anchor="start" x="216.5" y="-255.5" font-family="Helvetica,sans-Serif" font-size="10.00">+ init()</text>
<text text-anchor="start" x="216.5" y="-244.5" font-family="Helvetica,sans-Serif" font-size="10.00">+ deinit()</text>
<text text-anchor="start" x="216.5" y="-233.5" font-family="Helvetica,sans-Serif" font-size="10.00">+ on()</text>
<text text-anchor="start" x="216.5" y="-222.5" font-family="Helvetica,sans-Serif" font-size="10.00">+ off()</text>
<text text-anchor="start" x="216.5" y="-211.5" font-family="Helvetica,sans-Serif" font-size="10.00">+ start()</text>
<text text-anchor="start" x="216.5" y="-200.5" font-family="Helvetica,sans-Serif" font-size="10.00">+ stop()</text>
</a>
</g>
</g>
<!-- Node2 -->
<g id="node2" class="node">
<title>Node2</title>
<g id="a_node2"><a xlink:href="class_air_flow_actuator.html" target="_top" xlink:title=" ">
<polygon fill="none" stroke="black" points="0,-0.5 0,-156.5 108,-156.5 108,-0.5 0,-0.5"/>
<text text-anchor="middle" x="54" y="-144.5" font-family="Helvetica,sans-Serif" font-size="10.00">AirFlowActuator</text>
<polyline fill="none" stroke="black" points="0,-137.5 108,-137.5 "/>
<text text-anchor="start" x="8" y="-125.5" font-family="Helvetica,sans-Serif" font-size="10.00">&#45; _initialized</text>
<text text-anchor="start" x="8" y="-114.5" font-family="Helvetica,sans-Serif" font-size="10.00">&#45; _level</text>
<polyline fill="none" stroke="black" points="0,-107.5 108,-107.5 "/>
<text text-anchor="start" x="8" y="-95.5" font-family="Helvetica,sans-Serif" font-size="10.00">+ AirFlowActuator()</text>
<text text-anchor="start" x="8" y="-84.5" font-family="Helvetica,sans-Serif" font-size="10.00">+ ~AirFlowActuator()</text>
<text text-anchor="start" x="8" y="-73.5" font-family="Helvetica,sans-Serif" font-size="10.00">+ init()</text>
<text text-anchor="start" x="8" y="-62.5" font-family="Helvetica,sans-Serif" font-size="10.00">+ deinit()</text>
<text text-anchor="start" x="8" y="-51.5" font-family="Helvetica,sans-Serif" font-size="10.00">+ on()</text>
<text text-anchor="start" x="8" y="-40.5" font-family="Helvetica,sans-Serif" font-size="10.00">+ off()</text>
<text text-anchor="start" x="8" y="-29.5" font-family="Helvetica,sans-Serif" font-size="10.00">+ start()</text>
<text text-anchor="start" x="8" y="-18.5" font-family="Helvetica,sans-Serif" font-size="10.00">+ stop()</text>
<text text-anchor="start" x="8" y="-7.5" font-family="Helvetica,sans-Serif" font-size="10.00">+ get()</text>
</a>
</g>
</g>
<!-- Node1&#45;&gt;Node2 -->
<g id="edge1" class="edge">
<title>Node1&#45;&gt;Node2</title>
<path fill="none" stroke="midnightblue" d="M199.8,-223.41C174.2,-205.46 142.48,-181.53 117,-157 114,-154.11 111.01,-151.09 108.06,-147.97"/>
<polygon fill="none" stroke="midnightblue" points="198.03,-226.43 208.24,-229.26 202.02,-220.68 198.03,-226.43"/>
</g>
<!-- Node3 -->
<g id="node3" class="node">
<title>Node3</title>
<g id="a_node3"><a xlink:href="class_dehumid_actuator.html" target="_top" xlink:title=" ">
<polygon fill="none" stroke="black" points="126.5,-0.5 126.5,-156.5 241.5,-156.5 241.5,-0.5 126.5,-0.5"/>
<text text-anchor="middle" x="184" y="-144.5" font-family="Helvetica,sans-Serif" font-size="10.00">DehumidActuator</text>
<polyline fill="none" stroke="black" points="126.5,-137.5 241.5,-137.5 "/>
<text text-anchor="start" x="134.5" y="-125.5" font-family="Helvetica,sans-Serif" font-size="10.00">&#45; _initialized</text>
<text text-anchor="start" x="134.5" y="-114.5" font-family="Helvetica,sans-Serif" font-size="10.00">&#45; _level</text>
<polyline fill="none" stroke="black" points="126.5,-107.5 241.5,-107.5 "/>
<text text-anchor="start" x="134.5" y="-95.5" font-family="Helvetica,sans-Serif" font-size="10.00">+ DehumidActuator()</text>
<text text-anchor="start" x="134.5" y="-84.5" font-family="Helvetica,sans-Serif" font-size="10.00">+ ~DehumidActuator()</text>
<text text-anchor="start" x="134.5" y="-73.5" font-family="Helvetica,sans-Serif" font-size="10.00">+ init()</text>
<text text-anchor="start" x="134.5" y="-62.5" font-family="Helvetica,sans-Serif" font-size="10.00">+ deinit()</text>
<text text-anchor="start" x="134.5" y="-51.5" font-family="Helvetica,sans-Serif" font-size="10.00">+ on()</text>
<text text-anchor="start" x="134.5" y="-40.5" font-family="Helvetica,sans-Serif" font-size="10.00">+ off()</text>
<text text-anchor="start" x="134.5" y="-29.5" font-family="Helvetica,sans-Serif" font-size="10.00">+ start()</text>
<text text-anchor="start" x="134.5" y="-18.5" font-family="Helvetica,sans-Serif" font-size="10.00">+ stop()</text>
<text text-anchor="start" x="134.5" y="-7.5" font-family="Helvetica,sans-Serif" font-size="10.00">+ get()</text>
</a>
</g>
</g>
<!-- Node1&#45;&gt;Node3 -->
<g id="edge2" class="edge">
<title>Node1&#45;&gt;Node3</title>
<path fill="none" stroke="midnightblue" d="M221.07,-183.83C217.88,-174.85 214.6,-165.62 211.37,-156.53"/>
<polygon fill="none" stroke="midnightblue" points="217.84,-185.21 224.49,-193.46 224.44,-182.86 217.84,-185.21"/>
</g>
<!-- Node4 -->
<g id="node4" class="node">
<title>Node4</title>
<g id="a_node4"><a xlink:href="class_heat_actuator.html" target="_top" xlink:title=" ">
<polygon fill="none" stroke="black" points="260,-11.5 260,-145.5 356,-145.5 356,-11.5 260,-11.5"/>
<text text-anchor="middle" x="308" y="-133.5" font-family="Helvetica,sans-Serif" font-size="10.00">HeatActuator</text>
<polyline fill="none" stroke="black" points="260,-126.5 356,-126.5 "/>
<text text-anchor="start" x="268" y="-114.5" font-family="Helvetica,sans-Serif" font-size="10.00">&#45; _initialized</text>
<polyline fill="none" stroke="black" points="260,-107.5 356,-107.5 "/>
<text text-anchor="start" x="268" y="-95.5" font-family="Helvetica,sans-Serif" font-size="10.00">+ HeatActuator()</text>
<text text-anchor="start" x="268" y="-84.5" font-family="Helvetica,sans-Serif" font-size="10.00">+ ~HeatActuator()</text>
<text text-anchor="start" x="268" y="-73.5" font-family="Helvetica,sans-Serif" font-size="10.00">+ init()</text>
<text text-anchor="start" x="268" y="-62.5" font-family="Helvetica,sans-Serif" font-size="10.00">+ deinit()</text>
<text text-anchor="start" x="268" y="-51.5" font-family="Helvetica,sans-Serif" font-size="10.00">+ on()</text>
<text text-anchor="start" x="268" y="-40.5" font-family="Helvetica,sans-Serif" font-size="10.00">+ off()</text>
<text text-anchor="start" x="268" y="-29.5" font-family="Helvetica,sans-Serif" font-size="10.00">+ start()</text>
<text text-anchor="start" x="268" y="-18.5" font-family="Helvetica,sans-Serif" font-size="10.00">+ stop()</text>
</a>
</g>
</g>
<!-- Node1&#45;&gt;Node4 -->
<g id="edge3" class="edge">
<title>Node1&#45;&gt;Node4</title>
<path fill="none" stroke="midnightblue" d="M270.9,-183.91C275.4,-171.26 280.07,-158.12 284.52,-145.59"/>
<polygon fill="none" stroke="midnightblue" points="267.56,-182.86 267.51,-193.46 274.16,-185.21 267.56,-182.86"/>
</g>
<!-- Node5 -->
<g id="node5" class="node">
<title>Node5</title>
<g id="a_node5"><a xlink:href="class_roller_actuator.html" target="_top" xlink:title=" ">
<polygon fill="none" stroke="black" points="374.5,-11.5 374.5,-145.5 475.5,-145.5 475.5,-11.5 374.5,-11.5"/>
<text text-anchor="middle" x="425" y="-133.5" font-family="Helvetica,sans-Serif" font-size="10.00">RollerActuator</text>
<polyline fill="none" stroke="black" points="374.5,-126.5 475.5,-126.5 "/>
<text text-anchor="start" x="382.5" y="-114.5" font-family="Helvetica,sans-Serif" font-size="10.00">&#45; _initialized</text>
<polyline fill="none" stroke="black" points="374.5,-107.5 475.5,-107.5 "/>
<text text-anchor="start" x="382.5" y="-95.5" font-family="Helvetica,sans-Serif" font-size="10.00">+ RollerActuator()</text>
<text text-anchor="start" x="382.5" y="-84.5" font-family="Helvetica,sans-Serif" font-size="10.00">+ ~RollerActuator()</text>
<text text-anchor="start" x="382.5" y="-73.5" font-family="Helvetica,sans-Serif" font-size="10.00">+ init()</text>
<text text-anchor="start" x="382.5" y="-62.5" font-family="Helvetica,sans-Serif" font-size="10.00">+ deinit()</text>
<text text-anchor="start" x="382.5" y="-51.5" font-family="Helvetica,sans-Serif" font-size="10.00">+ on()</text>
<text text-anchor="start" x="382.5" y="-40.5" font-family="Helvetica,sans-Serif" font-size="10.00">+ off()</text>
<text text-anchor="start" x="382.5" y="-29.5" font-family="Helvetica,sans-Serif" font-size="10.00">+ start()</text>
<text text-anchor="start" x="382.5" y="-18.5" font-family="Helvetica,sans-Serif" font-size="10.00">+ stop()</text>
</a>
</g>
</g>
<!-- Node1&#45;&gt;Node5 -->
<g id="edge4" class="edge">
<title>Node1&#45;&gt;Node5</title>
<path fill="none" stroke="midnightblue" d="M291.47,-220.88C314.57,-203.1 342.44,-180.13 365,-157 368.56,-153.35 372.12,-149.48 375.61,-145.51"/>
<polygon fill="none" stroke="midnightblue" points="289.35,-218.1 283.52,-226.94 293.59,-223.67 289.35,-218.1"/>
</g>
</g>
</svg>
