<?xml version="1.0" encoding="UTF-8" standalone="no"?>
<!DOCTYPE svg PUBLIC "-//W3C//DTD SVG 1.1//EN"
 "http://www.w3.org/Graphics/SVG/1.1/DTD/svg11.dtd">
<!-- Generated by graphviz version 2.50.0 (20211204.2007)
 -->
<!-- Title: Actuator Pages: 1 -->
<!--zoomable 347 -->
<svg id="main" version="1.1" xmlns="http://www.w3.org/2000/svg" xmlns:xlink="http://www.w3.org/1999/xlink" xml:space="preserve" onload="init(evt)">
<style type="text/css"><![CDATA[
.edge:hover path { stroke: red; }
.edge:hover polygon { stroke: red; fill: red; }
]]></style>
<script type="text/javascript"><![CDATA[
var edges = document.getElementsByTagName('g');
if (edges && edges.length) {
  for (var i=0;i<edges.length;i++) {
    if (edges[i].id.substr(0,4)=='edge') {
      edges[i].setAttribute('class','edge');
    }
  }
}
]]></script>
        <defs>
                <circle id="rim" cx="0" cy="0" r="7"/>
                <circle id="rim2" cx="0" cy="0" r="3.5"/>
                <g id="zoomPlus">
                        <use xlink:href="#rim" fill="#404040">
                                <set attributeName="fill" to="#808080" begin="zoomplus.mouseover" end="zoomplus.mouseout"/>
                        </use>
                        <path d="M-4,0h8M0,-4v8" fill="none" stroke="white" stroke-width="1.5" pointer-events="none"/>
                </g>
                <g id="zoomMin">
                        <use xlink:href="#rim" fill="#404040">
                                <set attributeName="fill" to="#808080" begin="zoomminus.mouseover" end="zoomminus.mouseout"/>
                        </use>
                        <path d="M-4,0h8" fill="none" stroke="white" stroke-width="1.5" pointer-events="none"/>
                </g>
                <g id="dirArrow">
                        <path fill="none" stroke="white" stroke-width="1.5" d="M0,-3.0v7 M-2.5,-0.5L0,-3.0L2.5,-0.5"/>
                </g>
               <g id="resetDef">
                       <use xlink:href="#rim2" fill="#404040">
                               <set attributeName="fill" to="#808080" begin="reset.mouseover" end="reset.mouseout"/>
                       </use>
               </g>
        </defs>

<script type="text/javascript">
var viewWidth = 734;
var viewHeight = 347;
var sectionId = 'dynsection-0';
</script>
<script xlink:href="svgpan.js"/>
<svg id="graph" class="graph">
<g id="viewport">
<title>Actuator</title>
<!-- Node1 -->
<g id="node1" class="node">
<title>Node1</title>
<g id="a_node1"><a xlink:title=" ">
<polygon fill="#bfbfbf" stroke="black" points="328.5,-204.5 328.5,-338.5 402.5,-338.5 402.5,-204.5 328.5,-204.5"/>
<text text-anchor="middle" x="365.5" y="-326.5" font-family="Helvetica,sans-Serif" font-size="10.00">Actuator</text>
<polyline fill="none" stroke="black" points="328.5,-319.5 402.5,-319.5 "/>
<text text-anchor="middle" x="365.5" y="-307.5" font-family="Helvetica,sans-Serif" font-size="10.00"> </text>
<polyline fill="none" stroke="black" points="328.5,-300.5 402.5,-300.5 "/>
<text text-anchor="start" x="336.5" y="-288.5" font-family="Helvetica,sans-Serif" font-size="10.00">+ ~Actuator()</text>
<text text-anchor="start" x="336.5" y="-277.5" font-family="Helvetica,sans-Serif" font-size="10.00">+ init()</text>
<text text-anchor="start" x="336.5" y="-266.5" font-family="Helvetica,sans-Serif" font-size="10.00">+ deinit()</text>
<text text-anchor="start" x="336.5" y="-255.5" font-family="Helvetica,sans-Serif" font-size="10.00">+ get()</text>
<text text-anchor="start" x="336.5" y="-244.5" font-family="Helvetica,sans-Serif" font-size="10.00">+ on()</text>
<text text-anchor="start" x="336.5" y="-233.5" font-family="Helvetica,sans-Serif" font-size="10.00">+ off()</text>
<text text-anchor="start" x="336.5" y="-222.5" font-family="Helvetica,sans-Serif" font-size="10.00">+ start()</text>
<text text-anchor="start" x="336.5" y="-211.5" font-family="Helvetica,sans-Serif" font-size="10.00">+ stop()</text>
</a>
</g>
</g>
<!-- Node2 -->
<g id="node2" class="node">
<title>Node2</title>
<g id="a_node2"><a xlink:href="class_air_flow_actuator.html" target="_top" xlink:title=" ">
<polygon fill="none" stroke="black" points="0,-6 0,-162 107,-162 107,-6 0,-6"/>
<text text-anchor="middle" x="53.5" y="-150" font-family="Helvetica,sans-Serif" font-size="10.00">AirFlowActuator</text>
<polyline fill="none" stroke="black" points="0,-143 107,-143 "/>
<text text-anchor="start" x="8" y="-131" font-family="Helvetica,sans-Serif" font-size="10.00">&#45; _initialized</text>
<text text-anchor="start" x="8" y="-120" font-family="Helvetica,sans-Serif" font-size="10.00">&#45; _level</text>
<polyline fill="none" stroke="black" points="0,-113 107,-113 "/>
<text text-anchor="start" x="8" y="-101" font-family="Helvetica,sans-Serif" font-size="10.00">+ AirFlowActuator()</text>
<text text-anchor="start" x="8" y="-90" font-family="Helvetica,sans-Serif" font-size="10.00">+ ~AirFlowActuator()</text>
<text text-anchor="start" x="8" y="-79" font-family="Helvetica,sans-Serif" font-size="10.00">+ init()</text>
<text text-anchor="start" x="8" y="-68" font-family="Helvetica,sans-Serif" font-size="10.00">+ deinit()</text>
<text text-anchor="start" x="8" y="-57" font-family="Helvetica,sans-Serif" font-size="10.00">+ on()</text>
<text text-anchor="start" x="8" y="-46" font-family="Helvetica,sans-Serif" font-size="10.00">+ off()</text>
<text text-anchor="start" x="8" y="-35" font-family="Helvetica,sans-Serif" font-size="10.00">+ start()</text>
<text text-anchor="start" x="8" y="-24" font-family="Helvetica,sans-Serif" font-size="10.00">+ stop()</text>
<text text-anchor="start" x="8" y="-13" font-family="Helvetica,sans-Serif" font-size="10.00">+ get()</text>
</a>
</g>
</g>
<!-- Node1&#45;&gt;Node2 -->
<g id="edge1" class="edge">
<title>Node1&#45;&gt;Node2</title>
<path fill="none" stroke="midnightblue" d="M318.53,-259.4C265.18,-245.06 177.51,-216.04 115.5,-168 112.66,-165.8 109.88,-163.43 107.17,-160.94"/>
<polygon fill="none" stroke="midnightblue" points="317.84,-262.84 328.4,-261.99 319.62,-256.07 317.84,-262.84"/>
</g>
<!-- Node3 -->
<g id="node3" class="node">
<title>Node3</title>
<g id="a_node3"><a xlink:href="class_dehumid_actuator.html" target="_top" xlink:title=" ">
<polygon fill="none" stroke="black" points="125,-6 125,-162 238,-162 238,-6 125,-6"/>
<text text-anchor="middle" x="181.5" y="-150" font-family="Helvetica,sans-Serif" font-size="10.00">DehumidActuator</text>
<polyline fill="none" stroke="black" points="125,-143 238,-143 "/>
<text text-anchor="start" x="133" y="-131" font-family="Helvetica,sans-Serif" font-size="10.00">&#45; _initialized</text>
<text text-anchor="start" x="133" y="-120" font-family="Helvetica,sans-Serif" font-size="10.00">&#45; _level</text>
<polyline fill="none" stroke="black" points="125,-113 238,-113 "/>
<text text-anchor="start" x="133" y="-101" font-family="Helvetica,sans-Serif" font-size="10.00">+ DehumidActuator()</text>
<text text-anchor="start" x="133" y="-90" font-family="Helvetica,sans-Serif" font-size="10.00">+ ~DehumidActuator()</text>
<text text-anchor="start" x="133" y="-79" font-family="Helvetica,sans-Serif" font-size="10.00">+ init()</text>
<text text-anchor="start" x="133" y="-68" font-family="Helvetica,sans-Serif" font-size="10.00">+ deinit()</text>
<text text-anchor="start" x="133" y="-57" font-family="Helvetica,sans-Serif" font-size="10.00">+ on()</text>
<text text-anchor="start" x="133" y="-46" font-family="Helvetica,sans-Serif" font-size="10.00">+ off()</text>
<text text-anchor="start" x="133" y="-35" font-family="Helvetica,sans-Serif" font-size="10.00">+ start()</text>
<text text-anchor="start" x="133" y="-24" font-family="Helvetica,sans-Serif" font-size="10.00">+ stop()</text>
<text text-anchor="start" x="133" y="-13" font-family="Helvetica,sans-Serif" font-size="10.00">+ get()</text>
</a>
</g>
</g>
<!-- Node1&#45;&gt;Node3 -->
<g id="edge2" class="edge">
<title>Node1&#45;&gt;Node3</title>
<path fill="none" stroke="midnightblue" d="M320.5,-235.27C297.41,-216.33 269.4,-192 246.5,-168 243.72,-165.09 240.94,-162.06 238.17,-158.97"/>
<polygon fill="none" stroke="midnightblue" points="318.48,-238.14 328.45,-241.73 322.9,-232.71 318.48,-238.14"/>
</g>
<!-- Node4 -->
<g id="node4" class="node">
<title>Node4</title>
<g id="a_node4"><a xlink:href="class_heat_actuator.html" target="_top" xlink:title=" ">
<polygon fill="none" stroke="black" points="256,-6 256,-162 351,-162 351,-6 256,-6"/>
<text text-anchor="middle" x="303.5" y="-150" font-family="Helvetica,sans-Serif" font-size="10.00">HeatActuator</text>
<polyline fill="none" stroke="black" points="256,-143 351,-143 "/>
<text text-anchor="start" x="264" y="-131" font-family="Helvetica,sans-Serif" font-size="10.00">&#45; _initialized</text>
<text text-anchor="start" x="264" y="-120" font-family="Helvetica,sans-Serif" font-size="10.00">&#45; _level</text>
<polyline fill="none" stroke="black" points="256,-113 351,-113 "/>
<text text-anchor="start" x="264" y="-101" font-family="Helvetica,sans-Serif" font-size="10.00">+ HeatActuator()</text>
<text text-anchor="start" x="264" y="-90" font-family="Helvetica,sans-Serif" font-size="10.00">+ ~HeatActuator()</text>
<text text-anchor="start" x="264" y="-79" font-family="Helvetica,sans-Serif" font-size="10.00">+ init()</text>
<text text-anchor="start" x="264" y="-68" font-family="Helvetica,sans-Serif" font-size="10.00">+ deinit()</text>
<text text-anchor="start" x="264" y="-57" font-family="Helvetica,sans-Serif" font-size="10.00">+ on()</text>
<text text-anchor="start" x="264" y="-46" font-family="Helvetica,sans-Serif" font-size="10.00">+ off()</text>
<text text-anchor="start" x="264" y="-35" font-family="Helvetica,sans-Serif" font-size="10.00">+ start()</text>
<text text-anchor="start" x="264" y="-24" font-family="Helvetica,sans-Serif" font-size="10.00">+ stop()</text>
<text text-anchor="start" x="264" y="-13" font-family="Helvetica,sans-Serif" font-size="10.00">+ get()</text>
</a>
</g>
</g>
<!-- Node1&#45;&gt;Node4 -->
<g id="edge3" class="edge">
<title>Node1&#45;&gt;Node4</title>
<path fill="none" stroke="midnightblue" d="M340.14,-194.61C336.57,-183.93 332.89,-172.94 329.32,-162.24"/>
<polygon fill="none" stroke="midnightblue" points="336.89,-195.94 343.38,-204.32 343.53,-193.72 336.89,-195.94"/>
</g>
<!-- Node5 -->
<g id="node5" class="node">
<title>Node5</title>
<g id="a_node5"><a xlink:href="class_heat_flow_actuator.html" target="_top" xlink:title=" ">
<polygon fill="none" stroke="black" points="369.5,-6 369.5,-162 485.5,-162 485.5,-6 369.5,-6"/>
<text text-anchor="middle" x="427.5" y="-150" font-family="Helvetica,sans-Serif" font-size="10.00">HeatFlowActuator</text>
<polyline fill="none" stroke="black" points="369.5,-143 485.5,-143 "/>
<text text-anchor="start" x="377.5" y="-131" font-family="Helvetica,sans-Serif" font-size="10.00">&#45; _initialized</text>
<text text-anchor="start" x="377.5" y="-120" font-family="Helvetica,sans-Serif" font-size="10.00">&#45; _level</text>
<polyline fill="none" stroke="black" points="369.5,-113 485.5,-113 "/>
<text text-anchor="start" x="377.5" y="-101" font-family="Helvetica,sans-Serif" font-size="10.00">+ HeatFlowActuator()</text>
<text text-anchor="start" x="377.5" y="-90" font-family="Helvetica,sans-Serif" font-size="10.00">+ ~HeatFlowActuator()</text>
<text text-anchor="start" x="377.5" y="-79" font-family="Helvetica,sans-Serif" font-size="10.00">+ init()</text>
<text text-anchor="start" x="377.5" y="-68" font-family="Helvetica,sans-Serif" font-size="10.00">+ deinit()</text>
<text text-anchor="start" x="377.5" y="-57" font-family="Helvetica,sans-Serif" font-size="10.00">+ on()</text>
<text text-anchor="start" x="377.5" y="-46" font-family="Helvetica,sans-Serif" font-size="10.00">+ off()</text>
<text text-anchor="start" x="377.5" y="-35" font-family="Helvetica,sans-Serif" font-size="10.00">+ start()</text>
<text text-anchor="start" x="377.5" y="-24" font-family="Helvetica,sans-Serif" font-size="10.00">+ stop()</text>
<text text-anchor="start" x="377.5" y="-13" font-family="Helvetica,sans-Serif" font-size="10.00">+ get()</text>
</a>
</g>
</g>
<!-- Node1&#45;&gt;Node5 -->
<g id="edge4" class="edge">
<title>Node1&#45;&gt;Node5</title>
<path fill="none" stroke="midnightblue" d="M390.86,-194.61C394.43,-183.93 398.11,-172.94 401.68,-162.24"/>
<polygon fill="none" stroke="midnightblue" points="387.47,-193.72 387.62,-204.32 394.11,-195.94 387.47,-193.72"/>
</g>
<!-- Node6 -->
<g id="node6" class="node">
<title>Node6</title>
<g id="a_node6"><a xlink:href="class_humid_actuator.html" target="_top" xlink:title=" ">
<polygon fill="none" stroke="black" points="504,-0.5 504,-167.5 607,-167.5 607,-0.5 504,-0.5"/>
<text text-anchor="middle" x="555.5" y="-155.5" font-family="Helvetica,sans-Serif" font-size="10.00">HumidActuator</text>
<polyline fill="none" stroke="black" points="504,-148.5 607,-148.5 "/>
<text text-anchor="start" x="512" y="-136.5" font-family="Helvetica,sans-Serif" font-size="10.00">&#45; _initialized</text>
<text text-anchor="start" x="512" y="-125.5" font-family="Helvetica,sans-Serif" font-size="10.00">&#45; _level</text>
<polyline fill="none" stroke="black" points="504,-118.5 607,-118.5 "/>
<text text-anchor="start" x="512" y="-106.5" font-family="Helvetica,sans-Serif" font-size="10.00">+ HumidActuator()</text>
<text text-anchor="start" x="512" y="-95.5" font-family="Helvetica,sans-Serif" font-size="10.00">+ ~HumidActuator()</text>
<text text-anchor="start" x="512" y="-84.5" font-family="Helvetica,sans-Serif" font-size="10.00">+ init()</text>
<text text-anchor="start" x="512" y="-73.5" font-family="Helvetica,sans-Serif" font-size="10.00">+ deinit()</text>
<text text-anchor="start" x="512" y="-62.5" font-family="Helvetica,sans-Serif" font-size="10.00">+ on()</text>
<text text-anchor="start" x="512" y="-51.5" font-family="Helvetica,sans-Serif" font-size="10.00">+ off()</text>
<text text-anchor="start" x="512" y="-40.5" font-family="Helvetica,sans-Serif" font-size="10.00">+ start()</text>
<text text-anchor="start" x="512" y="-29.5" font-family="Helvetica,sans-Serif" font-size="10.00">+ stop()</text>
<text text-anchor="start" x="512" y="-18.5" font-family="Helvetica,sans-Serif" font-size="10.00">+ get()</text>
<text text-anchor="start" x="512" y="-7.5" font-family="Helvetica,sans-Serif" font-size="10.00">&#45; _press()</text>
</a>
</g>
</g>
<!-- Node1&#45;&gt;Node6 -->
<g id="edge5" class="edge">
<title>Node1&#45;&gt;Node6</title>
<path fill="none" stroke="midnightblue" d="M410.87,-239.09C436.78,-220.05 469.08,-194.4 494.5,-168 497.6,-164.78 500.68,-161.4 503.71,-157.91"/>
<polygon fill="none" stroke="midnightblue" points="408.73,-236.32 402.7,-245.03 412.84,-241.98 408.73,-236.32"/>
</g>
<!-- Node7 -->
<g id="node7" class="node">
<title>Node7</title>
<g id="a_node7"><a xlink:href="class_roller_actuator.html" target="_top" xlink:title=" ">
<polygon fill="none" stroke="black" points="625.5,-6 625.5,-162 725.5,-162 725.5,-6 625.5,-6"/>
<text text-anchor="middle" x="675.5" y="-150" font-family="Helvetica,sans-Serif" font-size="10.00">RollerActuator</text>
<polyline fill="none" stroke="black" points="625.5,-143 725.5,-143 "/>
<text text-anchor="start" x="633.5" y="-131" font-family="Helvetica,sans-Serif" font-size="10.00">&#45; _initialized</text>
<text text-anchor="start" x="633.5" y="-120" font-family="Helvetica,sans-Serif" font-size="10.00">&#45; _level</text>
<polyline fill="none" stroke="black" points="625.5,-113 725.5,-113 "/>
<text text-anchor="start" x="633.5" y="-101" font-family="Helvetica,sans-Serif" font-size="10.00">+ RollerActuator()</text>
<text text-anchor="start" x="633.5" y="-90" font-family="Helvetica,sans-Serif" font-size="10.00">+ ~RollerActuator()</text>
<text text-anchor="start" x="633.5" y="-79" font-family="Helvetica,sans-Serif" font-size="10.00">+ init()</text>
<text text-anchor="start" x="633.5" y="-68" font-family="Helvetica,sans-Serif" font-size="10.00">+ deinit()</text>
<text text-anchor="start" x="633.5" y="-57" font-family="Helvetica,sans-Serif" font-size="10.00">+ on()</text>
<text text-anchor="start" x="633.5" y="-46" font-family="Helvetica,sans-Serif" font-size="10.00">+ off()</text>
<text text-anchor="start" x="633.5" y="-35" font-family="Helvetica,sans-Serif" font-size="10.00">+ start()</text>
<text text-anchor="start" x="633.5" y="-24" font-family="Helvetica,sans-Serif" font-size="10.00">+ stop()</text>
<text text-anchor="start" x="633.5" y="-13" font-family="Helvetica,sans-Serif" font-size="10.00">+ get()</text>
</a>
</g>
</g>
<!-- Node1&#45;&gt;Node7 -->
<g id="edge6" class="edge">
<title>Node1&#45;&gt;Node7</title>
<path fill="none" stroke="midnightblue" d="M412.87,-259.71C466.62,-245.65 554.82,-216.89 616.5,-168 619.55,-165.58 622.51,-162.97 625.37,-160.21"/>
<polygon fill="none" stroke="midnightblue" points="411.74,-256.38 402.92,-262.25 413.47,-263.17 411.74,-256.38"/>
</g>
</g>
</svg>
        <g id="navigator" transform="translate(0 0)" fill="#404254">
                <rect fill="#f2f5e9" fill-opacity="0.5" stroke="#606060" stroke-width=".5" x="0" y="0" width="60" height="60"/>
                <use id="zoomplus" xlink:href="#zoomPlus" x="17" y="9" onmousedown="handleZoom(evt,'in')"/>
                <use id="zoomminus" xlink:href="#zoomMin" x="42" y="9" onmousedown="handleZoom(evt,'out')"/>
                <use id="reset" xlink:href="#resetDef" x="30" y="36" onmousedown="handleReset()"/>
                <g id="arrowUp" xlink:href="#dirArrow" transform="translate(30 24)" onmousedown="handlePan(0,-1)">
                  <use xlink:href="#rim" fill="#404040">
                        <set attributeName="fill" to="#808080" begin="arrowUp.mouseover" end="arrowUp.mouseout"/>
                  </use>
                  <path fill="none" stroke="white" stroke-width="1.5" d="M0,-3.0v7 M-2.5,-0.5L0,-3.0L2.5,-0.5"/>
                </g>
                <g id="arrowRight" xlink:href="#dirArrow" transform="rotate(90) translate(36 -43)" onmousedown="handlePan(1,0)">
                  <use xlink:href="#rim" fill="#404040">
                        <set attributeName="fill" to="#808080" begin="arrowRight.mouseover" end="arrowRight.mouseout"/>
                  </use>
                  <path fill="none" stroke="white" stroke-width="1.5" d="M0,-3.0v7 M-2.5,-0.5L0,-3.0L2.5,-0.5"/>
                </g>
                <g id="arrowDown" xlink:href="#dirArrow" transform="rotate(180) translate(-30 -48)" onmousedown="handlePan(0,1)">
                  <use xlink:href="#rim" fill="#404040">
                        <set attributeName="fill" to="#808080" begin="arrowDown.mouseover" end="arrowDown.mouseout"/>
                  </use>
                  <path fill="none" stroke="white" stroke-width="1.5" d="M0,-3.0v7 M-2.5,-0.5L0,-3.0L2.5,-0.5"/>
                </g>
                <g id="arrowLeft" xlink:href="#dirArrow" transform="rotate(270) translate(-36 17)" onmousedown="handlePan(-1,0)">
                  <use xlink:href="#rim" fill="#404040">
                        <set attributeName="fill" to="#808080" begin="arrowLeft.mouseover" end="arrowLeft.mouseout"/>
                  </use>
                  <path fill="none" stroke="white" stroke-width="1.5" d="M0,-3.0v7 M-2.5,-0.5L0,-3.0L2.5,-0.5"/>
                </g>
        </g>
        <svg viewBox="0 0 15 15" width="100%" height="30px" preserveAspectRatio="xMaxYMin meet">
         <g id="arrow_out" transform="scale(0.3 0.3)">
          <a xlink:href="struct_actuator__inherit__graph_org.svg" target="_base">
           <rect id="button" ry="5" rx="5" y="6" x="6" height="38" width="38"
                fill="#f2f5e9" fill-opacity="0.5" stroke="#606060" stroke-width="1.0"/>
           <path id="arrow"
             d="M 11.500037,31.436501 C 11.940474,20.09759 22.043105,11.32322 32.158766,21.979434 L 37.068811,17.246167 C 37.068811,17.246167 37.088388,32 37.088388,32 L 22.160133,31.978069 C 22.160133,31.978069 26.997745,27.140456 26.997745,27.140456 C 18.528582,18.264221 13.291696,25.230495 11.500037,31.436501 z"
             style="fill:#404040;"/>
          </a>
         </g>
        </svg>
</svg>
