<?xml version="1.0" encoding="UTF-8" standalone="no"?>
<!DOCTYPE svg PUBLIC "-//W3C//DTD SVG 1.1//EN"
 "http://www.w3.org/Graphics/SVG/1.1/DTD/svg11.dtd">
<!-- Generated by graphviz version 2.48.0 (20210717.1556)
 -->
<!-- Title: _phase Pages: 1 -->
<svg width="316pt" height="309pt"
 viewBox="0.00 0.00 315.50 309.00" xmlns="http://www.w3.org/2000/svg" xmlns:xlink="http://www.w3.org/1999/xlink">
<g id="graph0" class="graph" transform="scale(1 1) rotate(0) translate(4 305)">
<title>_phase</title>
<!-- Node1 -->
<g id="node1" class="node">
<title>Node1</title>
<g id="a_node1"><a xlink:title=" ">
<polygon fill="#bfbfbf" stroke="black" points="147,-0.5 147,-57.5 196,-57.5 196,-0.5 147,-0.5"/>
<text text-anchor="middle" x="171.5" y="-45.5" font-family="Helvetica,sans-Serif" font-size="10.00">_phase</text>
<polyline fill="none" stroke="black" points="147,-38.5 196,-38.5 "/>
<text text-anchor="middle" x="171.5" y="-26.5" font-family="Helvetica,sans-Serif" font-size="10.00"> </text>
<polyline fill="none" stroke="black" points="147,-19.5 196,-19.5 "/>
<text text-anchor="middle" x="171.5" y="-7.5" font-family="Helvetica,sans-Serif" font-size="10.00"> </text>
</a>
</g>
</g>
<!-- Node2 -->
<g id="node2" class="node">
<title>Node2</title>
<g id="a_node2"><a xlink:href="struct__fomula.html" target="_top" xlink:title=" ">
<polygon fill="none" stroke="black" points="101.5,-105.5 101.5,-162.5 153.5,-162.5 153.5,-105.5 101.5,-105.5"/>
<text text-anchor="middle" x="127.5" y="-150.5" font-family="Helvetica,sans-Serif" font-size="10.00">_fomula</text>
<polyline fill="none" stroke="black" points="101.5,-143.5 153.5,-143.5 "/>
<text text-anchor="middle" x="127.5" y="-131.5" font-family="Helvetica,sans-Serif" font-size="10.00"> </text>
<polyline fill="none" stroke="black" points="101.5,-124.5 153.5,-124.5 "/>
<text text-anchor="middle" x="127.5" y="-112.5" font-family="Helvetica,sans-Serif" font-size="10.00"> </text>
</a>
</g>
</g>
<!-- Node2&#45;&gt;Node1 -->
<g id="edge1" class="edge">
<title>Node2&#45;&gt;Node1</title>
<path fill="none" stroke="#404040" d="M139.29,-105.4C144.08,-94.2 149.69,-81.06 154.87,-68.92"/>
<polygon fill="none" stroke="#404040" points="154.96,-68.71 153.64,-61.62 159.68,-57.68 161,-64.77 154.96,-68.71"/>
<text text-anchor="middle" x="167" y="-79" font-family="Helvetica,sans-Serif" font-size="10.00"> +body</text>
</g>
<!-- Node3 -->
<g id="node3" class="node">
<title>Node3</title>
<g id="a_node3"><a xlink:title=" ">
<polygon fill="none" stroke="#bfbfbf" points="0,-243.5 0,-300.5 35,-300.5 35,-243.5 0,-243.5"/>
<text text-anchor="middle" x="17.5" y="-288.5" font-family="Helvetica,sans-Serif" font-size="10.00">float</text>
<polyline fill="none" stroke="#bfbfbf" points="0,-281.5 35,-281.5 "/>
<text text-anchor="middle" x="17.5" y="-269.5" font-family="Helvetica,sans-Serif" font-size="10.00"> </text>
<polyline fill="none" stroke="#bfbfbf" points="0,-262.5 35,-262.5 "/>
<text text-anchor="middle" x="17.5" y="-250.5" font-family="Helvetica,sans-Serif" font-size="10.00"> </text>
</a>
</g>
</g>
<!-- Node3&#45;&gt;Node2 -->
<g id="edge2" class="edge">
<title>Node3&#45;&gt;Node2</title>
<path fill="none" stroke="#404040" d="M15.38,-243.25C15.35,-224.02 18.29,-198.77 31.5,-181 45.51,-162.15 69.26,-150.68 89.63,-143.91"/>
<polygon fill="none" stroke="#404040" points="89.65,-143.9 94.24,-138.34 101.14,-140.44 96.55,-146 89.65,-143.9"/>
<text text-anchor="middle" x="75" y="-217" font-family="Helvetica,sans-Serif" font-size="10.00"> +humidHigherLimit</text>
<text text-anchor="middle" x="75" y="-206" font-family="Helvetica,sans-Serif" font-size="10.00">+humidLowerLimit</text>
<text text-anchor="middle" x="75" y="-195" font-family="Helvetica,sans-Serif" font-size="10.00">+tempHigherLimit</text>
<text text-anchor="middle" x="75" y="-184" font-family="Helvetica,sans-Serif" font-size="10.00">+tempLowerLimit</text>
</g>
<!-- Node4 -->
<g id="node4" class="node">
<title>Node4</title>
<g id="a_node4"><a xlink:title=" ">
<polygon fill="none" stroke="#bfbfbf" points="143,-243.5 143,-300.5 200,-300.5 200,-243.5 143,-243.5"/>
<text text-anchor="middle" x="171.5" y="-288.5" font-family="Helvetica,sans-Serif" font-size="10.00">unsigned</text>
<polyline fill="none" stroke="#bfbfbf" points="143,-281.5 200,-281.5 "/>
<text text-anchor="middle" x="171.5" y="-269.5" font-family="Helvetica,sans-Serif" font-size="10.00"> </text>
<polyline fill="none" stroke="#bfbfbf" points="143,-262.5 200,-262.5 "/>
<text text-anchor="middle" x="171.5" y="-250.5" font-family="Helvetica,sans-Serif" font-size="10.00"> </text>
</a>
</g>
</g>
<!-- Node4&#45;&gt;Node2 -->
<g id="edge3" class="edge">
<title>Node4&#45;&gt;Node2</title>
<path fill="none" stroke="#404040" d="M142.65,-246.69C136.91,-240.28 131.67,-232.91 128.5,-225 122.26,-209.44 121.07,-191.11 121.8,-175.06"/>
<polygon fill="none" stroke="#404040" points="121.83,-174.75 118.29,-168.46 122.74,-162.78 126.27,-169.07 121.83,-174.75"/>
<text text-anchor="middle" x="161" y="-206" font-family="Helvetica,sans-Serif" font-size="10.00"> +airFlowLevel</text>
<text text-anchor="middle" x="161" y="-195" font-family="Helvetica,sans-Serif" font-size="10.00">+rollInterval</text>
</g>
<!-- Node5 -->
<g id="node5" class="node">
<title>Node5</title>
<g id="a_node5"><a xlink:href="struct__phase__header.html" target="_top" xlink:title=" ">
<polygon fill="none" stroke="black" points="172.5,-105.5 172.5,-162.5 258.5,-162.5 258.5,-105.5 172.5,-105.5"/>
<text text-anchor="middle" x="215.5" y="-150.5" font-family="Helvetica,sans-Serif" font-size="10.00">_phase_header</text>
<polyline fill="none" stroke="black" points="172.5,-143.5 258.5,-143.5 "/>
<text text-anchor="middle" x="215.5" y="-131.5" font-family="Helvetica,sans-Serif" font-size="10.00"> </text>
<polyline fill="none" stroke="black" points="172.5,-124.5 258.5,-124.5 "/>
<text text-anchor="middle" x="215.5" y="-112.5" font-family="Helvetica,sans-Serif" font-size="10.00"> </text>
</a>
</g>
</g>
<!-- Node4&#45;&gt;Node5 -->
<g id="edge6" class="edge">
<title>Node4&#45;&gt;Node5</title>
<path fill="none" stroke="#404040" d="M185.94,-243.17C188.68,-237.27 191.36,-231 193.5,-225 199.26,-208.86 204.04,-190.57 207.65,-174.71"/>
<polygon fill="none" stroke="#404040" points="207.73,-174.33 205.11,-167.61 210.29,-162.61 212.92,-169.32 207.73,-174.33"/>
<text text-anchor="middle" x="229" y="-206" font-family="Helvetica,sans-Serif" font-size="10.00"> +endDate</text>
<text text-anchor="middle" x="229" y="-195" font-family="Helvetica,sans-Serif" font-size="10.00">+startDate</text>
</g>
<!-- Node5&#45;&gt;Node1 -->
<g id="edge4" class="edge">
<title>Node5&#45;&gt;Node1</title>
<path fill="none" stroke="#404040" d="M203.71,-105.4C198.92,-94.2 193.31,-81.06 188.13,-68.92"/>
<polygon fill="none" stroke="#404040" points="188.04,-68.71 182,-64.77 183.32,-57.68 189.36,-61.62 188.04,-68.71"/>
<text text-anchor="middle" x="214.5" y="-79" font-family="Helvetica,sans-Serif" font-size="10.00"> +header</text>
</g>
<!-- Node6 -->
<g id="node6" class="node">
<title>Node6</title>
<g id="a_node6"><a xlink:title=" ">
<polygon fill="none" stroke="#bfbfbf" points="265,-243.5 265,-300.5 306,-300.5 306,-243.5 265,-243.5"/>
<text text-anchor="middle" x="285.5" y="-288.5" font-family="Helvetica,sans-Serif" font-size="10.00">string</text>
<polyline fill="none" stroke="#bfbfbf" points="265,-281.5 306,-281.5 "/>
<text text-anchor="middle" x="285.5" y="-269.5" font-family="Helvetica,sans-Serif" font-size="10.00"> </text>
<polyline fill="none" stroke="#bfbfbf" points="265,-262.5 306,-262.5 "/>
<text text-anchor="middle" x="285.5" y="-250.5" font-family="Helvetica,sans-Serif" font-size="10.00"> </text>
</a>
</g>
</g>
<!-- Node6&#45;&gt;Node5 -->
<g id="edge5" class="edge">
<title>Node6&#45;&gt;Node5</title>
<path fill="none" stroke="#404040" d="M279.77,-243.39C275.19,-224.92 267.67,-200.52 256.5,-181 254.78,-178 252.84,-175.02 250.77,-172.11"/>
<polygon fill="none" stroke="#404040" points="250.67,-171.99 243.83,-169.71 243.3,-162.52 250.14,-164.8 250.67,-171.99"/>
<text text-anchor="middle" x="290.5" y="-200.5" font-family="Helvetica,sans-Serif" font-size="10.00"> +name</text>
</g>
</g>
</svg>
